<?xml version="1.0" encoding="utf-8" standalone="no"?>
<!DOCTYPE svg PUBLIC "-//W3C//DTD SVG 1.1//EN"
  "http://www.w3.org/Graphics/SVG/1.1/DTD/svg11.dtd">
<svg xmlns:xlink="http://www.w3.org/1999/xlink" width="534.729687pt" height="343.708906pt" viewBox="0 0 534.729687 343.708906" xmlns="http://www.w3.org/2000/svg" version="1.1">
 <metadata>
  <rdf:RDF xmlns:dc="http://purl.org/dc/elements/1.1/" xmlns:cc="http://creativecommons.org/ns#" xmlns:rdf="http://www.w3.org/1999/02/22-rdf-syntax-ns#">
   <cc:Work>
    <dc:type rdf:resource="http://purl.org/dc/dcmitype/StillImage"/>
    <dc:date>2022-11-12T21:08:52.514395</dc:date>
    <dc:format>image/svg+xml</dc:format>
    <dc:creator>
     <cc:Agent>
      <dc:title>Matplotlib v3.5.2, https://matplotlib.org/</dc:title>
     </cc:Agent>
    </dc:creator>
   </cc:Work>
  </rdf:RDF>
 </metadata>
 <defs>
  <style type="text/css">*{stroke-linejoin: round; stroke-linecap: butt}</style>
 </defs>
 <g id="figure_1">
  <g id="patch_1">
   <path d="M 0 343.708906 
L 534.729687 343.708906 
L 534.729687 0 
L 0 0 
z
" style="fill: #ffffff"/>
  </g>
  <g id="axes_1">
   <g id="patch_2">
    <path d="M 58.224688 291.238594 
L 504.624687 291.238594 
L 504.624687 14.038594 
L 58.224688 14.038594 
z
" style="fill: #f1f7f0"/>
   </g>
   <g id="matplotlib.axis_1">
    <g id="xtick_1">
     <g id="line2d_1">
      <defs>
       <path id="m075084e63b" d="M 0 0 
L 0 3.5 
" style="stroke: #000000; stroke-width: 0.8"/>
      </defs>
      <g>
       <use xlink:href="#m075084e63b" x="58.224688" y="291.238594" style="stroke: #000000; stroke-width: 0.8"/>
      </g>
     </g>
     <g id="text_1">
      <!-- 0 -->
      <g transform="translate(52.498438 311.915781)scale(0.18 -0.18)">
       <defs>
        <path id="DejaVuSans-30" d="M 2034 4250 
Q 1547 4250 1301 3770 
Q 1056 3291 1056 2328 
Q 1056 1369 1301 889 
Q 1547 409 2034 409 
Q 2525 409 2770 889 
Q 3016 1369 3016 2328 
Q 3016 3291 2770 3770 
Q 2525 4250 2034 4250 
z
M 2034 4750 
Q 2819 4750 3233 4129 
Q 3647 3509 3647 2328 
Q 3647 1150 3233 529 
Q 2819 -91 2034 -91 
Q 1250 -91 836 529 
Q 422 1150 422 2328 
Q 422 3509 836 4129 
Q 1250 4750 2034 4750 
z
" transform="scale(0.015625)"/>
       </defs>
       <use xlink:href="#DejaVuSans-30"/>
      </g>
     </g>
    </g>
    <g id="xtick_2">
     <g id="line2d_2">
      <g>
       <use xlink:href="#m075084e63b" x="147.504687" y="291.238594" style="stroke: #000000; stroke-width: 0.8"/>
      </g>
     </g>
     <g id="text_2">
      <!-- 200 -->
      <g transform="translate(130.325937 311.915781)scale(0.18 -0.18)">
       <defs>
        <path id="DejaVuSans-32" d="M 1228 531 
L 3431 531 
L 3431 0 
L 469 0 
L 469 531 
Q 828 903 1448 1529 
Q 2069 2156 2228 2338 
Q 2531 2678 2651 2914 
Q 2772 3150 2772 3378 
Q 2772 3750 2511 3984 
Q 2250 4219 1831 4219 
Q 1534 4219 1204 4116 
Q 875 4013 500 3803 
L 500 4441 
Q 881 4594 1212 4672 
Q 1544 4750 1819 4750 
Q 2544 4750 2975 4387 
Q 3406 4025 3406 3419 
Q 3406 3131 3298 2873 
Q 3191 2616 2906 2266 
Q 2828 2175 2409 1742 
Q 1991 1309 1228 531 
z
" transform="scale(0.015625)"/>
       </defs>
       <use xlink:href="#DejaVuSans-32"/>
       <use xlink:href="#DejaVuSans-30" x="63.623047"/>
       <use xlink:href="#DejaVuSans-30" x="127.246094"/>
      </g>
     </g>
    </g>
    <g id="xtick_3">
     <g id="line2d_3">
      <g>
       <use xlink:href="#m075084e63b" x="236.784687" y="291.238594" style="stroke: #000000; stroke-width: 0.8"/>
      </g>
     </g>
     <g id="text_3">
      <!-- 400 -->
      <g transform="translate(219.605937 311.915781)scale(0.18 -0.18)">
       <defs>
        <path id="DejaVuSans-34" d="M 2419 4116 
L 825 1625 
L 2419 1625 
L 2419 4116 
z
M 2253 4666 
L 3047 4666 
L 3047 1625 
L 3713 1625 
L 3713 1100 
L 3047 1100 
L 3047 0 
L 2419 0 
L 2419 1100 
L 313 1100 
L 313 1709 
L 2253 4666 
z
" transform="scale(0.015625)"/>
       </defs>
       <use xlink:href="#DejaVuSans-34"/>
       <use xlink:href="#DejaVuSans-30" x="63.623047"/>
       <use xlink:href="#DejaVuSans-30" x="127.246094"/>
      </g>
     </g>
    </g>
    <g id="xtick_4">
     <g id="line2d_4">
      <g>
       <use xlink:href="#m075084e63b" x="326.064687" y="291.238594" style="stroke: #000000; stroke-width: 0.8"/>
      </g>
     </g>
     <g id="text_4">
      <!-- 600 -->
      <g transform="translate(308.885938 311.915781)scale(0.18 -0.18)">
       <defs>
        <path id="DejaVuSans-36" d="M 2113 2584 
Q 1688 2584 1439 2293 
Q 1191 2003 1191 1497 
Q 1191 994 1439 701 
Q 1688 409 2113 409 
Q 2538 409 2786 701 
Q 3034 994 3034 1497 
Q 3034 2003 2786 2293 
Q 2538 2584 2113 2584 
z
M 3366 4563 
L 3366 3988 
Q 3128 4100 2886 4159 
Q 2644 4219 2406 4219 
Q 1781 4219 1451 3797 
Q 1122 3375 1075 2522 
Q 1259 2794 1537 2939 
Q 1816 3084 2150 3084 
Q 2853 3084 3261 2657 
Q 3669 2231 3669 1497 
Q 3669 778 3244 343 
Q 2819 -91 2113 -91 
Q 1303 -91 875 529 
Q 447 1150 447 2328 
Q 447 3434 972 4092 
Q 1497 4750 2381 4750 
Q 2619 4750 2861 4703 
Q 3103 4656 3366 4563 
z
" transform="scale(0.015625)"/>
       </defs>
       <use xlink:href="#DejaVuSans-36"/>
       <use xlink:href="#DejaVuSans-30" x="63.623047"/>
       <use xlink:href="#DejaVuSans-30" x="127.246094"/>
      </g>
     </g>
    </g>
    <g id="xtick_5">
     <g id="line2d_5">
      <g>
       <use xlink:href="#m075084e63b" x="415.344687" y="291.238594" style="stroke: #000000; stroke-width: 0.8"/>
      </g>
     </g>
     <g id="text_5">
      <!-- 800 -->
      <g transform="translate(398.165937 311.915781)scale(0.18 -0.18)">
       <defs>
        <path id="DejaVuSans-38" d="M 2034 2216 
Q 1584 2216 1326 1975 
Q 1069 1734 1069 1313 
Q 1069 891 1326 650 
Q 1584 409 2034 409 
Q 2484 409 2743 651 
Q 3003 894 3003 1313 
Q 3003 1734 2745 1975 
Q 2488 2216 2034 2216 
z
M 1403 2484 
Q 997 2584 770 2862 
Q 544 3141 544 3541 
Q 544 4100 942 4425 
Q 1341 4750 2034 4750 
Q 2731 4750 3128 4425 
Q 3525 4100 3525 3541 
Q 3525 3141 3298 2862 
Q 3072 2584 2669 2484 
Q 3125 2378 3379 2068 
Q 3634 1759 3634 1313 
Q 3634 634 3220 271 
Q 2806 -91 2034 -91 
Q 1263 -91 848 271 
Q 434 634 434 1313 
Q 434 1759 690 2068 
Q 947 2378 1403 2484 
z
M 1172 3481 
Q 1172 3119 1398 2916 
Q 1625 2713 2034 2713 
Q 2441 2713 2670 2916 
Q 2900 3119 2900 3481 
Q 2900 3844 2670 4047 
Q 2441 4250 2034 4250 
Q 1625 4250 1398 4047 
Q 1172 3844 1172 3481 
z
" transform="scale(0.015625)"/>
       </defs>
       <use xlink:href="#DejaVuSans-38"/>
       <use xlink:href="#DejaVuSans-30" x="63.623047"/>
       <use xlink:href="#DejaVuSans-30" x="127.246094"/>
      </g>
     </g>
    </g>
    <g id="xtick_6">
     <g id="line2d_6">
      <g>
       <use xlink:href="#m075084e63b" x="504.624687" y="291.238594" style="stroke: #000000; stroke-width: 0.8"/>
      </g>
     </g>
     <g id="text_6">
      <!-- 1000 -->
      <g transform="translate(481.719688 311.915781)scale(0.18 -0.18)">
       <defs>
        <path id="DejaVuSans-31" d="M 794 531 
L 1825 531 
L 1825 4091 
L 703 3866 
L 703 4441 
L 1819 4666 
L 2450 4666 
L 2450 531 
L 3481 531 
L 3481 0 
L 794 0 
L 794 531 
z
" transform="scale(0.015625)"/>
       </defs>
       <use xlink:href="#DejaVuSans-31"/>
       <use xlink:href="#DejaVuSans-30" x="63.623047"/>
       <use xlink:href="#DejaVuSans-30" x="127.246094"/>
       <use xlink:href="#DejaVuSans-30" x="190.869141"/>
      </g>
     </g>
    </g>
    <g id="text_7">
     <!-- Number of Iterations -->
     <g transform="translate(185.751875 333.015781)scale(0.18 -0.18)">
      <defs>
       <path id="Montserrat-Medium-4e" d="M 4525 4480 
L 4525 0 
L 4000 0 
L 1312 3341 
L 1312 0 
L 672 0 
L 672 4480 
L 1197 4480 
L 3885 1139 
L 3885 4480 
L 4525 4480 
z
" transform="scale(0.015625)"/>
       <path id="Montserrat-Medium-75" d="M 3744 3392 
L 3744 0 
L 3162 0 
L 3162 512 
Q 2976 250 2672 106 
Q 2368 -38 2010 -38 
Q 1331 -38 940 336 
Q 550 710 550 1440 
L 550 3392 
L 1165 3392 
L 1165 1510 
Q 1165 1018 1401 765 
Q 1638 512 2080 512 
Q 2566 512 2848 806 
Q 3130 1101 3130 1638 
L 3130 3392 
L 3744 3392 
z
" transform="scale(0.015625)"/>
       <path id="Montserrat-Medium-6d" d="M 4826 3424 
Q 5466 3424 5840 3053 
Q 6214 2682 6214 1952 
L 6214 0 
L 5600 0 
L 5600 1882 
Q 5600 2374 5373 2624 
Q 5146 2874 4723 2874 
Q 4256 2874 3981 2582 
Q 3706 2291 3706 1747 
L 3706 0 
L 3091 0 
L 3091 1882 
Q 3091 2374 2864 2624 
Q 2637 2874 2214 2874 
Q 1747 2874 1472 2582 
Q 1197 2291 1197 1747 
L 1197 0 
L 582 0 
L 582 3392 
L 1171 3392 
L 1171 2886 
Q 1357 3149 1657 3286 
Q 1958 3424 2342 3424 
Q 2739 3424 3046 3264 
Q 3354 3104 3520 2797 
Q 3712 3091 4054 3257 
Q 4397 3424 4826 3424 
z
" transform="scale(0.015625)"/>
       <path id="Montserrat-Medium-62" d="M 2381 3424 
Q 2874 3424 3264 3206 
Q 3654 2989 3875 2598 
Q 4096 2208 4096 1696 
Q 4096 1184 3875 790 
Q 3654 397 3264 179 
Q 2874 -38 2381 -38 
Q 2003 -38 1689 109 
Q 1376 256 1171 538 
L 1171 0 
L 582 0 
L 582 4749 
L 1197 4749 
L 1197 2880 
Q 1402 3149 1709 3286 
Q 2016 3424 2381 3424 
z
M 2330 499 
Q 2656 499 2915 649 
Q 3174 800 3324 1072 
Q 3475 1344 3475 1696 
Q 3475 2048 3324 2320 
Q 3174 2592 2915 2739 
Q 2656 2886 2330 2886 
Q 2010 2886 1747 2739 
Q 1485 2592 1337 2320 
Q 1190 2048 1190 1696 
Q 1190 1344 1337 1072 
Q 1485 800 1747 649 
Q 2010 499 2330 499 
z
" transform="scale(0.015625)"/>
       <path id="Montserrat-Medium-65" d="M 3648 1677 
Q 3648 1606 3635 1491 
L 883 1491 
Q 941 1043 1277 771 
Q 1613 499 2112 499 
Q 2720 499 3091 909 
L 3430 512 
Q 3200 243 2857 102 
Q 2515 -38 2093 -38 
Q 1555 -38 1139 182 
Q 723 403 496 800 
Q 269 1197 269 1696 
Q 269 2189 489 2585 
Q 710 2982 1097 3203 
Q 1485 3424 1971 3424 
Q 2458 3424 2838 3203 
Q 3219 2982 3433 2585 
Q 3648 2189 3648 1677 
z
M 1971 2906 
Q 1530 2906 1232 2637 
Q 934 2368 883 1933 
L 3059 1933 
Q 3008 2362 2710 2634 
Q 2413 2906 1971 2906 
z
" transform="scale(0.015625)"/>
       <path id="Montserrat-Medium-72" d="M 1171 2822 
Q 1331 3117 1644 3270 
Q 1958 3424 2406 3424 
L 2406 2829 
Q 2355 2835 2266 2835 
Q 1766 2835 1481 2537 
Q 1197 2240 1197 1690 
L 1197 0 
L 582 0 
L 582 3392 
L 1171 3392 
L 1171 2822 
z
" transform="scale(0.015625)"/>
       <path id="Montserrat-Medium-20" transform="scale(0.015625)"/>
       <path id="Montserrat-Medium-6f" d="M 2035 -38 
Q 1530 -38 1126 186 
Q 723 410 496 803 
Q 269 1197 269 1696 
Q 269 2195 496 2588 
Q 723 2982 1126 3203 
Q 1530 3424 2035 3424 
Q 2541 3424 2941 3203 
Q 3341 2982 3568 2588 
Q 3795 2195 3795 1696 
Q 3795 1197 3568 803 
Q 3341 410 2941 186 
Q 2541 -38 2035 -38 
z
M 2035 499 
Q 2362 499 2621 649 
Q 2880 800 3027 1072 
Q 3174 1344 3174 1696 
Q 3174 2048 3027 2320 
Q 2880 2592 2621 2739 
Q 2362 2886 2035 2886 
Q 1709 2886 1449 2739 
Q 1190 2592 1040 2320 
Q 890 2048 890 1696 
Q 890 1344 1040 1072 
Q 1190 800 1449 649 
Q 1709 499 2035 499 
z
" transform="scale(0.015625)"/>
       <path id="Montserrat-Medium-66" d="M 1824 4282 
Q 1274 4282 1274 3686 
L 1274 3392 
L 2259 3392 
L 2259 2886 
L 1286 2886 
L 1286 0 
L 672 0 
L 672 2886 
L 96 2886 
L 96 3392 
L 672 3392 
L 672 3693 
Q 672 4198 966 4492 
Q 1261 4787 1792 4787 
Q 1997 4787 2176 4736 
Q 2355 4685 2483 4589 
L 2298 4122 
Q 2086 4282 1824 4282 
z
" transform="scale(0.015625)"/>
       <path id="Montserrat-Medium-49" d="M 672 4480 
L 1312 4480 
L 1312 0 
L 672 0 
L 672 4480 
z
" transform="scale(0.015625)"/>
       <path id="Montserrat-Medium-74" d="M 2490 198 
Q 2355 83 2156 22 
Q 1958 -38 1747 -38 
Q 1235 -38 953 237 
Q 672 512 672 1024 
L 672 2886 
L 96 2886 
L 96 3392 
L 672 3392 
L 672 4134 
L 1286 4134 
L 1286 3392 
L 2259 3392 
L 2259 2886 
L 1286 2886 
L 1286 1050 
Q 1286 774 1424 627 
Q 1562 480 1818 480 
Q 2099 480 2298 640 
L 2490 198 
z
" transform="scale(0.015625)"/>
       <path id="Montserrat-Medium-61" d="M 1818 3424 
Q 2522 3424 2896 3078 
Q 3270 2733 3270 2048 
L 3270 0 
L 2688 0 
L 2688 448 
Q 2534 211 2249 86 
Q 1965 -38 1574 -38 
Q 1005 -38 662 237 
Q 320 512 320 960 
Q 320 1408 646 1680 
Q 973 1952 1683 1952 
L 2656 1952 
L 2656 2074 
Q 2656 2470 2425 2681 
Q 2195 2893 1747 2893 
Q 1446 2893 1158 2793 
Q 870 2694 672 2528 
L 416 2989 
Q 678 3200 1043 3312 
Q 1408 3424 1818 3424 
z
M 1677 435 
Q 2029 435 2285 592 
Q 2541 749 2656 1037 
L 2656 1510 
L 1709 1510 
Q 928 1510 928 986 
Q 928 730 1126 582 
Q 1325 435 1677 435 
z
" transform="scale(0.015625)"/>
       <path id="Montserrat-Medium-69" d="M 582 3392 
L 1197 3392 
L 1197 0 
L 582 0 
L 582 3392 
z
M 890 4045 
Q 710 4045 592 4160 
Q 474 4275 474 4442 
Q 474 4608 592 4726 
Q 710 4845 890 4845 
Q 1069 4845 1187 4733 
Q 1306 4621 1306 4454 
Q 1306 4282 1187 4163 
Q 1069 4045 890 4045 
z
" transform="scale(0.015625)"/>
       <path id="Montserrat-Medium-6e" d="M 2394 3424 
Q 3040 3424 3421 3049 
Q 3802 2675 3802 1952 
L 3802 0 
L 3187 0 
L 3187 1882 
Q 3187 2374 2950 2624 
Q 2714 2874 2272 2874 
Q 1773 2874 1485 2582 
Q 1197 2291 1197 1747 
L 1197 0 
L 582 0 
L 582 3392 
L 1171 3392 
L 1171 2880 
Q 1357 3142 1673 3283 
Q 1990 3424 2394 3424 
z
" transform="scale(0.015625)"/>
       <path id="Montserrat-Medium-73" d="M 1555 -38 
Q 1139 -38 755 74 
Q 371 186 154 358 
L 410 845 
Q 634 685 954 589 
Q 1274 493 1600 493 
Q 2406 493 2406 954 
Q 2406 1107 2297 1196 
Q 2189 1286 2025 1328 
Q 1862 1370 1562 1421 
Q 1152 1485 893 1568 
Q 634 1651 448 1849 
Q 262 2048 262 2406 
Q 262 2867 646 3145 
Q 1030 3424 1677 3424 
Q 2016 3424 2355 3341 
Q 2694 3258 2912 3117 
L 2650 2630 
Q 2234 2899 1670 2899 
Q 1280 2899 1075 2771 
Q 870 2643 870 2432 
Q 870 2266 985 2170 
Q 1101 2074 1270 2029 
Q 1440 1984 1747 1926 
Q 2157 1856 2409 1776 
Q 2662 1696 2841 1504 
Q 3021 1312 3021 966 
Q 3021 506 2627 234 
Q 2234 -38 1555 -38 
z
" transform="scale(0.015625)"/>
      </defs>
      <use xlink:href="#Montserrat-Medium-4e"/>
      <use xlink:href="#Montserrat-Medium-75" x="81.199982"/>
      <use xlink:href="#Montserrat-Medium-6d" x="148.899963"/>
      <use xlink:href="#Montserrat-Medium-62" x="254.599945"/>
      <use xlink:href="#Montserrat-Medium-65" x="322.799927"/>
      <use xlink:href="#Montserrat-Medium-72" x="383.999924"/>
      <use xlink:href="#Montserrat-Medium-20" x="424.999908"/>
      <use xlink:href="#Montserrat-Medium-6f" x="451.899902"/>
      <use xlink:href="#Montserrat-Medium-66" x="515.399887"/>
      <use xlink:href="#Montserrat-Medium-20" x="550.699875"/>
      <use xlink:href="#Montserrat-Medium-49" x="577.599869"/>
      <use xlink:href="#Montserrat-Medium-74" x="608.599854"/>
      <use xlink:href="#Montserrat-Medium-65" x="649.999847"/>
      <use xlink:href="#Montserrat-Medium-72" x="711.199844"/>
      <use xlink:href="#Montserrat-Medium-61" x="752.199829"/>
      <use xlink:href="#Montserrat-Medium-74" x="811.999817"/>
      <use xlink:href="#Montserrat-Medium-69" x="853.399811"/>
      <use xlink:href="#Montserrat-Medium-6f" x="881.299805"/>
      <use xlink:href="#Montserrat-Medium-6e" x="944.799789"/>
      <use xlink:href="#Montserrat-Medium-73" x="1012.89978"/>
     </g>
    </g>
   </g>
   <g id="matplotlib.axis_2">
    <g id="ytick_1">
     <g id="line2d_7">
      <defs>
       <path id="md55eb6fe0b" d="M 0 0 
L -3.5 0 
" style="stroke: #000000; stroke-width: 0.8"/>
      </defs>
      <g>
       <use xlink:href="#md55eb6fe0b" x="58.224688" y="291.238594" style="stroke: #000000; stroke-width: 0.8"/>
      </g>
     </g>
     <g id="text_8">
      <!-- 0 -->
      <g transform="translate(39.772188 298.077188)scale(0.18 -0.18)">
       <use xlink:href="#DejaVuSans-30"/>
      </g>
     </g>
    </g>
    <g id="ytick_2">
     <g id="line2d_8">
      <g>
       <use xlink:href="#md55eb6fe0b" x="58.224688" y="235.798594" style="stroke: #000000; stroke-width: 0.8"/>
      </g>
     </g>
     <g id="text_9">
      <!-- 10 -->
      <g transform="translate(28.319688 242.637188)scale(0.18 -0.18)">
       <use xlink:href="#DejaVuSans-31"/>
       <use xlink:href="#DejaVuSans-30" x="63.623047"/>
      </g>
     </g>
    </g>
    <g id="ytick_3">
     <g id="line2d_9">
      <g>
       <use xlink:href="#md55eb6fe0b" x="58.224688" y="180.358594" style="stroke: #000000; stroke-width: 0.8"/>
      </g>
     </g>
     <g id="text_10">
      <!-- 20 -->
      <g transform="translate(28.319688 187.197188)scale(0.18 -0.18)">
       <use xlink:href="#DejaVuSans-32"/>
       <use xlink:href="#DejaVuSans-30" x="63.623047"/>
      </g>
     </g>
    </g>
    <g id="ytick_4">
     <g id="line2d_10">
      <g>
       <use xlink:href="#md55eb6fe0b" x="58.224688" y="124.918594" style="stroke: #000000; stroke-width: 0.8"/>
      </g>
     </g>
     <g id="text_11">
      <!-- 30 -->
      <g transform="translate(28.319688 131.757187)scale(0.18 -0.18)">
       <defs>
        <path id="DejaVuSans-33" d="M 2597 2516 
Q 3050 2419 3304 2112 
Q 3559 1806 3559 1356 
Q 3559 666 3084 287 
Q 2609 -91 1734 -91 
Q 1441 -91 1130 -33 
Q 819 25 488 141 
L 488 750 
Q 750 597 1062 519 
Q 1375 441 1716 441 
Q 2309 441 2620 675 
Q 2931 909 2931 1356 
Q 2931 1769 2642 2001 
Q 2353 2234 1838 2234 
L 1294 2234 
L 1294 2753 
L 1863 2753 
Q 2328 2753 2575 2939 
Q 2822 3125 2822 3475 
Q 2822 3834 2567 4026 
Q 2313 4219 1838 4219 
Q 1578 4219 1281 4162 
Q 984 4106 628 3988 
L 628 4550 
Q 988 4650 1302 4700 
Q 1616 4750 1894 4750 
Q 2613 4750 3031 4423 
Q 3450 4097 3450 3541 
Q 3450 3153 3228 2886 
Q 3006 2619 2597 2516 
z
" transform="scale(0.015625)"/>
       </defs>
       <use xlink:href="#DejaVuSans-33"/>
       <use xlink:href="#DejaVuSans-30" x="63.623047"/>
      </g>
     </g>
    </g>
    <g id="ytick_5">
     <g id="line2d_11">
      <g>
       <use xlink:href="#md55eb6fe0b" x="58.224688" y="69.478594" style="stroke: #000000; stroke-width: 0.8"/>
      </g>
     </g>
     <g id="text_12">
      <!-- 40 -->
      <g transform="translate(28.319688 76.317187)scale(0.18 -0.18)">
       <use xlink:href="#DejaVuSans-34"/>
       <use xlink:href="#DejaVuSans-30" x="63.623047"/>
      </g>
     </g>
    </g>
    <g id="ytick_6">
     <g id="line2d_12">
      <g>
       <use xlink:href="#md55eb6fe0b" x="58.224688" y="14.038594" style="stroke: #000000; stroke-width: 0.8"/>
      </g>
     </g>
     <g id="text_13">
      <!-- 50 -->
      <g transform="translate(28.319688 20.877187)scale(0.18 -0.18)">
       <defs>
        <path id="DejaVuSans-35" d="M 691 4666 
L 3169 4666 
L 3169 4134 
L 1269 4134 
L 1269 2991 
Q 1406 3038 1543 3061 
Q 1681 3084 1819 3084 
Q 2600 3084 3056 2656 
Q 3513 2228 3513 1497 
Q 3513 744 3044 326 
Q 2575 -91 1722 -91 
Q 1428 -91 1123 -41 
Q 819 9 494 109 
L 494 744 
Q 775 591 1075 516 
Q 1375 441 1709 441 
Q 2250 441 2565 725 
Q 2881 1009 2881 1497 
Q 2881 1984 2565 2268 
Q 2250 2553 1709 2553 
Q 1456 2553 1204 2497 
Q 953 2441 691 2322 
L 691 4666 
z
" transform="scale(0.015625)"/>
       </defs>
       <use xlink:href="#DejaVuSans-35"/>
       <use xlink:href="#DejaVuSans-30" x="63.623047"/>
      </g>
     </g>
    </g>
    <g id="text_14">
     <!-- Cost Function (MSE) -->
     <g transform="translate(20.826562 245.383594)rotate(-90)scale(0.18 -0.18)">
      <defs>
       <path id="Montserrat-Medium-43" d="M 2675 -51 
Q 2003 -51 1462 246 
Q 922 544 614 1065 
Q 307 1587 307 2240 
Q 307 2893 614 3414 
Q 922 3936 1466 4233 
Q 2010 4531 2682 4531 
Q 3206 4531 3641 4355 
Q 4077 4179 4384 3834 
L 3968 3430 
Q 3462 3962 2707 3962 
Q 2208 3962 1805 3738 
Q 1402 3514 1174 3120 
Q 947 2726 947 2240 
Q 947 1754 1174 1360 
Q 1402 966 1805 742 
Q 2208 518 2707 518 
Q 3456 518 3968 1056 
L 4384 653 
Q 4077 307 3638 128 
Q 3200 -51 2675 -51 
z
" transform="scale(0.015625)"/>
       <path id="Montserrat-Medium-46" d="M 1312 3923 
L 1312 2362 
L 3558 2362 
L 3558 1811 
L 1312 1811 
L 1312 0 
L 672 0 
L 672 4480 
L 3834 4480 
L 3834 3923 
L 1312 3923 
z
" transform="scale(0.015625)"/>
       <path id="Montserrat-Medium-63" d="M 2061 -38 
Q 1542 -38 1136 186 
Q 730 410 499 803 
Q 269 1197 269 1696 
Q 269 2195 499 2588 
Q 730 2982 1136 3203 
Q 1542 3424 2061 3424 
Q 2522 3424 2883 3238 
Q 3245 3053 3443 2701 
L 2976 2400 
Q 2816 2643 2579 2764 
Q 2342 2886 2054 2886 
Q 1722 2886 1456 2739 
Q 1190 2592 1040 2320 
Q 890 2048 890 1696 
Q 890 1338 1040 1066 
Q 1190 794 1456 646 
Q 1722 499 2054 499 
Q 2342 499 2579 620 
Q 2816 742 2976 986 
L 3443 691 
Q 3245 339 2883 150 
Q 2522 -38 2061 -38 
z
" transform="scale(0.015625)"/>
       <path id="Montserrat-Medium-28" d="M 1370 -1242 
Q 1005 -653 806 112 
Q 608 877 608 1754 
Q 608 2630 806 3401 
Q 1005 4173 1370 4749 
L 1952 4749 
Q 1568 4077 1389 3341 
Q 1210 2605 1210 1754 
Q 1210 902 1389 166 
Q 1568 -570 1952 -1242 
L 1370 -1242 
z
" transform="scale(0.015625)"/>
       <path id="Montserrat-Medium-4d" d="M 4826 0 
L 4819 3264 
L 3200 544 
L 2906 544 
L 1286 3245 
L 1286 0 
L 672 0 
L 672 4480 
L 1197 4480 
L 3066 1331 
L 4909 4480 
L 5434 4480 
L 5440 0 
L 4826 0 
z
" transform="scale(0.015625)"/>
       <path id="Montserrat-Medium-53" d="M 1978 -51 
Q 1472 -51 1001 105 
Q 531 262 262 512 
L 499 1011 
Q 755 781 1155 637 
Q 1555 493 1978 493 
Q 2534 493 2809 681 
Q 3085 870 3085 1184 
Q 3085 1414 2934 1558 
Q 2784 1702 2563 1779 
Q 2342 1856 1939 1952 
Q 1434 2074 1123 2195 
Q 813 2317 592 2569 
Q 371 2822 371 3251 
Q 371 3610 560 3898 
Q 749 4186 1133 4358 
Q 1517 4531 2086 4531 
Q 2483 4531 2867 4428 
Q 3251 4326 3526 4134 
L 3315 3622 
Q 3034 3802 2714 3894 
Q 2394 3987 2086 3987 
Q 1542 3987 1270 3788 
Q 998 3590 998 3277 
Q 998 3046 1152 2902 
Q 1306 2758 1533 2678 
Q 1760 2598 2150 2509 
Q 2656 2387 2963 2265 
Q 3270 2144 3491 1894 
Q 3712 1645 3712 1222 
Q 3712 870 3520 579 
Q 3328 288 2937 118 
Q 2547 -51 1978 -51 
z
" transform="scale(0.015625)"/>
       <path id="Montserrat-Medium-45" d="M 3923 557 
L 3923 0 
L 672 0 
L 672 4480 
L 3834 4480 
L 3834 3923 
L 1312 3923 
L 1312 2547 
L 3558 2547 
L 3558 2003 
L 1312 2003 
L 1312 557 
L 3923 557 
z
" transform="scale(0.015625)"/>
       <path id="Montserrat-Medium-29" d="M 205 -1242 
Q 589 -570 771 166 
Q 954 902 954 1754 
Q 954 2605 771 3341 
Q 589 4077 205 4749 
L 787 4749 
Q 1158 4173 1356 3405 
Q 1555 2637 1555 1754 
Q 1555 877 1356 109 
Q 1158 -659 787 -1242 
L 205 -1242 
z
" transform="scale(0.015625)"/>
      </defs>
      <use xlink:href="#Montserrat-Medium-43"/>
      <use xlink:href="#Montserrat-Medium-6f" x="72.299988"/>
      <use xlink:href="#Montserrat-Medium-73" x="135.799973"/>
      <use xlink:href="#Montserrat-Medium-74" x="185.899963"/>
      <use xlink:href="#Montserrat-Medium-20" x="227.299957"/>
      <use xlink:href="#Montserrat-Medium-46" x="254.199951"/>
      <use xlink:href="#Montserrat-Medium-75" x="317.699936"/>
      <use xlink:href="#Montserrat-Medium-6e" x="385.399918"/>
      <use xlink:href="#Montserrat-Medium-63" x="453.499908"/>
      <use xlink:href="#Montserrat-Medium-74" x="510.599899"/>
      <use xlink:href="#Montserrat-Medium-69" x="551.999893"/>
      <use xlink:href="#Montserrat-Medium-6f" x="579.899887"/>
      <use xlink:href="#Montserrat-Medium-6e" x="643.399872"/>
      <use xlink:href="#Montserrat-Medium-20" x="711.499863"/>
      <use xlink:href="#Montserrat-Medium-28" x="738.399857"/>
      <use xlink:href="#Montserrat-Medium-4d" x="772.099854"/>
      <use xlink:href="#Montserrat-Medium-53" x="867.599838"/>
      <use xlink:href="#Montserrat-Medium-45" x="929.699829"/>
      <use xlink:href="#Montserrat-Medium-29" x="996.699814"/>
     </g>
    </g>
   </g>
   <g id="line2d_13">
    <path d="M 68.289307 -1 
L 69.384687 24.055476 
L 70.277488 41.856089 
L 72.509488 78.013313 
L 73.848687 96.171233 
L 75.187888 111.622819 
L 76.527087 123.719019 
L 77.419888 130.51536 
L 78.759087 138.353537 
L 79.651888 141.999422 
L 80.544687 144.681 
L 81.437488 146.771093 
L 82.330287 148.225033 
L 82.776688 148.86919 
L 83.223087 149.713054 
L 85.455088 152.63245 
L 85.901488 153.421603 
L 86.794287 154.466654 
L 87.687088 155.548938 
L 88.579887 156.659635 
L 89.919088 158.51632 
L 90.365488 158.858876 
L 92.597487 161.83937 
L 93.043887 162.206384 
L 97.061487 166.80342 
L 101.079087 171.067904 
L 103.311087 173.275911 
L 104.203888 174.182026 
L 104.650287 174.417675 
L 105.989487 175.726007 
L 106.882287 176.358342 
L 107.328688 176.99276 
L 107.775087 177.226728 
L 111.346287 180.205054 
L 113.578287 182.007609 
L 114.471087 182.487621 
L 114.917487 182.991192 
L 115.810287 183.487668 
L 117.149487 184.513665 
L 117.595888 184.738539 
L 118.935087 185.690346 
L 123.399087 188.481126 
L 123.845487 188.598268 
L 125.184687 189.452146 
L 126.523888 190.109289 
L 126.970287 190.263589 
L 127.416687 190.608968 
L 129.202288 191.426238 
L 130.095087 191.830199 
L 131.434287 192.610226 
L 131.880687 192.618125 
L 133.219887 193.140942 
L 136.791088 194.595125 
L 137.237487 194.863935 
L 138.130288 195.077294 
L 138.576687 195.359671 
L 139.023087 195.327134 
L 139.469488 195.578443 
L 140.362287 195.7693 
L 141.255088 196.132243 
L 142.594288 196.466614 
L 143.487088 196.612286 
L 143.933488 196.87914 
L 146.165487 197.372951 
L 148.397488 198.017204 
L 148.843887 197.910033 
L 149.736687 198.234866 
L 151.075887 198.453776 
L 151.522288 198.634935 
L 151.968687 198.653631 
L 153.307887 199.004784 
L 154.200688 199.015072 
L 155.093487 199.285405 
L 157.325488 199.587694 
L 157.771887 199.735978 
L 158.218287 199.636199 
L 159.111087 199.867364 
L 160.896687 200.055598 
L 162.682287 200.253624 
L 163.128688 200.480401 
L 163.575087 200.370291 
L 164.467887 200.596106 
L 165.360687 200.583649 
L 166.253488 200.653059 
L 168.039087 200.88708 
L 169.824687 200.967424 
L 170.271087 201.177345 
L 170.717488 201.052272 
L 172.056688 201.15331 
L 172.503087 201.347867 
L 172.949487 201.21241 
L 174.288687 201.444665 
L 174.735087 201.296825 
L 176.074287 201.479655 
L 176.520688 201.367958 
L 176.967087 201.439642 
L 177.413487 201.640375 
L 177.859887 201.513884 
L 182.770287 201.714205 
L 183.216687 201.876235 
L 184.555887 201.840695 
L 185.002287 201.929467 
L 185.448688 201.830713 
L 185.895087 201.970135 
L 186.341487 201.960291 
L 186.787888 201.789029 
L 187.234287 202.057046 
L 187.680687 201.913425 
L 189.019887 202.0273 
L 195.269487 202.169663 
L 195.715888 202.267941 
L 196.162287 202.154732 
L 196.608687 202.270775 
L 197.501487 202.1871 
L 197.947887 202.322758 
L 198.394288 202.093697 
L 199.287087 202.221223 
L 199.733487 202.172126 
L 200.179888 202.328965 
L 200.626287 202.284616 
L 201.519088 202.370459 
L 201.965487 202.370142 
L 202.411887 202.233447 
L 203.304688 202.265826 
L 204.643888 202.386585 
L 205.090287 202.473167 
L 205.536687 202.239305 
L 206.429487 202.374001 
L 206.875887 202.301969 
L 207.322288 202.435808 
L 209.107888 202.434518 
L 209.554287 202.489304 
L 210.447088 202.410282 
L 210.893487 202.472089 
L 211.786288 202.391565 
L 212.679087 202.557366 
L 213.125487 202.420761 
L 213.571888 202.499275 
L 214.464687 202.429559 
L 215.803887 202.455847 
L 216.250288 202.406856 
L 216.696687 202.55119 
L 218.035888 202.409891 
L 218.928687 202.496251 
L 219.375088 202.462107 
L 220.267887 202.561886 
L 220.714288 202.475843 
L 221.160687 202.565291 
L 221.607087 202.449671 
L 222.499887 202.582004 
L 223.392687 202.518362 
L 223.839088 202.599314 
L 224.731887 202.51501 
L 225.178288 202.60394 
L 226.517488 202.505102 
L 226.963887 202.594392 
L 227.856687 202.562711 
L 229.642288 202.556192 
L 230.088687 202.466135 
L 232.767088 202.543883 
L 234.552687 202.643361 
L 234.999087 202.4677 
L 235.445488 202.582744 
L 235.891887 202.502987 
L 236.338287 202.538823 
L 236.784687 202.711714 
L 237.231088 202.523755 
L 237.677487 202.607594 
L 238.570288 202.561019 
L 239.016687 202.595116 
L 239.463087 202.506783 
L 240.355887 202.575205 
L 240.802287 202.520065 
L 241.248687 202.676041 
L 243.480687 202.590273 
L 244.373488 202.60606 
L 250.623087 202.531971 
L 251.069487 202.686521 
L 257.319087 202.638814 
L 257.765488 202.678119 
L 258.658287 202.564746 
L 260.443887 202.654242 
L 260.890287 202.709277 
L 261.336687 202.589512 
L 262.229488 202.661184 
L 263.122287 202.587085 
L 264.907887 202.650489 
L 265.800687 202.676909 
L 266.247087 202.784175 
L 266.693488 202.625681 
L 268.032688 202.735596 
L 269.371887 202.636086 
L 269.818287 202.840885 
L 270.264687 202.596977 
L 270.711087 202.657404 
L 271.157488 202.588459 
L 272.050287 202.728146 
L 272.943087 202.657647 
L 273.389487 202.772553 
L 273.835887 202.646592 
L 274.728687 202.650732 
L 275.621488 202.621816 
L 276.960688 202.690063 
L 277.853487 202.660402 
L 278.299888 202.598151 
L 278.746287 202.718492 
L 279.192687 202.605828 
L 281.424688 202.810954 
L 281.871087 202.569838 
L 282.317487 202.717297 
L 284.103087 202.646275 
L 284.549487 202.723626 
L 284.995887 202.580899 
L 285.442287 202.741497 
L 285.888688 202.650621 
L 287.674287 202.655934 
L 288.567087 202.661354 
L 289.013487 202.761926 
L 289.906287 202.564937 
L 290.352688 202.731377 
L 291.691888 202.713163 
L 292.138287 202.631931 
L 292.584687 202.711751 
L 293.031087 202.584758 
L 294.370287 202.625882 
L 294.816688 202.618189 
L 295.263087 202.797282 
L 295.709487 202.653846 
L 297.941487 202.706543 
L 298.387887 202.678135 
L 298.834287 202.909787 
L 299.280687 202.594693 
L 299.727087 202.718074 
L 307.762287 202.58589 
L 308.208687 202.720734 
L 308.655087 202.615953 
L 309.547888 202.685241 
L 310.440687 202.670315 
L 310.887088 202.736775 
L 311.333487 202.643081 
L 312.226287 202.673075 
L 314.458287 202.730721 
L 314.904688 202.593445 
L 315.797487 202.808686 
L 316.690288 202.631841 
L 317.583087 202.724345 
L 320.261487 202.636139 
L 321.154288 202.708573 
L 322.047087 202.709895 
L 322.493488 202.727115 
L 322.939887 202.496875 
L 323.832688 202.680736 
L 327.850287 202.671188 
L 328.296688 202.832309 
L 328.743088 202.57098 
L 329.189487 202.718656 
L 330.528687 202.595417 
L 330.975087 202.724773 
L 333.653487 202.732604 
L 334.099887 202.537681 
L 334.546288 202.76145 
L 334.992687 202.611284 
L 335.439087 202.693013 
L 335.885488 202.636176 
L 336.331887 202.732836 
L 337.224688 202.657557 
L 338.117487 202.778131 
L 339.010288 202.602909 
L 340.349488 202.715288 
L 342.135087 202.762936 
L 342.581487 202.617772 
L 348.384687 202.667661 
L 348.831087 202.783493 
L 349.723887 202.630524 
L 350.170287 202.760964 
L 350.616688 202.658974 
L 351.063087 202.798053 
L 351.509487 202.652397 
L 352.402287 202.688012 
L 352.848687 202.64122 
L 353.295087 202.905304 
L 353.741488 202.675618 
L 354.634287 202.696788 
L 355.973487 202.697698 
L 356.866287 202.680488 
L 357.759087 202.75067 
L 358.205488 202.620013 
L 359.544688 202.673969 
L 362.223087 202.629308 
L 362.669488 202.786956 
L 363.115887 202.620214 
L 364.008688 202.755174 
L 364.455087 202.647464 
L 366.240687 202.783477 
L 366.687088 202.672869 
L 367.133488 202.752716 
L 368.472688 202.660867 
L 371.151088 202.75564 
L 371.597487 202.935694 
L 372.043887 202.654353 
L 373.829487 202.881554 
L 374.722287 202.645402 
L 375.615088 202.721797 
L 378.293487 202.770729 
L 378.739888 202.629477 
L 379.632687 202.800565 
L 380.525487 202.755005 
L 382.757487 202.672288 
L 383.203888 202.769053 
L 383.650287 202.665948 
L 384.543088 202.718593 
L 384.989487 202.653946 
L 385.435887 202.74727 
L 385.882287 202.671642 
L 386.328688 202.807005 
L 386.775087 202.70364 
L 387.221487 202.813291 
L 387.667888 202.690354 
L 392.131888 202.746821 
L 392.578287 202.598912 
L 393.024687 202.76007 
L 393.917487 202.698676 
L 394.363887 202.670442 
L 394.810288 202.770063 
L 396.149487 202.646893 
L 397.042287 202.774208 
L 401.506287 202.708584 
L 401.952687 202.785126 
L 403.738288 202.667492 
L 405.077487 202.779527 
L 407.309487 202.614081 
L 407.755887 202.838881 
L 408.202288 202.6541 
L 408.648687 202.630635 
L 409.095087 202.74745 
L 412.666288 202.737605 
L 413.112687 202.77534 
L 413.559087 202.647316 
L 414.005488 202.768789 
L 414.451887 202.664124 
L 415.344687 202.777032 
L 415.791088 202.575881 
L 416.237487 202.606224 
L 416.683887 202.777391 
L 417.130288 202.705131 
L 417.576687 202.803769 
L 418.023087 202.691818 
L 418.469488 202.764422 
L 418.915887 202.581121 
L 419.808687 202.743823 
L 420.701487 202.664997 
L 421.594288 202.751976 
L 422.040687 202.627595 
L 423.379887 202.771792 
L 423.826287 202.628901 
L 424.272687 202.667931 
L 424.719088 202.840541 
L 425.165487 202.684644 
L 426.504687 202.725239 
L 426.951087 202.690243 
L 427.843887 202.766933 
L 428.736687 202.671669 
L 429.183087 202.79054 
L 430.075887 202.650621 
L 430.968687 202.746504 
L 432.754287 202.72306 
L 433.647087 202.762799 
L 434.093487 202.698343 
L 434.986288 202.830644 
L 435.432687 202.680995 
L 436.325488 202.725016 
L 436.771887 202.645688 
L 437.664687 202.792391 
L 438.111087 202.717636 
L 438.557487 202.79265 
L 439.896687 202.734745 
L 440.343087 202.82385 
L 441.235887 202.743992 
L 441.682287 202.885149 
L 442.575087 202.655469 
L 443.467887 202.671473 
L 443.914288 202.761482 
L 444.360687 202.664748 
L 444.807087 202.788108 
L 446.592688 202.613166 
L 447.039087 202.834487 
L 447.485487 202.706004 
L 447.931887 202.744574 
L 448.378287 202.610999 
L 448.824687 202.765744 
L 452.395887 202.714574 
L 453.288687 202.7665 
L 453.735087 202.68633 
L 455.074287 202.80811 
L 456.413487 202.697814 
L 456.859887 202.784867 
L 457.306287 202.658292 
L 457.752687 202.812572 
L 458.645488 202.735876 
L 459.538287 202.751061 
L 459.984688 202.590463 
L 461.323887 202.760472 
L 468.019887 202.640443 
L 468.466287 202.817431 
L 469.359087 202.67832 
L 469.805487 202.664219 
L 470.251888 202.770375 
L 471.144687 202.697338 
L 471.591087 202.805017 
L 473.376688 202.770555 
L 477.394287 202.795754 
L 477.840688 202.662633 
L 479.179888 202.84816 
L 479.626287 202.719227 
L 480.965487 202.749015 
L 482.304688 202.699485 
L 483.197487 202.748513 
L 486.322287 202.841651 
L 486.768687 202.678706 
L 488.107888 202.800105 
L 488.554287 202.676623 
L 489.447087 202.790429 
L 489.893487 202.711719 
L 490.339887 202.793681 
L 491.232687 202.773029 
L 492.571888 202.705549 
L 493.018287 202.665742 
L 493.911088 202.778475 
L 494.357487 202.659001 
L 494.803887 202.72397 
L 495.250287 202.667809 
L 497.035888 202.80784 
L 497.928687 202.736532 
L 498.375088 202.816421 
L 498.821487 202.697391 
L 499.714287 202.723467 
L 500.160687 202.645429 
L 501.053487 202.825145 
L 501.499887 202.639211 
L 501.946287 202.776202 
L 504.178287 202.840261 
L 504.178287 202.840261 
" clip-path="url(#pd48a1411ff)" style="fill: none; stroke: #0000ff; stroke-width: 2; stroke-linecap: square"/>
   </g>
   <g id="patch_3">
    <path d="M 58.224688 291.238594 
L 58.224688 14.038594 
" style="fill: none; stroke: #000000; stroke-width: 0.8; stroke-linejoin: miter; stroke-linecap: square"/>
   </g>
   <g id="patch_4">
    <path d="M 504.624687 291.238594 
L 504.624687 14.038594 
" style="fill: none; stroke: #000000; stroke-width: 0.8; stroke-linejoin: miter; stroke-linecap: square"/>
   </g>
   <g id="patch_5">
    <path d="M 58.224688 291.238594 
L 504.624687 291.238594 
" style="fill: none; stroke: #000000; stroke-width: 0.8; stroke-linejoin: miter; stroke-linecap: square"/>
   </g>
   <g id="patch_6">
    <path d="M 58.224688 14.038594 
L 504.624687 14.038594 
" style="fill: none; stroke: #000000; stroke-width: 0.8; stroke-linejoin: miter; stroke-linecap: square"/>
   </g>
  </g>
 </g>
 <defs>
  <clipPath id="pd48a1411ff">
   <rect x="58.224688" y="14.038594" width="446.4" height="277.2"/>
  </clipPath>
 </defs>
</svg>
