<?xml version="1.0" encoding="utf-8" standalone="no"?>
<!DOCTYPE svg PUBLIC "-//W3C//DTD SVG 1.1//EN"
  "http://www.w3.org/Graphics/SVG/1.1/DTD/svg11.dtd">
<svg xmlns:xlink="http://www.w3.org/1999/xlink" width="526.638125pt" height="356.496875pt" viewBox="0 0 526.638125 356.496875" xmlns="http://www.w3.org/2000/svg" version="1.1">
 <metadata>
  <rdf:RDF xmlns:dc="http://purl.org/dc/elements/1.1/" xmlns:cc="http://creativecommons.org/ns#" xmlns:rdf="http://www.w3.org/1999/02/22-rdf-syntax-ns#">
   <cc:Work>
    <dc:type rdf:resource="http://purl.org/dc/dcmitype/StillImage"/>
    <dc:date>2022-12-28T12:12:05.585776</dc:date>
    <dc:format>image/svg+xml</dc:format>
    <dc:creator>
     <cc:Agent>
      <dc:title>Matplotlib v3.5.2, https://matplotlib.org/</dc:title>
     </cc:Agent>
    </dc:creator>
   </cc:Work>
  </rdf:RDF>
 </metadata>
 <defs>
  <style type="text/css">*{stroke-linejoin: round; stroke-linecap: butt}</style>
 </defs>
 <g id="figure_1">
  <g id="patch_1">
   <path d="M 0 356.496875 
L 526.638125 356.496875 
L 526.638125 0 
L 0 0 
z
" style="fill: #ffffff"/>
  </g>
  <g id="axes_1">
   <g id="patch_2">
    <path d="M 61.585625 304.026563 
L 507.985625 304.026563 
L 507.985625 26.826562 
L 61.585625 26.826562 
z
" style="fill: #f1f7f0"/>
   </g>
   <g id="PathCollection_1">
    <defs>
     <path id="m0fb73c7bd5" d="M 0 3 
C 0.795609 3 1.55874 2.683901 2.12132 2.12132 
C 2.683901 1.55874 3 0.795609 3 0 
C 3 -0.795609 2.683901 -1.55874 2.12132 -2.12132 
C 1.55874 -2.683901 0.795609 -3 0 -3 
C -0.795609 -3 -1.55874 -2.683901 -2.12132 -2.12132 
C -2.683901 -1.55874 -3 -0.795609 -3 0 
C -3 0.795609 -2.683901 1.55874 -2.12132 2.12132 
C -1.55874 2.683901 -0.795609 3 0 3 
z
" style="stroke: #0000ff"/>
    </defs>
    <g clip-path="url(#p98fe213ecb)">
     <use xlink:href="#m0fb73c7bd5" x="190.148825" y="218.43098" style="fill: #0000ff; stroke: #0000ff"/>
     <use xlink:href="#m0fb73c7bd5" x="168.721625" y="228.760815" style="fill: #0000ff; stroke: #0000ff"/>
     <use xlink:href="#m0fb73c7bd5" x="174.078425" y="241.020743" style="fill: #0000ff; stroke: #0000ff"/>
     <use xlink:href="#m0fb73c7bd5" x="175.864025" y="230.380054" style="fill: #0000ff; stroke: #0000ff"/>
     <use xlink:href="#m0fb73c7bd5" x="295.499225" y="207.248123" style="fill: #0000ff; stroke: #0000ff"/>
     <use xlink:href="#m0fb73c7bd5" x="179.435225" y="216.732212" style="fill: #0000ff; stroke: #0000ff"/>
     <use xlink:href="#m0fb73c7bd5" x="225.860825" y="209.098677" style="fill: #0000ff; stroke: #0000ff"/>
     <use xlink:href="#m0fb73c7bd5" x="183.006425" y="268.512639" style="fill: #0000ff; stroke: #0000ff"/>
     <use xlink:href="#m0fb73c7bd5" x="202.648025" y="204.009652" style="fill: #0000ff; stroke: #0000ff"/>
     <use xlink:href="#m0fb73c7bd5" x="181.220825" y="233.387206" style="fill: #0000ff; stroke: #0000ff"/>
     <use xlink:href="#m0fb73c7bd5" x="175.864025" y="230.61137" style="fill: #0000ff; stroke: #0000ff"/>
     <use xlink:href="#m0fb73c7bd5" x="183.006425" y="215.344295" style="fill: #0000ff; stroke: #0000ff"/>
     <use xlink:href="#m0fb73c7bd5" x="190.148825" y="209.608585" style="fill: #0000ff; stroke: #0000ff"/>
     <use xlink:href="#m0fb73c7bd5" x="199.076825" y="196.267024" style="fill: #0000ff; stroke: #0000ff"/>
     <use xlink:href="#m0fb73c7bd5" x="202.648025" y="190.484044" style="fill: #0000ff; stroke: #0000ff"/>
     <use xlink:href="#m0fb73c7bd5" x="240.145625" y="175.611308" style="fill: #0000ff; stroke: #0000ff"/>
     <use xlink:href="#m0fb73c7bd5" x="258.001625" y="172.835474" style="fill: #0000ff; stroke: #0000ff"/>
     <use xlink:href="#m0fb73c7bd5" x="270.500825" y="168.639238" style="fill: #0000ff; stroke: #0000ff"/>
     <use xlink:href="#m0fb73c7bd5" x="234.788825" y="210.684535" style="fill: #0000ff; stroke: #0000ff"/>
     <use xlink:href="#m0fb73c7bd5" x="288.356825" y="168.705634" style="fill: #0000ff; stroke: #0000ff"/>
     <use xlink:href="#m0fb73c7bd5" x="175.864025" y="192.068889" style="fill: #0000ff; stroke: #0000ff"/>
     <use xlink:href="#m0fb73c7bd5" x="318.712025" y="168.242996" style="fill: #0000ff; stroke: #0000ff"/>
     <use xlink:href="#m0fb73c7bd5" x="165.150425" y="229.726697" style="fill: #0000ff; stroke: #0000ff"/>
     <use xlink:href="#m0fb73c7bd5" x="240.145625" y="205.206847" style="fill: #0000ff; stroke: #0000ff"/>
     <use xlink:href="#m0fb73c7bd5" x="181.220825" y="211.915108" style="fill: #0000ff; stroke: #0000ff"/>
     <use xlink:href="#m0fb73c7bd5" x="295.499225" y="194.566157" style="fill: #0000ff; stroke: #0000ff"/>
     <use xlink:href="#m0fb73c7bd5" x="625.835225" y="162.490253" style="fill: #0000ff; stroke: #0000ff"/>
     <use xlink:href="#m0fb73c7bd5" x="177.649625" y="205.053006" style="fill: #0000ff; stroke: #0000ff"/>
     <use xlink:href="#m0fb73c7bd5" x="215.147225" y="172.899624" style="fill: #0000ff; stroke: #0000ff"/>
     <use xlink:href="#m0fb73c7bd5" x="211.576025" y="188.183295" style="fill: #0000ff; stroke: #0000ff"/>
     <use xlink:href="#m0fb73c7bd5" x="199.076825" y="204.564836" style="fill: #0000ff; stroke: #0000ff"/>
     <use xlink:href="#m0fb73c7bd5" x="202.648025" y="204.901523" style="fill: #0000ff; stroke: #0000ff"/>
     <use xlink:href="#m0fb73c7bd5" x="195.505625" y="211.11204" style="fill: #0000ff; stroke: #0000ff"/>
     <use xlink:href="#m0fb73c7bd5" x="229.432025" y="189.816444" style="fill: #0000ff; stroke: #0000ff"/>
     <use xlink:href="#m0fb73c7bd5" x="263.358425" y="181.488944" style="fill: #0000ff; stroke: #0000ff"/>
     <use xlink:href="#m0fb73c7bd5" x="306.212825" y="176.862559" style="fill: #0000ff; stroke: #0000ff"/>
     <use xlink:href="#m0fb73c7bd5" x="307.998425" y="179.407073" style="fill: #0000ff; stroke: #0000ff"/>
     <use xlink:href="#m0fb73c7bd5" x="179.435225" y="211.791777" style="fill: #0000ff; stroke: #0000ff"/>
     <use xlink:href="#m0fb73c7bd5" x="209.790425" y="186.115334" style="fill: #0000ff; stroke: #0000ff"/>
     <use xlink:href="#m0fb73c7bd5" x="229.432025" y="191.435676" style="fill: #0000ff; stroke: #0000ff"/>
     <use xlink:href="#m0fb73c7bd5" x="240.145625" y="189.122487" style="fill: #0000ff; stroke: #0000ff"/>
     <use xlink:href="#m0fb73c7bd5" x="170.507225" y="219.425314" style="fill: #0000ff; stroke: #0000ff"/>
     <use xlink:href="#m0fb73c7bd5" x="234.788825" y="186.577972" style="fill: #0000ff; stroke: #0000ff"/>
     <use xlink:href="#m0fb73c7bd5" x="159.793625" y="241.400645" style="fill: #0000ff; stroke: #0000ff"/>
     <use xlink:href="#m0fb73c7bd5" x="272.286425" y="174.14959" style="fill: #0000ff; stroke: #0000ff"/>
     <use xlink:href="#m0fb73c7bd5" x="216.932825" y="194.933224" style="fill: #0000ff; stroke: #0000ff"/>
     <use xlink:href="#m0fb73c7bd5" x="208.004825" y="173.666015" style="fill: #0000ff; stroke: #0000ff"/>
     <use xlink:href="#m0fb73c7bd5" x="208.004825" y="178.245957" style="fill: #0000ff; stroke: #0000ff"/>
     <use xlink:href="#m0fb73c7bd5" x="322.283225" y="186.342133" style="fill: #0000ff; stroke: #0000ff"/>
     <use xlink:href="#m0fb73c7bd5" x="263.358425" y="175.932762" style="fill: #0000ff; stroke: #0000ff"/>
     <use xlink:href="#m0fb73c7bd5" x="386.564825" y="172.231658" style="fill: #0000ff; stroke: #0000ff"/>
     <use xlink:href="#m0fb73c7bd5" x="190.148825" y="212.446112" style="fill: #0000ff; stroke: #0000ff"/>
     <use xlink:href="#m0fb73c7bd5" x="250.859225" y="189.545502" style="fill: #0000ff; stroke: #0000ff"/>
     <use xlink:href="#m0fb73c7bd5" x="286.571225" y="172.329397" style="fill: #0000ff; stroke: #0000ff"/>
     <use xlink:href="#m0fb73c7bd5" x="238.360025" y="183.895357" style="fill: #0000ff; stroke: #0000ff"/>
     <use xlink:href="#m0fb73c7bd5" x="213.361625" y="179.037653" style="fill: #0000ff; stroke: #0000ff"/>
     <use xlink:href="#m0fb73c7bd5" x="291.928025" y="182.034178" style="fill: #0000ff; stroke: #0000ff"/>
     <use xlink:href="#m0fb73c7bd5" x="195.505625" y="206.554026" style="fill: #0000ff; stroke: #0000ff"/>
     <use xlink:href="#m0fb73c7bd5" x="350.852825" y="179.25835" style="fill: #0000ff; stroke: #0000ff"/>
     <use xlink:href="#m0fb73c7bd5" x="197.291225" y="205.166109" style="fill: #0000ff; stroke: #0000ff"/>
     <use xlink:href="#m0fb73c7bd5" x="220.504025" y="186.660563" style="fill: #0000ff; stroke: #0000ff"/>
     <use xlink:href="#m0fb73c7bd5" x="186.577625" y="194.062787" style="fill: #0000ff; stroke: #0000ff"/>
     <use xlink:href="#m0fb73c7bd5" x="177.649625" y="199.845767" style="fill: #0000ff; stroke: #0000ff"/>
     <use xlink:href="#m0fb73c7bd5" x="227.646425" y="191.518273" style="fill: #0000ff; stroke: #0000ff"/>
     <use xlink:href="#m0fb73c7bd5" x="209.790425" y="211.376628" style="fill: #0000ff; stroke: #0000ff"/>
     <use xlink:href="#m0fb73c7bd5" x="249.073625" y="186.197925" style="fill: #0000ff; stroke: #0000ff"/>
     <use xlink:href="#m0fb73c7bd5" x="199.076825" y="197.069934" style="fill: #0000ff; stroke: #0000ff"/>
     <use xlink:href="#m0fb73c7bd5" x="193.720025" y="197.301253" style="fill: #0000ff; stroke: #0000ff"/>
     <use xlink:href="#m0fb73c7bd5" x="183.006425" y="199.614443" style="fill: #0000ff; stroke: #0000ff"/>
     <use xlink:href="#m0fb73c7bd5" x="572.267225" y="178.10175" style="fill: #0000ff; stroke: #0000ff"/>
     <use xlink:href="#m0fb73c7bd5" x="225.860825" y="186.429244" style="fill: #0000ff; stroke: #0000ff"/>
     <use xlink:href="#m0fb73c7bd5" x="204.433625" y="192.906187" style="fill: #0000ff; stroke: #0000ff"/>
     <use xlink:href="#m0fb73c7bd5" x="227.646425" y="190.82431" style="fill: #0000ff; stroke: #0000ff"/>
     <use xlink:href="#m0fb73c7bd5" x="165.150425" y="235.295906" style="fill: #0000ff; stroke: #0000ff"/>
     <use xlink:href="#m0fb73c7bd5" x="233.003225" y="192.305617" style="fill: #0000ff; stroke: #0000ff"/>
     <use xlink:href="#m0fb73c7bd5" x="184.792025" y="225.696578" style="fill: #0000ff; stroke: #0000ff"/>
     <use xlink:href="#m0fb73c7bd5" x="183.006425" y="210.660822" style="fill: #0000ff; stroke: #0000ff"/>
     <use xlink:href="#m0fb73c7bd5" x="170.507225" y="242.814204" style="fill: #0000ff; stroke: #0000ff"/>
     <use xlink:href="#m0fb73c7bd5" x="209.790425" y="203.02729" style="fill: #0000ff; stroke: #0000ff"/>
     <use xlink:href="#m0fb73c7bd5" x="240.145625" y="172.603806" style="fill: #0000ff; stroke: #0000ff"/>
     <use xlink:href="#m0fb73c7bd5" x="202.648025" y="175.37964" style="fill: #0000ff; stroke: #0000ff"/>
     <use xlink:href="#m0fb73c7bd5" x="291.928025" y="179.743342" style="fill: #0000ff; stroke: #0000ff"/>
     <use xlink:href="#m0fb73c7bd5" x="352.638425" y="175.025896" style="fill: #0000ff; stroke: #0000ff"/>
     <use xlink:href="#m0fb73c7bd5" x="370.494425" y="173.175344" style="fill: #0000ff; stroke: #0000ff"/>
     <use xlink:href="#m0fb73c7bd5" x="231.217625" y="192.646946" style="fill: #0000ff; stroke: #0000ff"/>
     <use xlink:href="#m0fb73c7bd5" x="175.864025" y="225.217084" style="fill: #0000ff; stroke: #0000ff"/>
     <use xlink:href="#m0fb73c7bd5" x="186.577625" y="232.12156" style="fill: #0000ff; stroke: #0000ff"/>
     <use xlink:href="#m0fb73c7bd5" x="159.793625" y="184.10888" style="fill: #0000ff; stroke: #0000ff"/>
     <use xlink:href="#m0fb73c7bd5" x="463.345625" y="165.848992" style="fill: #0000ff; stroke: #0000ff"/>
     <use xlink:href="#m0fb73c7bd5" x="266.929625" y="170.946337" style="fill: #0000ff; stroke: #0000ff"/>
     <use xlink:href="#m0fb73c7bd5" x="365.137625" y="162.850161" style="fill: #0000ff; stroke: #0000ff"/>
     <use xlink:href="#m0fb73c7bd5" x="241.931225" y="173.028213" style="fill: #0000ff; stroke: #0000ff"/>
     <use xlink:href="#m0fb73c7bd5" x="309.784025" y="166.088633" style="fill: #0000ff; stroke: #0000ff"/>
     <use xlink:href="#m0fb73c7bd5" x="175.864025" y="211.671169" style="fill: #0000ff; stroke: #0000ff"/>
     <use xlink:href="#m0fb73c7bd5" x="159.793625" y="273.420946" style="fill: #0000ff; stroke: #0000ff"/>
     <use xlink:href="#m0fb73c7bd5" x="220.504025" y="183.168741" style="fill: #0000ff; stroke: #0000ff"/>
     <use xlink:href="#m0fb73c7bd5" x="327.640025" y="178.773675" style="fill: #0000ff; stroke: #0000ff"/>
     <use xlink:href="#m0fb73c7bd5" x="229.432025" y="189.414359" style="fill: #0000ff; stroke: #0000ff"/>
     <use xlink:href="#m0fb73c7bd5" x="170.507225" y="252.992066" style="fill: #0000ff; stroke: #0000ff"/>
     <use xlink:href="#m0fb73c7bd5" x="179.435225" y="250.9102" style="fill: #0000ff; stroke: #0000ff"/>
     <use xlink:href="#m0fb73c7bd5" x="340.139225" y="172.759371" style="fill: #0000ff; stroke: #0000ff"/>
     <use xlink:href="#m0fb73c7bd5" x="252.644825" y="193.338259" style="fill: #0000ff; stroke: #0000ff"/>
     <use xlink:href="#m0fb73c7bd5" x="229.432025" y="189.305909" style="fill: #0000ff; stroke: #0000ff"/>
     <use xlink:href="#m0fb73c7bd5" x="193.720025" y="196.939452" style="fill: #0000ff; stroke: #0000ff"/>
     <use xlink:href="#m0fb73c7bd5" x="204.433625" y="184.566701" style="fill: #0000ff; stroke: #0000ff"/>
     <use xlink:href="#m0fb73c7bd5" x="231.217625" y="173.232054" style="fill: #0000ff; stroke: #0000ff"/>
     <use xlink:href="#m0fb73c7bd5" x="315.140825" y="170.687546" style="fill: #0000ff; stroke: #0000ff"/>
     <use xlink:href="#m0fb73c7bd5" x="579.409625" y="164.441922" style="fill: #0000ff; stroke: #0000ff"/>
     <use xlink:href="#m0fb73c7bd5" x="313.355225" y="167.217755" style="fill: #0000ff; stroke: #0000ff"/>
     <use xlink:href="#m0fb73c7bd5" x="366.923225" y="165.001749" style="fill: #0000ff; stroke: #0000ff"/>
     <use xlink:href="#m0fb73c7bd5" x="431.204825" y="165.600632" style="fill: #0000ff; stroke: #0000ff"/>
     <use xlink:href="#m0fb73c7bd5" x="247.288025" y="167.197654" style="fill: #0000ff; stroke: #0000ff"/>
     <use xlink:href="#m0fb73c7bd5" x="179.435225" y="201.884526" style="fill: #0000ff; stroke: #0000ff"/>
     <use xlink:href="#m0fb73c7bd5" x="179.435225" y="195.372482" style="fill: #0000ff; stroke: #0000ff"/>
     <use xlink:href="#m0fb73c7bd5" x="329.425625" y="166.649786" style="fill: #0000ff; stroke: #0000ff"/>
     <use xlink:href="#m0fb73c7bd5" x="231.217625" y="176.133876" style="fill: #0000ff; stroke: #0000ff"/>
     <use xlink:href="#m0fb73c7bd5" x="293.713625" y="170.350896" style="fill: #0000ff; stroke: #0000ff"/>
     <use xlink:href="#m0fb73c7bd5" x="170.507225" y="198.109212" style="fill: #0000ff; stroke: #0000ff"/>
     <use xlink:href="#m0fb73c7bd5" x="186.577625" y="196.721292" style="fill: #0000ff; stroke: #0000ff"/>
     <use xlink:href="#m0fb73c7bd5" x="170.507225" y="223.056593" style="fill: #0000ff; stroke: #0000ff"/>
     <use xlink:href="#m0fb73c7bd5" x="202.648025" y="186.080608" style="fill: #0000ff; stroke: #0000ff"/>
     <use xlink:href="#m0fb73c7bd5" x="218.718425" y="174.977281" style="fill: #0000ff; stroke: #0000ff"/>
     <use xlink:href="#m0fb73c7bd5" x="195.505625" y="188.162479" style="fill: #0000ff; stroke: #0000ff"/>
     <use xlink:href="#m0fb73c7bd5" x="318.712025" y="169.42562" style="fill: #0000ff; stroke: #0000ff"/>
     <use xlink:href="#m0fb73c7bd5" x="254.430425" y="181.179248" style="fill: #0000ff; stroke: #0000ff"/>
     <use xlink:href="#m0fb73c7bd5" x="200.862425" y="200.015099" style="fill: #0000ff; stroke: #0000ff"/>
     <use xlink:href="#m0fb73c7bd5" x="211.576025" y="183.270837" style="fill: #0000ff; stroke: #0000ff"/>
     <use xlink:href="#m0fb73c7bd5" x="275.857625" y="190.753272" style="fill: #0000ff; stroke: #0000ff"/>
     <use xlink:href="#m0fb73c7bd5" x="172.292825" y="224.063254" style="fill: #0000ff; stroke: #0000ff"/>
     <use xlink:href="#m0fb73c7bd5" x="213.361625" y="193.529105" style="fill: #0000ff; stroke: #0000ff"/>
     <use xlink:href="#m0fb73c7bd5" x="304.427225" y="188.440082" style="fill: #0000ff; stroke: #0000ff"/>
     <use xlink:href="#m0fb73c7bd5" x="195.505625" y="203.244513" style="fill: #0000ff; stroke: #0000ff"/>
     <use xlink:href="#m0fb73c7bd5" x="193.720025" y="188.88413" style="fill: #0000ff; stroke: #0000ff"/>
     <use xlink:href="#m0fb73c7bd5" x="204.433625" y="184.292847" style="fill: #0000ff; stroke: #0000ff"/>
     <use xlink:href="#m0fb73c7bd5" x="295.499225" y="178.74118" style="fill: #0000ff; stroke: #0000ff"/>
     <use xlink:href="#m0fb73c7bd5" x="199.076825" y="196.424619" style="fill: #0000ff; stroke: #0000ff"/>
     <use xlink:href="#m0fb73c7bd5" x="227.646425" y="179.050596" style="fill: #0000ff; stroke: #0000ff"/>
     <use xlink:href="#m0fb73c7bd5" x="165.150425" y="237.924822" style="fill: #0000ff; stroke: #0000ff"/>
     <use xlink:href="#m0fb73c7bd5" x="220.504025" y="203.689561" style="fill: #0000ff; stroke: #0000ff"/>
     <use xlink:href="#m0fb73c7bd5" x="158.008025" y="186.999471" style="fill: #0000ff; stroke: #0000ff"/>
     <use xlink:href="#m0fb73c7bd5" x="179.435225" y="213.138554" style="fill: #0000ff; stroke: #0000ff"/>
     <use xlink:href="#m0fb73c7bd5" x="175.864025" y="211.55442" style="fill: #0000ff; stroke: #0000ff"/>
     <use xlink:href="#m0fb73c7bd5" x="306.212825" y="188.653811" style="fill: #0000ff; stroke: #0000ff"/>
     <use xlink:href="#m0fb73c7bd5" x="166.936025" y="268.655192" style="fill: #0000ff; stroke: #0000ff"/>
     <use xlink:href="#m0fb73c7bd5" x="181.220825" y="217.996258" style="fill: #0000ff; stroke: #0000ff"/>
     <use xlink:href="#m0fb73c7bd5" x="211.576025" y="195.130748" style="fill: #0000ff; stroke: #0000ff"/>
     <use xlink:href="#m0fb73c7bd5" x="206.219225" y="203.92088" style="fill: #0000ff; stroke: #0000ff"/>
     <use xlink:href="#m0fb73c7bd5" x="279.428825" y="192.817552" style="fill: #0000ff; stroke: #0000ff"/>
     <use xlink:href="#m0fb73c7bd5" x="175.864025" y="215.949483" style="fill: #0000ff; stroke: #0000ff"/>
     <use xlink:href="#m0fb73c7bd5" x="240.145625" y="196.056029" style="fill: #0000ff; stroke: #0000ff"/>
     <use xlink:href="#m0fb73c7bd5" x="170.507225" y="216.412124" style="fill: #0000ff; stroke: #0000ff"/>
     <use xlink:href="#m0fb73c7bd5" x="177.649625" y="211.55442" style="fill: #0000ff; stroke: #0000ff"/>
     <use xlink:href="#m0fb73c7bd5" x="175.864025" y="206.696713" style="fill: #0000ff; stroke: #0000ff"/>
     <use xlink:href="#m0fb73c7bd5" x="209.790425" y="196.287343" style="fill: #0000ff; stroke: #0000ff"/>
     <use xlink:href="#m0fb73c7bd5" x="206.219225" y="198.369219" style="fill: #0000ff; stroke: #0000ff"/>
     <use xlink:href="#m0fb73c7bd5" x="209.790425" y="197.212624" style="fill: #0000ff; stroke: #0000ff"/>
     <use xlink:href="#m0fb73c7bd5" x="163.364825" y="242.978749" style="fill: #0000ff; stroke: #0000ff"/>
     <use xlink:href="#m0fb73c7bd5" x="199.076825" y="197.675262" style="fill: #0000ff; stroke: #0000ff"/>
     <use xlink:href="#m0fb73c7bd5" x="163.364825" y="235.380308" style="fill: #0000ff; stroke: #0000ff"/>
     <use xlink:href="#m0fb73c7bd5" x="204.433625" y="198.600538" style="fill: #0000ff; stroke: #0000ff"/>
     <use xlink:href="#m0fb73c7bd5" x="166.936025" y="229.366009" style="fill: #0000ff; stroke: #0000ff"/>
     <use xlink:href="#m0fb73c7bd5" x="275.857625" y="177.863669" style="fill: #0000ff; stroke: #0000ff"/>
     <use xlink:href="#m0fb73c7bd5" x="197.291225" y="210.907231" style="fill: #0000ff; stroke: #0000ff"/>
     <use xlink:href="#m0fb73c7bd5" x="183.006425" y="196.137895" style="fill: #0000ff; stroke: #0000ff"/>
     <use xlink:href="#m0fb73c7bd5" x="283.000025" y="175.550479" style="fill: #0000ff; stroke: #0000ff"/>
     <use xlink:href="#m0fb73c7bd5" x="184.792025" y="186.191163" style="fill: #0000ff; stroke: #0000ff"/>
     <use xlink:href="#m0fb73c7bd5" x="300.856025" y="167.495189" style="fill: #0000ff; stroke: #0000ff"/>
     <use xlink:href="#m0fb73c7bd5" x="241.931225" y="176.747959" style="fill: #0000ff; stroke: #0000ff"/>
     <use xlink:href="#m0fb73c7bd5" x="304.427225" y="168.189141" style="fill: #0000ff; stroke: #0000ff"/>
     <use xlink:href="#m0fb73c7bd5" x="340.139225" y="166.569908" style="fill: #0000ff; stroke: #0000ff"/>
     <use xlink:href="#m0fb73c7bd5" x="231.217625" y="161.990927" style="fill: #0000ff; stroke: #0000ff"/>
     <use xlink:href="#m0fb73c7bd5" x="204.433625" y="180.814259" style="fill: #0000ff; stroke: #0000ff"/>
     <use xlink:href="#m0fb73c7bd5" x="258.001625" y="188.484314" style="fill: #0000ff; stroke: #0000ff"/>
     <use xlink:href="#m0fb73c7bd5" x="256.216025" y="182.790804" style="fill: #0000ff; stroke: #0000ff"/>
     <use xlink:href="#m0fb73c7bd5" x="236.574425" y="196.287644" style="fill: #0000ff; stroke: #0000ff"/>
     <use xlink:href="#m0fb73c7bd5" x="190.148825" y="194.217955" style="fill: #0000ff; stroke: #0000ff"/>
     <use xlink:href="#m0fb73c7bd5" x="261.572825" y="182.189351" style="fill: #0000ff; stroke: #0000ff"/>
     <use xlink:href="#m0fb73c7bd5" x="168.721625" y="218.506481" style="fill: #0000ff; stroke: #0000ff"/>
     <use xlink:href="#m0fb73c7bd5" x="256.216025" y="184.502546" style="fill: #0000ff; stroke: #0000ff"/>
     <use xlink:href="#m0fb73c7bd5" x="238.360025" y="187.047055" style="fill: #0000ff; stroke: #0000ff"/>
     <use xlink:href="#m0fb73c7bd5" x="211.576025" y="165.834848" style="fill: #0000ff; stroke: #0000ff"/>
     <use xlink:href="#m0fb73c7bd5" x="224.075225" y="167.454087" style="fill: #0000ff; stroke: #0000ff"/>
     <use xlink:href="#m0fb73c7bd5" x="163.364825" y="223.860893" style="fill: #0000ff; stroke: #0000ff"/>
     <use xlink:href="#m0fb73c7bd5" x="245.502425" y="184.695042" style="fill: #0000ff; stroke: #0000ff"/>
     <use xlink:href="#m0fb73c7bd5" x="206.219225" y="195.335726" style="fill: #0000ff; stroke: #0000ff"/>
     <use xlink:href="#m0fb73c7bd5" x="216.932825" y="176.795528" style="fill: #0000ff; stroke: #0000ff"/>
    </g>
   </g>
   <g id="matplotlib.axis_1">
    <g id="xtick_1">
     <g id="line2d_1">
      <defs>
       <path id="m70808a73c0" d="M 0 0 
L 0 3.5 
" style="stroke: #000000; stroke-width: 0.8"/>
      </defs>
      <g>
       <use xlink:href="#m70808a73c0" x="61.585625" y="304.026563" style="stroke: #000000; stroke-width: 0.8"/>
      </g>
     </g>
     <g id="text_1">
      <!-- −5 -->
      <g transform="translate(48.317656 324.70375)scale(0.18 -0.18)">
       <defs>
        <path id="DejaVuSans-2212" d="M 678 2272 
L 4684 2272 
L 4684 1741 
L 678 1741 
L 678 2272 
z
" transform="scale(0.015625)"/>
        <path id="DejaVuSans-35" d="M 691 4666 
L 3169 4666 
L 3169 4134 
L 1269 4134 
L 1269 2991 
Q 1406 3038 1543 3061 
Q 1681 3084 1819 3084 
Q 2600 3084 3056 2656 
Q 3513 2228 3513 1497 
Q 3513 744 3044 326 
Q 2575 -91 1722 -91 
Q 1428 -91 1123 -41 
Q 819 9 494 109 
L 494 744 
Q 775 591 1075 516 
Q 1375 441 1709 441 
Q 2250 441 2565 725 
Q 2881 1009 2881 1497 
Q 2881 1984 2565 2268 
Q 2250 2553 1709 2553 
Q 1456 2553 1204 2497 
Q 953 2441 691 2322 
L 691 4666 
z
" transform="scale(0.015625)"/>
       </defs>
       <use xlink:href="#DejaVuSans-2212"/>
       <use xlink:href="#DejaVuSans-35" x="83.789062"/>
      </g>
     </g>
    </g>
    <g id="xtick_2">
     <g id="line2d_2">
      <g>
       <use xlink:href="#m70808a73c0" x="150.865625" y="304.026563" style="stroke: #000000; stroke-width: 0.8"/>
      </g>
     </g>
     <g id="text_2">
      <!-- 0 -->
      <g transform="translate(145.139375 324.70375)scale(0.18 -0.18)">
       <defs>
        <path id="DejaVuSans-30" d="M 2034 4250 
Q 1547 4250 1301 3770 
Q 1056 3291 1056 2328 
Q 1056 1369 1301 889 
Q 1547 409 2034 409 
Q 2525 409 2770 889 
Q 3016 1369 3016 2328 
Q 3016 3291 2770 3770 
Q 2525 4250 2034 4250 
z
M 2034 4750 
Q 2819 4750 3233 4129 
Q 3647 3509 3647 2328 
Q 3647 1150 3233 529 
Q 2819 -91 2034 -91 
Q 1250 -91 836 529 
Q 422 1150 422 2328 
Q 422 3509 836 4129 
Q 1250 4750 2034 4750 
z
" transform="scale(0.015625)"/>
       </defs>
       <use xlink:href="#DejaVuSans-30"/>
      </g>
     </g>
    </g>
    <g id="xtick_3">
     <g id="line2d_3">
      <g>
       <use xlink:href="#m70808a73c0" x="240.145625" y="304.026563" style="stroke: #000000; stroke-width: 0.8"/>
      </g>
     </g>
     <g id="text_3">
      <!-- 5 -->
      <g transform="translate(234.419375 324.70375)scale(0.18 -0.18)">
       <use xlink:href="#DejaVuSans-35"/>
      </g>
     </g>
    </g>
    <g id="xtick_4">
     <g id="line2d_4">
      <g>
       <use xlink:href="#m70808a73c0" x="329.425625" y="304.026563" style="stroke: #000000; stroke-width: 0.8"/>
      </g>
     </g>
     <g id="text_4">
      <!-- 10 -->
      <g transform="translate(317.973125 324.70375)scale(0.18 -0.18)">
       <defs>
        <path id="DejaVuSans-31" d="M 794 531 
L 1825 531 
L 1825 4091 
L 703 3866 
L 703 4441 
L 1819 4666 
L 2450 4666 
L 2450 531 
L 3481 531 
L 3481 0 
L 794 0 
L 794 531 
z
" transform="scale(0.015625)"/>
       </defs>
       <use xlink:href="#DejaVuSans-31"/>
       <use xlink:href="#DejaVuSans-30" x="63.623047"/>
      </g>
     </g>
    </g>
    <g id="xtick_5">
     <g id="line2d_5">
      <g>
       <use xlink:href="#m70808a73c0" x="418.705625" y="304.026563" style="stroke: #000000; stroke-width: 0.8"/>
      </g>
     </g>
     <g id="text_5">
      <!-- 15 -->
      <g transform="translate(407.253125 324.70375)scale(0.18 -0.18)">
       <use xlink:href="#DejaVuSans-31"/>
       <use xlink:href="#DejaVuSans-35" x="63.623047"/>
      </g>
     </g>
    </g>
    <g id="xtick_6">
     <g id="line2d_6">
      <g>
       <use xlink:href="#m70808a73c0" x="507.985625" y="304.026563" style="stroke: #000000; stroke-width: 0.8"/>
      </g>
     </g>
     <g id="text_6">
      <!-- 20 -->
      <g transform="translate(496.533125 324.70375)scale(0.18 -0.18)">
       <defs>
        <path id="DejaVuSans-32" d="M 1228 531 
L 3431 531 
L 3431 0 
L 469 0 
L 469 531 
Q 828 903 1448 1529 
Q 2069 2156 2228 2338 
Q 2531 2678 2651 2914 
Q 2772 3150 2772 3378 
Q 2772 3750 2511 3984 
Q 2250 4219 1831 4219 
Q 1534 4219 1204 4116 
Q 875 4013 500 3803 
L 500 4441 
Q 881 4594 1212 4672 
Q 1544 4750 1819 4750 
Q 2544 4750 2975 4387 
Q 3406 4025 3406 3419 
Q 3406 3131 3298 2873 
Q 3191 2616 2906 2266 
Q 2828 2175 2409 1742 
Q 1991 1309 1228 531 
z
" transform="scale(0.015625)"/>
       </defs>
       <use xlink:href="#DejaVuSans-32"/>
       <use xlink:href="#DejaVuSans-30" x="63.623047"/>
      </g>
     </g>
    </g>
    <g id="text_7">
     <!-- True Values -->
     <g transform="translate(231.377656 345.80375)scale(0.18 -0.18)">
      <defs>
       <path id="Montserrat-Medium-54" d="M 1562 3923 
L 26 3923 
L 26 4480 
L 3731 4480 
L 3731 3923 
L 2195 3923 
L 2195 0 
L 1562 0 
L 1562 3923 
z
" transform="scale(0.015625)"/>
       <path id="Montserrat-Medium-72" d="M 1171 2822 
Q 1331 3117 1644 3270 
Q 1958 3424 2406 3424 
L 2406 2829 
Q 2355 2835 2266 2835 
Q 1766 2835 1481 2537 
Q 1197 2240 1197 1690 
L 1197 0 
L 582 0 
L 582 3392 
L 1171 3392 
L 1171 2822 
z
" transform="scale(0.015625)"/>
       <path id="Montserrat-Medium-75" d="M 3744 3392 
L 3744 0 
L 3162 0 
L 3162 512 
Q 2976 250 2672 106 
Q 2368 -38 2010 -38 
Q 1331 -38 940 336 
Q 550 710 550 1440 
L 550 3392 
L 1165 3392 
L 1165 1510 
Q 1165 1018 1401 765 
Q 1638 512 2080 512 
Q 2566 512 2848 806 
Q 3130 1101 3130 1638 
L 3130 3392 
L 3744 3392 
z
" transform="scale(0.015625)"/>
       <path id="Montserrat-Medium-65" d="M 3648 1677 
Q 3648 1606 3635 1491 
L 883 1491 
Q 941 1043 1277 771 
Q 1613 499 2112 499 
Q 2720 499 3091 909 
L 3430 512 
Q 3200 243 2857 102 
Q 2515 -38 2093 -38 
Q 1555 -38 1139 182 
Q 723 403 496 800 
Q 269 1197 269 1696 
Q 269 2189 489 2585 
Q 710 2982 1097 3203 
Q 1485 3424 1971 3424 
Q 2458 3424 2838 3203 
Q 3219 2982 3433 2585 
Q 3648 2189 3648 1677 
z
M 1971 2906 
Q 1530 2906 1232 2637 
Q 934 2368 883 1933 
L 3059 1933 
Q 3008 2362 2710 2634 
Q 2413 2906 1971 2906 
z
" transform="scale(0.015625)"/>
       <path id="Montserrat-Medium-20" transform="scale(0.015625)"/>
       <path id="Montserrat-Medium-56" d="M 4563 4480 
L 2598 0 
L 1965 0 
L -6 4480 
L 685 4480 
L 2298 800 
L 3923 4480 
L 4563 4480 
z
" transform="scale(0.015625)"/>
       <path id="Montserrat-Medium-61" d="M 1818 3424 
Q 2522 3424 2896 3078 
Q 3270 2733 3270 2048 
L 3270 0 
L 2688 0 
L 2688 448 
Q 2534 211 2249 86 
Q 1965 -38 1574 -38 
Q 1005 -38 662 237 
Q 320 512 320 960 
Q 320 1408 646 1680 
Q 973 1952 1683 1952 
L 2656 1952 
L 2656 2074 
Q 2656 2470 2425 2681 
Q 2195 2893 1747 2893 
Q 1446 2893 1158 2793 
Q 870 2694 672 2528 
L 416 2989 
Q 678 3200 1043 3312 
Q 1408 3424 1818 3424 
z
M 1677 435 
Q 2029 435 2285 592 
Q 2541 749 2656 1037 
L 2656 1510 
L 1709 1510 
Q 928 1510 928 986 
Q 928 730 1126 582 
Q 1325 435 1677 435 
z
" transform="scale(0.015625)"/>
       <path id="Montserrat-Medium-6c" d="M 582 4749 
L 1197 4749 
L 1197 0 
L 582 0 
L 582 4749 
z
" transform="scale(0.015625)"/>
       <path id="Montserrat-Medium-73" d="M 1555 -38 
Q 1139 -38 755 74 
Q 371 186 154 358 
L 410 845 
Q 634 685 954 589 
Q 1274 493 1600 493 
Q 2406 493 2406 954 
Q 2406 1107 2297 1196 
Q 2189 1286 2025 1328 
Q 1862 1370 1562 1421 
Q 1152 1485 893 1568 
Q 634 1651 448 1849 
Q 262 2048 262 2406 
Q 262 2867 646 3145 
Q 1030 3424 1677 3424 
Q 2016 3424 2355 3341 
Q 2694 3258 2912 3117 
L 2650 2630 
Q 2234 2899 1670 2899 
Q 1280 2899 1075 2771 
Q 870 2643 870 2432 
Q 870 2266 985 2170 
Q 1101 2074 1270 2029 
Q 1440 1984 1747 1926 
Q 2157 1856 2409 1776 
Q 2662 1696 2841 1504 
Q 3021 1312 3021 966 
Q 3021 506 2627 234 
Q 2234 -38 1555 -38 
z
" transform="scale(0.015625)"/>
      </defs>
      <use xlink:href="#Montserrat-Medium-54"/>
      <use xlink:href="#Montserrat-Medium-72" x="58.699997"/>
      <use xlink:href="#Montserrat-Medium-75" x="99.699982"/>
      <use xlink:href="#Montserrat-Medium-65" x="167.399963"/>
      <use xlink:href="#Montserrat-Medium-20" x="228.59996"/>
      <use xlink:href="#Montserrat-Medium-56" x="255.499954"/>
      <use xlink:href="#Montserrat-Medium-61" x="326.699936"/>
      <use xlink:href="#Montserrat-Medium-6c" x="386.499924"/>
      <use xlink:href="#Montserrat-Medium-75" x="414.399918"/>
      <use xlink:href="#Montserrat-Medium-65" x="482.099899"/>
      <use xlink:href="#Montserrat-Medium-73" x="543.299896"/>
     </g>
    </g>
   </g>
   <g id="matplotlib.axis_2">
    <g id="ytick_1">
     <g id="line2d_7">
      <defs>
       <path id="m4d5afe675a" d="M 0 0 
L -3.5 0 
" style="stroke: #000000; stroke-width: 0.8"/>
      </defs>
      <g>
       <use xlink:href="#m4d5afe675a" x="61.585625" y="304.026563" style="stroke: #000000; stroke-width: 0.8"/>
      </g>
     </g>
     <g id="text_8">
      <!-- −5 -->
      <g transform="translate(28.049688 310.865156)scale(0.18 -0.18)">
       <use xlink:href="#DejaVuSans-2212"/>
       <use xlink:href="#DejaVuSans-35" x="83.789062"/>
      </g>
     </g>
    </g>
    <g id="ytick_2">
     <g id="line2d_8">
      <g>
       <use xlink:href="#m4d5afe675a" x="61.585625" y="248.586562" style="stroke: #000000; stroke-width: 0.8"/>
      </g>
     </g>
     <g id="text_9">
      <!-- 0 -->
      <g transform="translate(43.133125 255.425156)scale(0.18 -0.18)">
       <use xlink:href="#DejaVuSans-30"/>
      </g>
     </g>
    </g>
    <g id="ytick_3">
     <g id="line2d_9">
      <g>
       <use xlink:href="#m4d5afe675a" x="61.585625" y="193.146562" style="stroke: #000000; stroke-width: 0.8"/>
      </g>
     </g>
     <g id="text_10">
      <!-- 5 -->
      <g transform="translate(43.133125 199.985156)scale(0.18 -0.18)">
       <use xlink:href="#DejaVuSans-35"/>
      </g>
     </g>
    </g>
    <g id="ytick_4">
     <g id="line2d_10">
      <g>
       <use xlink:href="#m4d5afe675a" x="61.585625" y="137.706562" style="stroke: #000000; stroke-width: 0.8"/>
      </g>
     </g>
     <g id="text_11">
      <!-- 10 -->
      <g transform="translate(31.680625 144.545156)scale(0.18 -0.18)">
       <use xlink:href="#DejaVuSans-31"/>
       <use xlink:href="#DejaVuSans-30" x="63.623047"/>
      </g>
     </g>
    </g>
    <g id="ytick_5">
     <g id="line2d_11">
      <g>
       <use xlink:href="#m4d5afe675a" x="61.585625" y="82.266562" style="stroke: #000000; stroke-width: 0.8"/>
      </g>
     </g>
     <g id="text_12">
      <!-- 15 -->
      <g transform="translate(31.680625 89.105156)scale(0.18 -0.18)">
       <use xlink:href="#DejaVuSans-31"/>
       <use xlink:href="#DejaVuSans-35" x="63.623047"/>
      </g>
     </g>
    </g>
    <g id="ytick_6">
     <g id="line2d_12">
      <g>
       <use xlink:href="#m4d5afe675a" x="61.585625" y="26.826562" style="stroke: #000000; stroke-width: 0.8"/>
      </g>
     </g>
     <g id="text_13">
      <!-- 20 -->
      <g transform="translate(31.680625 33.665156)scale(0.18 -0.18)">
       <use xlink:href="#DejaVuSans-32"/>
       <use xlink:href="#DejaVuSans-30" x="63.623047"/>
      </g>
     </g>
    </g>
    <g id="text_14">
     <!-- Predictions -->
     <g transform="translate(20.556563 217.501406)rotate(-90)scale(0.18 -0.18)">
      <defs>
       <path id="Montserrat-Medium-50" d="M 2419 4480 
Q 3290 4480 3789 4064 
Q 4288 3648 4288 2918 
Q 4288 2189 3789 1773 
Q 3290 1357 2419 1357 
L 1312 1357 
L 1312 0 
L 672 0 
L 672 4480 
L 2419 4480 
z
M 2400 1914 
Q 3008 1914 3328 2173 
Q 3648 2432 3648 2918 
Q 3648 3405 3328 3664 
Q 3008 3923 2400 3923 
L 1312 3923 
L 1312 1914 
L 2400 1914 
z
" transform="scale(0.015625)"/>
       <path id="Montserrat-Medium-64" d="M 3782 4749 
L 3782 0 
L 3194 0 
L 3194 538 
Q 2989 256 2675 109 
Q 2362 -38 1984 -38 
Q 1491 -38 1100 179 
Q 710 397 489 790 
Q 269 1184 269 1696 
Q 269 2208 489 2598 
Q 710 2989 1100 3206 
Q 1491 3424 1984 3424 
Q 2349 3424 2656 3286 
Q 2963 3149 3168 2880 
L 3168 4749 
L 3782 4749 
z
M 2035 499 
Q 2355 499 2617 649 
Q 2880 800 3027 1072 
Q 3174 1344 3174 1696 
Q 3174 2048 3027 2320 
Q 2880 2592 2617 2739 
Q 2355 2886 2035 2886 
Q 1709 2886 1449 2739 
Q 1190 2592 1040 2320 
Q 890 2048 890 1696 
Q 890 1344 1040 1072 
Q 1190 800 1449 649 
Q 1709 499 2035 499 
z
" transform="scale(0.015625)"/>
       <path id="Montserrat-Medium-69" d="M 582 3392 
L 1197 3392 
L 1197 0 
L 582 0 
L 582 3392 
z
M 890 4045 
Q 710 4045 592 4160 
Q 474 4275 474 4442 
Q 474 4608 592 4726 
Q 710 4845 890 4845 
Q 1069 4845 1187 4733 
Q 1306 4621 1306 4454 
Q 1306 4282 1187 4163 
Q 1069 4045 890 4045 
z
" transform="scale(0.015625)"/>
       <path id="Montserrat-Medium-63" d="M 2061 -38 
Q 1542 -38 1136 186 
Q 730 410 499 803 
Q 269 1197 269 1696 
Q 269 2195 499 2588 
Q 730 2982 1136 3203 
Q 1542 3424 2061 3424 
Q 2522 3424 2883 3238 
Q 3245 3053 3443 2701 
L 2976 2400 
Q 2816 2643 2579 2764 
Q 2342 2886 2054 2886 
Q 1722 2886 1456 2739 
Q 1190 2592 1040 2320 
Q 890 2048 890 1696 
Q 890 1338 1040 1066 
Q 1190 794 1456 646 
Q 1722 499 2054 499 
Q 2342 499 2579 620 
Q 2816 742 2976 986 
L 3443 691 
Q 3245 339 2883 150 
Q 2522 -38 2061 -38 
z
" transform="scale(0.015625)"/>
       <path id="Montserrat-Medium-74" d="M 2490 198 
Q 2355 83 2156 22 
Q 1958 -38 1747 -38 
Q 1235 -38 953 237 
Q 672 512 672 1024 
L 672 2886 
L 96 2886 
L 96 3392 
L 672 3392 
L 672 4134 
L 1286 4134 
L 1286 3392 
L 2259 3392 
L 2259 2886 
L 1286 2886 
L 1286 1050 
Q 1286 774 1424 627 
Q 1562 480 1818 480 
Q 2099 480 2298 640 
L 2490 198 
z
" transform="scale(0.015625)"/>
       <path id="Montserrat-Medium-6f" d="M 2035 -38 
Q 1530 -38 1126 186 
Q 723 410 496 803 
Q 269 1197 269 1696 
Q 269 2195 496 2588 
Q 723 2982 1126 3203 
Q 1530 3424 2035 3424 
Q 2541 3424 2941 3203 
Q 3341 2982 3568 2588 
Q 3795 2195 3795 1696 
Q 3795 1197 3568 803 
Q 3341 410 2941 186 
Q 2541 -38 2035 -38 
z
M 2035 499 
Q 2362 499 2621 649 
Q 2880 800 3027 1072 
Q 3174 1344 3174 1696 
Q 3174 2048 3027 2320 
Q 2880 2592 2621 2739 
Q 2362 2886 2035 2886 
Q 1709 2886 1449 2739 
Q 1190 2592 1040 2320 
Q 890 2048 890 1696 
Q 890 1344 1040 1072 
Q 1190 800 1449 649 
Q 1709 499 2035 499 
z
" transform="scale(0.015625)"/>
       <path id="Montserrat-Medium-6e" d="M 2394 3424 
Q 3040 3424 3421 3049 
Q 3802 2675 3802 1952 
L 3802 0 
L 3187 0 
L 3187 1882 
Q 3187 2374 2950 2624 
Q 2714 2874 2272 2874 
Q 1773 2874 1485 2582 
Q 1197 2291 1197 1747 
L 1197 0 
L 582 0 
L 582 3392 
L 1171 3392 
L 1171 2880 
Q 1357 3142 1673 3283 
Q 1990 3424 2394 3424 
z
" transform="scale(0.015625)"/>
      </defs>
      <use xlink:href="#Montserrat-Medium-50"/>
      <use xlink:href="#Montserrat-Medium-72" x="72.199982"/>
      <use xlink:href="#Montserrat-Medium-65" x="113.199966"/>
      <use xlink:href="#Montserrat-Medium-64" x="174.399963"/>
      <use xlink:href="#Montserrat-Medium-69" x="242.599945"/>
      <use xlink:href="#Montserrat-Medium-63" x="270.499939"/>
      <use xlink:href="#Montserrat-Medium-74" x="327.59993"/>
      <use xlink:href="#Montserrat-Medium-69" x="368.999924"/>
      <use xlink:href="#Montserrat-Medium-6f" x="396.899918"/>
      <use xlink:href="#Montserrat-Medium-6e" x="460.399902"/>
      <use xlink:href="#Montserrat-Medium-73" x="528.499893"/>
     </g>
    </g>
   </g>
   <g id="line2d_13">
    <path d="M 61.585625 304.026563 
L 507.985625 26.826562 
" clip-path="url(#p98fe213ecb)" style="fill: none; stroke-dasharray: 7.4,3.2; stroke-dashoffset: 0; stroke: #000000; stroke-width: 2"/>
   </g>
   <g id="patch_3">
    <path d="M 61.585625 304.026563 
L 61.585625 26.826562 
" style="fill: none; stroke: #000000; stroke-width: 0.8; stroke-linejoin: miter; stroke-linecap: square"/>
   </g>
   <g id="patch_4">
    <path d="M 507.985625 304.026563 
L 507.985625 26.826562 
" style="fill: none; stroke: #000000; stroke-width: 0.8; stroke-linejoin: miter; stroke-linecap: square"/>
   </g>
   <g id="patch_5">
    <path d="M 61.585625 304.026563 
L 507.985625 304.026563 
" style="fill: none; stroke: #000000; stroke-width: 0.8; stroke-linejoin: miter; stroke-linecap: square"/>
   </g>
   <g id="patch_6">
    <path d="M 61.585625 26.826562 
L 507.985625 26.826562 
" style="fill: none; stroke: #000000; stroke-width: 0.8; stroke-linejoin: miter; stroke-linecap: square"/>
   </g>
   <g id="text_15">
    <!-- Linear Regression with Single Neuron -->
    <g transform="translate(112.341406 20.826562)scale(0.18 -0.18)">
     <defs>
      <path id="Montserrat-Medium-4c" d="M 672 4480 
L 1312 4480 
L 1312 557 
L 3738 557 
L 3738 0 
L 672 0 
L 672 4480 
z
" transform="scale(0.015625)"/>
      <path id="Montserrat-Medium-52" d="M 3667 0 
L 2701 1376 
Q 2522 1363 2419 1363 
L 1312 1363 
L 1312 0 
L 672 0 
L 672 4480 
L 2419 4480 
Q 3290 4480 3789 4064 
Q 4288 3648 4288 2918 
Q 4288 2400 4032 2035 
Q 3776 1670 3302 1504 
L 4365 0 
L 3667 0 
z
M 2400 1907 
Q 3008 1907 3328 2169 
Q 3648 2432 3648 2918 
Q 3648 3405 3328 3664 
Q 3008 3923 2400 3923 
L 1312 3923 
L 1312 1907 
L 2400 1907 
z
" transform="scale(0.015625)"/>
      <path id="Montserrat-Medium-67" d="M 3827 3392 
L 3827 461 
Q 3827 -429 3385 -854 
Q 2944 -1280 2067 -1280 
Q 1587 -1280 1152 -1149 
Q 717 -1018 448 -774 
L 742 -301 
Q 979 -506 1328 -624 
Q 1677 -742 2048 -742 
Q 2643 -742 2928 -460 
Q 3213 -179 3213 397 
L 3213 666 
Q 2995 403 2678 272 
Q 2362 141 1990 141 
Q 1504 141 1110 349 
Q 717 557 493 931 
Q 269 1306 269 1786 
Q 269 2266 493 2640 
Q 717 3014 1110 3219 
Q 1504 3424 1990 3424 
Q 2374 3424 2704 3283 
Q 3034 3142 3245 2867 
L 3245 3392 
L 3827 3392 
z
M 2061 678 
Q 2394 678 2659 819 
Q 2925 960 3075 1213 
Q 3226 1466 3226 1786 
Q 3226 2278 2899 2582 
Q 2573 2886 2061 2886 
Q 1542 2886 1216 2582 
Q 890 2278 890 1786 
Q 890 1466 1040 1213 
Q 1190 960 1456 819 
Q 1722 678 2061 678 
z
" transform="scale(0.015625)"/>
      <path id="Montserrat-Medium-77" d="M 5715 3392 
L 4448 0 
L 3859 0 
L 2880 2573 
L 1888 0 
L 1299 0 
L 38 3392 
L 621 3392 
L 1606 691 
L 2630 3392 
L 3149 3392 
L 4154 678 
L 5165 3392 
L 5715 3392 
z
" transform="scale(0.015625)"/>
      <path id="Montserrat-Medium-68" d="M 2394 3424 
Q 3040 3424 3421 3049 
Q 3802 2675 3802 1952 
L 3802 0 
L 3187 0 
L 3187 1882 
Q 3187 2374 2950 2624 
Q 2714 2874 2272 2874 
Q 1773 2874 1485 2582 
Q 1197 2291 1197 1747 
L 1197 0 
L 582 0 
L 582 4749 
L 1197 4749 
L 1197 2912 
Q 1389 3155 1699 3289 
Q 2010 3424 2394 3424 
z
" transform="scale(0.015625)"/>
      <path id="Montserrat-Medium-53" d="M 1978 -51 
Q 1472 -51 1001 105 
Q 531 262 262 512 
L 499 1011 
Q 755 781 1155 637 
Q 1555 493 1978 493 
Q 2534 493 2809 681 
Q 3085 870 3085 1184 
Q 3085 1414 2934 1558 
Q 2784 1702 2563 1779 
Q 2342 1856 1939 1952 
Q 1434 2074 1123 2195 
Q 813 2317 592 2569 
Q 371 2822 371 3251 
Q 371 3610 560 3898 
Q 749 4186 1133 4358 
Q 1517 4531 2086 4531 
Q 2483 4531 2867 4428 
Q 3251 4326 3526 4134 
L 3315 3622 
Q 3034 3802 2714 3894 
Q 2394 3987 2086 3987 
Q 1542 3987 1270 3788 
Q 998 3590 998 3277 
Q 998 3046 1152 2902 
Q 1306 2758 1533 2678 
Q 1760 2598 2150 2509 
Q 2656 2387 2963 2265 
Q 3270 2144 3491 1894 
Q 3712 1645 3712 1222 
Q 3712 870 3520 579 
Q 3328 288 2937 118 
Q 2547 -51 1978 -51 
z
" transform="scale(0.015625)"/>
      <path id="Montserrat-Medium-4e" d="M 4525 4480 
L 4525 0 
L 4000 0 
L 1312 3341 
L 1312 0 
L 672 0 
L 672 4480 
L 1197 4480 
L 3885 1139 
L 3885 4480 
L 4525 4480 
z
" transform="scale(0.015625)"/>
     </defs>
     <use xlink:href="#Montserrat-Medium-4c"/>
     <use xlink:href="#Montserrat-Medium-69" x="59.399994"/>
     <use xlink:href="#Montserrat-Medium-6e" x="87.299988"/>
     <use xlink:href="#Montserrat-Medium-65" x="155.399979"/>
     <use xlink:href="#Montserrat-Medium-61" x="216.599976"/>
     <use xlink:href="#Montserrat-Medium-72" x="276.399963"/>
     <use xlink:href="#Montserrat-Medium-20" x="317.399948"/>
     <use xlink:href="#Montserrat-Medium-52" x="344.299942"/>
     <use xlink:href="#Montserrat-Medium-65" x="416.999924"/>
     <use xlink:href="#Montserrat-Medium-67" x="478.199921"/>
     <use xlink:href="#Montserrat-Medium-72" x="547.199905"/>
     <use xlink:href="#Montserrat-Medium-65" x="588.19989"/>
     <use xlink:href="#Montserrat-Medium-73" x="649.399887"/>
     <use xlink:href="#Montserrat-Medium-73" x="699.499878"/>
     <use xlink:href="#Montserrat-Medium-69" x="749.599869"/>
     <use xlink:href="#Montserrat-Medium-6f" x="777.499863"/>
     <use xlink:href="#Montserrat-Medium-6e" x="840.999847"/>
     <use xlink:href="#Montserrat-Medium-20" x="909.099838"/>
     <use xlink:href="#Montserrat-Medium-77" x="935.999832"/>
     <use xlink:href="#Montserrat-Medium-69" x="1025.899826"/>
     <use xlink:href="#Montserrat-Medium-74" x="1053.79982"/>
     <use xlink:href="#Montserrat-Medium-68" x="1095.199814"/>
     <use xlink:href="#Montserrat-Medium-20" x="1163.299805"/>
     <use xlink:href="#Montserrat-Medium-53" x="1190.199799"/>
     <use xlink:href="#Montserrat-Medium-69" x="1252.299789"/>
     <use xlink:href="#Montserrat-Medium-6e" x="1280.199783"/>
     <use xlink:href="#Montserrat-Medium-67" x="1348.299774"/>
     <use xlink:href="#Montserrat-Medium-6c" x="1417.299759"/>
     <use xlink:href="#Montserrat-Medium-65" x="1445.199753"/>
     <use xlink:href="#Montserrat-Medium-20" x="1506.39975"/>
     <use xlink:href="#Montserrat-Medium-4e" x="1533.299744"/>
     <use xlink:href="#Montserrat-Medium-65" x="1614.499725"/>
     <use xlink:href="#Montserrat-Medium-75" x="1675.699722"/>
     <use xlink:href="#Montserrat-Medium-72" x="1743.399704"/>
     <use xlink:href="#Montserrat-Medium-6f" x="1784.399689"/>
     <use xlink:href="#Montserrat-Medium-6e" x="1847.899673"/>
    </g>
   </g>
  </g>
 </g>
 <defs>
  <clipPath id="p98fe213ecb">
   <rect x="61.585625" y="26.826562" width="446.4" height="277.2"/>
  </clipPath>
 </defs>
</svg>
