<?xml version="1.0" encoding="utf-8" standalone="no"?>
<!DOCTYPE svg PUBLIC "-//W3C//DTD SVG 1.1//EN"
  "http://www.w3.org/Graphics/SVG/1.1/DTD/svg11.dtd">
<svg xmlns:xlink="http://www.w3.org/1999/xlink" width="527.015pt" height="356.87375pt" viewBox="0 0 527.015 356.87375" xmlns="http://www.w3.org/2000/svg" version="1.1">
 <metadata>
  <rdf:RDF xmlns:dc="http://purl.org/dc/elements/1.1/" xmlns:cc="http://creativecommons.org/ns#" xmlns:rdf="http://www.w3.org/1999/02/22-rdf-syntax-ns#">
   <cc:Work>
    <dc:type rdf:resource="http://purl.org/dc/dcmitype/StillImage"/>
    <dc:date>2022-11-12T21:08:52.740399</dc:date>
    <dc:format>image/svg+xml</dc:format>
    <dc:creator>
     <cc:Agent>
      <dc:title>Matplotlib v3.5.2, https://matplotlib.org/</dc:title>
     </cc:Agent>
    </dc:creator>
   </cc:Work>
  </rdf:RDF>
 </metadata>
 <defs>
  <style type="text/css">*{stroke-linejoin: round; stroke-linecap: butt}</style>
 </defs>
 <g id="figure_1">
  <g id="patch_1">
   <path d="M 0 356.87375 
L 527.015 356.87375 
L 527.015 0 
L 0 0 
z
" style="fill: #ffffff"/>
  </g>
  <g id="axes_1">
   <g id="patch_2">
    <path d="M 61.9625 304.026562 
L 508.3625 304.026562 
L 508.3625 26.826562 
L 61.9625 26.826562 
z
" style="fill: #f1f7f0"/>
   </g>
   <g id="PathCollection_1">
    <defs>
     <path id="m06808ee000" d="M 0 3 
C 0.795609 3 1.55874 2.683901 2.12132 2.12132 
C 2.683901 1.55874 3 0.795609 3 0 
C 3 -0.795609 2.683901 -1.55874 2.12132 -2.12132 
C 1.55874 -2.683901 0.795609 -3 0 -3 
C -0.795609 -3 -1.55874 -2.683901 -2.12132 -2.12132 
C -2.683901 -1.55874 -3 -0.795609 -3 0 
C -3 0.795609 -2.683901 1.55874 -2.12132 2.12132 
C -1.55874 2.683901 -0.795609 3 0 3 
z
" style="stroke: #0000ff"/>
    </defs>
    <g clip-path="url(#p6afe228f76)">
     <use xlink:href="#m06808ee000" x="190.5257" y="218.560119" style="fill: #0000ff; stroke: #0000ff"/>
     <use xlink:href="#m06808ee000" x="169.0985" y="228.920731" style="fill: #0000ff; stroke: #0000ff"/>
     <use xlink:href="#m06808ee000" x="174.4553" y="241.182047" style="fill: #0000ff; stroke: #0000ff"/>
     <use xlink:href="#m06808ee000" x="176.2409" y="230.540152" style="fill: #0000ff; stroke: #0000ff"/>
     <use xlink:href="#m06808ee000" x="295.8761" y="207.405601" style="fill: #0000ff; stroke: #0000ff"/>
     <use xlink:href="#m06808ee000" x="179.8121" y="216.890766" style="fill: #0000ff; stroke: #0000ff"/>
     <use xlink:href="#m06808ee000" x="226.2377" y="209.256365" style="fill: #0000ff; stroke: #0000ff"/>
     <use xlink:href="#m06808ee000" x="183.3833" y="268.664449" style="fill: #0000ff; stroke: #0000ff"/>
     <use xlink:href="#m06808ee000" x="203.0249" y="204.166765" style="fill: #0000ff; stroke: #0000ff"/>
     <use xlink:href="#m06808ee000" x="181.5977" y="233.547642" style="fill: #0000ff; stroke: #0000ff"/>
     <use xlink:href="#m06808ee000" x="176.2409" y="230.771495" style="fill: #0000ff; stroke: #0000ff"/>
     <use xlink:href="#m06808ee000" x="183.3833" y="215.502694" style="fill: #0000ff; stroke: #0000ff"/>
     <use xlink:href="#m06808ee000" x="190.5257" y="209.72061" style="fill: #0000ff; stroke: #0000ff"/>
     <use xlink:href="#m06808ee000" x="199.4537" y="196.287544" style="fill: #0000ff; stroke: #0000ff"/>
     <use xlink:href="#m06808ee000" x="203.0249" y="190.503903" style="fill: #0000ff; stroke: #0000ff"/>
     <use xlink:href="#m06808ee000" x="240.5225" y="175.486837" style="fill: #0000ff; stroke: #0000ff"/>
     <use xlink:href="#m06808ee000" x="258.3785" y="172.710687" style="fill: #0000ff; stroke: #0000ff"/>
     <use xlink:href="#m06808ee000" x="270.8777" y="168.515861" style="fill: #0000ff; stroke: #0000ff"/>
     <use xlink:href="#m06808ee000" x="235.1657" y="210.637194" style="fill: #0000ff; stroke: #0000ff"/>
     <use xlink:href="#m06808ee000" x="288.7337" y="168.602254" style="fill: #0000ff; stroke: #0000ff"/>
     <use xlink:href="#m06808ee000" x="176.2409" y="191.968147" style="fill: #0000ff; stroke: #0000ff"/>
     <use xlink:href="#m06808ee000" x="319.0889" y="168.139563" style="fill: #0000ff; stroke: #0000ff"/>
     <use xlink:href="#m06808ee000" x="165.5273" y="229.919568" style="fill: #0000ff; stroke: #0000ff"/>
     <use xlink:href="#m06808ee000" x="240.5225" y="205.396942" style="fill: #0000ff; stroke: #0000ff"/>
     <use xlink:href="#m06808ee000" x="181.5977" y="212.105964" style="fill: #0000ff; stroke: #0000ff"/>
     <use xlink:href="#m06808ee000" x="295.8761" y="194.755052" style="fill: #0000ff; stroke: #0000ff"/>
     <use xlink:href="#m06808ee000" x="626.2121" y="162.362742" style="fill: #0000ff; stroke: #0000ff"/>
     <use xlink:href="#m06808ee000" x="178.0265" y="204.930312" style="fill: #0000ff; stroke: #0000ff"/>
     <use xlink:href="#m06808ee000" x="215.5241" y="172.773292" style="fill: #0000ff; stroke: #0000ff"/>
     <use xlink:href="#m06808ee000" x="211.9529" y="188.222906" style="fill: #0000ff; stroke: #0000ff"/>
     <use xlink:href="#m06808ee000" x="199.4537" y="204.726216" style="fill: #0000ff; stroke: #0000ff"/>
     <use xlink:href="#m06808ee000" x="203.0249" y="205.096847" style="fill: #0000ff; stroke: #0000ff"/>
     <use xlink:href="#m06808ee000" x="195.8825" y="211.295465" style="fill: #0000ff; stroke: #0000ff"/>
     <use xlink:href="#m06808ee000" x="229.8089" y="189.862812" style="fill: #0000ff; stroke: #0000ff"/>
     <use xlink:href="#m06808ee000" x="263.7353" y="181.534371" style="fill: #0000ff; stroke: #0000ff"/>
     <use xlink:href="#m06808ee000" x="306.5897" y="176.907463" style="fill: #0000ff; stroke: #0000ff"/>
     <use xlink:href="#m06808ee000" x="308.3753" y="179.452262" style="fill: #0000ff; stroke: #0000ff"/>
     <use xlink:href="#m06808ee000" x="179.8121" y="211.840633" style="fill: #0000ff; stroke: #0000ff"/>
     <use xlink:href="#m06808ee000" x="210.1673" y="186.16128" style="fill: #0000ff; stroke: #0000ff"/>
     <use xlink:href="#m06808ee000" x="229.8089" y="191.48223" style="fill: #0000ff; stroke: #0000ff"/>
     <use xlink:href="#m06808ee000" x="240.5225" y="189.16877" style="fill: #0000ff; stroke: #0000ff"/>
     <use xlink:href="#m06808ee000" x="170.8841" y="219.475035" style="fill: #0000ff; stroke: #0000ff"/>
     <use xlink:href="#m06808ee000" x="235.1657" y="186.623971" style="fill: #0000ff; stroke: #0000ff"/>
     <use xlink:href="#m06808ee000" x="160.1705" y="241.452856" style="fill: #0000ff; stroke: #0000ff"/>
     <use xlink:href="#m06808ee000" x="272.6633" y="174.137736" style="fill: #0000ff; stroke: #0000ff"/>
     <use xlink:href="#m06808ee000" x="217.3097" y="194.911119" style="fill: #0000ff; stroke: #0000ff"/>
     <use xlink:href="#m06808ee000" x="208.3817" y="173.545372" style="fill: #0000ff; stroke: #0000ff"/>
     <use xlink:href="#m06808ee000" x="208.3817" y="178.220013" style="fill: #0000ff; stroke: #0000ff"/>
     <use xlink:href="#m06808ee000" x="322.6601" y="186.317103" style="fill: #0000ff; stroke: #0000ff"/>
     <use xlink:href="#m06808ee000" x="263.7353" y="175.906554" style="fill: #0000ff; stroke: #0000ff"/>
     <use xlink:href="#m06808ee000" x="386.9417" y="172.205027" style="fill: #0000ff; stroke: #0000ff"/>
     <use xlink:href="#m06808ee000" x="190.5257" y="212.411431" style="fill: #0000ff; stroke: #0000ff"/>
     <use xlink:href="#m06808ee000" x="251.2361" y="189.508228" style="fill: #0000ff; stroke: #0000ff"/>
     <use xlink:href="#m06808ee000" x="286.9481" y="172.318944" style="fill: #0000ff; stroke: #0000ff"/>
     <use xlink:href="#m06808ee000" x="238.7369" y="183.886221" style="fill: #0000ff; stroke: #0000ff"/>
     <use xlink:href="#m06808ee000" x="213.7385" y="179.027967" style="fill: #0000ff; stroke: #0000ff"/>
     <use xlink:href="#m06808ee000" x="292.3049" y="182.134819" style="fill: #0000ff; stroke: #0000ff"/>
     <use xlink:href="#m06808ee000" x="195.8825" y="206.657443" style="fill: #0000ff; stroke: #0000ff"/>
     <use xlink:href="#m06808ee000" x="351.2297" y="179.358669" style="fill: #0000ff; stroke: #0000ff"/>
     <use xlink:href="#m06808ee000" x="197.6681" y="205.269367" style="fill: #0000ff; stroke: #0000ff"/>
     <use xlink:href="#m06808ee000" x="220.8809" y="186.761728" style="fill: #0000ff; stroke: #0000ff"/>
     <use xlink:href="#m06808ee000" x="186.9545" y="194.164787" style="fill: #0000ff; stroke: #0000ff"/>
     <use xlink:href="#m06808ee000" x="178.0265" y="199.948423" style="fill: #0000ff; stroke: #0000ff"/>
     <use xlink:href="#m06808ee000" x="228.0233" y="191.619982" style="fill: #0000ff; stroke: #0000ff"/>
     <use xlink:href="#m06808ee000" x="210.1673" y="211.467985" style="fill: #0000ff; stroke: #0000ff"/>
     <use xlink:href="#m06808ee000" x="249.4505" y="186.299037" style="fill: #0000ff; stroke: #0000ff"/>
     <use xlink:href="#m06808ee000" x="199.4537" y="197.172277" style="fill: #0000ff; stroke: #0000ff"/>
     <use xlink:href="#m06808ee000" x="194.0969" y="197.403623" style="fill: #0000ff; stroke: #0000ff"/>
     <use xlink:href="#m06808ee000" x="183.3833" y="199.717077" style="fill: #0000ff; stroke: #0000ff"/>
     <use xlink:href="#m06808ee000" x="572.6441" y="178.201942" style="fill: #0000ff; stroke: #0000ff"/>
     <use xlink:href="#m06808ee000" x="226.2377" y="186.530382" style="fill: #0000ff; stroke: #0000ff"/>
     <use xlink:href="#m06808ee000" x="204.8105" y="193.00806" style="fill: #0000ff; stroke: #0000ff"/>
     <use xlink:href="#m06808ee000" x="228.0233" y="190.925946" style="fill: #0000ff; stroke: #0000ff"/>
     <use xlink:href="#m06808ee000" x="165.5273" y="235.480241" style="fill: #0000ff; stroke: #0000ff"/>
     <use xlink:href="#m06808ee000" x="233.3801" y="192.497689" style="fill: #0000ff; stroke: #0000ff"/>
     <use xlink:href="#m06808ee000" x="185.1689" y="225.954317" style="fill: #0000ff; stroke: #0000ff"/>
     <use xlink:href="#m06808ee000" x="183.3833" y="210.916859" style="fill: #0000ff; stroke: #0000ff"/>
     <use xlink:href="#m06808ee000" x="170.8841" y="243.073884" style="fill: #0000ff; stroke: #0000ff"/>
     <use xlink:href="#m06808ee000" x="210.1673" y="203.282459" style="fill: #0000ff; stroke: #0000ff"/>
     <use xlink:href="#m06808ee000" x="240.5225" y="172.57138" style="fill: #0000ff; stroke: #0000ff"/>
     <use xlink:href="#m06808ee000" x="203.0249" y="175.347531" style="fill: #0000ff; stroke: #0000ff"/>
     <use xlink:href="#m06808ee000" x="292.3049" y="179.857439" style="fill: #0000ff; stroke: #0000ff"/>
     <use xlink:href="#m06808ee000" x="353.0153" y="175.086762" style="fill: #0000ff; stroke: #0000ff"/>
     <use xlink:href="#m06808ee000" x="370.8713" y="173.235999" style="fill: #0000ff; stroke: #0000ff"/>
     <use xlink:href="#m06808ee000" x="231.5945" y="192.743944" style="fill: #0000ff; stroke: #0000ff"/>
     <use xlink:href="#m06808ee000" x="176.2409" y="225.532033" style="fill: #0000ff; stroke: #0000ff"/>
     <use xlink:href="#m06808ee000" x="186.9545" y="232.424687" style="fill: #0000ff; stroke: #0000ff"/>
     <use xlink:href="#m06808ee000" x="160.1705" y="184.398722" style="fill: #0000ff; stroke: #0000ff"/>
     <use xlink:href="#m06808ee000" x="463.7225" y="165.789262" style="fill: #0000ff; stroke: #0000ff"/>
     <use xlink:href="#m06808ee000" x="267.3065" y="170.917775" style="fill: #0000ff; stroke: #0000ff"/>
     <use xlink:href="#m06808ee000" x="365.5145" y="162.82068" style="fill: #0000ff; stroke: #0000ff"/>
     <use xlink:href="#m06808ee000" x="242.3081" y="172.999884" style="fill: #0000ff; stroke: #0000ff"/>
     <use xlink:href="#m06808ee000" x="310.1609" y="166.059516" style="fill: #0000ff; stroke: #0000ff"/>
     <use xlink:href="#m06808ee000" x="176.2409" y="211.803982" style="fill: #0000ff; stroke: #0000ff"/>
     <use xlink:href="#m06808ee000" x="160.1705" y="273.521144" style="fill: #0000ff; stroke: #0000ff"/>
     <use xlink:href="#m06808ee000" x="220.8809" y="183.273385" style="fill: #0000ff; stroke: #0000ff"/>
     <use xlink:href="#m06808ee000" x="328.0169" y="178.877822" style="fill: #0000ff; stroke: #0000ff"/>
     <use xlink:href="#m06808ee000" x="229.8089" y="189.519717" style="fill: #0000ff; stroke: #0000ff"/>
     <use xlink:href="#m06808ee000" x="170.8841" y="253.092014" style="fill: #0000ff; stroke: #0000ff"/>
     <use xlink:href="#m06808ee000" x="179.8121" y="251.009911" style="fill: #0000ff; stroke: #0000ff"/>
     <use xlink:href="#m06808ee000" x="340.5161" y="172.862841" style="fill: #0000ff; stroke: #0000ff"/>
     <use xlink:href="#m06808ee000" x="253.0217" y="193.569155" style="fill: #0000ff; stroke: #0000ff"/>
     <use xlink:href="#m06808ee000" x="229.8089" y="189.506663" style="fill: #0000ff; stroke: #0000ff"/>
     <use xlink:href="#m06808ee000" x="194.0969" y="197.141062" style="fill: #0000ff; stroke: #0000ff"/>
     <use xlink:href="#m06808ee000" x="204.8105" y="184.639511" style="fill: #0000ff; stroke: #0000ff"/>
     <use xlink:href="#m06808ee000" x="231.5945" y="173.303579" style="fill: #0000ff; stroke: #0000ff"/>
     <use xlink:href="#m06808ee000" x="315.5177" y="170.75878" style="fill: #0000ff; stroke: #0000ff"/>
     <use xlink:href="#m06808ee000" x="579.7865" y="164.512453" style="fill: #0000ff; stroke: #0000ff"/>
     <use xlink:href="#m06808ee000" x="313.7321" y="167.288598" style="fill: #0000ff; stroke: #0000ff"/>
     <use xlink:href="#m06808ee000" x="367.3001" y="165.011467" style="fill: #0000ff; stroke: #0000ff"/>
     <use xlink:href="#m06808ee000" x="431.5817" y="165.686078" style="fill: #0000ff; stroke: #0000ff"/>
     <use xlink:href="#m06808ee000" x="247.6649" y="167.213372" style="fill: #0000ff; stroke: #0000ff"/>
     <use xlink:href="#m06808ee000" x="179.8121" y="201.97563" style="fill: #0000ff; stroke: #0000ff"/>
     <use xlink:href="#m06808ee000" x="179.8121" y="195.450246" style="fill: #0000ff; stroke: #0000ff"/>
     <use xlink:href="#m06808ee000" x="329.8025" y="166.751163" style="fill: #0000ff; stroke: #0000ff"/>
     <use xlink:href="#m06808ee000" x="231.5945" y="176.23633" style="fill: #0000ff; stroke: #0000ff"/>
     <use xlink:href="#m06808ee000" x="294.0905" y="170.452689" style="fill: #0000ff; stroke: #0000ff"/>
     <use xlink:href="#m06808ee000" x="170.8841" y="198.214146" style="fill: #0000ff; stroke: #0000ff"/>
     <use xlink:href="#m06808ee000" x="186.9545" y="196.826074" style="fill: #0000ff; stroke: #0000ff"/>
     <use xlink:href="#m06808ee000" x="170.8841" y="223.151749" style="fill: #0000ff; stroke: #0000ff"/>
     <use xlink:href="#m06808ee000" x="203.0249" y="186.184184" style="fill: #0000ff; stroke: #0000ff"/>
     <use xlink:href="#m06808ee000" x="219.0953" y="175.079598" style="fill: #0000ff; stroke: #0000ff"/>
     <use xlink:href="#m06808ee000" x="195.8825" y="188.266293" style="fill: #0000ff; stroke: #0000ff"/>
     <use xlink:href="#m06808ee000" x="319.0889" y="169.527308" style="fill: #0000ff; stroke: #0000ff"/>
     <use xlink:href="#m06808ee000" x="254.8073" y="181.409541" style="fill: #0000ff; stroke: #0000ff"/>
     <use xlink:href="#m06808ee000" x="201.2393" y="200.279119" style="fill: #0000ff; stroke: #0000ff"/>
     <use xlink:href="#m06808ee000" x="211.9529" y="183.384627" style="fill: #0000ff; stroke: #0000ff"/>
     <use xlink:href="#m06808ee000" x="276.2345" y="191.099592" style="fill: #0000ff; stroke: #0000ff"/>
     <use xlink:href="#m06808ee000" x="172.6697" y="224.41335" style="fill: #0000ff; stroke: #0000ff"/>
     <use xlink:href="#m06808ee000" x="213.7385" y="193.875743" style="fill: #0000ff; stroke: #0000ff"/>
     <use xlink:href="#m06808ee000" x="304.8041" y="188.786138" style="fill: #0000ff; stroke: #0000ff"/>
     <use xlink:href="#m06808ee000" x="195.8825" y="203.592251" style="fill: #0000ff; stroke: #0000ff"/>
     <use xlink:href="#m06808ee000" x="194.0969" y="189.042222" style="fill: #0000ff; stroke: #0000ff"/>
     <use xlink:href="#m06808ee000" x="204.8105" y="184.46302" style="fill: #0000ff; stroke: #0000ff"/>
     <use xlink:href="#m06808ee000" x="295.8761" y="178.910729" style="fill: #0000ff; stroke: #0000ff"/>
     <use xlink:href="#m06808ee000" x="199.4537" y="196.743049" style="fill: #0000ff; stroke: #0000ff"/>
     <use xlink:href="#m06808ee000" x="228.0233" y="179.284273" style="fill: #0000ff; stroke: #0000ff"/>
     <use xlink:href="#m06808ee000" x="165.5273" y="238.329875" style="fill: #0000ff; stroke: #0000ff"/>
     <use xlink:href="#m06808ee000" x="220.8809" y="204.090741" style="fill: #0000ff; stroke: #0000ff"/>
     <use xlink:href="#m06808ee000" x="158.3849" y="187.386159" style="fill: #0000ff; stroke: #0000ff"/>
     <use xlink:href="#m06808ee000" x="179.8121" y="213.528197" style="fill: #0000ff; stroke: #0000ff"/>
     <use xlink:href="#m06808ee000" x="176.2409" y="211.956491" style="fill: #0000ff; stroke: #0000ff"/>
     <use xlink:href="#m06808ee000" x="306.5897" y="189.053288" style="fill: #0000ff; stroke: #0000ff"/>
     <use xlink:href="#m06808ee000" x="167.3129" y="269.051111" style="fill: #0000ff; stroke: #0000ff"/>
     <use xlink:href="#m06808ee000" x="181.5977" y="218.386451" style="fill: #0000ff; stroke: #0000ff"/>
     <use xlink:href="#m06808ee000" x="211.9529" y="195.53096" style="fill: #0000ff; stroke: #0000ff"/>
     <use xlink:href="#m06808ee000" x="206.5961" y="204.322089" style="fill: #0000ff; stroke: #0000ff"/>
     <use xlink:href="#m06808ee000" x="279.8057" y="193.217506" style="fill: #0000ff; stroke: #0000ff"/>
     <use xlink:href="#m06808ee000" x="176.2409" y="216.352054" style="fill: #0000ff; stroke: #0000ff"/>
     <use xlink:href="#m06808ee000" x="240.5225" y="196.456342" style="fill: #0000ff; stroke: #0000ff"/>
     <use xlink:href="#m06808ee000" x="170.8841" y="216.814745" style="fill: #0000ff; stroke: #0000ff"/>
     <use xlink:href="#m06808ee000" x="178.0265" y="211.956491" style="fill: #0000ff; stroke: #0000ff"/>
     <use xlink:href="#m06808ee000" x="176.2409" y="207.098234" style="fill: #0000ff; stroke: #0000ff"/>
     <use xlink:href="#m06808ee000" x="210.1673" y="196.687687" style="fill: #0000ff; stroke: #0000ff"/>
     <use xlink:href="#m06808ee000" x="206.5961" y="198.769796" style="fill: #0000ff; stroke: #0000ff"/>
     <use xlink:href="#m06808ee000" x="210.1673" y="197.613069" style="fill: #0000ff; stroke: #0000ff"/>
     <use xlink:href="#m06808ee000" x="163.7417" y="243.371766" style="fill: #0000ff; stroke: #0000ff"/>
     <use xlink:href="#m06808ee000" x="199.4537" y="198.07576" style="fill: #0000ff; stroke: #0000ff"/>
     <use xlink:href="#m06808ee000" x="163.7417" y="235.785075" style="fill: #0000ff; stroke: #0000ff"/>
     <use xlink:href="#m06808ee000" x="204.8105" y="199.001141" style="fill: #0000ff; stroke: #0000ff"/>
     <use xlink:href="#m06808ee000" x="167.3129" y="229.770094" style="fill: #0000ff; stroke: #0000ff"/>
     <use xlink:href="#m06808ee000" x="276.2345" y="178.095585" style="fill: #0000ff; stroke: #0000ff"/>
     <use xlink:href="#m06808ee000" x="197.6681" y="211.130283" style="fill: #0000ff; stroke: #0000ff"/>
     <use xlink:href="#m06808ee000" x="183.3833" y="196.371884" style="fill: #0000ff; stroke: #0000ff"/>
     <use xlink:href="#m06808ee000" x="283.3769" y="175.782131" style="fill: #0000ff; stroke: #0000ff"/>
     <use xlink:href="#m06808ee000" x="185.1689" y="186.424026" style="fill: #0000ff; stroke: #0000ff"/>
     <use xlink:href="#m06808ee000" x="301.2329" y="167.666996" style="fill: #0000ff; stroke: #0000ff"/>
     <use xlink:href="#m06808ee000" x="242.3081" y="176.920818" style="fill: #0000ff; stroke: #0000ff"/>
     <use xlink:href="#m06808ee000" x="304.8041" y="168.361032" style="fill: #0000ff; stroke: #0000ff"/>
     <use xlink:href="#m06808ee000" x="340.5161" y="166.741614" style="fill: #0000ff; stroke: #0000ff"/>
     <use xlink:href="#m06808ee000" x="231.5945" y="162.067295" style="fill: #0000ff; stroke: #0000ff"/>
     <use xlink:href="#m06808ee000" x="204.8105" y="180.97557" style="fill: #0000ff; stroke: #0000ff"/>
     <use xlink:href="#m06808ee000" x="258.3785" y="188.78074" style="fill: #0000ff; stroke: #0000ff"/>
     <use xlink:href="#m06808ee000" x="256.5929" y="183.037519" style="fill: #0000ff; stroke: #0000ff"/>
     <use xlink:href="#m06808ee000" x="236.9513" y="196.762442" style="fill: #0000ff; stroke: #0000ff"/>
     <use xlink:href="#m06808ee000" x="190.5257" y="194.581585" style="fill: #0000ff; stroke: #0000ff"/>
     <use xlink:href="#m06808ee000" x="261.9497" y="182.551618" style="fill: #0000ff; stroke: #0000ff"/>
     <use xlink:href="#m06808ee000" x="169.0985" y="218.87286" style="fill: #0000ff; stroke: #0000ff"/>
     <use xlink:href="#m06808ee000" x="256.5929" y="184.865072" style="fill: #0000ff; stroke: #0000ff"/>
     <use xlink:href="#m06808ee000" x="238.7369" y="187.409872" style="fill: #0000ff; stroke: #0000ff"/>
     <use xlink:href="#m06808ee000" x="211.9529" y="165.961365" style="fill: #0000ff; stroke: #0000ff"/>
     <use xlink:href="#m06808ee000" x="224.4521" y="167.580783" style="fill: #0000ff; stroke: #0000ff"/>
     <use xlink:href="#m06808ee000" x="163.7417" y="223.981369" style="fill: #0000ff; stroke: #0000ff"/>
     <use xlink:href="#m06808ee000" x="245.8793" y="185.058434" style="fill: #0000ff; stroke: #0000ff"/>
     <use xlink:href="#m06808ee000" x="206.5961" y="195.700329" style="fill: #0000ff; stroke: #0000ff"/>
     <use xlink:href="#m06808ee000" x="217.3097" y="176.987828" style="fill: #0000ff; stroke: #0000ff"/>
    </g>
   </g>
   <g id="matplotlib.axis_1">
    <g id="xtick_1">
     <g id="line2d_1">
      <defs>
       <path id="m076f9a5721" d="M 0 0 
L 0 3.5 
" style="stroke: #000000; stroke-width: 0.8"/>
      </defs>
      <g>
       <use xlink:href="#m076f9a5721" x="61.9625" y="304.026562" style="stroke: #000000; stroke-width: 0.8"/>
      </g>
     </g>
     <g id="text_1">
      <!-- −5 -->
      <g transform="translate(48.694531 324.70375)scale(0.18 -0.18)">
       <defs>
        <path id="DejaVuSans-2212" d="M 678 2272 
L 4684 2272 
L 4684 1741 
L 678 1741 
L 678 2272 
z
" transform="scale(0.015625)"/>
        <path id="DejaVuSans-35" d="M 691 4666 
L 3169 4666 
L 3169 4134 
L 1269 4134 
L 1269 2991 
Q 1406 3038 1543 3061 
Q 1681 3084 1819 3084 
Q 2600 3084 3056 2656 
Q 3513 2228 3513 1497 
Q 3513 744 3044 326 
Q 2575 -91 1722 -91 
Q 1428 -91 1123 -41 
Q 819 9 494 109 
L 494 744 
Q 775 591 1075 516 
Q 1375 441 1709 441 
Q 2250 441 2565 725 
Q 2881 1009 2881 1497 
Q 2881 1984 2565 2268 
Q 2250 2553 1709 2553 
Q 1456 2553 1204 2497 
Q 953 2441 691 2322 
L 691 4666 
z
" transform="scale(0.015625)"/>
       </defs>
       <use xlink:href="#DejaVuSans-2212"/>
       <use xlink:href="#DejaVuSans-35" x="83.789062"/>
      </g>
     </g>
    </g>
    <g id="xtick_2">
     <g id="line2d_2">
      <g>
       <use xlink:href="#m076f9a5721" x="151.2425" y="304.026562" style="stroke: #000000; stroke-width: 0.8"/>
      </g>
     </g>
     <g id="text_2">
      <!-- 0 -->
      <g transform="translate(145.51625 324.70375)scale(0.18 -0.18)">
       <defs>
        <path id="DejaVuSans-30" d="M 2034 4250 
Q 1547 4250 1301 3770 
Q 1056 3291 1056 2328 
Q 1056 1369 1301 889 
Q 1547 409 2034 409 
Q 2525 409 2770 889 
Q 3016 1369 3016 2328 
Q 3016 3291 2770 3770 
Q 2525 4250 2034 4250 
z
M 2034 4750 
Q 2819 4750 3233 4129 
Q 3647 3509 3647 2328 
Q 3647 1150 3233 529 
Q 2819 -91 2034 -91 
Q 1250 -91 836 529 
Q 422 1150 422 2328 
Q 422 3509 836 4129 
Q 1250 4750 2034 4750 
z
" transform="scale(0.015625)"/>
       </defs>
       <use xlink:href="#DejaVuSans-30"/>
      </g>
     </g>
    </g>
    <g id="xtick_3">
     <g id="line2d_3">
      <g>
       <use xlink:href="#m076f9a5721" x="240.5225" y="304.026562" style="stroke: #000000; stroke-width: 0.8"/>
      </g>
     </g>
     <g id="text_3">
      <!-- 5 -->
      <g transform="translate(234.79625 324.70375)scale(0.18 -0.18)">
       <use xlink:href="#DejaVuSans-35"/>
      </g>
     </g>
    </g>
    <g id="xtick_4">
     <g id="line2d_4">
      <g>
       <use xlink:href="#m076f9a5721" x="329.8025" y="304.026562" style="stroke: #000000; stroke-width: 0.8"/>
      </g>
     </g>
     <g id="text_4">
      <!-- 10 -->
      <g transform="translate(318.35 324.70375)scale(0.18 -0.18)">
       <defs>
        <path id="DejaVuSans-31" d="M 794 531 
L 1825 531 
L 1825 4091 
L 703 3866 
L 703 4441 
L 1819 4666 
L 2450 4666 
L 2450 531 
L 3481 531 
L 3481 0 
L 794 0 
L 794 531 
z
" transform="scale(0.015625)"/>
       </defs>
       <use xlink:href="#DejaVuSans-31"/>
       <use xlink:href="#DejaVuSans-30" x="63.623047"/>
      </g>
     </g>
    </g>
    <g id="xtick_5">
     <g id="line2d_5">
      <g>
       <use xlink:href="#m076f9a5721" x="419.0825" y="304.026562" style="stroke: #000000; stroke-width: 0.8"/>
      </g>
     </g>
     <g id="text_5">
      <!-- 15 -->
      <g transform="translate(407.63 324.70375)scale(0.18 -0.18)">
       <use xlink:href="#DejaVuSans-31"/>
       <use xlink:href="#DejaVuSans-35" x="63.623047"/>
      </g>
     </g>
    </g>
    <g id="xtick_6">
     <g id="line2d_6">
      <g>
       <use xlink:href="#m076f9a5721" x="508.3625" y="304.026562" style="stroke: #000000; stroke-width: 0.8"/>
      </g>
     </g>
     <g id="text_6">
      <!-- 20 -->
      <g transform="translate(496.91 324.70375)scale(0.18 -0.18)">
       <defs>
        <path id="DejaVuSans-32" d="M 1228 531 
L 3431 531 
L 3431 0 
L 469 0 
L 469 531 
Q 828 903 1448 1529 
Q 2069 2156 2228 2338 
Q 2531 2678 2651 2914 
Q 2772 3150 2772 3378 
Q 2772 3750 2511 3984 
Q 2250 4219 1831 4219 
Q 1534 4219 1204 4116 
Q 875 4013 500 3803 
L 500 4441 
Q 881 4594 1212 4672 
Q 1544 4750 1819 4750 
Q 2544 4750 2975 4387 
Q 3406 4025 3406 3419 
Q 3406 3131 3298 2873 
Q 3191 2616 2906 2266 
Q 2828 2175 2409 1742 
Q 1991 1309 1228 531 
z
" transform="scale(0.015625)"/>
       </defs>
       <use xlink:href="#DejaVuSans-32"/>
       <use xlink:href="#DejaVuSans-30" x="63.623047"/>
      </g>
     </g>
    </g>
    <g id="text_7">
     <!-- True Values [activity] -->
     <g transform="translate(190.28 346.07375)scale(0.18 -0.18)">
      <defs>
       <path id="Montserrat-Medium-54" d="M 1562 3923 
L 26 3923 
L 26 4480 
L 3731 4480 
L 3731 3923 
L 2195 3923 
L 2195 0 
L 1562 0 
L 1562 3923 
z
" transform="scale(0.015625)"/>
       <path id="Montserrat-Medium-72" d="M 1171 2822 
Q 1331 3117 1644 3270 
Q 1958 3424 2406 3424 
L 2406 2829 
Q 2355 2835 2266 2835 
Q 1766 2835 1481 2537 
Q 1197 2240 1197 1690 
L 1197 0 
L 582 0 
L 582 3392 
L 1171 3392 
L 1171 2822 
z
" transform="scale(0.015625)"/>
       <path id="Montserrat-Medium-75" d="M 3744 3392 
L 3744 0 
L 3162 0 
L 3162 512 
Q 2976 250 2672 106 
Q 2368 -38 2010 -38 
Q 1331 -38 940 336 
Q 550 710 550 1440 
L 550 3392 
L 1165 3392 
L 1165 1510 
Q 1165 1018 1401 765 
Q 1638 512 2080 512 
Q 2566 512 2848 806 
Q 3130 1101 3130 1638 
L 3130 3392 
L 3744 3392 
z
" transform="scale(0.015625)"/>
       <path id="Montserrat-Medium-65" d="M 3648 1677 
Q 3648 1606 3635 1491 
L 883 1491 
Q 941 1043 1277 771 
Q 1613 499 2112 499 
Q 2720 499 3091 909 
L 3430 512 
Q 3200 243 2857 102 
Q 2515 -38 2093 -38 
Q 1555 -38 1139 182 
Q 723 403 496 800 
Q 269 1197 269 1696 
Q 269 2189 489 2585 
Q 710 2982 1097 3203 
Q 1485 3424 1971 3424 
Q 2458 3424 2838 3203 
Q 3219 2982 3433 2585 
Q 3648 2189 3648 1677 
z
M 1971 2906 
Q 1530 2906 1232 2637 
Q 934 2368 883 1933 
L 3059 1933 
Q 3008 2362 2710 2634 
Q 2413 2906 1971 2906 
z
" transform="scale(0.015625)"/>
       <path id="Montserrat-Medium-20" transform="scale(0.015625)"/>
       <path id="Montserrat-Medium-56" d="M 4563 4480 
L 2598 0 
L 1965 0 
L -6 4480 
L 685 4480 
L 2298 800 
L 3923 4480 
L 4563 4480 
z
" transform="scale(0.015625)"/>
       <path id="Montserrat-Medium-61" d="M 1818 3424 
Q 2522 3424 2896 3078 
Q 3270 2733 3270 2048 
L 3270 0 
L 2688 0 
L 2688 448 
Q 2534 211 2249 86 
Q 1965 -38 1574 -38 
Q 1005 -38 662 237 
Q 320 512 320 960 
Q 320 1408 646 1680 
Q 973 1952 1683 1952 
L 2656 1952 
L 2656 2074 
Q 2656 2470 2425 2681 
Q 2195 2893 1747 2893 
Q 1446 2893 1158 2793 
Q 870 2694 672 2528 
L 416 2989 
Q 678 3200 1043 3312 
Q 1408 3424 1818 3424 
z
M 1677 435 
Q 2029 435 2285 592 
Q 2541 749 2656 1037 
L 2656 1510 
L 1709 1510 
Q 928 1510 928 986 
Q 928 730 1126 582 
Q 1325 435 1677 435 
z
" transform="scale(0.015625)"/>
       <path id="Montserrat-Medium-6c" d="M 582 4749 
L 1197 4749 
L 1197 0 
L 582 0 
L 582 4749 
z
" transform="scale(0.015625)"/>
       <path id="Montserrat-Medium-73" d="M 1555 -38 
Q 1139 -38 755 74 
Q 371 186 154 358 
L 410 845 
Q 634 685 954 589 
Q 1274 493 1600 493 
Q 2406 493 2406 954 
Q 2406 1107 2297 1196 
Q 2189 1286 2025 1328 
Q 1862 1370 1562 1421 
Q 1152 1485 893 1568 
Q 634 1651 448 1849 
Q 262 2048 262 2406 
Q 262 2867 646 3145 
Q 1030 3424 1677 3424 
Q 2016 3424 2355 3341 
Q 2694 3258 2912 3117 
L 2650 2630 
Q 2234 2899 1670 2899 
Q 1280 2899 1075 2771 
Q 870 2643 870 2432 
Q 870 2266 985 2170 
Q 1101 2074 1270 2029 
Q 1440 1984 1747 1926 
Q 2157 1856 2409 1776 
Q 2662 1696 2841 1504 
Q 3021 1312 3021 966 
Q 3021 506 2627 234 
Q 2234 -38 1555 -38 
z
" transform="scale(0.015625)"/>
       <path id="Montserrat-Medium-5b" d="M 672 4749 
L 2010 4749 
L 2010 4243 
L 1286 4243 
L 1286 -736 
L 2010 -736 
L 2010 -1242 
L 672 -1242 
L 672 4749 
z
" transform="scale(0.015625)"/>
       <path id="Montserrat-Medium-63" d="M 2061 -38 
Q 1542 -38 1136 186 
Q 730 410 499 803 
Q 269 1197 269 1696 
Q 269 2195 499 2588 
Q 730 2982 1136 3203 
Q 1542 3424 2061 3424 
Q 2522 3424 2883 3238 
Q 3245 3053 3443 2701 
L 2976 2400 
Q 2816 2643 2579 2764 
Q 2342 2886 2054 2886 
Q 1722 2886 1456 2739 
Q 1190 2592 1040 2320 
Q 890 2048 890 1696 
Q 890 1338 1040 1066 
Q 1190 794 1456 646 
Q 1722 499 2054 499 
Q 2342 499 2579 620 
Q 2816 742 2976 986 
L 3443 691 
Q 3245 339 2883 150 
Q 2522 -38 2061 -38 
z
" transform="scale(0.015625)"/>
       <path id="Montserrat-Medium-74" d="M 2490 198 
Q 2355 83 2156 22 
Q 1958 -38 1747 -38 
Q 1235 -38 953 237 
Q 672 512 672 1024 
L 672 2886 
L 96 2886 
L 96 3392 
L 672 3392 
L 672 4134 
L 1286 4134 
L 1286 3392 
L 2259 3392 
L 2259 2886 
L 1286 2886 
L 1286 1050 
Q 1286 774 1424 627 
Q 1562 480 1818 480 
Q 2099 480 2298 640 
L 2490 198 
z
" transform="scale(0.015625)"/>
       <path id="Montserrat-Medium-69" d="M 582 3392 
L 1197 3392 
L 1197 0 
L 582 0 
L 582 3392 
z
M 890 4045 
Q 710 4045 592 4160 
Q 474 4275 474 4442 
Q 474 4608 592 4726 
Q 710 4845 890 4845 
Q 1069 4845 1187 4733 
Q 1306 4621 1306 4454 
Q 1306 4282 1187 4163 
Q 1069 4045 890 4045 
z
" transform="scale(0.015625)"/>
       <path id="Montserrat-Medium-76" d="M 3584 3392 
L 2099 0 
L 1472 0 
L -13 3392 
L 627 3392 
L 1792 672 
L 2982 3392 
L 3584 3392 
z
" transform="scale(0.015625)"/>
       <path id="Montserrat-Medium-79" d="M 3584 3392 
L 1939 -339 
Q 1722 -858 1430 -1069 
Q 1139 -1280 730 -1280 
Q 480 -1280 246 -1200 
Q 13 -1120 -141 -966 
L 122 -506 
Q 384 -755 730 -755 
Q 954 -755 1104 -636 
Q 1254 -518 1376 -230 
L 1485 6 
L -13 3392 
L 627 3392 
L 1811 678 
L 2982 3392 
L 3584 3392 
z
" transform="scale(0.015625)"/>
       <path id="Montserrat-Medium-5d" d="M 122 -1242 
L 122 -736 
L 845 -736 
L 845 4243 
L 122 4243 
L 122 4749 
L 1459 4749 
L 1459 -1242 
L 122 -1242 
z
" transform="scale(0.015625)"/>
      </defs>
      <use xlink:href="#Montserrat-Medium-54"/>
      <use xlink:href="#Montserrat-Medium-72" x="58.699997"/>
      <use xlink:href="#Montserrat-Medium-75" x="99.699982"/>
      <use xlink:href="#Montserrat-Medium-65" x="167.399963"/>
      <use xlink:href="#Montserrat-Medium-20" x="228.59996"/>
      <use xlink:href="#Montserrat-Medium-56" x="255.499954"/>
      <use xlink:href="#Montserrat-Medium-61" x="326.699936"/>
      <use xlink:href="#Montserrat-Medium-6c" x="386.499924"/>
      <use xlink:href="#Montserrat-Medium-75" x="414.399918"/>
      <use xlink:href="#Montserrat-Medium-65" x="482.099899"/>
      <use xlink:href="#Montserrat-Medium-73" x="543.299896"/>
      <use xlink:href="#Montserrat-Medium-20" x="593.399887"/>
      <use xlink:href="#Montserrat-Medium-5b" x="620.299881"/>
      <use xlink:href="#Montserrat-Medium-61" x="653.599869"/>
      <use xlink:href="#Montserrat-Medium-63" x="713.399857"/>
      <use xlink:href="#Montserrat-Medium-74" x="770.499847"/>
      <use xlink:href="#Montserrat-Medium-69" x="811.899841"/>
      <use xlink:href="#Montserrat-Medium-76" x="839.799835"/>
      <use xlink:href="#Montserrat-Medium-69" x="895.699829"/>
      <use xlink:href="#Montserrat-Medium-74" x="923.599823"/>
      <use xlink:href="#Montserrat-Medium-79" x="964.999817"/>
      <use xlink:href="#Montserrat-Medium-5d" x="1020.899811"/>
     </g>
    </g>
   </g>
   <g id="matplotlib.axis_2">
    <g id="ytick_1">
     <g id="line2d_7">
      <defs>
       <path id="m4524ed682a" d="M 0 0 
L -3.5 0 
" style="stroke: #000000; stroke-width: 0.8"/>
      </defs>
      <g>
       <use xlink:href="#m4524ed682a" x="61.9625" y="304.026562" style="stroke: #000000; stroke-width: 0.8"/>
      </g>
     </g>
     <g id="text_8">
      <!-- −5 -->
      <g transform="translate(28.426563 310.865156)scale(0.18 -0.18)">
       <use xlink:href="#DejaVuSans-2212"/>
       <use xlink:href="#DejaVuSans-35" x="83.789062"/>
      </g>
     </g>
    </g>
    <g id="ytick_2">
     <g id="line2d_8">
      <g>
       <use xlink:href="#m4524ed682a" x="61.9625" y="248.586562" style="stroke: #000000; stroke-width: 0.8"/>
      </g>
     </g>
     <g id="text_9">
      <!-- 0 -->
      <g transform="translate(43.51 255.425156)scale(0.18 -0.18)">
       <use xlink:href="#DejaVuSans-30"/>
      </g>
     </g>
    </g>
    <g id="ytick_3">
     <g id="line2d_9">
      <g>
       <use xlink:href="#m4524ed682a" x="61.9625" y="193.146562" style="stroke: #000000; stroke-width: 0.8"/>
      </g>
     </g>
     <g id="text_10">
      <!-- 5 -->
      <g transform="translate(43.51 199.985156)scale(0.18 -0.18)">
       <use xlink:href="#DejaVuSans-35"/>
      </g>
     </g>
    </g>
    <g id="ytick_4">
     <g id="line2d_10">
      <g>
       <use xlink:href="#m4524ed682a" x="61.9625" y="137.706562" style="stroke: #000000; stroke-width: 0.8"/>
      </g>
     </g>
     <g id="text_11">
      <!-- 10 -->
      <g transform="translate(32.0575 144.545156)scale(0.18 -0.18)">
       <use xlink:href="#DejaVuSans-31"/>
       <use xlink:href="#DejaVuSans-30" x="63.623047"/>
      </g>
     </g>
    </g>
    <g id="ytick_5">
     <g id="line2d_11">
      <g>
       <use xlink:href="#m4524ed682a" x="61.9625" y="82.266562" style="stroke: #000000; stroke-width: 0.8"/>
      </g>
     </g>
     <g id="text_12">
      <!-- 15 -->
      <g transform="translate(32.0575 89.105156)scale(0.18 -0.18)">
       <use xlink:href="#DejaVuSans-31"/>
       <use xlink:href="#DejaVuSans-35" x="63.623047"/>
      </g>
     </g>
    </g>
    <g id="ytick_6">
     <g id="line2d_12">
      <g>
       <use xlink:href="#m4524ed682a" x="61.9625" y="26.826562" style="stroke: #000000; stroke-width: 0.8"/>
      </g>
     </g>
     <g id="text_13">
      <!-- 20 -->
      <g transform="translate(32.0575 33.665156)scale(0.18 -0.18)">
       <use xlink:href="#DejaVuSans-32"/>
       <use xlink:href="#DejaVuSans-30" x="63.623047"/>
      </g>
     </g>
    </g>
    <g id="text_14">
     <!-- Predictions [activity] -->
     <g transform="translate(20.826563 258.975937)rotate(-90)scale(0.18 -0.18)">
      <defs>
       <path id="Montserrat-Medium-50" d="M 2419 4480 
Q 3290 4480 3789 4064 
Q 4288 3648 4288 2918 
Q 4288 2189 3789 1773 
Q 3290 1357 2419 1357 
L 1312 1357 
L 1312 0 
L 672 0 
L 672 4480 
L 2419 4480 
z
M 2400 1914 
Q 3008 1914 3328 2173 
Q 3648 2432 3648 2918 
Q 3648 3405 3328 3664 
Q 3008 3923 2400 3923 
L 1312 3923 
L 1312 1914 
L 2400 1914 
z
" transform="scale(0.015625)"/>
       <path id="Montserrat-Medium-64" d="M 3782 4749 
L 3782 0 
L 3194 0 
L 3194 538 
Q 2989 256 2675 109 
Q 2362 -38 1984 -38 
Q 1491 -38 1100 179 
Q 710 397 489 790 
Q 269 1184 269 1696 
Q 269 2208 489 2598 
Q 710 2989 1100 3206 
Q 1491 3424 1984 3424 
Q 2349 3424 2656 3286 
Q 2963 3149 3168 2880 
L 3168 4749 
L 3782 4749 
z
M 2035 499 
Q 2355 499 2617 649 
Q 2880 800 3027 1072 
Q 3174 1344 3174 1696 
Q 3174 2048 3027 2320 
Q 2880 2592 2617 2739 
Q 2355 2886 2035 2886 
Q 1709 2886 1449 2739 
Q 1190 2592 1040 2320 
Q 890 2048 890 1696 
Q 890 1344 1040 1072 
Q 1190 800 1449 649 
Q 1709 499 2035 499 
z
" transform="scale(0.015625)"/>
       <path id="Montserrat-Medium-6f" d="M 2035 -38 
Q 1530 -38 1126 186 
Q 723 410 496 803 
Q 269 1197 269 1696 
Q 269 2195 496 2588 
Q 723 2982 1126 3203 
Q 1530 3424 2035 3424 
Q 2541 3424 2941 3203 
Q 3341 2982 3568 2588 
Q 3795 2195 3795 1696 
Q 3795 1197 3568 803 
Q 3341 410 2941 186 
Q 2541 -38 2035 -38 
z
M 2035 499 
Q 2362 499 2621 649 
Q 2880 800 3027 1072 
Q 3174 1344 3174 1696 
Q 3174 2048 3027 2320 
Q 2880 2592 2621 2739 
Q 2362 2886 2035 2886 
Q 1709 2886 1449 2739 
Q 1190 2592 1040 2320 
Q 890 2048 890 1696 
Q 890 1344 1040 1072 
Q 1190 800 1449 649 
Q 1709 499 2035 499 
z
" transform="scale(0.015625)"/>
       <path id="Montserrat-Medium-6e" d="M 2394 3424 
Q 3040 3424 3421 3049 
Q 3802 2675 3802 1952 
L 3802 0 
L 3187 0 
L 3187 1882 
Q 3187 2374 2950 2624 
Q 2714 2874 2272 2874 
Q 1773 2874 1485 2582 
Q 1197 2291 1197 1747 
L 1197 0 
L 582 0 
L 582 3392 
L 1171 3392 
L 1171 2880 
Q 1357 3142 1673 3283 
Q 1990 3424 2394 3424 
z
" transform="scale(0.015625)"/>
      </defs>
      <use xlink:href="#Montserrat-Medium-50"/>
      <use xlink:href="#Montserrat-Medium-72" x="72.199982"/>
      <use xlink:href="#Montserrat-Medium-65" x="113.199966"/>
      <use xlink:href="#Montserrat-Medium-64" x="174.399963"/>
      <use xlink:href="#Montserrat-Medium-69" x="242.599945"/>
      <use xlink:href="#Montserrat-Medium-63" x="270.499939"/>
      <use xlink:href="#Montserrat-Medium-74" x="327.59993"/>
      <use xlink:href="#Montserrat-Medium-69" x="368.999924"/>
      <use xlink:href="#Montserrat-Medium-6f" x="396.899918"/>
      <use xlink:href="#Montserrat-Medium-6e" x="460.399902"/>
      <use xlink:href="#Montserrat-Medium-73" x="528.499893"/>
      <use xlink:href="#Montserrat-Medium-20" x="578.599884"/>
      <use xlink:href="#Montserrat-Medium-5b" x="605.499878"/>
      <use xlink:href="#Montserrat-Medium-61" x="638.799866"/>
      <use xlink:href="#Montserrat-Medium-63" x="698.599854"/>
      <use xlink:href="#Montserrat-Medium-74" x="755.699844"/>
      <use xlink:href="#Montserrat-Medium-69" x="797.099838"/>
      <use xlink:href="#Montserrat-Medium-76" x="824.999832"/>
      <use xlink:href="#Montserrat-Medium-69" x="880.899826"/>
      <use xlink:href="#Montserrat-Medium-74" x="908.79982"/>
      <use xlink:href="#Montserrat-Medium-79" x="950.199814"/>
      <use xlink:href="#Montserrat-Medium-5d" x="1006.099808"/>
     </g>
    </g>
   </g>
   <g id="line2d_13">
    <path d="M 61.9625 304.026562 
L 508.3625 26.826562 
" clip-path="url(#p6afe228f76)" style="fill: none; stroke-dasharray: 7.4,3.2; stroke-dashoffset: 0; stroke: #000000; stroke-width: 2"/>
   </g>
   <g id="patch_3">
    <path d="M 61.9625 304.026562 
L 61.9625 26.826562 
" style="fill: none; stroke: #000000; stroke-width: 0.8; stroke-linejoin: miter; stroke-linecap: square"/>
   </g>
   <g id="patch_4">
    <path d="M 508.3625 304.026562 
L 508.3625 26.826562 
" style="fill: none; stroke: #000000; stroke-width: 0.8; stroke-linejoin: miter; stroke-linecap: square"/>
   </g>
   <g id="patch_5">
    <path d="M 61.9625 304.026562 
L 508.3625 304.026562 
" style="fill: none; stroke: #000000; stroke-width: 0.8; stroke-linejoin: miter; stroke-linecap: square"/>
   </g>
   <g id="patch_6">
    <path d="M 61.9625 26.826562 
L 508.3625 26.826562 
" style="fill: none; stroke: #000000; stroke-width: 0.8; stroke-linejoin: miter; stroke-linecap: square"/>
   </g>
   <g id="text_15">
    <!-- Linear Regression with One Neuron -->
    <g transform="translate(121.979844 20.826562)scale(0.18 -0.18)">
     <defs>
      <path id="Montserrat-Medium-4c" d="M 672 4480 
L 1312 4480 
L 1312 557 
L 3738 557 
L 3738 0 
L 672 0 
L 672 4480 
z
" transform="scale(0.015625)"/>
      <path id="Montserrat-Medium-52" d="M 3667 0 
L 2701 1376 
Q 2522 1363 2419 1363 
L 1312 1363 
L 1312 0 
L 672 0 
L 672 4480 
L 2419 4480 
Q 3290 4480 3789 4064 
Q 4288 3648 4288 2918 
Q 4288 2400 4032 2035 
Q 3776 1670 3302 1504 
L 4365 0 
L 3667 0 
z
M 2400 1907 
Q 3008 1907 3328 2169 
Q 3648 2432 3648 2918 
Q 3648 3405 3328 3664 
Q 3008 3923 2400 3923 
L 1312 3923 
L 1312 1907 
L 2400 1907 
z
" transform="scale(0.015625)"/>
      <path id="Montserrat-Medium-67" d="M 3827 3392 
L 3827 461 
Q 3827 -429 3385 -854 
Q 2944 -1280 2067 -1280 
Q 1587 -1280 1152 -1149 
Q 717 -1018 448 -774 
L 742 -301 
Q 979 -506 1328 -624 
Q 1677 -742 2048 -742 
Q 2643 -742 2928 -460 
Q 3213 -179 3213 397 
L 3213 666 
Q 2995 403 2678 272 
Q 2362 141 1990 141 
Q 1504 141 1110 349 
Q 717 557 493 931 
Q 269 1306 269 1786 
Q 269 2266 493 2640 
Q 717 3014 1110 3219 
Q 1504 3424 1990 3424 
Q 2374 3424 2704 3283 
Q 3034 3142 3245 2867 
L 3245 3392 
L 3827 3392 
z
M 2061 678 
Q 2394 678 2659 819 
Q 2925 960 3075 1213 
Q 3226 1466 3226 1786 
Q 3226 2278 2899 2582 
Q 2573 2886 2061 2886 
Q 1542 2886 1216 2582 
Q 890 2278 890 1786 
Q 890 1466 1040 1213 
Q 1190 960 1456 819 
Q 1722 678 2061 678 
z
" transform="scale(0.015625)"/>
      <path id="Montserrat-Medium-77" d="M 5715 3392 
L 4448 0 
L 3859 0 
L 2880 2573 
L 1888 0 
L 1299 0 
L 38 3392 
L 621 3392 
L 1606 691 
L 2630 3392 
L 3149 3392 
L 4154 678 
L 5165 3392 
L 5715 3392 
z
" transform="scale(0.015625)"/>
      <path id="Montserrat-Medium-68" d="M 2394 3424 
Q 3040 3424 3421 3049 
Q 3802 2675 3802 1952 
L 3802 0 
L 3187 0 
L 3187 1882 
Q 3187 2374 2950 2624 
Q 2714 2874 2272 2874 
Q 1773 2874 1485 2582 
Q 1197 2291 1197 1747 
L 1197 0 
L 582 0 
L 582 4749 
L 1197 4749 
L 1197 2912 
Q 1389 3155 1699 3289 
Q 2010 3424 2394 3424 
z
" transform="scale(0.015625)"/>
      <path id="Montserrat-Medium-4f" d="M 2694 -51 
Q 2016 -51 1472 246 
Q 928 544 617 1069 
Q 307 1594 307 2240 
Q 307 2886 617 3411 
Q 928 3936 1472 4233 
Q 2016 4531 2694 4531 
Q 3366 4531 3910 4233 
Q 4454 3936 4761 3414 
Q 5069 2893 5069 2240 
Q 5069 1587 4761 1065 
Q 4454 544 3910 246 
Q 3366 -51 2694 -51 
z
M 2694 518 
Q 3187 518 3580 742 
Q 3974 966 4201 1360 
Q 4429 1754 4429 2240 
Q 4429 2726 4201 3120 
Q 3974 3514 3580 3738 
Q 3187 3962 2694 3962 
Q 2202 3962 1802 3738 
Q 1402 3514 1174 3120 
Q 947 2726 947 2240 
Q 947 1754 1174 1360 
Q 1402 966 1802 742 
Q 2202 518 2694 518 
z
" transform="scale(0.015625)"/>
      <path id="Montserrat-Medium-4e" d="M 4525 4480 
L 4525 0 
L 4000 0 
L 1312 3341 
L 1312 0 
L 672 0 
L 672 4480 
L 1197 4480 
L 3885 1139 
L 3885 4480 
L 4525 4480 
z
" transform="scale(0.015625)"/>
     </defs>
     <use xlink:href="#Montserrat-Medium-4c"/>
     <use xlink:href="#Montserrat-Medium-69" x="59.399994"/>
     <use xlink:href="#Montserrat-Medium-6e" x="87.299988"/>
     <use xlink:href="#Montserrat-Medium-65" x="155.399979"/>
     <use xlink:href="#Montserrat-Medium-61" x="216.599976"/>
     <use xlink:href="#Montserrat-Medium-72" x="276.399963"/>
     <use xlink:href="#Montserrat-Medium-20" x="317.399948"/>
     <use xlink:href="#Montserrat-Medium-52" x="344.299942"/>
     <use xlink:href="#Montserrat-Medium-65" x="416.999924"/>
     <use xlink:href="#Montserrat-Medium-67" x="478.199921"/>
     <use xlink:href="#Montserrat-Medium-72" x="547.199905"/>
     <use xlink:href="#Montserrat-Medium-65" x="588.19989"/>
     <use xlink:href="#Montserrat-Medium-73" x="649.399887"/>
     <use xlink:href="#Montserrat-Medium-73" x="699.499878"/>
     <use xlink:href="#Montserrat-Medium-69" x="749.599869"/>
     <use xlink:href="#Montserrat-Medium-6f" x="777.499863"/>
     <use xlink:href="#Montserrat-Medium-6e" x="840.999847"/>
     <use xlink:href="#Montserrat-Medium-20" x="909.099838"/>
     <use xlink:href="#Montserrat-Medium-77" x="935.999832"/>
     <use xlink:href="#Montserrat-Medium-69" x="1025.899826"/>
     <use xlink:href="#Montserrat-Medium-74" x="1053.79982"/>
     <use xlink:href="#Montserrat-Medium-68" x="1095.199814"/>
     <use xlink:href="#Montserrat-Medium-20" x="1163.299805"/>
     <use xlink:href="#Montserrat-Medium-4f" x="1190.199799"/>
     <use xlink:href="#Montserrat-Medium-6e" x="1274.199783"/>
     <use xlink:href="#Montserrat-Medium-65" x="1342.299774"/>
     <use xlink:href="#Montserrat-Medium-20" x="1403.499771"/>
     <use xlink:href="#Montserrat-Medium-4e" x="1430.399765"/>
     <use xlink:href="#Montserrat-Medium-65" x="1511.599747"/>
     <use xlink:href="#Montserrat-Medium-75" x="1572.799744"/>
     <use xlink:href="#Montserrat-Medium-72" x="1640.499725"/>
     <use xlink:href="#Montserrat-Medium-6f" x="1681.49971"/>
     <use xlink:href="#Montserrat-Medium-6e" x="1744.999695"/>
    </g>
   </g>
  </g>
 </g>
 <defs>
  <clipPath id="p6afe228f76">
   <rect x="61.9625" y="26.826562" width="446.4" height="277.2"/>
  </clipPath>
 </defs>
</svg>
