<?xml version="1.0" encoding="utf-8" standalone="no"?>
<!DOCTYPE svg PUBLIC "-//W3C//DTD SVG 1.1//EN"
  "http://www.w3.org/Graphics/SVG/1.1/DTD/svg11.dtd">
<svg xmlns:xlink="http://www.w3.org/1999/xlink" width="540.790625pt" height="343.708906pt" viewBox="0 0 540.790625 343.708906" xmlns="http://www.w3.org/2000/svg" version="1.1">
 <metadata>
  <rdf:RDF xmlns:dc="http://purl.org/dc/elements/1.1/" xmlns:cc="http://creativecommons.org/ns#" xmlns:rdf="http://www.w3.org/1999/02/22-rdf-syntax-ns#">
   <cc:Work>
    <dc:type rdf:resource="http://purl.org/dc/dcmitype/StillImage"/>
    <dc:date>2022-11-27T17:57:04.232419</dc:date>
    <dc:format>image/svg+xml</dc:format>
    <dc:creator>
     <cc:Agent>
      <dc:title>Matplotlib v3.5.2, https://matplotlib.org/</dc:title>
     </cc:Agent>
    </dc:creator>
   </cc:Work>
  </rdf:RDF>
 </metadata>
 <defs>
  <style type="text/css">*{stroke-linejoin: round; stroke-linecap: butt}</style>
 </defs>
 <g id="figure_1">
  <g id="patch_1">
   <path d="M 0 343.708906 
L 540.790625 343.708906 
L 540.790625 0 
L 0 0 
z
" style="fill: #ffffff"/>
  </g>
  <g id="axes_1">
   <g id="patch_2">
    <path d="M 64.285625 291.238594 
L 510.685625 291.238594 
L 510.685625 14.038594 
L 64.285625 14.038594 
z
" style="fill: #f1f7f0"/>
   </g>
   <g id="matplotlib.axis_1">
    <g id="xtick_1">
     <g id="line2d_1">
      <defs>
       <path id="m09584539df" d="M 0 0 
L 0 3.5 
" style="stroke: #000000; stroke-width: 0.8"/>
      </defs>
      <g>
       <use xlink:href="#m09584539df" x="64.285625" y="291.238594" style="stroke: #000000; stroke-width: 0.8"/>
      </g>
     </g>
     <g id="text_1">
      <!-- 0 -->
      <g transform="translate(58.559375 311.915781)scale(0.18 -0.18)">
       <defs>
        <path id="DejaVuSans-30" d="M 2034 4250 
Q 1547 4250 1301 3770 
Q 1056 3291 1056 2328 
Q 1056 1369 1301 889 
Q 1547 409 2034 409 
Q 2525 409 2770 889 
Q 3016 1369 3016 2328 
Q 3016 3291 2770 3770 
Q 2525 4250 2034 4250 
z
M 2034 4750 
Q 2819 4750 3233 4129 
Q 3647 3509 3647 2328 
Q 3647 1150 3233 529 
Q 2819 -91 2034 -91 
Q 1250 -91 836 529 
Q 422 1150 422 2328 
Q 422 3509 836 4129 
Q 1250 4750 2034 4750 
z
" transform="scale(0.015625)"/>
       </defs>
       <use xlink:href="#DejaVuSans-30"/>
      </g>
     </g>
    </g>
    <g id="xtick_2">
     <g id="line2d_2">
      <g>
       <use xlink:href="#m09584539df" x="153.565625" y="291.238594" style="stroke: #000000; stroke-width: 0.8"/>
      </g>
     </g>
     <g id="text_2">
      <!-- 200 -->
      <g transform="translate(136.386875 311.915781)scale(0.18 -0.18)">
       <defs>
        <path id="DejaVuSans-32" d="M 1228 531 
L 3431 531 
L 3431 0 
L 469 0 
L 469 531 
Q 828 903 1448 1529 
Q 2069 2156 2228 2338 
Q 2531 2678 2651 2914 
Q 2772 3150 2772 3378 
Q 2772 3750 2511 3984 
Q 2250 4219 1831 4219 
Q 1534 4219 1204 4116 
Q 875 4013 500 3803 
L 500 4441 
Q 881 4594 1212 4672 
Q 1544 4750 1819 4750 
Q 2544 4750 2975 4387 
Q 3406 4025 3406 3419 
Q 3406 3131 3298 2873 
Q 3191 2616 2906 2266 
Q 2828 2175 2409 1742 
Q 1991 1309 1228 531 
z
" transform="scale(0.015625)"/>
       </defs>
       <use xlink:href="#DejaVuSans-32"/>
       <use xlink:href="#DejaVuSans-30" x="63.623047"/>
       <use xlink:href="#DejaVuSans-30" x="127.246094"/>
      </g>
     </g>
    </g>
    <g id="xtick_3">
     <g id="line2d_3">
      <g>
       <use xlink:href="#m09584539df" x="242.845625" y="291.238594" style="stroke: #000000; stroke-width: 0.8"/>
      </g>
     </g>
     <g id="text_3">
      <!-- 400 -->
      <g transform="translate(225.666875 311.915781)scale(0.18 -0.18)">
       <defs>
        <path id="DejaVuSans-34" d="M 2419 4116 
L 825 1625 
L 2419 1625 
L 2419 4116 
z
M 2253 4666 
L 3047 4666 
L 3047 1625 
L 3713 1625 
L 3713 1100 
L 3047 1100 
L 3047 0 
L 2419 0 
L 2419 1100 
L 313 1100 
L 313 1709 
L 2253 4666 
z
" transform="scale(0.015625)"/>
       </defs>
       <use xlink:href="#DejaVuSans-34"/>
       <use xlink:href="#DejaVuSans-30" x="63.623047"/>
       <use xlink:href="#DejaVuSans-30" x="127.246094"/>
      </g>
     </g>
    </g>
    <g id="xtick_4">
     <g id="line2d_4">
      <g>
       <use xlink:href="#m09584539df" x="332.125625" y="291.238594" style="stroke: #000000; stroke-width: 0.8"/>
      </g>
     </g>
     <g id="text_4">
      <!-- 600 -->
      <g transform="translate(314.946875 311.915781)scale(0.18 -0.18)">
       <defs>
        <path id="DejaVuSans-36" d="M 2113 2584 
Q 1688 2584 1439 2293 
Q 1191 2003 1191 1497 
Q 1191 994 1439 701 
Q 1688 409 2113 409 
Q 2538 409 2786 701 
Q 3034 994 3034 1497 
Q 3034 2003 2786 2293 
Q 2538 2584 2113 2584 
z
M 3366 4563 
L 3366 3988 
Q 3128 4100 2886 4159 
Q 2644 4219 2406 4219 
Q 1781 4219 1451 3797 
Q 1122 3375 1075 2522 
Q 1259 2794 1537 2939 
Q 1816 3084 2150 3084 
Q 2853 3084 3261 2657 
Q 3669 2231 3669 1497 
Q 3669 778 3244 343 
Q 2819 -91 2113 -91 
Q 1303 -91 875 529 
Q 447 1150 447 2328 
Q 447 3434 972 4092 
Q 1497 4750 2381 4750 
Q 2619 4750 2861 4703 
Q 3103 4656 3366 4563 
z
" transform="scale(0.015625)"/>
       </defs>
       <use xlink:href="#DejaVuSans-36"/>
       <use xlink:href="#DejaVuSans-30" x="63.623047"/>
       <use xlink:href="#DejaVuSans-30" x="127.246094"/>
      </g>
     </g>
    </g>
    <g id="xtick_5">
     <g id="line2d_5">
      <g>
       <use xlink:href="#m09584539df" x="421.405625" y="291.238594" style="stroke: #000000; stroke-width: 0.8"/>
      </g>
     </g>
     <g id="text_5">
      <!-- 800 -->
      <g transform="translate(404.226875 311.915781)scale(0.18 -0.18)">
       <defs>
        <path id="DejaVuSans-38" d="M 2034 2216 
Q 1584 2216 1326 1975 
Q 1069 1734 1069 1313 
Q 1069 891 1326 650 
Q 1584 409 2034 409 
Q 2484 409 2743 651 
Q 3003 894 3003 1313 
Q 3003 1734 2745 1975 
Q 2488 2216 2034 2216 
z
M 1403 2484 
Q 997 2584 770 2862 
Q 544 3141 544 3541 
Q 544 4100 942 4425 
Q 1341 4750 2034 4750 
Q 2731 4750 3128 4425 
Q 3525 4100 3525 3541 
Q 3525 3141 3298 2862 
Q 3072 2584 2669 2484 
Q 3125 2378 3379 2068 
Q 3634 1759 3634 1313 
Q 3634 634 3220 271 
Q 2806 -91 2034 -91 
Q 1263 -91 848 271 
Q 434 634 434 1313 
Q 434 1759 690 2068 
Q 947 2378 1403 2484 
z
M 1172 3481 
Q 1172 3119 1398 2916 
Q 1625 2713 2034 2713 
Q 2441 2713 2670 2916 
Q 2900 3119 2900 3481 
Q 2900 3844 2670 4047 
Q 2441 4250 2034 4250 
Q 1625 4250 1398 4047 
Q 1172 3844 1172 3481 
z
" transform="scale(0.015625)"/>
       </defs>
       <use xlink:href="#DejaVuSans-38"/>
       <use xlink:href="#DejaVuSans-30" x="63.623047"/>
       <use xlink:href="#DejaVuSans-30" x="127.246094"/>
      </g>
     </g>
    </g>
    <g id="xtick_6">
     <g id="line2d_6">
      <g>
       <use xlink:href="#m09584539df" x="510.685625" y="291.238594" style="stroke: #000000; stroke-width: 0.8"/>
      </g>
     </g>
     <g id="text_6">
      <!-- 1000 -->
      <g transform="translate(487.780625 311.915781)scale(0.18 -0.18)">
       <defs>
        <path id="DejaVuSans-31" d="M 794 531 
L 1825 531 
L 1825 4091 
L 703 3866 
L 703 4441 
L 1819 4666 
L 2450 4666 
L 2450 531 
L 3481 531 
L 3481 0 
L 794 0 
L 794 531 
z
" transform="scale(0.015625)"/>
       </defs>
       <use xlink:href="#DejaVuSans-31"/>
       <use xlink:href="#DejaVuSans-30" x="63.623047"/>
       <use xlink:href="#DejaVuSans-30" x="127.246094"/>
       <use xlink:href="#DejaVuSans-30" x="190.869141"/>
      </g>
     </g>
    </g>
    <g id="text_7">
     <!-- Epochs -->
     <g transform="translate(253.827031 333.015781)scale(0.18 -0.18)">
      <defs>
       <path id="Montserrat-Medium-45" d="M 3923 557 
L 3923 0 
L 672 0 
L 672 4480 
L 3834 4480 
L 3834 3923 
L 1312 3923 
L 1312 2547 
L 3558 2547 
L 3558 2003 
L 1312 2003 
L 1312 557 
L 3923 557 
z
" transform="scale(0.015625)"/>
       <path id="Montserrat-Medium-70" d="M 2381 3424 
Q 2874 3424 3264 3206 
Q 3654 2989 3875 2598 
Q 4096 2208 4096 1696 
Q 4096 1184 3875 790 
Q 3654 397 3264 179 
Q 2874 -38 2381 -38 
Q 2016 -38 1712 102 
Q 1408 243 1197 512 
L 1197 -1242 
L 582 -1242 
L 582 3392 
L 1171 3392 
L 1171 2854 
Q 1376 3136 1689 3280 
Q 2003 3424 2381 3424 
z
M 2330 499 
Q 2656 499 2915 649 
Q 3174 800 3324 1072 
Q 3475 1344 3475 1696 
Q 3475 2048 3324 2320 
Q 3174 2592 2915 2739 
Q 2656 2886 2330 2886 
Q 2010 2886 1750 2736 
Q 1491 2586 1340 2317 
Q 1190 2048 1190 1696 
Q 1190 1344 1337 1072 
Q 1485 800 1747 649 
Q 2010 499 2330 499 
z
" transform="scale(0.015625)"/>
       <path id="Montserrat-Medium-6f" d="M 2035 -38 
Q 1530 -38 1126 186 
Q 723 410 496 803 
Q 269 1197 269 1696 
Q 269 2195 496 2588 
Q 723 2982 1126 3203 
Q 1530 3424 2035 3424 
Q 2541 3424 2941 3203 
Q 3341 2982 3568 2588 
Q 3795 2195 3795 1696 
Q 3795 1197 3568 803 
Q 3341 410 2941 186 
Q 2541 -38 2035 -38 
z
M 2035 499 
Q 2362 499 2621 649 
Q 2880 800 3027 1072 
Q 3174 1344 3174 1696 
Q 3174 2048 3027 2320 
Q 2880 2592 2621 2739 
Q 2362 2886 2035 2886 
Q 1709 2886 1449 2739 
Q 1190 2592 1040 2320 
Q 890 2048 890 1696 
Q 890 1344 1040 1072 
Q 1190 800 1449 649 
Q 1709 499 2035 499 
z
" transform="scale(0.015625)"/>
       <path id="Montserrat-Medium-63" d="M 2061 -38 
Q 1542 -38 1136 186 
Q 730 410 499 803 
Q 269 1197 269 1696 
Q 269 2195 499 2588 
Q 730 2982 1136 3203 
Q 1542 3424 2061 3424 
Q 2522 3424 2883 3238 
Q 3245 3053 3443 2701 
L 2976 2400 
Q 2816 2643 2579 2764 
Q 2342 2886 2054 2886 
Q 1722 2886 1456 2739 
Q 1190 2592 1040 2320 
Q 890 2048 890 1696 
Q 890 1338 1040 1066 
Q 1190 794 1456 646 
Q 1722 499 2054 499 
Q 2342 499 2579 620 
Q 2816 742 2976 986 
L 3443 691 
Q 3245 339 2883 150 
Q 2522 -38 2061 -38 
z
" transform="scale(0.015625)"/>
       <path id="Montserrat-Medium-68" d="M 2394 3424 
Q 3040 3424 3421 3049 
Q 3802 2675 3802 1952 
L 3802 0 
L 3187 0 
L 3187 1882 
Q 3187 2374 2950 2624 
Q 2714 2874 2272 2874 
Q 1773 2874 1485 2582 
Q 1197 2291 1197 1747 
L 1197 0 
L 582 0 
L 582 4749 
L 1197 4749 
L 1197 2912 
Q 1389 3155 1699 3289 
Q 2010 3424 2394 3424 
z
" transform="scale(0.015625)"/>
       <path id="Montserrat-Medium-73" d="M 1555 -38 
Q 1139 -38 755 74 
Q 371 186 154 358 
L 410 845 
Q 634 685 954 589 
Q 1274 493 1600 493 
Q 2406 493 2406 954 
Q 2406 1107 2297 1196 
Q 2189 1286 2025 1328 
Q 1862 1370 1562 1421 
Q 1152 1485 893 1568 
Q 634 1651 448 1849 
Q 262 2048 262 2406 
Q 262 2867 646 3145 
Q 1030 3424 1677 3424 
Q 2016 3424 2355 3341 
Q 2694 3258 2912 3117 
L 2650 2630 
Q 2234 2899 1670 2899 
Q 1280 2899 1075 2771 
Q 870 2643 870 2432 
Q 870 2266 985 2170 
Q 1101 2074 1270 2029 
Q 1440 1984 1747 1926 
Q 2157 1856 2409 1776 
Q 2662 1696 2841 1504 
Q 3021 1312 3021 966 
Q 3021 506 2627 234 
Q 2234 -38 1555 -38 
z
" transform="scale(0.015625)"/>
      </defs>
      <use xlink:href="#Montserrat-Medium-45"/>
      <use xlink:href="#Montserrat-Medium-70" x="66.999985"/>
      <use xlink:href="#Montserrat-Medium-6f" x="135.199966"/>
      <use xlink:href="#Montserrat-Medium-63" x="198.699951"/>
      <use xlink:href="#Montserrat-Medium-68" x="255.799942"/>
      <use xlink:href="#Montserrat-Medium-73" x="323.899933"/>
     </g>
    </g>
   </g>
   <g id="matplotlib.axis_2">
    <g id="ytick_1">
     <g id="line2d_7">
      <defs>
       <path id="m930bef82c2" d="M 0 0 
L -3.5 0 
" style="stroke: #000000; stroke-width: 0.8"/>
      </defs>
      <g>
       <use xlink:href="#m930bef82c2" x="64.285625" y="291.238594" style="stroke: #000000; stroke-width: 0.8"/>
      </g>
     </g>
     <g id="text_8">
      <!-- 0.0 -->
      <g transform="translate(28.66 298.077188)scale(0.18 -0.18)">
       <defs>
        <path id="DejaVuSans-2e" d="M 684 794 
L 1344 794 
L 1344 0 
L 684 0 
L 684 794 
z
" transform="scale(0.015625)"/>
       </defs>
       <use xlink:href="#DejaVuSans-30"/>
       <use xlink:href="#DejaVuSans-2e" x="63.623047"/>
       <use xlink:href="#DejaVuSans-30" x="95.410156"/>
      </g>
     </g>
    </g>
    <g id="ytick_2">
     <g id="line2d_8">
      <g>
       <use xlink:href="#m930bef82c2" x="64.285625" y="221.938594" style="stroke: #000000; stroke-width: 0.8"/>
      </g>
     </g>
     <g id="text_9">
      <!-- 0.5 -->
      <g transform="translate(28.66 228.777188)scale(0.18 -0.18)">
       <defs>
        <path id="DejaVuSans-35" d="M 691 4666 
L 3169 4666 
L 3169 4134 
L 1269 4134 
L 1269 2991 
Q 1406 3038 1543 3061 
Q 1681 3084 1819 3084 
Q 2600 3084 3056 2656 
Q 3513 2228 3513 1497 
Q 3513 744 3044 326 
Q 2575 -91 1722 -91 
Q 1428 -91 1123 -41 
Q 819 9 494 109 
L 494 744 
Q 775 591 1075 516 
Q 1375 441 1709 441 
Q 2250 441 2565 725 
Q 2881 1009 2881 1497 
Q 2881 1984 2565 2268 
Q 2250 2553 1709 2553 
Q 1456 2553 1204 2497 
Q 953 2441 691 2322 
L 691 4666 
z
" transform="scale(0.015625)"/>
       </defs>
       <use xlink:href="#DejaVuSans-30"/>
       <use xlink:href="#DejaVuSans-2e" x="63.623047"/>
       <use xlink:href="#DejaVuSans-35" x="95.410156"/>
      </g>
     </g>
    </g>
    <g id="ytick_3">
     <g id="line2d_9">
      <g>
       <use xlink:href="#m930bef82c2" x="64.285625" y="152.638594" style="stroke: #000000; stroke-width: 0.8"/>
      </g>
     </g>
     <g id="text_10">
      <!-- 1.0 -->
      <g transform="translate(28.66 159.477188)scale(0.18 -0.18)">
       <use xlink:href="#DejaVuSans-31"/>
       <use xlink:href="#DejaVuSans-2e" x="63.623047"/>
       <use xlink:href="#DejaVuSans-30" x="95.410156"/>
      </g>
     </g>
    </g>
    <g id="ytick_4">
     <g id="line2d_10">
      <g>
       <use xlink:href="#m930bef82c2" x="64.285625" y="83.338594" style="stroke: #000000; stroke-width: 0.8"/>
      </g>
     </g>
     <g id="text_11">
      <!-- 1.5 -->
      <g transform="translate(28.66 90.177188)scale(0.18 -0.18)">
       <use xlink:href="#DejaVuSans-31"/>
       <use xlink:href="#DejaVuSans-2e" x="63.623047"/>
       <use xlink:href="#DejaVuSans-35" x="95.410156"/>
      </g>
     </g>
    </g>
    <g id="ytick_5">
     <g id="line2d_11">
      <g>
       <use xlink:href="#m930bef82c2" x="64.285625" y="14.038594" style="stroke: #000000; stroke-width: 0.8"/>
      </g>
     </g>
     <g id="text_12">
      <!-- 2.0 -->
      <g transform="translate(28.66 20.877187)scale(0.18 -0.18)">
       <use xlink:href="#DejaVuSans-32"/>
       <use xlink:href="#DejaVuSans-2e" x="63.623047"/>
       <use xlink:href="#DejaVuSans-30" x="95.410156"/>
      </g>
     </g>
    </g>
    <g id="text_13">
     <!-- Cost function $J$ -->
     <g transform="translate(20.88 219.238594)rotate(-90)scale(0.18 -0.18)">
      <defs>
       <path id="Montserrat-Medium-43" d="M 2675 -51 
Q 2003 -51 1462 246 
Q 922 544 614 1065 
Q 307 1587 307 2240 
Q 307 2893 614 3414 
Q 922 3936 1466 4233 
Q 2010 4531 2682 4531 
Q 3206 4531 3641 4355 
Q 4077 4179 4384 3834 
L 3968 3430 
Q 3462 3962 2707 3962 
Q 2208 3962 1805 3738 
Q 1402 3514 1174 3120 
Q 947 2726 947 2240 
Q 947 1754 1174 1360 
Q 1402 966 1805 742 
Q 2208 518 2707 518 
Q 3456 518 3968 1056 
L 4384 653 
Q 4077 307 3638 128 
Q 3200 -51 2675 -51 
z
" transform="scale(0.015625)"/>
       <path id="Montserrat-Medium-74" d="M 2490 198 
Q 2355 83 2156 22 
Q 1958 -38 1747 -38 
Q 1235 -38 953 237 
Q 672 512 672 1024 
L 672 2886 
L 96 2886 
L 96 3392 
L 672 3392 
L 672 4134 
L 1286 4134 
L 1286 3392 
L 2259 3392 
L 2259 2886 
L 1286 2886 
L 1286 1050 
Q 1286 774 1424 627 
Q 1562 480 1818 480 
Q 2099 480 2298 640 
L 2490 198 
z
" transform="scale(0.015625)"/>
       <path id="Montserrat-Medium-20" transform="scale(0.015625)"/>
       <path id="Montserrat-Medium-66" d="M 1824 4282 
Q 1274 4282 1274 3686 
L 1274 3392 
L 2259 3392 
L 2259 2886 
L 1286 2886 
L 1286 0 
L 672 0 
L 672 2886 
L 96 2886 
L 96 3392 
L 672 3392 
L 672 3693 
Q 672 4198 966 4492 
Q 1261 4787 1792 4787 
Q 1997 4787 2176 4736 
Q 2355 4685 2483 4589 
L 2298 4122 
Q 2086 4282 1824 4282 
z
" transform="scale(0.015625)"/>
       <path id="Montserrat-Medium-75" d="M 3744 3392 
L 3744 0 
L 3162 0 
L 3162 512 
Q 2976 250 2672 106 
Q 2368 -38 2010 -38 
Q 1331 -38 940 336 
Q 550 710 550 1440 
L 550 3392 
L 1165 3392 
L 1165 1510 
Q 1165 1018 1401 765 
Q 1638 512 2080 512 
Q 2566 512 2848 806 
Q 3130 1101 3130 1638 
L 3130 3392 
L 3744 3392 
z
" transform="scale(0.015625)"/>
       <path id="Montserrat-Medium-6e" d="M 2394 3424 
Q 3040 3424 3421 3049 
Q 3802 2675 3802 1952 
L 3802 0 
L 3187 0 
L 3187 1882 
Q 3187 2374 2950 2624 
Q 2714 2874 2272 2874 
Q 1773 2874 1485 2582 
Q 1197 2291 1197 1747 
L 1197 0 
L 582 0 
L 582 3392 
L 1171 3392 
L 1171 2880 
Q 1357 3142 1673 3283 
Q 1990 3424 2394 3424 
z
" transform="scale(0.015625)"/>
       <path id="Montserrat-Medium-69" d="M 582 3392 
L 1197 3392 
L 1197 0 
L 582 0 
L 582 3392 
z
M 890 4045 
Q 710 4045 592 4160 
Q 474 4275 474 4442 
Q 474 4608 592 4726 
Q 710 4845 890 4845 
Q 1069 4845 1187 4733 
Q 1306 4621 1306 4454 
Q 1306 4282 1187 4163 
Q 1069 4045 890 4045 
z
" transform="scale(0.015625)"/>
       <path id="DejaVuSans-Oblique-4a" d="M 1069 4666 
L 1703 4666 
L 856 325 
Q 691 -522 298 -901 
Q -94 -1281 -800 -1281 
L -1050 -1281 
L -947 -750 
L -750 -750 
Q -328 -750 -109 -509 
Q 109 -269 225 325 
L 1069 4666 
z
" transform="scale(0.015625)"/>
      </defs>
      <use xlink:href="#Montserrat-Medium-43" transform="translate(0 0.296875)"/>
      <use xlink:href="#Montserrat-Medium-6f" transform="translate(72.299988 0.296875)"/>
      <use xlink:href="#Montserrat-Medium-73" transform="translate(135.799973 0.296875)"/>
      <use xlink:href="#Montserrat-Medium-74" transform="translate(185.899963 0.296875)"/>
      <use xlink:href="#Montserrat-Medium-20" transform="translate(227.299957 0.296875)"/>
      <use xlink:href="#Montserrat-Medium-66" transform="translate(254.199951 0.296875)"/>
      <use xlink:href="#Montserrat-Medium-75" transform="translate(289.499939 0.296875)"/>
      <use xlink:href="#Montserrat-Medium-6e" transform="translate(357.199921 0.296875)"/>
      <use xlink:href="#Montserrat-Medium-63" transform="translate(425.299911 0.296875)"/>
      <use xlink:href="#Montserrat-Medium-74" transform="translate(482.399902 0.296875)"/>
      <use xlink:href="#Montserrat-Medium-69" transform="translate(523.799896 0.296875)"/>
      <use xlink:href="#Montserrat-Medium-6f" transform="translate(551.69989 0.296875)"/>
      <use xlink:href="#Montserrat-Medium-6e" transform="translate(615.199875 0.296875)"/>
      <use xlink:href="#Montserrat-Medium-20" transform="translate(683.299866 0.296875)"/>
      <use xlink:href="#DejaVuSans-Oblique-4a" transform="translate(710.19986 0.296875)"/>
     </g>
    </g>
   </g>
   <g id="line2d_12">
    <path d="M 64.426101 -1 
L 64.732025 15.605447 
L 65.178425 28.216587 
L 65.624825 35.749616 
L 66.517625 45.366665 
L 67.410425 51.723661 
L 68.303225 56.364888 
L 69.196025 59.960924 
L 70.088825 62.837078 
L 71.428025 66.269179 
L 72.767225 68.973748 
L 74.106425 71.190543 
L 75.445625 73.049463 
L 77.231225 75.140423 
L 79.463225 77.261124 
L 81.248825 78.712303 
L 83.927225 80.557608 
L 87.052025 82.32729 
L 89.730425 83.628628 
L 92.408825 84.756382 
L 95.980025 86.049772 
L 99.551225 87.167579 
L 104.015225 88.378655 
L 112.496825 90.208693 
L 120.532025 91.566802 
L 128.120825 92.636628 
L 152.226425 95.040721 
L 156.690425 95.37568 
L 164.725625 95.944431 
L 178.564025 96.775541 
L 183.474425 97.016504 
L 186.599225 97.18219 
L 194.188025 97.529623 
L 202.669625 97.909209 
L 239.274425 99.205557 
L 243.292025 99.311978 
L 247.756025 99.447941 
L 295.520825 100.600577 
L 304.895225 100.795806 
L 321.412025 101.121545 
L 327.661625 101.246339 
L 369.176825 101.940297 
L 374.087225 102.005131 
L 376.765625 102.050022 
L 391.496825 102.282938 
L 403.549625 102.475408 
L 416.495225 102.688696 
L 424.084025 102.831433 
L 426.316025 102.872227 
L 435.690425 103.158742 
L 438.368825 103.271127 
L 447.296825 103.586143 
L 455.778425 103.935939 
L 462.028025 104.185411 
L 478.544825 104.961964 
L 483.008825 105.278798 
L 486.580025 105.693444 
L 488.812025 106.060523 
L 491.936825 106.919225 
L 494.168825 107.900953 
L 495.508025 108.685503 
L 497.293625 109.975143 
L 499.525625 112.069772 
L 501.757625 114.201559 
L 503.096825 115.337673 
L 504.882425 116.636317 
L 507.114425 118.037715 
L 509.792825 119.391049 
L 510.239225 119.579949 
L 510.239225 119.579949 
" clip-path="url(#p23074cce66)" style="fill: none; stroke: #000000; stroke-width: 2; stroke-linecap: square"/>
   </g>
   <g id="line2d_13">
    <path d="M 64.436827 -1 
L 64.732025 10.679027 
L 65.624825 28.516172 
L 66.071225 44.095067 
L 66.517625 54.393781 
L 67.410425 64.979737 
L 68.749625 75.974887 
L 69.196025 79.743615 
L 69.642425 84.779612 
L 70.535225 99.666186 
L 71.428025 107.83873 
L 72.320825 113.439661 
L 73.213625 117.830722 
L 74.552825 122.993809 
L 76.338425 128.860272 
L 76.784825 131.228825 
L 78.124025 141.288856 
L 79.016825 145.867678 
L 79.909625 149.328908 
L 80.802425 152.045786 
L 82.141625 155.236131 
L 83.480825 157.713691 
L 84.820025 159.729284 
L 86.605625 161.976125 
L 88.391225 163.862703 
L 91.069625 166.23314 
L 95.087225 169.122694 
L 98.212025 171.030751 
L 112.943225 179.374732 
L 116.068025 180.686331 
L 121.424825 182.586763 
L 125.888825 183.852016 
L 134.370425 185.673966 
L 138.388025 186.322686 
L 145.084025 187.235061 
L 154.904825 188.299154 
L 164.279225 189.077698 
L 167.850425 189.368534 
L 169.636025 189.451889 
L 171.868025 189.63271 
L 177.671225 190.005464 
L 179.903225 190.151489 
L 182.581625 190.303718 
L 199.098425 191.165188 
L 201.776825 191.331139 
L 203.116025 191.368786 
L 206.687225 191.547566 
L 214.276025 191.906987 
L 255.344825 193.712762 
L 269.629625 194.124922 
L 274.093625 194.269204 
L 275.879225 194.288857 
L 279.004025 194.364992 
L 323.197625 195.124379 
L 324.983225 195.101272 
L 326.768825 195.163281 
L 330.786425 195.194202 
L 337.928825 195.296757 
L 340.160825 195.306084 
L 349.535225 195.391901 
L 352.213625 195.450151 
L 354.445625 195.449969 
L 361.141625 195.512614 
L 362.480825 195.525832 
L 374.087225 195.610947 
L 375.426425 195.643265 
L 378.551225 195.666578 
L 380.336825 195.671708 
L 383.015225 195.70676 
L 388.372025 195.776815 
L 389.711225 195.771421 
L 393.282425 195.758021 
L 394.621625 195.776832 
L 412.477625 195.908862 
L 413.370425 195.898866 
L 414.709625 195.933902 
L 423.637625 195.992928 
L 426.762425 196.013185 
L 428.994425 196.008534 
L 432.119225 196.024635 
L 441.940025 196.102959 
L 460.688825 196.185191 
L 462.028025 196.186059 
L 491.936825 196.343584 
L 493.276025 196.350424 
L 495.061625 196.352258 
L 499.525625 196.364914 
L 502.650425 196.395951 
L 504.436025 196.378727 
L 509.792825 196.431086 
L 510.239225 196.431218 
L 510.239225 196.431218 
" clip-path="url(#p23074cce66)" style="fill: none; stroke: #0000ff; stroke-width: 2; stroke-linecap: square"/>
   </g>
   <g id="line2d_14">
    <path d="M 64.285625 2.167707 
L 65.178425 92.009504 
L 65.624825 120.796693 
L 66.517625 155.682996 
L 66.964025 164.731939 
L 67.410425 170.35225 
L 68.303225 176.971631 
L 69.196025 181.015705 
L 70.088825 183.828058 
L 70.981625 185.958358 
L 71.874425 187.67003 
L 73.213625 189.734034 
L 74.552825 191.377634 
L 75.892025 192.784839 
L 78.124025 194.697836 
L 80.802425 196.55897 
L 85.712825 199.143363 
L 90.176825 200.957928 
L 97.765625 203.292198 
L 99.551225 203.695105 
L 107.586425 205.506836 
L 108.925625 205.74708 
L 109.372025 205.892692 
L 110.264825 205.990051 
L 113.836025 206.651063 
L 118.746425 207.409193 
L 121.871225 207.89425 
L 127.674425 208.585118 
L 128.567225 208.69923 
L 131.692025 209.065763 
L 133.924025 209.252681 
L 134.816825 209.355616 
L 140.173625 209.82857 
L 144.637625 210.164098 
L 146.423225 210.305828 
L 165.172025 211.46233 
L 166.957625 211.526329 
L 196.866425 212.746484 
L 199.098425 212.814631 
L 199.991225 212.865793 
L 209.812025 213.201297 
L 212.490425 213.284363 
L 215.615225 213.374873 
L 217.400825 213.45048 
L 222.757625 213.593283 
L 223.650425 213.645295 
L 226.775225 213.7106 
L 229.453625 213.80871 
L 235.256825 213.999569 
L 237.042425 214.030887 
L 238.381625 214.084023 
L 240.613625 214.11858 
L 242.399225 214.202761 
L 243.292025 214.188651 
L 243.738425 214.260102 
L 244.631225 214.240242 
L 246.416825 214.273865 
L 255.344825 214.531714 
L 255.791225 214.469978 
L 256.237625 214.574433 
L 257.576825 214.569575 
L 260.701625 214.669007 
L 262.487225 214.692766 
L 268.736825 214.791149 
L 270.076025 214.870556 
L 271.861625 214.889953 
L 274.540025 214.96779 
L 276.325625 214.986047 
L 284.360825 215.15769 
L 291.056825 215.31139 
L 292.842425 215.340684 
L 294.181625 215.282269 
L 294.628025 215.395026 
L 295.520825 215.357339 
L 296.860025 215.41254 
L 297.306425 215.358603 
L 298.199225 215.42841 
L 300.431225 215.426964 
L 301.324025 215.498093 
L 303.556025 215.496838 
L 305.341625 215.564769 
L 307.127225 215.567091 
L 316.055225 215.729671 
L 316.948025 215.706325 
L 320.965625 215.784022 
L 325.429625 215.863676 
L 325.876025 215.795373 
L 326.322425 215.892557 
L 327.661625 215.846278 
L 328.554425 215.872375 
L 329.447225 215.880917 
L 331.679225 215.967553 
L 370.962425 216.384653 
L 371.408825 216.366494 
L 371.855225 216.475749 
L 377.212025 216.475774 
L 510.239225 217.443673 
L 510.239225 217.443673 
" clip-path="url(#p23074cce66)" style="fill: none; stroke: #ff0000; stroke-width: 2; stroke-linecap: square"/>
   </g>
   <g id="line2d_15">
    <path d="M 64.285625 16.778819 
L 64.732025 96.092719 
L 65.178425 144.959458 
L 65.624825 170.461736 
L 66.071225 182.543061 
L 66.517625 189.466503 
L 66.964025 194.196877 
L 67.856825 200.506098 
L 68.749625 204.663368 
L 69.642425 207.622655 
L 70.535225 209.845042 
L 71.428025 211.679137 
L 73.213625 214.339377 
L 75.445625 216.744957 
L 78.124025 218.90218 
L 82.141625 221.163974 
L 85.266425 222.413295 
L 89.284025 223.719623 
L 90.623225 224.055829 
L 96.426425 225.344696 
L 98.658425 225.695244 
L 101.783225 226.18686 
L 115.621625 227.831265 
L 116.960825 227.965336 
L 124.103225 228.564835 
L 125.888825 228.672594 
L 129.013625 228.916845 
L 151.780025 230.172292 
L 157.136825 230.3789 
L 158.029625 230.455259 
L 164.725625 230.746218 
L 165.618425 230.725623 
L 166.957625 230.781956 
L 168.296825 230.850809 
L 171.421625 230.927432 
L 173.207225 231.008012 
L 181.242425 231.267426 
L 183.474425 231.307736 
L 184.813625 231.382732 
L 188.831225 231.521619 
L 190.170425 231.505563 
L 243.292025 233.051549 
L 244.631225 233.108757 
L 250.434425 233.329732 
L 251.327225 233.345139 
L 268.290425 233.787622 
L 270.076025 233.806713 
L 271.415225 233.832815 
L 308.912825 234.505871 
L 313.376825 234.564158 
L 331.232825 234.806373 
L 332.572025 234.840987 
L 333.464825 234.841252 
L 334.804025 234.861991 
L 337.482425 234.871934 
L 346.410425 234.988375 
L 351.767225 235.039231 
L 355.338425 235.096366 
L 356.231225 235.082285 
L 357.124025 235.109121 
L 389.264825 235.45546 
L 389.711225 235.382278 
L 391.050425 235.441139 
L 392.836025 235.442952 
L 484.348025 236.10313 
L 485.240825 236.109041 
L 487.472825 236.089689 
L 488.812025 236.093501 
L 505.328825 236.203103 
L 508.453625 236.282543 
L 509.346425 236.200546 
L 510.239225 236.249167 
L 510.239225 236.249167 
" clip-path="url(#p23074cce66)" style="fill: none; stroke: #008000; stroke-width: 2; stroke-linecap: square"/>
   </g>
   <g id="line2d_16">
    <path d="M 64.285625 54.223699 
L 64.732025 149.482566 
L 65.178425 180.67075 
L 65.624825 191.187312 
L 66.071225 197.203484 
L 66.964025 204.809797 
L 67.856825 209.685138 
L 68.749625 213.233466 
L 69.642425 215.926156 
L 70.981625 218.974457 
L 72.320825 221.260299 
L 73.660025 223.166254 
L 74.999225 224.741616 
L 77.231225 226.93043 
L 80.356025 229.243555 
L 83.480825 230.950039 
L 87.052025 232.382403 
L 88.391225 232.865308 
L 89.284025 233.113421 
L 91.069625 233.637838 
L 94.640825 234.52251 
L 95.980025 234.747797 
L 96.872825 235.001581 
L 100.444025 235.632394 
L 102.676025 235.982479 
L 104.015225 236.205209 
L 107.586425 236.75068 
L 108.032825 236.730118 
L 108.925625 236.905536 
L 114.282425 237.54352 
L 117.407225 237.870685 
L 121.424825 238.249242 
L 124.103225 238.508264 
L 143.298425 239.862498 
L 144.191225 239.923957 
L 149.101625 240.193942 
L 149.994425 240.24077 
L 150.887225 240.313882 
L 163.832825 240.953617 
L 165.172025 240.962477 
L 165.618425 241.062198 
L 166.511225 241.044854 
L 169.189625 241.204861 
L 169.636025 241.150366 
L 170.975225 241.276139 
L 175.439225 241.423155 
L 177.224825 241.512298 
L 180.349625 241.631515 
L 182.135225 241.697824 
L 183.920825 241.726506 
L 185.260025 241.838132 
L 185.706425 241.795529 
L 187.045625 241.91518 
L 187.938425 241.899446 
L 189.724025 241.936878 
L 190.616825 242.052865 
L 191.509625 242.034005 
L 193.295225 242.094076 
L 202.669625 242.421162 
L 204.455225 242.455099 
L 212.936825 242.729301 
L 213.829625 242.708152 
L 214.722425 242.761784 
L 221.418425 242.93954 
L 222.311225 242.980082 
L 227.668025 243.081084 
L 230.792825 243.190425 
L 233.471225 243.28554 
L 234.364025 243.25466 
L 271.415225 244.024802 
L 273.200825 244.082226 
L 275.432825 244.11884 
L 276.325625 244.10803 
L 276.772025 244.2136 
L 279.004025 244.151736 
L 282.128825 244.263939 
L 282.575225 244.18027 
L 284.360825 244.299859 
L 285.700025 244.28156 
L 286.146425 244.392009 
L 286.592825 244.303031 
L 289.271225 244.376267 
L 297.752825 244.483576 
L 299.092025 244.561 
L 301.324025 244.573024 
L 333.464825 245.139536 
L 333.911225 245.202866 
L 334.804025 245.165179 
L 337.928825 245.222404 
L 339.714425 245.233226 
L 341.946425 245.28015 
L 345.964025 245.347342 
L 349.981625 245.40382 
L 351.767225 245.447828 
L 360.248825 245.557582 
L 362.927225 245.610561 
L 365.159225 245.608962 
L 366.498425 245.685866 
L 367.837625 245.699187 
L 369.176825 245.710208 
L 370.962425 245.736945 
L 371.855225 245.724248 
L 373.640825 245.771039 
L 374.980025 245.760465 
L 392.389625 245.997272 
L 394.175225 246.048607 
L 396.853625 246.151079 
L 397.300025 246.071507 
L 399.085625 246.137609 
L 400.424825 246.145676 
L 405.781625 246.272527 
L 406.674425 246.221237 
L 408.013625 246.186074 
L 408.906425 246.256641 
L 410.245625 246.281102 
L 411.138425 246.263076 
L 414.709625 246.341103 
L 420.512825 246.389473 
L 421.405625 246.373454 
L 424.084025 246.45607 
L 426.316025 246.435603 
L 426.762425 246.526121 
L 428.101625 246.482114 
L 429.887225 246.509016 
L 430.333625 246.462704 
L 431.226425 246.508992 
L 432.565625 246.552305 
L 433.904825 246.554887 
L 436.136825 246.607779 
L 439.261625 246.612905 
L 443.279225 246.631761 
L 444.172025 246.694563 
L 447.743225 246.665864 
L 449.082425 246.749393 
L 449.975225 246.706959 
L 450.868025 246.733093 
L 455.778425 246.789687 
L 459.349625 246.850163 
L 461.581625 246.893889 
L 480.776825 247.075252 
L 484.348025 247.116872 
L 485.687225 247.115628 
L 488.812025 247.14776 
L 490.151225 247.132436 
L 490.597625 247.205795 
L 491.490425 247.143031 
L 497.740025 247.208786 
L 510.239225 247.326735 
L 510.239225 247.326735 
" clip-path="url(#p23074cce66)" style="fill: none; stroke: #ff00ff; stroke-width: 2; stroke-linecap: square"/>
   </g>
   <g id="line2d_17">
    <path d="M 64.285625 100.304595 
L 64.732025 174.433293 
L 65.178425 191.318368 
L 65.624825 199.945642 
L 66.071225 205.431808 
L 66.964025 212.265583 
L 67.856825 216.533883 
L 68.749625 219.627745 
L 69.642425 221.890043 
L 70.535225 223.691906 
L 71.428025 225.203368 
L 72.767225 227.005834 
L 74.552825 228.822659 
L 76.338425 230.330263 
L 79.463225 232.340308 
L 83.480825 234.34693 
L 88.391225 236.223962 
L 95.087225 238.289205 
L 98.212025 239.089336 
L 99.551225 239.361828 
L 100.444025 239.537064 
L 101.783225 239.833456 
L 108.032825 241.017592 
L 109.372025 241.205381 
L 110.264825 241.369812 
L 112.050425 241.611271 
L 113.389625 241.836318 
L 118.300025 242.535026 
L 119.192825 242.656879 
L 120.978425 242.896917 
L 121.871225 243.001702 
L 125.888825 243.472409 
L 128.120825 243.740485 
L 147.762425 245.705177 
L 148.208825 245.649405 
L 151.333625 246.002113 
L 153.565625 246.095626 
L 154.458425 246.223794 
L 155.797625 246.341161 
L 157.583225 246.460246 
L 158.476025 246.53254 
L 160.708025 246.691374 
L 163.386425 246.92479 
L 164.279225 246.991603 
L 165.172025 247.05868 
L 166.957625 247.13553 
L 167.850425 247.251178 
L 176.778425 247.818091 
L 177.671225 247.898117 
L 180.349625 248.058521 
L 220.525625 250.376028 
L 223.204025 250.496609 
L 224.543225 250.573603 
L 227.221625 250.747931 
L 228.560825 250.718178 
L 229.453625 250.83847 
L 232.132025 250.932561 
L 233.471225 251.014611 
L 236.149625 251.13888 
L 238.828025 251.316603 
L 239.274425 251.228729 
L 240.613625 251.337628 
L 241.506425 251.40397 
L 245.524025 251.539127 
L 247.309625 251.664049 
L 249.095225 251.730845 
L 267.844025 252.563372 
L 268.290425 252.487666 
L 269.183225 252.61709 
L 269.629625 252.544825 
L 270.522425 252.61581 
L 283.468025 253.174094 
L 284.807225 253.178526 
L 285.700025 253.267949 
L 286.146425 253.187245 
L 287.485625 253.256218 
L 289.717625 253.396477 
L 290.610425 253.385262 
L 291.503225 253.461088 
L 294.181625 253.526888 
L 295.074425 253.617807 
L 295.520825 253.650749 
L 296.413625 253.583887 
L 297.306425 253.723567 
L 298.199225 253.698023 
L 299.538425 253.749966 
L 347.749625 255.263641 
L 348.196025 255.218279 
L 349.088825 255.33508 
L 356.231225 255.569868 
L 357.570425 255.564196 
L 363.820025 255.795605 
L 364.266425 255.752647 
L 364.712825 255.827225 
L 365.159225 255.78425 
L 366.052025 255.827121 
L 367.837625 255.889779 
L 370.516025 255.929308 
L 371.855225 256.027951 
L 372.748025 256.015237 
L 374.980025 256.02185 
L 375.872825 256.080331 
L 377.658425 256.147074 
L 378.997625 256.193716 
L 379.444025 256.143654 
L 380.336825 256.247513 
L 474.527225 258.287013 
L 475.420025 258.285947 
L 475.866425 258.270143 
L 476.759225 258.401608 
L 477.652025 258.324898 
L 478.098425 258.422187 
L 480.330425 258.389586 
L 480.776825 258.453344 
L 481.669625 258.368507 
L 482.116025 258.498497 
L 483.455225 258.412847 
L 485.240825 258.483487 
L 491.044025 258.573385 
L 492.383225 258.625445 
L 492.829625 258.671958 
L 493.276025 258.58019 
L 493.722425 258.696382 
L 494.168825 258.605238 
L 495.954425 258.653465 
L 497.293625 258.687687 
L 499.079225 258.717791 
L 503.096825 258.781431 
L 504.882425 258.824745 
L 505.775225 258.811085 
L 508.453625 258.923181 
L 509.346425 258.919703 
L 510.239225 258.963213 
L 510.239225 258.963213 
" clip-path="url(#p23074cce66)" style="fill: none; stroke: #ffff00; stroke-width: 2; stroke-linecap: square"/>
   </g>
   <g id="patch_3">
    <path d="M 64.285625 291.238594 
L 64.285625 14.038594 
" style="fill: none; stroke: #000000; stroke-width: 0.8; stroke-linejoin: miter; stroke-linecap: square"/>
   </g>
   <g id="patch_4">
    <path d="M 510.685625 291.238594 
L 510.685625 14.038594 
" style="fill: none; stroke: #000000; stroke-width: 0.8; stroke-linejoin: miter; stroke-linecap: square"/>
   </g>
   <g id="patch_5">
    <path d="M 64.285625 291.238594 
L 510.685625 291.238594 
" style="fill: none; stroke: #000000; stroke-width: 0.8; stroke-linejoin: miter; stroke-linecap: square"/>
   </g>
   <g id="patch_6">
    <path d="M 64.285625 14.038594 
L 510.685625 14.038594 
" style="fill: none; stroke: #000000; stroke-width: 0.8; stroke-linejoin: miter; stroke-linecap: square"/>
   </g>
   <g id="legend_1">
    <g id="patch_7">
     <path d="M 265.401875 186.962344 
L 498.085625 186.962344 
Q 501.685625 186.962344 501.685625 183.362344 
L 501.685625 26.638594 
Q 501.685625 23.038594 498.085625 23.038594 
L 265.401875 23.038594 
Q 261.801875 23.038594 261.801875 26.638594 
L 261.801875 183.362344 
Q 261.801875 186.962344 265.401875 186.962344 
z
" style="fill: #f1f7f0; opacity: 0.8; stroke: #cccccc; stroke-linejoin: miter"/>
    </g>
    <g id="line2d_18">
     <path d="M 269.001875 37.615781 
L 287.001875 37.615781 
L 305.001875 37.615781 
" style="fill: none; stroke: #000000; stroke-width: 2; stroke-linecap: square"/>
    </g>
    <g id="text_14">
     <!-- 1 layer, 1 neuron -->
     <g transform="translate(319.401875 43.915781)scale(0.18 -0.18)">
      <defs>
       <path id="DejaVuSans-20" transform="scale(0.015625)"/>
       <path id="DejaVuSans-6c" d="M 603 4863 
L 1178 4863 
L 1178 0 
L 603 0 
L 603 4863 
z
" transform="scale(0.015625)"/>
       <path id="DejaVuSans-61" d="M 2194 1759 
Q 1497 1759 1228 1600 
Q 959 1441 959 1056 
Q 959 750 1161 570 
Q 1363 391 1709 391 
Q 2188 391 2477 730 
Q 2766 1069 2766 1631 
L 2766 1759 
L 2194 1759 
z
M 3341 1997 
L 3341 0 
L 2766 0 
L 2766 531 
Q 2569 213 2275 61 
Q 1981 -91 1556 -91 
Q 1019 -91 701 211 
Q 384 513 384 1019 
Q 384 1609 779 1909 
Q 1175 2209 1959 2209 
L 2766 2209 
L 2766 2266 
Q 2766 2663 2505 2880 
Q 2244 3097 1772 3097 
Q 1472 3097 1187 3025 
Q 903 2953 641 2809 
L 641 3341 
Q 956 3463 1253 3523 
Q 1550 3584 1831 3584 
Q 2591 3584 2966 3190 
Q 3341 2797 3341 1997 
z
" transform="scale(0.015625)"/>
       <path id="DejaVuSans-79" d="M 2059 -325 
Q 1816 -950 1584 -1140 
Q 1353 -1331 966 -1331 
L 506 -1331 
L 506 -850 
L 844 -850 
Q 1081 -850 1212 -737 
Q 1344 -625 1503 -206 
L 1606 56 
L 191 3500 
L 800 3500 
L 1894 763 
L 2988 3500 
L 3597 3500 
L 2059 -325 
z
" transform="scale(0.015625)"/>
       <path id="DejaVuSans-65" d="M 3597 1894 
L 3597 1613 
L 953 1613 
Q 991 1019 1311 708 
Q 1631 397 2203 397 
Q 2534 397 2845 478 
Q 3156 559 3463 722 
L 3463 178 
Q 3153 47 2828 -22 
Q 2503 -91 2169 -91 
Q 1331 -91 842 396 
Q 353 884 353 1716 
Q 353 2575 817 3079 
Q 1281 3584 2069 3584 
Q 2775 3584 3186 3129 
Q 3597 2675 3597 1894 
z
M 3022 2063 
Q 3016 2534 2758 2815 
Q 2500 3097 2075 3097 
Q 1594 3097 1305 2825 
Q 1016 2553 972 2059 
L 3022 2063 
z
" transform="scale(0.015625)"/>
       <path id="DejaVuSans-72" d="M 2631 2963 
Q 2534 3019 2420 3045 
Q 2306 3072 2169 3072 
Q 1681 3072 1420 2755 
Q 1159 2438 1159 1844 
L 1159 0 
L 581 0 
L 581 3500 
L 1159 3500 
L 1159 2956 
Q 1341 3275 1631 3429 
Q 1922 3584 2338 3584 
Q 2397 3584 2469 3576 
Q 2541 3569 2628 3553 
L 2631 2963 
z
" transform="scale(0.015625)"/>
       <path id="DejaVuSans-2c" d="M 750 794 
L 1409 794 
L 1409 256 
L 897 -744 
L 494 -744 
L 750 256 
L 750 794 
z
" transform="scale(0.015625)"/>
       <path id="DejaVuSans-6e" d="M 3513 2113 
L 3513 0 
L 2938 0 
L 2938 2094 
Q 2938 2591 2744 2837 
Q 2550 3084 2163 3084 
Q 1697 3084 1428 2787 
Q 1159 2491 1159 1978 
L 1159 0 
L 581 0 
L 581 3500 
L 1159 3500 
L 1159 2956 
Q 1366 3272 1645 3428 
Q 1925 3584 2291 3584 
Q 2894 3584 3203 3211 
Q 3513 2838 3513 2113 
z
" transform="scale(0.015625)"/>
       <path id="DejaVuSans-75" d="M 544 1381 
L 544 3500 
L 1119 3500 
L 1119 1403 
Q 1119 906 1312 657 
Q 1506 409 1894 409 
Q 2359 409 2629 706 
Q 2900 1003 2900 1516 
L 2900 3500 
L 3475 3500 
L 3475 0 
L 2900 0 
L 2900 538 
Q 2691 219 2414 64 
Q 2138 -91 1772 -91 
Q 1169 -91 856 284 
Q 544 659 544 1381 
z
M 1991 3584 
L 1991 3584 
z
" transform="scale(0.015625)"/>
       <path id="DejaVuSans-6f" d="M 1959 3097 
Q 1497 3097 1228 2736 
Q 959 2375 959 1747 
Q 959 1119 1226 758 
Q 1494 397 1959 397 
Q 2419 397 2687 759 
Q 2956 1122 2956 1747 
Q 2956 2369 2687 2733 
Q 2419 3097 1959 3097 
z
M 1959 3584 
Q 2709 3584 3137 3096 
Q 3566 2609 3566 1747 
Q 3566 888 3137 398 
Q 2709 -91 1959 -91 
Q 1206 -91 779 398 
Q 353 888 353 1747 
Q 353 2609 779 3096 
Q 1206 3584 1959 3584 
z
" transform="scale(0.015625)"/>
      </defs>
      <use xlink:href="#DejaVuSans-31"/>
      <use xlink:href="#DejaVuSans-20" x="63.623047"/>
      <use xlink:href="#DejaVuSans-6c" x="95.410156"/>
      <use xlink:href="#DejaVuSans-61" x="123.193359"/>
      <use xlink:href="#DejaVuSans-79" x="184.472656"/>
      <use xlink:href="#DejaVuSans-65" x="243.652344"/>
      <use xlink:href="#DejaVuSans-72" x="305.175781"/>
      <use xlink:href="#DejaVuSans-2c" x="346.289062"/>
      <use xlink:href="#DejaVuSans-20" x="378.076172"/>
      <use xlink:href="#DejaVuSans-31" x="409.863281"/>
      <use xlink:href="#DejaVuSans-20" x="473.486328"/>
      <use xlink:href="#DejaVuSans-6e" x="505.273438"/>
      <use xlink:href="#DejaVuSans-65" x="568.652344"/>
      <use xlink:href="#DejaVuSans-75" x="630.175781"/>
      <use xlink:href="#DejaVuSans-72" x="693.554688"/>
      <use xlink:href="#DejaVuSans-6f" x="732.417969"/>
      <use xlink:href="#DejaVuSans-6e" x="793.599609"/>
     </g>
    </g>
    <g id="line2d_19">
     <path d="M 269.001875 64.036406 
L 287.001875 64.036406 
L 305.001875 64.036406 
" style="fill: none; stroke: #0000ff; stroke-width: 2; stroke-linecap: square"/>
    </g>
    <g id="text_15">
     <!-- 1 layer, 2 neurons -->
     <g transform="translate(319.401875 70.336406)scale(0.18 -0.18)">
      <defs>
       <path id="DejaVuSans-73" d="M 2834 3397 
L 2834 2853 
Q 2591 2978 2328 3040 
Q 2066 3103 1784 3103 
Q 1356 3103 1142 2972 
Q 928 2841 928 2578 
Q 928 2378 1081 2264 
Q 1234 2150 1697 2047 
L 1894 2003 
Q 2506 1872 2764 1633 
Q 3022 1394 3022 966 
Q 3022 478 2636 193 
Q 2250 -91 1575 -91 
Q 1294 -91 989 -36 
Q 684 19 347 128 
L 347 722 
Q 666 556 975 473 
Q 1284 391 1588 391 
Q 1994 391 2212 530 
Q 2431 669 2431 922 
Q 2431 1156 2273 1281 
Q 2116 1406 1581 1522 
L 1381 1569 
Q 847 1681 609 1914 
Q 372 2147 372 2553 
Q 372 3047 722 3315 
Q 1072 3584 1716 3584 
Q 2034 3584 2315 3537 
Q 2597 3491 2834 3397 
z
" transform="scale(0.015625)"/>
      </defs>
      <use xlink:href="#DejaVuSans-31"/>
      <use xlink:href="#DejaVuSans-20" x="63.623047"/>
      <use xlink:href="#DejaVuSans-6c" x="95.410156"/>
      <use xlink:href="#DejaVuSans-61" x="123.193359"/>
      <use xlink:href="#DejaVuSans-79" x="184.472656"/>
      <use xlink:href="#DejaVuSans-65" x="243.652344"/>
      <use xlink:href="#DejaVuSans-72" x="305.175781"/>
      <use xlink:href="#DejaVuSans-2c" x="346.289062"/>
      <use xlink:href="#DejaVuSans-20" x="378.076172"/>
      <use xlink:href="#DejaVuSans-32" x="409.863281"/>
      <use xlink:href="#DejaVuSans-20" x="473.486328"/>
      <use xlink:href="#DejaVuSans-6e" x="505.273438"/>
      <use xlink:href="#DejaVuSans-65" x="568.652344"/>
      <use xlink:href="#DejaVuSans-75" x="630.175781"/>
      <use xlink:href="#DejaVuSans-72" x="693.554688"/>
      <use xlink:href="#DejaVuSans-6f" x="732.417969"/>
      <use xlink:href="#DejaVuSans-6e" x="793.599609"/>
      <use xlink:href="#DejaVuSans-73" x="856.978516"/>
     </g>
    </g>
    <g id="line2d_20">
     <path d="M 269.001875 90.457031 
L 287.001875 90.457031 
L 305.001875 90.457031 
" style="fill: none; stroke: #ff0000; stroke-width: 2; stroke-linecap: square"/>
    </g>
    <g id="text_16">
     <!-- 1 layer, 3 neurons -->
     <g transform="translate(319.401875 96.757031)scale(0.18 -0.18)">
      <defs>
       <path id="DejaVuSans-33" d="M 2597 2516 
Q 3050 2419 3304 2112 
Q 3559 1806 3559 1356 
Q 3559 666 3084 287 
Q 2609 -91 1734 -91 
Q 1441 -91 1130 -33 
Q 819 25 488 141 
L 488 750 
Q 750 597 1062 519 
Q 1375 441 1716 441 
Q 2309 441 2620 675 
Q 2931 909 2931 1356 
Q 2931 1769 2642 2001 
Q 2353 2234 1838 2234 
L 1294 2234 
L 1294 2753 
L 1863 2753 
Q 2328 2753 2575 2939 
Q 2822 3125 2822 3475 
Q 2822 3834 2567 4026 
Q 2313 4219 1838 4219 
Q 1578 4219 1281 4162 
Q 984 4106 628 3988 
L 628 4550 
Q 988 4650 1302 4700 
Q 1616 4750 1894 4750 
Q 2613 4750 3031 4423 
Q 3450 4097 3450 3541 
Q 3450 3153 3228 2886 
Q 3006 2619 2597 2516 
z
" transform="scale(0.015625)"/>
      </defs>
      <use xlink:href="#DejaVuSans-31"/>
      <use xlink:href="#DejaVuSans-20" x="63.623047"/>
      <use xlink:href="#DejaVuSans-6c" x="95.410156"/>
      <use xlink:href="#DejaVuSans-61" x="123.193359"/>
      <use xlink:href="#DejaVuSans-79" x="184.472656"/>
      <use xlink:href="#DejaVuSans-65" x="243.652344"/>
      <use xlink:href="#DejaVuSans-72" x="305.175781"/>
      <use xlink:href="#DejaVuSans-2c" x="346.289062"/>
      <use xlink:href="#DejaVuSans-20" x="378.076172"/>
      <use xlink:href="#DejaVuSans-33" x="409.863281"/>
      <use xlink:href="#DejaVuSans-20" x="473.486328"/>
      <use xlink:href="#DejaVuSans-6e" x="505.273438"/>
      <use xlink:href="#DejaVuSans-65" x="568.652344"/>
      <use xlink:href="#DejaVuSans-75" x="630.175781"/>
      <use xlink:href="#DejaVuSans-72" x="693.554688"/>
      <use xlink:href="#DejaVuSans-6f" x="732.417969"/>
      <use xlink:href="#DejaVuSans-6e" x="793.599609"/>
      <use xlink:href="#DejaVuSans-73" x="856.978516"/>
     </g>
    </g>
    <g id="line2d_21">
     <path d="M 269.001875 116.877656 
L 287.001875 116.877656 
L 305.001875 116.877656 
" style="fill: none; stroke: #008000; stroke-width: 2; stroke-linecap: square"/>
    </g>
    <g id="text_17">
     <!-- 1 layer, 5 neurons -->
     <g transform="translate(319.401875 123.177656)scale(0.18 -0.18)">
      <use xlink:href="#DejaVuSans-31"/>
      <use xlink:href="#DejaVuSans-20" x="63.623047"/>
      <use xlink:href="#DejaVuSans-6c" x="95.410156"/>
      <use xlink:href="#DejaVuSans-61" x="123.193359"/>
      <use xlink:href="#DejaVuSans-79" x="184.472656"/>
      <use xlink:href="#DejaVuSans-65" x="243.652344"/>
      <use xlink:href="#DejaVuSans-72" x="305.175781"/>
      <use xlink:href="#DejaVuSans-2c" x="346.289062"/>
      <use xlink:href="#DejaVuSans-20" x="378.076172"/>
      <use xlink:href="#DejaVuSans-35" x="409.863281"/>
      <use xlink:href="#DejaVuSans-20" x="473.486328"/>
      <use xlink:href="#DejaVuSans-6e" x="505.273438"/>
      <use xlink:href="#DejaVuSans-65" x="568.652344"/>
      <use xlink:href="#DejaVuSans-75" x="630.175781"/>
      <use xlink:href="#DejaVuSans-72" x="693.554688"/>
      <use xlink:href="#DejaVuSans-6f" x="732.417969"/>
      <use xlink:href="#DejaVuSans-6e" x="793.599609"/>
      <use xlink:href="#DejaVuSans-73" x="856.978516"/>
     </g>
    </g>
    <g id="line2d_22">
     <path d="M 269.001875 143.298281 
L 287.001875 143.298281 
L 305.001875 143.298281 
" style="fill: none; stroke: #ff00ff; stroke-width: 2; stroke-linecap: square"/>
    </g>
    <g id="text_18">
     <!-- 1 layer, 10 neurons -->
     <g transform="translate(319.401875 149.598281)scale(0.18 -0.18)">
      <use xlink:href="#DejaVuSans-31"/>
      <use xlink:href="#DejaVuSans-20" x="63.623047"/>
      <use xlink:href="#DejaVuSans-6c" x="95.410156"/>
      <use xlink:href="#DejaVuSans-61" x="123.193359"/>
      <use xlink:href="#DejaVuSans-79" x="184.472656"/>
      <use xlink:href="#DejaVuSans-65" x="243.652344"/>
      <use xlink:href="#DejaVuSans-72" x="305.175781"/>
      <use xlink:href="#DejaVuSans-2c" x="346.289062"/>
      <use xlink:href="#DejaVuSans-20" x="378.076172"/>
      <use xlink:href="#DejaVuSans-31" x="409.863281"/>
      <use xlink:href="#DejaVuSans-30" x="473.486328"/>
      <use xlink:href="#DejaVuSans-20" x="537.109375"/>
      <use xlink:href="#DejaVuSans-6e" x="568.896484"/>
      <use xlink:href="#DejaVuSans-65" x="632.275391"/>
      <use xlink:href="#DejaVuSans-75" x="693.798828"/>
      <use xlink:href="#DejaVuSans-72" x="757.177734"/>
      <use xlink:href="#DejaVuSans-6f" x="796.041016"/>
      <use xlink:href="#DejaVuSans-6e" x="857.222656"/>
      <use xlink:href="#DejaVuSans-73" x="920.601562"/>
     </g>
    </g>
    <g id="line2d_23">
     <path d="M 269.001875 169.718906 
L 287.001875 169.718906 
L 305.001875 169.718906 
" style="fill: none; stroke: #ffff00; stroke-width: 2; stroke-linecap: square"/>
    </g>
    <g id="text_19">
     <!-- 1 layer, 20 neurons -->
     <g transform="translate(319.401875 176.018906)scale(0.18 -0.18)">
      <use xlink:href="#DejaVuSans-31"/>
      <use xlink:href="#DejaVuSans-20" x="63.623047"/>
      <use xlink:href="#DejaVuSans-6c" x="95.410156"/>
      <use xlink:href="#DejaVuSans-61" x="123.193359"/>
      <use xlink:href="#DejaVuSans-79" x="184.472656"/>
      <use xlink:href="#DejaVuSans-65" x="243.652344"/>
      <use xlink:href="#DejaVuSans-72" x="305.175781"/>
      <use xlink:href="#DejaVuSans-2c" x="346.289062"/>
      <use xlink:href="#DejaVuSans-20" x="378.076172"/>
      <use xlink:href="#DejaVuSans-32" x="409.863281"/>
      <use xlink:href="#DejaVuSans-30" x="473.486328"/>
      <use xlink:href="#DejaVuSans-20" x="537.109375"/>
      <use xlink:href="#DejaVuSans-6e" x="568.896484"/>
      <use xlink:href="#DejaVuSans-65" x="632.275391"/>
      <use xlink:href="#DejaVuSans-75" x="693.798828"/>
      <use xlink:href="#DejaVuSans-72" x="757.177734"/>
      <use xlink:href="#DejaVuSans-6f" x="796.041016"/>
      <use xlink:href="#DejaVuSans-6e" x="857.222656"/>
      <use xlink:href="#DejaVuSans-73" x="920.601562"/>
     </g>
    </g>
   </g>
  </g>
 </g>
 <defs>
  <clipPath id="p23074cce66">
   <rect x="64.285625" y="14.038594" width="446.4" height="277.2"/>
  </clipPath>
 </defs>
</svg>
