<?xml version="1.0" encoding="utf-8" standalone="no"?>
<!DOCTYPE svg PUBLIC "-//W3C//DTD SVG 1.1//EN"
  "http://www.w3.org/Graphics/SVG/1.1/DTD/svg11.dtd">
<svg xmlns:xlink="http://www.w3.org/1999/xlink" width="535.064375pt" height="356.226875pt" viewBox="0 0 535.064375 356.226875" xmlns="http://www.w3.org/2000/svg" version="1.1">
 <metadata>
  <rdf:RDF xmlns:dc="http://purl.org/dc/elements/1.1/" xmlns:cc="http://creativecommons.org/ns#" xmlns:rdf="http://www.w3.org/1999/02/22-rdf-syntax-ns#">
   <cc:Work>
    <dc:type rdf:resource="http://purl.org/dc/dcmitype/StillImage"/>
    <dc:date>2022-12-03T14:31:39.766103</dc:date>
    <dc:format>image/svg+xml</dc:format>
    <dc:creator>
     <cc:Agent>
      <dc:title>Matplotlib v3.5.2, https://matplotlib.org/</dc:title>
     </cc:Agent>
    </dc:creator>
   </cc:Work>
  </rdf:RDF>
 </metadata>
 <defs>
  <style type="text/css">*{stroke-linejoin: round; stroke-linecap: butt}</style>
 </defs>
 <g id="figure_1">
  <g id="patch_1">
   <path d="M 0 356.226875 
L 535.064375 356.226875 
L 535.064375 0 
L 0 0 
z
" style="fill: #ffffff"/>
  </g>
  <g id="axes_1">
   <g id="patch_2">
    <path d="M 64.285625 303.756563 
L 510.685625 303.756563 
L 510.685625 26.556563 
L 64.285625 26.556563 
z
" style="fill: #f1f7f0"/>
   </g>
   <g id="matplotlib.axis_1">
    <g id="xtick_1">
     <g id="line2d_1">
      <defs>
       <path id="m6eb001c9b4" d="M 0 0 
L 0 3.5 
" style="stroke: #000000; stroke-width: 0.8"/>
      </defs>
      <g>
       <use xlink:href="#m6eb001c9b4" x="64.285625" y="303.756563" style="stroke: #000000; stroke-width: 0.8"/>
      </g>
     </g>
     <g id="text_1">
      <!-- 0 -->
      <g transform="translate(58.559375 324.43375)scale(0.18 -0.18)">
       <defs>
        <path id="DejaVuSans-30" d="M 2034 4250 
Q 1547 4250 1301 3770 
Q 1056 3291 1056 2328 
Q 1056 1369 1301 889 
Q 1547 409 2034 409 
Q 2525 409 2770 889 
Q 3016 1369 3016 2328 
Q 3016 3291 2770 3770 
Q 2525 4250 2034 4250 
z
M 2034 4750 
Q 2819 4750 3233 4129 
Q 3647 3509 3647 2328 
Q 3647 1150 3233 529 
Q 2819 -91 2034 -91 
Q 1250 -91 836 529 
Q 422 1150 422 2328 
Q 422 3509 836 4129 
Q 1250 4750 2034 4750 
z
" transform="scale(0.015625)"/>
       </defs>
       <use xlink:href="#DejaVuSans-30"/>
      </g>
     </g>
    </g>
    <g id="xtick_2">
     <g id="line2d_2">
      <g>
       <use xlink:href="#m6eb001c9b4" x="153.565625" y="303.756563" style="stroke: #000000; stroke-width: 0.8"/>
      </g>
     </g>
     <g id="text_2">
      <!-- 20 -->
      <g transform="translate(142.113125 324.43375)scale(0.18 -0.18)">
       <defs>
        <path id="DejaVuSans-32" d="M 1228 531 
L 3431 531 
L 3431 0 
L 469 0 
L 469 531 
Q 828 903 1448 1529 
Q 2069 2156 2228 2338 
Q 2531 2678 2651 2914 
Q 2772 3150 2772 3378 
Q 2772 3750 2511 3984 
Q 2250 4219 1831 4219 
Q 1534 4219 1204 4116 
Q 875 4013 500 3803 
L 500 4441 
Q 881 4594 1212 4672 
Q 1544 4750 1819 4750 
Q 2544 4750 2975 4387 
Q 3406 4025 3406 3419 
Q 3406 3131 3298 2873 
Q 3191 2616 2906 2266 
Q 2828 2175 2409 1742 
Q 1991 1309 1228 531 
z
" transform="scale(0.015625)"/>
       </defs>
       <use xlink:href="#DejaVuSans-32"/>
       <use xlink:href="#DejaVuSans-30" x="63.623047"/>
      </g>
     </g>
    </g>
    <g id="xtick_3">
     <g id="line2d_3">
      <g>
       <use xlink:href="#m6eb001c9b4" x="242.845625" y="303.756563" style="stroke: #000000; stroke-width: 0.8"/>
      </g>
     </g>
     <g id="text_3">
      <!-- 40 -->
      <g transform="translate(231.393125 324.43375)scale(0.18 -0.18)">
       <defs>
        <path id="DejaVuSans-34" d="M 2419 4116 
L 825 1625 
L 2419 1625 
L 2419 4116 
z
M 2253 4666 
L 3047 4666 
L 3047 1625 
L 3713 1625 
L 3713 1100 
L 3047 1100 
L 3047 0 
L 2419 0 
L 2419 1100 
L 313 1100 
L 313 1709 
L 2253 4666 
z
" transform="scale(0.015625)"/>
       </defs>
       <use xlink:href="#DejaVuSans-34"/>
       <use xlink:href="#DejaVuSans-30" x="63.623047"/>
      </g>
     </g>
    </g>
    <g id="xtick_4">
     <g id="line2d_4">
      <g>
       <use xlink:href="#m6eb001c9b4" x="332.125625" y="303.756563" style="stroke: #000000; stroke-width: 0.8"/>
      </g>
     </g>
     <g id="text_4">
      <!-- 60 -->
      <g transform="translate(320.673125 324.43375)scale(0.18 -0.18)">
       <defs>
        <path id="DejaVuSans-36" d="M 2113 2584 
Q 1688 2584 1439 2293 
Q 1191 2003 1191 1497 
Q 1191 994 1439 701 
Q 1688 409 2113 409 
Q 2538 409 2786 701 
Q 3034 994 3034 1497 
Q 3034 2003 2786 2293 
Q 2538 2584 2113 2584 
z
M 3366 4563 
L 3366 3988 
Q 3128 4100 2886 4159 
Q 2644 4219 2406 4219 
Q 1781 4219 1451 3797 
Q 1122 3375 1075 2522 
Q 1259 2794 1537 2939 
Q 1816 3084 2150 3084 
Q 2853 3084 3261 2657 
Q 3669 2231 3669 1497 
Q 3669 778 3244 343 
Q 2819 -91 2113 -91 
Q 1303 -91 875 529 
Q 447 1150 447 2328 
Q 447 3434 972 4092 
Q 1497 4750 2381 4750 
Q 2619 4750 2861 4703 
Q 3103 4656 3366 4563 
z
" transform="scale(0.015625)"/>
       </defs>
       <use xlink:href="#DejaVuSans-36"/>
       <use xlink:href="#DejaVuSans-30" x="63.623047"/>
      </g>
     </g>
    </g>
    <g id="xtick_5">
     <g id="line2d_5">
      <g>
       <use xlink:href="#m6eb001c9b4" x="421.405625" y="303.756563" style="stroke: #000000; stroke-width: 0.8"/>
      </g>
     </g>
     <g id="text_5">
      <!-- 80 -->
      <g transform="translate(409.953125 324.43375)scale(0.18 -0.18)">
       <defs>
        <path id="DejaVuSans-38" d="M 2034 2216 
Q 1584 2216 1326 1975 
Q 1069 1734 1069 1313 
Q 1069 891 1326 650 
Q 1584 409 2034 409 
Q 2484 409 2743 651 
Q 3003 894 3003 1313 
Q 3003 1734 2745 1975 
Q 2488 2216 2034 2216 
z
M 1403 2484 
Q 997 2584 770 2862 
Q 544 3141 544 3541 
Q 544 4100 942 4425 
Q 1341 4750 2034 4750 
Q 2731 4750 3128 4425 
Q 3525 4100 3525 3541 
Q 3525 3141 3298 2862 
Q 3072 2584 2669 2484 
Q 3125 2378 3379 2068 
Q 3634 1759 3634 1313 
Q 3634 634 3220 271 
Q 2806 -91 2034 -91 
Q 1263 -91 848 271 
Q 434 634 434 1313 
Q 434 1759 690 2068 
Q 947 2378 1403 2484 
z
M 1172 3481 
Q 1172 3119 1398 2916 
Q 1625 2713 2034 2713 
Q 2441 2713 2670 2916 
Q 2900 3119 2900 3481 
Q 2900 3844 2670 4047 
Q 2441 4250 2034 4250 
Q 1625 4250 1398 4047 
Q 1172 3844 1172 3481 
z
" transform="scale(0.015625)"/>
       </defs>
       <use xlink:href="#DejaVuSans-38"/>
       <use xlink:href="#DejaVuSans-30" x="63.623047"/>
      </g>
     </g>
    </g>
    <g id="xtick_6">
     <g id="line2d_6">
      <g>
       <use xlink:href="#m6eb001c9b4" x="510.685625" y="303.756563" style="stroke: #000000; stroke-width: 0.8"/>
      </g>
     </g>
     <g id="text_6">
      <!-- 100 -->
      <g transform="translate(493.506875 324.43375)scale(0.18 -0.18)">
       <defs>
        <path id="DejaVuSans-31" d="M 794 531 
L 1825 531 
L 1825 4091 
L 703 3866 
L 703 4441 
L 1819 4666 
L 2450 4666 
L 2450 531 
L 3481 531 
L 3481 0 
L 794 0 
L 794 531 
z
" transform="scale(0.015625)"/>
       </defs>
       <use xlink:href="#DejaVuSans-31"/>
       <use xlink:href="#DejaVuSans-30" x="63.623047"/>
       <use xlink:href="#DejaVuSans-30" x="127.246094"/>
      </g>
     </g>
    </g>
    <g id="text_7">
     <!-- Epochs -->
     <g transform="translate(253.827031 345.53375)scale(0.18 -0.18)">
      <defs>
       <path id="Montserrat-Medium-45" d="M 3923 557 
L 3923 0 
L 672 0 
L 672 4480 
L 3834 4480 
L 3834 3923 
L 1312 3923 
L 1312 2547 
L 3558 2547 
L 3558 2003 
L 1312 2003 
L 1312 557 
L 3923 557 
z
" transform="scale(0.015625)"/>
       <path id="Montserrat-Medium-70" d="M 2381 3424 
Q 2874 3424 3264 3206 
Q 3654 2989 3875 2598 
Q 4096 2208 4096 1696 
Q 4096 1184 3875 790 
Q 3654 397 3264 179 
Q 2874 -38 2381 -38 
Q 2016 -38 1712 102 
Q 1408 243 1197 512 
L 1197 -1242 
L 582 -1242 
L 582 3392 
L 1171 3392 
L 1171 2854 
Q 1376 3136 1689 3280 
Q 2003 3424 2381 3424 
z
M 2330 499 
Q 2656 499 2915 649 
Q 3174 800 3324 1072 
Q 3475 1344 3475 1696 
Q 3475 2048 3324 2320 
Q 3174 2592 2915 2739 
Q 2656 2886 2330 2886 
Q 2010 2886 1750 2736 
Q 1491 2586 1340 2317 
Q 1190 2048 1190 1696 
Q 1190 1344 1337 1072 
Q 1485 800 1747 649 
Q 2010 499 2330 499 
z
" transform="scale(0.015625)"/>
       <path id="Montserrat-Medium-6f" d="M 2035 -38 
Q 1530 -38 1126 186 
Q 723 410 496 803 
Q 269 1197 269 1696 
Q 269 2195 496 2588 
Q 723 2982 1126 3203 
Q 1530 3424 2035 3424 
Q 2541 3424 2941 3203 
Q 3341 2982 3568 2588 
Q 3795 2195 3795 1696 
Q 3795 1197 3568 803 
Q 3341 410 2941 186 
Q 2541 -38 2035 -38 
z
M 2035 499 
Q 2362 499 2621 649 
Q 2880 800 3027 1072 
Q 3174 1344 3174 1696 
Q 3174 2048 3027 2320 
Q 2880 2592 2621 2739 
Q 2362 2886 2035 2886 
Q 1709 2886 1449 2739 
Q 1190 2592 1040 2320 
Q 890 2048 890 1696 
Q 890 1344 1040 1072 
Q 1190 800 1449 649 
Q 1709 499 2035 499 
z
" transform="scale(0.015625)"/>
       <path id="Montserrat-Medium-63" d="M 2061 -38 
Q 1542 -38 1136 186 
Q 730 410 499 803 
Q 269 1197 269 1696 
Q 269 2195 499 2588 
Q 730 2982 1136 3203 
Q 1542 3424 2061 3424 
Q 2522 3424 2883 3238 
Q 3245 3053 3443 2701 
L 2976 2400 
Q 2816 2643 2579 2764 
Q 2342 2886 2054 2886 
Q 1722 2886 1456 2739 
Q 1190 2592 1040 2320 
Q 890 2048 890 1696 
Q 890 1338 1040 1066 
Q 1190 794 1456 646 
Q 1722 499 2054 499 
Q 2342 499 2579 620 
Q 2816 742 2976 986 
L 3443 691 
Q 3245 339 2883 150 
Q 2522 -38 2061 -38 
z
" transform="scale(0.015625)"/>
       <path id="Montserrat-Medium-68" d="M 2394 3424 
Q 3040 3424 3421 3049 
Q 3802 2675 3802 1952 
L 3802 0 
L 3187 0 
L 3187 1882 
Q 3187 2374 2950 2624 
Q 2714 2874 2272 2874 
Q 1773 2874 1485 2582 
Q 1197 2291 1197 1747 
L 1197 0 
L 582 0 
L 582 4749 
L 1197 4749 
L 1197 2912 
Q 1389 3155 1699 3289 
Q 2010 3424 2394 3424 
z
" transform="scale(0.015625)"/>
       <path id="Montserrat-Medium-73" d="M 1555 -38 
Q 1139 -38 755 74 
Q 371 186 154 358 
L 410 845 
Q 634 685 954 589 
Q 1274 493 1600 493 
Q 2406 493 2406 954 
Q 2406 1107 2297 1196 
Q 2189 1286 2025 1328 
Q 1862 1370 1562 1421 
Q 1152 1485 893 1568 
Q 634 1651 448 1849 
Q 262 2048 262 2406 
Q 262 2867 646 3145 
Q 1030 3424 1677 3424 
Q 2016 3424 2355 3341 
Q 2694 3258 2912 3117 
L 2650 2630 
Q 2234 2899 1670 2899 
Q 1280 2899 1075 2771 
Q 870 2643 870 2432 
Q 870 2266 985 2170 
Q 1101 2074 1270 2029 
Q 1440 1984 1747 1926 
Q 2157 1856 2409 1776 
Q 2662 1696 2841 1504 
Q 3021 1312 3021 966 
Q 3021 506 2627 234 
Q 2234 -38 1555 -38 
z
" transform="scale(0.015625)"/>
      </defs>
      <use xlink:href="#Montserrat-Medium-45"/>
      <use xlink:href="#Montserrat-Medium-70" x="66.999985"/>
      <use xlink:href="#Montserrat-Medium-6f" x="135.199966"/>
      <use xlink:href="#Montserrat-Medium-63" x="198.699951"/>
      <use xlink:href="#Montserrat-Medium-68" x="255.799942"/>
      <use xlink:href="#Montserrat-Medium-73" x="323.899933"/>
     </g>
    </g>
   </g>
   <g id="matplotlib.axis_2">
    <g id="ytick_1">
     <g id="line2d_7">
      <defs>
       <path id="mf242d6deae" d="M 0 0 
L -3.5 0 
" style="stroke: #000000; stroke-width: 0.8"/>
      </defs>
      <g>
       <use xlink:href="#mf242d6deae" x="64.285625" y="303.756562" style="stroke: #000000; stroke-width: 0.8"/>
      </g>
     </g>
     <g id="text_8">
      <!-- 0.3 -->
      <g transform="translate(28.66 310.595156)scale(0.18 -0.18)">
       <defs>
        <path id="DejaVuSans-2e" d="M 684 794 
L 1344 794 
L 1344 0 
L 684 0 
L 684 794 
z
" transform="scale(0.015625)"/>
        <path id="DejaVuSans-33" d="M 2597 2516 
Q 3050 2419 3304 2112 
Q 3559 1806 3559 1356 
Q 3559 666 3084 287 
Q 2609 -91 1734 -91 
Q 1441 -91 1130 -33 
Q 819 25 488 141 
L 488 750 
Q 750 597 1062 519 
Q 1375 441 1716 441 
Q 2309 441 2620 675 
Q 2931 909 2931 1356 
Q 2931 1769 2642 2001 
Q 2353 2234 1838 2234 
L 1294 2234 
L 1294 2753 
L 1863 2753 
Q 2328 2753 2575 2939 
Q 2822 3125 2822 3475 
Q 2822 3834 2567 4026 
Q 2313 4219 1838 4219 
Q 1578 4219 1281 4162 
Q 984 4106 628 3988 
L 628 4550 
Q 988 4650 1302 4700 
Q 1616 4750 1894 4750 
Q 2613 4750 3031 4423 
Q 3450 4097 3450 3541 
Q 3450 3153 3228 2886 
Q 3006 2619 2597 2516 
z
" transform="scale(0.015625)"/>
       </defs>
       <use xlink:href="#DejaVuSans-30"/>
       <use xlink:href="#DejaVuSans-2e" x="63.623047"/>
       <use xlink:href="#DejaVuSans-33" x="95.410156"/>
      </g>
     </g>
    </g>
    <g id="ytick_2">
     <g id="line2d_8">
      <g>
       <use xlink:href="#mf242d6deae" x="64.285625" y="264.156563" style="stroke: #000000; stroke-width: 0.8"/>
      </g>
     </g>
     <g id="text_9">
      <!-- 0.4 -->
      <g transform="translate(28.66 270.995156)scale(0.18 -0.18)">
       <use xlink:href="#DejaVuSans-30"/>
       <use xlink:href="#DejaVuSans-2e" x="63.623047"/>
       <use xlink:href="#DejaVuSans-34" x="95.410156"/>
      </g>
     </g>
    </g>
    <g id="ytick_3">
     <g id="line2d_9">
      <g>
       <use xlink:href="#mf242d6deae" x="64.285625" y="224.556563" style="stroke: #000000; stroke-width: 0.8"/>
      </g>
     </g>
     <g id="text_10">
      <!-- 0.5 -->
      <g transform="translate(28.66 231.395156)scale(0.18 -0.18)">
       <defs>
        <path id="DejaVuSans-35" d="M 691 4666 
L 3169 4666 
L 3169 4134 
L 1269 4134 
L 1269 2991 
Q 1406 3038 1543 3061 
Q 1681 3084 1819 3084 
Q 2600 3084 3056 2656 
Q 3513 2228 3513 1497 
Q 3513 744 3044 326 
Q 2575 -91 1722 -91 
Q 1428 -91 1123 -41 
Q 819 9 494 109 
L 494 744 
Q 775 591 1075 516 
Q 1375 441 1709 441 
Q 2250 441 2565 725 
Q 2881 1009 2881 1497 
Q 2881 1984 2565 2268 
Q 2250 2553 1709 2553 
Q 1456 2553 1204 2497 
Q 953 2441 691 2322 
L 691 4666 
z
" transform="scale(0.015625)"/>
       </defs>
       <use xlink:href="#DejaVuSans-30"/>
       <use xlink:href="#DejaVuSans-2e" x="63.623047"/>
       <use xlink:href="#DejaVuSans-35" x="95.410156"/>
      </g>
     </g>
    </g>
    <g id="ytick_4">
     <g id="line2d_10">
      <g>
       <use xlink:href="#mf242d6deae" x="64.285625" y="184.956562" style="stroke: #000000; stroke-width: 0.8"/>
      </g>
     </g>
     <g id="text_11">
      <!-- 0.6 -->
      <g transform="translate(28.66 191.795156)scale(0.18 -0.18)">
       <use xlink:href="#DejaVuSans-30"/>
       <use xlink:href="#DejaVuSans-2e" x="63.623047"/>
       <use xlink:href="#DejaVuSans-36" x="95.410156"/>
      </g>
     </g>
    </g>
    <g id="ytick_5">
     <g id="line2d_11">
      <g>
       <use xlink:href="#mf242d6deae" x="64.285625" y="145.356562" style="stroke: #000000; stroke-width: 0.8"/>
      </g>
     </g>
     <g id="text_12">
      <!-- 0.7 -->
      <g transform="translate(28.66 152.195156)scale(0.18 -0.18)">
       <defs>
        <path id="DejaVuSans-37" d="M 525 4666 
L 3525 4666 
L 3525 4397 
L 1831 0 
L 1172 0 
L 2766 4134 
L 525 4134 
L 525 4666 
z
" transform="scale(0.015625)"/>
       </defs>
       <use xlink:href="#DejaVuSans-30"/>
       <use xlink:href="#DejaVuSans-2e" x="63.623047"/>
       <use xlink:href="#DejaVuSans-37" x="95.410156"/>
      </g>
     </g>
    </g>
    <g id="ytick_6">
     <g id="line2d_12">
      <g>
       <use xlink:href="#mf242d6deae" x="64.285625" y="105.756562" style="stroke: #000000; stroke-width: 0.8"/>
      </g>
     </g>
     <g id="text_13">
      <!-- 0.8 -->
      <g transform="translate(28.66 112.595156)scale(0.18 -0.18)">
       <use xlink:href="#DejaVuSans-30"/>
       <use xlink:href="#DejaVuSans-2e" x="63.623047"/>
       <use xlink:href="#DejaVuSans-38" x="95.410156"/>
      </g>
     </g>
    </g>
    <g id="ytick_7">
     <g id="line2d_13">
      <g>
       <use xlink:href="#mf242d6deae" x="64.285625" y="66.156562" style="stroke: #000000; stroke-width: 0.8"/>
      </g>
     </g>
     <g id="text_14">
      <!-- 0.9 -->
      <g transform="translate(28.66 72.995156)scale(0.18 -0.18)">
       <defs>
        <path id="DejaVuSans-39" d="M 703 97 
L 703 672 
Q 941 559 1184 500 
Q 1428 441 1663 441 
Q 2288 441 2617 861 
Q 2947 1281 2994 2138 
Q 2813 1869 2534 1725 
Q 2256 1581 1919 1581 
Q 1219 1581 811 2004 
Q 403 2428 403 3163 
Q 403 3881 828 4315 
Q 1253 4750 1959 4750 
Q 2769 4750 3195 4129 
Q 3622 3509 3622 2328 
Q 3622 1225 3098 567 
Q 2575 -91 1691 -91 
Q 1453 -91 1209 -44 
Q 966 3 703 97 
z
M 1959 2075 
Q 2384 2075 2632 2365 
Q 2881 2656 2881 3163 
Q 2881 3666 2632 3958 
Q 2384 4250 1959 4250 
Q 1534 4250 1286 3958 
Q 1038 3666 1038 3163 
Q 1038 2656 1286 2365 
Q 1534 2075 1959 2075 
z
" transform="scale(0.015625)"/>
       </defs>
       <use xlink:href="#DejaVuSans-30"/>
       <use xlink:href="#DejaVuSans-2e" x="63.623047"/>
       <use xlink:href="#DejaVuSans-39" x="95.410156"/>
      </g>
     </g>
    </g>
    <g id="ytick_8">
     <g id="line2d_14">
      <g>
       <use xlink:href="#mf242d6deae" x="64.285625" y="26.556562" style="stroke: #000000; stroke-width: 0.8"/>
      </g>
     </g>
     <g id="text_15">
      <!-- 1.0 -->
      <g transform="translate(28.66 33.395156)scale(0.18 -0.18)">
       <use xlink:href="#DejaVuSans-31"/>
       <use xlink:href="#DejaVuSans-2e" x="63.623047"/>
       <use xlink:href="#DejaVuSans-30" x="95.410156"/>
      </g>
     </g>
    </g>
    <g id="text_16">
     <!-- Cost function $J$ -->
     <g transform="translate(20.88 231.756563)rotate(-90)scale(0.18 -0.18)">
      <defs>
       <path id="Montserrat-Medium-43" d="M 2675 -51 
Q 2003 -51 1462 246 
Q 922 544 614 1065 
Q 307 1587 307 2240 
Q 307 2893 614 3414 
Q 922 3936 1466 4233 
Q 2010 4531 2682 4531 
Q 3206 4531 3641 4355 
Q 4077 4179 4384 3834 
L 3968 3430 
Q 3462 3962 2707 3962 
Q 2208 3962 1805 3738 
Q 1402 3514 1174 3120 
Q 947 2726 947 2240 
Q 947 1754 1174 1360 
Q 1402 966 1805 742 
Q 2208 518 2707 518 
Q 3456 518 3968 1056 
L 4384 653 
Q 4077 307 3638 128 
Q 3200 -51 2675 -51 
z
" transform="scale(0.015625)"/>
       <path id="Montserrat-Medium-74" d="M 2490 198 
Q 2355 83 2156 22 
Q 1958 -38 1747 -38 
Q 1235 -38 953 237 
Q 672 512 672 1024 
L 672 2886 
L 96 2886 
L 96 3392 
L 672 3392 
L 672 4134 
L 1286 4134 
L 1286 3392 
L 2259 3392 
L 2259 2886 
L 1286 2886 
L 1286 1050 
Q 1286 774 1424 627 
Q 1562 480 1818 480 
Q 2099 480 2298 640 
L 2490 198 
z
" transform="scale(0.015625)"/>
       <path id="Montserrat-Medium-20" transform="scale(0.015625)"/>
       <path id="Montserrat-Medium-66" d="M 1824 4282 
Q 1274 4282 1274 3686 
L 1274 3392 
L 2259 3392 
L 2259 2886 
L 1286 2886 
L 1286 0 
L 672 0 
L 672 2886 
L 96 2886 
L 96 3392 
L 672 3392 
L 672 3693 
Q 672 4198 966 4492 
Q 1261 4787 1792 4787 
Q 1997 4787 2176 4736 
Q 2355 4685 2483 4589 
L 2298 4122 
Q 2086 4282 1824 4282 
z
" transform="scale(0.015625)"/>
       <path id="Montserrat-Medium-75" d="M 3744 3392 
L 3744 0 
L 3162 0 
L 3162 512 
Q 2976 250 2672 106 
Q 2368 -38 2010 -38 
Q 1331 -38 940 336 
Q 550 710 550 1440 
L 550 3392 
L 1165 3392 
L 1165 1510 
Q 1165 1018 1401 765 
Q 1638 512 2080 512 
Q 2566 512 2848 806 
Q 3130 1101 3130 1638 
L 3130 3392 
L 3744 3392 
z
" transform="scale(0.015625)"/>
       <path id="Montserrat-Medium-6e" d="M 2394 3424 
Q 3040 3424 3421 3049 
Q 3802 2675 3802 1952 
L 3802 0 
L 3187 0 
L 3187 1882 
Q 3187 2374 2950 2624 
Q 2714 2874 2272 2874 
Q 1773 2874 1485 2582 
Q 1197 2291 1197 1747 
L 1197 0 
L 582 0 
L 582 3392 
L 1171 3392 
L 1171 2880 
Q 1357 3142 1673 3283 
Q 1990 3424 2394 3424 
z
" transform="scale(0.015625)"/>
       <path id="Montserrat-Medium-69" d="M 582 3392 
L 1197 3392 
L 1197 0 
L 582 0 
L 582 3392 
z
M 890 4045 
Q 710 4045 592 4160 
Q 474 4275 474 4442 
Q 474 4608 592 4726 
Q 710 4845 890 4845 
Q 1069 4845 1187 4733 
Q 1306 4621 1306 4454 
Q 1306 4282 1187 4163 
Q 1069 4045 890 4045 
z
" transform="scale(0.015625)"/>
       <path id="DejaVuSans-Oblique-4a" d="M 1069 4666 
L 1703 4666 
L 856 325 
Q 691 -522 298 -901 
Q -94 -1281 -800 -1281 
L -1050 -1281 
L -947 -750 
L -750 -750 
Q -328 -750 -109 -509 
Q 109 -269 225 325 
L 1069 4666 
z
" transform="scale(0.015625)"/>
      </defs>
      <use xlink:href="#Montserrat-Medium-43" transform="translate(0 0.296875)"/>
      <use xlink:href="#Montserrat-Medium-6f" transform="translate(72.299988 0.296875)"/>
      <use xlink:href="#Montserrat-Medium-73" transform="translate(135.799973 0.296875)"/>
      <use xlink:href="#Montserrat-Medium-74" transform="translate(185.899963 0.296875)"/>
      <use xlink:href="#Montserrat-Medium-20" transform="translate(227.299957 0.296875)"/>
      <use xlink:href="#Montserrat-Medium-66" transform="translate(254.199951 0.296875)"/>
      <use xlink:href="#Montserrat-Medium-75" transform="translate(289.499939 0.296875)"/>
      <use xlink:href="#Montserrat-Medium-6e" transform="translate(357.199921 0.296875)"/>
      <use xlink:href="#Montserrat-Medium-63" transform="translate(425.299911 0.296875)"/>
      <use xlink:href="#Montserrat-Medium-74" transform="translate(482.399902 0.296875)"/>
      <use xlink:href="#Montserrat-Medium-69" transform="translate(523.799896 0.296875)"/>
      <use xlink:href="#Montserrat-Medium-6f" transform="translate(551.69989 0.296875)"/>
      <use xlink:href="#Montserrat-Medium-6e" transform="translate(615.199875 0.296875)"/>
      <use xlink:href="#Montserrat-Medium-20" transform="translate(683.299866 0.296875)"/>
      <use xlink:href="#DejaVuSans-Oblique-4a" transform="translate(710.19986 0.296875)"/>
     </g>
    </g>
   </g>
   <g id="line2d_15">
    <path d="M 105.845925 -1 
L 108.925625 14.151586 
L 113.389625 32.110523 
L 117.853625 46.977928 
L 122.317625 59.493109 
L 126.781625 70.193964 
L 131.245625 79.47224 
L 135.709625 87.6294 
L 140.173625 94.849338 
L 144.637625 101.312125 
L 149.101625 107.145172 
L 153.565625 112.481957 
L 158.029625 117.344666 
L 162.493625 121.825897 
L 166.957625 125.990252 
L 171.421625 129.84316 
L 175.885625 133.427649 
L 180.349625 136.775206 
L 184.813625 139.962733 
L 189.277625 142.948167 
L 193.741625 145.757306 
L 198.205625 148.429782 
L 202.669625 150.970551 
L 207.133625 153.359455 
L 211.597625 155.653001 
L 216.061625 157.844533 
L 220.525625 159.926451 
L 224.989625 161.929628 
L 229.453625 163.862726 
L 233.917625 165.692158 
L 238.381625 167.454154 
L 242.845625 169.173146 
L 247.309625 170.798266 
L 251.773625 172.384087 
L 256.237625 173.890765 
L 260.701625 175.365083 
L 265.165625 176.781101 
L 269.629625 178.149439 
L 274.093625 179.486055 
L 278.557625 180.751671 
L 283.021625 181.98547 
L 287.485625 183.195878 
L 291.949625 184.359787 
L 296.413625 185.502524 
L 300.877625 186.589958 
L 305.341625 187.64515 
L 309.805625 188.68304 
L 314.269625 189.68732 
L 318.733625 190.690065 
L 323.197625 191.658891 
L 327.661625 192.556129 
L 332.125625 193.473713 
L 336.589625 194.348904 
L 341.053625 195.221807 
L 345.517625 196.072593 
L 349.981625 196.876573 
L 354.445625 197.677627 
L 358.909625 198.451819 
L 363.373625 199.210812 
L 367.837625 199.959466 
L 372.301625 200.692282 
L 376.765625 201.411006 
L 381.229625 202.114412 
L 385.693625 202.774058 
L 390.157625 203.435402 
L 394.621625 204.083624 
L 399.085625 204.71943 
L 403.549625 205.346573 
L 408.013625 205.96824 
L 412.477625 206.554455 
L 416.941625 207.139844 
L 421.405625 207.724761 
L 425.869625 208.270355 
L 430.333625 208.846184 
L 434.797625 209.358379 
L 439.261625 209.907466 
L 443.725625 210.418622 
L 448.189625 210.935372 
L 452.653625 211.453444 
L 457.117625 211.931319 
L 461.581625 212.435087 
L 466.045625 212.891932 
L 470.509625 213.349862 
L 474.973625 213.811758 
L 479.437625 214.268437 
L 483.901625 214.693016 
L 488.365625 215.138719 
L 492.829625 215.556854 
L 497.293625 216.009804 
L 501.757625 216.420905 
L 506.221625 216.786641 
" clip-path="url(#p62103b0e97)" style="fill: none; stroke: #000000; stroke-width: 2; stroke-linecap: square"/>
   </g>
   <g id="line2d_16">
    <path d="M 93.545743 -1 
L 95.533625 15.674055 
L 99.997625 43.323785 
L 104.461625 64.396086 
L 108.925625 80.970964 
L 113.389625 94.390227 
L 117.853625 105.564591 
L 122.317625 115.087871 
L 126.781625 123.302741 
L 131.245625 130.541538 
L 135.709625 137.027173 
L 140.173625 142.825688 
L 144.637625 148.088618 
L 149.101625 152.862437 
L 153.565625 157.244888 
L 158.029625 161.269392 
L 162.493625 164.968358 
L 166.957625 168.428339 
L 171.421625 171.610838 
L 175.885625 174.574864 
L 180.349625 177.353862 
L 184.813625 179.940114 
L 189.277625 182.379435 
L 193.741625 184.668048 
L 198.205625 186.816811 
L 202.669625 188.906966 
L 207.133625 190.774942 
L 211.597625 192.615846 
L 216.061625 194.365332 
L 220.525625 196.039029 
L 224.989625 197.647768 
L 229.453625 199.158129 
L 233.917625 200.610826 
L 238.381625 202.012634 
L 242.845625 203.356874 
L 247.309625 204.627423 
L 251.773625 205.868256 
L 256.237625 207.026359 
L 260.701625 208.25048 
L 265.165625 209.305507 
L 269.629625 210.356993 
L 274.093625 211.429321 
L 278.557625 212.384363 
L 283.021625 213.357462 
L 287.485625 214.238862 
L 291.949625 215.161756 
L 296.413625 216.042778 
L 300.877625 216.796625 
L 305.341625 217.644106 
L 309.805625 218.423138 
L 314.269625 219.164404 
L 318.733625 219.943719 
L 323.197625 220.686944 
L 327.661625 221.354898 
L 332.125625 222.070884 
L 336.589625 222.750876 
L 341.053625 223.364778 
L 345.517625 223.986917 
L 349.981625 224.59349 
L 354.445625 225.221637 
L 358.909625 225.778548 
L 363.373625 226.4216 
L 367.837625 226.929959 
L 372.301625 227.487992 
L 376.765625 228.05844 
L 381.229625 228.508321 
L 385.693625 229.042243 
L 390.157625 229.585865 
L 394.621625 230.041778 
L 399.085625 230.547729 
L 403.549625 230.999086 
L 408.013625 231.461843 
L 412.477625 231.930572 
L 416.941625 232.372959 
L 421.405625 232.821024 
L 425.869625 233.241424 
L 430.333625 233.690515 
L 434.797625 234.065704 
L 439.261625 234.525416 
L 443.725625 234.895282 
L 448.189625 235.327319 
L 452.653625 235.723609 
L 457.117625 236.143916 
L 461.581625 236.535721 
L 466.045625 236.87502 
L 470.509625 237.261244 
L 474.973625 237.598277 
L 479.437625 237.999901 
L 483.901625 238.35341 
L 488.365625 238.660727 
L 492.829625 239.044271 
L 497.293625 239.332375 
L 501.757625 239.742402 
L 506.221625 240.024003 
" clip-path="url(#p62103b0e97)" style="fill: none; stroke: #0000ff; stroke-width: 2; stroke-linecap: square"/>
   </g>
   <g id="line2d_17">
    <path d="M 78.341656 -1 
L 82.141625 44.908567 
L 86.605625 85.580125 
L 91.069625 113.164875 
L 95.533625 132.545234 
L 99.997625 146.864567 
L 104.461625 157.809883 
L 108.925625 166.516059 
L 113.389625 173.698279 
L 117.853625 179.740807 
L 122.317625 184.842171 
L 126.781625 189.32824 
L 131.245625 193.168072 
L 135.709625 196.793725 
L 140.173625 199.90598 
L 144.637625 202.734286 
L 149.101625 205.355613 
L 153.565625 207.710481 
L 158.029625 209.80708 
L 162.493625 211.846771 
L 166.957625 213.724449 
L 171.421625 215.417759 
L 175.885625 217.089496 
L 180.349625 218.621973 
L 184.813625 219.967511 
L 189.277625 221.369886 
L 193.741625 222.623417 
L 198.205625 223.868475 
L 202.669625 225.027534 
L 207.133625 226.165975 
L 211.597625 227.13309 
L 216.061625 228.171701 
L 220.525625 229.109973 
L 224.989625 230.076616 
L 229.453625 230.90669 
L 233.917625 231.750737 
L 238.381625 232.556665 
L 242.845625 233.286106 
L 247.309625 234.045794 
L 251.773625 234.770443 
L 256.237625 235.453114 
L 260.701625 236.150348 
L 265.165625 236.799973 
L 269.629625 237.437856 
L 274.093625 238.05413 
L 278.557625 238.631223 
L 283.021625 239.214452 
L 287.485625 239.722126 
L 291.949625 240.33355 
L 296.413625 240.814057 
L 300.877625 241.291838 
L 305.341625 241.824532 
L 309.805625 242.241581 
L 314.269625 242.715101 
L 318.733625 243.172383 
L 323.197625 243.660997 
L 327.661625 244.051918 
L 332.125625 244.51281 
L 336.589625 244.877035 
L 341.053625 245.307715 
L 345.517625 245.777223 
L 349.981625 246.074343 
L 354.445625 246.474339 
L 358.909625 246.834881 
L 363.373625 247.200156 
L 367.837625 247.492756 
L 372.301625 247.90479 
L 376.765625 248.322618 
L 381.229625 248.544419 
L 385.693625 248.92303 
L 390.157625 249.19526 
L 394.621625 249.504159 
L 399.085625 249.869752 
L 403.549625 250.164276 
L 408.013625 250.544905 
L 412.477625 250.696675 
L 416.941625 251.034618 
L 421.405625 251.240144 
L 425.869625 251.612654 
L 430.333625 251.813838 
L 434.797625 252.145856 
L 439.261625 252.386906 
L 443.725625 252.610005 
L 448.189625 252.937515 
L 452.653625 253.111614 
L 457.117625 253.382463 
L 461.581625 253.667935 
L 466.045625 253.854756 
L 470.509625 254.124874 
L 474.973625 254.293344 
L 479.437625 254.611341 
L 483.901625 254.774571 
L 488.365625 255.034362 
L 492.829625 255.223001 
L 497.293625 255.446183 
L 501.757625 255.64215 
L 506.221625 255.867953 
" clip-path="url(#p62103b0e97)" style="fill: none; stroke: #ff0000; stroke-width: 2; stroke-linecap: square"/>
   </g>
   <g id="line2d_18">
    <path d="M 67.050952 -1 
L 68.749625 77.73354 
L 73.213625 126.06583 
L 77.677625 152.00254 
L 82.141625 169.781619 
L 86.605625 182.517374 
L 91.069625 192.303548 
L 95.533625 199.949411 
L 99.997625 206.107855 
L 104.461625 211.147803 
L 108.925625 215.403692 
L 113.389625 218.932642 
L 117.853625 222.068571 
L 122.317625 224.794226 
L 126.781625 227.206403 
L 131.245625 229.333745 
L 135.709625 231.380647 
L 140.173625 233.159214 
L 144.637625 234.680975 
L 149.101625 236.094573 
L 153.565625 237.460551 
L 158.029625 238.768724 
L 162.493625 239.870757 
L 166.957625 241.149568 
L 171.421625 242.082211 
L 175.885625 243.035034 
L 180.349625 243.948157 
L 184.813625 244.85801 
L 189.277625 245.697868 
L 193.741625 246.463351 
L 198.205625 247.192402 
L 202.669625 247.987189 
L 207.133625 248.714671 
L 211.597625 249.438824 
L 216.061625 250.003572 
L 220.525625 250.499055 
L 224.989625 251.134224 
L 229.453625 251.578665 
L 233.917625 252.187433 
L 238.381625 252.787527 
L 242.845625 253.234694 
L 247.309625 253.802074 
L 251.773625 254.25585 
L 256.237625 254.606679 
L 260.701625 255.093854 
L 265.165625 255.57835 
L 269.629625 255.895769 
L 274.093625 256.363082 
L 278.557625 256.767303 
L 283.021625 257.065981 
L 287.485625 257.520972 
L 291.949625 257.873348 
L 296.413625 258.344768 
L 300.877625 258.718906 
L 305.341625 258.825204 
L 309.805625 259.198044 
L 314.269625 259.601981 
L 318.733625 260.007158 
L 323.197625 260.317307 
L 327.661625 260.576473 
L 332.125625 260.913672 
L 336.589625 261.297582 
L 341.053625 261.421394 
L 345.517625 261.804005 
L 349.981625 262.068387 
L 354.445625 262.396157 
L 358.909625 262.698835 
L 363.373625 262.973886 
L 367.837625 263.230338 
L 372.301625 263.497906 
L 376.765625 263.744243 
L 381.229625 263.979062 
L 385.693625 264.271674 
L 390.157625 264.440604 
L 394.621625 264.636619 
L 399.085625 264.916685 
L 403.549625 265.438675 
L 408.013625 265.465123 
L 412.477625 265.737023 
L 416.941625 265.981271 
L 421.405625 266.061806 
L 425.869625 266.368344 
L 430.333625 266.579453 
L 434.797625 266.939736 
L 439.261625 267.085157 
L 443.725625 267.360208 
L 448.189625 267.609838 
L 452.653625 267.737839 
L 457.117625 267.978323 
L 461.581625 268.132689 
L 466.045625 268.318472 
L 470.509625 268.516493 
L 474.973625 268.752834 
L 479.437625 268.906457 
L 483.901625 269.125556 
L 488.365625 269.24198 
L 492.829625 269.459663 
L 497.293625 269.723667 
L 501.757625 269.844552 
L 506.221625 270.024458 
" clip-path="url(#p62103b0e97)" style="fill: none; stroke: #008000; stroke-width: 2; stroke-linecap: square"/>
   </g>
   <g id="line2d_19">
    <path d="M 66.209605 -1 
L 68.749625 125.158986 
L 73.213625 168.719063 
L 77.677625 190.486084 
L 82.141625 203.985599 
L 86.605625 213.587926 
L 91.069625 220.716141 
L 95.533625 226.266525 
L 99.997625 230.807332 
L 104.461625 234.367674 
L 108.925625 237.644776 
L 113.389625 240.351772 
L 117.853625 242.596364 
L 122.317625 244.78484 
L 126.781625 246.713831 
L 131.245625 248.550592 
L 135.709625 250.151471 
L 140.173625 251.534822 
L 144.637625 252.931921 
L 149.101625 254.238206 
L 153.565625 255.479122 
L 158.029625 256.476202 
L 162.493625 257.587534 
L 166.957625 258.705452 
L 171.421625 259.45564 
L 175.885625 260.404557 
L 180.349625 261.348754 
L 184.813625 262.178108 
L 189.277625 262.891451 
L 193.741625 263.673799 
L 198.205625 264.325608 
L 202.669625 265.110635 
L 207.133625 265.696814 
L 211.597625 266.318269 
L 216.061625 267.017509 
L 220.525625 267.547501 
L 224.989625 268.102359 
L 229.453625 268.78726 
L 233.917625 269.397267 
L 238.381625 269.820394 
L 242.845625 270.202652 
L 247.309625 270.877474 
L 251.773625 271.372993 
L 256.237625 271.728626 
L 260.701625 272.248397 
L 265.165625 272.674888 
L 269.629625 273.287987 
L 274.093625 273.620359 
L 278.557625 274.064977 
L 283.021625 274.520217 
L 287.485625 274.811377 
L 291.949625 275.177195 
L 296.413625 275.717832 
L 300.877625 276.045353 
L 305.341625 276.513987 
L 309.805625 276.803779 
L 314.269625 277.215694 
L 318.733625 277.554156 
L 323.197625 277.92519 
L 327.661625 278.246326 
L 332.125625 278.694261 
L 336.589625 278.888918 
L 341.053625 279.235747 
L 345.517625 279.56413 
L 349.981625 279.791337 
L 354.445625 280.124098 
L 358.909625 280.526784 
L 363.373625 280.660769 
L 367.837625 281.103582 
L 372.301625 281.252366 
L 376.765625 281.590131 
L 381.229625 281.870977 
L 385.693625 281.954911 
L 390.157625 282.50179 
L 394.621625 282.640095 
L 399.085625 282.970732 
L 403.549625 283.271263 
L 408.013625 283.539846 
L 412.477625 283.724909 
L 416.941625 284.097678 
L 421.405625 284.211812 
L 425.869625 284.443775 
L 430.333625 284.60383 
L 434.797625 284.9094 
L 439.261625 285.23252 
L 443.725625 285.39831 
L 448.189625 285.799805 
L 452.653625 285.886842 
L 457.117625 286.116598 
L 461.581625 286.237259 
L 466.045625 286.439611 
L 470.509625 286.622314 
L 474.973625 286.775028 
L 479.437625 287.054528 
L 483.901625 287.185834 
L 488.365625 287.602045 
L 492.829625 287.739854 
L 497.293625 287.827505 
L 501.757625 288.059067 
L 506.221625 288.20018 
" clip-path="url(#p62103b0e97)" style="fill: none; stroke: #ff00ff; stroke-width: 2; stroke-linecap: square"/>
   </g>
   <g id="line2d_20">
    <path d="M 64.285625 8.999711 
L 68.749625 169.505647 
L 73.213625 201.723634 
L 77.677625 218.846159 
L 82.141625 229.770999 
L 86.605625 236.762243 
L 91.069625 241.932069 
L 95.533625 246.332576 
L 99.997625 249.673879 
L 104.461625 252.749632 
L 108.925625 255.041998 
L 113.389625 257.149502 
L 117.853625 259.149574 
L 122.317625 260.820993 
L 126.781625 262.625924 
L 131.245625 264.014149 
L 135.709625 265.622676 
L 140.173625 266.603363 
L 144.637625 267.952548 
L 149.101625 268.909266 
L 153.565625 269.880359 
L 158.029625 270.867549 
L 162.493625 271.611034 
L 166.957625 272.590718 
L 171.421625 273.223892 
L 175.885625 273.891161 
L 180.349625 274.845212 
L 184.813625 275.702064 
L 189.277625 276.04972 
L 193.741625 276.971387 
L 198.205625 277.576945 
L 202.669625 277.919678 
L 207.133625 278.659693 
L 211.597625 279.243265 
L 216.061625 279.734028 
L 220.525625 280.270652 
L 224.989625 280.827256 
L 229.453625 281.159286 
L 233.917625 281.679895 
L 238.381625 282.316633 
L 242.845625 282.549753 
L 247.309625 282.984162 
L 251.773625 283.37618 
L 256.237625 283.941482 
L 260.701625 284.332296 
L 265.165625 284.721847 
L 269.629625 285.089188 
L 274.093625 285.643739 
L 278.557625 285.973018 
L 283.021625 286.13626 
L 287.485625 286.644501 
L 291.949625 287.014426 
L 296.413625 287.505543 
L 300.877625 287.612926 
L 305.341625 287.940979 
L 309.805625 288.284869 
L 314.269625 288.412753 
L 318.733625 288.986222 
L 323.197625 289.158067 
L 327.661625 289.463188 
L 332.125625 289.610403 
L 336.589625 290.011779 
L 341.053625 290.289545 
L 345.517625 290.672569 
L 349.981625 290.822321 
L 354.445625 291.386054 
L 358.909625 291.394339 
L 363.373625 291.862537 
L 367.837625 292.081282 
L 372.301625 292.296781 
L 376.765625 292.502072 
L 381.229625 292.813673 
L 385.693625 293.069393 
L 390.157625 293.237402 
L 394.621625 293.360978 
L 399.085625 293.878377 
L 403.549625 293.764207 
L 408.013625 294.207881 
L 412.477625 294.348014 
L 416.941625 294.694749 
L 421.405625 294.979324 
L 425.869625 295.158568 
L 430.333625 295.406865 
L 434.797625 295.727163 
L 439.261625 295.698261 
L 443.725625 296.257084 
L 448.189625 296.46247 
L 452.653625 296.55955 
L 457.117625 296.718767 
L 461.581625 296.775062 
L 466.045625 297.094935 
L 470.509625 297.277237 
L 474.973625 297.540427 
L 479.437625 297.51798 
L 483.901625 297.90798 
L 488.365625 298.083778 
L 492.829625 298.35078 
L 497.293625 298.463014 
L 501.757625 298.775925 
L 506.221625 298.760288 
" clip-path="url(#p62103b0e97)" style="fill: none; stroke: #ffff00; stroke-width: 2; stroke-linecap: square"/>
   </g>
   <g id="patch_3">
    <path d="M 64.285625 303.756563 
L 64.285625 26.556562 
" style="fill: none; stroke: #000000; stroke-width: 0.8; stroke-linejoin: miter; stroke-linecap: square"/>
   </g>
   <g id="patch_4">
    <path d="M 510.685625 303.756563 
L 510.685625 26.556562 
" style="fill: none; stroke: #000000; stroke-width: 0.8; stroke-linejoin: miter; stroke-linecap: square"/>
   </g>
   <g id="patch_5">
    <path d="M 64.285625 303.756563 
L 510.685625 303.756563 
" style="fill: none; stroke: #000000; stroke-width: 0.8; stroke-linejoin: miter; stroke-linecap: square"/>
   </g>
   <g id="patch_6">
    <path d="M 64.285625 26.556563 
L 510.685625 26.556563 
" style="fill: none; stroke: #000000; stroke-width: 0.8; stroke-linejoin: miter; stroke-linecap: square"/>
   </g>
   <g id="text_17">
    <!-- ReLU with He init -->
    <g transform="translate(207.551563 20.556563)scale(0.18 -0.18)">
     <defs>
      <path id="Montserrat-Medium-52" d="M 3667 0 
L 2701 1376 
Q 2522 1363 2419 1363 
L 1312 1363 
L 1312 0 
L 672 0 
L 672 4480 
L 2419 4480 
Q 3290 4480 3789 4064 
Q 4288 3648 4288 2918 
Q 4288 2400 4032 2035 
Q 3776 1670 3302 1504 
L 4365 0 
L 3667 0 
z
M 2400 1907 
Q 3008 1907 3328 2169 
Q 3648 2432 3648 2918 
Q 3648 3405 3328 3664 
Q 3008 3923 2400 3923 
L 1312 3923 
L 1312 1907 
L 2400 1907 
z
" transform="scale(0.015625)"/>
      <path id="Montserrat-Medium-65" d="M 3648 1677 
Q 3648 1606 3635 1491 
L 883 1491 
Q 941 1043 1277 771 
Q 1613 499 2112 499 
Q 2720 499 3091 909 
L 3430 512 
Q 3200 243 2857 102 
Q 2515 -38 2093 -38 
Q 1555 -38 1139 182 
Q 723 403 496 800 
Q 269 1197 269 1696 
Q 269 2189 489 2585 
Q 710 2982 1097 3203 
Q 1485 3424 1971 3424 
Q 2458 3424 2838 3203 
Q 3219 2982 3433 2585 
Q 3648 2189 3648 1677 
z
M 1971 2906 
Q 1530 2906 1232 2637 
Q 934 2368 883 1933 
L 3059 1933 
Q 3008 2362 2710 2634 
Q 2413 2906 1971 2906 
z
" transform="scale(0.015625)"/>
      <path id="Montserrat-Medium-4c" d="M 672 4480 
L 1312 4480 
L 1312 557 
L 3738 557 
L 3738 0 
L 672 0 
L 672 4480 
z
" transform="scale(0.015625)"/>
      <path id="Montserrat-Medium-55" d="M 2528 -51 
Q 1632 -51 1133 461 
Q 634 973 634 1933 
L 634 4480 
L 1274 4480 
L 1274 1958 
Q 1274 518 2534 518 
Q 3149 518 3475 873 
Q 3802 1229 3802 1958 
L 3802 4480 
L 4422 4480 
L 4422 1933 
Q 4422 966 3923 457 
Q 3424 -51 2528 -51 
z
" transform="scale(0.015625)"/>
      <path id="Montserrat-Medium-77" d="M 5715 3392 
L 4448 0 
L 3859 0 
L 2880 2573 
L 1888 0 
L 1299 0 
L 38 3392 
L 621 3392 
L 1606 691 
L 2630 3392 
L 3149 3392 
L 4154 678 
L 5165 3392 
L 5715 3392 
z
" transform="scale(0.015625)"/>
      <path id="Montserrat-Medium-48" d="M 4525 4480 
L 4525 0 
L 3885 0 
L 3885 1997 
L 1312 1997 
L 1312 0 
L 672 0 
L 672 4480 
L 1312 4480 
L 1312 2554 
L 3885 2554 
L 3885 4480 
L 4525 4480 
z
" transform="scale(0.015625)"/>
     </defs>
     <use xlink:href="#Montserrat-Medium-52"/>
     <use xlink:href="#Montserrat-Medium-65" x="72.699982"/>
     <use xlink:href="#Montserrat-Medium-4c" x="133.899979"/>
     <use xlink:href="#Montserrat-Medium-55" x="193.299973"/>
     <use xlink:href="#Montserrat-Medium-20" x="272.399963"/>
     <use xlink:href="#Montserrat-Medium-77" x="299.299957"/>
     <use xlink:href="#Montserrat-Medium-69" x="389.199951"/>
     <use xlink:href="#Montserrat-Medium-74" x="417.099945"/>
     <use xlink:href="#Montserrat-Medium-68" x="458.499939"/>
     <use xlink:href="#Montserrat-Medium-20" x="526.59993"/>
     <use xlink:href="#Montserrat-Medium-48" x="553.499924"/>
     <use xlink:href="#Montserrat-Medium-65" x="634.699905"/>
     <use xlink:href="#Montserrat-Medium-20" x="695.899902"/>
     <use xlink:href="#Montserrat-Medium-69" x="722.799896"/>
     <use xlink:href="#Montserrat-Medium-6e" x="750.69989"/>
     <use xlink:href="#Montserrat-Medium-69" x="818.799881"/>
     <use xlink:href="#Montserrat-Medium-74" x="846.699875"/>
    </g>
   </g>
   <g id="legend_1">
    <g id="patch_7">
     <path d="M 259.470312 199.480312 
L 498.085625 199.480312 
Q 501.685625 199.480312 501.685625 195.880313 
L 501.685625 39.156563 
Q 501.685625 35.556563 498.085625 35.556563 
L 259.470312 35.556563 
Q 255.870312 35.556563 255.870312 39.156563 
L 255.870312 195.880313 
Q 255.870312 199.480312 259.470312 199.480312 
z
" style="fill: #f1f7f0; opacity: 0.8; stroke: #cccccc; stroke-linejoin: miter"/>
    </g>
    <g id="line2d_21">
     <path d="M 263.070312 50.13375 
L 281.070312 50.13375 
L 299.070312 50.13375 
" style="fill: none; stroke: #000000; stroke-width: 2; stroke-linecap: square"/>
    </g>
    <g id="text_18">
     <!-- Mini-batch size: 200 -->
     <g transform="translate(313.470312 56.43375)scale(0.18 -0.18)">
      <defs>
       <path id="DejaVuSans-4d" d="M 628 4666 
L 1569 4666 
L 2759 1491 
L 3956 4666 
L 4897 4666 
L 4897 0 
L 4281 0 
L 4281 4097 
L 3078 897 
L 2444 897 
L 1241 4097 
L 1241 0 
L 628 0 
L 628 4666 
z
" transform="scale(0.015625)"/>
       <path id="DejaVuSans-69" d="M 603 3500 
L 1178 3500 
L 1178 0 
L 603 0 
L 603 3500 
z
M 603 4863 
L 1178 4863 
L 1178 4134 
L 603 4134 
L 603 4863 
z
" transform="scale(0.015625)"/>
       <path id="DejaVuSans-6e" d="M 3513 2113 
L 3513 0 
L 2938 0 
L 2938 2094 
Q 2938 2591 2744 2837 
Q 2550 3084 2163 3084 
Q 1697 3084 1428 2787 
Q 1159 2491 1159 1978 
L 1159 0 
L 581 0 
L 581 3500 
L 1159 3500 
L 1159 2956 
Q 1366 3272 1645 3428 
Q 1925 3584 2291 3584 
Q 2894 3584 3203 3211 
Q 3513 2838 3513 2113 
z
" transform="scale(0.015625)"/>
       <path id="DejaVuSans-2d" d="M 313 2009 
L 1997 2009 
L 1997 1497 
L 313 1497 
L 313 2009 
z
" transform="scale(0.015625)"/>
       <path id="DejaVuSans-62" d="M 3116 1747 
Q 3116 2381 2855 2742 
Q 2594 3103 2138 3103 
Q 1681 3103 1420 2742 
Q 1159 2381 1159 1747 
Q 1159 1113 1420 752 
Q 1681 391 2138 391 
Q 2594 391 2855 752 
Q 3116 1113 3116 1747 
z
M 1159 2969 
Q 1341 3281 1617 3432 
Q 1894 3584 2278 3584 
Q 2916 3584 3314 3078 
Q 3713 2572 3713 1747 
Q 3713 922 3314 415 
Q 2916 -91 2278 -91 
Q 1894 -91 1617 61 
Q 1341 213 1159 525 
L 1159 0 
L 581 0 
L 581 4863 
L 1159 4863 
L 1159 2969 
z
" transform="scale(0.015625)"/>
       <path id="DejaVuSans-61" d="M 2194 1759 
Q 1497 1759 1228 1600 
Q 959 1441 959 1056 
Q 959 750 1161 570 
Q 1363 391 1709 391 
Q 2188 391 2477 730 
Q 2766 1069 2766 1631 
L 2766 1759 
L 2194 1759 
z
M 3341 1997 
L 3341 0 
L 2766 0 
L 2766 531 
Q 2569 213 2275 61 
Q 1981 -91 1556 -91 
Q 1019 -91 701 211 
Q 384 513 384 1019 
Q 384 1609 779 1909 
Q 1175 2209 1959 2209 
L 2766 2209 
L 2766 2266 
Q 2766 2663 2505 2880 
Q 2244 3097 1772 3097 
Q 1472 3097 1187 3025 
Q 903 2953 641 2809 
L 641 3341 
Q 956 3463 1253 3523 
Q 1550 3584 1831 3584 
Q 2591 3584 2966 3190 
Q 3341 2797 3341 1997 
z
" transform="scale(0.015625)"/>
       <path id="DejaVuSans-74" d="M 1172 4494 
L 1172 3500 
L 2356 3500 
L 2356 3053 
L 1172 3053 
L 1172 1153 
Q 1172 725 1289 603 
Q 1406 481 1766 481 
L 2356 481 
L 2356 0 
L 1766 0 
Q 1100 0 847 248 
Q 594 497 594 1153 
L 594 3053 
L 172 3053 
L 172 3500 
L 594 3500 
L 594 4494 
L 1172 4494 
z
" transform="scale(0.015625)"/>
       <path id="DejaVuSans-63" d="M 3122 3366 
L 3122 2828 
Q 2878 2963 2633 3030 
Q 2388 3097 2138 3097 
Q 1578 3097 1268 2742 
Q 959 2388 959 1747 
Q 959 1106 1268 751 
Q 1578 397 2138 397 
Q 2388 397 2633 464 
Q 2878 531 3122 666 
L 3122 134 
Q 2881 22 2623 -34 
Q 2366 -91 2075 -91 
Q 1284 -91 818 406 
Q 353 903 353 1747 
Q 353 2603 823 3093 
Q 1294 3584 2113 3584 
Q 2378 3584 2631 3529 
Q 2884 3475 3122 3366 
z
" transform="scale(0.015625)"/>
       <path id="DejaVuSans-68" d="M 3513 2113 
L 3513 0 
L 2938 0 
L 2938 2094 
Q 2938 2591 2744 2837 
Q 2550 3084 2163 3084 
Q 1697 3084 1428 2787 
Q 1159 2491 1159 1978 
L 1159 0 
L 581 0 
L 581 4863 
L 1159 4863 
L 1159 2956 
Q 1366 3272 1645 3428 
Q 1925 3584 2291 3584 
Q 2894 3584 3203 3211 
Q 3513 2838 3513 2113 
z
" transform="scale(0.015625)"/>
       <path id="DejaVuSans-20" transform="scale(0.015625)"/>
       <path id="DejaVuSans-73" d="M 2834 3397 
L 2834 2853 
Q 2591 2978 2328 3040 
Q 2066 3103 1784 3103 
Q 1356 3103 1142 2972 
Q 928 2841 928 2578 
Q 928 2378 1081 2264 
Q 1234 2150 1697 2047 
L 1894 2003 
Q 2506 1872 2764 1633 
Q 3022 1394 3022 966 
Q 3022 478 2636 193 
Q 2250 -91 1575 -91 
Q 1294 -91 989 -36 
Q 684 19 347 128 
L 347 722 
Q 666 556 975 473 
Q 1284 391 1588 391 
Q 1994 391 2212 530 
Q 2431 669 2431 922 
Q 2431 1156 2273 1281 
Q 2116 1406 1581 1522 
L 1381 1569 
Q 847 1681 609 1914 
Q 372 2147 372 2553 
Q 372 3047 722 3315 
Q 1072 3584 1716 3584 
Q 2034 3584 2315 3537 
Q 2597 3491 2834 3397 
z
" transform="scale(0.015625)"/>
       <path id="DejaVuSans-7a" d="M 353 3500 
L 3084 3500 
L 3084 2975 
L 922 459 
L 3084 459 
L 3084 0 
L 275 0 
L 275 525 
L 2438 3041 
L 353 3041 
L 353 3500 
z
" transform="scale(0.015625)"/>
       <path id="DejaVuSans-65" d="M 3597 1894 
L 3597 1613 
L 953 1613 
Q 991 1019 1311 708 
Q 1631 397 2203 397 
Q 2534 397 2845 478 
Q 3156 559 3463 722 
L 3463 178 
Q 3153 47 2828 -22 
Q 2503 -91 2169 -91 
Q 1331 -91 842 396 
Q 353 884 353 1716 
Q 353 2575 817 3079 
Q 1281 3584 2069 3584 
Q 2775 3584 3186 3129 
Q 3597 2675 3597 1894 
z
M 3022 2063 
Q 3016 2534 2758 2815 
Q 2500 3097 2075 3097 
Q 1594 3097 1305 2825 
Q 1016 2553 972 2059 
L 3022 2063 
z
" transform="scale(0.015625)"/>
       <path id="DejaVuSans-3a" d="M 750 794 
L 1409 794 
L 1409 0 
L 750 0 
L 750 794 
z
M 750 3309 
L 1409 3309 
L 1409 2516 
L 750 2516 
L 750 3309 
z
" transform="scale(0.015625)"/>
      </defs>
      <use xlink:href="#DejaVuSans-4d"/>
      <use xlink:href="#DejaVuSans-69" x="86.279297"/>
      <use xlink:href="#DejaVuSans-6e" x="114.0625"/>
      <use xlink:href="#DejaVuSans-69" x="177.441406"/>
      <use xlink:href="#DejaVuSans-2d" x="205.224609"/>
      <use xlink:href="#DejaVuSans-62" x="241.308594"/>
      <use xlink:href="#DejaVuSans-61" x="304.785156"/>
      <use xlink:href="#DejaVuSans-74" x="366.064453"/>
      <use xlink:href="#DejaVuSans-63" x="405.273438"/>
      <use xlink:href="#DejaVuSans-68" x="460.253906"/>
      <use xlink:href="#DejaVuSans-20" x="523.632812"/>
      <use xlink:href="#DejaVuSans-73" x="555.419922"/>
      <use xlink:href="#DejaVuSans-69" x="607.519531"/>
      <use xlink:href="#DejaVuSans-7a" x="635.302734"/>
      <use xlink:href="#DejaVuSans-65" x="687.792969"/>
      <use xlink:href="#DejaVuSans-3a" x="749.316406"/>
      <use xlink:href="#DejaVuSans-20" x="783.007812"/>
      <use xlink:href="#DejaVuSans-32" x="814.794922"/>
      <use xlink:href="#DejaVuSans-30" x="878.417969"/>
      <use xlink:href="#DejaVuSans-30" x="942.041016"/>
     </g>
    </g>
    <g id="line2d_22">
     <path d="M 263.070312 76.554375 
L 281.070312 76.554375 
L 299.070312 76.554375 
" style="fill: none; stroke: #0000ff; stroke-width: 2; stroke-linecap: square"/>
    </g>
    <g id="text_19">
     <!-- Mini-batch size: 100 -->
     <g transform="translate(313.470312 82.854375)scale(0.18 -0.18)">
      <use xlink:href="#DejaVuSans-4d"/>
      <use xlink:href="#DejaVuSans-69" x="86.279297"/>
      <use xlink:href="#DejaVuSans-6e" x="114.0625"/>
      <use xlink:href="#DejaVuSans-69" x="177.441406"/>
      <use xlink:href="#DejaVuSans-2d" x="205.224609"/>
      <use xlink:href="#DejaVuSans-62" x="241.308594"/>
      <use xlink:href="#DejaVuSans-61" x="304.785156"/>
      <use xlink:href="#DejaVuSans-74" x="366.064453"/>
      <use xlink:href="#DejaVuSans-63" x="405.273438"/>
      <use xlink:href="#DejaVuSans-68" x="460.253906"/>
      <use xlink:href="#DejaVuSans-20" x="523.632812"/>
      <use xlink:href="#DejaVuSans-73" x="555.419922"/>
      <use xlink:href="#DejaVuSans-69" x="607.519531"/>
      <use xlink:href="#DejaVuSans-7a" x="635.302734"/>
      <use xlink:href="#DejaVuSans-65" x="687.792969"/>
      <use xlink:href="#DejaVuSans-3a" x="749.316406"/>
      <use xlink:href="#DejaVuSans-20" x="783.007812"/>
      <use xlink:href="#DejaVuSans-31" x="814.794922"/>
      <use xlink:href="#DejaVuSans-30" x="878.417969"/>
      <use xlink:href="#DejaVuSans-30" x="942.041016"/>
     </g>
    </g>
    <g id="line2d_23">
     <path d="M 263.070312 102.975 
L 281.070312 102.975 
L 299.070312 102.975 
" style="fill: none; stroke: #ff0000; stroke-width: 2; stroke-linecap: square"/>
    </g>
    <g id="text_20">
     <!-- Mini-batch size: 50 -->
     <g transform="translate(313.470312 109.275)scale(0.18 -0.18)">
      <use xlink:href="#DejaVuSans-4d"/>
      <use xlink:href="#DejaVuSans-69" x="86.279297"/>
      <use xlink:href="#DejaVuSans-6e" x="114.0625"/>
      <use xlink:href="#DejaVuSans-69" x="177.441406"/>
      <use xlink:href="#DejaVuSans-2d" x="205.224609"/>
      <use xlink:href="#DejaVuSans-62" x="241.308594"/>
      <use xlink:href="#DejaVuSans-61" x="304.785156"/>
      <use xlink:href="#DejaVuSans-74" x="366.064453"/>
      <use xlink:href="#DejaVuSans-63" x="405.273438"/>
      <use xlink:href="#DejaVuSans-68" x="460.253906"/>
      <use xlink:href="#DejaVuSans-20" x="523.632812"/>
      <use xlink:href="#DejaVuSans-73" x="555.419922"/>
      <use xlink:href="#DejaVuSans-69" x="607.519531"/>
      <use xlink:href="#DejaVuSans-7a" x="635.302734"/>
      <use xlink:href="#DejaVuSans-65" x="687.792969"/>
      <use xlink:href="#DejaVuSans-3a" x="749.316406"/>
      <use xlink:href="#DejaVuSans-20" x="783.007812"/>
      <use xlink:href="#DejaVuSans-35" x="814.794922"/>
      <use xlink:href="#DejaVuSans-30" x="878.417969"/>
     </g>
    </g>
    <g id="line2d_24">
     <path d="M 263.070312 129.395625 
L 281.070312 129.395625 
L 299.070312 129.395625 
" style="fill: none; stroke: #008000; stroke-width: 2; stroke-linecap: square"/>
    </g>
    <g id="text_21">
     <!-- Mini-batch size: 20 -->
     <g transform="translate(313.470312 135.695625)scale(0.18 -0.18)">
      <use xlink:href="#DejaVuSans-4d"/>
      <use xlink:href="#DejaVuSans-69" x="86.279297"/>
      <use xlink:href="#DejaVuSans-6e" x="114.0625"/>
      <use xlink:href="#DejaVuSans-69" x="177.441406"/>
      <use xlink:href="#DejaVuSans-2d" x="205.224609"/>
      <use xlink:href="#DejaVuSans-62" x="241.308594"/>
      <use xlink:href="#DejaVuSans-61" x="304.785156"/>
      <use xlink:href="#DejaVuSans-74" x="366.064453"/>
      <use xlink:href="#DejaVuSans-63" x="405.273438"/>
      <use xlink:href="#DejaVuSans-68" x="460.253906"/>
      <use xlink:href="#DejaVuSans-20" x="523.632812"/>
      <use xlink:href="#DejaVuSans-73" x="555.419922"/>
      <use xlink:href="#DejaVuSans-69" x="607.519531"/>
      <use xlink:href="#DejaVuSans-7a" x="635.302734"/>
      <use xlink:href="#DejaVuSans-65" x="687.792969"/>
      <use xlink:href="#DejaVuSans-3a" x="749.316406"/>
      <use xlink:href="#DejaVuSans-20" x="783.007812"/>
      <use xlink:href="#DejaVuSans-32" x="814.794922"/>
      <use xlink:href="#DejaVuSans-30" x="878.417969"/>
     </g>
    </g>
    <g id="line2d_25">
     <path d="M 263.070312 155.81625 
L 281.070312 155.81625 
L 299.070312 155.81625 
" style="fill: none; stroke: #ff00ff; stroke-width: 2; stroke-linecap: square"/>
    </g>
    <g id="text_22">
     <!-- Mini-batch size: 10 -->
     <g transform="translate(313.470312 162.11625)scale(0.18 -0.18)">
      <use xlink:href="#DejaVuSans-4d"/>
      <use xlink:href="#DejaVuSans-69" x="86.279297"/>
      <use xlink:href="#DejaVuSans-6e" x="114.0625"/>
      <use xlink:href="#DejaVuSans-69" x="177.441406"/>
      <use xlink:href="#DejaVuSans-2d" x="205.224609"/>
      <use xlink:href="#DejaVuSans-62" x="241.308594"/>
      <use xlink:href="#DejaVuSans-61" x="304.785156"/>
      <use xlink:href="#DejaVuSans-74" x="366.064453"/>
      <use xlink:href="#DejaVuSans-63" x="405.273438"/>
      <use xlink:href="#DejaVuSans-68" x="460.253906"/>
      <use xlink:href="#DejaVuSans-20" x="523.632812"/>
      <use xlink:href="#DejaVuSans-73" x="555.419922"/>
      <use xlink:href="#DejaVuSans-69" x="607.519531"/>
      <use xlink:href="#DejaVuSans-7a" x="635.302734"/>
      <use xlink:href="#DejaVuSans-65" x="687.792969"/>
      <use xlink:href="#DejaVuSans-3a" x="749.316406"/>
      <use xlink:href="#DejaVuSans-20" x="783.007812"/>
      <use xlink:href="#DejaVuSans-31" x="814.794922"/>
      <use xlink:href="#DejaVuSans-30" x="878.417969"/>
     </g>
    </g>
    <g id="line2d_26">
     <path d="M 263.070312 182.236875 
L 281.070312 182.236875 
L 299.070312 182.236875 
" style="fill: none; stroke: #ffff00; stroke-width: 2; stroke-linecap: square"/>
    </g>
    <g id="text_23">
     <!-- Mini-batch size: 5 -->
     <g transform="translate(313.470312 188.536875)scale(0.18 -0.18)">
      <use xlink:href="#DejaVuSans-4d"/>
      <use xlink:href="#DejaVuSans-69" x="86.279297"/>
      <use xlink:href="#DejaVuSans-6e" x="114.0625"/>
      <use xlink:href="#DejaVuSans-69" x="177.441406"/>
      <use xlink:href="#DejaVuSans-2d" x="205.224609"/>
      <use xlink:href="#DejaVuSans-62" x="241.308594"/>
      <use xlink:href="#DejaVuSans-61" x="304.785156"/>
      <use xlink:href="#DejaVuSans-74" x="366.064453"/>
      <use xlink:href="#DejaVuSans-63" x="405.273438"/>
      <use xlink:href="#DejaVuSans-68" x="460.253906"/>
      <use xlink:href="#DejaVuSans-20" x="523.632812"/>
      <use xlink:href="#DejaVuSans-73" x="555.419922"/>
      <use xlink:href="#DejaVuSans-69" x="607.519531"/>
      <use xlink:href="#DejaVuSans-7a" x="635.302734"/>
      <use xlink:href="#DejaVuSans-65" x="687.792969"/>
      <use xlink:href="#DejaVuSans-3a" x="749.316406"/>
      <use xlink:href="#DejaVuSans-20" x="783.007812"/>
      <use xlink:href="#DejaVuSans-35" x="814.794922"/>
     </g>
    </g>
   </g>
  </g>
 </g>
 <defs>
  <clipPath id="p62103b0e97">
   <rect x="64.285625" y="26.556563" width="446.4" height="277.2"/>
  </clipPath>
 </defs>
</svg>
