<?xml version="1.0" encoding="utf-8" standalone="no"?>
<!DOCTYPE svg PUBLIC "-//W3C//DTD SVG 1.1//EN"
  "http://www.w3.org/Graphics/SVG/1.1/DTD/svg11.dtd">
<svg xmlns:xlink="http://www.w3.org/1999/xlink" width="532.364375pt" height="356.496875pt" viewBox="0 0 532.364375 356.496875" xmlns="http://www.w3.org/2000/svg" version="1.1">
 <metadata>
  <rdf:RDF xmlns:dc="http://purl.org/dc/elements/1.1/" xmlns:cc="http://creativecommons.org/ns#" xmlns:rdf="http://www.w3.org/1999/02/22-rdf-syntax-ns#">
   <cc:Work>
    <dc:type rdf:resource="http://purl.org/dc/dcmitype/StillImage"/>
    <dc:date>2022-12-27T22:56:51.424087</dc:date>
    <dc:format>image/svg+xml</dc:format>
    <dc:creator>
     <cc:Agent>
      <dc:title>Matplotlib v3.5.2, https://matplotlib.org/</dc:title>
     </cc:Agent>
    </dc:creator>
   </cc:Work>
  </rdf:RDF>
 </metadata>
 <defs>
  <style type="text/css">*{stroke-linejoin: round; stroke-linecap: butt}</style>
 </defs>
 <g id="figure_1">
  <g id="patch_1">
   <path d="M 0 356.496875 
L 532.364375 356.496875 
L 532.364375 0 
L 0 0 
z
" style="fill: #ffffff"/>
  </g>
  <g id="axes_1">
   <g id="patch_2">
    <path d="M 73.038125 304.026563 
L 519.438125 304.026563 
L 519.438125 26.826562 
L 73.038125 26.826562 
z
" style="fill: #f1f7f0"/>
   </g>
   <g id="PathCollection_1">
    <defs>
     <path id="m8d66a5cef3" d="M 0 3 
C 0.795609 3 1.55874 2.683901 2.12132 2.12132 
C 2.683901 1.55874 3 0.795609 3 0 
C 3 -0.795609 2.683901 -1.55874 2.12132 -2.12132 
C 1.55874 -2.683901 0.795609 -3 0 -3 
C -0.795609 -3 -1.55874 -2.683901 -2.12132 -2.12132 
C -2.683901 -1.55874 -3 -0.795609 -3 0 
C -3 0.795609 -2.683901 1.55874 -2.12132 2.12132 
C -1.55874 2.683901 -0.795609 3 0 3 
z
" style="stroke: #0000ff; stroke-width: 3"/>
    </defs>
    <g clip-path="url(#pced651eebc)">
     <use xlink:href="#m8d66a5cef3" x="110.238125" y="113.967918" style="fill: #0000ff; stroke: #0000ff; stroke-width: 3"/>
     <use xlink:href="#m8d66a5cef3" x="112.098125" y="99.926367" style="fill: #0000ff; stroke: #0000ff; stroke-width: 3"/>
     <use xlink:href="#m8d66a5cef3" x="113.958125" y="111.088195" style="fill: #0000ff; stroke: #0000ff; stroke-width: 3"/>
     <use xlink:href="#m8d66a5cef3" x="115.818125" y="99.540011" style="fill: #0000ff; stroke: #0000ff; stroke-width: 3"/>
     <use xlink:href="#m8d66a5cef3" x="117.678125" y="111.324471" style="fill: #0000ff; stroke: #0000ff; stroke-width: 3"/>
     <use xlink:href="#m8d66a5cef3" x="119.538125" y="127.642183" style="fill: #0000ff; stroke: #0000ff; stroke-width: 3"/>
     <use xlink:href="#m8d66a5cef3" x="121.398125" y="129.691803" style="fill: #0000ff; stroke: #0000ff; stroke-width: 3"/>
     <use xlink:href="#m8d66a5cef3" x="123.258125" y="122.166891" style="fill: #0000ff; stroke: #0000ff; stroke-width: 3"/>
     <use xlink:href="#m8d66a5cef3" x="125.118125" y="122.078274" style="fill: #0000ff; stroke: #0000ff; stroke-width: 3"/>
     <use xlink:href="#m8d66a5cef3" x="126.978125" y="156.689579" style="fill: #0000ff; stroke: #0000ff; stroke-width: 3"/>
     <use xlink:href="#m8d66a5cef3" x="128.838125" y="151.366717" style="fill: #0000ff; stroke: #0000ff; stroke-width: 3"/>
     <use xlink:href="#m8d66a5cef3" x="130.698125" y="116.141169" style="fill: #0000ff; stroke: #0000ff; stroke-width: 3"/>
     <use xlink:href="#m8d66a5cef3" x="132.558125" y="127.254913" style="fill: #0000ff; stroke: #0000ff; stroke-width: 3"/>
     <use xlink:href="#m8d66a5cef3" x="134.418125" y="109.409621" style="fill: #0000ff; stroke: #0000ff; stroke-width: 3"/>
     <use xlink:href="#m8d66a5cef3" x="136.278125" y="136.381221" style="fill: #0000ff; stroke: #0000ff; stroke-width: 3"/>
     <use xlink:href="#m8d66a5cef3" x="138.138125" y="144.330719" style="fill: #0000ff; stroke: #0000ff; stroke-width: 3"/>
     <use xlink:href="#m8d66a5cef3" x="139.998125" y="108.776031" style="fill: #0000ff; stroke: #0000ff; stroke-width: 3"/>
     <use xlink:href="#m8d66a5cef3" x="141.858125" y="140.071344" style="fill: #0000ff; stroke: #0000ff; stroke-width: 3"/>
     <use xlink:href="#m8d66a5cef3" x="143.718125" y="148.375068" style="fill: #0000ff; stroke: #0000ff; stroke-width: 3"/>
     <use xlink:href="#m8d66a5cef3" x="145.578125" y="156.484682" style="fill: #0000ff; stroke: #0000ff; stroke-width: 3"/>
     <use xlink:href="#m8d66a5cef3" x="147.438125" y="139.148613" style="fill: #0000ff; stroke: #0000ff; stroke-width: 3"/>
     <use xlink:href="#m8d66a5cef3" x="149.298125" y="139.270655" style="fill: #0000ff; stroke: #0000ff; stroke-width: 3"/>
     <use xlink:href="#m8d66a5cef3" x="151.158125" y="166.769026" style="fill: #0000ff; stroke: #0000ff; stroke-width: 3"/>
     <use xlink:href="#m8d66a5cef3" x="153.018125" y="142.935666" style="fill: #0000ff; stroke: #0000ff; stroke-width: 3"/>
     <use xlink:href="#m8d66a5cef3" x="154.878125" y="170.227524" style="fill: #0000ff; stroke: #0000ff; stroke-width: 3"/>
     <use xlink:href="#m8d66a5cef3" x="156.738125" y="134.509302" style="fill: #0000ff; stroke: #0000ff; stroke-width: 3"/>
     <use xlink:href="#m8d66a5cef3" x="158.598125" y="167.820761" style="fill: #0000ff; stroke: #0000ff; stroke-width: 3"/>
     <use xlink:href="#m8d66a5cef3" x="160.458125" y="158.743523" style="fill: #0000ff; stroke: #0000ff; stroke-width: 3"/>
     <use xlink:href="#m8d66a5cef3" x="162.318125" y="183.690081" style="fill: #0000ff; stroke: #0000ff; stroke-width: 3"/>
     <use xlink:href="#m8d66a5cef3" x="164.178125" y="139.978547" style="fill: #0000ff; stroke: #0000ff; stroke-width: 3"/>
     <use xlink:href="#m8d66a5cef3" x="166.038125" y="140.438305" style="fill: #0000ff; stroke: #0000ff; stroke-width: 3"/>
     <use xlink:href="#m8d66a5cef3" x="167.898125" y="149.66033" style="fill: #0000ff; stroke: #0000ff; stroke-width: 3"/>
     <use xlink:href="#m8d66a5cef3" x="169.758125" y="169.239432" style="fill: #0000ff; stroke: #0000ff; stroke-width: 3"/>
     <use xlink:href="#m8d66a5cef3" x="171.618125" y="164.537369" style="fill: #0000ff; stroke: #0000ff; stroke-width: 3"/>
     <use xlink:href="#m8d66a5cef3" x="173.478125" y="200.653457" style="fill: #0000ff; stroke: #0000ff; stroke-width: 3"/>
     <use xlink:href="#m8d66a5cef3" x="175.338125" y="196.252743" style="fill: #0000ff; stroke: #0000ff; stroke-width: 3"/>
     <use xlink:href="#m8d66a5cef3" x="177.198125" y="155.106531" style="fill: #0000ff; stroke: #0000ff; stroke-width: 3"/>
     <use xlink:href="#m8d66a5cef3" x="179.058125" y="165.833798" style="fill: #0000ff; stroke: #0000ff; stroke-width: 3"/>
     <use xlink:href="#m8d66a5cef3" x="180.918125" y="192.470936" style="fill: #0000ff; stroke: #0000ff; stroke-width: 3"/>
     <use xlink:href="#m8d66a5cef3" x="182.778125" y="178.218651" style="fill: #0000ff; stroke: #0000ff; stroke-width: 3"/>
     <use xlink:href="#m8d66a5cef3" x="184.638125" y="178.561256" style="fill: #0000ff; stroke: #0000ff; stroke-width: 3"/>
     <use xlink:href="#m8d66a5cef3" x="186.498125" y="155.284705" style="fill: #0000ff; stroke: #0000ff; stroke-width: 3"/>
     <use xlink:href="#m8d66a5cef3" x="188.358125" y="190.912451" style="fill: #0000ff; stroke: #0000ff; stroke-width: 3"/>
     <use xlink:href="#m8d66a5cef3" x="190.218125" y="171.780895" style="fill: #0000ff; stroke: #0000ff; stroke-width: 3"/>
     <use xlink:href="#m8d66a5cef3" x="192.078125" y="200.959907" style="fill: #0000ff; stroke: #0000ff; stroke-width: 3"/>
     <use xlink:href="#m8d66a5cef3" x="193.938125" y="199.932611" style="fill: #0000ff; stroke: #0000ff; stroke-width: 3"/>
     <use xlink:href="#m8d66a5cef3" x="195.798125" y="202.843921" style="fill: #0000ff; stroke: #0000ff; stroke-width: 3"/>
     <use xlink:href="#m8d66a5cef3" x="197.658125" y="182.261236" style="fill: #0000ff; stroke: #0000ff; stroke-width: 3"/>
     <use xlink:href="#m8d66a5cef3" x="199.518125" y="197.6153" style="fill: #0000ff; stroke: #0000ff; stroke-width: 3"/>
     <use xlink:href="#m8d66a5cef3" x="201.378125" y="195.728163" style="fill: #0000ff; stroke: #0000ff; stroke-width: 3"/>
     <use xlink:href="#m8d66a5cef3" x="203.238125" y="185.609779" style="fill: #0000ff; stroke: #0000ff; stroke-width: 3"/>
     <use xlink:href="#m8d66a5cef3" x="205.098125" y="186.270807" style="fill: #0000ff; stroke: #0000ff; stroke-width: 3"/>
     <use xlink:href="#m8d66a5cef3" x="206.958125" y="179.61755" style="fill: #0000ff; stroke: #0000ff; stroke-width: 3"/>
     <use xlink:href="#m8d66a5cef3" x="208.818125" y="201.759323" style="fill: #0000ff; stroke: #0000ff; stroke-width: 3"/>
     <use xlink:href="#m8d66a5cef3" x="210.678125" y="185.44283" style="fill: #0000ff; stroke: #0000ff; stroke-width: 3"/>
     <use xlink:href="#m8d66a5cef3" x="212.538125" y="174.499843" style="fill: #0000ff; stroke: #0000ff; stroke-width: 3"/>
     <use xlink:href="#m8d66a5cef3" x="214.398125" y="205.64811" style="fill: #0000ff; stroke: #0000ff; stroke-width: 3"/>
     <use xlink:href="#m8d66a5cef3" x="216.258125" y="196.497624" style="fill: #0000ff; stroke: #0000ff; stroke-width: 3"/>
     <use xlink:href="#m8d66a5cef3" x="218.118125" y="187.157013" style="fill: #0000ff; stroke: #0000ff; stroke-width: 3"/>
     <use xlink:href="#m8d66a5cef3" x="219.978125" y="210.579856" style="fill: #0000ff; stroke: #0000ff; stroke-width: 3"/>
     <use xlink:href="#m8d66a5cef3" x="221.838125" y="193.572042" style="fill: #0000ff; stroke: #0000ff; stroke-width: 3"/>
     <use xlink:href="#m8d66a5cef3" x="223.698125" y="197.187762" style="fill: #0000ff; stroke: #0000ff; stroke-width: 3"/>
     <use xlink:href="#m8d66a5cef3" x="225.558125" y="181.804411" style="fill: #0000ff; stroke: #0000ff; stroke-width: 3"/>
     <use xlink:href="#m8d66a5cef3" x="227.418125" y="231.517105" style="fill: #0000ff; stroke: #0000ff; stroke-width: 3"/>
     <use xlink:href="#m8d66a5cef3" x="229.278125" y="197.678845" style="fill: #0000ff; stroke: #0000ff; stroke-width: 3"/>
     <use xlink:href="#m8d66a5cef3" x="231.138125" y="229.662679" style="fill: #0000ff; stroke: #0000ff; stroke-width: 3"/>
     <use xlink:href="#m8d66a5cef3" x="232.998125" y="210.241252" style="fill: #0000ff; stroke: #0000ff; stroke-width: 3"/>
     <use xlink:href="#m8d66a5cef3" x="234.858125" y="185.084514" style="fill: #0000ff; stroke: #0000ff; stroke-width: 3"/>
     <use xlink:href="#m8d66a5cef3" x="236.718125" y="240.348042" style="fill: #0000ff; stroke: #0000ff; stroke-width: 3"/>
     <use xlink:href="#m8d66a5cef3" x="238.578125" y="209.187562" style="fill: #0000ff; stroke: #0000ff; stroke-width: 3"/>
     <use xlink:href="#m8d66a5cef3" x="240.438125" y="208.160822" style="fill: #0000ff; stroke: #0000ff; stroke-width: 3"/>
     <use xlink:href="#m8d66a5cef3" x="242.298125" y="220.045072" style="fill: #0000ff; stroke: #0000ff; stroke-width: 3"/>
     <use xlink:href="#m8d66a5cef3" x="244.158125" y="226.708924" style="fill: #0000ff; stroke: #0000ff; stroke-width: 3"/>
     <use xlink:href="#m8d66a5cef3" x="246.018125" y="214.512576" style="fill: #0000ff; stroke: #0000ff; stroke-width: 3"/>
     <use xlink:href="#m8d66a5cef3" x="247.878125" y="228.817192" style="fill: #0000ff; stroke: #0000ff; stroke-width: 3"/>
     <use xlink:href="#m8d66a5cef3" x="249.738125" y="177.60632" style="fill: #0000ff; stroke: #0000ff; stroke-width: 3"/>
     <use xlink:href="#m8d66a5cef3" x="251.598125" y="213.047986" style="fill: #0000ff; stroke: #0000ff; stroke-width: 3"/>
     <use xlink:href="#m8d66a5cef3" x="253.458125" y="236.989612" style="fill: #0000ff; stroke: #0000ff; stroke-width: 3"/>
     <use xlink:href="#m8d66a5cef3" x="255.318125" y="235.557375" style="fill: #0000ff; stroke: #0000ff; stroke-width: 3"/>
     <use xlink:href="#m8d66a5cef3" x="257.178125" y="206.277798" style="fill: #0000ff; stroke: #0000ff; stroke-width: 3"/>
     <use xlink:href="#m8d66a5cef3" x="259.038125" y="181.102313" style="fill: #0000ff; stroke: #0000ff; stroke-width: 3"/>
     <use xlink:href="#m8d66a5cef3" x="260.898125" y="193.948969" style="fill: #0000ff; stroke: #0000ff; stroke-width: 3"/>
     <use xlink:href="#m8d66a5cef3" x="262.758125" y="223.172069" style="fill: #0000ff; stroke: #0000ff; stroke-width: 3"/>
     <use xlink:href="#m8d66a5cef3" x="264.618125" y="257.551853" style="fill: #0000ff; stroke: #0000ff; stroke-width: 3"/>
     <use xlink:href="#m8d66a5cef3" x="266.478125" y="204.707371" style="fill: #0000ff; stroke: #0000ff; stroke-width: 3"/>
     <use xlink:href="#m8d66a5cef3" x="268.338125" y="206.395559" style="fill: #0000ff; stroke: #0000ff; stroke-width: 3"/>
     <use xlink:href="#m8d66a5cef3" x="270.198125" y="240.397626" style="fill: #0000ff; stroke: #0000ff; stroke-width: 3"/>
     <use xlink:href="#m8d66a5cef3" x="272.058125" y="188.427241" style="fill: #0000ff; stroke: #0000ff; stroke-width: 3"/>
     <use xlink:href="#m8d66a5cef3" x="273.918125" y="225.349061" style="fill: #0000ff; stroke: #0000ff; stroke-width: 3"/>
     <use xlink:href="#m8d66a5cef3" x="275.778125" y="243.388061" style="fill: #0000ff; stroke: #0000ff; stroke-width: 3"/>
     <use xlink:href="#m8d66a5cef3" x="277.638125" y="251.196298" style="fill: #0000ff; stroke: #0000ff; stroke-width: 3"/>
     <use xlink:href="#m8d66a5cef3" x="279.498125" y="226.957052" style="fill: #0000ff; stroke: #0000ff; stroke-width: 3"/>
     <use xlink:href="#m8d66a5cef3" x="281.358125" y="209.560946" style="fill: #0000ff; stroke: #0000ff; stroke-width: 3"/>
     <use xlink:href="#m8d66a5cef3" x="283.218125" y="204.996372" style="fill: #0000ff; stroke: #0000ff; stroke-width: 3"/>
     <use xlink:href="#m8d66a5cef3" x="285.078125" y="214.773241" style="fill: #0000ff; stroke: #0000ff; stroke-width: 3"/>
     <use xlink:href="#m8d66a5cef3" x="286.938125" y="214.392459" style="fill: #0000ff; stroke: #0000ff; stroke-width: 3"/>
     <use xlink:href="#m8d66a5cef3" x="288.798125" y="223.498937" style="fill: #0000ff; stroke: #0000ff; stroke-width: 3"/>
     <use xlink:href="#m8d66a5cef3" x="290.658125" y="194.590035" style="fill: #0000ff; stroke: #0000ff; stroke-width: 3"/>
     <use xlink:href="#m8d66a5cef3" x="292.518125" y="222.652831" style="fill: #0000ff; stroke: #0000ff; stroke-width: 3"/>
     <use xlink:href="#m8d66a5cef3" x="294.378125" y="234.416525" style="fill: #0000ff; stroke: #0000ff; stroke-width: 3"/>
     <use xlink:href="#m8d66a5cef3" x="296.238125" y="174.537125" style="fill: #0000ff; stroke: #0000ff; stroke-width: 3"/>
     <use xlink:href="#m8d66a5cef3" x="298.098125" y="242.095377" style="fill: #0000ff; stroke: #0000ff; stroke-width: 3"/>
     <use xlink:href="#m8d66a5cef3" x="299.958125" y="201.308677" style="fill: #0000ff; stroke: #0000ff; stroke-width: 3"/>
     <use xlink:href="#m8d66a5cef3" x="301.818125" y="224.781285" style="fill: #0000ff; stroke: #0000ff; stroke-width: 3"/>
     <use xlink:href="#m8d66a5cef3" x="303.678125" y="175.944704" style="fill: #0000ff; stroke: #0000ff; stroke-width: 3"/>
     <use xlink:href="#m8d66a5cef3" x="305.538125" y="208.791981" style="fill: #0000ff; stroke: #0000ff; stroke-width: 3"/>
     <use xlink:href="#m8d66a5cef3" x="307.398125" y="199.873895" style="fill: #0000ff; stroke: #0000ff; stroke-width: 3"/>
     <use xlink:href="#m8d66a5cef3" x="309.258125" y="213.927627" style="fill: #0000ff; stroke: #0000ff; stroke-width: 3"/>
     <use xlink:href="#m8d66a5cef3" x="311.118125" y="197.879818" style="fill: #0000ff; stroke: #0000ff; stroke-width: 3"/>
     <use xlink:href="#m8d66a5cef3" x="312.978125" y="205.494625" style="fill: #0000ff; stroke: #0000ff; stroke-width: 3"/>
     <use xlink:href="#m8d66a5cef3" x="314.838125" y="175.474796" style="fill: #0000ff; stroke: #0000ff; stroke-width: 3"/>
     <use xlink:href="#m8d66a5cef3" x="316.698125" y="196.183309" style="fill: #0000ff; stroke: #0000ff; stroke-width: 3"/>
     <use xlink:href="#m8d66a5cef3" x="318.558125" y="218.157002" style="fill: #0000ff; stroke: #0000ff; stroke-width: 3"/>
     <use xlink:href="#m8d66a5cef3" x="320.418125" y="224.407417" style="fill: #0000ff; stroke: #0000ff; stroke-width: 3"/>
     <use xlink:href="#m8d66a5cef3" x="322.278125" y="211.082234" style="fill: #0000ff; stroke: #0000ff; stroke-width: 3"/>
     <use xlink:href="#m8d66a5cef3" x="324.138125" y="208.524487" style="fill: #0000ff; stroke: #0000ff; stroke-width: 3"/>
     <use xlink:href="#m8d66a5cef3" x="325.998125" y="218.824444" style="fill: #0000ff; stroke: #0000ff; stroke-width: 3"/>
     <use xlink:href="#m8d66a5cef3" x="327.858125" y="181.981675" style="fill: #0000ff; stroke: #0000ff; stroke-width: 3"/>
     <use xlink:href="#m8d66a5cef3" x="329.718125" y="214.982103" style="fill: #0000ff; stroke: #0000ff; stroke-width: 3"/>
     <use xlink:href="#m8d66a5cef3" x="331.578125" y="211.775066" style="fill: #0000ff; stroke: #0000ff; stroke-width: 3"/>
     <use xlink:href="#m8d66a5cef3" x="333.438125" y="215.170344" style="fill: #0000ff; stroke: #0000ff; stroke-width: 3"/>
     <use xlink:href="#m8d66a5cef3" x="335.298125" y="214.317772" style="fill: #0000ff; stroke: #0000ff; stroke-width: 3"/>
     <use xlink:href="#m8d66a5cef3" x="337.158125" y="220.27856" style="fill: #0000ff; stroke: #0000ff; stroke-width: 3"/>
     <use xlink:href="#m8d66a5cef3" x="339.018125" y="175.423377" style="fill: #0000ff; stroke: #0000ff; stroke-width: 3"/>
     <use xlink:href="#m8d66a5cef3" x="340.878125" y="200.011675" style="fill: #0000ff; stroke: #0000ff; stroke-width: 3"/>
     <use xlink:href="#m8d66a5cef3" x="342.738125" y="204.436549" style="fill: #0000ff; stroke: #0000ff; stroke-width: 3"/>
     <use xlink:href="#m8d66a5cef3" x="344.598125" y="201.202395" style="fill: #0000ff; stroke: #0000ff; stroke-width: 3"/>
     <use xlink:href="#m8d66a5cef3" x="346.458125" y="207.701923" style="fill: #0000ff; stroke: #0000ff; stroke-width: 3"/>
     <use xlink:href="#m8d66a5cef3" x="348.318125" y="208.096415" style="fill: #0000ff; stroke: #0000ff; stroke-width: 3"/>
     <use xlink:href="#m8d66a5cef3" x="350.178125" y="225.425473" style="fill: #0000ff; stroke: #0000ff; stroke-width: 3"/>
     <use xlink:href="#m8d66a5cef3" x="352.038125" y="177.659404" style="fill: #0000ff; stroke: #0000ff; stroke-width: 3"/>
     <use xlink:href="#m8d66a5cef3" x="353.898125" y="205.462643" style="fill: #0000ff; stroke: #0000ff; stroke-width: 3"/>
     <use xlink:href="#m8d66a5cef3" x="355.758125" y="166.532273" style="fill: #0000ff; stroke: #0000ff; stroke-width: 3"/>
     <use xlink:href="#m8d66a5cef3" x="357.618125" y="196.198543" style="fill: #0000ff; stroke: #0000ff; stroke-width: 3"/>
     <use xlink:href="#m8d66a5cef3" x="359.478125" y="218.63993" style="fill: #0000ff; stroke: #0000ff; stroke-width: 3"/>
     <use xlink:href="#m8d66a5cef3" x="361.338125" y="182.950536" style="fill: #0000ff; stroke: #0000ff; stroke-width: 3"/>
     <use xlink:href="#m8d66a5cef3" x="363.198125" y="176.272518" style="fill: #0000ff; stroke: #0000ff; stroke-width: 3"/>
     <use xlink:href="#m8d66a5cef3" x="365.058125" y="192.345469" style="fill: #0000ff; stroke: #0000ff; stroke-width: 3"/>
     <use xlink:href="#m8d66a5cef3" x="366.918125" y="204.433923" style="fill: #0000ff; stroke: #0000ff; stroke-width: 3"/>
     <use xlink:href="#m8d66a5cef3" x="368.778125" y="168.927534" style="fill: #0000ff; stroke: #0000ff; stroke-width: 3"/>
     <use xlink:href="#m8d66a5cef3" x="370.638125" y="201.082361" style="fill: #0000ff; stroke: #0000ff; stroke-width: 3"/>
     <use xlink:href="#m8d66a5cef3" x="372.498125" y="210.820353" style="fill: #0000ff; stroke: #0000ff; stroke-width: 3"/>
     <use xlink:href="#m8d66a5cef3" x="374.358125" y="209.305897" style="fill: #0000ff; stroke: #0000ff; stroke-width: 3"/>
     <use xlink:href="#m8d66a5cef3" x="376.218125" y="184.101835" style="fill: #0000ff; stroke: #0000ff; stroke-width: 3"/>
     <use xlink:href="#m8d66a5cef3" x="378.078125" y="158.048783" style="fill: #0000ff; stroke: #0000ff; stroke-width: 3"/>
     <use xlink:href="#m8d66a5cef3" x="379.938125" y="158.249271" style="fill: #0000ff; stroke: #0000ff; stroke-width: 3"/>
     <use xlink:href="#m8d66a5cef3" x="381.798125" y="162.345672" style="fill: #0000ff; stroke: #0000ff; stroke-width: 3"/>
     <use xlink:href="#m8d66a5cef3" x="383.658125" y="191.928859" style="fill: #0000ff; stroke: #0000ff; stroke-width: 3"/>
     <use xlink:href="#m8d66a5cef3" x="385.518125" y="172.941723" style="fill: #0000ff; stroke: #0000ff; stroke-width: 3"/>
     <use xlink:href="#m8d66a5cef3" x="387.378125" y="169.611784" style="fill: #0000ff; stroke: #0000ff; stroke-width: 3"/>
     <use xlink:href="#m8d66a5cef3" x="389.238125" y="188.646229" style="fill: #0000ff; stroke: #0000ff; stroke-width: 3"/>
     <use xlink:href="#m8d66a5cef3" x="391.098125" y="204.771872" style="fill: #0000ff; stroke: #0000ff; stroke-width: 3"/>
     <use xlink:href="#m8d66a5cef3" x="392.958125" y="179.494868" style="fill: #0000ff; stroke: #0000ff; stroke-width: 3"/>
     <use xlink:href="#m8d66a5cef3" x="394.818125" y="188.611267" style="fill: #0000ff; stroke: #0000ff; stroke-width: 3"/>
     <use xlink:href="#m8d66a5cef3" x="396.678125" y="162.934586" style="fill: #0000ff; stroke: #0000ff; stroke-width: 3"/>
     <use xlink:href="#m8d66a5cef3" x="398.538125" y="170.328679" style="fill: #0000ff; stroke: #0000ff; stroke-width: 3"/>
     <use xlink:href="#m8d66a5cef3" x="400.398125" y="128.178441" style="fill: #0000ff; stroke: #0000ff; stroke-width: 3"/>
     <use xlink:href="#m8d66a5cef3" x="402.258125" y="140.969933" style="fill: #0000ff; stroke: #0000ff; stroke-width: 3"/>
     <use xlink:href="#m8d66a5cef3" x="404.118125" y="132.191157" style="fill: #0000ff; stroke: #0000ff; stroke-width: 3"/>
     <use xlink:href="#m8d66a5cef3" x="405.978125" y="166.321169" style="fill: #0000ff; stroke: #0000ff; stroke-width: 3"/>
     <use xlink:href="#m8d66a5cef3" x="407.838125" y="159.340481" style="fill: #0000ff; stroke: #0000ff; stroke-width: 3"/>
     <use xlink:href="#m8d66a5cef3" x="409.698125" y="170.506577" style="fill: #0000ff; stroke: #0000ff; stroke-width: 3"/>
     <use xlink:href="#m8d66a5cef3" x="411.558125" y="173.399747" style="fill: #0000ff; stroke: #0000ff; stroke-width: 3"/>
     <use xlink:href="#m8d66a5cef3" x="413.418125" y="104.519473" style="fill: #0000ff; stroke: #0000ff; stroke-width: 3"/>
     <use xlink:href="#m8d66a5cef3" x="415.278125" y="146.568569" style="fill: #0000ff; stroke: #0000ff; stroke-width: 3"/>
     <use xlink:href="#m8d66a5cef3" x="417.138125" y="120.876342" style="fill: #0000ff; stroke: #0000ff; stroke-width: 3"/>
     <use xlink:href="#m8d66a5cef3" x="418.998125" y="186.364869" style="fill: #0000ff; stroke: #0000ff; stroke-width: 3"/>
     <use xlink:href="#m8d66a5cef3" x="420.858125" y="145.096359" style="fill: #0000ff; stroke: #0000ff; stroke-width: 3"/>
     <use xlink:href="#m8d66a5cef3" x="422.718125" y="156.565818" style="fill: #0000ff; stroke: #0000ff; stroke-width: 3"/>
     <use xlink:href="#m8d66a5cef3" x="424.578125" y="165.579793" style="fill: #0000ff; stroke: #0000ff; stroke-width: 3"/>
     <use xlink:href="#m8d66a5cef3" x="426.438125" y="156.644247" style="fill: #0000ff; stroke: #0000ff; stroke-width: 3"/>
     <use xlink:href="#m8d66a5cef3" x="428.298125" y="120.531668" style="fill: #0000ff; stroke: #0000ff; stroke-width: 3"/>
     <use xlink:href="#m8d66a5cef3" x="430.158125" y="143.963277" style="fill: #0000ff; stroke: #0000ff; stroke-width: 3"/>
     <use xlink:href="#m8d66a5cef3" x="432.018125" y="115.804979" style="fill: #0000ff; stroke: #0000ff; stroke-width: 3"/>
     <use xlink:href="#m8d66a5cef3" x="433.878125" y="116.099819" style="fill: #0000ff; stroke: #0000ff; stroke-width: 3"/>
     <use xlink:href="#m8d66a5cef3" x="435.738125" y="153.803647" style="fill: #0000ff; stroke: #0000ff; stroke-width: 3"/>
     <use xlink:href="#m8d66a5cef3" x="437.598125" y="139.990803" style="fill: #0000ff; stroke: #0000ff; stroke-width: 3"/>
     <use xlink:href="#m8d66a5cef3" x="439.458125" y="112.028455" style="fill: #0000ff; stroke: #0000ff; stroke-width: 3"/>
     <use xlink:href="#m8d66a5cef3" x="441.318125" y="143.832782" style="fill: #0000ff; stroke: #0000ff; stroke-width: 3"/>
     <use xlink:href="#m8d66a5cef3" x="443.178125" y="148.306715" style="fill: #0000ff; stroke: #0000ff; stroke-width: 3"/>
     <use xlink:href="#m8d66a5cef3" x="445.038125" y="131.102775" style="fill: #0000ff; stroke: #0000ff; stroke-width: 3"/>
     <use xlink:href="#m8d66a5cef3" x="446.898125" y="131.917527" style="fill: #0000ff; stroke: #0000ff; stroke-width: 3"/>
     <use xlink:href="#m8d66a5cef3" x="448.758125" y="117.957424" style="fill: #0000ff; stroke: #0000ff; stroke-width: 3"/>
     <use xlink:href="#m8d66a5cef3" x="450.618125" y="102.266187" style="fill: #0000ff; stroke: #0000ff; stroke-width: 3"/>
     <use xlink:href="#m8d66a5cef3" x="452.478125" y="121.79115" style="fill: #0000ff; stroke: #0000ff; stroke-width: 3"/>
     <use xlink:href="#m8d66a5cef3" x="454.338125" y="98.37039" style="fill: #0000ff; stroke: #0000ff; stroke-width: 3"/>
     <use xlink:href="#m8d66a5cef3" x="456.198125" y="82.22416" style="fill: #0000ff; stroke: #0000ff; stroke-width: 3"/>
     <use xlink:href="#m8d66a5cef3" x="458.058125" y="104.672668" style="fill: #0000ff; stroke: #0000ff; stroke-width: 3"/>
     <use xlink:href="#m8d66a5cef3" x="459.918125" y="111.232793" style="fill: #0000ff; stroke: #0000ff; stroke-width: 3"/>
     <use xlink:href="#m8d66a5cef3" x="461.778125" y="88.98588" style="fill: #0000ff; stroke: #0000ff; stroke-width: 3"/>
     <use xlink:href="#m8d66a5cef3" x="463.638125" y="90.920446" style="fill: #0000ff; stroke: #0000ff; stroke-width: 3"/>
     <use xlink:href="#m8d66a5cef3" x="465.498125" y="83.398602" style="fill: #0000ff; stroke: #0000ff; stroke-width: 3"/>
     <use xlink:href="#m8d66a5cef3" x="467.358125" y="101.513084" style="fill: #0000ff; stroke: #0000ff; stroke-width: 3"/>
     <use xlink:href="#m8d66a5cef3" x="469.218125" y="56.336799" style="fill: #0000ff; stroke: #0000ff; stroke-width: 3"/>
     <use xlink:href="#m8d66a5cef3" x="471.078125" y="64.209275" style="fill: #0000ff; stroke: #0000ff; stroke-width: 3"/>
     <use xlink:href="#m8d66a5cef3" x="472.938125" y="115.844889" style="fill: #0000ff; stroke: #0000ff; stroke-width: 3"/>
     <use xlink:href="#m8d66a5cef3" x="474.798125" y="53.29442" style="fill: #0000ff; stroke: #0000ff; stroke-width: 3"/>
     <use xlink:href="#m8d66a5cef3" x="476.658125" y="79.172357" style="fill: #0000ff; stroke: #0000ff; stroke-width: 3"/>
     <use xlink:href="#m8d66a5cef3" x="478.518125" y="67.612966" style="fill: #0000ff; stroke: #0000ff; stroke-width: 3"/>
     <use xlink:href="#m8d66a5cef3" x="480.378125" y="51.484274" style="fill: #0000ff; stroke: #0000ff; stroke-width: 3"/>
    </g>
   </g>
   <g id="matplotlib.axis_1">
    <g id="xtick_1">
     <g id="line2d_1">
      <defs>
       <path id="mfa560fd437" d="M 0 0 
L 0 3.5 
" style="stroke: #000000; stroke-width: 0.8"/>
      </defs>
      <g>
       <use xlink:href="#mfa560fd437" x="73.038125" y="304.026563" style="stroke: #000000; stroke-width: 0.8"/>
      </g>
     </g>
     <g id="text_1">
      <!-- −6 -->
      <g transform="translate(59.770156 324.70375)scale(0.18 -0.18)">
       <defs>
        <path id="DejaVuSans-2212" d="M 678 2272 
L 4684 2272 
L 4684 1741 
L 678 1741 
L 678 2272 
z
" transform="scale(0.015625)"/>
        <path id="DejaVuSans-36" d="M 2113 2584 
Q 1688 2584 1439 2293 
Q 1191 2003 1191 1497 
Q 1191 994 1439 701 
Q 1688 409 2113 409 
Q 2538 409 2786 701 
Q 3034 994 3034 1497 
Q 3034 2003 2786 2293 
Q 2538 2584 2113 2584 
z
M 3366 4563 
L 3366 3988 
Q 3128 4100 2886 4159 
Q 2644 4219 2406 4219 
Q 1781 4219 1451 3797 
Q 1122 3375 1075 2522 
Q 1259 2794 1537 2939 
Q 1816 3084 2150 3084 
Q 2853 3084 3261 2657 
Q 3669 2231 3669 1497 
Q 3669 778 3244 343 
Q 2819 -91 2113 -91 
Q 1303 -91 875 529 
Q 447 1150 447 2328 
Q 447 3434 972 4092 
Q 1497 4750 2381 4750 
Q 2619 4750 2861 4703 
Q 3103 4656 3366 4563 
z
" transform="scale(0.015625)"/>
       </defs>
       <use xlink:href="#DejaVuSans-2212"/>
       <use xlink:href="#DejaVuSans-36" x="83.789062"/>
      </g>
     </g>
    </g>
    <g id="xtick_2">
     <g id="line2d_2">
      <g>
       <use xlink:href="#mfa560fd437" x="147.438125" y="304.026563" style="stroke: #000000; stroke-width: 0.8"/>
      </g>
     </g>
     <g id="text_2">
      <!-- −4 -->
      <g transform="translate(134.170156 324.70375)scale(0.18 -0.18)">
       <defs>
        <path id="DejaVuSans-34" d="M 2419 4116 
L 825 1625 
L 2419 1625 
L 2419 4116 
z
M 2253 4666 
L 3047 4666 
L 3047 1625 
L 3713 1625 
L 3713 1100 
L 3047 1100 
L 3047 0 
L 2419 0 
L 2419 1100 
L 313 1100 
L 313 1709 
L 2253 4666 
z
" transform="scale(0.015625)"/>
       </defs>
       <use xlink:href="#DejaVuSans-2212"/>
       <use xlink:href="#DejaVuSans-34" x="83.789062"/>
      </g>
     </g>
    </g>
    <g id="xtick_3">
     <g id="line2d_3">
      <g>
       <use xlink:href="#mfa560fd437" x="221.838125" y="304.026563" style="stroke: #000000; stroke-width: 0.8"/>
      </g>
     </g>
     <g id="text_3">
      <!-- −2 -->
      <g transform="translate(208.570156 324.70375)scale(0.18 -0.18)">
       <defs>
        <path id="DejaVuSans-32" d="M 1228 531 
L 3431 531 
L 3431 0 
L 469 0 
L 469 531 
Q 828 903 1448 1529 
Q 2069 2156 2228 2338 
Q 2531 2678 2651 2914 
Q 2772 3150 2772 3378 
Q 2772 3750 2511 3984 
Q 2250 4219 1831 4219 
Q 1534 4219 1204 4116 
Q 875 4013 500 3803 
L 500 4441 
Q 881 4594 1212 4672 
Q 1544 4750 1819 4750 
Q 2544 4750 2975 4387 
Q 3406 4025 3406 3419 
Q 3406 3131 3298 2873 
Q 3191 2616 2906 2266 
Q 2828 2175 2409 1742 
Q 1991 1309 1228 531 
z
" transform="scale(0.015625)"/>
       </defs>
       <use xlink:href="#DejaVuSans-2212"/>
       <use xlink:href="#DejaVuSans-32" x="83.789062"/>
      </g>
     </g>
    </g>
    <g id="xtick_4">
     <g id="line2d_4">
      <g>
       <use xlink:href="#mfa560fd437" x="296.238125" y="304.026563" style="stroke: #000000; stroke-width: 0.8"/>
      </g>
     </g>
     <g id="text_4">
      <!-- 0 -->
      <g transform="translate(290.511875 324.70375)scale(0.18 -0.18)">
       <defs>
        <path id="DejaVuSans-30" d="M 2034 4250 
Q 1547 4250 1301 3770 
Q 1056 3291 1056 2328 
Q 1056 1369 1301 889 
Q 1547 409 2034 409 
Q 2525 409 2770 889 
Q 3016 1369 3016 2328 
Q 3016 3291 2770 3770 
Q 2525 4250 2034 4250 
z
M 2034 4750 
Q 2819 4750 3233 4129 
Q 3647 3509 3647 2328 
Q 3647 1150 3233 529 
Q 2819 -91 2034 -91 
Q 1250 -91 836 529 
Q 422 1150 422 2328 
Q 422 3509 836 4129 
Q 1250 4750 2034 4750 
z
" transform="scale(0.015625)"/>
       </defs>
       <use xlink:href="#DejaVuSans-30"/>
      </g>
     </g>
    </g>
    <g id="xtick_5">
     <g id="line2d_5">
      <g>
       <use xlink:href="#mfa560fd437" x="370.638125" y="304.026563" style="stroke: #000000; stroke-width: 0.8"/>
      </g>
     </g>
     <g id="text_5">
      <!-- 2 -->
      <g transform="translate(364.911875 324.70375)scale(0.18 -0.18)">
       <use xlink:href="#DejaVuSans-32"/>
      </g>
     </g>
    </g>
    <g id="xtick_6">
     <g id="line2d_6">
      <g>
       <use xlink:href="#mfa560fd437" x="445.038125" y="304.026563" style="stroke: #000000; stroke-width: 0.8"/>
      </g>
     </g>
     <g id="text_6">
      <!-- 4 -->
      <g transform="translate(439.311875 324.70375)scale(0.18 -0.18)">
       <use xlink:href="#DejaVuSans-34"/>
      </g>
     </g>
    </g>
    <g id="xtick_7">
     <g id="line2d_7">
      <g>
       <use xlink:href="#mfa560fd437" x="519.438125" y="304.026563" style="stroke: #000000; stroke-width: 0.8"/>
      </g>
     </g>
     <g id="text_7">
      <!-- 6 -->
      <g transform="translate(513.711875 324.70375)scale(0.18 -0.18)">
       <use xlink:href="#DejaVuSans-36"/>
      </g>
     </g>
    </g>
    <g id="text_8">
     <!-- x -->
     <g transform="translate(291.269844 345.80375)scale(0.18 -0.18)">
      <defs>
       <path id="Montserrat-Medium-78" d="M 2746 0 
L 1766 1299 
L 774 0 
L 90 0 
L 1427 1734 
L 154 3392 
L 838 3392 
L 1773 2170 
L 2701 3392 
L 3373 3392 
L 2093 1734 
L 3443 0 
L 2746 0 
z
" transform="scale(0.015625)"/>
      </defs>
      <use xlink:href="#Montserrat-Medium-78"/>
     </g>
    </g>
   </g>
   <g id="matplotlib.axis_2">
    <g id="ytick_1">
     <g id="line2d_8">
      <defs>
       <path id="m7a4e9019c9" d="M 0 0 
L -3.5 0 
" style="stroke: #000000; stroke-width: 0.8"/>
      </defs>
      <g>
       <use xlink:href="#m7a4e9019c9" x="73.038125" y="304.026563" style="stroke: #000000; stroke-width: 0.8"/>
      </g>
     </g>
     <g id="text_9">
      <!-- −50 -->
      <g transform="translate(28.049687 310.865156)scale(0.18 -0.18)">
       <defs>
        <path id="DejaVuSans-35" d="M 691 4666 
L 3169 4666 
L 3169 4134 
L 1269 4134 
L 1269 2991 
Q 1406 3038 1543 3061 
Q 1681 3084 1819 3084 
Q 2600 3084 3056 2656 
Q 3513 2228 3513 1497 
Q 3513 744 3044 326 
Q 2575 -91 1722 -91 
Q 1428 -91 1123 -41 
Q 819 9 494 109 
L 494 744 
Q 775 591 1075 516 
Q 1375 441 1709 441 
Q 2250 441 2565 725 
Q 2881 1009 2881 1497 
Q 2881 1984 2565 2268 
Q 2250 2553 1709 2553 
Q 1456 2553 1204 2497 
Q 953 2441 691 2322 
L 691 4666 
z
" transform="scale(0.015625)"/>
       </defs>
       <use xlink:href="#DejaVuSans-2212"/>
       <use xlink:href="#DejaVuSans-35" x="83.789062"/>
       <use xlink:href="#DejaVuSans-30" x="147.412109"/>
      </g>
     </g>
    </g>
    <g id="ytick_2">
     <g id="line2d_9">
      <g>
       <use xlink:href="#m7a4e9019c9" x="73.038125" y="260.714063" style="stroke: #000000; stroke-width: 0.8"/>
      </g>
     </g>
     <g id="text_10">
      <!-- −25 -->
      <g transform="translate(28.049687 267.552656)scale(0.18 -0.18)">
       <use xlink:href="#DejaVuSans-2212"/>
       <use xlink:href="#DejaVuSans-32" x="83.789062"/>
       <use xlink:href="#DejaVuSans-35" x="147.412109"/>
      </g>
     </g>
    </g>
    <g id="ytick_3">
     <g id="line2d_10">
      <g>
       <use xlink:href="#m7a4e9019c9" x="73.038125" y="217.401562" style="stroke: #000000; stroke-width: 0.8"/>
      </g>
     </g>
     <g id="text_11">
      <!-- 0 -->
      <g transform="translate(54.585625 224.240156)scale(0.18 -0.18)">
       <use xlink:href="#DejaVuSans-30"/>
      </g>
     </g>
    </g>
    <g id="ytick_4">
     <g id="line2d_11">
      <g>
       <use xlink:href="#m7a4e9019c9" x="73.038125" y="174.089062" style="stroke: #000000; stroke-width: 0.8"/>
      </g>
     </g>
     <g id="text_12">
      <!-- 25 -->
      <g transform="translate(43.133125 180.927656)scale(0.18 -0.18)">
       <use xlink:href="#DejaVuSans-32"/>
       <use xlink:href="#DejaVuSans-35" x="63.623047"/>
      </g>
     </g>
    </g>
    <g id="ytick_5">
     <g id="line2d_12">
      <g>
       <use xlink:href="#m7a4e9019c9" x="73.038125" y="130.776562" style="stroke: #000000; stroke-width: 0.8"/>
      </g>
     </g>
     <g id="text_13">
      <!-- 50 -->
      <g transform="translate(43.133125 137.615156)scale(0.18 -0.18)">
       <use xlink:href="#DejaVuSans-35"/>
       <use xlink:href="#DejaVuSans-30" x="63.623047"/>
      </g>
     </g>
    </g>
    <g id="ytick_6">
     <g id="line2d_13">
      <g>
       <use xlink:href="#m7a4e9019c9" x="73.038125" y="87.464062" style="stroke: #000000; stroke-width: 0.8"/>
      </g>
     </g>
     <g id="text_14">
      <!-- 75 -->
      <g transform="translate(43.133125 94.302656)scale(0.18 -0.18)">
       <defs>
        <path id="DejaVuSans-37" d="M 525 4666 
L 3525 4666 
L 3525 4397 
L 1831 0 
L 1172 0 
L 2766 4134 
L 525 4134 
L 525 4666 
z
" transform="scale(0.015625)"/>
       </defs>
       <use xlink:href="#DejaVuSans-37"/>
       <use xlink:href="#DejaVuSans-35" x="63.623047"/>
      </g>
     </g>
    </g>
    <g id="ytick_7">
     <g id="line2d_14">
      <g>
       <use xlink:href="#m7a4e9019c9" x="73.038125" y="44.151562" style="stroke: #000000; stroke-width: 0.8"/>
      </g>
     </g>
     <g id="text_15">
      <!-- 100 -->
      <g transform="translate(31.680625 50.990156)scale(0.18 -0.18)">
       <defs>
        <path id="DejaVuSans-31" d="M 794 531 
L 1825 531 
L 1825 4091 
L 703 3866 
L 703 4441 
L 1819 4666 
L 2450 4666 
L 2450 531 
L 3481 531 
L 3481 0 
L 794 0 
L 794 531 
z
" transform="scale(0.015625)"/>
       </defs>
       <use xlink:href="#DejaVuSans-31"/>
       <use xlink:href="#DejaVuSans-30" x="63.623047"/>
       <use xlink:href="#DejaVuSans-30" x="127.246094"/>
      </g>
     </g>
    </g>
    <g id="text_16">
     <!-- y -->
     <g transform="translate(20.449687 170.458125)rotate(-90)scale(0.18 -0.18)">
      <defs>
       <path id="Montserrat-Medium-79" d="M 3584 3392 
L 1939 -339 
Q 1722 -858 1430 -1069 
Q 1139 -1280 730 -1280 
Q 480 -1280 246 -1200 
Q 13 -1120 -141 -966 
L 122 -506 
Q 384 -755 730 -755 
Q 954 -755 1104 -636 
Q 1254 -518 1376 -230 
L 1485 6 
L -13 3392 
L 627 3392 
L 1811 678 
L 2982 3392 
L 3584 3392 
z
" transform="scale(0.015625)"/>
      </defs>
      <use xlink:href="#Montserrat-Medium-79"/>
     </g>
    </g>
   </g>
   <g id="line2d_15">
    <path d="M 110.238125 189.497351 
L 480.378125 155.154553 
L 480.378125 155.154553 
" clip-path="url(#pced651eebc)" style="fill: none; stroke: #ff0000; stroke-width: 3; stroke-linecap: square"/>
   </g>
   <g id="patch_3">
    <path d="M 73.038125 304.026563 
L 73.038125 26.826562 
" style="fill: none; stroke: #000000; stroke-width: 0.8; stroke-linejoin: miter; stroke-linecap: square"/>
   </g>
   <g id="patch_4">
    <path d="M 519.438125 304.026563 
L 519.438125 26.826562 
" style="fill: none; stroke: #000000; stroke-width: 0.8; stroke-linejoin: miter; stroke-linecap: square"/>
   </g>
   <g id="patch_5">
    <path d="M 73.038125 304.026563 
L 519.438125 304.026563 
" style="fill: none; stroke: #000000; stroke-width: 0.8; stroke-linejoin: miter; stroke-linecap: square"/>
   </g>
   <g id="patch_6">
    <path d="M 73.038125 26.826562 
L 519.438125 26.826562 
" style="fill: none; stroke: #000000; stroke-width: 0.8; stroke-linejoin: miter; stroke-linecap: square"/>
   </g>
   <g id="text_17">
    <!-- Linear Approximation -->
    <g transform="translate(196.52375 20.826562)scale(0.18 -0.18)">
     <defs>
      <path id="Montserrat-Medium-4c" d="M 672 4480 
L 1312 4480 
L 1312 557 
L 3738 557 
L 3738 0 
L 672 0 
L 672 4480 
z
" transform="scale(0.015625)"/>
      <path id="Montserrat-Medium-69" d="M 582 3392 
L 1197 3392 
L 1197 0 
L 582 0 
L 582 3392 
z
M 890 4045 
Q 710 4045 592 4160 
Q 474 4275 474 4442 
Q 474 4608 592 4726 
Q 710 4845 890 4845 
Q 1069 4845 1187 4733 
Q 1306 4621 1306 4454 
Q 1306 4282 1187 4163 
Q 1069 4045 890 4045 
z
" transform="scale(0.015625)"/>
      <path id="Montserrat-Medium-6e" d="M 2394 3424 
Q 3040 3424 3421 3049 
Q 3802 2675 3802 1952 
L 3802 0 
L 3187 0 
L 3187 1882 
Q 3187 2374 2950 2624 
Q 2714 2874 2272 2874 
Q 1773 2874 1485 2582 
Q 1197 2291 1197 1747 
L 1197 0 
L 582 0 
L 582 3392 
L 1171 3392 
L 1171 2880 
Q 1357 3142 1673 3283 
Q 1990 3424 2394 3424 
z
" transform="scale(0.015625)"/>
      <path id="Montserrat-Medium-65" d="M 3648 1677 
Q 3648 1606 3635 1491 
L 883 1491 
Q 941 1043 1277 771 
Q 1613 499 2112 499 
Q 2720 499 3091 909 
L 3430 512 
Q 3200 243 2857 102 
Q 2515 -38 2093 -38 
Q 1555 -38 1139 182 
Q 723 403 496 800 
Q 269 1197 269 1696 
Q 269 2189 489 2585 
Q 710 2982 1097 3203 
Q 1485 3424 1971 3424 
Q 2458 3424 2838 3203 
Q 3219 2982 3433 2585 
Q 3648 2189 3648 1677 
z
M 1971 2906 
Q 1530 2906 1232 2637 
Q 934 2368 883 1933 
L 3059 1933 
Q 3008 2362 2710 2634 
Q 2413 2906 1971 2906 
z
" transform="scale(0.015625)"/>
      <path id="Montserrat-Medium-61" d="M 1818 3424 
Q 2522 3424 2896 3078 
Q 3270 2733 3270 2048 
L 3270 0 
L 2688 0 
L 2688 448 
Q 2534 211 2249 86 
Q 1965 -38 1574 -38 
Q 1005 -38 662 237 
Q 320 512 320 960 
Q 320 1408 646 1680 
Q 973 1952 1683 1952 
L 2656 1952 
L 2656 2074 
Q 2656 2470 2425 2681 
Q 2195 2893 1747 2893 
Q 1446 2893 1158 2793 
Q 870 2694 672 2528 
L 416 2989 
Q 678 3200 1043 3312 
Q 1408 3424 1818 3424 
z
M 1677 435 
Q 2029 435 2285 592 
Q 2541 749 2656 1037 
L 2656 1510 
L 1709 1510 
Q 928 1510 928 986 
Q 928 730 1126 582 
Q 1325 435 1677 435 
z
" transform="scale(0.015625)"/>
      <path id="Montserrat-Medium-72" d="M 1171 2822 
Q 1331 3117 1644 3270 
Q 1958 3424 2406 3424 
L 2406 2829 
Q 2355 2835 2266 2835 
Q 1766 2835 1481 2537 
Q 1197 2240 1197 1690 
L 1197 0 
L 582 0 
L 582 3392 
L 1171 3392 
L 1171 2822 
z
" transform="scale(0.015625)"/>
      <path id="Montserrat-Medium-20" transform="scale(0.015625)"/>
      <path id="Montserrat-Medium-41" d="M 3526 1120 
L 1146 1120 
L 653 0 
L -6 0 
L 2022 4480 
L 2656 4480 
L 4691 0 
L 4019 0 
L 3526 1120 
z
M 3302 1632 
L 2336 3827 
L 1370 1632 
L 3302 1632 
z
" transform="scale(0.015625)"/>
      <path id="Montserrat-Medium-70" d="M 2381 3424 
Q 2874 3424 3264 3206 
Q 3654 2989 3875 2598 
Q 4096 2208 4096 1696 
Q 4096 1184 3875 790 
Q 3654 397 3264 179 
Q 2874 -38 2381 -38 
Q 2016 -38 1712 102 
Q 1408 243 1197 512 
L 1197 -1242 
L 582 -1242 
L 582 3392 
L 1171 3392 
L 1171 2854 
Q 1376 3136 1689 3280 
Q 2003 3424 2381 3424 
z
M 2330 499 
Q 2656 499 2915 649 
Q 3174 800 3324 1072 
Q 3475 1344 3475 1696 
Q 3475 2048 3324 2320 
Q 3174 2592 2915 2739 
Q 2656 2886 2330 2886 
Q 2010 2886 1750 2736 
Q 1491 2586 1340 2317 
Q 1190 2048 1190 1696 
Q 1190 1344 1337 1072 
Q 1485 800 1747 649 
Q 2010 499 2330 499 
z
" transform="scale(0.015625)"/>
      <path id="Montserrat-Medium-6f" d="M 2035 -38 
Q 1530 -38 1126 186 
Q 723 410 496 803 
Q 269 1197 269 1696 
Q 269 2195 496 2588 
Q 723 2982 1126 3203 
Q 1530 3424 2035 3424 
Q 2541 3424 2941 3203 
Q 3341 2982 3568 2588 
Q 3795 2195 3795 1696 
Q 3795 1197 3568 803 
Q 3341 410 2941 186 
Q 2541 -38 2035 -38 
z
M 2035 499 
Q 2362 499 2621 649 
Q 2880 800 3027 1072 
Q 3174 1344 3174 1696 
Q 3174 2048 3027 2320 
Q 2880 2592 2621 2739 
Q 2362 2886 2035 2886 
Q 1709 2886 1449 2739 
Q 1190 2592 1040 2320 
Q 890 2048 890 1696 
Q 890 1344 1040 1072 
Q 1190 800 1449 649 
Q 1709 499 2035 499 
z
" transform="scale(0.015625)"/>
      <path id="Montserrat-Medium-6d" d="M 4826 3424 
Q 5466 3424 5840 3053 
Q 6214 2682 6214 1952 
L 6214 0 
L 5600 0 
L 5600 1882 
Q 5600 2374 5373 2624 
Q 5146 2874 4723 2874 
Q 4256 2874 3981 2582 
Q 3706 2291 3706 1747 
L 3706 0 
L 3091 0 
L 3091 1882 
Q 3091 2374 2864 2624 
Q 2637 2874 2214 2874 
Q 1747 2874 1472 2582 
Q 1197 2291 1197 1747 
L 1197 0 
L 582 0 
L 582 3392 
L 1171 3392 
L 1171 2886 
Q 1357 3149 1657 3286 
Q 1958 3424 2342 3424 
Q 2739 3424 3046 3264 
Q 3354 3104 3520 2797 
Q 3712 3091 4054 3257 
Q 4397 3424 4826 3424 
z
" transform="scale(0.015625)"/>
      <path id="Montserrat-Medium-74" d="M 2490 198 
Q 2355 83 2156 22 
Q 1958 -38 1747 -38 
Q 1235 -38 953 237 
Q 672 512 672 1024 
L 672 2886 
L 96 2886 
L 96 3392 
L 672 3392 
L 672 4134 
L 1286 4134 
L 1286 3392 
L 2259 3392 
L 2259 2886 
L 1286 2886 
L 1286 1050 
Q 1286 774 1424 627 
Q 1562 480 1818 480 
Q 2099 480 2298 640 
L 2490 198 
z
" transform="scale(0.015625)"/>
     </defs>
     <use xlink:href="#Montserrat-Medium-4c"/>
     <use xlink:href="#Montserrat-Medium-69" x="59.399994"/>
     <use xlink:href="#Montserrat-Medium-6e" x="87.299988"/>
     <use xlink:href="#Montserrat-Medium-65" x="155.399979"/>
     <use xlink:href="#Montserrat-Medium-61" x="216.599976"/>
     <use xlink:href="#Montserrat-Medium-72" x="276.399963"/>
     <use xlink:href="#Montserrat-Medium-20" x="317.399948"/>
     <use xlink:href="#Montserrat-Medium-41" x="344.299942"/>
     <use xlink:href="#Montserrat-Medium-70" x="417.499924"/>
     <use xlink:href="#Montserrat-Medium-70" x="485.699905"/>
     <use xlink:href="#Montserrat-Medium-72" x="553.899887"/>
     <use xlink:href="#Montserrat-Medium-6f" x="594.899872"/>
     <use xlink:href="#Montserrat-Medium-78" x="658.399857"/>
     <use xlink:href="#Montserrat-Medium-69" x="713.599854"/>
     <use xlink:href="#Montserrat-Medium-6d" x="741.499847"/>
     <use xlink:href="#Montserrat-Medium-61" x="847.199829"/>
     <use xlink:href="#Montserrat-Medium-74" x="906.999817"/>
     <use xlink:href="#Montserrat-Medium-69" x="948.399811"/>
     <use xlink:href="#Montserrat-Medium-6f" x="976.299805"/>
     <use xlink:href="#Montserrat-Medium-6e" x="1039.799789"/>
    </g>
   </g>
  </g>
 </g>
 <defs>
  <clipPath id="pced651eebc">
   <rect x="73.038125" y="26.826562" width="446.4" height="277.2"/>
  </clipPath>
 </defs>
</svg>
