<?xml version="1.0" encoding="utf-8" standalone="no"?>
<!DOCTYPE svg PUBLIC "-//W3C//DTD SVG 1.1//EN"
  "http://www.w3.org/Graphics/SVG/1.1/DTD/svg11.dtd">
<svg xmlns:xlink="http://www.w3.org/1999/xlink" width="535.064375pt" height="356.226875pt" viewBox="0 0 535.064375 356.226875" xmlns="http://www.w3.org/2000/svg" version="1.1">
 <metadata>
  <rdf:RDF xmlns:dc="http://purl.org/dc/elements/1.1/" xmlns:cc="http://creativecommons.org/ns#" xmlns:rdf="http://www.w3.org/1999/02/22-rdf-syntax-ns#">
   <cc:Work>
    <dc:type rdf:resource="http://purl.org/dc/dcmitype/StillImage"/>
    <dc:date>2022-12-06T11:28:09.635819</dc:date>
    <dc:format>image/svg+xml</dc:format>
    <dc:creator>
     <cc:Agent>
      <dc:title>Matplotlib v3.5.2, https://matplotlib.org/</dc:title>
     </cc:Agent>
    </dc:creator>
   </cc:Work>
  </rdf:RDF>
 </metadata>
 <defs>
  <style type="text/css">*{stroke-linejoin: round; stroke-linecap: butt}</style>
 </defs>
 <g id="figure_1">
  <g id="patch_1">
   <path d="M 0 356.226875 
L 535.064375 356.226875 
L 535.064375 0 
L 0 0 
z
" style="fill: #ffffff"/>
  </g>
  <g id="axes_1">
   <g id="patch_2">
    <path d="M 64.285625 303.756563 
L 510.685625 303.756563 
L 510.685625 26.556563 
L 64.285625 26.556563 
z
" style="fill: #f1f7f0"/>
   </g>
   <g id="matplotlib.axis_1">
    <g id="xtick_1">
     <g id="line2d_1">
      <defs>
       <path id="m57abbb7995" d="M 0 0 
L 0 3.5 
" style="stroke: #000000; stroke-width: 0.8"/>
      </defs>
      <g>
       <use xlink:href="#m57abbb7995" x="64.285625" y="303.756563" style="stroke: #000000; stroke-width: 0.8"/>
      </g>
     </g>
     <g id="text_1">
      <!-- 0 -->
      <g transform="translate(58.559375 324.43375)scale(0.18 -0.18)">
       <defs>
        <path id="DejaVuSans-30" d="M 2034 4250 
Q 1547 4250 1301 3770 
Q 1056 3291 1056 2328 
Q 1056 1369 1301 889 
Q 1547 409 2034 409 
Q 2525 409 2770 889 
Q 3016 1369 3016 2328 
Q 3016 3291 2770 3770 
Q 2525 4250 2034 4250 
z
M 2034 4750 
Q 2819 4750 3233 4129 
Q 3647 3509 3647 2328 
Q 3647 1150 3233 529 
Q 2819 -91 2034 -91 
Q 1250 -91 836 529 
Q 422 1150 422 2328 
Q 422 3509 836 4129 
Q 1250 4750 2034 4750 
z
" transform="scale(0.015625)"/>
       </defs>
       <use xlink:href="#DejaVuSans-30"/>
      </g>
     </g>
    </g>
    <g id="xtick_2">
     <g id="line2d_2">
      <g>
       <use xlink:href="#m57abbb7995" x="153.565625" y="303.756563" style="stroke: #000000; stroke-width: 0.8"/>
      </g>
     </g>
     <g id="text_2">
      <!-- 20 -->
      <g transform="translate(142.113125 324.43375)scale(0.18 -0.18)">
       <defs>
        <path id="DejaVuSans-32" d="M 1228 531 
L 3431 531 
L 3431 0 
L 469 0 
L 469 531 
Q 828 903 1448 1529 
Q 2069 2156 2228 2338 
Q 2531 2678 2651 2914 
Q 2772 3150 2772 3378 
Q 2772 3750 2511 3984 
Q 2250 4219 1831 4219 
Q 1534 4219 1204 4116 
Q 875 4013 500 3803 
L 500 4441 
Q 881 4594 1212 4672 
Q 1544 4750 1819 4750 
Q 2544 4750 2975 4387 
Q 3406 4025 3406 3419 
Q 3406 3131 3298 2873 
Q 3191 2616 2906 2266 
Q 2828 2175 2409 1742 
Q 1991 1309 1228 531 
z
" transform="scale(0.015625)"/>
       </defs>
       <use xlink:href="#DejaVuSans-32"/>
       <use xlink:href="#DejaVuSans-30" x="63.623047"/>
      </g>
     </g>
    </g>
    <g id="xtick_3">
     <g id="line2d_3">
      <g>
       <use xlink:href="#m57abbb7995" x="242.845625" y="303.756563" style="stroke: #000000; stroke-width: 0.8"/>
      </g>
     </g>
     <g id="text_3">
      <!-- 40 -->
      <g transform="translate(231.393125 324.43375)scale(0.18 -0.18)">
       <defs>
        <path id="DejaVuSans-34" d="M 2419 4116 
L 825 1625 
L 2419 1625 
L 2419 4116 
z
M 2253 4666 
L 3047 4666 
L 3047 1625 
L 3713 1625 
L 3713 1100 
L 3047 1100 
L 3047 0 
L 2419 0 
L 2419 1100 
L 313 1100 
L 313 1709 
L 2253 4666 
z
" transform="scale(0.015625)"/>
       </defs>
       <use xlink:href="#DejaVuSans-34"/>
       <use xlink:href="#DejaVuSans-30" x="63.623047"/>
      </g>
     </g>
    </g>
    <g id="xtick_4">
     <g id="line2d_4">
      <g>
       <use xlink:href="#m57abbb7995" x="332.125625" y="303.756563" style="stroke: #000000; stroke-width: 0.8"/>
      </g>
     </g>
     <g id="text_4">
      <!-- 60 -->
      <g transform="translate(320.673125 324.43375)scale(0.18 -0.18)">
       <defs>
        <path id="DejaVuSans-36" d="M 2113 2584 
Q 1688 2584 1439 2293 
Q 1191 2003 1191 1497 
Q 1191 994 1439 701 
Q 1688 409 2113 409 
Q 2538 409 2786 701 
Q 3034 994 3034 1497 
Q 3034 2003 2786 2293 
Q 2538 2584 2113 2584 
z
M 3366 4563 
L 3366 3988 
Q 3128 4100 2886 4159 
Q 2644 4219 2406 4219 
Q 1781 4219 1451 3797 
Q 1122 3375 1075 2522 
Q 1259 2794 1537 2939 
Q 1816 3084 2150 3084 
Q 2853 3084 3261 2657 
Q 3669 2231 3669 1497 
Q 3669 778 3244 343 
Q 2819 -91 2113 -91 
Q 1303 -91 875 529 
Q 447 1150 447 2328 
Q 447 3434 972 4092 
Q 1497 4750 2381 4750 
Q 2619 4750 2861 4703 
Q 3103 4656 3366 4563 
z
" transform="scale(0.015625)"/>
       </defs>
       <use xlink:href="#DejaVuSans-36"/>
       <use xlink:href="#DejaVuSans-30" x="63.623047"/>
      </g>
     </g>
    </g>
    <g id="xtick_5">
     <g id="line2d_5">
      <g>
       <use xlink:href="#m57abbb7995" x="421.405625" y="303.756563" style="stroke: #000000; stroke-width: 0.8"/>
      </g>
     </g>
     <g id="text_5">
      <!-- 80 -->
      <g transform="translate(409.953125 324.43375)scale(0.18 -0.18)">
       <defs>
        <path id="DejaVuSans-38" d="M 2034 2216 
Q 1584 2216 1326 1975 
Q 1069 1734 1069 1313 
Q 1069 891 1326 650 
Q 1584 409 2034 409 
Q 2484 409 2743 651 
Q 3003 894 3003 1313 
Q 3003 1734 2745 1975 
Q 2488 2216 2034 2216 
z
M 1403 2484 
Q 997 2584 770 2862 
Q 544 3141 544 3541 
Q 544 4100 942 4425 
Q 1341 4750 2034 4750 
Q 2731 4750 3128 4425 
Q 3525 4100 3525 3541 
Q 3525 3141 3298 2862 
Q 3072 2584 2669 2484 
Q 3125 2378 3379 2068 
Q 3634 1759 3634 1313 
Q 3634 634 3220 271 
Q 2806 -91 2034 -91 
Q 1263 -91 848 271 
Q 434 634 434 1313 
Q 434 1759 690 2068 
Q 947 2378 1403 2484 
z
M 1172 3481 
Q 1172 3119 1398 2916 
Q 1625 2713 2034 2713 
Q 2441 2713 2670 2916 
Q 2900 3119 2900 3481 
Q 2900 3844 2670 4047 
Q 2441 4250 2034 4250 
Q 1625 4250 1398 4047 
Q 1172 3844 1172 3481 
z
" transform="scale(0.015625)"/>
       </defs>
       <use xlink:href="#DejaVuSans-38"/>
       <use xlink:href="#DejaVuSans-30" x="63.623047"/>
      </g>
     </g>
    </g>
    <g id="xtick_6">
     <g id="line2d_6">
      <g>
       <use xlink:href="#m57abbb7995" x="510.685625" y="303.756563" style="stroke: #000000; stroke-width: 0.8"/>
      </g>
     </g>
     <g id="text_6">
      <!-- 100 -->
      <g transform="translate(493.506875 324.43375)scale(0.18 -0.18)">
       <defs>
        <path id="DejaVuSans-31" d="M 794 531 
L 1825 531 
L 1825 4091 
L 703 3866 
L 703 4441 
L 1819 4666 
L 2450 4666 
L 2450 531 
L 3481 531 
L 3481 0 
L 794 0 
L 794 531 
z
" transform="scale(0.015625)"/>
       </defs>
       <use xlink:href="#DejaVuSans-31"/>
       <use xlink:href="#DejaVuSans-30" x="63.623047"/>
       <use xlink:href="#DejaVuSans-30" x="127.246094"/>
      </g>
     </g>
    </g>
    <g id="text_7">
     <!-- Epochs -->
     <g transform="translate(253.827031 345.53375)scale(0.18 -0.18)">
      <defs>
       <path id="Montserrat-Medium-45" d="M 3923 557 
L 3923 0 
L 672 0 
L 672 4480 
L 3834 4480 
L 3834 3923 
L 1312 3923 
L 1312 2547 
L 3558 2547 
L 3558 2003 
L 1312 2003 
L 1312 557 
L 3923 557 
z
" transform="scale(0.015625)"/>
       <path id="Montserrat-Medium-70" d="M 2381 3424 
Q 2874 3424 3264 3206 
Q 3654 2989 3875 2598 
Q 4096 2208 4096 1696 
Q 4096 1184 3875 790 
Q 3654 397 3264 179 
Q 2874 -38 2381 -38 
Q 2016 -38 1712 102 
Q 1408 243 1197 512 
L 1197 -1242 
L 582 -1242 
L 582 3392 
L 1171 3392 
L 1171 2854 
Q 1376 3136 1689 3280 
Q 2003 3424 2381 3424 
z
M 2330 499 
Q 2656 499 2915 649 
Q 3174 800 3324 1072 
Q 3475 1344 3475 1696 
Q 3475 2048 3324 2320 
Q 3174 2592 2915 2739 
Q 2656 2886 2330 2886 
Q 2010 2886 1750 2736 
Q 1491 2586 1340 2317 
Q 1190 2048 1190 1696 
Q 1190 1344 1337 1072 
Q 1485 800 1747 649 
Q 2010 499 2330 499 
z
" transform="scale(0.015625)"/>
       <path id="Montserrat-Medium-6f" d="M 2035 -38 
Q 1530 -38 1126 186 
Q 723 410 496 803 
Q 269 1197 269 1696 
Q 269 2195 496 2588 
Q 723 2982 1126 3203 
Q 1530 3424 2035 3424 
Q 2541 3424 2941 3203 
Q 3341 2982 3568 2588 
Q 3795 2195 3795 1696 
Q 3795 1197 3568 803 
Q 3341 410 2941 186 
Q 2541 -38 2035 -38 
z
M 2035 499 
Q 2362 499 2621 649 
Q 2880 800 3027 1072 
Q 3174 1344 3174 1696 
Q 3174 2048 3027 2320 
Q 2880 2592 2621 2739 
Q 2362 2886 2035 2886 
Q 1709 2886 1449 2739 
Q 1190 2592 1040 2320 
Q 890 2048 890 1696 
Q 890 1344 1040 1072 
Q 1190 800 1449 649 
Q 1709 499 2035 499 
z
" transform="scale(0.015625)"/>
       <path id="Montserrat-Medium-63" d="M 2061 -38 
Q 1542 -38 1136 186 
Q 730 410 499 803 
Q 269 1197 269 1696 
Q 269 2195 499 2588 
Q 730 2982 1136 3203 
Q 1542 3424 2061 3424 
Q 2522 3424 2883 3238 
Q 3245 3053 3443 2701 
L 2976 2400 
Q 2816 2643 2579 2764 
Q 2342 2886 2054 2886 
Q 1722 2886 1456 2739 
Q 1190 2592 1040 2320 
Q 890 2048 890 1696 
Q 890 1338 1040 1066 
Q 1190 794 1456 646 
Q 1722 499 2054 499 
Q 2342 499 2579 620 
Q 2816 742 2976 986 
L 3443 691 
Q 3245 339 2883 150 
Q 2522 -38 2061 -38 
z
" transform="scale(0.015625)"/>
       <path id="Montserrat-Medium-68" d="M 2394 3424 
Q 3040 3424 3421 3049 
Q 3802 2675 3802 1952 
L 3802 0 
L 3187 0 
L 3187 1882 
Q 3187 2374 2950 2624 
Q 2714 2874 2272 2874 
Q 1773 2874 1485 2582 
Q 1197 2291 1197 1747 
L 1197 0 
L 582 0 
L 582 4749 
L 1197 4749 
L 1197 2912 
Q 1389 3155 1699 3289 
Q 2010 3424 2394 3424 
z
" transform="scale(0.015625)"/>
       <path id="Montserrat-Medium-73" d="M 1555 -38 
Q 1139 -38 755 74 
Q 371 186 154 358 
L 410 845 
Q 634 685 954 589 
Q 1274 493 1600 493 
Q 2406 493 2406 954 
Q 2406 1107 2297 1196 
Q 2189 1286 2025 1328 
Q 1862 1370 1562 1421 
Q 1152 1485 893 1568 
Q 634 1651 448 1849 
Q 262 2048 262 2406 
Q 262 2867 646 3145 
Q 1030 3424 1677 3424 
Q 2016 3424 2355 3341 
Q 2694 3258 2912 3117 
L 2650 2630 
Q 2234 2899 1670 2899 
Q 1280 2899 1075 2771 
Q 870 2643 870 2432 
Q 870 2266 985 2170 
Q 1101 2074 1270 2029 
Q 1440 1984 1747 1926 
Q 2157 1856 2409 1776 
Q 2662 1696 2841 1504 
Q 3021 1312 3021 966 
Q 3021 506 2627 234 
Q 2234 -38 1555 -38 
z
" transform="scale(0.015625)"/>
      </defs>
      <use xlink:href="#Montserrat-Medium-45"/>
      <use xlink:href="#Montserrat-Medium-70" x="66.999985"/>
      <use xlink:href="#Montserrat-Medium-6f" x="135.199966"/>
      <use xlink:href="#Montserrat-Medium-63" x="198.699951"/>
      <use xlink:href="#Montserrat-Medium-68" x="255.799942"/>
      <use xlink:href="#Montserrat-Medium-73" x="323.899933"/>
     </g>
    </g>
   </g>
   <g id="matplotlib.axis_2">
    <g id="ytick_1">
     <g id="line2d_7">
      <defs>
       <path id="m4bf0a24fc4" d="M 0 0 
L -3.5 0 
" style="stroke: #000000; stroke-width: 0.8"/>
      </defs>
      <g>
       <use xlink:href="#m4bf0a24fc4" x="64.285625" y="303.756562" style="stroke: #000000; stroke-width: 0.8"/>
      </g>
     </g>
     <g id="text_8">
      <!-- 0.3 -->
      <g transform="translate(28.66 310.595156)scale(0.18 -0.18)">
       <defs>
        <path id="DejaVuSans-2e" d="M 684 794 
L 1344 794 
L 1344 0 
L 684 0 
L 684 794 
z
" transform="scale(0.015625)"/>
        <path id="DejaVuSans-33" d="M 2597 2516 
Q 3050 2419 3304 2112 
Q 3559 1806 3559 1356 
Q 3559 666 3084 287 
Q 2609 -91 1734 -91 
Q 1441 -91 1130 -33 
Q 819 25 488 141 
L 488 750 
Q 750 597 1062 519 
Q 1375 441 1716 441 
Q 2309 441 2620 675 
Q 2931 909 2931 1356 
Q 2931 1769 2642 2001 
Q 2353 2234 1838 2234 
L 1294 2234 
L 1294 2753 
L 1863 2753 
Q 2328 2753 2575 2939 
Q 2822 3125 2822 3475 
Q 2822 3834 2567 4026 
Q 2313 4219 1838 4219 
Q 1578 4219 1281 4162 
Q 984 4106 628 3988 
L 628 4550 
Q 988 4650 1302 4700 
Q 1616 4750 1894 4750 
Q 2613 4750 3031 4423 
Q 3450 4097 3450 3541 
Q 3450 3153 3228 2886 
Q 3006 2619 2597 2516 
z
" transform="scale(0.015625)"/>
       </defs>
       <use xlink:href="#DejaVuSans-30"/>
       <use xlink:href="#DejaVuSans-2e" x="63.623047"/>
       <use xlink:href="#DejaVuSans-33" x="95.410156"/>
      </g>
     </g>
    </g>
    <g id="ytick_2">
     <g id="line2d_8">
      <g>
       <use xlink:href="#m4bf0a24fc4" x="64.285625" y="264.156563" style="stroke: #000000; stroke-width: 0.8"/>
      </g>
     </g>
     <g id="text_9">
      <!-- 0.4 -->
      <g transform="translate(28.66 270.995156)scale(0.18 -0.18)">
       <use xlink:href="#DejaVuSans-30"/>
       <use xlink:href="#DejaVuSans-2e" x="63.623047"/>
       <use xlink:href="#DejaVuSans-34" x="95.410156"/>
      </g>
     </g>
    </g>
    <g id="ytick_3">
     <g id="line2d_9">
      <g>
       <use xlink:href="#m4bf0a24fc4" x="64.285625" y="224.556563" style="stroke: #000000; stroke-width: 0.8"/>
      </g>
     </g>
     <g id="text_10">
      <!-- 0.5 -->
      <g transform="translate(28.66 231.395156)scale(0.18 -0.18)">
       <defs>
        <path id="DejaVuSans-35" d="M 691 4666 
L 3169 4666 
L 3169 4134 
L 1269 4134 
L 1269 2991 
Q 1406 3038 1543 3061 
Q 1681 3084 1819 3084 
Q 2600 3084 3056 2656 
Q 3513 2228 3513 1497 
Q 3513 744 3044 326 
Q 2575 -91 1722 -91 
Q 1428 -91 1123 -41 
Q 819 9 494 109 
L 494 744 
Q 775 591 1075 516 
Q 1375 441 1709 441 
Q 2250 441 2565 725 
Q 2881 1009 2881 1497 
Q 2881 1984 2565 2268 
Q 2250 2553 1709 2553 
Q 1456 2553 1204 2497 
Q 953 2441 691 2322 
L 691 4666 
z
" transform="scale(0.015625)"/>
       </defs>
       <use xlink:href="#DejaVuSans-30"/>
       <use xlink:href="#DejaVuSans-2e" x="63.623047"/>
       <use xlink:href="#DejaVuSans-35" x="95.410156"/>
      </g>
     </g>
    </g>
    <g id="ytick_4">
     <g id="line2d_10">
      <g>
       <use xlink:href="#m4bf0a24fc4" x="64.285625" y="184.956562" style="stroke: #000000; stroke-width: 0.8"/>
      </g>
     </g>
     <g id="text_11">
      <!-- 0.6 -->
      <g transform="translate(28.66 191.795156)scale(0.18 -0.18)">
       <use xlink:href="#DejaVuSans-30"/>
       <use xlink:href="#DejaVuSans-2e" x="63.623047"/>
       <use xlink:href="#DejaVuSans-36" x="95.410156"/>
      </g>
     </g>
    </g>
    <g id="ytick_5">
     <g id="line2d_11">
      <g>
       <use xlink:href="#m4bf0a24fc4" x="64.285625" y="145.356562" style="stroke: #000000; stroke-width: 0.8"/>
      </g>
     </g>
     <g id="text_12">
      <!-- 0.7 -->
      <g transform="translate(28.66 152.195156)scale(0.18 -0.18)">
       <defs>
        <path id="DejaVuSans-37" d="M 525 4666 
L 3525 4666 
L 3525 4397 
L 1831 0 
L 1172 0 
L 2766 4134 
L 525 4134 
L 525 4666 
z
" transform="scale(0.015625)"/>
       </defs>
       <use xlink:href="#DejaVuSans-30"/>
       <use xlink:href="#DejaVuSans-2e" x="63.623047"/>
       <use xlink:href="#DejaVuSans-37" x="95.410156"/>
      </g>
     </g>
    </g>
    <g id="ytick_6">
     <g id="line2d_12">
      <g>
       <use xlink:href="#m4bf0a24fc4" x="64.285625" y="105.756562" style="stroke: #000000; stroke-width: 0.8"/>
      </g>
     </g>
     <g id="text_13">
      <!-- 0.8 -->
      <g transform="translate(28.66 112.595156)scale(0.18 -0.18)">
       <use xlink:href="#DejaVuSans-30"/>
       <use xlink:href="#DejaVuSans-2e" x="63.623047"/>
       <use xlink:href="#DejaVuSans-38" x="95.410156"/>
      </g>
     </g>
    </g>
    <g id="ytick_7">
     <g id="line2d_13">
      <g>
       <use xlink:href="#m4bf0a24fc4" x="64.285625" y="66.156562" style="stroke: #000000; stroke-width: 0.8"/>
      </g>
     </g>
     <g id="text_14">
      <!-- 0.9 -->
      <g transform="translate(28.66 72.995156)scale(0.18 -0.18)">
       <defs>
        <path id="DejaVuSans-39" d="M 703 97 
L 703 672 
Q 941 559 1184 500 
Q 1428 441 1663 441 
Q 2288 441 2617 861 
Q 2947 1281 2994 2138 
Q 2813 1869 2534 1725 
Q 2256 1581 1919 1581 
Q 1219 1581 811 2004 
Q 403 2428 403 3163 
Q 403 3881 828 4315 
Q 1253 4750 1959 4750 
Q 2769 4750 3195 4129 
Q 3622 3509 3622 2328 
Q 3622 1225 3098 567 
Q 2575 -91 1691 -91 
Q 1453 -91 1209 -44 
Q 966 3 703 97 
z
M 1959 2075 
Q 2384 2075 2632 2365 
Q 2881 2656 2881 3163 
Q 2881 3666 2632 3958 
Q 2384 4250 1959 4250 
Q 1534 4250 1286 3958 
Q 1038 3666 1038 3163 
Q 1038 2656 1286 2365 
Q 1534 2075 1959 2075 
z
" transform="scale(0.015625)"/>
       </defs>
       <use xlink:href="#DejaVuSans-30"/>
       <use xlink:href="#DejaVuSans-2e" x="63.623047"/>
       <use xlink:href="#DejaVuSans-39" x="95.410156"/>
      </g>
     </g>
    </g>
    <g id="ytick_8">
     <g id="line2d_14">
      <g>
       <use xlink:href="#m4bf0a24fc4" x="64.285625" y="26.556562" style="stroke: #000000; stroke-width: 0.8"/>
      </g>
     </g>
     <g id="text_15">
      <!-- 1.0 -->
      <g transform="translate(28.66 33.395156)scale(0.18 -0.18)">
       <use xlink:href="#DejaVuSans-31"/>
       <use xlink:href="#DejaVuSans-2e" x="63.623047"/>
       <use xlink:href="#DejaVuSans-30" x="95.410156"/>
      </g>
     </g>
    </g>
    <g id="text_16">
     <!-- Cost function $J$ -->
     <g transform="translate(20.88 231.756563)rotate(-90)scale(0.18 -0.18)">
      <defs>
       <path id="Montserrat-Medium-43" d="M 2675 -51 
Q 2003 -51 1462 246 
Q 922 544 614 1065 
Q 307 1587 307 2240 
Q 307 2893 614 3414 
Q 922 3936 1466 4233 
Q 2010 4531 2682 4531 
Q 3206 4531 3641 4355 
Q 4077 4179 4384 3834 
L 3968 3430 
Q 3462 3962 2707 3962 
Q 2208 3962 1805 3738 
Q 1402 3514 1174 3120 
Q 947 2726 947 2240 
Q 947 1754 1174 1360 
Q 1402 966 1805 742 
Q 2208 518 2707 518 
Q 3456 518 3968 1056 
L 4384 653 
Q 4077 307 3638 128 
Q 3200 -51 2675 -51 
z
" transform="scale(0.015625)"/>
       <path id="Montserrat-Medium-74" d="M 2490 198 
Q 2355 83 2156 22 
Q 1958 -38 1747 -38 
Q 1235 -38 953 237 
Q 672 512 672 1024 
L 672 2886 
L 96 2886 
L 96 3392 
L 672 3392 
L 672 4134 
L 1286 4134 
L 1286 3392 
L 2259 3392 
L 2259 2886 
L 1286 2886 
L 1286 1050 
Q 1286 774 1424 627 
Q 1562 480 1818 480 
Q 2099 480 2298 640 
L 2490 198 
z
" transform="scale(0.015625)"/>
       <path id="Montserrat-Medium-20" transform="scale(0.015625)"/>
       <path id="Montserrat-Medium-66" d="M 1824 4282 
Q 1274 4282 1274 3686 
L 1274 3392 
L 2259 3392 
L 2259 2886 
L 1286 2886 
L 1286 0 
L 672 0 
L 672 2886 
L 96 2886 
L 96 3392 
L 672 3392 
L 672 3693 
Q 672 4198 966 4492 
Q 1261 4787 1792 4787 
Q 1997 4787 2176 4736 
Q 2355 4685 2483 4589 
L 2298 4122 
Q 2086 4282 1824 4282 
z
" transform="scale(0.015625)"/>
       <path id="Montserrat-Medium-75" d="M 3744 3392 
L 3744 0 
L 3162 0 
L 3162 512 
Q 2976 250 2672 106 
Q 2368 -38 2010 -38 
Q 1331 -38 940 336 
Q 550 710 550 1440 
L 550 3392 
L 1165 3392 
L 1165 1510 
Q 1165 1018 1401 765 
Q 1638 512 2080 512 
Q 2566 512 2848 806 
Q 3130 1101 3130 1638 
L 3130 3392 
L 3744 3392 
z
" transform="scale(0.015625)"/>
       <path id="Montserrat-Medium-6e" d="M 2394 3424 
Q 3040 3424 3421 3049 
Q 3802 2675 3802 1952 
L 3802 0 
L 3187 0 
L 3187 1882 
Q 3187 2374 2950 2624 
Q 2714 2874 2272 2874 
Q 1773 2874 1485 2582 
Q 1197 2291 1197 1747 
L 1197 0 
L 582 0 
L 582 3392 
L 1171 3392 
L 1171 2880 
Q 1357 3142 1673 3283 
Q 1990 3424 2394 3424 
z
" transform="scale(0.015625)"/>
       <path id="Montserrat-Medium-69" d="M 582 3392 
L 1197 3392 
L 1197 0 
L 582 0 
L 582 3392 
z
M 890 4045 
Q 710 4045 592 4160 
Q 474 4275 474 4442 
Q 474 4608 592 4726 
Q 710 4845 890 4845 
Q 1069 4845 1187 4733 
Q 1306 4621 1306 4454 
Q 1306 4282 1187 4163 
Q 1069 4045 890 4045 
z
" transform="scale(0.015625)"/>
       <path id="DejaVuSans-Oblique-4a" d="M 1069 4666 
L 1703 4666 
L 856 325 
Q 691 -522 298 -901 
Q -94 -1281 -800 -1281 
L -1050 -1281 
L -947 -750 
L -750 -750 
Q -328 -750 -109 -509 
Q 109 -269 225 325 
L 1069 4666 
z
" transform="scale(0.015625)"/>
      </defs>
      <use xlink:href="#Montserrat-Medium-43" transform="translate(0 0.296875)"/>
      <use xlink:href="#Montserrat-Medium-6f" transform="translate(72.299988 0.296875)"/>
      <use xlink:href="#Montserrat-Medium-73" transform="translate(135.799973 0.296875)"/>
      <use xlink:href="#Montserrat-Medium-74" transform="translate(185.899963 0.296875)"/>
      <use xlink:href="#Montserrat-Medium-20" transform="translate(227.299957 0.296875)"/>
      <use xlink:href="#Montserrat-Medium-66" transform="translate(254.199951 0.296875)"/>
      <use xlink:href="#Montserrat-Medium-75" transform="translate(289.499939 0.296875)"/>
      <use xlink:href="#Montserrat-Medium-6e" transform="translate(357.199921 0.296875)"/>
      <use xlink:href="#Montserrat-Medium-63" transform="translate(425.299911 0.296875)"/>
      <use xlink:href="#Montserrat-Medium-74" transform="translate(482.399902 0.296875)"/>
      <use xlink:href="#Montserrat-Medium-69" transform="translate(523.799896 0.296875)"/>
      <use xlink:href="#Montserrat-Medium-6f" transform="translate(551.69989 0.296875)"/>
      <use xlink:href="#Montserrat-Medium-6e" transform="translate(615.199875 0.296875)"/>
      <use xlink:href="#Montserrat-Medium-20" transform="translate(683.299866 0.296875)"/>
      <use xlink:href="#DejaVuSans-Oblique-4a" transform="translate(710.19986 0.296875)"/>
     </g>
    </g>
   </g>
   <g id="line2d_15">
    <path d="M 98.042519 -1 
L 99.997625 9.435949 
L 104.461625 28.722013 
L 108.925625 44.481628 
L 113.389625 57.559232 
L 117.853625 68.534076 
L 122.317625 77.948142 
L 126.781625 86.111085 
L 131.245625 93.345917 
L 135.709625 99.836013 
L 140.173625 105.653883 
L 144.637625 110.869936 
L 149.101625 115.64588 
L 153.565625 120.050281 
L 158.029625 124.103086 
L 162.493625 127.885915 
L 166.957625 131.418382 
L 171.421625 134.739905 
L 175.885625 137.837739 
L 180.349625 140.779412 
L 184.813625 143.593839 
L 189.277625 146.237164 
L 193.741625 148.794668 
L 198.205625 151.228041 
L 202.669625 153.593743 
L 207.133625 155.832883 
L 211.597625 157.97853 
L 216.061625 160.041211 
L 220.525625 162.014954 
L 224.989625 163.927423 
L 229.453625 165.742834 
L 233.917625 167.529048 
L 238.381625 169.210321 
L 242.845625 170.878069 
L 247.309625 172.444748 
L 251.773625 173.944959 
L 256.237625 175.43299 
L 260.701625 176.845703 
L 265.165625 178.223224 
L 269.629625 179.569115 
L 274.093625 180.86459 
L 278.557625 182.119939 
L 283.021625 183.320174 
L 287.485625 184.513894 
L 291.949625 185.676246 
L 296.413625 186.777488 
L 300.877625 187.859634 
L 305.341625 188.929012 
L 309.805625 189.937186 
L 314.269625 190.939529 
L 318.733625 191.913454 
L 323.197625 192.851927 
L 327.661625 193.769582 
L 332.125625 194.679966 
L 336.589625 195.556763 
L 341.053625 196.416188 
L 345.517625 197.22319 
L 349.981625 198.067815 
L 354.445625 198.863534 
L 358.909625 199.647098 
L 363.373625 200.41487 
L 367.837625 201.162273 
L 372.301625 201.880974 
L 376.765625 202.600478 
L 381.229625 203.307661 
L 385.693625 203.994308 
L 390.157625 204.655181 
L 394.621625 205.308383 
L 399.085625 205.983111 
L 403.549625 206.596139 
L 408.013625 207.227909 
L 412.477625 207.819151 
L 416.941625 208.455476 
L 421.405625 209.011172 
L 425.869625 209.59616 
L 430.333625 210.159409 
L 434.797625 210.730022 
L 439.261625 211.247433 
L 443.725625 211.766921 
L 448.189625 212.308903 
L 452.653625 212.824331 
L 457.117625 213.324583 
L 461.581625 213.816431 
L 466.045625 214.316376 
L 470.509625 214.805297 
L 474.973625 215.268845 
L 479.437625 215.729632 
L 483.901625 216.194619 
L 488.365625 216.649835 
L 492.829625 217.073446 
L 497.293625 217.494579 
L 501.757625 217.939008 
L 506.221625 218.350439 
" clip-path="url(#pf654528eb7)" style="fill: none; stroke: #000000; stroke-width: 2; stroke-linecap: square"/>
   </g>
   <g id="line2d_16">
    <path d="M 83.654936 -1 
L 86.605625 25.559836 
L 91.069625 54.839667 
L 95.533625 76.714107 
L 99.997625 93.539913 
L 104.461625 106.877509 
L 108.925625 117.776562 
L 113.389625 126.841911 
L 117.853625 134.557522 
L 122.317625 141.209844 
L 126.781625 147.032765 
L 131.245625 152.252973 
L 135.709625 156.832961 
L 140.173625 161.030667 
L 144.637625 164.771057 
L 149.101625 168.230826 
L 153.565625 171.361279 
L 158.029625 174.30543 
L 162.493625 177.028535 
L 166.957625 179.549595 
L 171.421625 181.929506 
L 175.885625 184.106617 
L 180.349625 186.24176 
L 184.813625 188.17618 
L 189.277625 190.024589 
L 193.741625 191.784084 
L 198.205625 193.474515 
L 202.669625 195.067063 
L 207.133625 196.597156 
L 211.597625 198.007438 
L 216.061625 199.393856 
L 220.525625 200.698112 
L 224.989625 201.961155 
L 229.453625 203.145411 
L 233.917625 204.304151 
L 238.381625 205.407328 
L 242.845625 206.519758 
L 247.309625 207.565178 
L 251.773625 208.538844 
L 256.237625 209.450054 
L 260.701625 210.430258 
L 265.165625 211.273916 
L 269.629625 212.145827 
L 274.093625 213.000956 
L 278.557625 213.784401 
L 283.021625 214.574621 
L 287.485625 215.298231 
L 291.949625 216.074619 
L 296.413625 216.729756 
L 300.877625 217.425468 
L 305.341625 218.132674 
L 309.805625 218.732319 
L 314.269625 219.410517 
L 318.733625 220.062373 
L 323.197625 220.629045 
L 327.661625 221.213442 
L 332.125625 221.847855 
L 336.589625 222.320231 
L 341.053625 222.888059 
L 345.517625 223.41097 
L 349.981625 223.904636 
L 354.445625 224.425209 
L 358.909625 224.932424 
L 363.373625 225.413037 
L 367.837625 225.877895 
L 372.301625 226.38767 
L 376.765625 226.790451 
L 381.229625 227.23036 
L 385.693625 227.659294 
L 390.157625 228.091402 
L 394.621625 228.531441 
L 399.085625 228.957129 
L 403.549625 229.360429 
L 408.013625 229.759622 
L 412.477625 230.114984 
L 416.941625 230.512052 
L 421.405625 230.858964 
L 425.869625 231.228016 
L 430.333625 231.603676 
L 434.797625 231.910344 
L 439.261625 232.305159 
L 443.725625 232.64637 
L 448.189625 232.984052 
L 452.653625 233.315244 
L 457.117625 233.615917 
L 461.581625 233.934799 
L 466.045625 234.264185 
L 470.509625 234.602127 
L 474.973625 234.89173 
L 479.437625 235.186242 
L 483.901625 235.47143 
L 488.365625 235.741347 
L 492.829625 236.068656 
L 497.293625 236.348156 
L 501.757625 236.633935 
L 506.221625 236.884733 
" clip-path="url(#pf654528eb7)" style="fill: none; stroke: #0000ff; stroke-width: 2; stroke-linecap: square"/>
   </g>
   <g id="line2d_17">
    <path d="M 76.616922 -1 
L 77.677625 19.777371 
L 82.141625 61.178512 
L 86.605625 86.305459 
L 91.069625 104.332704 
L 95.533625 118.434012 
L 99.997625 130.115 
L 104.461625 139.998799 
L 108.925625 148.41588 
L 113.389625 155.849169 
L 117.853625 162.294018 
L 122.317625 168.07915 
L 126.781625 173.19064 
L 131.245625 177.804923 
L 135.709625 182.023354 
L 140.173625 185.777103 
L 144.637625 189.283465 
L 149.101625 192.516428 
L 153.565625 195.375796 
L 158.029625 198.165297 
L 162.493625 200.697451 
L 166.957625 203.09379 
L 171.421625 205.289264 
L 175.885625 207.392259 
L 180.349625 209.335271 
L 184.813625 211.170792 
L 189.277625 212.933497 
L 193.741625 214.549294 
L 198.205625 216.133982 
L 202.669625 217.592934 
L 207.133625 219.022477 
L 211.597625 220.324678 
L 216.061625 221.665094 
L 220.525625 222.837028 
L 224.989625 223.973062 
L 229.453625 225.156822 
L 233.917625 226.226848 
L 238.381625 227.24975 
L 242.845625 228.258774 
L 247.309625 229.135287 
L 251.773625 230.097765 
L 256.237625 230.981088 
L 260.701625 231.815836 
L 265.165625 232.654773 
L 269.629625 233.42978 
L 274.093625 234.214665 
L 278.557625 234.99025 
L 283.021625 235.633845 
L 287.485625 236.227295 
L 291.949625 236.993734 
L 296.413625 237.688501 
L 300.877625 238.279036 
L 305.341625 238.843358 
L 309.805625 239.452103 
L 314.269625 239.974789 
L 318.733625 240.553026 
L 323.197625 241.078828 
L 327.661625 241.610059 
L 332.125625 242.125263 
L 336.589625 242.581459 
L 341.053625 243.080353 
L 345.517625 243.55647 
L 349.981625 244.00261 
L 354.445625 244.499392 
L 358.909625 244.856217 
L 363.373625 245.329713 
L 367.837625 245.735468 
L 372.301625 246.168934 
L 376.765625 246.548229 
L 381.229625 246.966754 
L 385.693625 247.323968 
L 390.157625 247.702744 
L 394.621625 248.030572 
L 399.085625 248.433648 
L 403.549625 248.775945 
L 408.013625 249.11731 
L 412.477625 249.444005 
L 416.941625 249.752526 
L 421.405625 250.096251 
L 425.869625 250.481164 
L 430.333625 250.720043 
L 434.797625 251.019854 
L 439.261625 251.384503 
L 443.725625 251.614719 
L 448.189625 251.937119 
L 452.653625 252.255281 
L 457.117625 252.493593 
L 461.581625 252.826591 
L 466.045625 253.095292 
L 470.509625 253.303038 
L 474.973625 253.56834 
L 479.437625 253.866299 
L 483.901625 254.180626 
L 488.365625 254.390012 
L 492.829625 254.623402 
L 497.293625 254.870719 
L 501.757625 255.121624 
L 506.221625 255.339979 
" clip-path="url(#pf654528eb7)" style="fill: none; stroke: #ff0000; stroke-width: 2; stroke-linecap: square"/>
   </g>
   <g id="line2d_18">
    <path d="M 68.132942 -1 
L 68.749625 34.386154 
L 73.213625 103.727583 
L 77.677625 137.226693 
L 82.141625 158.732329 
L 86.605625 173.174047 
L 91.069625 183.819552 
L 95.533625 191.981078 
L 99.997625 198.521568 
L 104.461625 204.046165 
L 108.925625 208.583265 
L 113.389625 212.633545 
L 117.853625 216.102755 
L 122.317625 219.368645 
L 126.781625 222.239366 
L 131.245625 224.8572 
L 135.709625 227.144668 
L 140.173625 229.433068 
L 144.637625 231.357126 
L 149.101625 233.173907 
L 153.565625 234.970683 
L 158.029625 236.529254 
L 162.493625 238.030126 
L 166.957625 239.405569 
L 171.421625 240.787102 
L 175.885625 241.931278 
L 180.349625 243.141014 
L 184.813625 244.096328 
L 189.277625 245.2374 
L 193.741625 246.142474 
L 198.205625 247.212749 
L 202.669625 248.177787 
L 207.133625 249.004911 
L 211.597625 249.823324 
L 216.061625 250.583237 
L 220.525625 251.50684 
L 224.989625 252.253027 
L 229.453625 252.93139 
L 233.917625 253.537184 
L 238.381625 254.334968 
L 242.845625 254.922682 
L 247.309625 255.575365 
L 251.773625 256.182268 
L 256.237625 256.72012 
L 260.701625 257.285988 
L 265.165625 257.845048 
L 269.629625 258.425315 
L 274.093625 258.943268 
L 278.557625 259.561596 
L 283.021625 259.938897 
L 287.485625 260.451103 
L 291.949625 260.89748 
L 296.413625 261.510095 
L 300.877625 261.798388 
L 305.341625 262.296385 
L 309.805625 262.65832 
L 314.269625 263.079075 
L 318.733625 263.565129 
L 323.197625 263.964818 
L 327.661625 264.338342 
L 332.125625 264.656103 
L 336.589625 265.018487 
L 341.053625 265.373046 
L 345.517625 265.766917 
L 349.981625 266.250622 
L 354.445625 266.520716 
L 358.909625 266.824728 
L 363.373625 267.093855 
L 367.837625 267.457631 
L 372.301625 267.774342 
L 376.765625 268.170856 
L 381.229625 268.448149 
L 385.693625 268.768354 
L 390.157625 268.980324 
L 394.621625 269.349624 
L 399.085625 269.637963 
L 403.549625 269.863671 
L 408.013625 270.150854 
L 412.477625 270.485161 
L 416.941625 270.658009 
L 421.405625 270.94079 
L 425.869625 271.171254 
L 430.333625 271.554893 
L 434.797625 271.819759 
L 439.261625 272.002568 
L 443.725625 272.223578 
L 448.189625 272.568141 
L 452.653625 272.730155 
L 457.117625 272.950435 
L 461.581625 273.176225 
L 466.045625 273.482067 
L 470.509625 273.718797 
L 474.973625 273.988856 
L 479.437625 274.230237 
L 483.901625 274.332805 
L 488.365625 274.678855 
L 492.829625 274.785744 
L 497.293625 275.000157 
L 501.757625 275.282513 
L 506.221625 275.351636 
" clip-path="url(#pf654528eb7)" style="fill: none; stroke: #008000; stroke-width: 2; stroke-linecap: square"/>
   </g>
   <g id="line2d_19">
    <path d="M 65.203156 -1 
L 68.749625 136.865065 
L 73.213625 175.564886 
L 77.677625 195.693805 
L 82.141625 208.24111 
L 86.605625 216.676389 
L 91.069625 223.237484 
L 95.533625 228.31115 
L 99.997625 232.235351 
L 104.461625 235.762343 
L 108.925625 238.653669 
L 113.389625 241.269993 
L 117.853625 243.712606 
L 122.317625 245.623387 
L 126.781625 247.514448 
L 131.245625 249.294489 
L 135.709625 250.776597 
L 140.173625 252.202327 
L 144.637625 253.534883 
L 149.101625 254.789004 
L 153.565625 255.886552 
L 158.029625 257.065249 
L 162.493625 258.086145 
L 166.957625 259.033044 
L 171.421625 259.842229 
L 175.885625 260.986217 
L 180.349625 261.877683 
L 184.813625 262.540692 
L 189.277625 263.432147 
L 193.741625 264.125498 
L 198.205625 264.792885 
L 202.669625 265.593939 
L 207.133625 266.224434 
L 211.597625 266.935594 
L 216.061625 267.435739 
L 220.525625 268.31977 
L 224.989625 268.816422 
L 229.453625 269.363738 
L 233.917625 269.834781 
L 238.381625 270.363922 
L 242.845625 270.946455 
L 247.309625 271.500039 
L 251.773625 272.041324 
L 256.237625 272.47099 
L 260.701625 272.880922 
L 265.165625 273.237452 
L 269.629625 273.783848 
L 274.093625 274.153443 
L 278.557625 274.618336 
L 283.021625 275.071876 
L 287.485625 275.492419 
L 291.949625 275.856042 
L 296.413625 276.225294 
L 300.877625 276.637186 
L 305.341625 276.973051 
L 309.805625 277.39423 
L 314.269625 277.71159 
L 318.733625 277.947247 
L 323.197625 278.248038 
L 327.661625 278.692868 
L 332.125625 279.013167 
L 336.589625 279.384012 
L 341.053625 279.571164 
L 345.517625 279.837411 
L 349.981625 280.178197 
L 354.445625 280.507264 
L 358.909625 280.780887 
L 363.373625 280.914613 
L 367.837625 281.342696 
L 372.301625 281.660776 
L 376.765625 281.848329 
L 381.229625 282.201295 
L 385.693625 282.332082 
L 390.157625 282.603557 
L 394.621625 282.927313 
L 399.085625 283.002042 
L 403.549625 283.25926 
L 408.013625 283.624264 
L 412.477625 283.782678 
L 416.941625 284.011219 
L 421.405625 284.175923 
L 425.869625 284.575836 
L 430.333625 284.461466 
L 434.797625 284.709751 
L 439.261625 284.986159 
L 443.725625 285.351505 
L 448.189625 285.499274 
L 452.653625 285.768388 
L 457.117625 285.680584 
L 461.581625 286.04292 
L 466.045625 286.231995 
L 470.509625 286.434112 
L 474.973625 286.663938 
L 479.437625 286.802738 
L 483.901625 286.965649 
L 488.365625 287.076385 
L 492.829625 287.222301 
L 497.293625 287.411105 
L 501.757625 287.55655 
L 506.221625 287.942903 
" clip-path="url(#pf654528eb7)" style="fill: none; stroke: #ff00ff; stroke-width: 2; stroke-linecap: square"/>
   </g>
   <g id="line2d_20">
    <path d="M 64.285625 33.790828 
L 68.749625 187.302027 
L 73.213625 212.256621 
L 77.677625 224.697687 
L 82.141625 232.520375 
L 86.605625 238.204236 
L 91.069625 242.026896 
L 95.533625 245.364694 
L 99.997625 248.445108 
L 104.461625 250.864637 
L 108.925625 253.058353 
L 113.389625 254.784992 
L 117.853625 256.696044 
L 122.317625 258.176405 
L 126.781625 259.669487 
L 131.245625 261.031583 
L 135.709625 262.526648 
L 140.173625 263.420534 
L 144.637625 264.771135 
L 149.101625 265.837149 
L 153.565625 266.655338 
L 158.029625 267.615656 
L 162.493625 268.55702 
L 166.957625 269.306831 
L 171.421625 270.289324 
L 175.885625 270.8707 
L 180.349625 271.596907 
L 184.813625 272.226777 
L 189.277625 273.296614 
L 193.741625 273.617409 
L 198.205625 274.440803 
L 202.669625 274.994221 
L 207.133625 275.57005 
L 211.597625 276.072438 
L 216.061625 276.490077 
L 220.525625 276.925136 
L 224.989625 277.650245 
L 229.453625 278.11482 
L 233.917625 278.507734 
L 238.381625 279.171286 
L 242.845625 279.394339 
L 247.309625 280.034629 
L 251.773625 280.287623 
L 256.237625 280.851332 
L 260.701625 281.050993 
L 265.165625 281.513845 
L 269.629625 281.877043 
L 274.093625 282.31216 
L 278.557625 282.61714 
L 283.021625 283.230086 
L 287.485625 283.356294 
L 291.949625 283.641424 
L 296.413625 284.239594 
L 300.877625 284.507811 
L 305.341625 284.615726 
L 309.805625 285.024526 
L 314.269625 285.399408 
L 318.733625 285.677633 
L 323.197625 285.610186 
L 327.661625 286.393172 
L 332.125625 286.512499 
L 336.589625 286.975893 
L 341.053625 287.15856 
L 345.517625 287.425893 
L 349.981625 287.652132 
L 354.445625 287.964724 
L 358.909625 288.310561 
L 363.373625 288.471667 
L 367.837625 288.772705 
L 372.301625 288.991226 
L 376.765625 289.389073 
L 381.229625 289.429376 
L 385.693625 289.778436 
L 390.157625 290.041012 
L 394.621625 290.245335 
L 399.085625 290.566543 
L 403.549625 290.784462 
L 408.013625 291.154658 
L 412.477625 290.938403 
L 416.941625 291.18035 
L 421.405625 291.754362 
L 425.869625 291.895322 
L 430.333625 292.127297 
L 434.797625 292.274736 
L 439.261625 292.540498 
L 443.725625 292.780132 
L 448.189625 293.145962 
L 452.653625 293.147296 
L 457.117625 293.375364 
L 461.581625 293.462272 
L 466.045625 293.657626 
L 470.509625 293.989632 
L 474.973625 293.950733 
L 479.437625 294.250627 
L 483.901625 294.431346 
L 488.365625 294.512837 
L 492.829625 294.599308 
L 497.293625 294.901362 
L 501.757625 295.18956 
L 506.221625 295.225425 
" clip-path="url(#pf654528eb7)" style="fill: none; stroke: #ffff00; stroke-width: 2; stroke-linecap: square"/>
   </g>
   <g id="patch_3">
    <path d="M 64.285625 303.756563 
L 64.285625 26.556562 
" style="fill: none; stroke: #000000; stroke-width: 0.8; stroke-linejoin: miter; stroke-linecap: square"/>
   </g>
   <g id="patch_4">
    <path d="M 510.685625 303.756563 
L 510.685625 26.556562 
" style="fill: none; stroke: #000000; stroke-width: 0.8; stroke-linejoin: miter; stroke-linecap: square"/>
   </g>
   <g id="patch_5">
    <path d="M 64.285625 303.756563 
L 510.685625 303.756563 
" style="fill: none; stroke: #000000; stroke-width: 0.8; stroke-linejoin: miter; stroke-linecap: square"/>
   </g>
   <g id="patch_6">
    <path d="M 64.285625 26.556563 
L 510.685625 26.556563 
" style="fill: none; stroke: #000000; stroke-width: 0.8; stroke-linejoin: miter; stroke-linecap: square"/>
   </g>
   <g id="text_17">
    <!-- ReLU with He init -->
    <g transform="translate(207.551563 20.556563)scale(0.18 -0.18)">
     <defs>
      <path id="Montserrat-Medium-52" d="M 3667 0 
L 2701 1376 
Q 2522 1363 2419 1363 
L 1312 1363 
L 1312 0 
L 672 0 
L 672 4480 
L 2419 4480 
Q 3290 4480 3789 4064 
Q 4288 3648 4288 2918 
Q 4288 2400 4032 2035 
Q 3776 1670 3302 1504 
L 4365 0 
L 3667 0 
z
M 2400 1907 
Q 3008 1907 3328 2169 
Q 3648 2432 3648 2918 
Q 3648 3405 3328 3664 
Q 3008 3923 2400 3923 
L 1312 3923 
L 1312 1907 
L 2400 1907 
z
" transform="scale(0.015625)"/>
      <path id="Montserrat-Medium-65" d="M 3648 1677 
Q 3648 1606 3635 1491 
L 883 1491 
Q 941 1043 1277 771 
Q 1613 499 2112 499 
Q 2720 499 3091 909 
L 3430 512 
Q 3200 243 2857 102 
Q 2515 -38 2093 -38 
Q 1555 -38 1139 182 
Q 723 403 496 800 
Q 269 1197 269 1696 
Q 269 2189 489 2585 
Q 710 2982 1097 3203 
Q 1485 3424 1971 3424 
Q 2458 3424 2838 3203 
Q 3219 2982 3433 2585 
Q 3648 2189 3648 1677 
z
M 1971 2906 
Q 1530 2906 1232 2637 
Q 934 2368 883 1933 
L 3059 1933 
Q 3008 2362 2710 2634 
Q 2413 2906 1971 2906 
z
" transform="scale(0.015625)"/>
      <path id="Montserrat-Medium-4c" d="M 672 4480 
L 1312 4480 
L 1312 557 
L 3738 557 
L 3738 0 
L 672 0 
L 672 4480 
z
" transform="scale(0.015625)"/>
      <path id="Montserrat-Medium-55" d="M 2528 -51 
Q 1632 -51 1133 461 
Q 634 973 634 1933 
L 634 4480 
L 1274 4480 
L 1274 1958 
Q 1274 518 2534 518 
Q 3149 518 3475 873 
Q 3802 1229 3802 1958 
L 3802 4480 
L 4422 4480 
L 4422 1933 
Q 4422 966 3923 457 
Q 3424 -51 2528 -51 
z
" transform="scale(0.015625)"/>
      <path id="Montserrat-Medium-77" d="M 5715 3392 
L 4448 0 
L 3859 0 
L 2880 2573 
L 1888 0 
L 1299 0 
L 38 3392 
L 621 3392 
L 1606 691 
L 2630 3392 
L 3149 3392 
L 4154 678 
L 5165 3392 
L 5715 3392 
z
" transform="scale(0.015625)"/>
      <path id="Montserrat-Medium-48" d="M 4525 4480 
L 4525 0 
L 3885 0 
L 3885 1997 
L 1312 1997 
L 1312 0 
L 672 0 
L 672 4480 
L 1312 4480 
L 1312 2554 
L 3885 2554 
L 3885 4480 
L 4525 4480 
z
" transform="scale(0.015625)"/>
     </defs>
     <use xlink:href="#Montserrat-Medium-52"/>
     <use xlink:href="#Montserrat-Medium-65" x="72.699982"/>
     <use xlink:href="#Montserrat-Medium-4c" x="133.899979"/>
     <use xlink:href="#Montserrat-Medium-55" x="193.299973"/>
     <use xlink:href="#Montserrat-Medium-20" x="272.399963"/>
     <use xlink:href="#Montserrat-Medium-77" x="299.299957"/>
     <use xlink:href="#Montserrat-Medium-69" x="389.199951"/>
     <use xlink:href="#Montserrat-Medium-74" x="417.099945"/>
     <use xlink:href="#Montserrat-Medium-68" x="458.499939"/>
     <use xlink:href="#Montserrat-Medium-20" x="526.59993"/>
     <use xlink:href="#Montserrat-Medium-48" x="553.499924"/>
     <use xlink:href="#Montserrat-Medium-65" x="634.699905"/>
     <use xlink:href="#Montserrat-Medium-20" x="695.899902"/>
     <use xlink:href="#Montserrat-Medium-69" x="722.799896"/>
     <use xlink:href="#Montserrat-Medium-6e" x="750.69989"/>
     <use xlink:href="#Montserrat-Medium-69" x="818.799881"/>
     <use xlink:href="#Montserrat-Medium-74" x="846.699875"/>
    </g>
   </g>
   <g id="legend_1">
    <g id="patch_7">
     <path d="M 259.470312 199.480312 
L 498.085625 199.480312 
Q 501.685625 199.480312 501.685625 195.880313 
L 501.685625 39.156563 
Q 501.685625 35.556563 498.085625 35.556563 
L 259.470312 35.556563 
Q 255.870312 35.556563 255.870312 39.156563 
L 255.870312 195.880313 
Q 255.870312 199.480312 259.470312 199.480312 
z
" style="fill: #f1f7f0; opacity: 0.8; stroke: #cccccc; stroke-linejoin: miter"/>
    </g>
    <g id="line2d_21">
     <path d="M 263.070312 50.13375 
L 281.070312 50.13375 
L 299.070312 50.13375 
" style="fill: none; stroke: #000000; stroke-width: 2; stroke-linecap: square"/>
    </g>
    <g id="text_18">
     <!-- Mini-batch size: 200 -->
     <g transform="translate(313.470312 56.43375)scale(0.18 -0.18)">
      <defs>
       <path id="DejaVuSans-4d" d="M 628 4666 
L 1569 4666 
L 2759 1491 
L 3956 4666 
L 4897 4666 
L 4897 0 
L 4281 0 
L 4281 4097 
L 3078 897 
L 2444 897 
L 1241 4097 
L 1241 0 
L 628 0 
L 628 4666 
z
" transform="scale(0.015625)"/>
       <path id="DejaVuSans-69" d="M 603 3500 
L 1178 3500 
L 1178 0 
L 603 0 
L 603 3500 
z
M 603 4863 
L 1178 4863 
L 1178 4134 
L 603 4134 
L 603 4863 
z
" transform="scale(0.015625)"/>
       <path id="DejaVuSans-6e" d="M 3513 2113 
L 3513 0 
L 2938 0 
L 2938 2094 
Q 2938 2591 2744 2837 
Q 2550 3084 2163 3084 
Q 1697 3084 1428 2787 
Q 1159 2491 1159 1978 
L 1159 0 
L 581 0 
L 581 3500 
L 1159 3500 
L 1159 2956 
Q 1366 3272 1645 3428 
Q 1925 3584 2291 3584 
Q 2894 3584 3203 3211 
Q 3513 2838 3513 2113 
z
" transform="scale(0.015625)"/>
       <path id="DejaVuSans-2d" d="M 313 2009 
L 1997 2009 
L 1997 1497 
L 313 1497 
L 313 2009 
z
" transform="scale(0.015625)"/>
       <path id="DejaVuSans-62" d="M 3116 1747 
Q 3116 2381 2855 2742 
Q 2594 3103 2138 3103 
Q 1681 3103 1420 2742 
Q 1159 2381 1159 1747 
Q 1159 1113 1420 752 
Q 1681 391 2138 391 
Q 2594 391 2855 752 
Q 3116 1113 3116 1747 
z
M 1159 2969 
Q 1341 3281 1617 3432 
Q 1894 3584 2278 3584 
Q 2916 3584 3314 3078 
Q 3713 2572 3713 1747 
Q 3713 922 3314 415 
Q 2916 -91 2278 -91 
Q 1894 -91 1617 61 
Q 1341 213 1159 525 
L 1159 0 
L 581 0 
L 581 4863 
L 1159 4863 
L 1159 2969 
z
" transform="scale(0.015625)"/>
       <path id="DejaVuSans-61" d="M 2194 1759 
Q 1497 1759 1228 1600 
Q 959 1441 959 1056 
Q 959 750 1161 570 
Q 1363 391 1709 391 
Q 2188 391 2477 730 
Q 2766 1069 2766 1631 
L 2766 1759 
L 2194 1759 
z
M 3341 1997 
L 3341 0 
L 2766 0 
L 2766 531 
Q 2569 213 2275 61 
Q 1981 -91 1556 -91 
Q 1019 -91 701 211 
Q 384 513 384 1019 
Q 384 1609 779 1909 
Q 1175 2209 1959 2209 
L 2766 2209 
L 2766 2266 
Q 2766 2663 2505 2880 
Q 2244 3097 1772 3097 
Q 1472 3097 1187 3025 
Q 903 2953 641 2809 
L 641 3341 
Q 956 3463 1253 3523 
Q 1550 3584 1831 3584 
Q 2591 3584 2966 3190 
Q 3341 2797 3341 1997 
z
" transform="scale(0.015625)"/>
       <path id="DejaVuSans-74" d="M 1172 4494 
L 1172 3500 
L 2356 3500 
L 2356 3053 
L 1172 3053 
L 1172 1153 
Q 1172 725 1289 603 
Q 1406 481 1766 481 
L 2356 481 
L 2356 0 
L 1766 0 
Q 1100 0 847 248 
Q 594 497 594 1153 
L 594 3053 
L 172 3053 
L 172 3500 
L 594 3500 
L 594 4494 
L 1172 4494 
z
" transform="scale(0.015625)"/>
       <path id="DejaVuSans-63" d="M 3122 3366 
L 3122 2828 
Q 2878 2963 2633 3030 
Q 2388 3097 2138 3097 
Q 1578 3097 1268 2742 
Q 959 2388 959 1747 
Q 959 1106 1268 751 
Q 1578 397 2138 397 
Q 2388 397 2633 464 
Q 2878 531 3122 666 
L 3122 134 
Q 2881 22 2623 -34 
Q 2366 -91 2075 -91 
Q 1284 -91 818 406 
Q 353 903 353 1747 
Q 353 2603 823 3093 
Q 1294 3584 2113 3584 
Q 2378 3584 2631 3529 
Q 2884 3475 3122 3366 
z
" transform="scale(0.015625)"/>
       <path id="DejaVuSans-68" d="M 3513 2113 
L 3513 0 
L 2938 0 
L 2938 2094 
Q 2938 2591 2744 2837 
Q 2550 3084 2163 3084 
Q 1697 3084 1428 2787 
Q 1159 2491 1159 1978 
L 1159 0 
L 581 0 
L 581 4863 
L 1159 4863 
L 1159 2956 
Q 1366 3272 1645 3428 
Q 1925 3584 2291 3584 
Q 2894 3584 3203 3211 
Q 3513 2838 3513 2113 
z
" transform="scale(0.015625)"/>
       <path id="DejaVuSans-20" transform="scale(0.015625)"/>
       <path id="DejaVuSans-73" d="M 2834 3397 
L 2834 2853 
Q 2591 2978 2328 3040 
Q 2066 3103 1784 3103 
Q 1356 3103 1142 2972 
Q 928 2841 928 2578 
Q 928 2378 1081 2264 
Q 1234 2150 1697 2047 
L 1894 2003 
Q 2506 1872 2764 1633 
Q 3022 1394 3022 966 
Q 3022 478 2636 193 
Q 2250 -91 1575 -91 
Q 1294 -91 989 -36 
Q 684 19 347 128 
L 347 722 
Q 666 556 975 473 
Q 1284 391 1588 391 
Q 1994 391 2212 530 
Q 2431 669 2431 922 
Q 2431 1156 2273 1281 
Q 2116 1406 1581 1522 
L 1381 1569 
Q 847 1681 609 1914 
Q 372 2147 372 2553 
Q 372 3047 722 3315 
Q 1072 3584 1716 3584 
Q 2034 3584 2315 3537 
Q 2597 3491 2834 3397 
z
" transform="scale(0.015625)"/>
       <path id="DejaVuSans-7a" d="M 353 3500 
L 3084 3500 
L 3084 2975 
L 922 459 
L 3084 459 
L 3084 0 
L 275 0 
L 275 525 
L 2438 3041 
L 353 3041 
L 353 3500 
z
" transform="scale(0.015625)"/>
       <path id="DejaVuSans-65" d="M 3597 1894 
L 3597 1613 
L 953 1613 
Q 991 1019 1311 708 
Q 1631 397 2203 397 
Q 2534 397 2845 478 
Q 3156 559 3463 722 
L 3463 178 
Q 3153 47 2828 -22 
Q 2503 -91 2169 -91 
Q 1331 -91 842 396 
Q 353 884 353 1716 
Q 353 2575 817 3079 
Q 1281 3584 2069 3584 
Q 2775 3584 3186 3129 
Q 3597 2675 3597 1894 
z
M 3022 2063 
Q 3016 2534 2758 2815 
Q 2500 3097 2075 3097 
Q 1594 3097 1305 2825 
Q 1016 2553 972 2059 
L 3022 2063 
z
" transform="scale(0.015625)"/>
       <path id="DejaVuSans-3a" d="M 750 794 
L 1409 794 
L 1409 0 
L 750 0 
L 750 794 
z
M 750 3309 
L 1409 3309 
L 1409 2516 
L 750 2516 
L 750 3309 
z
" transform="scale(0.015625)"/>
      </defs>
      <use xlink:href="#DejaVuSans-4d"/>
      <use xlink:href="#DejaVuSans-69" x="86.279297"/>
      <use xlink:href="#DejaVuSans-6e" x="114.0625"/>
      <use xlink:href="#DejaVuSans-69" x="177.441406"/>
      <use xlink:href="#DejaVuSans-2d" x="205.224609"/>
      <use xlink:href="#DejaVuSans-62" x="241.308594"/>
      <use xlink:href="#DejaVuSans-61" x="304.785156"/>
      <use xlink:href="#DejaVuSans-74" x="366.064453"/>
      <use xlink:href="#DejaVuSans-63" x="405.273438"/>
      <use xlink:href="#DejaVuSans-68" x="460.253906"/>
      <use xlink:href="#DejaVuSans-20" x="523.632812"/>
      <use xlink:href="#DejaVuSans-73" x="555.419922"/>
      <use xlink:href="#DejaVuSans-69" x="607.519531"/>
      <use xlink:href="#DejaVuSans-7a" x="635.302734"/>
      <use xlink:href="#DejaVuSans-65" x="687.792969"/>
      <use xlink:href="#DejaVuSans-3a" x="749.316406"/>
      <use xlink:href="#DejaVuSans-20" x="783.007812"/>
      <use xlink:href="#DejaVuSans-32" x="814.794922"/>
      <use xlink:href="#DejaVuSans-30" x="878.417969"/>
      <use xlink:href="#DejaVuSans-30" x="942.041016"/>
     </g>
    </g>
    <g id="line2d_22">
     <path d="M 263.070312 76.554375 
L 281.070312 76.554375 
L 299.070312 76.554375 
" style="fill: none; stroke: #0000ff; stroke-width: 2; stroke-linecap: square"/>
    </g>
    <g id="text_19">
     <!-- Mini-batch size: 100 -->
     <g transform="translate(313.470312 82.854375)scale(0.18 -0.18)">
      <use xlink:href="#DejaVuSans-4d"/>
      <use xlink:href="#DejaVuSans-69" x="86.279297"/>
      <use xlink:href="#DejaVuSans-6e" x="114.0625"/>
      <use xlink:href="#DejaVuSans-69" x="177.441406"/>
      <use xlink:href="#DejaVuSans-2d" x="205.224609"/>
      <use xlink:href="#DejaVuSans-62" x="241.308594"/>
      <use xlink:href="#DejaVuSans-61" x="304.785156"/>
      <use xlink:href="#DejaVuSans-74" x="366.064453"/>
      <use xlink:href="#DejaVuSans-63" x="405.273438"/>
      <use xlink:href="#DejaVuSans-68" x="460.253906"/>
      <use xlink:href="#DejaVuSans-20" x="523.632812"/>
      <use xlink:href="#DejaVuSans-73" x="555.419922"/>
      <use xlink:href="#DejaVuSans-69" x="607.519531"/>
      <use xlink:href="#DejaVuSans-7a" x="635.302734"/>
      <use xlink:href="#DejaVuSans-65" x="687.792969"/>
      <use xlink:href="#DejaVuSans-3a" x="749.316406"/>
      <use xlink:href="#DejaVuSans-20" x="783.007812"/>
      <use xlink:href="#DejaVuSans-31" x="814.794922"/>
      <use xlink:href="#DejaVuSans-30" x="878.417969"/>
      <use xlink:href="#DejaVuSans-30" x="942.041016"/>
     </g>
    </g>
    <g id="line2d_23">
     <path d="M 263.070312 102.975 
L 281.070312 102.975 
L 299.070312 102.975 
" style="fill: none; stroke: #ff0000; stroke-width: 2; stroke-linecap: square"/>
    </g>
    <g id="text_20">
     <!-- Mini-batch size: 50 -->
     <g transform="translate(313.470312 109.275)scale(0.18 -0.18)">
      <use xlink:href="#DejaVuSans-4d"/>
      <use xlink:href="#DejaVuSans-69" x="86.279297"/>
      <use xlink:href="#DejaVuSans-6e" x="114.0625"/>
      <use xlink:href="#DejaVuSans-69" x="177.441406"/>
      <use xlink:href="#DejaVuSans-2d" x="205.224609"/>
      <use xlink:href="#DejaVuSans-62" x="241.308594"/>
      <use xlink:href="#DejaVuSans-61" x="304.785156"/>
      <use xlink:href="#DejaVuSans-74" x="366.064453"/>
      <use xlink:href="#DejaVuSans-63" x="405.273438"/>
      <use xlink:href="#DejaVuSans-68" x="460.253906"/>
      <use xlink:href="#DejaVuSans-20" x="523.632812"/>
      <use xlink:href="#DejaVuSans-73" x="555.419922"/>
      <use xlink:href="#DejaVuSans-69" x="607.519531"/>
      <use xlink:href="#DejaVuSans-7a" x="635.302734"/>
      <use xlink:href="#DejaVuSans-65" x="687.792969"/>
      <use xlink:href="#DejaVuSans-3a" x="749.316406"/>
      <use xlink:href="#DejaVuSans-20" x="783.007812"/>
      <use xlink:href="#DejaVuSans-35" x="814.794922"/>
      <use xlink:href="#DejaVuSans-30" x="878.417969"/>
     </g>
    </g>
    <g id="line2d_24">
     <path d="M 263.070312 129.395625 
L 281.070312 129.395625 
L 299.070312 129.395625 
" style="fill: none; stroke: #008000; stroke-width: 2; stroke-linecap: square"/>
    </g>
    <g id="text_21">
     <!-- Mini-batch size: 20 -->
     <g transform="translate(313.470312 135.695625)scale(0.18 -0.18)">
      <use xlink:href="#DejaVuSans-4d"/>
      <use xlink:href="#DejaVuSans-69" x="86.279297"/>
      <use xlink:href="#DejaVuSans-6e" x="114.0625"/>
      <use xlink:href="#DejaVuSans-69" x="177.441406"/>
      <use xlink:href="#DejaVuSans-2d" x="205.224609"/>
      <use xlink:href="#DejaVuSans-62" x="241.308594"/>
      <use xlink:href="#DejaVuSans-61" x="304.785156"/>
      <use xlink:href="#DejaVuSans-74" x="366.064453"/>
      <use xlink:href="#DejaVuSans-63" x="405.273438"/>
      <use xlink:href="#DejaVuSans-68" x="460.253906"/>
      <use xlink:href="#DejaVuSans-20" x="523.632812"/>
      <use xlink:href="#DejaVuSans-73" x="555.419922"/>
      <use xlink:href="#DejaVuSans-69" x="607.519531"/>
      <use xlink:href="#DejaVuSans-7a" x="635.302734"/>
      <use xlink:href="#DejaVuSans-65" x="687.792969"/>
      <use xlink:href="#DejaVuSans-3a" x="749.316406"/>
      <use xlink:href="#DejaVuSans-20" x="783.007812"/>
      <use xlink:href="#DejaVuSans-32" x="814.794922"/>
      <use xlink:href="#DejaVuSans-30" x="878.417969"/>
     </g>
    </g>
    <g id="line2d_25">
     <path d="M 263.070312 155.81625 
L 281.070312 155.81625 
L 299.070312 155.81625 
" style="fill: none; stroke: #ff00ff; stroke-width: 2; stroke-linecap: square"/>
    </g>
    <g id="text_22">
     <!-- Mini-batch size: 10 -->
     <g transform="translate(313.470312 162.11625)scale(0.18 -0.18)">
      <use xlink:href="#DejaVuSans-4d"/>
      <use xlink:href="#DejaVuSans-69" x="86.279297"/>
      <use xlink:href="#DejaVuSans-6e" x="114.0625"/>
      <use xlink:href="#DejaVuSans-69" x="177.441406"/>
      <use xlink:href="#DejaVuSans-2d" x="205.224609"/>
      <use xlink:href="#DejaVuSans-62" x="241.308594"/>
      <use xlink:href="#DejaVuSans-61" x="304.785156"/>
      <use xlink:href="#DejaVuSans-74" x="366.064453"/>
      <use xlink:href="#DejaVuSans-63" x="405.273438"/>
      <use xlink:href="#DejaVuSans-68" x="460.253906"/>
      <use xlink:href="#DejaVuSans-20" x="523.632812"/>
      <use xlink:href="#DejaVuSans-73" x="555.419922"/>
      <use xlink:href="#DejaVuSans-69" x="607.519531"/>
      <use xlink:href="#DejaVuSans-7a" x="635.302734"/>
      <use xlink:href="#DejaVuSans-65" x="687.792969"/>
      <use xlink:href="#DejaVuSans-3a" x="749.316406"/>
      <use xlink:href="#DejaVuSans-20" x="783.007812"/>
      <use xlink:href="#DejaVuSans-31" x="814.794922"/>
      <use xlink:href="#DejaVuSans-30" x="878.417969"/>
     </g>
    </g>
    <g id="line2d_26">
     <path d="M 263.070312 182.236875 
L 281.070312 182.236875 
L 299.070312 182.236875 
" style="fill: none; stroke: #ffff00; stroke-width: 2; stroke-linecap: square"/>
    </g>
    <g id="text_23">
     <!-- Mini-batch size: 5 -->
     <g transform="translate(313.470312 188.536875)scale(0.18 -0.18)">
      <use xlink:href="#DejaVuSans-4d"/>
      <use xlink:href="#DejaVuSans-69" x="86.279297"/>
      <use xlink:href="#DejaVuSans-6e" x="114.0625"/>
      <use xlink:href="#DejaVuSans-69" x="177.441406"/>
      <use xlink:href="#DejaVuSans-2d" x="205.224609"/>
      <use xlink:href="#DejaVuSans-62" x="241.308594"/>
      <use xlink:href="#DejaVuSans-61" x="304.785156"/>
      <use xlink:href="#DejaVuSans-74" x="366.064453"/>
      <use xlink:href="#DejaVuSans-63" x="405.273438"/>
      <use xlink:href="#DejaVuSans-68" x="460.253906"/>
      <use xlink:href="#DejaVuSans-20" x="523.632812"/>
      <use xlink:href="#DejaVuSans-73" x="555.419922"/>
      <use xlink:href="#DejaVuSans-69" x="607.519531"/>
      <use xlink:href="#DejaVuSans-7a" x="635.302734"/>
      <use xlink:href="#DejaVuSans-65" x="687.792969"/>
      <use xlink:href="#DejaVuSans-3a" x="749.316406"/>
      <use xlink:href="#DejaVuSans-20" x="783.007812"/>
      <use xlink:href="#DejaVuSans-35" x="814.794922"/>
     </g>
    </g>
   </g>
  </g>
 </g>
 <defs>
  <clipPath id="pf654528eb7">
   <rect x="64.285625" y="26.556563" width="446.4" height="277.2"/>
  </clipPath>
 </defs>
</svg>
