<?xml version="1.0" encoding="utf-8" standalone="no"?>
<!DOCTYPE svg PUBLIC "-//W3C//DTD SVG 1.1//EN"
  "http://www.w3.org/Graphics/SVG/1.1/DTD/svg11.dtd">
<svg xmlns:xlink="http://www.w3.org/1999/xlink" width="540.790625pt" height="356.226875pt" viewBox="0 0 540.790625 356.226875" xmlns="http://www.w3.org/2000/svg" version="1.1">
 <metadata>
  <rdf:RDF xmlns:dc="http://purl.org/dc/elements/1.1/" xmlns:cc="http://creativecommons.org/ns#" xmlns:rdf="http://www.w3.org/1999/02/22-rdf-syntax-ns#">
   <cc:Work>
    <dc:type rdf:resource="http://purl.org/dc/dcmitype/StillImage"/>
    <dc:date>2022-12-29T20:03:46.730692</dc:date>
    <dc:format>image/svg+xml</dc:format>
    <dc:creator>
     <cc:Agent>
      <dc:title>Matplotlib v3.5.2, https://matplotlib.org/</dc:title>
     </cc:Agent>
    </dc:creator>
   </cc:Work>
  </rdf:RDF>
 </metadata>
 <defs>
  <style type="text/css">*{stroke-linejoin: round; stroke-linecap: butt}</style>
 </defs>
 <g id="figure_1">
  <g id="patch_1">
   <path d="M 0 356.226875 
L 540.790625 356.226875 
L 540.790625 0 
L 0 0 
z
" style="fill: #ffffff"/>
  </g>
  <g id="axes_1">
   <g id="patch_2">
    <path d="M 64.285625 303.756563 
L 510.685625 303.756563 
L 510.685625 26.556563 
L 64.285625 26.556563 
z
" style="fill: #f1f7f0"/>
   </g>
   <g id="matplotlib.axis_1">
    <g id="xtick_1">
     <g id="line2d_1">
      <defs>
       <path id="md6ceb80349" d="M 0 0 
L 0 3.5 
" style="stroke: #000000; stroke-width: 0.8"/>
      </defs>
      <g>
       <use xlink:href="#md6ceb80349" x="64.285625" y="303.756563" style="stroke: #000000; stroke-width: 0.8"/>
      </g>
     </g>
     <g id="text_1">
      <!-- 0 -->
      <g transform="translate(58.559375 324.43375)scale(0.18 -0.18)">
       <defs>
        <path id="DejaVuSans-30" d="M 2034 4250 
Q 1547 4250 1301 3770 
Q 1056 3291 1056 2328 
Q 1056 1369 1301 889 
Q 1547 409 2034 409 
Q 2525 409 2770 889 
Q 3016 1369 3016 2328 
Q 3016 3291 2770 3770 
Q 2525 4250 2034 4250 
z
M 2034 4750 
Q 2819 4750 3233 4129 
Q 3647 3509 3647 2328 
Q 3647 1150 3233 529 
Q 2819 -91 2034 -91 
Q 1250 -91 836 529 
Q 422 1150 422 2328 
Q 422 3509 836 4129 
Q 1250 4750 2034 4750 
z
" transform="scale(0.015625)"/>
       </defs>
       <use xlink:href="#DejaVuSans-30"/>
      </g>
     </g>
    </g>
    <g id="xtick_2">
     <g id="line2d_2">
      <g>
       <use xlink:href="#md6ceb80349" x="153.565625" y="303.756563" style="stroke: #000000; stroke-width: 0.8"/>
      </g>
     </g>
     <g id="text_2">
      <!-- 200 -->
      <g transform="translate(136.386875 324.43375)scale(0.18 -0.18)">
       <defs>
        <path id="DejaVuSans-32" d="M 1228 531 
L 3431 531 
L 3431 0 
L 469 0 
L 469 531 
Q 828 903 1448 1529 
Q 2069 2156 2228 2338 
Q 2531 2678 2651 2914 
Q 2772 3150 2772 3378 
Q 2772 3750 2511 3984 
Q 2250 4219 1831 4219 
Q 1534 4219 1204 4116 
Q 875 4013 500 3803 
L 500 4441 
Q 881 4594 1212 4672 
Q 1544 4750 1819 4750 
Q 2544 4750 2975 4387 
Q 3406 4025 3406 3419 
Q 3406 3131 3298 2873 
Q 3191 2616 2906 2266 
Q 2828 2175 2409 1742 
Q 1991 1309 1228 531 
z
" transform="scale(0.015625)"/>
       </defs>
       <use xlink:href="#DejaVuSans-32"/>
       <use xlink:href="#DejaVuSans-30" x="63.623047"/>
       <use xlink:href="#DejaVuSans-30" x="127.246094"/>
      </g>
     </g>
    </g>
    <g id="xtick_3">
     <g id="line2d_3">
      <g>
       <use xlink:href="#md6ceb80349" x="242.845625" y="303.756563" style="stroke: #000000; stroke-width: 0.8"/>
      </g>
     </g>
     <g id="text_3">
      <!-- 400 -->
      <g transform="translate(225.666875 324.43375)scale(0.18 -0.18)">
       <defs>
        <path id="DejaVuSans-34" d="M 2419 4116 
L 825 1625 
L 2419 1625 
L 2419 4116 
z
M 2253 4666 
L 3047 4666 
L 3047 1625 
L 3713 1625 
L 3713 1100 
L 3047 1100 
L 3047 0 
L 2419 0 
L 2419 1100 
L 313 1100 
L 313 1709 
L 2253 4666 
z
" transform="scale(0.015625)"/>
       </defs>
       <use xlink:href="#DejaVuSans-34"/>
       <use xlink:href="#DejaVuSans-30" x="63.623047"/>
       <use xlink:href="#DejaVuSans-30" x="127.246094"/>
      </g>
     </g>
    </g>
    <g id="xtick_4">
     <g id="line2d_4">
      <g>
       <use xlink:href="#md6ceb80349" x="332.125625" y="303.756563" style="stroke: #000000; stroke-width: 0.8"/>
      </g>
     </g>
     <g id="text_4">
      <!-- 600 -->
      <g transform="translate(314.946875 324.43375)scale(0.18 -0.18)">
       <defs>
        <path id="DejaVuSans-36" d="M 2113 2584 
Q 1688 2584 1439 2293 
Q 1191 2003 1191 1497 
Q 1191 994 1439 701 
Q 1688 409 2113 409 
Q 2538 409 2786 701 
Q 3034 994 3034 1497 
Q 3034 2003 2786 2293 
Q 2538 2584 2113 2584 
z
M 3366 4563 
L 3366 3988 
Q 3128 4100 2886 4159 
Q 2644 4219 2406 4219 
Q 1781 4219 1451 3797 
Q 1122 3375 1075 2522 
Q 1259 2794 1537 2939 
Q 1816 3084 2150 3084 
Q 2853 3084 3261 2657 
Q 3669 2231 3669 1497 
Q 3669 778 3244 343 
Q 2819 -91 2113 -91 
Q 1303 -91 875 529 
Q 447 1150 447 2328 
Q 447 3434 972 4092 
Q 1497 4750 2381 4750 
Q 2619 4750 2861 4703 
Q 3103 4656 3366 4563 
z
" transform="scale(0.015625)"/>
       </defs>
       <use xlink:href="#DejaVuSans-36"/>
       <use xlink:href="#DejaVuSans-30" x="63.623047"/>
       <use xlink:href="#DejaVuSans-30" x="127.246094"/>
      </g>
     </g>
    </g>
    <g id="xtick_5">
     <g id="line2d_5">
      <g>
       <use xlink:href="#md6ceb80349" x="421.405625" y="303.756563" style="stroke: #000000; stroke-width: 0.8"/>
      </g>
     </g>
     <g id="text_5">
      <!-- 800 -->
      <g transform="translate(404.226875 324.43375)scale(0.18 -0.18)">
       <defs>
        <path id="DejaVuSans-38" d="M 2034 2216 
Q 1584 2216 1326 1975 
Q 1069 1734 1069 1313 
Q 1069 891 1326 650 
Q 1584 409 2034 409 
Q 2484 409 2743 651 
Q 3003 894 3003 1313 
Q 3003 1734 2745 1975 
Q 2488 2216 2034 2216 
z
M 1403 2484 
Q 997 2584 770 2862 
Q 544 3141 544 3541 
Q 544 4100 942 4425 
Q 1341 4750 2034 4750 
Q 2731 4750 3128 4425 
Q 3525 4100 3525 3541 
Q 3525 3141 3298 2862 
Q 3072 2584 2669 2484 
Q 3125 2378 3379 2068 
Q 3634 1759 3634 1313 
Q 3634 634 3220 271 
Q 2806 -91 2034 -91 
Q 1263 -91 848 271 
Q 434 634 434 1313 
Q 434 1759 690 2068 
Q 947 2378 1403 2484 
z
M 1172 3481 
Q 1172 3119 1398 2916 
Q 1625 2713 2034 2713 
Q 2441 2713 2670 2916 
Q 2900 3119 2900 3481 
Q 2900 3844 2670 4047 
Q 2441 4250 2034 4250 
Q 1625 4250 1398 4047 
Q 1172 3844 1172 3481 
z
" transform="scale(0.015625)"/>
       </defs>
       <use xlink:href="#DejaVuSans-38"/>
       <use xlink:href="#DejaVuSans-30" x="63.623047"/>
       <use xlink:href="#DejaVuSans-30" x="127.246094"/>
      </g>
     </g>
    </g>
    <g id="xtick_6">
     <g id="line2d_6">
      <g>
       <use xlink:href="#md6ceb80349" x="510.685625" y="303.756563" style="stroke: #000000; stroke-width: 0.8"/>
      </g>
     </g>
     <g id="text_6">
      <!-- 1000 -->
      <g transform="translate(487.780625 324.43375)scale(0.18 -0.18)">
       <defs>
        <path id="DejaVuSans-31" d="M 794 531 
L 1825 531 
L 1825 4091 
L 703 3866 
L 703 4441 
L 1819 4666 
L 2450 4666 
L 2450 531 
L 3481 531 
L 3481 0 
L 794 0 
L 794 531 
z
" transform="scale(0.015625)"/>
       </defs>
       <use xlink:href="#DejaVuSans-31"/>
       <use xlink:href="#DejaVuSans-30" x="63.623047"/>
       <use xlink:href="#DejaVuSans-30" x="127.246094"/>
       <use xlink:href="#DejaVuSans-30" x="190.869141"/>
      </g>
     </g>
    </g>
    <g id="text_7">
     <!-- Epochs -->
     <g transform="translate(253.827031 345.53375)scale(0.18 -0.18)">
      <defs>
       <path id="Montserrat-Medium-45" d="M 3923 557 
L 3923 0 
L 672 0 
L 672 4480 
L 3834 4480 
L 3834 3923 
L 1312 3923 
L 1312 2547 
L 3558 2547 
L 3558 2003 
L 1312 2003 
L 1312 557 
L 3923 557 
z
" transform="scale(0.015625)"/>
       <path id="Montserrat-Medium-70" d="M 2381 3424 
Q 2874 3424 3264 3206 
Q 3654 2989 3875 2598 
Q 4096 2208 4096 1696 
Q 4096 1184 3875 790 
Q 3654 397 3264 179 
Q 2874 -38 2381 -38 
Q 2016 -38 1712 102 
Q 1408 243 1197 512 
L 1197 -1242 
L 582 -1242 
L 582 3392 
L 1171 3392 
L 1171 2854 
Q 1376 3136 1689 3280 
Q 2003 3424 2381 3424 
z
M 2330 499 
Q 2656 499 2915 649 
Q 3174 800 3324 1072 
Q 3475 1344 3475 1696 
Q 3475 2048 3324 2320 
Q 3174 2592 2915 2739 
Q 2656 2886 2330 2886 
Q 2010 2886 1750 2736 
Q 1491 2586 1340 2317 
Q 1190 2048 1190 1696 
Q 1190 1344 1337 1072 
Q 1485 800 1747 649 
Q 2010 499 2330 499 
z
" transform="scale(0.015625)"/>
       <path id="Montserrat-Medium-6f" d="M 2035 -38 
Q 1530 -38 1126 186 
Q 723 410 496 803 
Q 269 1197 269 1696 
Q 269 2195 496 2588 
Q 723 2982 1126 3203 
Q 1530 3424 2035 3424 
Q 2541 3424 2941 3203 
Q 3341 2982 3568 2588 
Q 3795 2195 3795 1696 
Q 3795 1197 3568 803 
Q 3341 410 2941 186 
Q 2541 -38 2035 -38 
z
M 2035 499 
Q 2362 499 2621 649 
Q 2880 800 3027 1072 
Q 3174 1344 3174 1696 
Q 3174 2048 3027 2320 
Q 2880 2592 2621 2739 
Q 2362 2886 2035 2886 
Q 1709 2886 1449 2739 
Q 1190 2592 1040 2320 
Q 890 2048 890 1696 
Q 890 1344 1040 1072 
Q 1190 800 1449 649 
Q 1709 499 2035 499 
z
" transform="scale(0.015625)"/>
       <path id="Montserrat-Medium-63" d="M 2061 -38 
Q 1542 -38 1136 186 
Q 730 410 499 803 
Q 269 1197 269 1696 
Q 269 2195 499 2588 
Q 730 2982 1136 3203 
Q 1542 3424 2061 3424 
Q 2522 3424 2883 3238 
Q 3245 3053 3443 2701 
L 2976 2400 
Q 2816 2643 2579 2764 
Q 2342 2886 2054 2886 
Q 1722 2886 1456 2739 
Q 1190 2592 1040 2320 
Q 890 2048 890 1696 
Q 890 1338 1040 1066 
Q 1190 794 1456 646 
Q 1722 499 2054 499 
Q 2342 499 2579 620 
Q 2816 742 2976 986 
L 3443 691 
Q 3245 339 2883 150 
Q 2522 -38 2061 -38 
z
" transform="scale(0.015625)"/>
       <path id="Montserrat-Medium-68" d="M 2394 3424 
Q 3040 3424 3421 3049 
Q 3802 2675 3802 1952 
L 3802 0 
L 3187 0 
L 3187 1882 
Q 3187 2374 2950 2624 
Q 2714 2874 2272 2874 
Q 1773 2874 1485 2582 
Q 1197 2291 1197 1747 
L 1197 0 
L 582 0 
L 582 4749 
L 1197 4749 
L 1197 2912 
Q 1389 3155 1699 3289 
Q 2010 3424 2394 3424 
z
" transform="scale(0.015625)"/>
       <path id="Montserrat-Medium-73" d="M 1555 -38 
Q 1139 -38 755 74 
Q 371 186 154 358 
L 410 845 
Q 634 685 954 589 
Q 1274 493 1600 493 
Q 2406 493 2406 954 
Q 2406 1107 2297 1196 
Q 2189 1286 2025 1328 
Q 1862 1370 1562 1421 
Q 1152 1485 893 1568 
Q 634 1651 448 1849 
Q 262 2048 262 2406 
Q 262 2867 646 3145 
Q 1030 3424 1677 3424 
Q 2016 3424 2355 3341 
Q 2694 3258 2912 3117 
L 2650 2630 
Q 2234 2899 1670 2899 
Q 1280 2899 1075 2771 
Q 870 2643 870 2432 
Q 870 2266 985 2170 
Q 1101 2074 1270 2029 
Q 1440 1984 1747 1926 
Q 2157 1856 2409 1776 
Q 2662 1696 2841 1504 
Q 3021 1312 3021 966 
Q 3021 506 2627 234 
Q 2234 -38 1555 -38 
z
" transform="scale(0.015625)"/>
      </defs>
      <use xlink:href="#Montserrat-Medium-45"/>
      <use xlink:href="#Montserrat-Medium-70" x="66.999985"/>
      <use xlink:href="#Montserrat-Medium-6f" x="135.199966"/>
      <use xlink:href="#Montserrat-Medium-63" x="198.699951"/>
      <use xlink:href="#Montserrat-Medium-68" x="255.799942"/>
      <use xlink:href="#Montserrat-Medium-73" x="323.899933"/>
     </g>
    </g>
   </g>
   <g id="matplotlib.axis_2">
    <g id="ytick_1">
     <g id="line2d_7">
      <defs>
       <path id="m474cc222f4" d="M 0 0 
L -3.5 0 
" style="stroke: #000000; stroke-width: 0.8"/>
      </defs>
      <g>
       <use xlink:href="#m474cc222f4" x="64.285625" y="303.756563" style="stroke: #000000; stroke-width: 0.8"/>
      </g>
     </g>
     <g id="text_8">
      <!-- 0.0 -->
      <g transform="translate(28.66 310.595156)scale(0.18 -0.18)">
       <defs>
        <path id="DejaVuSans-2e" d="M 684 794 
L 1344 794 
L 1344 0 
L 684 0 
L 684 794 
z
" transform="scale(0.015625)"/>
       </defs>
       <use xlink:href="#DejaVuSans-30"/>
       <use xlink:href="#DejaVuSans-2e" x="63.623047"/>
       <use xlink:href="#DejaVuSans-30" x="95.410156"/>
      </g>
     </g>
    </g>
    <g id="ytick_2">
     <g id="line2d_8">
      <g>
       <use xlink:href="#m474cc222f4" x="64.285625" y="248.316563" style="stroke: #000000; stroke-width: 0.8"/>
      </g>
     </g>
     <g id="text_9">
      <!-- 0.2 -->
      <g transform="translate(28.66 255.155156)scale(0.18 -0.18)">
       <use xlink:href="#DejaVuSans-30"/>
       <use xlink:href="#DejaVuSans-2e" x="63.623047"/>
       <use xlink:href="#DejaVuSans-32" x="95.410156"/>
      </g>
     </g>
    </g>
    <g id="ytick_3">
     <g id="line2d_9">
      <g>
       <use xlink:href="#m474cc222f4" x="64.285625" y="192.876563" style="stroke: #000000; stroke-width: 0.8"/>
      </g>
     </g>
     <g id="text_10">
      <!-- 0.4 -->
      <g transform="translate(28.66 199.715156)scale(0.18 -0.18)">
       <use xlink:href="#DejaVuSans-30"/>
       <use xlink:href="#DejaVuSans-2e" x="63.623047"/>
       <use xlink:href="#DejaVuSans-34" x="95.410156"/>
      </g>
     </g>
    </g>
    <g id="ytick_4">
     <g id="line2d_10">
      <g>
       <use xlink:href="#m474cc222f4" x="64.285625" y="137.436563" style="stroke: #000000; stroke-width: 0.8"/>
      </g>
     </g>
     <g id="text_11">
      <!-- 0.6 -->
      <g transform="translate(28.66 144.275156)scale(0.18 -0.18)">
       <use xlink:href="#DejaVuSans-30"/>
       <use xlink:href="#DejaVuSans-2e" x="63.623047"/>
       <use xlink:href="#DejaVuSans-36" x="95.410156"/>
      </g>
     </g>
    </g>
    <g id="ytick_5">
     <g id="line2d_11">
      <g>
       <use xlink:href="#m474cc222f4" x="64.285625" y="81.996563" style="stroke: #000000; stroke-width: 0.8"/>
      </g>
     </g>
     <g id="text_12">
      <!-- 0.8 -->
      <g transform="translate(28.66 88.835156)scale(0.18 -0.18)">
       <use xlink:href="#DejaVuSans-30"/>
       <use xlink:href="#DejaVuSans-2e" x="63.623047"/>
       <use xlink:href="#DejaVuSans-38" x="95.410156"/>
      </g>
     </g>
    </g>
    <g id="ytick_6">
     <g id="line2d_12">
      <g>
       <use xlink:href="#m474cc222f4" x="64.285625" y="26.556563" style="stroke: #000000; stroke-width: 0.8"/>
      </g>
     </g>
     <g id="text_13">
      <!-- 1.0 -->
      <g transform="translate(28.66 33.395156)scale(0.18 -0.18)">
       <use xlink:href="#DejaVuSans-31"/>
       <use xlink:href="#DejaVuSans-2e" x="63.623047"/>
       <use xlink:href="#DejaVuSans-30" x="95.410156"/>
      </g>
     </g>
    </g>
    <g id="text_14">
     <!-- Cost function $J$ -->
     <g transform="translate(20.88 231.756563)rotate(-90)scale(0.18 -0.18)">
      <defs>
       <path id="Montserrat-Medium-43" d="M 2675 -51 
Q 2003 -51 1462 246 
Q 922 544 614 1065 
Q 307 1587 307 2240 
Q 307 2893 614 3414 
Q 922 3936 1466 4233 
Q 2010 4531 2682 4531 
Q 3206 4531 3641 4355 
Q 4077 4179 4384 3834 
L 3968 3430 
Q 3462 3962 2707 3962 
Q 2208 3962 1805 3738 
Q 1402 3514 1174 3120 
Q 947 2726 947 2240 
Q 947 1754 1174 1360 
Q 1402 966 1805 742 
Q 2208 518 2707 518 
Q 3456 518 3968 1056 
L 4384 653 
Q 4077 307 3638 128 
Q 3200 -51 2675 -51 
z
" transform="scale(0.015625)"/>
       <path id="Montserrat-Medium-74" d="M 2490 198 
Q 2355 83 2156 22 
Q 1958 -38 1747 -38 
Q 1235 -38 953 237 
Q 672 512 672 1024 
L 672 2886 
L 96 2886 
L 96 3392 
L 672 3392 
L 672 4134 
L 1286 4134 
L 1286 3392 
L 2259 3392 
L 2259 2886 
L 1286 2886 
L 1286 1050 
Q 1286 774 1424 627 
Q 1562 480 1818 480 
Q 2099 480 2298 640 
L 2490 198 
z
" transform="scale(0.015625)"/>
       <path id="Montserrat-Medium-20" transform="scale(0.015625)"/>
       <path id="Montserrat-Medium-66" d="M 1824 4282 
Q 1274 4282 1274 3686 
L 1274 3392 
L 2259 3392 
L 2259 2886 
L 1286 2886 
L 1286 0 
L 672 0 
L 672 2886 
L 96 2886 
L 96 3392 
L 672 3392 
L 672 3693 
Q 672 4198 966 4492 
Q 1261 4787 1792 4787 
Q 1997 4787 2176 4736 
Q 2355 4685 2483 4589 
L 2298 4122 
Q 2086 4282 1824 4282 
z
" transform="scale(0.015625)"/>
       <path id="Montserrat-Medium-75" d="M 3744 3392 
L 3744 0 
L 3162 0 
L 3162 512 
Q 2976 250 2672 106 
Q 2368 -38 2010 -38 
Q 1331 -38 940 336 
Q 550 710 550 1440 
L 550 3392 
L 1165 3392 
L 1165 1510 
Q 1165 1018 1401 765 
Q 1638 512 2080 512 
Q 2566 512 2848 806 
Q 3130 1101 3130 1638 
L 3130 3392 
L 3744 3392 
z
" transform="scale(0.015625)"/>
       <path id="Montserrat-Medium-6e" d="M 2394 3424 
Q 3040 3424 3421 3049 
Q 3802 2675 3802 1952 
L 3802 0 
L 3187 0 
L 3187 1882 
Q 3187 2374 2950 2624 
Q 2714 2874 2272 2874 
Q 1773 2874 1485 2582 
Q 1197 2291 1197 1747 
L 1197 0 
L 582 0 
L 582 3392 
L 1171 3392 
L 1171 2880 
Q 1357 3142 1673 3283 
Q 1990 3424 2394 3424 
z
" transform="scale(0.015625)"/>
       <path id="Montserrat-Medium-69" d="M 582 3392 
L 1197 3392 
L 1197 0 
L 582 0 
L 582 3392 
z
M 890 4045 
Q 710 4045 592 4160 
Q 474 4275 474 4442 
Q 474 4608 592 4726 
Q 710 4845 890 4845 
Q 1069 4845 1187 4733 
Q 1306 4621 1306 4454 
Q 1306 4282 1187 4163 
Q 1069 4045 890 4045 
z
" transform="scale(0.015625)"/>
       <path id="DejaVuSans-Oblique-4a" d="M 1069 4666 
L 1703 4666 
L 856 325 
Q 691 -522 298 -901 
Q -94 -1281 -800 -1281 
L -1050 -1281 
L -947 -750 
L -750 -750 
Q -328 -750 -109 -509 
Q 109 -269 225 325 
L 1069 4666 
z
" transform="scale(0.015625)"/>
      </defs>
      <use xlink:href="#Montserrat-Medium-43" transform="translate(0 0.296875)"/>
      <use xlink:href="#Montserrat-Medium-6f" transform="translate(72.299988 0.296875)"/>
      <use xlink:href="#Montserrat-Medium-73" transform="translate(135.799973 0.296875)"/>
      <use xlink:href="#Montserrat-Medium-74" transform="translate(185.899963 0.296875)"/>
      <use xlink:href="#Montserrat-Medium-20" transform="translate(227.299957 0.296875)"/>
      <use xlink:href="#Montserrat-Medium-66" transform="translate(254.199951 0.296875)"/>
      <use xlink:href="#Montserrat-Medium-75" transform="translate(289.499939 0.296875)"/>
      <use xlink:href="#Montserrat-Medium-6e" transform="translate(357.199921 0.296875)"/>
      <use xlink:href="#Montserrat-Medium-63" transform="translate(425.299911 0.296875)"/>
      <use xlink:href="#Montserrat-Medium-74" transform="translate(482.399902 0.296875)"/>
      <use xlink:href="#Montserrat-Medium-69" transform="translate(523.799896 0.296875)"/>
      <use xlink:href="#Montserrat-Medium-6f" transform="translate(551.69989 0.296875)"/>
      <use xlink:href="#Montserrat-Medium-6e" transform="translate(615.199875 0.296875)"/>
      <use xlink:href="#Montserrat-Medium-20" transform="translate(683.299866 0.296875)"/>
      <use xlink:href="#DejaVuSans-Oblique-4a" transform="translate(710.19986 0.296875)"/>
     </g>
    </g>
   </g>
   <g id="line2d_13">
    <path d="M 68.651381 -1 
L 69.196025 12.230776 
L 70.088825 28.640649 
L 70.981625 41.042947 
L 71.874425 51.02296 
L 73.213625 63.06074 
L 74.552825 72.902263 
L 75.892025 81.251911 
L 77.677625 90.881814 
L 79.463225 99.141465 
L 81.248825 106.262788 
L 83.034425 112.44995 
L 84.820025 117.88265 
L 86.159225 121.505998 
L 88.391225 126.734546 
L 90.176825 130.36941 
L 92.408825 134.388882 
L 95.533625 139.147782 
L 98.212025 142.693408 
L 101.783225 146.775748 
L 105.354425 150.31113 
L 109.818425 154.13653 
L 114.728825 157.737225 
L 118.300025 160.045141 
L 120.532025 161.375674 
L 124.549625 163.570114 
L 128.120825 165.337458 
L 130.352825 166.343045 
L 135.263225 168.434236 
L 146.869625 172.49646 
L 148.655225 173.019585 
L 153.119225 174.282409 
L 157.136825 175.322089 
L 173.207225 178.850763 
L 176.778425 179.542614 
L 191.063225 181.949285 
L 194.188025 182.433069 
L 200.437625 183.311979 
L 211.151225 184.753187 
L 243.292025 188.326323 
L 247.309625 188.687404 
L 249.988025 188.967665 
L 251.327225 189.050673 
L 252.666425 189.22534 
L 256.684025 189.559076 
L 258.916025 189.782517 
L 261.148025 189.957944 
L 262.933625 190.120681 
L 264.719225 190.234554 
L 269.629625 190.673323 
L 272.754425 190.905264 
L 274.986425 191.085689 
L 277.664825 191.284511 
L 284.807225 191.833113 
L 287.485625 192.008804 
L 319.626425 194.138195 
L 321.858425 194.264005 
L 328.554425 194.648622 
L 330.786425 194.76931 
L 334.357625 194.969 
L 335.696825 195.017146 
L 343.732025 195.450463 
L 345.517625 195.565764 
L 353.552825 195.954851 
L 355.784825 196.082767 
L 399.085625 198.075179 
L 400.424825 198.109637 
L 409.799225 198.485125 
L 462.028025 200.428772 
L 475.420025 200.871556 
L 477.205625 200.93591 
L 479.884025 201.003462 
L 482.116025 201.086743 
L 486.580025 201.231463 
L 489.704825 201.3141 
L 491.044025 201.385502 
L 493.276025 201.443313 
L 505.775225 201.800189 
L 508.900025 201.896234 
L 510.239225 201.942224 
L 510.239225 201.942224 
" clip-path="url(#p7f112d60f1)" style="fill: none; stroke: #1f77b4; stroke-width: 2; stroke-linecap: square"/>
   </g>
   <g id="line2d_14">
    <path d="M 66.074242 -1 
L 66.517625 24.752283 
L 67.410425 58.160756 
L 68.303225 78.417872 
L 69.196025 92.536897 
L 70.088825 103.34427 
L 70.981625 111.632405 
L 72.320825 121.202696 
L 73.660025 128.63041 
L 74.999225 134.637346 
L 76.338425 139.635721 
L 77.677625 143.812916 
L 79.016825 147.40307 
L 80.356025 150.50892 
L 82.141625 154.067516 
L 84.373625 157.761182 
L 86.159225 160.316802 
L 89.730425 164.527637 
L 91.962425 166.73969 
L 94.194425 168.691936 
L 96.426425 170.439189 
L 99.997625 172.927736 
L 101.783225 173.938966 
L 104.461625 175.46975 
L 108.479225 177.427953 
L 109.818425 178.049005 
L 110.711225 178.409243 
L 112.050425 178.972988 
L 121.424825 182.382585 
L 122.764025 182.786203 
L 131.692025 185.328241 
L 133.031225 185.654716 
L 135.709625 186.325542 
L 137.048825 186.635676 
L 138.834425 187.073677 
L 146.423225 188.720622 
L 148.208825 189.041198 
L 149.101625 189.215906 
L 153.565625 190.094088 
L 169.189625 192.694748 
L 172.314425 193.167512 
L 174.546425 193.459207 
L 178.117625 193.94523 
L 184.367225 194.764742 
L 185.706425 194.901564 
L 188.831225 195.298539 
L 191.956025 195.646708 
L 192.848825 195.787702 
L 194.634425 195.973504 
L 208.026425 197.356562 
L 210.704825 197.592601 
L 212.490425 197.763691 
L 214.276025 197.928386 
L 216.061625 198.150761 
L 219.632825 198.436723 
L 221.864825 198.649383 
L 224.096825 198.825627 
L 229.453625 199.336087 
L 230.792825 199.359747 
L 232.132025 199.49666 
L 236.149625 199.818888 
L 238.381625 200.021255 
L 239.274425 200.047393 
L 240.613625 200.178085 
L 242.399225 200.320401 
L 250.880825 200.921338 
L 253.112825 201.115658 
L 254.452025 201.182763 
L 258.469625 201.460216 
L 264.719225 201.889567 
L 268.290425 202.131901 
L 269.183225 202.178511 
L 271.861625 202.327122 
L 273.647225 202.483878 
L 277.664825 202.699149 
L 287.039225 203.222149 
L 289.271225 203.41808 
L 356.677625 206.770922 
L 357.570425 206.77336 
L 359.802425 206.892172 
L 366.498425 207.158679 
L 367.391225 207.23065 
L 369.176825 207.295278 
L 373.640825 207.471943 
L 375.872825 207.578249 
L 379.444025 207.702001 
L 385.247225 207.951688 
L 386.140025 207.968723 
L 388.372025 208.035738 
L 390.157625 208.157466 
L 391.050425 208.159259 
L 394.175225 208.289563 
L 395.960825 208.30193 
L 399.532025 208.495895 
L 400.424825 208.463916 
L 401.764025 208.575302 
L 402.656825 208.603373 
L 406.228025 208.718113 
L 408.906425 208.805442 
L 410.245625 208.857868 
L 420.066425 209.203161 
L 420.959225 209.262807 
L 423.637625 209.337563 
L 424.976825 209.400265 
L 436.136825 209.786766 
L 437.476025 209.810913 
L 441.940025 209.973304 
L 486.580025 211.386812 
L 487.472825 211.422864 
L 495.508025 211.632344 
L 496.400825 211.6517 
L 497.740025 211.711535 
L 500.864825 211.795659 
L 507.114425 211.95477 
L 509.346425 212.053475 
L 510.239225 212.086974 
L 510.239225 212.086974 
" clip-path="url(#p7f112d60f1)" style="fill: none; stroke: #ff7f0e; stroke-width: 2; stroke-linecap: square"/>
   </g>
   <g id="line2d_15">
    <path d="M 65.865565 -1 
L 66.517625 52.703058 
L 66.964025 78.352344 
L 67.410425 96.146465 
L 67.856825 108.615413 
L 68.303225 117.434067 
L 69.196025 129.165554 
L 70.088825 137.030733 
L 70.981625 142.928555 
L 71.874425 147.585197 
L 73.213625 153.063449 
L 74.552825 157.287022 
L 75.892025 160.677387 
L 77.231225 163.504784 
L 78.570425 165.9244 
L 80.356025 168.619213 
L 81.695225 170.395446 
L 83.034425 171.953327 
L 86.605625 175.395788 
L 90.176825 178.059712 
L 94.194425 180.476221 
L 96.872825 181.830745 
L 97.765625 182.225473 
L 101.783225 183.919508 
L 104.015225 184.758557 
L 105.354425 185.263688 
L 107.140025 185.799295 
L 108.479225 186.317892 
L 109.372025 186.52657 
L 109.818425 186.723905 
L 110.264825 186.781891 
L 111.157625 187.092058 
L 114.282425 187.998072 
L 124.103225 190.502225 
L 124.996025 190.687821 
L 129.460025 191.690021 
L 130.799225 191.954305 
L 131.692025 192.125923 
L 133.031225 192.411323 
L 134.370425 192.694401 
L 136.602425 193.148247 
L 138.834425 193.486857 
L 142.852025 194.314936 
L 143.744825 194.41939 
L 149.548025 195.382903 
L 151.780025 195.780704 
L 154.458425 196.204017 
L 160.708025 197.16705 
L 162.047225 197.321452 
L 162.940025 197.493012 
L 163.832825 197.611585 
L 164.725625 197.74388 
L 165.618425 197.865403 
L 168.296825 198.234951 
L 170.528825 198.5481 
L 181.242425 199.919146 
L 182.135225 200.091169 
L 183.028025 200.137572 
L 185.706425 200.497736 
L 190.616825 201.030509 
L 191.063225 201.052707 
L 191.509625 201.189414 
L 192.402425 201.251117 
L 201.776825 202.289062 
L 202.669625 202.391667 
L 203.562425 202.466265 
L 204.455225 202.601642 
L 206.687225 202.758505 
L 207.580025 202.883497 
L 208.472825 202.945374 
L 210.258425 203.141288 
L 237.488825 205.625531 
L 239.720825 205.80337 
L 256.684025 207.118686 
L 258.916025 207.309693 
L 260.255225 207.406845 
L 270.076025 208.101455 
L 270.522425 208.179623 
L 270.968825 208.129296 
L 271.415225 208.236543 
L 272.308025 208.211181 
L 275.879225 208.489046 
L 283.914425 209.020622 
L 284.807225 209.072527 
L 285.253625 209.157749 
L 286.592825 209.165209 
L 287.039225 209.270986 
L 287.932025 209.268565 
L 289.271225 209.320388 
L 290.164025 209.423851 
L 290.610425 209.3591 
L 292.396025 209.518202 
L 297.306425 209.845503 
L 298.199225 209.85763 
L 299.538425 209.95655 
L 301.324025 210.076544 
L 308.020025 210.39755 
L 309.359225 210.548449 
L 310.252025 210.514677 
L 312.037625 210.673507 
L 316.055225 210.869785 
L 341.946425 212.192337 
L 342.392825 212.157302 
L 343.285625 212.260583 
L 346.410425 212.3933 
L 347.303225 212.471583 
L 348.196025 212.459877 
L 353.552825 212.775578 
L 353.999225 212.737329 
L 354.445625 212.834035 
L 354.892025 212.715073 
L 355.338425 212.85881 
L 356.231225 212.892326 
L 356.677625 212.809441 
L 357.570425 212.89658 
L 360.695225 213.070685 
L 361.588025 213.066802 
L 363.373625 213.180898 
L 366.052025 213.296761 
L 366.498425 213.360926 
L 366.944825 213.240312 
L 367.391225 213.386627 
L 375.426425 213.673043 
L 376.765625 213.742916 
L 378.997625 213.854442 
L 379.444025 213.935361 
L 380.336825 213.841356 
L 380.783225 213.952544 
L 382.122425 213.944324 
L 383.015225 213.982606 
L 383.908025 214.00858 
L 384.800825 214.035982 
L 401.764025 214.729114 
L 402.210425 214.819805 
L 403.549625 214.812428 
L 403.996025 214.849645 
L 404.442425 214.771122 
L 404.888825 214.896072 
L 406.228025 214.860632 
L 408.460025 214.987846 
L 427.655225 215.66272 
L 428.548025 215.681308 
L 428.994425 215.774486 
L 429.440825 215.734593 
L 430.333625 215.804351 
L 431.672825 215.845665 
L 440.154425 216.157534 
L 440.600825 216.084149 
L 441.493625 216.172842 
L 445.064825 216.246333 
L 451.760825 216.512641 
L 452.653625 216.483223 
L 454.885625 216.701426 
L 455.332025 216.584167 
L 456.224825 216.686218 
L 458.456825 216.695412 
L 459.796025 216.777091 
L 460.688825 216.730605 
L 461.581625 216.806286 
L 462.474425 216.770903 
L 463.367225 216.912343 
L 464.260025 216.875837 
L 465.152825 216.930097 
L 465.599225 216.798091 
L 466.045625 216.933558 
L 469.616825 217.028801 
L 470.509625 217.105085 
L 471.402425 217.111628 
L 474.527225 217.221271 
L 475.420025 217.192761 
L 475.866425 217.280107 
L 477.205625 217.279645 
L 478.991225 217.305378 
L 482.116025 217.498327 
L 482.562425 217.383488 
L 483.455225 217.461854 
L 483.901625 217.388412 
L 484.794425 217.505952 
L 487.919225 217.586895 
L 491.044025 217.644203 
L 492.383225 217.723816 
L 503.989625 218.025623 
L 505.328825 218.102287 
L 506.668025 218.108871 
L 507.560825 218.107789 
L 510.239225 218.162445 
L 510.239225 218.162445 
" clip-path="url(#p7f112d60f1)" style="fill: none; stroke: #2ca02c; stroke-width: 2; stroke-linecap: square"/>
   </g>
   <g id="line2d_16">
    <path d="M 64.520857 -1 
L 64.732025 75.369471 
L 65.178425 108.570109 
L 65.624825 124.560247 
L 66.071225 135.167963 
L 66.964025 148.779536 
L 67.856825 157.241354 
L 68.749625 162.791066 
L 69.642425 166.942503 
L 70.535225 170.266869 
L 71.428025 172.882639 
L 73.213625 176.962946 
L 74.552825 179.353557 
L 77.231225 182.910112 
L 79.016825 184.778656 
L 81.248825 186.730853 
L 83.034425 188.00706 
L 83.480825 188.404788 
L 83.927225 188.636432 
L 84.820025 189.235774 
L 88.837625 191.606954 
L 89.284025 191.689318 
L 90.176825 192.211922 
L 92.855225 193.505949 
L 93.748025 193.832076 
L 94.194425 193.966908 
L 94.640825 194.266839 
L 96.872825 195.064466 
L 97.765625 195.453263 
L 104.908025 197.908435 
L 105.354425 197.929146 
L 106.247225 198.379877 
L 106.693625 198.437491 
L 107.140025 198.634157 
L 107.586425 198.689739 
L 108.479225 199.027481 
L 111.604025 199.979858 
L 112.050425 200.159911 
L 112.496825 200.173583 
L 113.389625 200.513325 
L 113.836025 200.456347 
L 114.282425 200.729339 
L 115.621625 201.007056 
L 116.514425 201.277924 
L 117.853625 201.562225 
L 118.300025 201.881975 
L 119.192825 202.032321 
L 121.424825 202.602484 
L 122.317625 202.733276 
L 124.103225 203.31541 
L 126.781625 203.91267 
L 128.120825 204.26278 
L 129.013625 204.391076 
L 129.460025 204.583381 
L 130.352825 204.739592 
L 144.637625 208.299667 
L 145.084025 208.293454 
L 145.976825 208.55901 
L 148.208825 208.998325 
L 148.655225 209.198213 
L 151.780025 209.771392 
L 158.029625 210.953033 
L 158.476025 211.025451 
L 158.922425 211.234434 
L 159.815225 211.30748 
L 160.261625 211.424954 
L 161.154425 211.429407 
L 161.600825 211.657268 
L 162.047225 211.649857 
L 162.493625 211.773437 
L 163.386425 211.863575 
L 179.456825 214.255928 
L 180.349625 214.339837 
L 181.688825 214.507928 
L 182.135225 214.474619 
L 183.474425 214.72172 
L 183.920825 214.721142 
L 184.367225 214.958147 
L 184.813625 214.858352 
L 185.706425 214.976619 
L 186.152825 215.11487 
L 187.045625 215.101215 
L 190.616825 215.550533 
L 191.956025 215.68928 
L 195.080825 215.969913 
L 195.527225 216.193883 
L 195.973625 216.150231 
L 196.420025 216.225705 
L 196.866425 216.140623 
L 197.312825 216.170404 
L 197.759225 216.337686 
L 198.652025 216.371466 
L 199.098425 216.518044 
L 200.884025 216.704475 
L 201.330425 216.798553 
L 201.776825 216.661872 
L 202.223225 216.801907 
L 202.669625 216.750853 
L 203.562425 216.912946 
L 204.455225 216.913252 
L 204.901625 217.118146 
L 205.348025 217.182022 
L 205.794425 217.112578 
L 208.919225 217.49926 
L 209.365625 217.386925 
L 209.812025 217.528224 
L 210.258425 217.471114 
L 215.168825 218.00749 
L 220.525625 218.395072 
L 220.972025 218.586187 
L 221.418425 218.482038 
L 223.204025 218.774072 
L 224.989625 218.875313 
L 225.882425 218.949523 
L 229.007225 219.10846 
L 230.792825 219.266638 
L 232.578425 219.427392 
L 233.024825 219.298096 
L 233.471225 219.442296 
L 233.917625 219.454043 
L 234.364025 219.615128 
L 235.256825 219.593079 
L 237.042425 219.711619 
L 237.488825 219.695064 
L 237.935225 219.944172 
L 239.274425 219.886459 
L 241.506425 220.109892 
L 241.952825 220.1853 
L 242.845625 220.13266 
L 243.292025 220.269358 
L 244.631225 220.279536 
L 251.327225 220.718519 
L 251.773625 220.706037 
L 252.666425 220.919424 
L 253.112825 220.819223 
L 259.362425 221.281669 
L 261.148025 221.452858 
L 262.040825 221.406752 
L 263.380025 221.590927 
L 264.719225 221.587631 
L 266.058425 221.730963 
L 266.951225 221.858053 
L 267.397625 221.771443 
L 267.844025 221.856095 
L 268.290425 221.788808 
L 270.076025 222.021361 
L 270.968825 221.977345 
L 274.093625 222.157976 
L 274.540025 222.261159 
L 274.986425 222.170963 
L 276.772025 222.382053 
L 277.664825 222.311304 
L 278.111225 222.397634 
L 278.557625 222.337087 
L 279.450425 222.550821 
L 280.343225 222.485839 
L 280.789625 222.593738 
L 281.236025 222.541313 
L 283.021625 222.681282 
L 283.914425 222.642711 
L 284.807225 222.805638 
L 286.146425 222.803358 
L 287.039225 222.892794 
L 289.271225 222.970441 
L 289.717625 223.071294 
L 290.164025 223.003651 
L 291.503225 223.127462 
L 291.949625 223.063239 
L 292.396025 223.213271 
L 292.842425 223.125586 
L 293.735225 223.278774 
L 294.181625 223.171238 
L 299.984825 223.613997 
L 300.877625 223.526139 
L 301.324025 223.621622 
L 302.216825 223.554805 
L 302.663225 223.727828 
L 303.556025 223.683812 
L 304.002425 223.795107 
L 304.448825 223.699203 
L 304.895225 223.840445 
L 305.788025 223.78944 
L 306.234425 223.941041 
L 307.127225 223.920397 
L 308.020025 224.021059 
L 309.805625 224.001464 
L 310.252025 224.114882 
L 310.698425 223.976474 
L 311.591225 224.103283 
L 312.484025 224.082779 
L 312.930425 224.21248 
L 313.376825 224.084316 
L 313.823225 224.195924 
L 314.269625 224.175974 
L 314.716025 224.275678 
L 315.608825 224.230274 
L 316.055225 224.389303 
L 316.501625 224.258949 
L 316.948025 224.439927 
L 317.394425 224.347022 
L 317.840825 224.410641 
L 318.733625 224.400083 
L 319.180025 224.515988 
L 319.626425 224.422785 
L 320.072825 224.596502 
L 320.519225 224.406263 
L 320.965625 224.445338 
L 321.412025 224.613008 
L 321.858425 224.472889 
L 322.304825 224.693274 
L 323.197625 224.609612 
L 323.644025 224.711514 
L 324.536825 224.707731 
L 325.429625 224.719643 
L 326.322425 224.750169 
L 326.768825 224.657032 
L 327.215225 224.828204 
L 328.108025 224.730846 
L 328.554425 224.873095 
L 329.000825 224.829369 
L 329.893625 224.932402 
L 331.232825 225.035031 
L 332.125625 224.965208 
L 333.018425 225.054643 
L 333.464825 225.131547 
L 334.357625 225.024771 
L 336.143225 225.228715 
L 337.928825 225.220099 
L 338.821625 225.322455 
L 339.268025 225.212837 
L 342.392825 225.426852 
L 342.839225 225.382431 
L 343.285625 225.503276 
L 344.624825 225.423771 
L 345.517625 225.630714 
L 346.410425 225.568292 
L 346.856825 225.660735 
L 347.749625 225.612969 
L 349.088825 225.728328 
L 350.428025 225.75383 
L 351.320825 225.817037 
L 351.767225 225.74281 
L 352.213625 225.837161 
L 353.552825 225.786644 
L 353.999225 225.968746 
L 358.909625 226.126584 
L 359.802425 226.045608 
L 360.248825 226.183306 
L 361.588025 226.183413 
L 362.927225 226.179167 
L 364.266425 226.334387 
L 364.712825 226.186494 
L 365.159225 226.372074 
L 368.284025 226.285274 
L 369.176825 226.57183 
L 370.516025 226.413132 
L 372.748025 226.629972 
L 375.872825 226.613219 
L 376.319225 226.764019 
L 376.765625 226.689825 
L 377.658425 226.729776 
L 379.890425 226.733543 
L 380.783225 226.910787 
L 382.122425 226.897958 
L 384.354425 227.048906 
L 385.693625 226.985138 
L 386.140025 227.084735 
L 387.479225 227.057523 
L 389.711225 227.266267 
L 390.157625 227.055383 
L 390.604025 227.2587 
L 391.050425 227.135244 
L 391.496825 227.310522 
L 391.943225 227.205687 
L 392.836025 227.375083 
L 393.728825 227.32773 
L 395.068025 227.35752 
L 395.960825 227.330142 
L 396.853625 227.445923 
L 397.300025 227.379578 
L 397.746425 227.509055 
L 399.532025 227.44784 
L 400.424825 227.561002 
L 400.871225 227.446733 
L 403.103225 227.638517 
L 403.549625 227.568718 
L 403.996025 227.731108 
L 404.888825 227.623787 
L 406.228025 227.761088 
L 406.674425 227.726424 
L 407.120825 227.878843 
L 407.567225 227.722261 
L 408.013625 227.93497 
L 408.460025 227.813712 
L 408.906425 227.923768 
L 409.352825 227.77272 
L 410.245625 227.813241 
L 412.477625 227.960167 
L 412.924025 227.860751 
L 413.816825 227.904759 
L 415.602425 227.851259 
L 416.048825 228.084258 
L 416.495225 227.976276 
L 419.173625 228.108934 
L 420.066425 228.175925 
L 420.512825 228.093156 
L 421.405625 228.257008 
L 421.852025 228.039896 
L 422.298425 228.215256 
L 424.084025 228.216413 
L 425.869625 228.40305 
L 426.316025 228.205764 
L 426.762425 228.405809 
L 429.440825 228.467677 
L 429.887225 228.536179 
L 430.333625 228.418449 
L 430.780025 228.419068 
L 431.226425 228.30033 
L 432.119225 228.62578 
L 433.458425 228.548323 
L 434.797625 228.555634 
L 435.244025 228.513081 
L 436.136825 228.559757 
L 436.583225 228.519351 
L 437.029625 228.639122 
L 437.476025 228.596089 
L 438.368825 228.681692 
L 439.708025 228.731532 
L 440.154425 228.868536 
L 441.047225 228.732515 
L 448.189625 229.041872 
L 448.636025 228.884158 
L 449.082425 229.031876 
L 449.528825 228.947414 
L 451.314425 229.126277 
L 452.207225 229.028704 
L 454.439225 229.062666 
L 454.885625 229.218265 
L 455.332025 229.065995 
L 456.671225 229.236952 
L 457.117625 229.152514 
L 458.456825 229.411379 
L 458.903225 229.261794 
L 459.796025 229.348528 
L 460.242425 229.261364 
L 461.135225 229.308461 
L 462.028025 229.217728 
L 462.920825 229.358524 
L 463.813625 229.317342 
L 464.260025 229.386191 
L 465.152825 229.338301 
L 466.938425 229.430124 
L 469.170425 229.512926 
L 470.063225 229.548813 
L 470.509625 229.442061 
L 471.402425 229.595075 
L 473.188025 229.651053 
L 474.527225 229.55234 
L 475.420025 229.682884 
L 475.866425 229.702413 
L 476.312825 229.587789 
L 477.205625 229.756631 
L 478.544825 229.753038 
L 479.437625 229.904788 
L 479.884025 229.813477 
L 480.330425 229.94545 
L 480.776825 229.83684 
L 482.116025 229.874321 
L 483.455225 229.833221 
L 484.348025 229.935264 
L 485.240825 229.92193 
L 486.580025 230.006525 
L 487.026425 230.105246 
L 487.919225 229.959196 
L 488.365625 230.100058 
L 488.812025 229.965111 
L 491.044025 230.172187 
L 491.490425 229.99391 
L 492.383225 230.153054 
L 493.276025 230.111599 
L 494.168825 230.092458 
L 494.615225 230.072573 
L 495.508025 230.264894 
L 495.954425 230.164107 
L 496.400825 230.304341 
L 496.847225 230.074903 
L 497.740025 230.23688 
L 498.186425 230.290834 
L 498.632825 230.182307 
L 499.525625 230.320062 
L 499.972025 230.342384 
L 500.864825 230.171881 
L 501.757625 230.400749 
L 502.204025 230.271742 
L 502.650425 230.407218 
L 504.436025 230.380542 
L 504.882425 230.453902 
L 505.328825 230.316097 
L 505.775225 230.425739 
L 506.221625 230.361624 
L 507.114425 230.468351 
L 508.007225 230.520297 
L 508.453625 230.623232 
L 509.346425 230.434769 
L 510.239225 230.594425 
L 510.239225 230.594425 
" clip-path="url(#p7f112d60f1)" style="fill: none; stroke: #d62728; stroke-width: 2; stroke-linecap: square"/>
   </g>
   <g id="line2d_17">
    <path d="M 64.422939 -1 
L 64.732025 115.092544 
L 65.178425 139.789859 
L 65.624825 151.487046 
L 66.071225 158.652219 
L 66.517625 163.771043 
L 67.410425 170.425377 
L 68.303225 174.875547 
L 69.196025 177.971804 
L 70.088825 180.428472 
L 70.981625 182.282806 
L 72.320825 184.57814 
L 74.106425 186.842933 
L 78.570425 191.207302 
L 79.016825 191.468141 
L 79.463225 191.92981 
L 80.356025 192.543866 
L 81.248825 193.299386 
L 81.695225 193.709224 
L 82.141625 193.861569 
L 84.820025 195.829751 
L 86.159225 196.64015 
L 87.498425 197.461322 
L 89.730425 198.603326 
L 91.962425 199.61938 
L 92.408825 199.965847 
L 92.855225 200.049401 
L 95.087225 200.985411 
L 95.533625 201.096442 
L 95.980025 201.412772 
L 96.426425 201.471914 
L 96.872825 201.781032 
L 97.319225 201.867815 
L 98.212025 202.205112 
L 98.658425 202.258133 
L 100.444025 202.87954 
L 100.890425 202.99062 
L 101.336825 203.232608 
L 102.676025 203.601991 
L 104.461625 204.186876 
L 105.354425 204.339171 
L 106.247225 204.736238 
L 106.693625 204.672982 
L 108.032825 205.03141 
L 108.479225 205.291514 
L 108.925625 205.268366 
L 109.372025 205.447618 
L 109.818425 205.479498 
L 110.264825 205.752176 
L 110.711225 205.62948 
L 114.282425 206.609821 
L 115.175225 206.636265 
L 115.621625 206.850057 
L 116.514425 207.006169 
L 117.407225 207.267537 
L 117.853625 207.18846 
L 118.300025 207.349306 
L 118.746425 207.297781 
L 119.192825 207.575762 
L 120.532025 207.708106 
L 121.424825 208.120192 
L 121.871225 207.977397 
L 122.764025 208.228604 
L 123.656825 208.37909 
L 124.549625 208.41776 
L 125.442425 208.613609 
L 128.120825 209.21932 
L 128.567225 209.183153 
L 129.013625 209.314655 
L 129.906425 209.364073 
L 130.352825 209.596923 
L 130.799225 209.623409 
L 131.245625 209.773564 
L 131.692025 209.731647 
L 133.031225 210.074875 
L 133.924025 210.14845 
L 134.370425 210.307321 
L 135.263225 210.424349 
L 136.156025 210.666848 
L 136.602425 210.629004 
L 137.495225 210.925738 
L 137.941625 211.057901 
L 138.388025 211.070829 
L 139.280825 211.269544 
L 139.727225 211.298673 
L 140.173625 211.469556 
L 141.066425 211.605908 
L 141.512825 211.70928 
L 141.959225 211.694096 
L 142.852025 212.0611 
L 143.744825 212.045288 
L 144.637625 212.358421 
L 145.084025 212.48205 
L 145.530425 212.407856 
L 145.976825 212.475755 
L 146.423225 212.708349 
L 148.208825 212.941521 
L 148.655225 212.991237 
L 149.101625 213.266963 
L 149.994425 213.258297 
L 150.887225 213.502308 
L 151.333625 213.543573 
L 152.226425 213.796729 
L 156.244025 214.384101 
L 156.690425 214.664057 
L 157.583225 214.818905 
L 158.476025 215.007805 
L 158.922425 214.901004 
L 161.154425 215.374066 
L 162.047225 215.419825 
L 162.940025 215.632741 
L 165.172025 216.067362 
L 165.618425 215.909202 
L 166.064825 216.097574 
L 167.404025 216.362287 
L 167.850425 216.214214 
L 168.296825 216.551271 
L 168.743225 216.480662 
L 169.636025 216.648571 
L 170.082425 216.608174 
L 170.528825 216.932467 
L 170.975225 216.749052 
L 172.760825 217.164203 
L 173.653625 217.208838 
L 174.546425 217.192803 
L 174.992825 217.472106 
L 175.885625 217.500549 
L 177.671225 217.715307 
L 178.117625 217.879111 
L 178.564025 217.779993 
L 179.010425 217.925605 
L 179.903225 217.944002 
L 180.349625 218.142486 
L 181.242425 218.132969 
L 181.688825 218.274888 
L 182.135225 218.260828 
L 182.581625 218.464318 
L 183.474425 218.450241 
L 187.492025 218.942517 
L 187.938425 219.123413 
L 188.831225 219.149552 
L 189.724025 219.409457 
L 190.170425 219.269025 
L 190.616825 219.274494 
L 191.063225 219.463362 
L 198.205625 220.321825 
L 198.652025 220.29434 
L 199.544825 220.480118 
L 199.991225 220.49374 
L 200.437625 220.640707 
L 201.330425 220.74541 
L 201.776825 220.807559 
L 202.223225 220.751672 
L 203.562425 221.205137 
L 204.455225 221.075833 
L 204.901625 221.36139 
L 205.794425 221.27349 
L 206.687225 221.483226 
L 207.133625 221.469917 
L 207.580025 221.684295 
L 208.026425 221.558552 
L 208.472825 221.779423 
L 208.919225 221.609969 
L 209.365625 221.897938 
L 209.812025 221.793038 
L 211.597625 222.190055 
L 212.044025 222.062815 
L 214.276025 222.41252 
L 215.168825 222.48588 
L 216.061625 222.619042 
L 216.508025 222.599843 
L 217.400825 222.822747 
L 218.740025 222.871075 
L 220.079225 223.166777 
L 220.525625 223.095639 
L 221.418425 223.359577 
L 222.311225 223.311843 
L 223.204025 223.474581 
L 224.543225 223.653684 
L 225.882425 223.720971 
L 226.328825 223.909599 
L 227.221625 223.905023 
L 227.668025 224.004355 
L 228.114425 223.877571 
L 229.900025 224.301891 
L 230.346425 224.185185 
L 231.239225 224.414408 
L 231.685625 224.279065 
L 233.024825 224.570198 
L 234.364025 224.52757 
L 234.810425 224.834879 
L 235.703225 224.700923 
L 236.596025 224.86946 
L 238.381625 225.001408 
L 240.167225 225.278274 
L 240.613625 225.227013 
L 242.399225 225.520931 
L 243.292025 225.500501 
L 244.631225 225.617983 
L 245.970425 225.88658 
L 246.416825 225.721422 
L 246.863225 225.956015 
L 247.756025 225.794806 
L 250.434425 226.250221 
L 250.880825 226.101809 
L 251.327225 226.079066 
L 252.220025 226.408754 
L 252.666425 226.321995 
L 253.559225 226.458015 
L 254.452025 226.414289 
L 256.237625 226.637184 
L 256.684025 226.482493 
L 257.130425 226.564692 
L 257.576825 226.822516 
L 258.469625 226.847606 
L 258.916025 226.901576 
L 259.362425 226.652682 
L 259.808825 226.880956 
L 261.594425 226.968814 
L 262.040825 227.091765 
L 262.487225 227.036754 
L 262.933625 227.247051 
L 264.719225 227.135418 
L 265.612025 227.283417 
L 267.397625 227.326755 
L 267.844025 227.606794 
L 268.290425 227.504396 
L 269.183225 227.554079 
L 269.629625 227.655171 
L 270.076025 227.47321 
L 270.522425 227.623043 
L 270.968825 227.587702 
L 271.861625 227.732347 
L 272.754425 227.677212 
L 273.200825 227.869244 
L 274.093625 227.837149 
L 274.540025 227.972418 
L 275.879225 227.935077 
L 276.772025 228.061383 
L 277.218425 228.021795 
L 277.664825 228.103292 
L 278.111225 228.05384 
L 279.004025 228.241171 
L 279.450425 228.106274 
L 279.896825 228.314068 
L 281.236025 228.360513 
L 281.682425 228.490957 
L 283.468025 228.433434 
L 284.360825 228.614347 
L 285.700025 228.638866 
L 286.146425 228.733242 
L 287.932025 228.585176 
L 288.378425 228.784932 
L 291.056825 228.829997 
L 291.503225 229.076214 
L 292.396025 228.960962 
L 292.842425 229.03015 
L 293.288825 228.930635 
L 293.735225 229.175514 
L 294.181625 229.039237 
L 294.628025 229.176629 
L 295.074425 229.124517 
L 295.967225 229.290534 
L 299.092025 229.371618 
L 299.538425 229.595175 
L 300.431225 229.388785 
L 300.877625 229.691046 
L 301.324025 229.474164 
L 302.663225 229.82054 
L 303.109625 229.624997 
L 304.002425 229.703578 
L 304.895225 229.792072 
L 305.788025 229.748494 
L 306.680825 229.894428 
L 308.466425 229.973835 
L 311.591225 230.138208 
L 312.037625 230.002047 
L 312.484025 230.128799 
L 314.269625 230.22329 
L 317.840825 230.650709 
L 318.287225 230.427582 
L 318.733625 230.562272 
L 319.180025 230.400378 
L 319.626425 230.44284 
L 320.519225 230.72743 
L 321.412025 230.529872 
L 322.304825 230.769612 
L 322.751225 230.629147 
L 323.197625 230.73665 
L 323.644025 230.659028 
L 324.536825 230.829274 
L 325.429625 230.781021 
L 326.768825 230.901552 
L 330.340025 231.195403 
L 330.786425 230.949962 
L 332.125625 231.250893 
L 332.572025 231.160227 
L 334.357625 231.345434 
L 334.804025 231.177286 
L 335.250425 231.295487 
L 335.696825 231.215626 
L 336.143225 231.409252 
L 337.036025 231.432268 
L 337.482425 231.544191 
L 337.928825 231.262723 
L 338.375225 231.491484 
L 339.714425 231.461595 
L 340.160825 231.444784 
L 341.500025 231.703715 
L 341.946425 231.49787 
L 342.392825 231.722468 
L 342.839225 231.65504 
L 343.732025 231.70982 
L 344.624825 231.612544 
L 345.071225 231.878836 
L 347.303225 231.835952 
L 347.749625 232.002076 
L 349.088825 231.89739 
L 349.535225 232.058112 
L 349.981625 231.988098 
L 350.874425 232.126663 
L 352.213625 232.033882 
L 352.660025 232.146664 
L 353.106425 232.05456 
L 353.552825 232.088571 
L 353.999225 232.265245 
L 354.445625 232.073544 
L 355.338425 232.269012 
L 355.784825 232.12953 
L 356.231225 232.311219 
L 356.677625 232.225591 
L 358.016825 232.488512 
L 358.909625 232.353144 
L 359.356025 232.309905 
L 360.248825 232.526134 
L 360.695225 232.408387 
L 361.141625 232.545688 
L 361.588025 232.351368 
L 362.927225 232.627416 
L 363.373625 232.479731 
L 365.605625 232.563689 
L 366.052025 232.722775 
L 366.944825 232.763288 
L 367.391225 232.652208 
L 368.284025 232.831906 
L 369.176825 232.717257 
L 369.623225 232.840663 
L 370.069625 232.80419 
L 370.516025 233.000005 
L 371.408825 232.860209 
L 371.855225 232.974304 
L 372.748025 232.846619 
L 373.640825 233.138182 
L 374.533625 232.831468 
L 374.980025 233.047622 
L 377.658425 233.043872 
L 378.551225 233.177902 
L 379.890425 233.139586 
L 380.336825 233.321746 
L 380.783225 233.171516 
L 381.229625 233.276739 
L 382.122425 233.221603 
L 382.568825 233.403449 
L 385.247225 233.385241 
L 386.140025 233.534067 
L 386.586425 233.380086 
L 388.818425 233.659786 
L 389.264825 233.534645 
L 389.711225 233.652326 
L 390.157625 233.468316 
L 390.604025 233.702463 
L 391.943225 233.797798 
L 392.836025 233.679068 
L 393.282425 233.777549 
L 394.621625 233.734566 
L 395.514425 233.858608 
L 395.960825 233.746429 
L 396.407225 233.967466 
L 397.300025 233.799458 
L 397.746425 233.979742 
L 398.192825 233.872553 
L 399.085625 233.903434 
L 399.532025 234.12034 
L 399.978425 234.073994 
L 400.424825 233.902335 
L 400.871225 234.117581 
L 403.549625 234.080405 
L 404.442425 234.269917 
L 406.228025 234.112987 
L 407.567225 234.315081 
L 408.013625 234.224514 
L 416.495225 234.589378 
L 418.280825 234.571806 
L 418.727225 234.717736 
L 420.066425 234.682519 
L 420.512825 234.680301 
L 420.959225 234.844343 
L 424.976825 234.882361 
L 425.869625 234.952656 
L 426.316025 234.852898 
L 426.762425 235.004805 
L 427.208825 234.918269 
L 427.655225 234.99585 
L 428.101625 234.929202 
L 428.994425 235.106166 
L 429.440825 234.955605 
L 431.226425 235.258585 
L 431.672825 235.031464 
L 433.458425 235.264062 
L 433.904825 235.132994 
L 434.351225 235.251542 
L 435.690425 235.132032 
L 436.583225 235.432537 
L 437.029625 235.284864 
L 439.261625 235.214602 
L 439.708025 235.532068 
L 441.047225 235.267445 
L 441.940025 235.480997 
L 443.725625 235.52144 
L 444.618425 235.610091 
L 449.975225 235.636944 
L 450.868025 235.746929 
L 458.903225 236.013564 
L 459.349625 235.831508 
L 459.796025 236.154364 
L 460.242425 235.966153 
L 461.135225 235.991593 
L 461.581625 236.129324 
L 462.028025 236.012085 
L 462.920825 236.208859 
L 463.367225 236.004221 
L 465.152825 236.20745 
L 465.599225 236.031338 
L 467.384825 236.328014 
L 467.831225 236.132323 
L 468.277625 236.241573 
L 468.724025 236.204096 
L 469.616825 236.370741 
L 470.063225 236.291417 
L 470.509625 236.436616 
L 470.956025 236.333756 
L 471.402425 236.43382 
L 472.741625 236.389618 
L 477.205625 236.555429 
L 477.652025 236.458339 
L 478.544825 236.683556 
L 480.776825 236.618482 
L 481.669625 236.834381 
L 482.116025 236.520248 
L 482.562425 236.636389 
L 483.901625 236.639189 
L 484.794425 236.842468 
L 485.240825 236.705853 
L 485.687225 236.833806 
L 486.133625 236.656765 
L 486.580025 236.644261 
L 487.472825 236.781455 
L 487.919225 236.750191 
L 488.812025 236.923019 
L 489.258425 236.803281 
L 491.490425 236.988836 
L 491.936825 236.788312 
L 492.383225 237.028044 
L 492.829625 236.894415 
L 493.722425 236.90691 
L 494.168825 237.066124 
L 494.615225 237.01678 
L 495.061625 237.14164 
L 495.508025 236.993938 
L 496.400825 237.106397 
L 497.740025 237.196387 
L 498.186425 237.028077 
L 500.418425 237.080102 
L 500.864825 237.275504 
L 501.311225 237.089024 
L 502.204025 237.218031 
L 507.114425 237.346472 
L 507.560825 237.318743 
L 508.453625 237.46863 
L 508.900025 237.342907 
L 509.792825 237.481208 
L 510.239225 237.378179 
L 510.239225 237.378179 
" clip-path="url(#p7f112d60f1)" style="fill: none; stroke: #9467bd; stroke-width: 2; stroke-linecap: square"/>
   </g>
   <g id="line2d_18">
    <path d="M 64.285625 27.664373 
L 64.732025 134.813838 
L 65.178425 155.171113 
L 65.624825 164.849642 
L 66.071225 171.257759 
L 66.964025 179.416953 
L 67.856825 184.414486 
L 68.749625 187.867644 
L 69.642425 190.542399 
L 70.535225 192.6268 
L 71.428025 194.533725 
L 72.767225 196.463303 
L 73.213625 197.251455 
L 74.106425 198.360108 
L 75.445625 199.807289 
L 75.892025 200.239483 
L 76.338425 200.915365 
L 76.784825 201.106075 
L 77.231225 201.571651 
L 77.677625 201.778016 
L 78.124025 202.398036 
L 80.802425 204.214873 
L 81.248825 204.807854 
L 81.695225 205.106232 
L 82.141625 205.26759 
L 83.034425 205.942059 
L 83.480825 206.129861 
L 84.373625 206.730583 
L 84.820025 206.854501 
L 85.266425 207.221447 
L 85.712825 207.326183 
L 86.159225 207.753684 
L 87.052025 208.254883 
L 87.498425 208.272669 
L 87.944825 208.587437 
L 88.391225 208.756693 
L 88.837625 209.178403 
L 89.284025 209.18611 
L 89.730425 209.596378 
L 90.176825 209.768616 
L 90.623225 209.782875 
L 91.962425 210.407818 
L 93.748025 211.139092 
L 94.194425 211.455322 
L 95.533625 211.939181 
L 96.426425 212.304359 
L 96.872825 212.244573 
L 97.319225 212.628413 
L 97.765625 212.494532 
L 98.212025 212.838372 
L 98.658425 212.86632 
L 102.229625 214.044384 
L 103.122425 214.159314 
L 103.568825 214.44031 
L 105.354425 214.931133 
L 105.800825 215.265547 
L 106.693625 215.277137 
L 107.586425 215.564693 
L 108.032825 215.603339 
L 109.372025 216.105281 
L 109.818425 216.12439 
L 110.264825 216.36774 
L 110.711225 216.281005 
L 112.496825 216.916523 
L 112.943225 216.897242 
L 116.068025 217.654811 
L 116.960825 217.773615 
L 117.407225 217.992388 
L 117.853625 217.981186 
L 118.746425 218.321919 
L 119.192825 218.205056 
L 119.639225 218.381524 
L 120.085625 218.340499 
L 120.532025 218.739746 
L 120.978425 218.563403 
L 122.317625 218.908638 
L 122.764025 219.171692 
L 123.210425 219.114384 
L 126.781625 219.638383 
L 127.228025 219.8875 
L 127.674425 219.808845 
L 128.120825 220.034351 
L 131.245625 220.490808 
L 131.692025 220.749829 
L 132.138425 220.618253 
L 133.031225 220.907057 
L 134.816825 221.070157 
L 135.263225 221.229367 
L 136.156025 221.257513 
L 137.048825 221.543103 
L 137.941625 221.449875 
L 139.727225 221.765982 
L 141.066425 222.109029 
L 141.512825 222.150244 
L 141.959225 222.023823 
L 143.298425 222.564874 
L 143.744825 222.365085 
L 144.637625 222.684967 
L 145.084025 222.408002 
L 145.530425 222.599909 
L 145.976825 222.659762 
L 146.423225 222.56413 
L 146.869625 222.845143 
L 147.762425 222.887457 
L 148.208825 222.829059 
L 148.655225 223.108089 
L 149.548025 223.115945 
L 149.994425 223.292083 
L 150.440825 223.219557 
L 150.887225 223.352439 
L 151.333625 223.296213 
L 153.565625 223.638979 
L 154.012025 223.574046 
L 154.458425 223.633601 
L 154.904825 223.80645 
L 155.797625 223.810597 
L 156.690425 224.123548 
L 157.136825 224.044108 
L 157.583225 224.238792 
L 158.476025 223.984735 
L 158.922425 224.060441 
L 159.368825 224.34423 
L 159.815225 224.174305 
L 161.600825 224.579913 
L 162.047225 224.48429 
L 163.386425 224.733861 
L 164.279225 224.707979 
L 164.725625 225.016848 
L 165.172025 224.77534 
L 165.618425 224.96211 
L 166.511225 224.895285 
L 166.957625 224.927297 
L 167.404025 225.135744 
L 167.850425 224.954113 
L 168.743225 225.364298 
L 169.189625 225.240785 
L 170.082425 225.329593 
L 170.528825 225.482086 
L 170.975225 225.32595 
L 171.868025 225.48259 
L 172.314425 225.426175 
L 173.653625 225.697018 
L 176.778425 226.029656 
L 177.224825 225.854931 
L 178.117625 226.101925 
L 178.564025 225.989167 
L 179.010425 226.195152 
L 180.796025 226.341962 
L 181.242425 226.305274 
L 181.688825 226.491944 
L 182.135225 226.413174 
L 183.028025 226.528442 
L 183.474425 226.382797 
L 184.367225 226.559876 
L 184.813625 226.483642 
L 185.260025 226.761565 
L 188.384825 226.783499 
L 189.277625 227.150899 
L 189.724025 226.981991 
L 190.616825 227.198566 
L 191.063225 227.001834 
L 192.848825 227.16515 
L 193.295225 227.166265 
L 194.188025 227.43311 
L 194.634425 227.192511 
L 195.973625 227.569891 
L 196.420025 227.414679 
L 196.866425 227.600903 
L 197.312825 227.545504 
L 198.652025 227.677708 
L 200.437625 227.822692 
L 200.884025 227.929683 
L 201.330425 227.845096 
L 201.776825 227.893631 
L 202.223225 227.82251 
L 203.562425 228.132628 
L 204.455225 227.960109 
L 205.348025 228.160146 
L 207.580025 228.194884 
L 208.026425 228.375895 
L 209.365625 228.479606 
L 209.812025 228.231151 
L 210.258425 228.449114 
L 211.597625 228.692853 
L 212.044025 228.484472 
L 215.615225 228.832641 
L 216.061625 228.730036 
L 216.508025 228.901845 
L 217.400825 228.733928 
L 218.740025 229.066581 
L 219.186425 228.954642 
L 220.079225 229.012867 
L 220.972025 229.162527 
L 221.418425 229.037494 
L 221.864825 229.336558 
L 222.757625 229.16194 
L 223.204025 229.146922 
L 223.650425 229.308825 
L 224.096825 229.197406 
L 224.543225 229.301282 
L 225.436025 229.339342 
L 226.328825 229.425432 
L 227.221625 229.517594 
L 227.668025 229.414287 
L 228.114425 229.556306 
L 228.560825 229.34339 
L 229.007225 229.644866 
L 229.453625 229.468291 
L 229.900025 229.69473 
L 230.346425 229.51547 
L 231.239225 229.794939 
L 231.685625 229.683817 
L 232.132025 229.787272 
L 232.578425 229.692615 
L 233.917625 229.843564 
L 234.364025 229.840185 
L 234.810425 229.716953 
L 236.596025 230.038826 
L 237.935225 229.833642 
L 238.828025 230.101297 
L 239.274425 230.031854 
L 240.167225 230.167131 
L 242.399225 230.365961 
L 242.845625 230.246496 
L 243.292025 229.997165 
L 243.738425 230.379303 
L 244.184825 230.303507 
L 245.077625 230.419998 
L 245.524025 230.229024 
L 246.416825 230.650675 
L 246.863225 230.343342 
L 247.756025 230.476273 
L 248.202425 230.390348 
L 249.541625 230.539653 
L 249.988025 230.474324 
L 250.434425 230.64234 
L 250.880825 230.556696 
L 251.773625 230.689346 
L 255.344825 230.690222 
L 255.791225 230.652898 
L 256.237625 230.865558 
L 257.576825 230.896587 
L 258.023225 230.799005 
L 258.469625 231.102514 
L 261.148025 231.048709 
L 262.040825 231.126248 
L 262.487225 230.993697 
L 263.380025 231.19247 
L 263.826425 231.120812 
L 264.272825 231.298321 
L 264.719225 231.162961 
L 265.165625 231.454681 
L 266.058425 231.098722 
L 266.951225 231.422404 
L 267.397625 231.384419 
L 267.844025 231.547231 
L 268.290425 231.534707 
L 268.736825 231.349309 
L 269.183225 231.458299 
L 269.629625 231.315562 
L 270.076025 231.538788 
L 270.522425 231.606819 
L 271.415225 231.478481 
L 272.308025 231.640302 
L 272.754425 231.471467 
L 273.200825 231.566397 
L 273.647225 231.486585 
L 274.093625 231.721625 
L 274.540025 231.791399 
L 274.986425 231.618195 
L 276.772025 231.901827 
L 277.218425 231.781742 
L 279.004025 231.899571 
L 279.896825 231.691612 
L 280.343225 231.955087 
L 281.236025 231.926015 
L 281.682425 231.851028 
L 282.128825 232.066927 
L 283.021625 231.92305 
L 283.914425 232.076402 
L 284.360825 231.969717 
L 285.253625 232.148382 
L 287.039225 232.109811 
L 287.485625 232.305155 
L 287.932025 232.104647 
L 288.824825 232.278331 
L 289.271225 232.156239 
L 289.717625 232.346932 
L 290.610425 232.082582 
L 291.503225 232.270755 
L 291.949625 232.117147 
L 292.396025 232.401894 
L 292.842425 232.219941 
L 293.288825 232.484522 
L 293.735225 232.335969 
L 294.628025 232.514502 
L 295.074425 232.446182 
L 295.967225 232.607846 
L 297.306425 232.476839 
L 298.199225 232.71753 
L 299.092025 232.460788 
L 299.538425 232.603393 
L 299.984825 232.618701 
L 300.431225 232.836441 
L 300.877625 232.660345 
L 301.324025 232.789014 
L 301.770425 232.623096 
L 302.663225 232.844215 
L 303.109625 232.536023 
L 303.556025 232.822389 
L 304.002425 232.792872 
L 304.448825 232.536213 
L 304.895225 232.779984 
L 305.341625 232.652026 
L 306.234425 232.841629 
L 306.680825 232.744056 
L 307.127225 232.95432 
L 307.573625 232.711036 
L 308.020025 232.746477 
L 308.912825 233.006746 
L 309.359225 232.80504 
L 312.037625 233.1103 
L 313.376825 232.935749 
L 313.823225 233.173267 
L 314.716025 233.163924 
L 315.162425 233.233095 
L 315.608825 233.167757 
L 316.055225 232.977394 
L 316.501625 233.195374 
L 317.394425 233.231294 
L 320.519225 233.282612 
L 320.965625 233.198703 
L 321.412025 233.354716 
L 321.858425 233.279828 
L 322.304825 233.41475 
L 324.536825 233.364266 
L 324.983225 233.486532 
L 326.322425 233.338623 
L 326.768825 233.515983 
L 327.661625 233.565055 
L 328.108025 233.452008 
L 329.000825 233.582122 
L 329.893625 233.643949 
L 330.786425 233.452735 
L 333.464825 233.70134 
L 333.911225 233.570598 
L 334.804025 233.673276 
L 335.696825 233.762332 
L 338.821625 233.867803 
L 339.268025 233.714326 
L 339.714425 234.118597 
L 340.160825 233.879113 
L 340.607225 233.992473 
L 342.839225 233.996323 
L 343.285625 234.097093 
L 343.732025 233.81432 
L 344.624825 234.180597 
L 345.071225 233.857146 
L 345.517625 234.010069 
L 346.856825 233.96018 
L 347.303225 234.16329 
L 348.196025 234.060248 
L 348.642425 234.057728 
L 349.535225 234.274122 
L 350.428025 233.926515 
L 350.874425 234.213518 
L 351.320825 234.186909 
L 351.767225 234.294692 
L 353.552825 234.296105 
L 353.999225 234.364871 
L 354.892025 234.280202 
L 355.338425 234.416182 
L 355.784825 234.283812 
L 356.231225 234.49038 
L 356.677625 234.184463 
L 357.570425 234.33585 
L 358.016825 234.614195 
L 358.463225 234.34383 
L 358.909625 234.422898 
L 359.356025 234.372827 
L 359.802425 234.519059 
L 360.248825 234.400015 
L 360.695225 234.401089 
L 361.588025 234.60609 
L 362.034425 234.60823 
L 362.480825 234.813285 
L 362.927225 234.462349 
L 363.373625 234.484345 
L 363.820025 234.691961 
L 366.498425 234.519125 
L 367.391225 234.67838 
L 367.837625 234.553871 
L 368.284025 234.71957 
L 368.730425 234.677888 
L 369.623225 234.723932 
L 370.069625 234.654559 
L 370.962425 234.878466 
L 371.408825 234.688492 
L 371.855225 234.848548 
L 372.301625 234.69166 
L 373.640825 234.865732 
L 374.533625 234.822468 
L 375.426425 234.850738 
L 375.872825 235.016887 
L 376.765625 234.855583 
L 377.658425 234.901313 
L 378.104825 235.010571 
L 378.551225 234.884348 
L 378.997625 234.960719 
L 379.444025 234.911272 
L 379.890425 235.008477 
L 380.336825 234.92368 
L 380.783225 235.073844 
L 381.229625 234.971483 
L 381.676025 235.060609 
L 383.908025 234.970583 
L 384.800825 235.021592 
L 385.247225 234.969653 
L 385.693625 235.108045 
L 386.140025 235.052522 
L 386.586425 235.119706 
L 387.032825 235.058833 
L 387.925625 235.249683 
L 388.818425 235.173201 
L 389.264825 235.325629 
L 389.711225 235.258886 
L 390.157625 234.990777 
L 391.050425 235.313923 
L 391.496825 235.349607 
L 391.943225 235.215577 
L 392.389625 235.228886 
L 392.836025 235.396671 
L 393.728825 235.247841 
L 395.068025 235.295108 
L 395.514425 235.449617 
L 396.407225 235.418861 
L 396.853625 235.330251 
L 397.300025 235.517012 
L 398.192825 235.399641 
L 398.639225 235.38872 
L 399.085625 235.489576 
L 399.532025 235.389104 
L 399.978425 235.595423 
L 400.424825 235.419864 
L 400.871225 235.541511 
L 401.764025 235.423454 
L 402.210425 235.588083 
L 402.656825 235.461009 
L 403.549625 235.564799 
L 403.996025 235.527338 
L 404.442425 235.678667 
L 405.335225 235.54225 
L 406.674425 235.441376 
L 407.120825 235.666631 
L 407.567225 235.5351 
L 408.460025 235.696177 
L 408.906425 235.455933 
L 409.799225 235.700349 
L 410.692025 235.750949 
L 411.584825 235.493459 
L 412.924025 235.759049 
L 415.602425 235.812081 
L 416.048825 235.624123 
L 416.941625 235.881294 
L 417.834425 235.72543 
L 418.280825 235.876155 
L 419.173625 235.624292 
L 419.620025 235.951985 
L 420.512825 235.912719 
L 420.959225 236.029649 
L 422.744825 235.86226 
L 423.637625 236.004737 
L 424.084025 235.890241 
L 424.530425 236.030892 
L 425.423225 235.962824 
L 425.869625 236.070178 
L 426.762425 236.051053 
L 427.208825 236.181142 
L 427.655225 235.92963 
L 428.101625 236.200065 
L 428.548025 236.004993 
L 428.994425 236.076205 
L 429.440825 236.307902 
L 429.887225 236.098787 
L 430.333625 236.075928 
L 431.226425 236.1645 
L 432.565625 236.127742 
L 433.458425 236.173877 
L 435.690425 236.247178 
L 437.029625 236.233341 
L 437.476025 236.455311 
L 439.261625 236.189201 
L 440.600825 236.489335 
L 441.940025 236.264672 
L 442.386425 236.262751 
L 443.279225 236.481004 
L 444.172025 236.289711 
L 444.618425 236.531285 
L 445.064825 236.360745 
L 445.511225 236.493131 
L 446.404025 236.382303 
L 446.850425 236.465237 
L 447.296825 236.365615 
L 448.189625 236.466906 
L 448.636025 236.345012 
L 449.528825 236.560352 
L 449.975225 236.444126 
L 450.868025 236.464142 
L 451.314425 236.687133 
L 451.760825 236.69563 
L 452.207225 236.313078 
L 452.653625 236.702949 
L 453.100025 236.52998 
L 453.546425 236.601782 
L 453.992825 236.290575 
L 454.885625 236.758382 
L 455.778425 236.549658 
L 456.671225 236.606491 
L 458.010425 236.724333 
L 458.456825 236.620102 
L 459.349625 236.768217 
L 460.242425 236.787238 
L 460.688825 236.595999 
L 461.135225 236.817462 
L 461.581625 236.62524 
L 462.028025 236.796755 
L 462.474425 236.715898 
L 462.920825 236.788428 
L 463.813625 236.556317 
L 464.260025 236.688868 
L 464.706425 236.942747 
L 465.152825 236.695146 
L 466.938425 236.829498 
L 467.384825 237.025851 
L 467.831225 236.798155 
L 468.277625 236.877459 
L 468.724025 236.795582 
L 469.170425 236.885964 
L 469.616825 236.710673 
L 470.063225 237.117137 
L 470.509625 236.802724 
L 470.956025 236.826384 
L 471.848825 237.006672 
L 472.295225 236.901247 
L 474.973625 237.133081 
L 475.420025 236.94335 
L 475.866425 237.048965 
L 476.759225 236.897641 
L 477.205625 236.995297 
L 477.652025 236.951409 
L 478.544825 237.107418 
L 478.991225 236.966031 
L 479.437625 237.11047 
L 480.776825 237.071176 
L 483.008825 237.178237 
L 483.455225 237.060862 
L 484.794425 237.134824 
L 487.026425 237.107087 
L 487.472825 237.248655 
L 488.365625 237.308392 
L 488.812025 237.054889 
L 489.704825 237.224615 
L 492.383225 237.102205 
L 492.829625 237.438556 
L 495.061625 237.317046 
L 498.186425 237.431893 
L 498.632825 237.50156 
L 499.079225 237.207907 
L 499.525625 237.516145 
L 499.972025 237.597084 
L 500.864825 237.325869 
L 501.757625 237.48343 
L 502.204025 237.434631 
L 502.650425 237.51821 
L 503.096825 237.416052 
L 503.989625 237.518958 
L 504.436025 237.460406 
L 504.882425 237.655346 
L 505.775225 237.560697 
L 506.221625 237.483852 
L 506.668025 237.66003 
L 507.560825 237.370892 
L 508.007225 237.532675 
L 508.453625 237.47531 
L 508.900025 237.697866 
L 509.792825 237.456602 
L 510.239225 237.681117 
L 510.239225 237.681117 
" clip-path="url(#p7f112d60f1)" style="fill: none; stroke: #8c564b; stroke-width: 2; stroke-linecap: square"/>
   </g>
   <g id="patch_3">
    <path d="M 64.285625 303.756563 
L 64.285625 26.556563 
" style="fill: none; stroke: #000000; stroke-width: 0.8; stroke-linejoin: miter; stroke-linecap: square"/>
   </g>
   <g id="patch_4">
    <path d="M 510.685625 303.756563 
L 510.685625 26.556563 
" style="fill: none; stroke: #000000; stroke-width: 0.8; stroke-linejoin: miter; stroke-linecap: square"/>
   </g>
   <g id="patch_5">
    <path d="M 64.285625 303.756563 
L 510.685625 303.756563 
" style="fill: none; stroke: #000000; stroke-width: 0.8; stroke-linejoin: miter; stroke-linecap: square"/>
   </g>
   <g id="patch_6">
    <path d="M 64.285625 26.556563 
L 510.685625 26.556563 
" style="fill: none; stroke: #000000; stroke-width: 0.8; stroke-linejoin: miter; stroke-linecap: square"/>
   </g>
   <g id="text_15">
    <!-- Different mini-batch sizes with the He initialization -->
    <g transform="translate(55.161875 20.556563)scale(0.18 -0.18)">
     <defs>
      <path id="Montserrat-Medium-44" d="M 672 4480 
L 2560 4480 
Q 3270 4480 3820 4198 
Q 4371 3917 4675 3408 
Q 4979 2899 4979 2240 
Q 4979 1581 4675 1072 
Q 4371 563 3820 281 
Q 3270 0 2560 0 
L 672 0 
L 672 4480 
z
M 2522 557 
Q 3066 557 3478 768 
Q 3891 979 4115 1360 
Q 4339 1741 4339 2240 
Q 4339 2739 4115 3120 
Q 3891 3501 3478 3712 
Q 3066 3923 2522 3923 
L 1312 3923 
L 1312 557 
L 2522 557 
z
" transform="scale(0.015625)"/>
      <path id="Montserrat-Medium-65" d="M 3648 1677 
Q 3648 1606 3635 1491 
L 883 1491 
Q 941 1043 1277 771 
Q 1613 499 2112 499 
Q 2720 499 3091 909 
L 3430 512 
Q 3200 243 2857 102 
Q 2515 -38 2093 -38 
Q 1555 -38 1139 182 
Q 723 403 496 800 
Q 269 1197 269 1696 
Q 269 2189 489 2585 
Q 710 2982 1097 3203 
Q 1485 3424 1971 3424 
Q 2458 3424 2838 3203 
Q 3219 2982 3433 2585 
Q 3648 2189 3648 1677 
z
M 1971 2906 
Q 1530 2906 1232 2637 
Q 934 2368 883 1933 
L 3059 1933 
Q 3008 2362 2710 2634 
Q 2413 2906 1971 2906 
z
" transform="scale(0.015625)"/>
      <path id="Montserrat-Medium-72" d="M 1171 2822 
Q 1331 3117 1644 3270 
Q 1958 3424 2406 3424 
L 2406 2829 
Q 2355 2835 2266 2835 
Q 1766 2835 1481 2537 
Q 1197 2240 1197 1690 
L 1197 0 
L 582 0 
L 582 3392 
L 1171 3392 
L 1171 2822 
z
" transform="scale(0.015625)"/>
      <path id="Montserrat-Medium-6d" d="M 4826 3424 
Q 5466 3424 5840 3053 
Q 6214 2682 6214 1952 
L 6214 0 
L 5600 0 
L 5600 1882 
Q 5600 2374 5373 2624 
Q 5146 2874 4723 2874 
Q 4256 2874 3981 2582 
Q 3706 2291 3706 1747 
L 3706 0 
L 3091 0 
L 3091 1882 
Q 3091 2374 2864 2624 
Q 2637 2874 2214 2874 
Q 1747 2874 1472 2582 
Q 1197 2291 1197 1747 
L 1197 0 
L 582 0 
L 582 3392 
L 1171 3392 
L 1171 2886 
Q 1357 3149 1657 3286 
Q 1958 3424 2342 3424 
Q 2739 3424 3046 3264 
Q 3354 3104 3520 2797 
Q 3712 3091 4054 3257 
Q 4397 3424 4826 3424 
z
" transform="scale(0.015625)"/>
      <path id="Montserrat-Medium-2d" d="M 365 2022 
L 2086 2022 
L 2086 1491 
L 365 1491 
L 365 2022 
z
" transform="scale(0.015625)"/>
      <path id="Montserrat-Medium-62" d="M 2381 3424 
Q 2874 3424 3264 3206 
Q 3654 2989 3875 2598 
Q 4096 2208 4096 1696 
Q 4096 1184 3875 790 
Q 3654 397 3264 179 
Q 2874 -38 2381 -38 
Q 2003 -38 1689 109 
Q 1376 256 1171 538 
L 1171 0 
L 582 0 
L 582 4749 
L 1197 4749 
L 1197 2880 
Q 1402 3149 1709 3286 
Q 2016 3424 2381 3424 
z
M 2330 499 
Q 2656 499 2915 649 
Q 3174 800 3324 1072 
Q 3475 1344 3475 1696 
Q 3475 2048 3324 2320 
Q 3174 2592 2915 2739 
Q 2656 2886 2330 2886 
Q 2010 2886 1747 2739 
Q 1485 2592 1337 2320 
Q 1190 2048 1190 1696 
Q 1190 1344 1337 1072 
Q 1485 800 1747 649 
Q 2010 499 2330 499 
z
" transform="scale(0.015625)"/>
      <path id="Montserrat-Medium-61" d="M 1818 3424 
Q 2522 3424 2896 3078 
Q 3270 2733 3270 2048 
L 3270 0 
L 2688 0 
L 2688 448 
Q 2534 211 2249 86 
Q 1965 -38 1574 -38 
Q 1005 -38 662 237 
Q 320 512 320 960 
Q 320 1408 646 1680 
Q 973 1952 1683 1952 
L 2656 1952 
L 2656 2074 
Q 2656 2470 2425 2681 
Q 2195 2893 1747 2893 
Q 1446 2893 1158 2793 
Q 870 2694 672 2528 
L 416 2989 
Q 678 3200 1043 3312 
Q 1408 3424 1818 3424 
z
M 1677 435 
Q 2029 435 2285 592 
Q 2541 749 2656 1037 
L 2656 1510 
L 1709 1510 
Q 928 1510 928 986 
Q 928 730 1126 582 
Q 1325 435 1677 435 
z
" transform="scale(0.015625)"/>
      <path id="Montserrat-Medium-7a" d="M 3098 506 
L 3098 0 
L 256 0 
L 256 397 
L 2259 2886 
L 294 2886 
L 294 3392 
L 3046 3392 
L 3046 2989 
L 1043 506 
L 3098 506 
z
" transform="scale(0.015625)"/>
      <path id="Montserrat-Medium-77" d="M 5715 3392 
L 4448 0 
L 3859 0 
L 2880 2573 
L 1888 0 
L 1299 0 
L 38 3392 
L 621 3392 
L 1606 691 
L 2630 3392 
L 3149 3392 
L 4154 678 
L 5165 3392 
L 5715 3392 
z
" transform="scale(0.015625)"/>
      <path id="Montserrat-Medium-48" d="M 4525 4480 
L 4525 0 
L 3885 0 
L 3885 1997 
L 1312 1997 
L 1312 0 
L 672 0 
L 672 4480 
L 1312 4480 
L 1312 2554 
L 3885 2554 
L 3885 4480 
L 4525 4480 
z
" transform="scale(0.015625)"/>
      <path id="Montserrat-Medium-6c" d="M 582 4749 
L 1197 4749 
L 1197 0 
L 582 0 
L 582 4749 
z
" transform="scale(0.015625)"/>
     </defs>
     <use xlink:href="#Montserrat-Medium-44"/>
     <use xlink:href="#Montserrat-Medium-69" x="82.599991"/>
     <use xlink:href="#Montserrat-Medium-66" x="110.499985"/>
     <use xlink:href="#Montserrat-Medium-66" x="145.799973"/>
     <use xlink:href="#Montserrat-Medium-65" x="181.09996"/>
     <use xlink:href="#Montserrat-Medium-72" x="242.299957"/>
     <use xlink:href="#Montserrat-Medium-65" x="283.299942"/>
     <use xlink:href="#Montserrat-Medium-6e" x="344.499939"/>
     <use xlink:href="#Montserrat-Medium-74" x="412.59993"/>
     <use xlink:href="#Montserrat-Medium-20" x="453.999924"/>
     <use xlink:href="#Montserrat-Medium-6d" x="480.899918"/>
     <use xlink:href="#Montserrat-Medium-69" x="586.599899"/>
     <use xlink:href="#Montserrat-Medium-6e" x="614.499893"/>
     <use xlink:href="#Montserrat-Medium-69" x="682.599884"/>
     <use xlink:href="#Montserrat-Medium-2d" x="710.499878"/>
     <use xlink:href="#Montserrat-Medium-62" x="748.799866"/>
     <use xlink:href="#Montserrat-Medium-61" x="816.999847"/>
     <use xlink:href="#Montserrat-Medium-74" x="876.799835"/>
     <use xlink:href="#Montserrat-Medium-63" x="918.199829"/>
     <use xlink:href="#Montserrat-Medium-68" x="975.29982"/>
     <use xlink:href="#Montserrat-Medium-20" x="1043.399811"/>
     <use xlink:href="#Montserrat-Medium-73" x="1070.299805"/>
     <use xlink:href="#Montserrat-Medium-69" x="1120.399796"/>
     <use xlink:href="#Montserrat-Medium-7a" x="1148.299789"/>
     <use xlink:href="#Montserrat-Medium-65" x="1200.39978"/>
     <use xlink:href="#Montserrat-Medium-73" x="1261.599777"/>
     <use xlink:href="#Montserrat-Medium-20" x="1311.699768"/>
     <use xlink:href="#Montserrat-Medium-77" x="1338.599762"/>
     <use xlink:href="#Montserrat-Medium-69" x="1428.499756"/>
     <use xlink:href="#Montserrat-Medium-74" x="1456.39975"/>
     <use xlink:href="#Montserrat-Medium-68" x="1497.799744"/>
     <use xlink:href="#Montserrat-Medium-20" x="1565.899734"/>
     <use xlink:href="#Montserrat-Medium-74" x="1592.799728"/>
     <use xlink:href="#Montserrat-Medium-68" x="1634.199722"/>
     <use xlink:href="#Montserrat-Medium-65" x="1702.299713"/>
     <use xlink:href="#Montserrat-Medium-20" x="1763.49971"/>
     <use xlink:href="#Montserrat-Medium-48" x="1790.399704"/>
     <use xlink:href="#Montserrat-Medium-65" x="1871.599686"/>
     <use xlink:href="#Montserrat-Medium-20" x="1932.799683"/>
     <use xlink:href="#Montserrat-Medium-69" x="1959.699677"/>
     <use xlink:href="#Montserrat-Medium-6e" x="1987.59967"/>
     <use xlink:href="#Montserrat-Medium-69" x="2055.699661"/>
     <use xlink:href="#Montserrat-Medium-74" x="2083.599655"/>
     <use xlink:href="#Montserrat-Medium-69" x="2124.999649"/>
     <use xlink:href="#Montserrat-Medium-61" x="2152.899643"/>
     <use xlink:href="#Montserrat-Medium-6c" x="2212.699631"/>
     <use xlink:href="#Montserrat-Medium-69" x="2240.599625"/>
     <use xlink:href="#Montserrat-Medium-7a" x="2268.499619"/>
     <use xlink:href="#Montserrat-Medium-61" x="2320.599609"/>
     <use xlink:href="#Montserrat-Medium-74" x="2380.399597"/>
     <use xlink:href="#Montserrat-Medium-69" x="2421.799591"/>
     <use xlink:href="#Montserrat-Medium-6f" x="2449.699585"/>
     <use xlink:href="#Montserrat-Medium-6e" x="2513.19957"/>
    </g>
   </g>
   <g id="legend_1">
    <g id="patch_7">
     <path d="M 259.470312 199.480312 
L 498.085625 199.480312 
Q 501.685625 199.480312 501.685625 195.880313 
L 501.685625 39.156563 
Q 501.685625 35.556563 498.085625 35.556563 
L 259.470312 35.556563 
Q 255.870312 35.556563 255.870312 39.156563 
L 255.870312 195.880313 
Q 255.870312 199.480312 259.470312 199.480312 
z
" style="fill: #f1f7f0; opacity: 0.8; stroke: #cccccc; stroke-linejoin: miter"/>
    </g>
    <g id="line2d_19">
     <path d="M 263.070312 50.13375 
L 281.070312 50.13375 
L 299.070312 50.13375 
" style="fill: none; stroke: #1f77b4; stroke-width: 2; stroke-linecap: square"/>
    </g>
    <g id="text_16">
     <!-- Mini-batch size: 200 -->
     <g transform="translate(313.470312 56.43375)scale(0.18 -0.18)">
      <defs>
       <path id="DejaVuSans-4d" d="M 628 4666 
L 1569 4666 
L 2759 1491 
L 3956 4666 
L 4897 4666 
L 4897 0 
L 4281 0 
L 4281 4097 
L 3078 897 
L 2444 897 
L 1241 4097 
L 1241 0 
L 628 0 
L 628 4666 
z
" transform="scale(0.015625)"/>
       <path id="DejaVuSans-69" d="M 603 3500 
L 1178 3500 
L 1178 0 
L 603 0 
L 603 3500 
z
M 603 4863 
L 1178 4863 
L 1178 4134 
L 603 4134 
L 603 4863 
z
" transform="scale(0.015625)"/>
       <path id="DejaVuSans-6e" d="M 3513 2113 
L 3513 0 
L 2938 0 
L 2938 2094 
Q 2938 2591 2744 2837 
Q 2550 3084 2163 3084 
Q 1697 3084 1428 2787 
Q 1159 2491 1159 1978 
L 1159 0 
L 581 0 
L 581 3500 
L 1159 3500 
L 1159 2956 
Q 1366 3272 1645 3428 
Q 1925 3584 2291 3584 
Q 2894 3584 3203 3211 
Q 3513 2838 3513 2113 
z
" transform="scale(0.015625)"/>
       <path id="DejaVuSans-2d" d="M 313 2009 
L 1997 2009 
L 1997 1497 
L 313 1497 
L 313 2009 
z
" transform="scale(0.015625)"/>
       <path id="DejaVuSans-62" d="M 3116 1747 
Q 3116 2381 2855 2742 
Q 2594 3103 2138 3103 
Q 1681 3103 1420 2742 
Q 1159 2381 1159 1747 
Q 1159 1113 1420 752 
Q 1681 391 2138 391 
Q 2594 391 2855 752 
Q 3116 1113 3116 1747 
z
M 1159 2969 
Q 1341 3281 1617 3432 
Q 1894 3584 2278 3584 
Q 2916 3584 3314 3078 
Q 3713 2572 3713 1747 
Q 3713 922 3314 415 
Q 2916 -91 2278 -91 
Q 1894 -91 1617 61 
Q 1341 213 1159 525 
L 1159 0 
L 581 0 
L 581 4863 
L 1159 4863 
L 1159 2969 
z
" transform="scale(0.015625)"/>
       <path id="DejaVuSans-61" d="M 2194 1759 
Q 1497 1759 1228 1600 
Q 959 1441 959 1056 
Q 959 750 1161 570 
Q 1363 391 1709 391 
Q 2188 391 2477 730 
Q 2766 1069 2766 1631 
L 2766 1759 
L 2194 1759 
z
M 3341 1997 
L 3341 0 
L 2766 0 
L 2766 531 
Q 2569 213 2275 61 
Q 1981 -91 1556 -91 
Q 1019 -91 701 211 
Q 384 513 384 1019 
Q 384 1609 779 1909 
Q 1175 2209 1959 2209 
L 2766 2209 
L 2766 2266 
Q 2766 2663 2505 2880 
Q 2244 3097 1772 3097 
Q 1472 3097 1187 3025 
Q 903 2953 641 2809 
L 641 3341 
Q 956 3463 1253 3523 
Q 1550 3584 1831 3584 
Q 2591 3584 2966 3190 
Q 3341 2797 3341 1997 
z
" transform="scale(0.015625)"/>
       <path id="DejaVuSans-74" d="M 1172 4494 
L 1172 3500 
L 2356 3500 
L 2356 3053 
L 1172 3053 
L 1172 1153 
Q 1172 725 1289 603 
Q 1406 481 1766 481 
L 2356 481 
L 2356 0 
L 1766 0 
Q 1100 0 847 248 
Q 594 497 594 1153 
L 594 3053 
L 172 3053 
L 172 3500 
L 594 3500 
L 594 4494 
L 1172 4494 
z
" transform="scale(0.015625)"/>
       <path id="DejaVuSans-63" d="M 3122 3366 
L 3122 2828 
Q 2878 2963 2633 3030 
Q 2388 3097 2138 3097 
Q 1578 3097 1268 2742 
Q 959 2388 959 1747 
Q 959 1106 1268 751 
Q 1578 397 2138 397 
Q 2388 397 2633 464 
Q 2878 531 3122 666 
L 3122 134 
Q 2881 22 2623 -34 
Q 2366 -91 2075 -91 
Q 1284 -91 818 406 
Q 353 903 353 1747 
Q 353 2603 823 3093 
Q 1294 3584 2113 3584 
Q 2378 3584 2631 3529 
Q 2884 3475 3122 3366 
z
" transform="scale(0.015625)"/>
       <path id="DejaVuSans-68" d="M 3513 2113 
L 3513 0 
L 2938 0 
L 2938 2094 
Q 2938 2591 2744 2837 
Q 2550 3084 2163 3084 
Q 1697 3084 1428 2787 
Q 1159 2491 1159 1978 
L 1159 0 
L 581 0 
L 581 4863 
L 1159 4863 
L 1159 2956 
Q 1366 3272 1645 3428 
Q 1925 3584 2291 3584 
Q 2894 3584 3203 3211 
Q 3513 2838 3513 2113 
z
" transform="scale(0.015625)"/>
       <path id="DejaVuSans-20" transform="scale(0.015625)"/>
       <path id="DejaVuSans-73" d="M 2834 3397 
L 2834 2853 
Q 2591 2978 2328 3040 
Q 2066 3103 1784 3103 
Q 1356 3103 1142 2972 
Q 928 2841 928 2578 
Q 928 2378 1081 2264 
Q 1234 2150 1697 2047 
L 1894 2003 
Q 2506 1872 2764 1633 
Q 3022 1394 3022 966 
Q 3022 478 2636 193 
Q 2250 -91 1575 -91 
Q 1294 -91 989 -36 
Q 684 19 347 128 
L 347 722 
Q 666 556 975 473 
Q 1284 391 1588 391 
Q 1994 391 2212 530 
Q 2431 669 2431 922 
Q 2431 1156 2273 1281 
Q 2116 1406 1581 1522 
L 1381 1569 
Q 847 1681 609 1914 
Q 372 2147 372 2553 
Q 372 3047 722 3315 
Q 1072 3584 1716 3584 
Q 2034 3584 2315 3537 
Q 2597 3491 2834 3397 
z
" transform="scale(0.015625)"/>
       <path id="DejaVuSans-7a" d="M 353 3500 
L 3084 3500 
L 3084 2975 
L 922 459 
L 3084 459 
L 3084 0 
L 275 0 
L 275 525 
L 2438 3041 
L 353 3041 
L 353 3500 
z
" transform="scale(0.015625)"/>
       <path id="DejaVuSans-65" d="M 3597 1894 
L 3597 1613 
L 953 1613 
Q 991 1019 1311 708 
Q 1631 397 2203 397 
Q 2534 397 2845 478 
Q 3156 559 3463 722 
L 3463 178 
Q 3153 47 2828 -22 
Q 2503 -91 2169 -91 
Q 1331 -91 842 396 
Q 353 884 353 1716 
Q 353 2575 817 3079 
Q 1281 3584 2069 3584 
Q 2775 3584 3186 3129 
Q 3597 2675 3597 1894 
z
M 3022 2063 
Q 3016 2534 2758 2815 
Q 2500 3097 2075 3097 
Q 1594 3097 1305 2825 
Q 1016 2553 972 2059 
L 3022 2063 
z
" transform="scale(0.015625)"/>
       <path id="DejaVuSans-3a" d="M 750 794 
L 1409 794 
L 1409 0 
L 750 0 
L 750 794 
z
M 750 3309 
L 1409 3309 
L 1409 2516 
L 750 2516 
L 750 3309 
z
" transform="scale(0.015625)"/>
      </defs>
      <use xlink:href="#DejaVuSans-4d"/>
      <use xlink:href="#DejaVuSans-69" x="86.279297"/>
      <use xlink:href="#DejaVuSans-6e" x="114.0625"/>
      <use xlink:href="#DejaVuSans-69" x="177.441406"/>
      <use xlink:href="#DejaVuSans-2d" x="205.224609"/>
      <use xlink:href="#DejaVuSans-62" x="241.308594"/>
      <use xlink:href="#DejaVuSans-61" x="304.785156"/>
      <use xlink:href="#DejaVuSans-74" x="366.064453"/>
      <use xlink:href="#DejaVuSans-63" x="405.273438"/>
      <use xlink:href="#DejaVuSans-68" x="460.253906"/>
      <use xlink:href="#DejaVuSans-20" x="523.632812"/>
      <use xlink:href="#DejaVuSans-73" x="555.419922"/>
      <use xlink:href="#DejaVuSans-69" x="607.519531"/>
      <use xlink:href="#DejaVuSans-7a" x="635.302734"/>
      <use xlink:href="#DejaVuSans-65" x="687.792969"/>
      <use xlink:href="#DejaVuSans-3a" x="749.316406"/>
      <use xlink:href="#DejaVuSans-20" x="783.007812"/>
      <use xlink:href="#DejaVuSans-32" x="814.794922"/>
      <use xlink:href="#DejaVuSans-30" x="878.417969"/>
      <use xlink:href="#DejaVuSans-30" x="942.041016"/>
     </g>
    </g>
    <g id="line2d_20">
     <path d="M 263.070312 76.554375 
L 281.070312 76.554375 
L 299.070312 76.554375 
" style="fill: none; stroke: #ff7f0e; stroke-width: 2; stroke-linecap: square"/>
    </g>
    <g id="text_17">
     <!-- Mini-batch size: 100 -->
     <g transform="translate(313.470312 82.854375)scale(0.18 -0.18)">
      <use xlink:href="#DejaVuSans-4d"/>
      <use xlink:href="#DejaVuSans-69" x="86.279297"/>
      <use xlink:href="#DejaVuSans-6e" x="114.0625"/>
      <use xlink:href="#DejaVuSans-69" x="177.441406"/>
      <use xlink:href="#DejaVuSans-2d" x="205.224609"/>
      <use xlink:href="#DejaVuSans-62" x="241.308594"/>
      <use xlink:href="#DejaVuSans-61" x="304.785156"/>
      <use xlink:href="#DejaVuSans-74" x="366.064453"/>
      <use xlink:href="#DejaVuSans-63" x="405.273438"/>
      <use xlink:href="#DejaVuSans-68" x="460.253906"/>
      <use xlink:href="#DejaVuSans-20" x="523.632812"/>
      <use xlink:href="#DejaVuSans-73" x="555.419922"/>
      <use xlink:href="#DejaVuSans-69" x="607.519531"/>
      <use xlink:href="#DejaVuSans-7a" x="635.302734"/>
      <use xlink:href="#DejaVuSans-65" x="687.792969"/>
      <use xlink:href="#DejaVuSans-3a" x="749.316406"/>
      <use xlink:href="#DejaVuSans-20" x="783.007812"/>
      <use xlink:href="#DejaVuSans-31" x="814.794922"/>
      <use xlink:href="#DejaVuSans-30" x="878.417969"/>
      <use xlink:href="#DejaVuSans-30" x="942.041016"/>
     </g>
    </g>
    <g id="line2d_21">
     <path d="M 263.070312 102.975 
L 281.070312 102.975 
L 299.070312 102.975 
" style="fill: none; stroke: #2ca02c; stroke-width: 2; stroke-linecap: square"/>
    </g>
    <g id="text_18">
     <!-- Mini-batch size: 50 -->
     <g transform="translate(313.470312 109.275)scale(0.18 -0.18)">
      <defs>
       <path id="DejaVuSans-35" d="M 691 4666 
L 3169 4666 
L 3169 4134 
L 1269 4134 
L 1269 2991 
Q 1406 3038 1543 3061 
Q 1681 3084 1819 3084 
Q 2600 3084 3056 2656 
Q 3513 2228 3513 1497 
Q 3513 744 3044 326 
Q 2575 -91 1722 -91 
Q 1428 -91 1123 -41 
Q 819 9 494 109 
L 494 744 
Q 775 591 1075 516 
Q 1375 441 1709 441 
Q 2250 441 2565 725 
Q 2881 1009 2881 1497 
Q 2881 1984 2565 2268 
Q 2250 2553 1709 2553 
Q 1456 2553 1204 2497 
Q 953 2441 691 2322 
L 691 4666 
z
" transform="scale(0.015625)"/>
      </defs>
      <use xlink:href="#DejaVuSans-4d"/>
      <use xlink:href="#DejaVuSans-69" x="86.279297"/>
      <use xlink:href="#DejaVuSans-6e" x="114.0625"/>
      <use xlink:href="#DejaVuSans-69" x="177.441406"/>
      <use xlink:href="#DejaVuSans-2d" x="205.224609"/>
      <use xlink:href="#DejaVuSans-62" x="241.308594"/>
      <use xlink:href="#DejaVuSans-61" x="304.785156"/>
      <use xlink:href="#DejaVuSans-74" x="366.064453"/>
      <use xlink:href="#DejaVuSans-63" x="405.273438"/>
      <use xlink:href="#DejaVuSans-68" x="460.253906"/>
      <use xlink:href="#DejaVuSans-20" x="523.632812"/>
      <use xlink:href="#DejaVuSans-73" x="555.419922"/>
      <use xlink:href="#DejaVuSans-69" x="607.519531"/>
      <use xlink:href="#DejaVuSans-7a" x="635.302734"/>
      <use xlink:href="#DejaVuSans-65" x="687.792969"/>
      <use xlink:href="#DejaVuSans-3a" x="749.316406"/>
      <use xlink:href="#DejaVuSans-20" x="783.007812"/>
      <use xlink:href="#DejaVuSans-35" x="814.794922"/>
      <use xlink:href="#DejaVuSans-30" x="878.417969"/>
     </g>
    </g>
    <g id="line2d_22">
     <path d="M 263.070312 129.395625 
L 281.070312 129.395625 
L 299.070312 129.395625 
" style="fill: none; stroke: #d62728; stroke-width: 2; stroke-linecap: square"/>
    </g>
    <g id="text_19">
     <!-- Mini-batch size: 20 -->
     <g transform="translate(313.470312 135.695625)scale(0.18 -0.18)">
      <use xlink:href="#DejaVuSans-4d"/>
      <use xlink:href="#DejaVuSans-69" x="86.279297"/>
      <use xlink:href="#DejaVuSans-6e" x="114.0625"/>
      <use xlink:href="#DejaVuSans-69" x="177.441406"/>
      <use xlink:href="#DejaVuSans-2d" x="205.224609"/>
      <use xlink:href="#DejaVuSans-62" x="241.308594"/>
      <use xlink:href="#DejaVuSans-61" x="304.785156"/>
      <use xlink:href="#DejaVuSans-74" x="366.064453"/>
      <use xlink:href="#DejaVuSans-63" x="405.273438"/>
      <use xlink:href="#DejaVuSans-68" x="460.253906"/>
      <use xlink:href="#DejaVuSans-20" x="523.632812"/>
      <use xlink:href="#DejaVuSans-73" x="555.419922"/>
      <use xlink:href="#DejaVuSans-69" x="607.519531"/>
      <use xlink:href="#DejaVuSans-7a" x="635.302734"/>
      <use xlink:href="#DejaVuSans-65" x="687.792969"/>
      <use xlink:href="#DejaVuSans-3a" x="749.316406"/>
      <use xlink:href="#DejaVuSans-20" x="783.007812"/>
      <use xlink:href="#DejaVuSans-32" x="814.794922"/>
      <use xlink:href="#DejaVuSans-30" x="878.417969"/>
     </g>
    </g>
    <g id="line2d_23">
     <path d="M 263.070312 155.81625 
L 281.070312 155.81625 
L 299.070312 155.81625 
" style="fill: none; stroke: #9467bd; stroke-width: 2; stroke-linecap: square"/>
    </g>
    <g id="text_20">
     <!-- Mini-batch size: 10 -->
     <g transform="translate(313.470312 162.11625)scale(0.18 -0.18)">
      <use xlink:href="#DejaVuSans-4d"/>
      <use xlink:href="#DejaVuSans-69" x="86.279297"/>
      <use xlink:href="#DejaVuSans-6e" x="114.0625"/>
      <use xlink:href="#DejaVuSans-69" x="177.441406"/>
      <use xlink:href="#DejaVuSans-2d" x="205.224609"/>
      <use xlink:href="#DejaVuSans-62" x="241.308594"/>
      <use xlink:href="#DejaVuSans-61" x="304.785156"/>
      <use xlink:href="#DejaVuSans-74" x="366.064453"/>
      <use xlink:href="#DejaVuSans-63" x="405.273438"/>
      <use xlink:href="#DejaVuSans-68" x="460.253906"/>
      <use xlink:href="#DejaVuSans-20" x="523.632812"/>
      <use xlink:href="#DejaVuSans-73" x="555.419922"/>
      <use xlink:href="#DejaVuSans-69" x="607.519531"/>
      <use xlink:href="#DejaVuSans-7a" x="635.302734"/>
      <use xlink:href="#DejaVuSans-65" x="687.792969"/>
      <use xlink:href="#DejaVuSans-3a" x="749.316406"/>
      <use xlink:href="#DejaVuSans-20" x="783.007812"/>
      <use xlink:href="#DejaVuSans-31" x="814.794922"/>
      <use xlink:href="#DejaVuSans-30" x="878.417969"/>
     </g>
    </g>
    <g id="line2d_24">
     <path d="M 263.070312 182.236875 
L 281.070312 182.236875 
L 299.070312 182.236875 
" style="fill: none; stroke: #8c564b; stroke-width: 2; stroke-linecap: square"/>
    </g>
    <g id="text_21">
     <!-- Mini-batch size: 5 -->
     <g transform="translate(313.470312 188.536875)scale(0.18 -0.18)">
      <use xlink:href="#DejaVuSans-4d"/>
      <use xlink:href="#DejaVuSans-69" x="86.279297"/>
      <use xlink:href="#DejaVuSans-6e" x="114.0625"/>
      <use xlink:href="#DejaVuSans-69" x="177.441406"/>
      <use xlink:href="#DejaVuSans-2d" x="205.224609"/>
      <use xlink:href="#DejaVuSans-62" x="241.308594"/>
      <use xlink:href="#DejaVuSans-61" x="304.785156"/>
      <use xlink:href="#DejaVuSans-74" x="366.064453"/>
      <use xlink:href="#DejaVuSans-63" x="405.273438"/>
      <use xlink:href="#DejaVuSans-68" x="460.253906"/>
      <use xlink:href="#DejaVuSans-20" x="523.632812"/>
      <use xlink:href="#DejaVuSans-73" x="555.419922"/>
      <use xlink:href="#DejaVuSans-69" x="607.519531"/>
      <use xlink:href="#DejaVuSans-7a" x="635.302734"/>
      <use xlink:href="#DejaVuSans-65" x="687.792969"/>
      <use xlink:href="#DejaVuSans-3a" x="749.316406"/>
      <use xlink:href="#DejaVuSans-20" x="783.007812"/>
      <use xlink:href="#DejaVuSans-35" x="814.794922"/>
     </g>
    </g>
   </g>
  </g>
 </g>
 <defs>
  <clipPath id="p7f112d60f1">
   <rect x="64.285625" y="26.556563" width="446.4" height="277.2"/>
  </clipPath>
 </defs>
</svg>
