<?xml version="1.0" encoding="utf-8" standalone="no"?>
<!DOCTYPE svg PUBLIC "-//W3C//DTD SVG 1.1//EN"
  "http://www.w3.org/Graphics/SVG/1.1/DTD/svg11.dtd">
<svg xmlns:xlink="http://www.w3.org/1999/xlink" width="535.064375pt" height="343.708906pt" viewBox="0 0 535.064375 343.708906" xmlns="http://www.w3.org/2000/svg" version="1.1">
 <metadata>
  <rdf:RDF xmlns:dc="http://purl.org/dc/elements/1.1/" xmlns:cc="http://creativecommons.org/ns#" xmlns:rdf="http://www.w3.org/1999/02/22-rdf-syntax-ns#">
   <cc:Work>
    <dc:type rdf:resource="http://purl.org/dc/dcmitype/StillImage"/>
    <dc:date>2022-11-13T14:59:07.772021</dc:date>
    <dc:format>image/svg+xml</dc:format>
    <dc:creator>
     <cc:Agent>
      <dc:title>Matplotlib v3.5.2, https://matplotlib.org/</dc:title>
     </cc:Agent>
    </dc:creator>
   </cc:Work>
  </rdf:RDF>
 </metadata>
 <defs>
  <style type="text/css">*{stroke-linejoin: round; stroke-linecap: butt}</style>
 </defs>
 <g id="figure_1">
  <g id="patch_1">
   <path d="M 0 343.708906 
L 535.064375 343.708906 
L 535.064375 0 
L 0 0 
z
" style="fill: #ffffff"/>
  </g>
  <g id="axes_1">
   <g id="patch_2">
    <path d="M 64.285625 291.238594 
L 510.685625 291.238594 
L 510.685625 14.038594 
L 64.285625 14.038594 
z
" style="fill: #f1f7f0"/>
   </g>
   <g id="matplotlib.axis_1">
    <g id="xtick_1">
     <g id="line2d_1">
      <defs>
       <path id="meee04d54b6" d="M 0 0 
L 0 3.5 
" style="stroke: #000000; stroke-width: 0.8"/>
      </defs>
      <g>
       <use xlink:href="#meee04d54b6" x="64.285625" y="291.238594" style="stroke: #000000; stroke-width: 0.8"/>
      </g>
     </g>
     <g id="text_1">
      <!-- 0 -->
      <g transform="translate(58.559375 311.915781)scale(0.18 -0.18)">
       <defs>
        <path id="DejaVuSans-30" d="M 2034 4250 
Q 1547 4250 1301 3770 
Q 1056 3291 1056 2328 
Q 1056 1369 1301 889 
Q 1547 409 2034 409 
Q 2525 409 2770 889 
Q 3016 1369 3016 2328 
Q 3016 3291 2770 3770 
Q 2525 4250 2034 4250 
z
M 2034 4750 
Q 2819 4750 3233 4129 
Q 3647 3509 3647 2328 
Q 3647 1150 3233 529 
Q 2819 -91 2034 -91 
Q 1250 -91 836 529 
Q 422 1150 422 2328 
Q 422 3509 836 4129 
Q 1250 4750 2034 4750 
z
" transform="scale(0.015625)"/>
       </defs>
       <use xlink:href="#DejaVuSans-30"/>
      </g>
     </g>
    </g>
    <g id="xtick_2">
     <g id="line2d_2">
      <g>
       <use xlink:href="#meee04d54b6" x="153.565625" y="291.238594" style="stroke: #000000; stroke-width: 0.8"/>
      </g>
     </g>
     <g id="text_2">
      <!-- 20 -->
      <g transform="translate(142.113125 311.915781)scale(0.18 -0.18)">
       <defs>
        <path id="DejaVuSans-32" d="M 1228 531 
L 3431 531 
L 3431 0 
L 469 0 
L 469 531 
Q 828 903 1448 1529 
Q 2069 2156 2228 2338 
Q 2531 2678 2651 2914 
Q 2772 3150 2772 3378 
Q 2772 3750 2511 3984 
Q 2250 4219 1831 4219 
Q 1534 4219 1204 4116 
Q 875 4013 500 3803 
L 500 4441 
Q 881 4594 1212 4672 
Q 1544 4750 1819 4750 
Q 2544 4750 2975 4387 
Q 3406 4025 3406 3419 
Q 3406 3131 3298 2873 
Q 3191 2616 2906 2266 
Q 2828 2175 2409 1742 
Q 1991 1309 1228 531 
z
" transform="scale(0.015625)"/>
       </defs>
       <use xlink:href="#DejaVuSans-32"/>
       <use xlink:href="#DejaVuSans-30" x="63.623047"/>
      </g>
     </g>
    </g>
    <g id="xtick_3">
     <g id="line2d_3">
      <g>
       <use xlink:href="#meee04d54b6" x="242.845625" y="291.238594" style="stroke: #000000; stroke-width: 0.8"/>
      </g>
     </g>
     <g id="text_3">
      <!-- 40 -->
      <g transform="translate(231.393125 311.915781)scale(0.18 -0.18)">
       <defs>
        <path id="DejaVuSans-34" d="M 2419 4116 
L 825 1625 
L 2419 1625 
L 2419 4116 
z
M 2253 4666 
L 3047 4666 
L 3047 1625 
L 3713 1625 
L 3713 1100 
L 3047 1100 
L 3047 0 
L 2419 0 
L 2419 1100 
L 313 1100 
L 313 1709 
L 2253 4666 
z
" transform="scale(0.015625)"/>
       </defs>
       <use xlink:href="#DejaVuSans-34"/>
       <use xlink:href="#DejaVuSans-30" x="63.623047"/>
      </g>
     </g>
    </g>
    <g id="xtick_4">
     <g id="line2d_4">
      <g>
       <use xlink:href="#meee04d54b6" x="332.125625" y="291.238594" style="stroke: #000000; stroke-width: 0.8"/>
      </g>
     </g>
     <g id="text_4">
      <!-- 60 -->
      <g transform="translate(320.673125 311.915781)scale(0.18 -0.18)">
       <defs>
        <path id="DejaVuSans-36" d="M 2113 2584 
Q 1688 2584 1439 2293 
Q 1191 2003 1191 1497 
Q 1191 994 1439 701 
Q 1688 409 2113 409 
Q 2538 409 2786 701 
Q 3034 994 3034 1497 
Q 3034 2003 2786 2293 
Q 2538 2584 2113 2584 
z
M 3366 4563 
L 3366 3988 
Q 3128 4100 2886 4159 
Q 2644 4219 2406 4219 
Q 1781 4219 1451 3797 
Q 1122 3375 1075 2522 
Q 1259 2794 1537 2939 
Q 1816 3084 2150 3084 
Q 2853 3084 3261 2657 
Q 3669 2231 3669 1497 
Q 3669 778 3244 343 
Q 2819 -91 2113 -91 
Q 1303 -91 875 529 
Q 447 1150 447 2328 
Q 447 3434 972 4092 
Q 1497 4750 2381 4750 
Q 2619 4750 2861 4703 
Q 3103 4656 3366 4563 
z
" transform="scale(0.015625)"/>
       </defs>
       <use xlink:href="#DejaVuSans-36"/>
       <use xlink:href="#DejaVuSans-30" x="63.623047"/>
      </g>
     </g>
    </g>
    <g id="xtick_5">
     <g id="line2d_5">
      <g>
       <use xlink:href="#meee04d54b6" x="421.405625" y="291.238594" style="stroke: #000000; stroke-width: 0.8"/>
      </g>
     </g>
     <g id="text_5">
      <!-- 80 -->
      <g transform="translate(409.953125 311.915781)scale(0.18 -0.18)">
       <defs>
        <path id="DejaVuSans-38" d="M 2034 2216 
Q 1584 2216 1326 1975 
Q 1069 1734 1069 1313 
Q 1069 891 1326 650 
Q 1584 409 2034 409 
Q 2484 409 2743 651 
Q 3003 894 3003 1313 
Q 3003 1734 2745 1975 
Q 2488 2216 2034 2216 
z
M 1403 2484 
Q 997 2584 770 2862 
Q 544 3141 544 3541 
Q 544 4100 942 4425 
Q 1341 4750 2034 4750 
Q 2731 4750 3128 4425 
Q 3525 4100 3525 3541 
Q 3525 3141 3298 2862 
Q 3072 2584 2669 2484 
Q 3125 2378 3379 2068 
Q 3634 1759 3634 1313 
Q 3634 634 3220 271 
Q 2806 -91 2034 -91 
Q 1263 -91 848 271 
Q 434 634 434 1313 
Q 434 1759 690 2068 
Q 947 2378 1403 2484 
z
M 1172 3481 
Q 1172 3119 1398 2916 
Q 1625 2713 2034 2713 
Q 2441 2713 2670 2916 
Q 2900 3119 2900 3481 
Q 2900 3844 2670 4047 
Q 2441 4250 2034 4250 
Q 1625 4250 1398 4047 
Q 1172 3844 1172 3481 
z
" transform="scale(0.015625)"/>
       </defs>
       <use xlink:href="#DejaVuSans-38"/>
       <use xlink:href="#DejaVuSans-30" x="63.623047"/>
      </g>
     </g>
    </g>
    <g id="xtick_6">
     <g id="line2d_6">
      <g>
       <use xlink:href="#meee04d54b6" x="510.685625" y="291.238594" style="stroke: #000000; stroke-width: 0.8"/>
      </g>
     </g>
     <g id="text_6">
      <!-- 100 -->
      <g transform="translate(493.506875 311.915781)scale(0.18 -0.18)">
       <defs>
        <path id="DejaVuSans-31" d="M 794 531 
L 1825 531 
L 1825 4091 
L 703 3866 
L 703 4441 
L 1819 4666 
L 2450 4666 
L 2450 531 
L 3481 531 
L 3481 0 
L 794 0 
L 794 531 
z
" transform="scale(0.015625)"/>
       </defs>
       <use xlink:href="#DejaVuSans-31"/>
       <use xlink:href="#DejaVuSans-30" x="63.623047"/>
       <use xlink:href="#DejaVuSans-30" x="127.246094"/>
      </g>
     </g>
    </g>
    <g id="text_7">
     <!-- Epochs -->
     <g transform="translate(253.827031 333.015781)scale(0.18 -0.18)">
      <defs>
       <path id="Montserrat-Medium-45" d="M 3923 557 
L 3923 0 
L 672 0 
L 672 4480 
L 3834 4480 
L 3834 3923 
L 1312 3923 
L 1312 2547 
L 3558 2547 
L 3558 2003 
L 1312 2003 
L 1312 557 
L 3923 557 
z
" transform="scale(0.015625)"/>
       <path id="Montserrat-Medium-70" d="M 2381 3424 
Q 2874 3424 3264 3206 
Q 3654 2989 3875 2598 
Q 4096 2208 4096 1696 
Q 4096 1184 3875 790 
Q 3654 397 3264 179 
Q 2874 -38 2381 -38 
Q 2016 -38 1712 102 
Q 1408 243 1197 512 
L 1197 -1242 
L 582 -1242 
L 582 3392 
L 1171 3392 
L 1171 2854 
Q 1376 3136 1689 3280 
Q 2003 3424 2381 3424 
z
M 2330 499 
Q 2656 499 2915 649 
Q 3174 800 3324 1072 
Q 3475 1344 3475 1696 
Q 3475 2048 3324 2320 
Q 3174 2592 2915 2739 
Q 2656 2886 2330 2886 
Q 2010 2886 1750 2736 
Q 1491 2586 1340 2317 
Q 1190 2048 1190 1696 
Q 1190 1344 1337 1072 
Q 1485 800 1747 649 
Q 2010 499 2330 499 
z
" transform="scale(0.015625)"/>
       <path id="Montserrat-Medium-6f" d="M 2035 -38 
Q 1530 -38 1126 186 
Q 723 410 496 803 
Q 269 1197 269 1696 
Q 269 2195 496 2588 
Q 723 2982 1126 3203 
Q 1530 3424 2035 3424 
Q 2541 3424 2941 3203 
Q 3341 2982 3568 2588 
Q 3795 2195 3795 1696 
Q 3795 1197 3568 803 
Q 3341 410 2941 186 
Q 2541 -38 2035 -38 
z
M 2035 499 
Q 2362 499 2621 649 
Q 2880 800 3027 1072 
Q 3174 1344 3174 1696 
Q 3174 2048 3027 2320 
Q 2880 2592 2621 2739 
Q 2362 2886 2035 2886 
Q 1709 2886 1449 2739 
Q 1190 2592 1040 2320 
Q 890 2048 890 1696 
Q 890 1344 1040 1072 
Q 1190 800 1449 649 
Q 1709 499 2035 499 
z
" transform="scale(0.015625)"/>
       <path id="Montserrat-Medium-63" d="M 2061 -38 
Q 1542 -38 1136 186 
Q 730 410 499 803 
Q 269 1197 269 1696 
Q 269 2195 499 2588 
Q 730 2982 1136 3203 
Q 1542 3424 2061 3424 
Q 2522 3424 2883 3238 
Q 3245 3053 3443 2701 
L 2976 2400 
Q 2816 2643 2579 2764 
Q 2342 2886 2054 2886 
Q 1722 2886 1456 2739 
Q 1190 2592 1040 2320 
Q 890 2048 890 1696 
Q 890 1338 1040 1066 
Q 1190 794 1456 646 
Q 1722 499 2054 499 
Q 2342 499 2579 620 
Q 2816 742 2976 986 
L 3443 691 
Q 3245 339 2883 150 
Q 2522 -38 2061 -38 
z
" transform="scale(0.015625)"/>
       <path id="Montserrat-Medium-68" d="M 2394 3424 
Q 3040 3424 3421 3049 
Q 3802 2675 3802 1952 
L 3802 0 
L 3187 0 
L 3187 1882 
Q 3187 2374 2950 2624 
Q 2714 2874 2272 2874 
Q 1773 2874 1485 2582 
Q 1197 2291 1197 1747 
L 1197 0 
L 582 0 
L 582 4749 
L 1197 4749 
L 1197 2912 
Q 1389 3155 1699 3289 
Q 2010 3424 2394 3424 
z
" transform="scale(0.015625)"/>
       <path id="Montserrat-Medium-73" d="M 1555 -38 
Q 1139 -38 755 74 
Q 371 186 154 358 
L 410 845 
Q 634 685 954 589 
Q 1274 493 1600 493 
Q 2406 493 2406 954 
Q 2406 1107 2297 1196 
Q 2189 1286 2025 1328 
Q 1862 1370 1562 1421 
Q 1152 1485 893 1568 
Q 634 1651 448 1849 
Q 262 2048 262 2406 
Q 262 2867 646 3145 
Q 1030 3424 1677 3424 
Q 2016 3424 2355 3341 
Q 2694 3258 2912 3117 
L 2650 2630 
Q 2234 2899 1670 2899 
Q 1280 2899 1075 2771 
Q 870 2643 870 2432 
Q 870 2266 985 2170 
Q 1101 2074 1270 2029 
Q 1440 1984 1747 1926 
Q 2157 1856 2409 1776 
Q 2662 1696 2841 1504 
Q 3021 1312 3021 966 
Q 3021 506 2627 234 
Q 2234 -38 1555 -38 
z
" transform="scale(0.015625)"/>
      </defs>
      <use xlink:href="#Montserrat-Medium-45"/>
      <use xlink:href="#Montserrat-Medium-70" x="66.999985"/>
      <use xlink:href="#Montserrat-Medium-6f" x="135.199966"/>
      <use xlink:href="#Montserrat-Medium-63" x="198.699951"/>
      <use xlink:href="#Montserrat-Medium-68" x="255.799942"/>
      <use xlink:href="#Montserrat-Medium-73" x="323.899933"/>
     </g>
    </g>
   </g>
   <g id="matplotlib.axis_2">
    <g id="ytick_1">
     <g id="line2d_7">
      <defs>
       <path id="m7f4b7fbe49" d="M 0 0 
L -3.5 0 
" style="stroke: #000000; stroke-width: 0.8"/>
      </defs>
      <g>
       <use xlink:href="#m7f4b7fbe49" x="64.285625" y="291.238594" style="stroke: #000000; stroke-width: 0.8"/>
      </g>
     </g>
     <g id="text_8">
      <!-- 0.3 -->
      <g transform="translate(28.66 298.077188)scale(0.18 -0.18)">
       <defs>
        <path id="DejaVuSans-2e" d="M 684 794 
L 1344 794 
L 1344 0 
L 684 0 
L 684 794 
z
" transform="scale(0.015625)"/>
        <path id="DejaVuSans-33" d="M 2597 2516 
Q 3050 2419 3304 2112 
Q 3559 1806 3559 1356 
Q 3559 666 3084 287 
Q 2609 -91 1734 -91 
Q 1441 -91 1130 -33 
Q 819 25 488 141 
L 488 750 
Q 750 597 1062 519 
Q 1375 441 1716 441 
Q 2309 441 2620 675 
Q 2931 909 2931 1356 
Q 2931 1769 2642 2001 
Q 2353 2234 1838 2234 
L 1294 2234 
L 1294 2753 
L 1863 2753 
Q 2328 2753 2575 2939 
Q 2822 3125 2822 3475 
Q 2822 3834 2567 4026 
Q 2313 4219 1838 4219 
Q 1578 4219 1281 4162 
Q 984 4106 628 3988 
L 628 4550 
Q 988 4650 1302 4700 
Q 1616 4750 1894 4750 
Q 2613 4750 3031 4423 
Q 3450 4097 3450 3541 
Q 3450 3153 3228 2886 
Q 3006 2619 2597 2516 
z
" transform="scale(0.015625)"/>
       </defs>
       <use xlink:href="#DejaVuSans-30"/>
       <use xlink:href="#DejaVuSans-2e" x="63.623047"/>
       <use xlink:href="#DejaVuSans-33" x="95.410156"/>
      </g>
     </g>
    </g>
    <g id="ytick_2">
     <g id="line2d_8">
      <g>
       <use xlink:href="#m7f4b7fbe49" x="64.285625" y="251.638594" style="stroke: #000000; stroke-width: 0.8"/>
      </g>
     </g>
     <g id="text_9">
      <!-- 0.4 -->
      <g transform="translate(28.66 258.477188)scale(0.18 -0.18)">
       <use xlink:href="#DejaVuSans-30"/>
       <use xlink:href="#DejaVuSans-2e" x="63.623047"/>
       <use xlink:href="#DejaVuSans-34" x="95.410156"/>
      </g>
     </g>
    </g>
    <g id="ytick_3">
     <g id="line2d_9">
      <g>
       <use xlink:href="#m7f4b7fbe49" x="64.285625" y="212.038594" style="stroke: #000000; stroke-width: 0.8"/>
      </g>
     </g>
     <g id="text_10">
      <!-- 0.5 -->
      <g transform="translate(28.66 218.877188)scale(0.18 -0.18)">
       <defs>
        <path id="DejaVuSans-35" d="M 691 4666 
L 3169 4666 
L 3169 4134 
L 1269 4134 
L 1269 2991 
Q 1406 3038 1543 3061 
Q 1681 3084 1819 3084 
Q 2600 3084 3056 2656 
Q 3513 2228 3513 1497 
Q 3513 744 3044 326 
Q 2575 -91 1722 -91 
Q 1428 -91 1123 -41 
Q 819 9 494 109 
L 494 744 
Q 775 591 1075 516 
Q 1375 441 1709 441 
Q 2250 441 2565 725 
Q 2881 1009 2881 1497 
Q 2881 1984 2565 2268 
Q 2250 2553 1709 2553 
Q 1456 2553 1204 2497 
Q 953 2441 691 2322 
L 691 4666 
z
" transform="scale(0.015625)"/>
       </defs>
       <use xlink:href="#DejaVuSans-30"/>
       <use xlink:href="#DejaVuSans-2e" x="63.623047"/>
       <use xlink:href="#DejaVuSans-35" x="95.410156"/>
      </g>
     </g>
    </g>
    <g id="ytick_4">
     <g id="line2d_10">
      <g>
       <use xlink:href="#m7f4b7fbe49" x="64.285625" y="172.438594" style="stroke: #000000; stroke-width: 0.8"/>
      </g>
     </g>
     <g id="text_11">
      <!-- 0.6 -->
      <g transform="translate(28.66 179.277187)scale(0.18 -0.18)">
       <use xlink:href="#DejaVuSans-30"/>
       <use xlink:href="#DejaVuSans-2e" x="63.623047"/>
       <use xlink:href="#DejaVuSans-36" x="95.410156"/>
      </g>
     </g>
    </g>
    <g id="ytick_5">
     <g id="line2d_11">
      <g>
       <use xlink:href="#m7f4b7fbe49" x="64.285625" y="132.838594" style="stroke: #000000; stroke-width: 0.8"/>
      </g>
     </g>
     <g id="text_12">
      <!-- 0.7 -->
      <g transform="translate(28.66 139.677188)scale(0.18 -0.18)">
       <defs>
        <path id="DejaVuSans-37" d="M 525 4666 
L 3525 4666 
L 3525 4397 
L 1831 0 
L 1172 0 
L 2766 4134 
L 525 4134 
L 525 4666 
z
" transform="scale(0.015625)"/>
       </defs>
       <use xlink:href="#DejaVuSans-30"/>
       <use xlink:href="#DejaVuSans-2e" x="63.623047"/>
       <use xlink:href="#DejaVuSans-37" x="95.410156"/>
      </g>
     </g>
    </g>
    <g id="ytick_6">
     <g id="line2d_12">
      <g>
       <use xlink:href="#m7f4b7fbe49" x="64.285625" y="93.238594" style="stroke: #000000; stroke-width: 0.8"/>
      </g>
     </g>
     <g id="text_13">
      <!-- 0.8 -->
      <g transform="translate(28.66 100.077187)scale(0.18 -0.18)">
       <use xlink:href="#DejaVuSans-30"/>
       <use xlink:href="#DejaVuSans-2e" x="63.623047"/>
       <use xlink:href="#DejaVuSans-38" x="95.410156"/>
      </g>
     </g>
    </g>
    <g id="ytick_7">
     <g id="line2d_13">
      <g>
       <use xlink:href="#m7f4b7fbe49" x="64.285625" y="53.638594" style="stroke: #000000; stroke-width: 0.8"/>
      </g>
     </g>
     <g id="text_14">
      <!-- 0.9 -->
      <g transform="translate(28.66 60.477187)scale(0.18 -0.18)">
       <defs>
        <path id="DejaVuSans-39" d="M 703 97 
L 703 672 
Q 941 559 1184 500 
Q 1428 441 1663 441 
Q 2288 441 2617 861 
Q 2947 1281 2994 2138 
Q 2813 1869 2534 1725 
Q 2256 1581 1919 1581 
Q 1219 1581 811 2004 
Q 403 2428 403 3163 
Q 403 3881 828 4315 
Q 1253 4750 1959 4750 
Q 2769 4750 3195 4129 
Q 3622 3509 3622 2328 
Q 3622 1225 3098 567 
Q 2575 -91 1691 -91 
Q 1453 -91 1209 -44 
Q 966 3 703 97 
z
M 1959 2075 
Q 2384 2075 2632 2365 
Q 2881 2656 2881 3163 
Q 2881 3666 2632 3958 
Q 2384 4250 1959 4250 
Q 1534 4250 1286 3958 
Q 1038 3666 1038 3163 
Q 1038 2656 1286 2365 
Q 1534 2075 1959 2075 
z
" transform="scale(0.015625)"/>
       </defs>
       <use xlink:href="#DejaVuSans-30"/>
       <use xlink:href="#DejaVuSans-2e" x="63.623047"/>
       <use xlink:href="#DejaVuSans-39" x="95.410156"/>
      </g>
     </g>
    </g>
    <g id="ytick_8">
     <g id="line2d_14">
      <g>
       <use xlink:href="#m7f4b7fbe49" x="64.285625" y="14.038594" style="stroke: #000000; stroke-width: 0.8"/>
      </g>
     </g>
     <g id="text_15">
      <!-- 1.0 -->
      <g transform="translate(28.66 20.877187)scale(0.18 -0.18)">
       <use xlink:href="#DejaVuSans-31"/>
       <use xlink:href="#DejaVuSans-2e" x="63.623047"/>
       <use xlink:href="#DejaVuSans-30" x="95.410156"/>
      </g>
     </g>
    </g>
    <g id="text_16">
     <!-- Cost function $J$ -->
     <g transform="translate(20.88 219.238594)rotate(-90)scale(0.18 -0.18)">
      <defs>
       <path id="Montserrat-Medium-43" d="M 2675 -51 
Q 2003 -51 1462 246 
Q 922 544 614 1065 
Q 307 1587 307 2240 
Q 307 2893 614 3414 
Q 922 3936 1466 4233 
Q 2010 4531 2682 4531 
Q 3206 4531 3641 4355 
Q 4077 4179 4384 3834 
L 3968 3430 
Q 3462 3962 2707 3962 
Q 2208 3962 1805 3738 
Q 1402 3514 1174 3120 
Q 947 2726 947 2240 
Q 947 1754 1174 1360 
Q 1402 966 1805 742 
Q 2208 518 2707 518 
Q 3456 518 3968 1056 
L 4384 653 
Q 4077 307 3638 128 
Q 3200 -51 2675 -51 
z
" transform="scale(0.015625)"/>
       <path id="Montserrat-Medium-74" d="M 2490 198 
Q 2355 83 2156 22 
Q 1958 -38 1747 -38 
Q 1235 -38 953 237 
Q 672 512 672 1024 
L 672 2886 
L 96 2886 
L 96 3392 
L 672 3392 
L 672 4134 
L 1286 4134 
L 1286 3392 
L 2259 3392 
L 2259 2886 
L 1286 2886 
L 1286 1050 
Q 1286 774 1424 627 
Q 1562 480 1818 480 
Q 2099 480 2298 640 
L 2490 198 
z
" transform="scale(0.015625)"/>
       <path id="Montserrat-Medium-20" transform="scale(0.015625)"/>
       <path id="Montserrat-Medium-66" d="M 1824 4282 
Q 1274 4282 1274 3686 
L 1274 3392 
L 2259 3392 
L 2259 2886 
L 1286 2886 
L 1286 0 
L 672 0 
L 672 2886 
L 96 2886 
L 96 3392 
L 672 3392 
L 672 3693 
Q 672 4198 966 4492 
Q 1261 4787 1792 4787 
Q 1997 4787 2176 4736 
Q 2355 4685 2483 4589 
L 2298 4122 
Q 2086 4282 1824 4282 
z
" transform="scale(0.015625)"/>
       <path id="Montserrat-Medium-75" d="M 3744 3392 
L 3744 0 
L 3162 0 
L 3162 512 
Q 2976 250 2672 106 
Q 2368 -38 2010 -38 
Q 1331 -38 940 336 
Q 550 710 550 1440 
L 550 3392 
L 1165 3392 
L 1165 1510 
Q 1165 1018 1401 765 
Q 1638 512 2080 512 
Q 2566 512 2848 806 
Q 3130 1101 3130 1638 
L 3130 3392 
L 3744 3392 
z
" transform="scale(0.015625)"/>
       <path id="Montserrat-Medium-6e" d="M 2394 3424 
Q 3040 3424 3421 3049 
Q 3802 2675 3802 1952 
L 3802 0 
L 3187 0 
L 3187 1882 
Q 3187 2374 2950 2624 
Q 2714 2874 2272 2874 
Q 1773 2874 1485 2582 
Q 1197 2291 1197 1747 
L 1197 0 
L 582 0 
L 582 3392 
L 1171 3392 
L 1171 2880 
Q 1357 3142 1673 3283 
Q 1990 3424 2394 3424 
z
" transform="scale(0.015625)"/>
       <path id="Montserrat-Medium-69" d="M 582 3392 
L 1197 3392 
L 1197 0 
L 582 0 
L 582 3392 
z
M 890 4045 
Q 710 4045 592 4160 
Q 474 4275 474 4442 
Q 474 4608 592 4726 
Q 710 4845 890 4845 
Q 1069 4845 1187 4733 
Q 1306 4621 1306 4454 
Q 1306 4282 1187 4163 
Q 1069 4045 890 4045 
z
" transform="scale(0.015625)"/>
       <path id="DejaVuSans-Oblique-4a" d="M 1069 4666 
L 1703 4666 
L 856 325 
Q 691 -522 298 -901 
Q -94 -1281 -800 -1281 
L -1050 -1281 
L -947 -750 
L -750 -750 
Q -328 -750 -109 -509 
Q 109 -269 225 325 
L 1069 4666 
z
" transform="scale(0.015625)"/>
      </defs>
      <use xlink:href="#Montserrat-Medium-43" transform="translate(0 0.296875)"/>
      <use xlink:href="#Montserrat-Medium-6f" transform="translate(72.299988 0.296875)"/>
      <use xlink:href="#Montserrat-Medium-73" transform="translate(135.799973 0.296875)"/>
      <use xlink:href="#Montserrat-Medium-74" transform="translate(185.899963 0.296875)"/>
      <use xlink:href="#Montserrat-Medium-20" transform="translate(227.299957 0.296875)"/>
      <use xlink:href="#Montserrat-Medium-66" transform="translate(254.199951 0.296875)"/>
      <use xlink:href="#Montserrat-Medium-75" transform="translate(289.499939 0.296875)"/>
      <use xlink:href="#Montserrat-Medium-6e" transform="translate(357.199921 0.296875)"/>
      <use xlink:href="#Montserrat-Medium-63" transform="translate(425.299911 0.296875)"/>
      <use xlink:href="#Montserrat-Medium-74" transform="translate(482.399902 0.296875)"/>
      <use xlink:href="#Montserrat-Medium-69" transform="translate(523.799896 0.296875)"/>
      <use xlink:href="#Montserrat-Medium-6f" transform="translate(551.69989 0.296875)"/>
      <use xlink:href="#Montserrat-Medium-6e" transform="translate(615.199875 0.296875)"/>
      <use xlink:href="#Montserrat-Medium-20" transform="translate(683.299866 0.296875)"/>
      <use xlink:href="#DejaVuSans-Oblique-4a" transform="translate(710.19986 0.296875)"/>
     </g>
    </g>
   </g>
   <g id="line2d_15">
    <path d="M 107.515359 -1 
L 108.925625 4.310342 
L 113.389625 18.877582 
L 117.853625 31.494281 
L 122.317625 42.535286 
L 126.781625 52.231201 
L 131.245625 60.829061 
L 135.709625 68.519958 
L 140.173625 75.416718 
L 144.637625 81.710834 
L 149.101625 87.433276 
L 153.565625 92.694199 
L 158.029625 97.573172 
L 162.493625 102.062192 
L 166.957625 106.306161 
L 171.421625 110.24541 
L 175.885625 113.978837 
L 180.349625 117.462185 
L 184.813625 120.811136 
L 189.277625 123.969512 
L 193.741625 126.994316 
L 198.205625 129.887437 
L 202.669625 132.665892 
L 207.133625 135.290052 
L 211.597625 137.783873 
L 216.061625 140.19487 
L 220.525625 142.474112 
L 224.989625 144.660877 
L 229.453625 146.783723 
L 233.917625 148.797214 
L 238.381625 150.722452 
L 242.845625 152.611058 
L 247.309625 154.394935 
L 251.773625 156.131936 
L 256.237625 157.805939 
L 260.701625 159.423058 
L 265.165625 160.981853 
L 269.629625 162.462142 
L 274.093625 163.930394 
L 278.557625 165.32793 
L 283.021625 166.711564 
L 287.485625 168.014804 
L 291.949625 169.304708 
L 296.413625 170.558523 
L 300.877625 171.764588 
L 305.341625 172.949646 
L 309.805625 174.071093 
L 314.269625 175.169243 
L 318.733625 176.251814 
L 323.197625 177.282836 
L 327.661625 178.31459 
L 332.125625 179.313818 
L 336.589625 180.248538 
L 341.053625 181.206955 
L 345.517625 182.08793 
L 349.981625 183.019865 
L 354.445625 183.890147 
L 358.909625 184.723112 
L 363.373625 185.569272 
L 367.837625 186.376722 
L 372.301625 187.166186 
L 376.765625 187.949514 
L 381.229625 188.687829 
L 385.693625 189.462848 
L 390.157625 190.153768 
L 394.621625 190.8673 
L 399.085625 191.561949 
L 403.549625 192.249116 
L 408.013625 192.898234 
L 412.477625 193.537534 
L 416.941625 194.179854 
L 421.405625 194.822528 
L 425.869625 195.411599 
L 430.333625 196.042212 
L 434.797625 196.620237 
L 439.261625 197.184336 
L 443.725625 197.743218 
L 448.189625 198.324075 
L 452.653625 198.859661 
L 457.117625 199.375018 
L 461.581625 199.914215 
L 466.045625 200.445481 
L 470.509625 200.945072 
L 474.973625 201.437982 
L 479.437625 201.941113 
L 483.901625 202.410208 
L 488.365625 202.877084 
L 492.829625 203.355903 
L 497.293625 203.810529 
L 501.757625 204.283377 
L 506.221625 204.710741 
" clip-path="url(#pcb1ffd0da6)" style="fill: none; stroke: #000000; stroke-width: 2; stroke-linecap: square"/>
   </g>
   <g id="line2d_16">
    <path d="M 82.999558 -1 
L 86.605625 25.591085 
L 91.069625 49.125508 
L 95.533625 66.764712 
L 99.997625 80.662228 
L 104.461625 92.026293 
L 108.925625 101.459407 
L 113.389625 109.471217 
L 117.853625 116.467324 
L 122.317625 122.57639 
L 126.781625 128.065275 
L 131.245625 132.95874 
L 135.709625 137.38101 
L 140.173625 141.471179 
L 144.637625 145.202292 
L 149.101625 148.650141 
L 153.565625 151.83526 
L 158.029625 154.838515 
L 162.493625 157.634672 
L 166.957625 160.265984 
L 171.421625 162.699546 
L 175.885625 165.041361 
L 180.349625 167.239195 
L 184.813625 169.320358 
L 189.277625 171.30628 
L 193.741625 173.212942 
L 198.205625 175.029463 
L 202.669625 176.718879 
L 207.133625 178.343834 
L 211.597625 179.882047 
L 216.061625 181.424815 
L 220.525625 182.926867 
L 224.989625 184.333962 
L 229.453625 185.695881 
L 233.917625 187.05761 
L 238.381625 188.363093 
L 242.845625 189.628592 
L 247.309625 190.855144 
L 251.773625 192.028707 
L 256.237625 193.176118 
L 260.701625 194.300373 
L 265.165625 195.331206 
L 269.629625 196.373227 
L 274.093625 197.321731 
L 278.557625 198.286239 
L 283.021625 199.233114 
L 287.485625 200.138235 
L 291.949625 201.011846 
L 296.413625 201.832231 
L 300.877625 202.650491 
L 305.341625 203.448712 
L 309.805625 204.216957 
L 314.269625 204.955768 
L 318.733625 205.714005 
L 323.197625 206.397136 
L 327.661625 207.138095 
L 332.125625 207.782445 
L 336.589625 208.414451 
L 341.053625 209.071335 
L 345.517625 209.715024 
L 349.981625 210.313938 
L 354.445625 210.949932 
L 358.909625 211.503527 
L 363.373625 212.115411 
L 367.837625 212.696717 
L 372.301625 213.197334 
L 376.765625 213.725638 
L 381.229625 214.290692 
L 385.693625 214.811148 
L 390.157625 215.328689 
L 394.621625 215.819062 
L 399.085625 216.314463 
L 403.549625 216.753994 
L 408.013625 217.236579 
L 412.477625 217.707349 
L 416.941625 218.153242 
L 421.405625 218.606263 
L 425.869625 219.037969 
L 430.333625 219.441482 
L 434.797625 219.859298 
L 439.261625 220.285152 
L 443.725625 220.698991 
L 448.189625 221.120277 
L 452.653625 221.53532 
L 457.117625 221.88458 
L 461.581625 222.226204 
L 466.045625 222.614339 
L 470.509625 222.931699 
L 474.973625 223.395153 
L 479.437625 223.70752 
L 483.901625 224.064983 
L 488.365625 224.404849 
L 492.829625 224.710442 
L 497.293625 225.051241 
L 501.757625 225.350957 
L 506.221625 225.68124 
" clip-path="url(#pcb1ffd0da6)" style="fill: none; stroke: #0000ff; stroke-width: 2; stroke-linecap: square"/>
   </g>
   <g id="line2d_17">
    <path d="M 80.474559 -1 
L 82.141625 19.046937 
L 86.605625 55.928302 
L 91.069625 81.835107 
L 95.533625 100.162209 
L 99.997625 113.907625 
L 104.461625 124.871494 
L 108.925625 133.93191 
L 113.389625 141.709644 
L 117.853625 148.420291 
L 122.317625 154.336469 
L 126.781625 159.633341 
L 131.245625 164.463289 
L 135.709625 168.715921 
L 140.173625 172.66742 
L 144.637625 176.222853 
L 149.101625 179.520537 
L 153.565625 182.50158 
L 158.029625 185.265968 
L 162.493625 187.871103 
L 166.957625 190.194932 
L 171.421625 192.472051 
L 175.885625 194.512143 
L 180.349625 196.412881 
L 184.813625 198.210165 
L 189.277625 199.973979 
L 193.741625 201.624213 
L 198.205625 203.069759 
L 202.669625 204.53355 
L 207.133625 205.942368 
L 211.597625 207.169204 
L 216.061625 208.466969 
L 220.525625 209.606448 
L 224.989625 210.673324 
L 229.453625 211.767343 
L 233.917625 212.801162 
L 238.381625 213.8091 
L 242.845625 214.706821 
L 247.309625 215.67108 
L 251.773625 216.500576 
L 256.237625 217.313443 
L 260.701625 218.117022 
L 265.165625 218.909201 
L 269.629625 219.621942 
L 274.093625 220.393456 
L 278.557625 221.095646 
L 283.021625 221.722235 
L 287.485625 222.454119 
L 291.949625 223.036416 
L 296.413625 223.671702 
L 300.877625 224.26298 
L 305.341625 224.852417 
L 309.805625 225.406378 
L 314.269625 225.963997 
L 318.733625 226.480453 
L 323.197625 227.033918 
L 327.661625 227.520113 
L 332.125625 227.982269 
L 336.589625 228.495655 
L 341.053625 228.932531 
L 345.517625 229.368345 
L 349.981625 229.828766 
L 354.445625 230.187514 
L 358.909625 230.787042 
L 363.373625 231.136845 
L 367.837625 231.531577 
L 372.301625 231.95802 
L 376.765625 232.280679 
L 381.229625 232.640773 
L 385.693625 233.049632 
L 390.157625 233.405513 
L 394.621625 233.735867 
L 399.085625 234.105402 
L 403.549625 234.465154 
L 408.013625 234.738918 
L 412.477625 235.184622 
L 416.941625 235.416774 
L 421.405625 235.782875 
L 425.869625 236.013197 
L 430.333625 236.35409 
L 434.797625 236.676348 
L 439.261625 236.931088 
L 443.725625 237.204557 
L 448.189625 237.522519 
L 452.653625 237.77248 
L 457.117625 238.075737 
L 461.581625 238.316102 
L 466.045625 238.532864 
L 470.509625 238.823611 
L 474.973625 239.130704 
L 479.437625 239.378717 
L 483.901625 239.611364 
L 488.365625 239.823524 
L 492.829625 240.027835 
L 497.293625 240.308917 
L 501.757625 240.567103 
L 506.221625 240.809227 
" clip-path="url(#pcb1ffd0da6)" style="fill: none; stroke: #ff0000; stroke-width: 2; stroke-linecap: square"/>
   </g>
   <g id="line2d_18">
    <path d="M 68.018419 -1 
L 68.749625 37.284795 
L 73.213625 98.124761 
L 77.677625 129.054708 
L 82.141625 148.66428 
L 86.605625 162.322528 
L 91.069625 172.545886 
L 95.533625 180.504611 
L 99.997625 186.941836 
L 104.461625 192.393734 
L 108.925625 196.75912 
L 113.389625 200.629446 
L 117.853625 203.980545 
L 122.317625 206.869205 
L 126.781625 209.501531 
L 131.245625 211.839971 
L 135.709625 214.022781 
L 140.173625 215.951702 
L 144.637625 217.912215 
L 149.101625 219.460695 
L 153.565625 221.012562 
L 158.029625 222.57511 
L 162.493625 223.845624 
L 166.957625 225.15781 
L 171.421625 226.362589 
L 175.885625 227.459405 
L 180.349625 228.526729 
L 184.813625 229.60242 
L 189.277625 230.612235 
L 193.741625 231.548784 
L 198.205625 232.403724 
L 202.669625 233.245871 
L 207.133625 234.048388 
L 211.597625 234.800736 
L 216.061625 235.621793 
L 220.525625 236.322638 
L 224.989625 237.012071 
L 229.453625 237.818011 
L 233.917625 238.377601 
L 238.381625 238.936896 
L 242.845625 239.517151 
L 247.309625 240.255101 
L 251.773625 240.79385 
L 256.237625 241.254459 
L 260.701625 241.91971 
L 265.165625 242.443435 
L 269.629625 242.848718 
L 274.093625 243.373068 
L 278.557625 243.903851 
L 283.021625 244.309405 
L 287.485625 244.784011 
L 291.949625 245.38486 
L 296.413625 245.72554 
L 300.877625 246.152196 
L 305.341625 246.58113 
L 309.805625 246.979414 
L 314.269625 247.458009 
L 318.733625 247.815247 
L 323.197625 248.195664 
L 327.661625 248.590561 
L 332.125625 248.914223 
L 336.589625 249.326198 
L 341.053625 249.749384 
L 345.517625 250.008396 
L 349.981625 250.461653 
L 354.445625 250.777172 
L 358.909625 251.154945 
L 363.373625 251.376074 
L 367.837625 251.787104 
L 372.301625 252.07365 
L 376.765625 252.444708 
L 381.229625 252.821395 
L 385.693625 253.079983 
L 390.157625 253.376041 
L 394.621625 253.688857 
L 399.085625 253.900757 
L 403.549625 254.266185 
L 408.013625 254.517538 
L 412.477625 254.782451 
L 416.941625 255.136503 
L 421.405625 255.417419 
L 425.869625 255.73511 
L 430.333625 255.941652 
L 434.797625 256.311411 
L 439.261625 256.436522 
L 443.725625 256.78839 
L 448.189625 257.057693 
L 452.653625 257.311489 
L 457.117625 257.474754 
L 461.581625 257.855808 
L 466.045625 257.915926 
L 470.509625 258.330863 
L 474.973625 258.532141 
L 479.437625 258.741338 
L 483.901625 258.916275 
L 488.365625 259.123112 
L 492.829625 259.326409 
L 497.293625 259.597258 
L 501.757625 259.752097 
L 506.221625 260.077258 
" clip-path="url(#pcb1ffd0da6)" style="fill: none; stroke: #008000; stroke-width: 2; stroke-linecap: square"/>
   </g>
   <g id="line2d_19">
    <path d="M 66.710347 -1 
L 68.749625 97.66827 
L 73.213625 142.451831 
L 77.677625 167.315293 
L 82.141625 182.879613 
L 86.605625 193.606031 
L 91.069625 201.478675 
L 95.533625 207.514947 
L 99.997625 212.614919 
L 104.461625 216.813735 
L 108.925625 220.506292 
L 113.389625 223.775534 
L 117.853625 226.557388 
L 122.317625 229.036233 
L 126.781625 231.410113 
L 131.245625 233.423569 
L 135.709625 235.42225 
L 140.173625 237.010655 
L 144.637625 238.59559 
L 149.101625 240.238838 
L 153.565625 241.544486 
L 158.029625 242.878128 
L 162.493625 244.31612 
L 166.957625 245.373861 
L 171.421625 246.480083 
L 175.885625 247.44799 
L 180.349625 248.459303 
L 184.813625 249.392701 
L 189.277625 250.304938 
L 193.741625 251.157494 
L 198.205625 252.0428 
L 202.669625 252.680542 
L 207.133625 253.390627 
L 211.597625 254.20124 
L 216.061625 254.8674 
L 220.525625 255.55046 
L 224.989625 256.204016 
L 229.453625 256.863579 
L 233.917625 257.386005 
L 238.381625 258.006764 
L 242.845625 258.617963 
L 247.309625 258.908368 
L 251.773625 259.553639 
L 256.237625 260.078261 
L 260.701625 260.563335 
L 265.165625 261.067091 
L 269.629625 261.390683 
L 274.093625 261.792885 
L 278.557625 262.290824 
L 283.021625 262.670556 
L 287.485625 262.997841 
L 291.949625 263.422443 
L 296.413625 263.901263 
L 300.877625 264.097702 
L 305.341625 264.677863 
L 309.805625 265.042477 
L 314.269625 265.383039 
L 318.733625 265.793362 
L 323.197625 266.088723 
L 327.661625 266.349187 
L 332.125625 266.619647 
L 336.589625 267.040131 
L 341.053625 267.313871 
L 345.517625 267.599638 
L 349.981625 267.857931 
L 354.445625 268.170393 
L 358.909625 268.551282 
L 363.373625 268.795117 
L 367.837625 269.121564 
L 372.301625 269.517076 
L 376.765625 269.587555 
L 381.229625 269.894282 
L 385.693625 270.277354 
L 390.157625 270.310753 
L 394.621625 270.815914 
L 399.085625 270.893616 
L 403.549625 271.296421 
L 408.013625 271.40528 
L 412.477625 271.753348 
L 416.941625 271.934622 
L 421.405625 272.314567 
L 425.869625 272.527092 
L 430.333625 272.701097 
L 434.797625 272.924916 
L 439.261625 273.147367 
L 443.725625 273.424412 
L 448.189625 273.595738 
L 452.653625 273.679353 
L 457.117625 274.278468 
L 461.581625 274.419651 
L 466.045625 274.451634 
L 470.509625 274.690017 
L 474.973625 274.73602 
L 479.437625 275.042711 
L 483.901625 275.425547 
L 488.365625 275.473002 
L 492.829625 275.688384 
L 497.293625 275.827785 
L 501.757625 276.163969 
L 506.221625 276.132553 
" clip-path="url(#pcb1ffd0da6)" style="fill: none; stroke: #ff00ff; stroke-width: 2; stroke-linecap: square"/>
   </g>
   <g id="line2d_20">
    <path d="M 64.285625 24.477404 
L 68.749625 171.99635 
L 73.213625 198.608331 
L 77.677625 211.577996 
L 82.141625 219.67112 
L 86.605625 225.513207 
L 91.069625 230.141853 
L 95.533625 233.682841 
L 99.997625 236.470655 
L 104.461625 239.104233 
L 108.925625 240.986477 
L 113.389625 242.701834 
L 117.853625 244.282296 
L 122.317625 245.587024 
L 126.781625 246.970162 
L 131.245625 247.955322 
L 135.709625 248.945404 
L 140.173625 249.971374 
L 144.637625 251.025858 
L 149.101625 251.733064 
L 153.565625 252.540349 
L 158.029625 253.093755 
L 162.493625 254.169812 
L 166.957625 254.764584 
L 171.421625 255.433305 
L 175.885625 255.996589 
L 180.349625 256.730833 
L 184.813625 257.281241 
L 189.277625 257.885395 
L 193.741625 258.530099 
L 198.205625 259.133498 
L 202.669625 259.729803 
L 207.133625 260.342371 
L 211.597625 260.787556 
L 216.061625 261.63525 
L 220.525625 261.798869 
L 224.989625 262.450949 
L 229.453625 262.810489 
L 233.917625 263.547636 
L 238.381625 264.01437 
L 242.845625 264.440648 
L 247.309625 264.73863 
L 251.773625 265.401922 
L 256.237625 265.812893 
L 260.701625 266.3234 
L 265.165625 266.769364 
L 269.629625 267.333474 
L 274.093625 267.407377 
L 278.557625 268.171066 
L 283.021625 268.51891 
L 287.485625 268.999428 
L 291.949625 269.596997 
L 296.413625 269.622512 
L 300.877625 270.045332 
L 305.341625 270.456044 
L 309.805625 270.912806 
L 314.269625 271.097833 
L 318.733625 271.761692 
L 323.197625 271.996168 
L 327.661625 272.20834 
L 332.125625 272.314201 
L 336.589625 272.854484 
L 341.053625 273.279003 
L 345.517625 273.504062 
L 349.981625 273.767064 
L 354.445625 274.024754 
L 358.909625 274.268224 
L 363.373625 274.699529 
L 367.837625 274.823306 
L 372.301625 275.220209 
L 376.765625 275.492086 
L 381.229625 275.850221 
L 385.693625 275.996692 
L 390.157625 276.069284 
L 394.621625 276.462482 
L 399.085625 276.488977 
L 403.549625 276.839299 
L 408.013625 277.181761 
L 412.477625 277.430966 
L 416.941625 277.664735 
L 421.405625 277.83514 
L 425.869625 278.050816 
L 430.333625 278.11798 
L 434.797625 278.63054 
L 439.261625 278.759474 
L 443.725625 278.93447 
L 448.189625 279.203998 
L 452.653625 279.434297 
L 457.117625 279.695705 
L 461.581625 279.784843 
L 466.045625 279.856609 
L 470.509625 280.287809 
L 474.973625 280.53987 
L 479.437625 280.560582 
L 483.901625 280.783906 
L 488.365625 280.842938 
L 492.829625 281.153241 
L 497.293625 281.221974 
L 501.757625 281.462965 
L 506.221625 281.620636 
" clip-path="url(#pcb1ffd0da6)" style="fill: none; stroke: #ffff00; stroke-width: 2; stroke-linecap: square"/>
   </g>
   <g id="patch_3">
    <path d="M 64.285625 291.238594 
L 64.285625 14.038594 
" style="fill: none; stroke: #000000; stroke-width: 0.8; stroke-linejoin: miter; stroke-linecap: square"/>
   </g>
   <g id="patch_4">
    <path d="M 510.685625 291.238594 
L 510.685625 14.038594 
" style="fill: none; stroke: #000000; stroke-width: 0.8; stroke-linejoin: miter; stroke-linecap: square"/>
   </g>
   <g id="patch_5">
    <path d="M 64.285625 291.238594 
L 510.685625 291.238594 
" style="fill: none; stroke: #000000; stroke-width: 0.8; stroke-linejoin: miter; stroke-linecap: square"/>
   </g>
   <g id="patch_6">
    <path d="M 64.285625 14.038594 
L 510.685625 14.038594 
" style="fill: none; stroke: #000000; stroke-width: 0.8; stroke-linejoin: miter; stroke-linecap: square"/>
   </g>
   <g id="legend_1">
    <g id="patch_7">
     <path d="M 259.470312 186.962344 
L 498.085625 186.962344 
Q 501.685625 186.962344 501.685625 183.362344 
L 501.685625 26.638594 
Q 501.685625 23.038594 498.085625 23.038594 
L 259.470312 23.038594 
Q 255.870312 23.038594 255.870312 26.638594 
L 255.870312 183.362344 
Q 255.870312 186.962344 259.470312 186.962344 
z
" style="fill: #f1f7f0; opacity: 0.8; stroke: #cccccc; stroke-linejoin: miter"/>
    </g>
    <g id="line2d_21">
     <path d="M 263.070312 37.615781 
L 281.070312 37.615781 
L 299.070312 37.615781 
" style="fill: none; stroke: #000000; stroke-width: 2; stroke-linecap: square"/>
    </g>
    <g id="text_17">
     <!-- Mini-batch size: 200 -->
     <g transform="translate(313.470312 43.915781)scale(0.18 -0.18)">
      <defs>
       <path id="DejaVuSans-4d" d="M 628 4666 
L 1569 4666 
L 2759 1491 
L 3956 4666 
L 4897 4666 
L 4897 0 
L 4281 0 
L 4281 4097 
L 3078 897 
L 2444 897 
L 1241 4097 
L 1241 0 
L 628 0 
L 628 4666 
z
" transform="scale(0.015625)"/>
       <path id="DejaVuSans-69" d="M 603 3500 
L 1178 3500 
L 1178 0 
L 603 0 
L 603 3500 
z
M 603 4863 
L 1178 4863 
L 1178 4134 
L 603 4134 
L 603 4863 
z
" transform="scale(0.015625)"/>
       <path id="DejaVuSans-6e" d="M 3513 2113 
L 3513 0 
L 2938 0 
L 2938 2094 
Q 2938 2591 2744 2837 
Q 2550 3084 2163 3084 
Q 1697 3084 1428 2787 
Q 1159 2491 1159 1978 
L 1159 0 
L 581 0 
L 581 3500 
L 1159 3500 
L 1159 2956 
Q 1366 3272 1645 3428 
Q 1925 3584 2291 3584 
Q 2894 3584 3203 3211 
Q 3513 2838 3513 2113 
z
" transform="scale(0.015625)"/>
       <path id="DejaVuSans-2d" d="M 313 2009 
L 1997 2009 
L 1997 1497 
L 313 1497 
L 313 2009 
z
" transform="scale(0.015625)"/>
       <path id="DejaVuSans-62" d="M 3116 1747 
Q 3116 2381 2855 2742 
Q 2594 3103 2138 3103 
Q 1681 3103 1420 2742 
Q 1159 2381 1159 1747 
Q 1159 1113 1420 752 
Q 1681 391 2138 391 
Q 2594 391 2855 752 
Q 3116 1113 3116 1747 
z
M 1159 2969 
Q 1341 3281 1617 3432 
Q 1894 3584 2278 3584 
Q 2916 3584 3314 3078 
Q 3713 2572 3713 1747 
Q 3713 922 3314 415 
Q 2916 -91 2278 -91 
Q 1894 -91 1617 61 
Q 1341 213 1159 525 
L 1159 0 
L 581 0 
L 581 4863 
L 1159 4863 
L 1159 2969 
z
" transform="scale(0.015625)"/>
       <path id="DejaVuSans-61" d="M 2194 1759 
Q 1497 1759 1228 1600 
Q 959 1441 959 1056 
Q 959 750 1161 570 
Q 1363 391 1709 391 
Q 2188 391 2477 730 
Q 2766 1069 2766 1631 
L 2766 1759 
L 2194 1759 
z
M 3341 1997 
L 3341 0 
L 2766 0 
L 2766 531 
Q 2569 213 2275 61 
Q 1981 -91 1556 -91 
Q 1019 -91 701 211 
Q 384 513 384 1019 
Q 384 1609 779 1909 
Q 1175 2209 1959 2209 
L 2766 2209 
L 2766 2266 
Q 2766 2663 2505 2880 
Q 2244 3097 1772 3097 
Q 1472 3097 1187 3025 
Q 903 2953 641 2809 
L 641 3341 
Q 956 3463 1253 3523 
Q 1550 3584 1831 3584 
Q 2591 3584 2966 3190 
Q 3341 2797 3341 1997 
z
" transform="scale(0.015625)"/>
       <path id="DejaVuSans-74" d="M 1172 4494 
L 1172 3500 
L 2356 3500 
L 2356 3053 
L 1172 3053 
L 1172 1153 
Q 1172 725 1289 603 
Q 1406 481 1766 481 
L 2356 481 
L 2356 0 
L 1766 0 
Q 1100 0 847 248 
Q 594 497 594 1153 
L 594 3053 
L 172 3053 
L 172 3500 
L 594 3500 
L 594 4494 
L 1172 4494 
z
" transform="scale(0.015625)"/>
       <path id="DejaVuSans-63" d="M 3122 3366 
L 3122 2828 
Q 2878 2963 2633 3030 
Q 2388 3097 2138 3097 
Q 1578 3097 1268 2742 
Q 959 2388 959 1747 
Q 959 1106 1268 751 
Q 1578 397 2138 397 
Q 2388 397 2633 464 
Q 2878 531 3122 666 
L 3122 134 
Q 2881 22 2623 -34 
Q 2366 -91 2075 -91 
Q 1284 -91 818 406 
Q 353 903 353 1747 
Q 353 2603 823 3093 
Q 1294 3584 2113 3584 
Q 2378 3584 2631 3529 
Q 2884 3475 3122 3366 
z
" transform="scale(0.015625)"/>
       <path id="DejaVuSans-68" d="M 3513 2113 
L 3513 0 
L 2938 0 
L 2938 2094 
Q 2938 2591 2744 2837 
Q 2550 3084 2163 3084 
Q 1697 3084 1428 2787 
Q 1159 2491 1159 1978 
L 1159 0 
L 581 0 
L 581 4863 
L 1159 4863 
L 1159 2956 
Q 1366 3272 1645 3428 
Q 1925 3584 2291 3584 
Q 2894 3584 3203 3211 
Q 3513 2838 3513 2113 
z
" transform="scale(0.015625)"/>
       <path id="DejaVuSans-20" transform="scale(0.015625)"/>
       <path id="DejaVuSans-73" d="M 2834 3397 
L 2834 2853 
Q 2591 2978 2328 3040 
Q 2066 3103 1784 3103 
Q 1356 3103 1142 2972 
Q 928 2841 928 2578 
Q 928 2378 1081 2264 
Q 1234 2150 1697 2047 
L 1894 2003 
Q 2506 1872 2764 1633 
Q 3022 1394 3022 966 
Q 3022 478 2636 193 
Q 2250 -91 1575 -91 
Q 1294 -91 989 -36 
Q 684 19 347 128 
L 347 722 
Q 666 556 975 473 
Q 1284 391 1588 391 
Q 1994 391 2212 530 
Q 2431 669 2431 922 
Q 2431 1156 2273 1281 
Q 2116 1406 1581 1522 
L 1381 1569 
Q 847 1681 609 1914 
Q 372 2147 372 2553 
Q 372 3047 722 3315 
Q 1072 3584 1716 3584 
Q 2034 3584 2315 3537 
Q 2597 3491 2834 3397 
z
" transform="scale(0.015625)"/>
       <path id="DejaVuSans-7a" d="M 353 3500 
L 3084 3500 
L 3084 2975 
L 922 459 
L 3084 459 
L 3084 0 
L 275 0 
L 275 525 
L 2438 3041 
L 353 3041 
L 353 3500 
z
" transform="scale(0.015625)"/>
       <path id="DejaVuSans-65" d="M 3597 1894 
L 3597 1613 
L 953 1613 
Q 991 1019 1311 708 
Q 1631 397 2203 397 
Q 2534 397 2845 478 
Q 3156 559 3463 722 
L 3463 178 
Q 3153 47 2828 -22 
Q 2503 -91 2169 -91 
Q 1331 -91 842 396 
Q 353 884 353 1716 
Q 353 2575 817 3079 
Q 1281 3584 2069 3584 
Q 2775 3584 3186 3129 
Q 3597 2675 3597 1894 
z
M 3022 2063 
Q 3016 2534 2758 2815 
Q 2500 3097 2075 3097 
Q 1594 3097 1305 2825 
Q 1016 2553 972 2059 
L 3022 2063 
z
" transform="scale(0.015625)"/>
       <path id="DejaVuSans-3a" d="M 750 794 
L 1409 794 
L 1409 0 
L 750 0 
L 750 794 
z
M 750 3309 
L 1409 3309 
L 1409 2516 
L 750 2516 
L 750 3309 
z
" transform="scale(0.015625)"/>
      </defs>
      <use xlink:href="#DejaVuSans-4d"/>
      <use xlink:href="#DejaVuSans-69" x="86.279297"/>
      <use xlink:href="#DejaVuSans-6e" x="114.0625"/>
      <use xlink:href="#DejaVuSans-69" x="177.441406"/>
      <use xlink:href="#DejaVuSans-2d" x="205.224609"/>
      <use xlink:href="#DejaVuSans-62" x="241.308594"/>
      <use xlink:href="#DejaVuSans-61" x="304.785156"/>
      <use xlink:href="#DejaVuSans-74" x="366.064453"/>
      <use xlink:href="#DejaVuSans-63" x="405.273438"/>
      <use xlink:href="#DejaVuSans-68" x="460.253906"/>
      <use xlink:href="#DejaVuSans-20" x="523.632812"/>
      <use xlink:href="#DejaVuSans-73" x="555.419922"/>
      <use xlink:href="#DejaVuSans-69" x="607.519531"/>
      <use xlink:href="#DejaVuSans-7a" x="635.302734"/>
      <use xlink:href="#DejaVuSans-65" x="687.792969"/>
      <use xlink:href="#DejaVuSans-3a" x="749.316406"/>
      <use xlink:href="#DejaVuSans-20" x="783.007812"/>
      <use xlink:href="#DejaVuSans-32" x="814.794922"/>
      <use xlink:href="#DejaVuSans-30" x="878.417969"/>
      <use xlink:href="#DejaVuSans-30" x="942.041016"/>
     </g>
    </g>
    <g id="line2d_22">
     <path d="M 263.070312 64.036406 
L 281.070312 64.036406 
L 299.070312 64.036406 
" style="fill: none; stroke: #0000ff; stroke-width: 2; stroke-linecap: square"/>
    </g>
    <g id="text_18">
     <!-- Mini-batch size: 100 -->
     <g transform="translate(313.470312 70.336406)scale(0.18 -0.18)">
      <use xlink:href="#DejaVuSans-4d"/>
      <use xlink:href="#DejaVuSans-69" x="86.279297"/>
      <use xlink:href="#DejaVuSans-6e" x="114.0625"/>
      <use xlink:href="#DejaVuSans-69" x="177.441406"/>
      <use xlink:href="#DejaVuSans-2d" x="205.224609"/>
      <use xlink:href="#DejaVuSans-62" x="241.308594"/>
      <use xlink:href="#DejaVuSans-61" x="304.785156"/>
      <use xlink:href="#DejaVuSans-74" x="366.064453"/>
      <use xlink:href="#DejaVuSans-63" x="405.273438"/>
      <use xlink:href="#DejaVuSans-68" x="460.253906"/>
      <use xlink:href="#DejaVuSans-20" x="523.632812"/>
      <use xlink:href="#DejaVuSans-73" x="555.419922"/>
      <use xlink:href="#DejaVuSans-69" x="607.519531"/>
      <use xlink:href="#DejaVuSans-7a" x="635.302734"/>
      <use xlink:href="#DejaVuSans-65" x="687.792969"/>
      <use xlink:href="#DejaVuSans-3a" x="749.316406"/>
      <use xlink:href="#DejaVuSans-20" x="783.007812"/>
      <use xlink:href="#DejaVuSans-31" x="814.794922"/>
      <use xlink:href="#DejaVuSans-30" x="878.417969"/>
      <use xlink:href="#DejaVuSans-30" x="942.041016"/>
     </g>
    </g>
    <g id="line2d_23">
     <path d="M 263.070312 90.457031 
L 281.070312 90.457031 
L 299.070312 90.457031 
" style="fill: none; stroke: #ff0000; stroke-width: 2; stroke-linecap: square"/>
    </g>
    <g id="text_19">
     <!-- Mini-batch size: 50 -->
     <g transform="translate(313.470312 96.757031)scale(0.18 -0.18)">
      <use xlink:href="#DejaVuSans-4d"/>
      <use xlink:href="#DejaVuSans-69" x="86.279297"/>
      <use xlink:href="#DejaVuSans-6e" x="114.0625"/>
      <use xlink:href="#DejaVuSans-69" x="177.441406"/>
      <use xlink:href="#DejaVuSans-2d" x="205.224609"/>
      <use xlink:href="#DejaVuSans-62" x="241.308594"/>
      <use xlink:href="#DejaVuSans-61" x="304.785156"/>
      <use xlink:href="#DejaVuSans-74" x="366.064453"/>
      <use xlink:href="#DejaVuSans-63" x="405.273438"/>
      <use xlink:href="#DejaVuSans-68" x="460.253906"/>
      <use xlink:href="#DejaVuSans-20" x="523.632812"/>
      <use xlink:href="#DejaVuSans-73" x="555.419922"/>
      <use xlink:href="#DejaVuSans-69" x="607.519531"/>
      <use xlink:href="#DejaVuSans-7a" x="635.302734"/>
      <use xlink:href="#DejaVuSans-65" x="687.792969"/>
      <use xlink:href="#DejaVuSans-3a" x="749.316406"/>
      <use xlink:href="#DejaVuSans-20" x="783.007812"/>
      <use xlink:href="#DejaVuSans-35" x="814.794922"/>
      <use xlink:href="#DejaVuSans-30" x="878.417969"/>
     </g>
    </g>
    <g id="line2d_24">
     <path d="M 263.070312 116.877656 
L 281.070312 116.877656 
L 299.070312 116.877656 
" style="fill: none; stroke: #008000; stroke-width: 2; stroke-linecap: square"/>
    </g>
    <g id="text_20">
     <!-- Mini-batch size: 20 -->
     <g transform="translate(313.470312 123.177656)scale(0.18 -0.18)">
      <use xlink:href="#DejaVuSans-4d"/>
      <use xlink:href="#DejaVuSans-69" x="86.279297"/>
      <use xlink:href="#DejaVuSans-6e" x="114.0625"/>
      <use xlink:href="#DejaVuSans-69" x="177.441406"/>
      <use xlink:href="#DejaVuSans-2d" x="205.224609"/>
      <use xlink:href="#DejaVuSans-62" x="241.308594"/>
      <use xlink:href="#DejaVuSans-61" x="304.785156"/>
      <use xlink:href="#DejaVuSans-74" x="366.064453"/>
      <use xlink:href="#DejaVuSans-63" x="405.273438"/>
      <use xlink:href="#DejaVuSans-68" x="460.253906"/>
      <use xlink:href="#DejaVuSans-20" x="523.632812"/>
      <use xlink:href="#DejaVuSans-73" x="555.419922"/>
      <use xlink:href="#DejaVuSans-69" x="607.519531"/>
      <use xlink:href="#DejaVuSans-7a" x="635.302734"/>
      <use xlink:href="#DejaVuSans-65" x="687.792969"/>
      <use xlink:href="#DejaVuSans-3a" x="749.316406"/>
      <use xlink:href="#DejaVuSans-20" x="783.007812"/>
      <use xlink:href="#DejaVuSans-32" x="814.794922"/>
      <use xlink:href="#DejaVuSans-30" x="878.417969"/>
     </g>
    </g>
    <g id="line2d_25">
     <path d="M 263.070312 143.298281 
L 281.070312 143.298281 
L 299.070312 143.298281 
" style="fill: none; stroke: #ff00ff; stroke-width: 2; stroke-linecap: square"/>
    </g>
    <g id="text_21">
     <!-- Mini-batch size: 10 -->
     <g transform="translate(313.470312 149.598281)scale(0.18 -0.18)">
      <use xlink:href="#DejaVuSans-4d"/>
      <use xlink:href="#DejaVuSans-69" x="86.279297"/>
      <use xlink:href="#DejaVuSans-6e" x="114.0625"/>
      <use xlink:href="#DejaVuSans-69" x="177.441406"/>
      <use xlink:href="#DejaVuSans-2d" x="205.224609"/>
      <use xlink:href="#DejaVuSans-62" x="241.308594"/>
      <use xlink:href="#DejaVuSans-61" x="304.785156"/>
      <use xlink:href="#DejaVuSans-74" x="366.064453"/>
      <use xlink:href="#DejaVuSans-63" x="405.273438"/>
      <use xlink:href="#DejaVuSans-68" x="460.253906"/>
      <use xlink:href="#DejaVuSans-20" x="523.632812"/>
      <use xlink:href="#DejaVuSans-73" x="555.419922"/>
      <use xlink:href="#DejaVuSans-69" x="607.519531"/>
      <use xlink:href="#DejaVuSans-7a" x="635.302734"/>
      <use xlink:href="#DejaVuSans-65" x="687.792969"/>
      <use xlink:href="#DejaVuSans-3a" x="749.316406"/>
      <use xlink:href="#DejaVuSans-20" x="783.007812"/>
      <use xlink:href="#DejaVuSans-31" x="814.794922"/>
      <use xlink:href="#DejaVuSans-30" x="878.417969"/>
     </g>
    </g>
    <g id="line2d_26">
     <path d="M 263.070312 169.718906 
L 281.070312 169.718906 
L 299.070312 169.718906 
" style="fill: none; stroke: #ffff00; stroke-width: 2; stroke-linecap: square"/>
    </g>
    <g id="text_22">
     <!-- Mini-batch size: 5 -->
     <g transform="translate(313.470312 176.018906)scale(0.18 -0.18)">
      <use xlink:href="#DejaVuSans-4d"/>
      <use xlink:href="#DejaVuSans-69" x="86.279297"/>
      <use xlink:href="#DejaVuSans-6e" x="114.0625"/>
      <use xlink:href="#DejaVuSans-69" x="177.441406"/>
      <use xlink:href="#DejaVuSans-2d" x="205.224609"/>
      <use xlink:href="#DejaVuSans-62" x="241.308594"/>
      <use xlink:href="#DejaVuSans-61" x="304.785156"/>
      <use xlink:href="#DejaVuSans-74" x="366.064453"/>
      <use xlink:href="#DejaVuSans-63" x="405.273438"/>
      <use xlink:href="#DejaVuSans-68" x="460.253906"/>
      <use xlink:href="#DejaVuSans-20" x="523.632812"/>
      <use xlink:href="#DejaVuSans-73" x="555.419922"/>
      <use xlink:href="#DejaVuSans-69" x="607.519531"/>
      <use xlink:href="#DejaVuSans-7a" x="635.302734"/>
      <use xlink:href="#DejaVuSans-65" x="687.792969"/>
      <use xlink:href="#DejaVuSans-3a" x="749.316406"/>
      <use xlink:href="#DejaVuSans-20" x="783.007812"/>
      <use xlink:href="#DejaVuSans-35" x="814.794922"/>
     </g>
    </g>
   </g>
  </g>
 </g>
 <defs>
  <clipPath id="pcb1ffd0da6">
   <rect x="64.285625" y="14.038594" width="446.4" height="277.2"/>
  </clipPath>
 </defs>
</svg>
