<?xml version="1.0" encoding="utf-8" standalone="no"?>
<!DOCTYPE svg PUBLIC "-//W3C//DTD SVG 1.1//EN"
  "http://www.w3.org/Graphics/SVG/1.1/DTD/svg11.dtd">
<svg xmlns:xlink="http://www.w3.org/1999/xlink" width="511.824687pt" height="336.870313pt" viewBox="0 0 511.824687 336.870313" xmlns="http://www.w3.org/2000/svg" version="1.1">
 <metadata>
  <rdf:RDF xmlns:dc="http://purl.org/dc/elements/1.1/" xmlns:cc="http://creativecommons.org/ns#" xmlns:rdf="http://www.w3.org/1999/02/22-rdf-syntax-ns#">
   <cc:Work>
    <dc:type rdf:resource="http://purl.org/dc/dcmitype/StillImage"/>
    <dc:date>2022-12-06T17:21:02.976056</dc:date>
    <dc:format>image/svg+xml</dc:format>
    <dc:creator>
     <cc:Agent>
      <dc:title>Matplotlib v3.5.2, https://matplotlib.org/</dc:title>
     </cc:Agent>
    </dc:creator>
   </cc:Work>
  </rdf:RDF>
 </metadata>
 <defs>
  <style type="text/css">*{stroke-linejoin: round; stroke-linecap: butt}</style>
 </defs>
 <g id="figure_1">
  <g id="patch_1">
   <path d="M 0 336.870313 
L 511.824687 336.870313 
L 511.824687 0 
L 0 0 
z
" style="fill: #ffffff"/>
  </g>
  <g id="axes_1">
   <g id="patch_2">
    <path d="M 58.224688 284.4 
L 504.624687 284.4 
L 504.624687 7.2 
L 58.224688 7.2 
z
" style="fill: #f1f7f0"/>
   </g>
   <g id="matplotlib.axis_1">
    <g id="xtick_1">
     <g id="line2d_1">
      <defs>
       <path id="m90399f58e0" d="M 0 0 
L 0 3.5 
" style="stroke: #000000; stroke-width: 0.8"/>
      </defs>
      <g>
       <use xlink:href="#m90399f58e0" x="78.515597" y="284.4" style="stroke: #000000; stroke-width: 0.8"/>
      </g>
     </g>
     <g id="text_1">
      <!-- 0 -->
      <g transform="translate(72.789347 305.077188)scale(0.18 -0.18)">
       <defs>
        <path id="DejaVuSans-30" d="M 2034 4250 
Q 1547 4250 1301 3770 
Q 1056 3291 1056 2328 
Q 1056 1369 1301 889 
Q 1547 409 2034 409 
Q 2525 409 2770 889 
Q 3016 1369 3016 2328 
Q 3016 3291 2770 3770 
Q 2525 4250 2034 4250 
z
M 2034 4750 
Q 2819 4750 3233 4129 
Q 3647 3509 3647 2328 
Q 3647 1150 3233 529 
Q 2819 -91 2034 -91 
Q 1250 -91 836 529 
Q 422 1150 422 2328 
Q 422 3509 836 4129 
Q 1250 4750 2034 4750 
z
" transform="scale(0.015625)"/>
       </defs>
       <use xlink:href="#DejaVuSans-30"/>
      </g>
     </g>
    </g>
    <g id="xtick_2">
     <g id="line2d_2">
      <g>
       <use xlink:href="#m90399f58e0" x="146.15196" y="284.4" style="stroke: #000000; stroke-width: 0.8"/>
      </g>
     </g>
     <g id="text_2">
      <!-- 5 -->
      <g transform="translate(140.42571 305.077188)scale(0.18 -0.18)">
       <defs>
        <path id="DejaVuSans-35" d="M 691 4666 
L 3169 4666 
L 3169 4134 
L 1269 4134 
L 1269 2991 
Q 1406 3038 1543 3061 
Q 1681 3084 1819 3084 
Q 2600 3084 3056 2656 
Q 3513 2228 3513 1497 
Q 3513 744 3044 326 
Q 2575 -91 1722 -91 
Q 1428 -91 1123 -41 
Q 819 9 494 109 
L 494 744 
Q 775 591 1075 516 
Q 1375 441 1709 441 
Q 2250 441 2565 725 
Q 2881 1009 2881 1497 
Q 2881 1984 2565 2268 
Q 2250 2553 1709 2553 
Q 1456 2553 1204 2497 
Q 953 2441 691 2322 
L 691 4666 
z
" transform="scale(0.015625)"/>
       </defs>
       <use xlink:href="#DejaVuSans-35"/>
      </g>
     </g>
    </g>
    <g id="xtick_3">
     <g id="line2d_3">
      <g>
       <use xlink:href="#m90399f58e0" x="213.788324" y="284.4" style="stroke: #000000; stroke-width: 0.8"/>
      </g>
     </g>
     <g id="text_3">
      <!-- 10 -->
      <g transform="translate(202.335824 305.077188)scale(0.18 -0.18)">
       <defs>
        <path id="DejaVuSans-31" d="M 794 531 
L 1825 531 
L 1825 4091 
L 703 3866 
L 703 4441 
L 1819 4666 
L 2450 4666 
L 2450 531 
L 3481 531 
L 3481 0 
L 794 0 
L 794 531 
z
" transform="scale(0.015625)"/>
       </defs>
       <use xlink:href="#DejaVuSans-31"/>
       <use xlink:href="#DejaVuSans-30" x="63.623047"/>
      </g>
     </g>
    </g>
    <g id="xtick_4">
     <g id="line2d_4">
      <g>
       <use xlink:href="#m90399f58e0" x="281.424688" y="284.4" style="stroke: #000000; stroke-width: 0.8"/>
      </g>
     </g>
     <g id="text_4">
      <!-- 15 -->
      <g transform="translate(269.972188 305.077188)scale(0.18 -0.18)">
       <use xlink:href="#DejaVuSans-31"/>
       <use xlink:href="#DejaVuSans-35" x="63.623047"/>
      </g>
     </g>
    </g>
    <g id="xtick_5">
     <g id="line2d_5">
      <g>
       <use xlink:href="#m90399f58e0" x="349.061051" y="284.4" style="stroke: #000000; stroke-width: 0.8"/>
      </g>
     </g>
     <g id="text_5">
      <!-- 20 -->
      <g transform="translate(337.608551 305.077188)scale(0.18 -0.18)">
       <defs>
        <path id="DejaVuSans-32" d="M 1228 531 
L 3431 531 
L 3431 0 
L 469 0 
L 469 531 
Q 828 903 1448 1529 
Q 2069 2156 2228 2338 
Q 2531 2678 2651 2914 
Q 2772 3150 2772 3378 
Q 2772 3750 2511 3984 
Q 2250 4219 1831 4219 
Q 1534 4219 1204 4116 
Q 875 4013 500 3803 
L 500 4441 
Q 881 4594 1212 4672 
Q 1544 4750 1819 4750 
Q 2544 4750 2975 4387 
Q 3406 4025 3406 3419 
Q 3406 3131 3298 2873 
Q 3191 2616 2906 2266 
Q 2828 2175 2409 1742 
Q 1991 1309 1228 531 
z
" transform="scale(0.015625)"/>
       </defs>
       <use xlink:href="#DejaVuSans-32"/>
       <use xlink:href="#DejaVuSans-30" x="63.623047"/>
      </g>
     </g>
    </g>
    <g id="xtick_6">
     <g id="line2d_6">
      <g>
       <use xlink:href="#m90399f58e0" x="416.697415" y="284.4" style="stroke: #000000; stroke-width: 0.8"/>
      </g>
     </g>
     <g id="text_6">
      <!-- 25 -->
      <g transform="translate(405.244915 305.077188)scale(0.18 -0.18)">
       <use xlink:href="#DejaVuSans-32"/>
       <use xlink:href="#DejaVuSans-35" x="63.623047"/>
      </g>
     </g>
    </g>
    <g id="xtick_7">
     <g id="line2d_7">
      <g>
       <use xlink:href="#m90399f58e0" x="484.333778" y="284.4" style="stroke: #000000; stroke-width: 0.8"/>
      </g>
     </g>
     <g id="text_7">
      <!-- 30 -->
      <g transform="translate(472.881278 305.077188)scale(0.18 -0.18)">
       <defs>
        <path id="DejaVuSans-33" d="M 2597 2516 
Q 3050 2419 3304 2112 
Q 3559 1806 3559 1356 
Q 3559 666 3084 287 
Q 2609 -91 1734 -91 
Q 1441 -91 1130 -33 
Q 819 25 488 141 
L 488 750 
Q 750 597 1062 519 
Q 1375 441 1716 441 
Q 2309 441 2620 675 
Q 2931 909 2931 1356 
Q 2931 1769 2642 2001 
Q 2353 2234 1838 2234 
L 1294 2234 
L 1294 2753 
L 1863 2753 
Q 2328 2753 2575 2939 
Q 2822 3125 2822 3475 
Q 2822 3834 2567 4026 
Q 2313 4219 1838 4219 
Q 1578 4219 1281 4162 
Q 984 4106 628 3988 
L 628 4550 
Q 988 4650 1302 4700 
Q 1616 4750 1894 4750 
Q 2613 4750 3031 4423 
Q 3450 4097 3450 3541 
Q 3450 3153 3228 2886 
Q 3006 2619 2597 2516 
z
" transform="scale(0.015625)"/>
       </defs>
       <use xlink:href="#DejaVuSans-33"/>
       <use xlink:href="#DejaVuSans-30" x="63.623047"/>
      </g>
     </g>
    </g>
    <g id="text_8">
     <!-- $\lambda$ -->
     <g transform="translate(276.024688 326.177188)scale(0.18 -0.18)">
      <defs>
       <path id="DejaVuSans-Oblique-3bb" d="M 2350 4316 
L 3125 0 
L 2516 0 
L 2038 2588 
L 328 0 
L -281 0 
L 1903 3356 
L 1794 3975 
Q 1725 4369 1391 4369 
L 1091 4369 
L 1184 4863 
L 1550 4856 
Q 2253 4847 2350 4316 
z
" transform="scale(0.015625)"/>
      </defs>
      <use xlink:href="#DejaVuSans-Oblique-3bb" transform="translate(0 0.015625)"/>
     </g>
    </g>
   </g>
   <g id="matplotlib.axis_2">
    <g id="ytick_1">
     <g id="line2d_8">
      <defs>
       <path id="m8e2c713a06" d="M 0 0 
L -3.5 0 
" style="stroke: #000000; stroke-width: 0.8"/>
      </defs>
      <g>
       <use xlink:href="#m8e2c713a06" x="58.224688" y="271.908582" style="stroke: #000000; stroke-width: 0.8"/>
      </g>
     </g>
     <g id="text_9">
      <!-- 0 -->
      <g transform="translate(39.772188 278.747176)scale(0.18 -0.18)">
       <use xlink:href="#DejaVuSans-30"/>
      </g>
     </g>
    </g>
    <g id="ytick_2">
     <g id="line2d_9">
      <g>
       <use xlink:href="#m8e2c713a06" x="58.224688" y="212.664628" style="stroke: #000000; stroke-width: 0.8"/>
      </g>
     </g>
     <g id="text_10">
      <!-- 20 -->
      <g transform="translate(28.319688 219.503222)scale(0.18 -0.18)">
       <use xlink:href="#DejaVuSans-32"/>
       <use xlink:href="#DejaVuSans-30" x="63.623047"/>
      </g>
     </g>
    </g>
    <g id="ytick_3">
     <g id="line2d_10">
      <g>
       <use xlink:href="#m8e2c713a06" x="58.224688" y="153.420673" style="stroke: #000000; stroke-width: 0.8"/>
      </g>
     </g>
     <g id="text_11">
      <!-- 40 -->
      <g transform="translate(28.319688 160.259267)scale(0.18 -0.18)">
       <defs>
        <path id="DejaVuSans-34" d="M 2419 4116 
L 825 1625 
L 2419 1625 
L 2419 4116 
z
M 2253 4666 
L 3047 4666 
L 3047 1625 
L 3713 1625 
L 3713 1100 
L 3047 1100 
L 3047 0 
L 2419 0 
L 2419 1100 
L 313 1100 
L 313 1709 
L 2253 4666 
z
" transform="scale(0.015625)"/>
       </defs>
       <use xlink:href="#DejaVuSans-34"/>
       <use xlink:href="#DejaVuSans-30" x="63.623047"/>
      </g>
     </g>
    </g>
    <g id="ytick_4">
     <g id="line2d_11">
      <g>
       <use xlink:href="#m8e2c713a06" x="58.224688" y="94.176719" style="stroke: #000000; stroke-width: 0.8"/>
      </g>
     </g>
     <g id="text_12">
      <!-- 60 -->
      <g transform="translate(28.319688 101.015313)scale(0.18 -0.18)">
       <defs>
        <path id="DejaVuSans-36" d="M 2113 2584 
Q 1688 2584 1439 2293 
Q 1191 2003 1191 1497 
Q 1191 994 1439 701 
Q 1688 409 2113 409 
Q 2538 409 2786 701 
Q 3034 994 3034 1497 
Q 3034 2003 2786 2293 
Q 2538 2584 2113 2584 
z
M 3366 4563 
L 3366 3988 
Q 3128 4100 2886 4159 
Q 2644 4219 2406 4219 
Q 1781 4219 1451 3797 
Q 1122 3375 1075 2522 
Q 1259 2794 1537 2939 
Q 1816 3084 2150 3084 
Q 2853 3084 3261 2657 
Q 3669 2231 3669 1497 
Q 3669 778 3244 343 
Q 2819 -91 2113 -91 
Q 1303 -91 875 529 
Q 447 1150 447 2328 
Q 447 3434 972 4092 
Q 1497 4750 2381 4750 
Q 2619 4750 2861 4703 
Q 3103 4656 3366 4563 
z
" transform="scale(0.015625)"/>
       </defs>
       <use xlink:href="#DejaVuSans-36"/>
       <use xlink:href="#DejaVuSans-30" x="63.623047"/>
      </g>
     </g>
    </g>
    <g id="ytick_5">
     <g id="line2d_12">
      <g>
       <use xlink:href="#m8e2c713a06" x="58.224688" y="34.932764" style="stroke: #000000; stroke-width: 0.8"/>
      </g>
     </g>
     <g id="text_13">
      <!-- 80 -->
      <g transform="translate(28.319688 41.771358)scale(0.18 -0.18)">
       <defs>
        <path id="DejaVuSans-38" d="M 2034 2216 
Q 1584 2216 1326 1975 
Q 1069 1734 1069 1313 
Q 1069 891 1326 650 
Q 1584 409 2034 409 
Q 2484 409 2743 651 
Q 3003 894 3003 1313 
Q 3003 1734 2745 1975 
Q 2488 2216 2034 2216 
z
M 1403 2484 
Q 997 2584 770 2862 
Q 544 3141 544 3541 
Q 544 4100 942 4425 
Q 1341 4750 2034 4750 
Q 2731 4750 3128 4425 
Q 3525 4100 3525 3541 
Q 3525 3141 3298 2862 
Q 3072 2584 2669 2484 
Q 3125 2378 3379 2068 
Q 3634 1759 3634 1313 
Q 3634 634 3220 271 
Q 2806 -91 2034 -91 
Q 1263 -91 848 271 
Q 434 634 434 1313 
Q 434 1759 690 2068 
Q 947 2378 1403 2484 
z
M 1172 3481 
Q 1172 3119 1398 2916 
Q 1625 2713 2034 2713 
Q 2441 2713 2670 2916 
Q 2900 3119 2900 3481 
Q 2900 3844 2670 4047 
Q 2441 4250 2034 4250 
Q 1625 4250 1398 4047 
Q 1172 3844 1172 3481 
z
" transform="scale(0.015625)"/>
       </defs>
       <use xlink:href="#DejaVuSans-38"/>
       <use xlink:href="#DejaVuSans-30" x="63.623047"/>
      </g>
     </g>
    </g>
    <g id="text_14">
     <!-- Cost Function (MSE) -->
     <g transform="translate(20.826562 238.545)rotate(-90)scale(0.18 -0.18)">
      <defs>
       <path id="Montserrat-Medium-43" d="M 2675 -51 
Q 2003 -51 1462 246 
Q 922 544 614 1065 
Q 307 1587 307 2240 
Q 307 2893 614 3414 
Q 922 3936 1466 4233 
Q 2010 4531 2682 4531 
Q 3206 4531 3641 4355 
Q 4077 4179 4384 3834 
L 3968 3430 
Q 3462 3962 2707 3962 
Q 2208 3962 1805 3738 
Q 1402 3514 1174 3120 
Q 947 2726 947 2240 
Q 947 1754 1174 1360 
Q 1402 966 1805 742 
Q 2208 518 2707 518 
Q 3456 518 3968 1056 
L 4384 653 
Q 4077 307 3638 128 
Q 3200 -51 2675 -51 
z
" transform="scale(0.015625)"/>
       <path id="Montserrat-Medium-6f" d="M 2035 -38 
Q 1530 -38 1126 186 
Q 723 410 496 803 
Q 269 1197 269 1696 
Q 269 2195 496 2588 
Q 723 2982 1126 3203 
Q 1530 3424 2035 3424 
Q 2541 3424 2941 3203 
Q 3341 2982 3568 2588 
Q 3795 2195 3795 1696 
Q 3795 1197 3568 803 
Q 3341 410 2941 186 
Q 2541 -38 2035 -38 
z
M 2035 499 
Q 2362 499 2621 649 
Q 2880 800 3027 1072 
Q 3174 1344 3174 1696 
Q 3174 2048 3027 2320 
Q 2880 2592 2621 2739 
Q 2362 2886 2035 2886 
Q 1709 2886 1449 2739 
Q 1190 2592 1040 2320 
Q 890 2048 890 1696 
Q 890 1344 1040 1072 
Q 1190 800 1449 649 
Q 1709 499 2035 499 
z
" transform="scale(0.015625)"/>
       <path id="Montserrat-Medium-73" d="M 1555 -38 
Q 1139 -38 755 74 
Q 371 186 154 358 
L 410 845 
Q 634 685 954 589 
Q 1274 493 1600 493 
Q 2406 493 2406 954 
Q 2406 1107 2297 1196 
Q 2189 1286 2025 1328 
Q 1862 1370 1562 1421 
Q 1152 1485 893 1568 
Q 634 1651 448 1849 
Q 262 2048 262 2406 
Q 262 2867 646 3145 
Q 1030 3424 1677 3424 
Q 2016 3424 2355 3341 
Q 2694 3258 2912 3117 
L 2650 2630 
Q 2234 2899 1670 2899 
Q 1280 2899 1075 2771 
Q 870 2643 870 2432 
Q 870 2266 985 2170 
Q 1101 2074 1270 2029 
Q 1440 1984 1747 1926 
Q 2157 1856 2409 1776 
Q 2662 1696 2841 1504 
Q 3021 1312 3021 966 
Q 3021 506 2627 234 
Q 2234 -38 1555 -38 
z
" transform="scale(0.015625)"/>
       <path id="Montserrat-Medium-74" d="M 2490 198 
Q 2355 83 2156 22 
Q 1958 -38 1747 -38 
Q 1235 -38 953 237 
Q 672 512 672 1024 
L 672 2886 
L 96 2886 
L 96 3392 
L 672 3392 
L 672 4134 
L 1286 4134 
L 1286 3392 
L 2259 3392 
L 2259 2886 
L 1286 2886 
L 1286 1050 
Q 1286 774 1424 627 
Q 1562 480 1818 480 
Q 2099 480 2298 640 
L 2490 198 
z
" transform="scale(0.015625)"/>
       <path id="Montserrat-Medium-20" transform="scale(0.015625)"/>
       <path id="Montserrat-Medium-46" d="M 1312 3923 
L 1312 2362 
L 3558 2362 
L 3558 1811 
L 1312 1811 
L 1312 0 
L 672 0 
L 672 4480 
L 3834 4480 
L 3834 3923 
L 1312 3923 
z
" transform="scale(0.015625)"/>
       <path id="Montserrat-Medium-75" d="M 3744 3392 
L 3744 0 
L 3162 0 
L 3162 512 
Q 2976 250 2672 106 
Q 2368 -38 2010 -38 
Q 1331 -38 940 336 
Q 550 710 550 1440 
L 550 3392 
L 1165 3392 
L 1165 1510 
Q 1165 1018 1401 765 
Q 1638 512 2080 512 
Q 2566 512 2848 806 
Q 3130 1101 3130 1638 
L 3130 3392 
L 3744 3392 
z
" transform="scale(0.015625)"/>
       <path id="Montserrat-Medium-6e" d="M 2394 3424 
Q 3040 3424 3421 3049 
Q 3802 2675 3802 1952 
L 3802 0 
L 3187 0 
L 3187 1882 
Q 3187 2374 2950 2624 
Q 2714 2874 2272 2874 
Q 1773 2874 1485 2582 
Q 1197 2291 1197 1747 
L 1197 0 
L 582 0 
L 582 3392 
L 1171 3392 
L 1171 2880 
Q 1357 3142 1673 3283 
Q 1990 3424 2394 3424 
z
" transform="scale(0.015625)"/>
       <path id="Montserrat-Medium-63" d="M 2061 -38 
Q 1542 -38 1136 186 
Q 730 410 499 803 
Q 269 1197 269 1696 
Q 269 2195 499 2588 
Q 730 2982 1136 3203 
Q 1542 3424 2061 3424 
Q 2522 3424 2883 3238 
Q 3245 3053 3443 2701 
L 2976 2400 
Q 2816 2643 2579 2764 
Q 2342 2886 2054 2886 
Q 1722 2886 1456 2739 
Q 1190 2592 1040 2320 
Q 890 2048 890 1696 
Q 890 1338 1040 1066 
Q 1190 794 1456 646 
Q 1722 499 2054 499 
Q 2342 499 2579 620 
Q 2816 742 2976 986 
L 3443 691 
Q 3245 339 2883 150 
Q 2522 -38 2061 -38 
z
" transform="scale(0.015625)"/>
       <path id="Montserrat-Medium-69" d="M 582 3392 
L 1197 3392 
L 1197 0 
L 582 0 
L 582 3392 
z
M 890 4045 
Q 710 4045 592 4160 
Q 474 4275 474 4442 
Q 474 4608 592 4726 
Q 710 4845 890 4845 
Q 1069 4845 1187 4733 
Q 1306 4621 1306 4454 
Q 1306 4282 1187 4163 
Q 1069 4045 890 4045 
z
" transform="scale(0.015625)"/>
       <path id="Montserrat-Medium-28" d="M 1370 -1242 
Q 1005 -653 806 112 
Q 608 877 608 1754 
Q 608 2630 806 3401 
Q 1005 4173 1370 4749 
L 1952 4749 
Q 1568 4077 1389 3341 
Q 1210 2605 1210 1754 
Q 1210 902 1389 166 
Q 1568 -570 1952 -1242 
L 1370 -1242 
z
" transform="scale(0.015625)"/>
       <path id="Montserrat-Medium-4d" d="M 4826 0 
L 4819 3264 
L 3200 544 
L 2906 544 
L 1286 3245 
L 1286 0 
L 672 0 
L 672 4480 
L 1197 4480 
L 3066 1331 
L 4909 4480 
L 5434 4480 
L 5440 0 
L 4826 0 
z
" transform="scale(0.015625)"/>
       <path id="Montserrat-Medium-53" d="M 1978 -51 
Q 1472 -51 1001 105 
Q 531 262 262 512 
L 499 1011 
Q 755 781 1155 637 
Q 1555 493 1978 493 
Q 2534 493 2809 681 
Q 3085 870 3085 1184 
Q 3085 1414 2934 1558 
Q 2784 1702 2563 1779 
Q 2342 1856 1939 1952 
Q 1434 2074 1123 2195 
Q 813 2317 592 2569 
Q 371 2822 371 3251 
Q 371 3610 560 3898 
Q 749 4186 1133 4358 
Q 1517 4531 2086 4531 
Q 2483 4531 2867 4428 
Q 3251 4326 3526 4134 
L 3315 3622 
Q 3034 3802 2714 3894 
Q 2394 3987 2086 3987 
Q 1542 3987 1270 3788 
Q 998 3590 998 3277 
Q 998 3046 1152 2902 
Q 1306 2758 1533 2678 
Q 1760 2598 2150 2509 
Q 2656 2387 2963 2265 
Q 3270 2144 3491 1894 
Q 3712 1645 3712 1222 
Q 3712 870 3520 579 
Q 3328 288 2937 118 
Q 2547 -51 1978 -51 
z
" transform="scale(0.015625)"/>
       <path id="Montserrat-Medium-45" d="M 3923 557 
L 3923 0 
L 672 0 
L 672 4480 
L 3834 4480 
L 3834 3923 
L 1312 3923 
L 1312 2547 
L 3558 2547 
L 3558 2003 
L 1312 2003 
L 1312 557 
L 3923 557 
z
" transform="scale(0.015625)"/>
       <path id="Montserrat-Medium-29" d="M 205 -1242 
Q 589 -570 771 166 
Q 954 902 954 1754 
Q 954 2605 771 3341 
Q 589 4077 205 4749 
L 787 4749 
Q 1158 4173 1356 3405 
Q 1555 2637 1555 1754 
Q 1555 877 1356 109 
Q 1158 -659 787 -1242 
L 205 -1242 
z
" transform="scale(0.015625)"/>
      </defs>
      <use xlink:href="#Montserrat-Medium-43"/>
      <use xlink:href="#Montserrat-Medium-6f" x="72.299988"/>
      <use xlink:href="#Montserrat-Medium-73" x="135.799973"/>
      <use xlink:href="#Montserrat-Medium-74" x="185.899963"/>
      <use xlink:href="#Montserrat-Medium-20" x="227.299957"/>
      <use xlink:href="#Montserrat-Medium-46" x="254.199951"/>
      <use xlink:href="#Montserrat-Medium-75" x="317.699936"/>
      <use xlink:href="#Montserrat-Medium-6e" x="385.399918"/>
      <use xlink:href="#Montserrat-Medium-63" x="453.499908"/>
      <use xlink:href="#Montserrat-Medium-74" x="510.599899"/>
      <use xlink:href="#Montserrat-Medium-69" x="551.999893"/>
      <use xlink:href="#Montserrat-Medium-6f" x="579.899887"/>
      <use xlink:href="#Montserrat-Medium-6e" x="643.399872"/>
      <use xlink:href="#Montserrat-Medium-20" x="711.499863"/>
      <use xlink:href="#Montserrat-Medium-28" x="738.399857"/>
      <use xlink:href="#Montserrat-Medium-4d" x="772.099854"/>
      <use xlink:href="#Montserrat-Medium-53" x="867.599838"/>
      <use xlink:href="#Montserrat-Medium-45" x="929.699829"/>
      <use xlink:href="#Montserrat-Medium-29" x="996.699814"/>
     </g>
    </g>
   </g>
   <g id="line2d_13">
    <path d="M 78.515597 271.8 
L 85.279233 249.49274 
L 92.042869 238.652313 
L 98.806506 224.751688 
L 105.570142 219.493116 
L 112.333778 207.109202 
L 119.097415 198.551746 
L 125.861051 199.536481 
L 132.624687 190.32601 
L 139.388324 186.407949 
L 146.15196 177.349327 
L 152.915597 177.66656 
L 159.679233 171.727373 
L 166.442869 164.376977 
L 173.206506 167.637446 
L 179.970142 157.193389 
L 186.733778 155.037348 
L 193.497415 153.351134 
L 200.261051 145.360509 
L 207.024687 140.729736 
L 213.788324 140.727024 
L 220.55196 134.366283 
L 227.315597 130.26265 
L 234.079233 125.809873 
L 240.842869 122.201683 
L 247.606506 122.627169 
L 254.370142 118.613279 
L 261.133778 121.248843 
L 267.897415 113.703727 
L 274.661051 114.768301 
L 281.424688 103.311819 
L 288.188324 103.849264 
L 294.95196 95.196104 
L 301.715597 105.0333 
L 308.479233 100.492023 
L 315.242869 97.676475 
L 322.006506 81.802574 
L 328.770142 19.800384 
L 335.533778 73.516185 
L 342.297415 85.576227 
L 349.061051 19.800384 
L 355.824687 19.800249 
L 362.588324 19.800429 
L 369.35196 19.800362 
L 376.115597 19.800362 
L 382.879233 19.800384 
L 389.642869 19.800362 
L 396.406506 19.800362 
L 403.170142 19.8 
L 409.933778 19.800384 
L 416.697415 19.800362 
L 423.461051 19.800384 
L 430.224687 19.8 
L 436.988324 19.800362 
L 443.75196 19.800316 
L 450.515597 19.800339 
L 457.279233 19.800362 
L 464.042869 19.800339 
L 470.806506 19.800362 
L 477.570142 19.800362 
L 484.333778 19.800384 
" clip-path="url(#p4c2f38cecc)" style="fill: none; stroke: #000000; stroke-width: 3; stroke-linecap: square"/>
   </g>
   <g id="line2d_14">
    <path d="M 78.515597 163.685616 
L 85.279233 224.837923 
L 92.042869 206.111778 
L 98.806506 201.556658 
L 105.570142 195.212584 
L 112.333778 187.213145 
L 119.097415 180.361617 
L 125.861051 181.526918 
L 132.624687 173.081223 
L 139.388324 168.751728 
L 146.15196 164.109757 
L 152.915597 163.696542 
L 159.679233 160.832213 
L 166.442869 156.049005 
L 173.206506 158.638001 
L 179.970142 150.174961 
L 186.733778 148.436383 
L 193.497415 147.445044 
L 200.261051 141.372858 
L 207.024687 137.442542 
L 213.788324 137.394879 
L 220.55196 132.371017 
L 227.315597 129.153713 
L 234.079233 126.808252 
L 240.842869 123.766107 
L 247.606506 124.320423 
L 254.370142 120.646513 
L 261.133778 123.048926 
L 267.897415 116.513455 
L 274.661051 117.525473 
L 281.424688 109.953464 
L 288.188324 110.381933 
L 294.95196 102.650188 
L 301.715597 111.4069 
L 308.479233 107.435589 
L 315.242869 104.776511 
L 322.006506 90.622305 
L 328.770142 29.300765 
L 335.533778 83.10023 
L 342.297415 94.053268 
L 349.061051 29.298663 
L 355.824687 29.273555 
L 362.588324 29.301352 
L 369.35196 29.298866 
L 376.115597 29.299205 
L 382.879233 29.298798 
L 389.642869 29.298708 
L 396.406506 29.295341 
L 403.170142 29.323771 
L 409.933778 29.298369 
L 416.697415 29.295996 
L 423.461051 29.298889 
L 430.224687 29.282165 
L 436.988324 29.293962 
L 443.75196 29.309217 
L 450.515597 29.315161 
L 457.279233 29.298911 
L 464.042869 29.299657 
L 470.806506 29.29638 
L 477.570142 29.298911 
L 484.333778 29.299205 
" clip-path="url(#p4c2f38cecc)" style="fill: none; stroke-dasharray: 7.4,3.2; stroke-dashoffset: 0; stroke: #0000ff; stroke-width: 2"/>
   </g>
   <g id="patch_3">
    <path d="M 58.224688 284.4 
L 58.224688 7.2 
" style="fill: none; stroke: #000000; stroke-width: 0.8; stroke-linejoin: miter; stroke-linecap: square"/>
   </g>
   <g id="patch_4">
    <path d="M 504.624687 284.4 
L 504.624687 7.2 
" style="fill: none; stroke: #000000; stroke-width: 0.8; stroke-linejoin: miter; stroke-linecap: square"/>
   </g>
   <g id="patch_5">
    <path d="M 58.224688 284.4 
L 504.624688 284.4 
" style="fill: none; stroke: #000000; stroke-width: 0.8; stroke-linejoin: miter; stroke-linecap: square"/>
   </g>
   <g id="patch_6">
    <path d="M 58.224688 7.2 
L 504.624688 7.2 
" style="fill: none; stroke: #000000; stroke-width: 0.8; stroke-linejoin: miter; stroke-linecap: square"/>
   </g>
   <g id="legend_1">
    <g id="patch_7">
     <path d="M 70.824687 74.44125 
L 243.489688 74.44125 
Q 247.089688 74.44125 247.089688 70.84125 
L 247.089688 19.8 
Q 247.089688 16.2 243.489688 16.2 
L 70.824687 16.2 
Q 67.224688 16.2 67.224688 19.8 
L 67.224688 70.84125 
Q 67.224688 74.44125 70.824687 74.44125 
z
" style="fill: #f1f7f0; opacity: 0.8; stroke: #cccccc; stroke-linejoin: miter"/>
    </g>
    <g id="line2d_15">
     <path d="M 74.424688 30.777187 
L 92.424688 30.777187 
L 110.424688 30.777187 
" style="fill: none; stroke: #000000; stroke-width: 3; stroke-linecap: square"/>
    </g>
    <g id="text_15">
     <!-- Training MSE -->
     <g transform="translate(124.824688 37.077187)scale(0.18 -0.18)">
      <defs>
       <path id="DejaVuSans-54" d="M -19 4666 
L 3928 4666 
L 3928 4134 
L 2272 4134 
L 2272 0 
L 1638 0 
L 1638 4134 
L -19 4134 
L -19 4666 
z
" transform="scale(0.015625)"/>
       <path id="DejaVuSans-72" d="M 2631 2963 
Q 2534 3019 2420 3045 
Q 2306 3072 2169 3072 
Q 1681 3072 1420 2755 
Q 1159 2438 1159 1844 
L 1159 0 
L 581 0 
L 581 3500 
L 1159 3500 
L 1159 2956 
Q 1341 3275 1631 3429 
Q 1922 3584 2338 3584 
Q 2397 3584 2469 3576 
Q 2541 3569 2628 3553 
L 2631 2963 
z
" transform="scale(0.015625)"/>
       <path id="DejaVuSans-61" d="M 2194 1759 
Q 1497 1759 1228 1600 
Q 959 1441 959 1056 
Q 959 750 1161 570 
Q 1363 391 1709 391 
Q 2188 391 2477 730 
Q 2766 1069 2766 1631 
L 2766 1759 
L 2194 1759 
z
M 3341 1997 
L 3341 0 
L 2766 0 
L 2766 531 
Q 2569 213 2275 61 
Q 1981 -91 1556 -91 
Q 1019 -91 701 211 
Q 384 513 384 1019 
Q 384 1609 779 1909 
Q 1175 2209 1959 2209 
L 2766 2209 
L 2766 2266 
Q 2766 2663 2505 2880 
Q 2244 3097 1772 3097 
Q 1472 3097 1187 3025 
Q 903 2953 641 2809 
L 641 3341 
Q 956 3463 1253 3523 
Q 1550 3584 1831 3584 
Q 2591 3584 2966 3190 
Q 3341 2797 3341 1997 
z
" transform="scale(0.015625)"/>
       <path id="DejaVuSans-69" d="M 603 3500 
L 1178 3500 
L 1178 0 
L 603 0 
L 603 3500 
z
M 603 4863 
L 1178 4863 
L 1178 4134 
L 603 4134 
L 603 4863 
z
" transform="scale(0.015625)"/>
       <path id="DejaVuSans-6e" d="M 3513 2113 
L 3513 0 
L 2938 0 
L 2938 2094 
Q 2938 2591 2744 2837 
Q 2550 3084 2163 3084 
Q 1697 3084 1428 2787 
Q 1159 2491 1159 1978 
L 1159 0 
L 581 0 
L 581 3500 
L 1159 3500 
L 1159 2956 
Q 1366 3272 1645 3428 
Q 1925 3584 2291 3584 
Q 2894 3584 3203 3211 
Q 3513 2838 3513 2113 
z
" transform="scale(0.015625)"/>
       <path id="DejaVuSans-67" d="M 2906 1791 
Q 2906 2416 2648 2759 
Q 2391 3103 1925 3103 
Q 1463 3103 1205 2759 
Q 947 2416 947 1791 
Q 947 1169 1205 825 
Q 1463 481 1925 481 
Q 2391 481 2648 825 
Q 2906 1169 2906 1791 
z
M 3481 434 
Q 3481 -459 3084 -895 
Q 2688 -1331 1869 -1331 
Q 1566 -1331 1297 -1286 
Q 1028 -1241 775 -1147 
L 775 -588 
Q 1028 -725 1275 -790 
Q 1522 -856 1778 -856 
Q 2344 -856 2625 -561 
Q 2906 -266 2906 331 
L 2906 616 
Q 2728 306 2450 153 
Q 2172 0 1784 0 
Q 1141 0 747 490 
Q 353 981 353 1791 
Q 353 2603 747 3093 
Q 1141 3584 1784 3584 
Q 2172 3584 2450 3431 
Q 2728 3278 2906 2969 
L 2906 3500 
L 3481 3500 
L 3481 434 
z
" transform="scale(0.015625)"/>
       <path id="DejaVuSans-20" transform="scale(0.015625)"/>
       <path id="DejaVuSans-4d" d="M 628 4666 
L 1569 4666 
L 2759 1491 
L 3956 4666 
L 4897 4666 
L 4897 0 
L 4281 0 
L 4281 4097 
L 3078 897 
L 2444 897 
L 1241 4097 
L 1241 0 
L 628 0 
L 628 4666 
z
" transform="scale(0.015625)"/>
       <path id="DejaVuSans-53" d="M 3425 4513 
L 3425 3897 
Q 3066 4069 2747 4153 
Q 2428 4238 2131 4238 
Q 1616 4238 1336 4038 
Q 1056 3838 1056 3469 
Q 1056 3159 1242 3001 
Q 1428 2844 1947 2747 
L 2328 2669 
Q 3034 2534 3370 2195 
Q 3706 1856 3706 1288 
Q 3706 609 3251 259 
Q 2797 -91 1919 -91 
Q 1588 -91 1214 -16 
Q 841 59 441 206 
L 441 856 
Q 825 641 1194 531 
Q 1563 422 1919 422 
Q 2459 422 2753 634 
Q 3047 847 3047 1241 
Q 3047 1584 2836 1778 
Q 2625 1972 2144 2069 
L 1759 2144 
Q 1053 2284 737 2584 
Q 422 2884 422 3419 
Q 422 4038 858 4394 
Q 1294 4750 2059 4750 
Q 2388 4750 2728 4690 
Q 3069 4631 3425 4513 
z
" transform="scale(0.015625)"/>
       <path id="DejaVuSans-45" d="M 628 4666 
L 3578 4666 
L 3578 4134 
L 1259 4134 
L 1259 2753 
L 3481 2753 
L 3481 2222 
L 1259 2222 
L 1259 531 
L 3634 531 
L 3634 0 
L 628 0 
L 628 4666 
z
" transform="scale(0.015625)"/>
      </defs>
      <use xlink:href="#DejaVuSans-54"/>
      <use xlink:href="#DejaVuSans-72" x="46.333984"/>
      <use xlink:href="#DejaVuSans-61" x="87.447266"/>
      <use xlink:href="#DejaVuSans-69" x="148.726562"/>
      <use xlink:href="#DejaVuSans-6e" x="176.509766"/>
      <use xlink:href="#DejaVuSans-69" x="239.888672"/>
      <use xlink:href="#DejaVuSans-6e" x="267.671875"/>
      <use xlink:href="#DejaVuSans-67" x="331.050781"/>
      <use xlink:href="#DejaVuSans-20" x="394.527344"/>
      <use xlink:href="#DejaVuSans-4d" x="426.314453"/>
      <use xlink:href="#DejaVuSans-53" x="512.59375"/>
      <use xlink:href="#DejaVuSans-45" x="576.070312"/>
     </g>
    </g>
    <g id="line2d_16">
     <path d="M 74.424688 57.197812 
L 92.424688 57.197812 
L 110.424688 57.197812 
" style="fill: none; stroke-dasharray: 7.4,3.2; stroke-dashoffset: 0; stroke: #0000ff; stroke-width: 2"/>
    </g>
    <g id="text_16">
     <!-- Dev MSE -->
     <g transform="translate(124.824688 63.497812)scale(0.18 -0.18)">
      <defs>
       <path id="DejaVuSans-44" d="M 1259 4147 
L 1259 519 
L 2022 519 
Q 2988 519 3436 956 
Q 3884 1394 3884 2338 
Q 3884 3275 3436 3711 
Q 2988 4147 2022 4147 
L 1259 4147 
z
M 628 4666 
L 1925 4666 
Q 3281 4666 3915 4102 
Q 4550 3538 4550 2338 
Q 4550 1131 3912 565 
Q 3275 0 1925 0 
L 628 0 
L 628 4666 
z
" transform="scale(0.015625)"/>
       <path id="DejaVuSans-65" d="M 3597 1894 
L 3597 1613 
L 953 1613 
Q 991 1019 1311 708 
Q 1631 397 2203 397 
Q 2534 397 2845 478 
Q 3156 559 3463 722 
L 3463 178 
Q 3153 47 2828 -22 
Q 2503 -91 2169 -91 
Q 1331 -91 842 396 
Q 353 884 353 1716 
Q 353 2575 817 3079 
Q 1281 3584 2069 3584 
Q 2775 3584 3186 3129 
Q 3597 2675 3597 1894 
z
M 3022 2063 
Q 3016 2534 2758 2815 
Q 2500 3097 2075 3097 
Q 1594 3097 1305 2825 
Q 1016 2553 972 2059 
L 3022 2063 
z
" transform="scale(0.015625)"/>
       <path id="DejaVuSans-76" d="M 191 3500 
L 800 3500 
L 1894 563 
L 2988 3500 
L 3597 3500 
L 2284 0 
L 1503 0 
L 191 3500 
z
" transform="scale(0.015625)"/>
      </defs>
      <use xlink:href="#DejaVuSans-44"/>
      <use xlink:href="#DejaVuSans-65" x="77.001953"/>
      <use xlink:href="#DejaVuSans-76" x="138.525391"/>
      <use xlink:href="#DejaVuSans-20" x="197.705078"/>
      <use xlink:href="#DejaVuSans-4d" x="229.492188"/>
      <use xlink:href="#DejaVuSans-53" x="315.771484"/>
      <use xlink:href="#DejaVuSans-45" x="379.248047"/>
     </g>
    </g>
   </g>
  </g>
 </g>
 <defs>
  <clipPath id="p4c2f38cecc">
   <rect x="58.224688" y="7.2" width="446.4" height="277.2"/>
  </clipPath>
 </defs>
</svg>
