<?xml version="1.0" encoding="utf-8" standalone="no"?>
<!DOCTYPE svg PUBLIC "-//W3C//DTD SVG 1.1//EN"
  "http://www.w3.org/Graphics/SVG/1.1/DTD/svg11.dtd">
<svg xmlns:xlink="http://www.w3.org/1999/xlink" width="532.364375pt" height="336.870313pt" viewBox="0 0 532.364375 336.870313" xmlns="http://www.w3.org/2000/svg" version="1.1">
 <metadata>
  <rdf:RDF xmlns:dc="http://purl.org/dc/elements/1.1/" xmlns:cc="http://creativecommons.org/ns#" xmlns:rdf="http://www.w3.org/1999/02/22-rdf-syntax-ns#">
   <cc:Work>
    <dc:type rdf:resource="http://purl.org/dc/dcmitype/StillImage"/>
    <dc:date>2022-11-12T21:10:22.205705</dc:date>
    <dc:format>image/svg+xml</dc:format>
    <dc:creator>
     <cc:Agent>
      <dc:title>Matplotlib v3.5.2, https://matplotlib.org/</dc:title>
     </cc:Agent>
    </dc:creator>
   </cc:Work>
  </rdf:RDF>
 </metadata>
 <defs>
  <style type="text/css">*{stroke-linejoin: round; stroke-linecap: butt}</style>
 </defs>
 <g id="figure_1">
  <g id="patch_1">
   <path d="M 0 336.870313 
L 532.364375 336.870313 
L 532.364375 0 
L 0 0 
z
" style="fill: #ffffff"/>
  </g>
  <g id="axes_1">
   <g id="patch_2">
    <path d="M 73.038125 284.4 
L 519.438125 284.4 
L 519.438125 7.2 
L 73.038125 7.2 
z
" style="fill: #f1f7f0"/>
   </g>
   <g id="PathCollection_1">
    <defs>
     <path id="m2f120470b9" d="M 0 3 
C 0.795609 3 1.55874 2.683901 2.12132 2.12132 
C 2.683901 1.55874 3 0.795609 3 0 
C 3 -0.795609 2.683901 -1.55874 2.12132 -2.12132 
C 1.55874 -2.683901 0.795609 -3 0 -3 
C -0.795609 -3 -1.55874 -2.683901 -2.12132 -2.12132 
C -2.683901 -1.55874 -3 -0.795609 -3 0 
C -3 0.795609 -2.683901 1.55874 -2.12132 2.12132 
C -1.55874 2.683901 -0.795609 3 0 3 
z
" style="stroke: #0000ff; stroke-width: 3"/>
    </defs>
    <g clip-path="url(#p0fe2b2900d)">
     <use xlink:href="#m2f120470b9" x="110.238125" y="108.977812" style="fill: #0000ff; stroke: #0000ff; stroke-width: 3"/>
     <use xlink:href="#m2f120470b9" x="112.098125" y="84.156151" style="fill: #0000ff; stroke: #0000ff; stroke-width: 3"/>
     <use xlink:href="#m2f120470b9" x="113.958125" y="99.344556" style="fill: #0000ff; stroke: #0000ff; stroke-width: 3"/>
     <use xlink:href="#m2f120470b9" x="115.818125" y="74.148134" style="fill: #0000ff; stroke: #0000ff; stroke-width: 3"/>
     <use xlink:href="#m2f120470b9" x="117.678125" y="97.003257" style="fill: #0000ff; stroke: #0000ff; stroke-width: 3"/>
     <use xlink:href="#m2f120470b9" x="119.538125" y="115.474226" style="fill: #0000ff; stroke: #0000ff; stroke-width: 3"/>
     <use xlink:href="#m2f120470b9" x="121.398125" y="83.280574" style="fill: #0000ff; stroke: #0000ff; stroke-width: 3"/>
     <use xlink:href="#m2f120470b9" x="123.258125" y="85.531553" style="fill: #0000ff; stroke: #0000ff; stroke-width: 3"/>
     <use xlink:href="#m2f120470b9" x="125.118125" y="69.556588" style="fill: #0000ff; stroke: #0000ff; stroke-width: 3"/>
     <use xlink:href="#m2f120470b9" x="126.978125" y="90.947478" style="fill: #0000ff; stroke: #0000ff; stroke-width: 3"/>
     <use xlink:href="#m2f120470b9" x="128.838125" y="98.885535" style="fill: #0000ff; stroke: #0000ff; stroke-width: 3"/>
     <use xlink:href="#m2f120470b9" x="130.698125" y="107.978092" style="fill: #0000ff; stroke: #0000ff; stroke-width: 3"/>
     <use xlink:href="#m2f120470b9" x="132.558125" y="104.92071" style="fill: #0000ff; stroke: #0000ff; stroke-width: 3"/>
     <use xlink:href="#m2f120470b9" x="134.418125" y="131.550509" style="fill: #0000ff; stroke: #0000ff; stroke-width: 3"/>
     <use xlink:href="#m2f120470b9" x="136.278125" y="96.910455" style="fill: #0000ff; stroke: #0000ff; stroke-width: 3"/>
     <use xlink:href="#m2f120470b9" x="138.138125" y="144.699381" style="fill: #0000ff; stroke: #0000ff; stroke-width: 3"/>
     <use xlink:href="#m2f120470b9" x="139.998125" y="89.398291" style="fill: #0000ff; stroke: #0000ff; stroke-width: 3"/>
     <use xlink:href="#m2f120470b9" x="141.858125" y="117.201283" style="fill: #0000ff; stroke: #0000ff; stroke-width: 3"/>
     <use xlink:href="#m2f120470b9" x="143.718125" y="136.911598" style="fill: #0000ff; stroke: #0000ff; stroke-width: 3"/>
     <use xlink:href="#m2f120470b9" x="145.578125" y="152.36685" style="fill: #0000ff; stroke: #0000ff; stroke-width: 3"/>
     <use xlink:href="#m2f120470b9" x="147.438125" y="127.773499" style="fill: #0000ff; stroke: #0000ff; stroke-width: 3"/>
     <use xlink:href="#m2f120470b9" x="149.298125" y="123.031166" style="fill: #0000ff; stroke: #0000ff; stroke-width: 3"/>
     <use xlink:href="#m2f120470b9" x="151.158125" y="102.36357" style="fill: #0000ff; stroke: #0000ff; stroke-width: 3"/>
     <use xlink:href="#m2f120470b9" x="153.018125" y="143.391855" style="fill: #0000ff; stroke: #0000ff; stroke-width: 3"/>
     <use xlink:href="#m2f120470b9" x="154.878125" y="122.424726" style="fill: #0000ff; stroke: #0000ff; stroke-width: 3"/>
     <use xlink:href="#m2f120470b9" x="156.738125" y="155.583658" style="fill: #0000ff; stroke: #0000ff; stroke-width: 3"/>
     <use xlink:href="#m2f120470b9" x="158.598125" y="157.36319" style="fill: #0000ff; stroke: #0000ff; stroke-width: 3"/>
     <use xlink:href="#m2f120470b9" x="160.458125" y="158.732109" style="fill: #0000ff; stroke: #0000ff; stroke-width: 3"/>
     <use xlink:href="#m2f120470b9" x="162.318125" y="138.649961" style="fill: #0000ff; stroke: #0000ff; stroke-width: 3"/>
     <use xlink:href="#m2f120470b9" x="164.178125" y="170.021986" style="fill: #0000ff; stroke: #0000ff; stroke-width: 3"/>
     <use xlink:href="#m2f120470b9" x="166.038125" y="157.085427" style="fill: #0000ff; stroke: #0000ff; stroke-width: 3"/>
     <use xlink:href="#m2f120470b9" x="167.898125" y="136.625785" style="fill: #0000ff; stroke: #0000ff; stroke-width: 3"/>
     <use xlink:href="#m2f120470b9" x="169.758125" y="171.141759" style="fill: #0000ff; stroke: #0000ff; stroke-width: 3"/>
     <use xlink:href="#m2f120470b9" x="171.618125" y="158.364942" style="fill: #0000ff; stroke: #0000ff; stroke-width: 3"/>
     <use xlink:href="#m2f120470b9" x="173.478125" y="163.227303" style="fill: #0000ff; stroke: #0000ff; stroke-width: 3"/>
     <use xlink:href="#m2f120470b9" x="175.338125" y="116.076582" style="fill: #0000ff; stroke: #0000ff; stroke-width: 3"/>
     <use xlink:href="#m2f120470b9" x="177.198125" y="174.45987" style="fill: #0000ff; stroke: #0000ff; stroke-width: 3"/>
     <use xlink:href="#m2f120470b9" x="179.058125" y="136.301336" style="fill: #0000ff; stroke: #0000ff; stroke-width: 3"/>
     <use xlink:href="#m2f120470b9" x="180.918125" y="129.557308" style="fill: #0000ff; stroke: #0000ff; stroke-width: 3"/>
     <use xlink:href="#m2f120470b9" x="182.778125" y="173.947292" style="fill: #0000ff; stroke: #0000ff; stroke-width: 3"/>
     <use xlink:href="#m2f120470b9" x="184.638125" y="153.730696" style="fill: #0000ff; stroke: #0000ff; stroke-width: 3"/>
     <use xlink:href="#m2f120470b9" x="186.498125" y="159.823315" style="fill: #0000ff; stroke: #0000ff; stroke-width: 3"/>
     <use xlink:href="#m2f120470b9" x="188.358125" y="179.071218" style="fill: #0000ff; stroke: #0000ff; stroke-width: 3"/>
     <use xlink:href="#m2f120470b9" x="190.218125" y="187.238045" style="fill: #0000ff; stroke: #0000ff; stroke-width: 3"/>
     <use xlink:href="#m2f120470b9" x="192.078125" y="174.338208" style="fill: #0000ff; stroke: #0000ff; stroke-width: 3"/>
     <use xlink:href="#m2f120470b9" x="193.938125" y="165.599163" style="fill: #0000ff; stroke: #0000ff; stroke-width: 3"/>
     <use xlink:href="#m2f120470b9" x="195.798125" y="185.411108" style="fill: #0000ff; stroke: #0000ff; stroke-width: 3"/>
     <use xlink:href="#m2f120470b9" x="197.658125" y="153.451883" style="fill: #0000ff; stroke: #0000ff; stroke-width: 3"/>
     <use xlink:href="#m2f120470b9" x="199.518125" y="170.088199" style="fill: #0000ff; stroke: #0000ff; stroke-width: 3"/>
     <use xlink:href="#m2f120470b9" x="201.378125" y="205.34063" style="fill: #0000ff; stroke: #0000ff; stroke-width: 3"/>
     <use xlink:href="#m2f120470b9" x="203.238125" y="176.060013" style="fill: #0000ff; stroke: #0000ff; stroke-width: 3"/>
     <use xlink:href="#m2f120470b9" x="205.098125" y="179.468313" style="fill: #0000ff; stroke: #0000ff; stroke-width: 3"/>
     <use xlink:href="#m2f120470b9" x="206.958125" y="188.784946" style="fill: #0000ff; stroke: #0000ff; stroke-width: 3"/>
     <use xlink:href="#m2f120470b9" x="208.818125" y="183.988733" style="fill: #0000ff; stroke: #0000ff; stroke-width: 3"/>
     <use xlink:href="#m2f120470b9" x="210.678125" y="216.473977" style="fill: #0000ff; stroke: #0000ff; stroke-width: 3"/>
     <use xlink:href="#m2f120470b9" x="212.538125" y="205.774547" style="fill: #0000ff; stroke: #0000ff; stroke-width: 3"/>
     <use xlink:href="#m2f120470b9" x="214.398125" y="228.314283" style="fill: #0000ff; stroke: #0000ff; stroke-width: 3"/>
     <use xlink:href="#m2f120470b9" x="216.258125" y="193.731588" style="fill: #0000ff; stroke: #0000ff; stroke-width: 3"/>
     <use xlink:href="#m2f120470b9" x="218.118125" y="183.285413" style="fill: #0000ff; stroke: #0000ff; stroke-width: 3"/>
     <use xlink:href="#m2f120470b9" x="219.978125" y="165.708602" style="fill: #0000ff; stroke: #0000ff; stroke-width: 3"/>
     <use xlink:href="#m2f120470b9" x="221.838125" y="160.71989" style="fill: #0000ff; stroke: #0000ff; stroke-width: 3"/>
     <use xlink:href="#m2f120470b9" x="223.698125" y="184.930813" style="fill: #0000ff; stroke: #0000ff; stroke-width: 3"/>
     <use xlink:href="#m2f120470b9" x="225.558125" y="200.472686" style="fill: #0000ff; stroke: #0000ff; stroke-width: 3"/>
     <use xlink:href="#m2f120470b9" x="227.418125" y="185.966608" style="fill: #0000ff; stroke: #0000ff; stroke-width: 3"/>
     <use xlink:href="#m2f120470b9" x="229.278125" y="179.076557" style="fill: #0000ff; stroke: #0000ff; stroke-width: 3"/>
     <use xlink:href="#m2f120470b9" x="231.138125" y="177.586765" style="fill: #0000ff; stroke: #0000ff; stroke-width: 3"/>
     <use xlink:href="#m2f120470b9" x="232.998125" y="202.481774" style="fill: #0000ff; stroke: #0000ff; stroke-width: 3"/>
     <use xlink:href="#m2f120470b9" x="234.858125" y="226.582911" style="fill: #0000ff; stroke: #0000ff; stroke-width: 3"/>
     <use xlink:href="#m2f120470b9" x="236.718125" y="215.436582" style="fill: #0000ff; stroke: #0000ff; stroke-width: 3"/>
     <use xlink:href="#m2f120470b9" x="238.578125" y="160.290487" style="fill: #0000ff; stroke: #0000ff; stroke-width: 3"/>
     <use xlink:href="#m2f120470b9" x="240.438125" y="172.69109" style="fill: #0000ff; stroke: #0000ff; stroke-width: 3"/>
     <use xlink:href="#m2f120470b9" x="242.298125" y="188.839354" style="fill: #0000ff; stroke: #0000ff; stroke-width: 3"/>
     <use xlink:href="#m2f120470b9" x="244.158125" y="173.423268" style="fill: #0000ff; stroke: #0000ff; stroke-width: 3"/>
     <use xlink:href="#m2f120470b9" x="246.018125" y="207.801346" style="fill: #0000ff; stroke: #0000ff; stroke-width: 3"/>
     <use xlink:href="#m2f120470b9" x="247.878125" y="218.084969" style="fill: #0000ff; stroke: #0000ff; stroke-width: 3"/>
     <use xlink:href="#m2f120470b9" x="249.738125" y="198.607352" style="fill: #0000ff; stroke: #0000ff; stroke-width: 3"/>
     <use xlink:href="#m2f120470b9" x="251.598125" y="182.681509" style="fill: #0000ff; stroke: #0000ff; stroke-width: 3"/>
     <use xlink:href="#m2f120470b9" x="253.458125" y="196.245573" style="fill: #0000ff; stroke: #0000ff; stroke-width: 3"/>
     <use xlink:href="#m2f120470b9" x="255.318125" y="245.015473" style="fill: #0000ff; stroke: #0000ff; stroke-width: 3"/>
     <use xlink:href="#m2f120470b9" x="257.178125" y="166.942503" style="fill: #0000ff; stroke: #0000ff; stroke-width: 3"/>
     <use xlink:href="#m2f120470b9" x="259.038125" y="181.877036" style="fill: #0000ff; stroke: #0000ff; stroke-width: 3"/>
     <use xlink:href="#m2f120470b9" x="260.898125" y="188.658251" style="fill: #0000ff; stroke: #0000ff; stroke-width: 3"/>
     <use xlink:href="#m2f120470b9" x="262.758125" y="161.559269" style="fill: #0000ff; stroke: #0000ff; stroke-width: 3"/>
     <use xlink:href="#m2f120470b9" x="264.618125" y="200.884701" style="fill: #0000ff; stroke: #0000ff; stroke-width: 3"/>
     <use xlink:href="#m2f120470b9" x="266.478125" y="175.892939" style="fill: #0000ff; stroke: #0000ff; stroke-width: 3"/>
     <use xlink:href="#m2f120470b9" x="268.338125" y="205.060543" style="fill: #0000ff; stroke: #0000ff; stroke-width: 3"/>
     <use xlink:href="#m2f120470b9" x="270.198125" y="192.062058" style="fill: #0000ff; stroke: #0000ff; stroke-width: 3"/>
     <use xlink:href="#m2f120470b9" x="272.058125" y="184.491161" style="fill: #0000ff; stroke: #0000ff; stroke-width: 3"/>
     <use xlink:href="#m2f120470b9" x="273.918125" y="188.380794" style="fill: #0000ff; stroke: #0000ff; stroke-width: 3"/>
     <use xlink:href="#m2f120470b9" x="275.778125" y="199.488612" style="fill: #0000ff; stroke: #0000ff; stroke-width: 3"/>
     <use xlink:href="#m2f120470b9" x="277.638125" y="212.608918" style="fill: #0000ff; stroke: #0000ff; stroke-width: 3"/>
     <use xlink:href="#m2f120470b9" x="279.498125" y="216.142572" style="fill: #0000ff; stroke: #0000ff; stroke-width: 3"/>
     <use xlink:href="#m2f120470b9" x="281.358125" y="197.376824" style="fill: #0000ff; stroke: #0000ff; stroke-width: 3"/>
     <use xlink:href="#m2f120470b9" x="283.218125" y="255.310033" style="fill: #0000ff; stroke: #0000ff; stroke-width: 3"/>
     <use xlink:href="#m2f120470b9" x="285.078125" y="232.361376" style="fill: #0000ff; stroke: #0000ff; stroke-width: 3"/>
     <use xlink:href="#m2f120470b9" x="286.938125" y="239.387786" style="fill: #0000ff; stroke: #0000ff; stroke-width: 3"/>
     <use xlink:href="#m2f120470b9" x="288.798125" y="160.594471" style="fill: #0000ff; stroke: #0000ff; stroke-width: 3"/>
     <use xlink:href="#m2f120470b9" x="290.658125" y="197.720349" style="fill: #0000ff; stroke: #0000ff; stroke-width: 3"/>
     <use xlink:href="#m2f120470b9" x="292.518125" y="199.357958" style="fill: #0000ff; stroke: #0000ff; stroke-width: 3"/>
     <use xlink:href="#m2f120470b9" x="294.378125" y="212.071297" style="fill: #0000ff; stroke: #0000ff; stroke-width: 3"/>
     <use xlink:href="#m2f120470b9" x="296.238125" y="192.815597" style="fill: #0000ff; stroke: #0000ff; stroke-width: 3"/>
     <use xlink:href="#m2f120470b9" x="298.098125" y="222.490291" style="fill: #0000ff; stroke: #0000ff; stroke-width: 3"/>
     <use xlink:href="#m2f120470b9" x="299.958125" y="218.991432" style="fill: #0000ff; stroke: #0000ff; stroke-width: 3"/>
     <use xlink:href="#m2f120470b9" x="301.818125" y="182.88421" style="fill: #0000ff; stroke: #0000ff; stroke-width: 3"/>
     <use xlink:href="#m2f120470b9" x="303.678125" y="210.654561" style="fill: #0000ff; stroke: #0000ff; stroke-width: 3"/>
     <use xlink:href="#m2f120470b9" x="305.538125" y="213.41682" style="fill: #0000ff; stroke: #0000ff; stroke-width: 3"/>
     <use xlink:href="#m2f120470b9" x="307.398125" y="214.111655" style="fill: #0000ff; stroke: #0000ff; stroke-width: 3"/>
     <use xlink:href="#m2f120470b9" x="309.258125" y="190.541846" style="fill: #0000ff; stroke: #0000ff; stroke-width: 3"/>
     <use xlink:href="#m2f120470b9" x="311.118125" y="169.661829" style="fill: #0000ff; stroke: #0000ff; stroke-width: 3"/>
     <use xlink:href="#m2f120470b9" x="312.978125" y="204.12304" style="fill: #0000ff; stroke: #0000ff; stroke-width: 3"/>
     <use xlink:href="#m2f120470b9" x="314.838125" y="205.922813" style="fill: #0000ff; stroke: #0000ff; stroke-width: 3"/>
     <use xlink:href="#m2f120470b9" x="316.698125" y="201.388907" style="fill: #0000ff; stroke: #0000ff; stroke-width: 3"/>
     <use xlink:href="#m2f120470b9" x="318.558125" y="197.205923" style="fill: #0000ff; stroke: #0000ff; stroke-width: 3"/>
     <use xlink:href="#m2f120470b9" x="320.418125" y="184.482811" style="fill: #0000ff; stroke: #0000ff; stroke-width: 3"/>
     <use xlink:href="#m2f120470b9" x="322.278125" y="194.682678" style="fill: #0000ff; stroke: #0000ff; stroke-width: 3"/>
     <use xlink:href="#m2f120470b9" x="324.138125" y="155.891895" style="fill: #0000ff; stroke: #0000ff; stroke-width: 3"/>
     <use xlink:href="#m2f120470b9" x="325.998125" y="190.010456" style="fill: #0000ff; stroke: #0000ff; stroke-width: 3"/>
     <use xlink:href="#m2f120470b9" x="327.858125" y="213.616815" style="fill: #0000ff; stroke: #0000ff; stroke-width: 3"/>
     <use xlink:href="#m2f120470b9" x="329.718125" y="177.06991" style="fill: #0000ff; stroke: #0000ff; stroke-width: 3"/>
     <use xlink:href="#m2f120470b9" x="331.578125" y="195.679843" style="fill: #0000ff; stroke: #0000ff; stroke-width: 3"/>
     <use xlink:href="#m2f120470b9" x="333.438125" y="187.230149" style="fill: #0000ff; stroke: #0000ff; stroke-width: 3"/>
     <use xlink:href="#m2f120470b9" x="335.298125" y="195.201851" style="fill: #0000ff; stroke: #0000ff; stroke-width: 3"/>
     <use xlink:href="#m2f120470b9" x="337.158125" y="194.461149" style="fill: #0000ff; stroke: #0000ff; stroke-width: 3"/>
     <use xlink:href="#m2f120470b9" x="339.018125" y="196.392603" style="fill: #0000ff; stroke: #0000ff; stroke-width: 3"/>
     <use xlink:href="#m2f120470b9" x="340.878125" y="172.516295" style="fill: #0000ff; stroke: #0000ff; stroke-width: 3"/>
     <use xlink:href="#m2f120470b9" x="342.738125" y="167.260643" style="fill: #0000ff; stroke: #0000ff; stroke-width: 3"/>
     <use xlink:href="#m2f120470b9" x="344.598125" y="201.970798" style="fill: #0000ff; stroke: #0000ff; stroke-width: 3"/>
     <use xlink:href="#m2f120470b9" x="346.458125" y="166.834297" style="fill: #0000ff; stroke: #0000ff; stroke-width: 3"/>
     <use xlink:href="#m2f120470b9" x="348.318125" y="181.577664" style="fill: #0000ff; stroke: #0000ff; stroke-width: 3"/>
     <use xlink:href="#m2f120470b9" x="350.178125" y="178.539648" style="fill: #0000ff; stroke: #0000ff; stroke-width: 3"/>
     <use xlink:href="#m2f120470b9" x="352.038125" y="167.938655" style="fill: #0000ff; stroke: #0000ff; stroke-width: 3"/>
     <use xlink:href="#m2f120470b9" x="353.898125" y="192.301951" style="fill: #0000ff; stroke: #0000ff; stroke-width: 3"/>
     <use xlink:href="#m2f120470b9" x="355.758125" y="184.088064" style="fill: #0000ff; stroke: #0000ff; stroke-width: 3"/>
     <use xlink:href="#m2f120470b9" x="357.618125" y="167.968192" style="fill: #0000ff; stroke: #0000ff; stroke-width: 3"/>
     <use xlink:href="#m2f120470b9" x="359.478125" y="164.073204" style="fill: #0000ff; stroke: #0000ff; stroke-width: 3"/>
     <use xlink:href="#m2f120470b9" x="361.338125" y="174.548325" style="fill: #0000ff; stroke: #0000ff; stroke-width: 3"/>
     <use xlink:href="#m2f120470b9" x="363.198125" y="138.234814" style="fill: #0000ff; stroke: #0000ff; stroke-width: 3"/>
     <use xlink:href="#m2f120470b9" x="365.058125" y="176.781522" style="fill: #0000ff; stroke: #0000ff; stroke-width: 3"/>
     <use xlink:href="#m2f120470b9" x="366.918125" y="128.185513" style="fill: #0000ff; stroke: #0000ff; stroke-width: 3"/>
     <use xlink:href="#m2f120470b9" x="368.778125" y="145.290477" style="fill: #0000ff; stroke: #0000ff; stroke-width: 3"/>
     <use xlink:href="#m2f120470b9" x="370.638125" y="156.706523" style="fill: #0000ff; stroke: #0000ff; stroke-width: 3"/>
     <use xlink:href="#m2f120470b9" x="372.498125" y="173.589273" style="fill: #0000ff; stroke: #0000ff; stroke-width: 3"/>
     <use xlink:href="#m2f120470b9" x="374.358125" y="165.827537" style="fill: #0000ff; stroke: #0000ff; stroke-width: 3"/>
     <use xlink:href="#m2f120470b9" x="376.218125" y="152.017307" style="fill: #0000ff; stroke: #0000ff; stroke-width: 3"/>
     <use xlink:href="#m2f120470b9" x="378.078125" y="164.667366" style="fill: #0000ff; stroke: #0000ff; stroke-width: 3"/>
     <use xlink:href="#m2f120470b9" x="379.938125" y="145.72953" style="fill: #0000ff; stroke: #0000ff; stroke-width: 3"/>
     <use xlink:href="#m2f120470b9" x="381.798125" y="143.28891" style="fill: #0000ff; stroke: #0000ff; stroke-width: 3"/>
     <use xlink:href="#m2f120470b9" x="383.658125" y="166.824567" style="fill: #0000ff; stroke: #0000ff; stroke-width: 3"/>
     <use xlink:href="#m2f120470b9" x="385.518125" y="147.946658" style="fill: #0000ff; stroke: #0000ff; stroke-width: 3"/>
     <use xlink:href="#m2f120470b9" x="387.378125" y="149.223508" style="fill: #0000ff; stroke: #0000ff; stroke-width: 3"/>
     <use xlink:href="#m2f120470b9" x="389.238125" y="143.798499" style="fill: #0000ff; stroke: #0000ff; stroke-width: 3"/>
     <use xlink:href="#m2f120470b9" x="391.098125" y="115.663389" style="fill: #0000ff; stroke: #0000ff; stroke-width: 3"/>
     <use xlink:href="#m2f120470b9" x="392.958125" y="160.006737" style="fill: #0000ff; stroke: #0000ff; stroke-width: 3"/>
     <use xlink:href="#m2f120470b9" x="394.818125" y="156.757477" style="fill: #0000ff; stroke: #0000ff; stroke-width: 3"/>
     <use xlink:href="#m2f120470b9" x="396.678125" y="141.749215" style="fill: #0000ff; stroke: #0000ff; stroke-width: 3"/>
     <use xlink:href="#m2f120470b9" x="398.538125" y="164.06586" style="fill: #0000ff; stroke: #0000ff; stroke-width: 3"/>
     <use xlink:href="#m2f120470b9" x="400.398125" y="111.666773" style="fill: #0000ff; stroke: #0000ff; stroke-width: 3"/>
     <use xlink:href="#m2f120470b9" x="402.258125" y="123.807965" style="fill: #0000ff; stroke: #0000ff; stroke-width: 3"/>
     <use xlink:href="#m2f120470b9" x="404.118125" y="149.786997" style="fill: #0000ff; stroke: #0000ff; stroke-width: 3"/>
     <use xlink:href="#m2f120470b9" x="405.978125" y="145.952713" style="fill: #0000ff; stroke: #0000ff; stroke-width: 3"/>
     <use xlink:href="#m2f120470b9" x="407.838125" y="132.048257" style="fill: #0000ff; stroke: #0000ff; stroke-width: 3"/>
     <use xlink:href="#m2f120470b9" x="409.698125" y="126.457458" style="fill: #0000ff; stroke: #0000ff; stroke-width: 3"/>
     <use xlink:href="#m2f120470b9" x="411.558125" y="144.142267" style="fill: #0000ff; stroke: #0000ff; stroke-width: 3"/>
     <use xlink:href="#m2f120470b9" x="413.418125" y="122.182057" style="fill: #0000ff; stroke: #0000ff; stroke-width: 3"/>
     <use xlink:href="#m2f120470b9" x="415.278125" y="111.141223" style="fill: #0000ff; stroke: #0000ff; stroke-width: 3"/>
     <use xlink:href="#m2f120470b9" x="417.138125" y="119.180333" style="fill: #0000ff; stroke: #0000ff; stroke-width: 3"/>
     <use xlink:href="#m2f120470b9" x="418.998125" y="115.400655" style="fill: #0000ff; stroke: #0000ff; stroke-width: 3"/>
     <use xlink:href="#m2f120470b9" x="420.858125" y="135.975693" style="fill: #0000ff; stroke: #0000ff; stroke-width: 3"/>
     <use xlink:href="#m2f120470b9" x="422.718125" y="144.041767" style="fill: #0000ff; stroke: #0000ff; stroke-width: 3"/>
     <use xlink:href="#m2f120470b9" x="424.578125" y="111.50586" style="fill: #0000ff; stroke: #0000ff; stroke-width: 3"/>
     <use xlink:href="#m2f120470b9" x="426.438125" y="102.120747" style="fill: #0000ff; stroke: #0000ff; stroke-width: 3"/>
     <use xlink:href="#m2f120470b9" x="428.298125" y="82.080103" style="fill: #0000ff; stroke: #0000ff; stroke-width: 3"/>
     <use xlink:href="#m2f120470b9" x="430.158125" y="125.900779" style="fill: #0000ff; stroke: #0000ff; stroke-width: 3"/>
     <use xlink:href="#m2f120470b9" x="432.018125" y="132.517129" style="fill: #0000ff; stroke: #0000ff; stroke-width: 3"/>
     <use xlink:href="#m2f120470b9" x="433.878125" y="113.596013" style="fill: #0000ff; stroke: #0000ff; stroke-width: 3"/>
     <use xlink:href="#m2f120470b9" x="435.738125" y="112.539199" style="fill: #0000ff; stroke: #0000ff; stroke-width: 3"/>
     <use xlink:href="#m2f120470b9" x="437.598125" y="122.673881" style="fill: #0000ff; stroke: #0000ff; stroke-width: 3"/>
     <use xlink:href="#m2f120470b9" x="439.458125" y="96.106564" style="fill: #0000ff; stroke: #0000ff; stroke-width: 3"/>
     <use xlink:href="#m2f120470b9" x="441.318125" y="66.253406" style="fill: #0000ff; stroke: #0000ff; stroke-width: 3"/>
     <use xlink:href="#m2f120470b9" x="443.178125" y="110.292959" style="fill: #0000ff; stroke: #0000ff; stroke-width: 3"/>
     <use xlink:href="#m2f120470b9" x="445.038125" y="96.35423" style="fill: #0000ff; stroke: #0000ff; stroke-width: 3"/>
     <use xlink:href="#m2f120470b9" x="446.898125" y="102.754331" style="fill: #0000ff; stroke: #0000ff; stroke-width: 3"/>
     <use xlink:href="#m2f120470b9" x="448.758125" y="95.909483" style="fill: #0000ff; stroke: #0000ff; stroke-width: 3"/>
     <use xlink:href="#m2f120470b9" x="450.618125" y="80.187546" style="fill: #0000ff; stroke: #0000ff; stroke-width: 3"/>
     <use xlink:href="#m2f120470b9" x="452.478125" y="87.092483" style="fill: #0000ff; stroke: #0000ff; stroke-width: 3"/>
     <use xlink:href="#m2f120470b9" x="454.338125" y="86.995578" style="fill: #0000ff; stroke: #0000ff; stroke-width: 3"/>
     <use xlink:href="#m2f120470b9" x="456.198125" y="84.166626" style="fill: #0000ff; stroke: #0000ff; stroke-width: 3"/>
     <use xlink:href="#m2f120470b9" x="458.058125" y="45.783623" style="fill: #0000ff; stroke: #0000ff; stroke-width: 3"/>
     <use xlink:href="#m2f120470b9" x="459.918125" y="76.983072" style="fill: #0000ff; stroke: #0000ff; stroke-width: 3"/>
     <use xlink:href="#m2f120470b9" x="461.778125" y="48.936621" style="fill: #0000ff; stroke: #0000ff; stroke-width: 3"/>
     <use xlink:href="#m2f120470b9" x="463.638125" y="63.687259" style="fill: #0000ff; stroke: #0000ff; stroke-width: 3"/>
     <use xlink:href="#m2f120470b9" x="465.498125" y="55.819446" style="fill: #0000ff; stroke: #0000ff; stroke-width: 3"/>
     <use xlink:href="#m2f120470b9" x="467.358125" y="65.460903" style="fill: #0000ff; stroke: #0000ff; stroke-width: 3"/>
     <use xlink:href="#m2f120470b9" x="469.218125" y="76.964641" style="fill: #0000ff; stroke: #0000ff; stroke-width: 3"/>
     <use xlink:href="#m2f120470b9" x="471.078125" y="79.623646" style="fill: #0000ff; stroke: #0000ff; stroke-width: 3"/>
     <use xlink:href="#m2f120470b9" x="472.938125" y="64.554135" style="fill: #0000ff; stroke: #0000ff; stroke-width: 3"/>
     <use xlink:href="#m2f120470b9" x="474.798125" y="36.345557" style="fill: #0000ff; stroke: #0000ff; stroke-width: 3"/>
     <use xlink:href="#m2f120470b9" x="476.658125" y="36.660378" style="fill: #0000ff; stroke: #0000ff; stroke-width: 3"/>
     <use xlink:href="#m2f120470b9" x="478.518125" y="58.895788" style="fill: #0000ff; stroke: #0000ff; stroke-width: 3"/>
     <use xlink:href="#m2f120470b9" x="480.378125" y="66.647151" style="fill: #0000ff; stroke: #0000ff; stroke-width: 3"/>
    </g>
   </g>
   <g id="matplotlib.axis_1">
    <g id="xtick_1">
     <g id="line2d_1">
      <defs>
       <path id="m5f48ca1d2c" d="M 0 0 
L 0 3.5 
" style="stroke: #000000; stroke-width: 0.8"/>
      </defs>
      <g>
       <use xlink:href="#m5f48ca1d2c" x="73.038125" y="284.4" style="stroke: #000000; stroke-width: 0.8"/>
      </g>
     </g>
     <g id="text_1">
      <!-- −6 -->
      <g transform="translate(59.770156 305.077188)scale(0.18 -0.18)">
       <defs>
        <path id="DejaVuSans-2212" d="M 678 2272 
L 4684 2272 
L 4684 1741 
L 678 1741 
L 678 2272 
z
" transform="scale(0.015625)"/>
        <path id="DejaVuSans-36" d="M 2113 2584 
Q 1688 2584 1439 2293 
Q 1191 2003 1191 1497 
Q 1191 994 1439 701 
Q 1688 409 2113 409 
Q 2538 409 2786 701 
Q 3034 994 3034 1497 
Q 3034 2003 2786 2293 
Q 2538 2584 2113 2584 
z
M 3366 4563 
L 3366 3988 
Q 3128 4100 2886 4159 
Q 2644 4219 2406 4219 
Q 1781 4219 1451 3797 
Q 1122 3375 1075 2522 
Q 1259 2794 1537 2939 
Q 1816 3084 2150 3084 
Q 2853 3084 3261 2657 
Q 3669 2231 3669 1497 
Q 3669 778 3244 343 
Q 2819 -91 2113 -91 
Q 1303 -91 875 529 
Q 447 1150 447 2328 
Q 447 3434 972 4092 
Q 1497 4750 2381 4750 
Q 2619 4750 2861 4703 
Q 3103 4656 3366 4563 
z
" transform="scale(0.015625)"/>
       </defs>
       <use xlink:href="#DejaVuSans-2212"/>
       <use xlink:href="#DejaVuSans-36" x="83.789062"/>
      </g>
     </g>
    </g>
    <g id="xtick_2">
     <g id="line2d_2">
      <g>
       <use xlink:href="#m5f48ca1d2c" x="147.438125" y="284.4" style="stroke: #000000; stroke-width: 0.8"/>
      </g>
     </g>
     <g id="text_2">
      <!-- −4 -->
      <g transform="translate(134.170156 305.077188)scale(0.18 -0.18)">
       <defs>
        <path id="DejaVuSans-34" d="M 2419 4116 
L 825 1625 
L 2419 1625 
L 2419 4116 
z
M 2253 4666 
L 3047 4666 
L 3047 1625 
L 3713 1625 
L 3713 1100 
L 3047 1100 
L 3047 0 
L 2419 0 
L 2419 1100 
L 313 1100 
L 313 1709 
L 2253 4666 
z
" transform="scale(0.015625)"/>
       </defs>
       <use xlink:href="#DejaVuSans-2212"/>
       <use xlink:href="#DejaVuSans-34" x="83.789062"/>
      </g>
     </g>
    </g>
    <g id="xtick_3">
     <g id="line2d_3">
      <g>
       <use xlink:href="#m5f48ca1d2c" x="221.838125" y="284.4" style="stroke: #000000; stroke-width: 0.8"/>
      </g>
     </g>
     <g id="text_3">
      <!-- −2 -->
      <g transform="translate(208.570156 305.077188)scale(0.18 -0.18)">
       <defs>
        <path id="DejaVuSans-32" d="M 1228 531 
L 3431 531 
L 3431 0 
L 469 0 
L 469 531 
Q 828 903 1448 1529 
Q 2069 2156 2228 2338 
Q 2531 2678 2651 2914 
Q 2772 3150 2772 3378 
Q 2772 3750 2511 3984 
Q 2250 4219 1831 4219 
Q 1534 4219 1204 4116 
Q 875 4013 500 3803 
L 500 4441 
Q 881 4594 1212 4672 
Q 1544 4750 1819 4750 
Q 2544 4750 2975 4387 
Q 3406 4025 3406 3419 
Q 3406 3131 3298 2873 
Q 3191 2616 2906 2266 
Q 2828 2175 2409 1742 
Q 1991 1309 1228 531 
z
" transform="scale(0.015625)"/>
       </defs>
       <use xlink:href="#DejaVuSans-2212"/>
       <use xlink:href="#DejaVuSans-32" x="83.789062"/>
      </g>
     </g>
    </g>
    <g id="xtick_4">
     <g id="line2d_4">
      <g>
       <use xlink:href="#m5f48ca1d2c" x="296.238125" y="284.4" style="stroke: #000000; stroke-width: 0.8"/>
      </g>
     </g>
     <g id="text_4">
      <!-- 0 -->
      <g transform="translate(290.511875 305.077188)scale(0.18 -0.18)">
       <defs>
        <path id="DejaVuSans-30" d="M 2034 4250 
Q 1547 4250 1301 3770 
Q 1056 3291 1056 2328 
Q 1056 1369 1301 889 
Q 1547 409 2034 409 
Q 2525 409 2770 889 
Q 3016 1369 3016 2328 
Q 3016 3291 2770 3770 
Q 2525 4250 2034 4250 
z
M 2034 4750 
Q 2819 4750 3233 4129 
Q 3647 3509 3647 2328 
Q 3647 1150 3233 529 
Q 2819 -91 2034 -91 
Q 1250 -91 836 529 
Q 422 1150 422 2328 
Q 422 3509 836 4129 
Q 1250 4750 2034 4750 
z
" transform="scale(0.015625)"/>
       </defs>
       <use xlink:href="#DejaVuSans-30"/>
      </g>
     </g>
    </g>
    <g id="xtick_5">
     <g id="line2d_5">
      <g>
       <use xlink:href="#m5f48ca1d2c" x="370.638125" y="284.4" style="stroke: #000000; stroke-width: 0.8"/>
      </g>
     </g>
     <g id="text_5">
      <!-- 2 -->
      <g transform="translate(364.911875 305.077188)scale(0.18 -0.18)">
       <use xlink:href="#DejaVuSans-32"/>
      </g>
     </g>
    </g>
    <g id="xtick_6">
     <g id="line2d_6">
      <g>
       <use xlink:href="#m5f48ca1d2c" x="445.038125" y="284.4" style="stroke: #000000; stroke-width: 0.8"/>
      </g>
     </g>
     <g id="text_6">
      <!-- 4 -->
      <g transform="translate(439.311875 305.077188)scale(0.18 -0.18)">
       <use xlink:href="#DejaVuSans-34"/>
      </g>
     </g>
    </g>
    <g id="xtick_7">
     <g id="line2d_7">
      <g>
       <use xlink:href="#m5f48ca1d2c" x="519.438125" y="284.4" style="stroke: #000000; stroke-width: 0.8"/>
      </g>
     </g>
     <g id="text_7">
      <!-- 6 -->
      <g transform="translate(513.711875 305.077188)scale(0.18 -0.18)">
       <use xlink:href="#DejaVuSans-36"/>
      </g>
     </g>
    </g>
    <g id="text_8">
     <!-- x -->
     <g transform="translate(291.269844 326.177188)scale(0.18 -0.18)">
      <defs>
       <path id="Montserrat-Medium-78" d="M 2746 0 
L 1766 1299 
L 774 0 
L 90 0 
L 1427 1734 
L 154 3392 
L 838 3392 
L 1773 2170 
L 2701 3392 
L 3373 3392 
L 2093 1734 
L 3443 0 
L 2746 0 
z
" transform="scale(0.015625)"/>
      </defs>
      <use xlink:href="#Montserrat-Medium-78"/>
     </g>
    </g>
   </g>
   <g id="matplotlib.axis_2">
    <g id="ytick_1">
     <g id="line2d_8">
      <defs>
       <path id="mf7087f9318" d="M 0 0 
L -3.5 0 
" style="stroke: #000000; stroke-width: 0.8"/>
      </defs>
      <g>
       <use xlink:href="#mf7087f9318" x="73.038125" y="284.4" style="stroke: #000000; stroke-width: 0.8"/>
      </g>
     </g>
     <g id="text_9">
      <!-- −50 -->
      <g transform="translate(28.049687 291.238594)scale(0.18 -0.18)">
       <defs>
        <path id="DejaVuSans-35" d="M 691 4666 
L 3169 4666 
L 3169 4134 
L 1269 4134 
L 1269 2991 
Q 1406 3038 1543 3061 
Q 1681 3084 1819 3084 
Q 2600 3084 3056 2656 
Q 3513 2228 3513 1497 
Q 3513 744 3044 326 
Q 2575 -91 1722 -91 
Q 1428 -91 1123 -41 
Q 819 9 494 109 
L 494 744 
Q 775 591 1075 516 
Q 1375 441 1709 441 
Q 2250 441 2565 725 
Q 2881 1009 2881 1497 
Q 2881 1984 2565 2268 
Q 2250 2553 1709 2553 
Q 1456 2553 1204 2497 
Q 953 2441 691 2322 
L 691 4666 
z
" transform="scale(0.015625)"/>
       </defs>
       <use xlink:href="#DejaVuSans-2212"/>
       <use xlink:href="#DejaVuSans-35" x="83.789062"/>
       <use xlink:href="#DejaVuSans-30" x="147.412109"/>
      </g>
     </g>
    </g>
    <g id="ytick_2">
     <g id="line2d_9">
      <g>
       <use xlink:href="#mf7087f9318" x="73.038125" y="241.0875" style="stroke: #000000; stroke-width: 0.8"/>
      </g>
     </g>
     <g id="text_10">
      <!-- −25 -->
      <g transform="translate(28.049687 247.926094)scale(0.18 -0.18)">
       <use xlink:href="#DejaVuSans-2212"/>
       <use xlink:href="#DejaVuSans-32" x="83.789062"/>
       <use xlink:href="#DejaVuSans-35" x="147.412109"/>
      </g>
     </g>
    </g>
    <g id="ytick_3">
     <g id="line2d_10">
      <g>
       <use xlink:href="#mf7087f9318" x="73.038125" y="197.775" style="stroke: #000000; stroke-width: 0.8"/>
      </g>
     </g>
     <g id="text_11">
      <!-- 0 -->
      <g transform="translate(54.585625 204.613594)scale(0.18 -0.18)">
       <use xlink:href="#DejaVuSans-30"/>
      </g>
     </g>
    </g>
    <g id="ytick_4">
     <g id="line2d_11">
      <g>
       <use xlink:href="#mf7087f9318" x="73.038125" y="154.4625" style="stroke: #000000; stroke-width: 0.8"/>
      </g>
     </g>
     <g id="text_12">
      <!-- 25 -->
      <g transform="translate(43.133125 161.301094)scale(0.18 -0.18)">
       <use xlink:href="#DejaVuSans-32"/>
       <use xlink:href="#DejaVuSans-35" x="63.623047"/>
      </g>
     </g>
    </g>
    <g id="ytick_5">
     <g id="line2d_12">
      <g>
       <use xlink:href="#mf7087f9318" x="73.038125" y="111.15" style="stroke: #000000; stroke-width: 0.8"/>
      </g>
     </g>
     <g id="text_13">
      <!-- 50 -->
      <g transform="translate(43.133125 117.988594)scale(0.18 -0.18)">
       <use xlink:href="#DejaVuSans-35"/>
       <use xlink:href="#DejaVuSans-30" x="63.623047"/>
      </g>
     </g>
    </g>
    <g id="ytick_6">
     <g id="line2d_13">
      <g>
       <use xlink:href="#mf7087f9318" x="73.038125" y="67.8375" style="stroke: #000000; stroke-width: 0.8"/>
      </g>
     </g>
     <g id="text_14">
      <!-- 75 -->
      <g transform="translate(43.133125 74.676094)scale(0.18 -0.18)">
       <defs>
        <path id="DejaVuSans-37" d="M 525 4666 
L 3525 4666 
L 3525 4397 
L 1831 0 
L 1172 0 
L 2766 4134 
L 525 4134 
L 525 4666 
z
" transform="scale(0.015625)"/>
       </defs>
       <use xlink:href="#DejaVuSans-37"/>
       <use xlink:href="#DejaVuSans-35" x="63.623047"/>
      </g>
     </g>
    </g>
    <g id="ytick_7">
     <g id="line2d_14">
      <g>
       <use xlink:href="#mf7087f9318" x="73.038125" y="24.525" style="stroke: #000000; stroke-width: 0.8"/>
      </g>
     </g>
     <g id="text_15">
      <!-- 100 -->
      <g transform="translate(31.680625 31.363594)scale(0.18 -0.18)">
       <defs>
        <path id="DejaVuSans-31" d="M 794 531 
L 1825 531 
L 1825 4091 
L 703 3866 
L 703 4441 
L 1819 4666 
L 2450 4666 
L 2450 531 
L 3481 531 
L 3481 0 
L 794 0 
L 794 531 
z
" transform="scale(0.015625)"/>
       </defs>
       <use xlink:href="#DejaVuSans-31"/>
       <use xlink:href="#DejaVuSans-30" x="63.623047"/>
       <use xlink:href="#DejaVuSans-30" x="127.246094"/>
      </g>
     </g>
    </g>
    <g id="text_16">
     <!-- y -->
     <g transform="translate(20.449687 150.831562)rotate(-90)scale(0.18 -0.18)">
      <defs>
       <path id="Montserrat-Medium-79" d="M 3584 3392 
L 1939 -339 
Q 1722 -858 1430 -1069 
Q 1139 -1280 730 -1280 
Q 480 -1280 246 -1200 
Q 13 -1120 -141 -966 
L 122 -506 
Q 384 -755 730 -755 
Q 954 -755 1104 -636 
Q 1254 -518 1376 -230 
L 1485 6 
L -13 3392 
L 627 3392 
L 1811 678 
L 2982 3392 
L 3584 3392 
z
" transform="scale(0.015625)"/>
      </defs>
      <use xlink:href="#Montserrat-Medium-79"/>
     </g>
    </g>
   </g>
   <g id="patch_3">
    <path d="M 73.038125 284.4 
L 73.038125 7.2 
" style="fill: none; stroke: #000000; stroke-width: 0.8; stroke-linejoin: miter; stroke-linecap: square"/>
   </g>
   <g id="patch_4">
    <path d="M 519.438125 284.4 
L 519.438125 7.2 
" style="fill: none; stroke: #000000; stroke-width: 0.8; stroke-linejoin: miter; stroke-linecap: square"/>
   </g>
   <g id="patch_5">
    <path d="M 73.038125 284.4 
L 519.438125 284.4 
" style="fill: none; stroke: #000000; stroke-width: 0.8; stroke-linejoin: miter; stroke-linecap: square"/>
   </g>
   <g id="patch_6">
    <path d="M 73.038125 7.2 
L 519.438125 7.2 
" style="fill: none; stroke: #000000; stroke-width: 0.8; stroke-linejoin: miter; stroke-linecap: square"/>
   </g>
  </g>
 </g>
 <defs>
  <clipPath id="p0fe2b2900d">
   <rect x="73.038125" y="7.2" width="446.4" height="277.2"/>
  </clipPath>
 </defs>
</svg>
