<?xml version="1.0" encoding="utf-8" standalone="no"?>
<!DOCTYPE svg PUBLIC "-//W3C//DTD SVG 1.1//EN"
  "http://www.w3.org/Graphics/SVG/1.1/DTD/svg11.dtd">
<svg xmlns:xlink="http://www.w3.org/1999/xlink" width="534.729687pt" height="343.708906pt" viewBox="0 0 534.729687 343.708906" xmlns="http://www.w3.org/2000/svg" version="1.1">
 <metadata>
  <rdf:RDF xmlns:dc="http://purl.org/dc/elements/1.1/" xmlns:cc="http://creativecommons.org/ns#" xmlns:rdf="http://www.w3.org/1999/02/22-rdf-syntax-ns#">
   <cc:Work>
    <dc:type rdf:resource="http://purl.org/dc/dcmitype/StillImage"/>
    <dc:date>2022-11-05T13:19:19.184799</dc:date>
    <dc:format>image/svg+xml</dc:format>
    <dc:creator>
     <cc:Agent>
      <dc:title>Matplotlib v3.5.2, https://matplotlib.org/</dc:title>
     </cc:Agent>
    </dc:creator>
   </cc:Work>
  </rdf:RDF>
 </metadata>
 <defs>
  <style type="text/css">*{stroke-linejoin: round; stroke-linecap: butt}</style>
 </defs>
 <g id="figure_1">
  <g id="patch_1">
   <path d="M 0 343.708906 
L 534.729687 343.708906 
L 534.729687 0 
L 0 0 
z
" style="fill: #ffffff"/>
  </g>
  <g id="axes_1">
   <g id="patch_2">
    <path d="M 58.224688 291.238594 
L 504.624687 291.238594 
L 504.624687 14.038594 
L 58.224688 14.038594 
z
" style="fill: #f1f7f0"/>
   </g>
   <g id="matplotlib.axis_1">
    <g id="xtick_1">
     <g id="line2d_1">
      <defs>
       <path id="mb07e5c357f" d="M 0 0 
L 0 3.5 
" style="stroke: #000000; stroke-width: 0.8"/>
      </defs>
      <g>
       <use xlink:href="#mb07e5c357f" x="58.224688" y="291.238594" style="stroke: #000000; stroke-width: 0.8"/>
      </g>
     </g>
     <g id="text_1">
      <!-- 0 -->
      <g transform="translate(52.498438 311.915781)scale(0.18 -0.18)">
       <defs>
        <path id="DejaVuSans-30" d="M 2034 4250 
Q 1547 4250 1301 3770 
Q 1056 3291 1056 2328 
Q 1056 1369 1301 889 
Q 1547 409 2034 409 
Q 2525 409 2770 889 
Q 3016 1369 3016 2328 
Q 3016 3291 2770 3770 
Q 2525 4250 2034 4250 
z
M 2034 4750 
Q 2819 4750 3233 4129 
Q 3647 3509 3647 2328 
Q 3647 1150 3233 529 
Q 2819 -91 2034 -91 
Q 1250 -91 836 529 
Q 422 1150 422 2328 
Q 422 3509 836 4129 
Q 1250 4750 2034 4750 
z
" transform="scale(0.015625)"/>
       </defs>
       <use xlink:href="#DejaVuSans-30"/>
      </g>
     </g>
    </g>
    <g id="xtick_2">
     <g id="line2d_2">
      <g>
       <use xlink:href="#mb07e5c357f" x="147.504687" y="291.238594" style="stroke: #000000; stroke-width: 0.8"/>
      </g>
     </g>
     <g id="text_2">
      <!-- 200 -->
      <g transform="translate(130.325937 311.915781)scale(0.18 -0.18)">
       <defs>
        <path id="DejaVuSans-32" d="M 1228 531 
L 3431 531 
L 3431 0 
L 469 0 
L 469 531 
Q 828 903 1448 1529 
Q 2069 2156 2228 2338 
Q 2531 2678 2651 2914 
Q 2772 3150 2772 3378 
Q 2772 3750 2511 3984 
Q 2250 4219 1831 4219 
Q 1534 4219 1204 4116 
Q 875 4013 500 3803 
L 500 4441 
Q 881 4594 1212 4672 
Q 1544 4750 1819 4750 
Q 2544 4750 2975 4387 
Q 3406 4025 3406 3419 
Q 3406 3131 3298 2873 
Q 3191 2616 2906 2266 
Q 2828 2175 2409 1742 
Q 1991 1309 1228 531 
z
" transform="scale(0.015625)"/>
       </defs>
       <use xlink:href="#DejaVuSans-32"/>
       <use xlink:href="#DejaVuSans-30" x="63.623047"/>
       <use xlink:href="#DejaVuSans-30" x="127.246094"/>
      </g>
     </g>
    </g>
    <g id="xtick_3">
     <g id="line2d_3">
      <g>
       <use xlink:href="#mb07e5c357f" x="236.784687" y="291.238594" style="stroke: #000000; stroke-width: 0.8"/>
      </g>
     </g>
     <g id="text_3">
      <!-- 400 -->
      <g transform="translate(219.605937 311.915781)scale(0.18 -0.18)">
       <defs>
        <path id="DejaVuSans-34" d="M 2419 4116 
L 825 1625 
L 2419 1625 
L 2419 4116 
z
M 2253 4666 
L 3047 4666 
L 3047 1625 
L 3713 1625 
L 3713 1100 
L 3047 1100 
L 3047 0 
L 2419 0 
L 2419 1100 
L 313 1100 
L 313 1709 
L 2253 4666 
z
" transform="scale(0.015625)"/>
       </defs>
       <use xlink:href="#DejaVuSans-34"/>
       <use xlink:href="#DejaVuSans-30" x="63.623047"/>
       <use xlink:href="#DejaVuSans-30" x="127.246094"/>
      </g>
     </g>
    </g>
    <g id="xtick_4">
     <g id="line2d_4">
      <g>
       <use xlink:href="#mb07e5c357f" x="326.064687" y="291.238594" style="stroke: #000000; stroke-width: 0.8"/>
      </g>
     </g>
     <g id="text_4">
      <!-- 600 -->
      <g transform="translate(308.885938 311.915781)scale(0.18 -0.18)">
       <defs>
        <path id="DejaVuSans-36" d="M 2113 2584 
Q 1688 2584 1439 2293 
Q 1191 2003 1191 1497 
Q 1191 994 1439 701 
Q 1688 409 2113 409 
Q 2538 409 2786 701 
Q 3034 994 3034 1497 
Q 3034 2003 2786 2293 
Q 2538 2584 2113 2584 
z
M 3366 4563 
L 3366 3988 
Q 3128 4100 2886 4159 
Q 2644 4219 2406 4219 
Q 1781 4219 1451 3797 
Q 1122 3375 1075 2522 
Q 1259 2794 1537 2939 
Q 1816 3084 2150 3084 
Q 2853 3084 3261 2657 
Q 3669 2231 3669 1497 
Q 3669 778 3244 343 
Q 2819 -91 2113 -91 
Q 1303 -91 875 529 
Q 447 1150 447 2328 
Q 447 3434 972 4092 
Q 1497 4750 2381 4750 
Q 2619 4750 2861 4703 
Q 3103 4656 3366 4563 
z
" transform="scale(0.015625)"/>
       </defs>
       <use xlink:href="#DejaVuSans-36"/>
       <use xlink:href="#DejaVuSans-30" x="63.623047"/>
       <use xlink:href="#DejaVuSans-30" x="127.246094"/>
      </g>
     </g>
    </g>
    <g id="xtick_5">
     <g id="line2d_5">
      <g>
       <use xlink:href="#mb07e5c357f" x="415.344687" y="291.238594" style="stroke: #000000; stroke-width: 0.8"/>
      </g>
     </g>
     <g id="text_5">
      <!-- 800 -->
      <g transform="translate(398.165937 311.915781)scale(0.18 -0.18)">
       <defs>
        <path id="DejaVuSans-38" d="M 2034 2216 
Q 1584 2216 1326 1975 
Q 1069 1734 1069 1313 
Q 1069 891 1326 650 
Q 1584 409 2034 409 
Q 2484 409 2743 651 
Q 3003 894 3003 1313 
Q 3003 1734 2745 1975 
Q 2488 2216 2034 2216 
z
M 1403 2484 
Q 997 2584 770 2862 
Q 544 3141 544 3541 
Q 544 4100 942 4425 
Q 1341 4750 2034 4750 
Q 2731 4750 3128 4425 
Q 3525 4100 3525 3541 
Q 3525 3141 3298 2862 
Q 3072 2584 2669 2484 
Q 3125 2378 3379 2068 
Q 3634 1759 3634 1313 
Q 3634 634 3220 271 
Q 2806 -91 2034 -91 
Q 1263 -91 848 271 
Q 434 634 434 1313 
Q 434 1759 690 2068 
Q 947 2378 1403 2484 
z
M 1172 3481 
Q 1172 3119 1398 2916 
Q 1625 2713 2034 2713 
Q 2441 2713 2670 2916 
Q 2900 3119 2900 3481 
Q 2900 3844 2670 4047 
Q 2441 4250 2034 4250 
Q 1625 4250 1398 4047 
Q 1172 3844 1172 3481 
z
" transform="scale(0.015625)"/>
       </defs>
       <use xlink:href="#DejaVuSans-38"/>
       <use xlink:href="#DejaVuSans-30" x="63.623047"/>
       <use xlink:href="#DejaVuSans-30" x="127.246094"/>
      </g>
     </g>
    </g>
    <g id="xtick_6">
     <g id="line2d_6">
      <g>
       <use xlink:href="#mb07e5c357f" x="504.624687" y="291.238594" style="stroke: #000000; stroke-width: 0.8"/>
      </g>
     </g>
     <g id="text_6">
      <!-- 1000 -->
      <g transform="translate(481.719688 311.915781)scale(0.18 -0.18)">
       <defs>
        <path id="DejaVuSans-31" d="M 794 531 
L 1825 531 
L 1825 4091 
L 703 3866 
L 703 4441 
L 1819 4666 
L 2450 4666 
L 2450 531 
L 3481 531 
L 3481 0 
L 794 0 
L 794 531 
z
" transform="scale(0.015625)"/>
       </defs>
       <use xlink:href="#DejaVuSans-31"/>
       <use xlink:href="#DejaVuSans-30" x="63.623047"/>
       <use xlink:href="#DejaVuSans-30" x="127.246094"/>
       <use xlink:href="#DejaVuSans-30" x="190.869141"/>
      </g>
     </g>
    </g>
    <g id="text_7">
     <!-- Number of Iterations -->
     <g transform="translate(185.751875 333.015781)scale(0.18 -0.18)">
      <defs>
       <path id="Montserrat-Medium-4e" d="M 4525 4480 
L 4525 0 
L 4000 0 
L 1312 3341 
L 1312 0 
L 672 0 
L 672 4480 
L 1197 4480 
L 3885 1139 
L 3885 4480 
L 4525 4480 
z
" transform="scale(0.015625)"/>
       <path id="Montserrat-Medium-75" d="M 3744 3392 
L 3744 0 
L 3162 0 
L 3162 512 
Q 2976 250 2672 106 
Q 2368 -38 2010 -38 
Q 1331 -38 940 336 
Q 550 710 550 1440 
L 550 3392 
L 1165 3392 
L 1165 1510 
Q 1165 1018 1401 765 
Q 1638 512 2080 512 
Q 2566 512 2848 806 
Q 3130 1101 3130 1638 
L 3130 3392 
L 3744 3392 
z
" transform="scale(0.015625)"/>
       <path id="Montserrat-Medium-6d" d="M 4826 3424 
Q 5466 3424 5840 3053 
Q 6214 2682 6214 1952 
L 6214 0 
L 5600 0 
L 5600 1882 
Q 5600 2374 5373 2624 
Q 5146 2874 4723 2874 
Q 4256 2874 3981 2582 
Q 3706 2291 3706 1747 
L 3706 0 
L 3091 0 
L 3091 1882 
Q 3091 2374 2864 2624 
Q 2637 2874 2214 2874 
Q 1747 2874 1472 2582 
Q 1197 2291 1197 1747 
L 1197 0 
L 582 0 
L 582 3392 
L 1171 3392 
L 1171 2886 
Q 1357 3149 1657 3286 
Q 1958 3424 2342 3424 
Q 2739 3424 3046 3264 
Q 3354 3104 3520 2797 
Q 3712 3091 4054 3257 
Q 4397 3424 4826 3424 
z
" transform="scale(0.015625)"/>
       <path id="Montserrat-Medium-62" d="M 2381 3424 
Q 2874 3424 3264 3206 
Q 3654 2989 3875 2598 
Q 4096 2208 4096 1696 
Q 4096 1184 3875 790 
Q 3654 397 3264 179 
Q 2874 -38 2381 -38 
Q 2003 -38 1689 109 
Q 1376 256 1171 538 
L 1171 0 
L 582 0 
L 582 4749 
L 1197 4749 
L 1197 2880 
Q 1402 3149 1709 3286 
Q 2016 3424 2381 3424 
z
M 2330 499 
Q 2656 499 2915 649 
Q 3174 800 3324 1072 
Q 3475 1344 3475 1696 
Q 3475 2048 3324 2320 
Q 3174 2592 2915 2739 
Q 2656 2886 2330 2886 
Q 2010 2886 1747 2739 
Q 1485 2592 1337 2320 
Q 1190 2048 1190 1696 
Q 1190 1344 1337 1072 
Q 1485 800 1747 649 
Q 2010 499 2330 499 
z
" transform="scale(0.015625)"/>
       <path id="Montserrat-Medium-65" d="M 3648 1677 
Q 3648 1606 3635 1491 
L 883 1491 
Q 941 1043 1277 771 
Q 1613 499 2112 499 
Q 2720 499 3091 909 
L 3430 512 
Q 3200 243 2857 102 
Q 2515 -38 2093 -38 
Q 1555 -38 1139 182 
Q 723 403 496 800 
Q 269 1197 269 1696 
Q 269 2189 489 2585 
Q 710 2982 1097 3203 
Q 1485 3424 1971 3424 
Q 2458 3424 2838 3203 
Q 3219 2982 3433 2585 
Q 3648 2189 3648 1677 
z
M 1971 2906 
Q 1530 2906 1232 2637 
Q 934 2368 883 1933 
L 3059 1933 
Q 3008 2362 2710 2634 
Q 2413 2906 1971 2906 
z
" transform="scale(0.015625)"/>
       <path id="Montserrat-Medium-72" d="M 1171 2822 
Q 1331 3117 1644 3270 
Q 1958 3424 2406 3424 
L 2406 2829 
Q 2355 2835 2266 2835 
Q 1766 2835 1481 2537 
Q 1197 2240 1197 1690 
L 1197 0 
L 582 0 
L 582 3392 
L 1171 3392 
L 1171 2822 
z
" transform="scale(0.015625)"/>
       <path id="Montserrat-Medium-20" transform="scale(0.015625)"/>
       <path id="Montserrat-Medium-6f" d="M 2035 -38 
Q 1530 -38 1126 186 
Q 723 410 496 803 
Q 269 1197 269 1696 
Q 269 2195 496 2588 
Q 723 2982 1126 3203 
Q 1530 3424 2035 3424 
Q 2541 3424 2941 3203 
Q 3341 2982 3568 2588 
Q 3795 2195 3795 1696 
Q 3795 1197 3568 803 
Q 3341 410 2941 186 
Q 2541 -38 2035 -38 
z
M 2035 499 
Q 2362 499 2621 649 
Q 2880 800 3027 1072 
Q 3174 1344 3174 1696 
Q 3174 2048 3027 2320 
Q 2880 2592 2621 2739 
Q 2362 2886 2035 2886 
Q 1709 2886 1449 2739 
Q 1190 2592 1040 2320 
Q 890 2048 890 1696 
Q 890 1344 1040 1072 
Q 1190 800 1449 649 
Q 1709 499 2035 499 
z
" transform="scale(0.015625)"/>
       <path id="Montserrat-Medium-66" d="M 1824 4282 
Q 1274 4282 1274 3686 
L 1274 3392 
L 2259 3392 
L 2259 2886 
L 1286 2886 
L 1286 0 
L 672 0 
L 672 2886 
L 96 2886 
L 96 3392 
L 672 3392 
L 672 3693 
Q 672 4198 966 4492 
Q 1261 4787 1792 4787 
Q 1997 4787 2176 4736 
Q 2355 4685 2483 4589 
L 2298 4122 
Q 2086 4282 1824 4282 
z
" transform="scale(0.015625)"/>
       <path id="Montserrat-Medium-49" d="M 672 4480 
L 1312 4480 
L 1312 0 
L 672 0 
L 672 4480 
z
" transform="scale(0.015625)"/>
       <path id="Montserrat-Medium-74" d="M 2490 198 
Q 2355 83 2156 22 
Q 1958 -38 1747 -38 
Q 1235 -38 953 237 
Q 672 512 672 1024 
L 672 2886 
L 96 2886 
L 96 3392 
L 672 3392 
L 672 4134 
L 1286 4134 
L 1286 3392 
L 2259 3392 
L 2259 2886 
L 1286 2886 
L 1286 1050 
Q 1286 774 1424 627 
Q 1562 480 1818 480 
Q 2099 480 2298 640 
L 2490 198 
z
" transform="scale(0.015625)"/>
       <path id="Montserrat-Medium-61" d="M 1818 3424 
Q 2522 3424 2896 3078 
Q 3270 2733 3270 2048 
L 3270 0 
L 2688 0 
L 2688 448 
Q 2534 211 2249 86 
Q 1965 -38 1574 -38 
Q 1005 -38 662 237 
Q 320 512 320 960 
Q 320 1408 646 1680 
Q 973 1952 1683 1952 
L 2656 1952 
L 2656 2074 
Q 2656 2470 2425 2681 
Q 2195 2893 1747 2893 
Q 1446 2893 1158 2793 
Q 870 2694 672 2528 
L 416 2989 
Q 678 3200 1043 3312 
Q 1408 3424 1818 3424 
z
M 1677 435 
Q 2029 435 2285 592 
Q 2541 749 2656 1037 
L 2656 1510 
L 1709 1510 
Q 928 1510 928 986 
Q 928 730 1126 582 
Q 1325 435 1677 435 
z
" transform="scale(0.015625)"/>
       <path id="Montserrat-Medium-69" d="M 582 3392 
L 1197 3392 
L 1197 0 
L 582 0 
L 582 3392 
z
M 890 4045 
Q 710 4045 592 4160 
Q 474 4275 474 4442 
Q 474 4608 592 4726 
Q 710 4845 890 4845 
Q 1069 4845 1187 4733 
Q 1306 4621 1306 4454 
Q 1306 4282 1187 4163 
Q 1069 4045 890 4045 
z
" transform="scale(0.015625)"/>
       <path id="Montserrat-Medium-6e" d="M 2394 3424 
Q 3040 3424 3421 3049 
Q 3802 2675 3802 1952 
L 3802 0 
L 3187 0 
L 3187 1882 
Q 3187 2374 2950 2624 
Q 2714 2874 2272 2874 
Q 1773 2874 1485 2582 
Q 1197 2291 1197 1747 
L 1197 0 
L 582 0 
L 582 3392 
L 1171 3392 
L 1171 2880 
Q 1357 3142 1673 3283 
Q 1990 3424 2394 3424 
z
" transform="scale(0.015625)"/>
       <path id="Montserrat-Medium-73" d="M 1555 -38 
Q 1139 -38 755 74 
Q 371 186 154 358 
L 410 845 
Q 634 685 954 589 
Q 1274 493 1600 493 
Q 2406 493 2406 954 
Q 2406 1107 2297 1196 
Q 2189 1286 2025 1328 
Q 1862 1370 1562 1421 
Q 1152 1485 893 1568 
Q 634 1651 448 1849 
Q 262 2048 262 2406 
Q 262 2867 646 3145 
Q 1030 3424 1677 3424 
Q 2016 3424 2355 3341 
Q 2694 3258 2912 3117 
L 2650 2630 
Q 2234 2899 1670 2899 
Q 1280 2899 1075 2771 
Q 870 2643 870 2432 
Q 870 2266 985 2170 
Q 1101 2074 1270 2029 
Q 1440 1984 1747 1926 
Q 2157 1856 2409 1776 
Q 2662 1696 2841 1504 
Q 3021 1312 3021 966 
Q 3021 506 2627 234 
Q 2234 -38 1555 -38 
z
" transform="scale(0.015625)"/>
      </defs>
      <use xlink:href="#Montserrat-Medium-4e"/>
      <use xlink:href="#Montserrat-Medium-75" x="81.199982"/>
      <use xlink:href="#Montserrat-Medium-6d" x="148.899963"/>
      <use xlink:href="#Montserrat-Medium-62" x="254.599945"/>
      <use xlink:href="#Montserrat-Medium-65" x="322.799927"/>
      <use xlink:href="#Montserrat-Medium-72" x="383.999924"/>
      <use xlink:href="#Montserrat-Medium-20" x="424.999908"/>
      <use xlink:href="#Montserrat-Medium-6f" x="451.899902"/>
      <use xlink:href="#Montserrat-Medium-66" x="515.399887"/>
      <use xlink:href="#Montserrat-Medium-20" x="550.699875"/>
      <use xlink:href="#Montserrat-Medium-49" x="577.599869"/>
      <use xlink:href="#Montserrat-Medium-74" x="608.599854"/>
      <use xlink:href="#Montserrat-Medium-65" x="649.999847"/>
      <use xlink:href="#Montserrat-Medium-72" x="711.199844"/>
      <use xlink:href="#Montserrat-Medium-61" x="752.199829"/>
      <use xlink:href="#Montserrat-Medium-74" x="811.999817"/>
      <use xlink:href="#Montserrat-Medium-69" x="853.399811"/>
      <use xlink:href="#Montserrat-Medium-6f" x="881.299805"/>
      <use xlink:href="#Montserrat-Medium-6e" x="944.799789"/>
      <use xlink:href="#Montserrat-Medium-73" x="1012.89978"/>
     </g>
    </g>
   </g>
   <g id="matplotlib.axis_2">
    <g id="ytick_1">
     <g id="line2d_7">
      <defs>
       <path id="m95fba8aa8e" d="M 0 0 
L -3.5 0 
" style="stroke: #000000; stroke-width: 0.8"/>
      </defs>
      <g>
       <use xlink:href="#m95fba8aa8e" x="58.224688" y="291.238594" style="stroke: #000000; stroke-width: 0.8"/>
      </g>
     </g>
     <g id="text_8">
      <!-- 0 -->
      <g transform="translate(39.772188 298.077188)scale(0.18 -0.18)">
       <use xlink:href="#DejaVuSans-30"/>
      </g>
     </g>
    </g>
    <g id="ytick_2">
     <g id="line2d_8">
      <g>
       <use xlink:href="#m95fba8aa8e" x="58.224688" y="235.798594" style="stroke: #000000; stroke-width: 0.8"/>
      </g>
     </g>
     <g id="text_9">
      <!-- 10 -->
      <g transform="translate(28.319688 242.637188)scale(0.18 -0.18)">
       <use xlink:href="#DejaVuSans-31"/>
       <use xlink:href="#DejaVuSans-30" x="63.623047"/>
      </g>
     </g>
    </g>
    <g id="ytick_3">
     <g id="line2d_9">
      <g>
       <use xlink:href="#m95fba8aa8e" x="58.224688" y="180.358594" style="stroke: #000000; stroke-width: 0.8"/>
      </g>
     </g>
     <g id="text_10">
      <!-- 20 -->
      <g transform="translate(28.319688 187.197188)scale(0.18 -0.18)">
       <use xlink:href="#DejaVuSans-32"/>
       <use xlink:href="#DejaVuSans-30" x="63.623047"/>
      </g>
     </g>
    </g>
    <g id="ytick_4">
     <g id="line2d_10">
      <g>
       <use xlink:href="#m95fba8aa8e" x="58.224688" y="124.918594" style="stroke: #000000; stroke-width: 0.8"/>
      </g>
     </g>
     <g id="text_11">
      <!-- 30 -->
      <g transform="translate(28.319688 131.757187)scale(0.18 -0.18)">
       <defs>
        <path id="DejaVuSans-33" d="M 2597 2516 
Q 3050 2419 3304 2112 
Q 3559 1806 3559 1356 
Q 3559 666 3084 287 
Q 2609 -91 1734 -91 
Q 1441 -91 1130 -33 
Q 819 25 488 141 
L 488 750 
Q 750 597 1062 519 
Q 1375 441 1716 441 
Q 2309 441 2620 675 
Q 2931 909 2931 1356 
Q 2931 1769 2642 2001 
Q 2353 2234 1838 2234 
L 1294 2234 
L 1294 2753 
L 1863 2753 
Q 2328 2753 2575 2939 
Q 2822 3125 2822 3475 
Q 2822 3834 2567 4026 
Q 2313 4219 1838 4219 
Q 1578 4219 1281 4162 
Q 984 4106 628 3988 
L 628 4550 
Q 988 4650 1302 4700 
Q 1616 4750 1894 4750 
Q 2613 4750 3031 4423 
Q 3450 4097 3450 3541 
Q 3450 3153 3228 2886 
Q 3006 2619 2597 2516 
z
" transform="scale(0.015625)"/>
       </defs>
       <use xlink:href="#DejaVuSans-33"/>
       <use xlink:href="#DejaVuSans-30" x="63.623047"/>
      </g>
     </g>
    </g>
    <g id="ytick_5">
     <g id="line2d_11">
      <g>
       <use xlink:href="#m95fba8aa8e" x="58.224688" y="69.478594" style="stroke: #000000; stroke-width: 0.8"/>
      </g>
     </g>
     <g id="text_12">
      <!-- 40 -->
      <g transform="translate(28.319688 76.317187)scale(0.18 -0.18)">
       <use xlink:href="#DejaVuSans-34"/>
       <use xlink:href="#DejaVuSans-30" x="63.623047"/>
      </g>
     </g>
    </g>
    <g id="ytick_6">
     <g id="line2d_12">
      <g>
       <use xlink:href="#m95fba8aa8e" x="58.224688" y="14.038594" style="stroke: #000000; stroke-width: 0.8"/>
      </g>
     </g>
     <g id="text_13">
      <!-- 50 -->
      <g transform="translate(28.319688 20.877187)scale(0.18 -0.18)">
       <defs>
        <path id="DejaVuSans-35" d="M 691 4666 
L 3169 4666 
L 3169 4134 
L 1269 4134 
L 1269 2991 
Q 1406 3038 1543 3061 
Q 1681 3084 1819 3084 
Q 2600 3084 3056 2656 
Q 3513 2228 3513 1497 
Q 3513 744 3044 326 
Q 2575 -91 1722 -91 
Q 1428 -91 1123 -41 
Q 819 9 494 109 
L 494 744 
Q 775 591 1075 516 
Q 1375 441 1709 441 
Q 2250 441 2565 725 
Q 2881 1009 2881 1497 
Q 2881 1984 2565 2268 
Q 2250 2553 1709 2553 
Q 1456 2553 1204 2497 
Q 953 2441 691 2322 
L 691 4666 
z
" transform="scale(0.015625)"/>
       </defs>
       <use xlink:href="#DejaVuSans-35"/>
       <use xlink:href="#DejaVuSans-30" x="63.623047"/>
      </g>
     </g>
    </g>
    <g id="text_14">
     <!-- Cost Function (MSE) -->
     <g transform="translate(20.826562 245.383594)rotate(-90)scale(0.18 -0.18)">
      <defs>
       <path id="Montserrat-Medium-43" d="M 2675 -51 
Q 2003 -51 1462 246 
Q 922 544 614 1065 
Q 307 1587 307 2240 
Q 307 2893 614 3414 
Q 922 3936 1466 4233 
Q 2010 4531 2682 4531 
Q 3206 4531 3641 4355 
Q 4077 4179 4384 3834 
L 3968 3430 
Q 3462 3962 2707 3962 
Q 2208 3962 1805 3738 
Q 1402 3514 1174 3120 
Q 947 2726 947 2240 
Q 947 1754 1174 1360 
Q 1402 966 1805 742 
Q 2208 518 2707 518 
Q 3456 518 3968 1056 
L 4384 653 
Q 4077 307 3638 128 
Q 3200 -51 2675 -51 
z
" transform="scale(0.015625)"/>
       <path id="Montserrat-Medium-46" d="M 1312 3923 
L 1312 2362 
L 3558 2362 
L 3558 1811 
L 1312 1811 
L 1312 0 
L 672 0 
L 672 4480 
L 3834 4480 
L 3834 3923 
L 1312 3923 
z
" transform="scale(0.015625)"/>
       <path id="Montserrat-Medium-63" d="M 2061 -38 
Q 1542 -38 1136 186 
Q 730 410 499 803 
Q 269 1197 269 1696 
Q 269 2195 499 2588 
Q 730 2982 1136 3203 
Q 1542 3424 2061 3424 
Q 2522 3424 2883 3238 
Q 3245 3053 3443 2701 
L 2976 2400 
Q 2816 2643 2579 2764 
Q 2342 2886 2054 2886 
Q 1722 2886 1456 2739 
Q 1190 2592 1040 2320 
Q 890 2048 890 1696 
Q 890 1338 1040 1066 
Q 1190 794 1456 646 
Q 1722 499 2054 499 
Q 2342 499 2579 620 
Q 2816 742 2976 986 
L 3443 691 
Q 3245 339 2883 150 
Q 2522 -38 2061 -38 
z
" transform="scale(0.015625)"/>
       <path id="Montserrat-Medium-28" d="M 1370 -1242 
Q 1005 -653 806 112 
Q 608 877 608 1754 
Q 608 2630 806 3401 
Q 1005 4173 1370 4749 
L 1952 4749 
Q 1568 4077 1389 3341 
Q 1210 2605 1210 1754 
Q 1210 902 1389 166 
Q 1568 -570 1952 -1242 
L 1370 -1242 
z
" transform="scale(0.015625)"/>
       <path id="Montserrat-Medium-4d" d="M 4826 0 
L 4819 3264 
L 3200 544 
L 2906 544 
L 1286 3245 
L 1286 0 
L 672 0 
L 672 4480 
L 1197 4480 
L 3066 1331 
L 4909 4480 
L 5434 4480 
L 5440 0 
L 4826 0 
z
" transform="scale(0.015625)"/>
       <path id="Montserrat-Medium-53" d="M 1978 -51 
Q 1472 -51 1001 105 
Q 531 262 262 512 
L 499 1011 
Q 755 781 1155 637 
Q 1555 493 1978 493 
Q 2534 493 2809 681 
Q 3085 870 3085 1184 
Q 3085 1414 2934 1558 
Q 2784 1702 2563 1779 
Q 2342 1856 1939 1952 
Q 1434 2074 1123 2195 
Q 813 2317 592 2569 
Q 371 2822 371 3251 
Q 371 3610 560 3898 
Q 749 4186 1133 4358 
Q 1517 4531 2086 4531 
Q 2483 4531 2867 4428 
Q 3251 4326 3526 4134 
L 3315 3622 
Q 3034 3802 2714 3894 
Q 2394 3987 2086 3987 
Q 1542 3987 1270 3788 
Q 998 3590 998 3277 
Q 998 3046 1152 2902 
Q 1306 2758 1533 2678 
Q 1760 2598 2150 2509 
Q 2656 2387 2963 2265 
Q 3270 2144 3491 1894 
Q 3712 1645 3712 1222 
Q 3712 870 3520 579 
Q 3328 288 2937 118 
Q 2547 -51 1978 -51 
z
" transform="scale(0.015625)"/>
       <path id="Montserrat-Medium-45" d="M 3923 557 
L 3923 0 
L 672 0 
L 672 4480 
L 3834 4480 
L 3834 3923 
L 1312 3923 
L 1312 2547 
L 3558 2547 
L 3558 2003 
L 1312 2003 
L 1312 557 
L 3923 557 
z
" transform="scale(0.015625)"/>
       <path id="Montserrat-Medium-29" d="M 205 -1242 
Q 589 -570 771 166 
Q 954 902 954 1754 
Q 954 2605 771 3341 
Q 589 4077 205 4749 
L 787 4749 
Q 1158 4173 1356 3405 
Q 1555 2637 1555 1754 
Q 1555 877 1356 109 
Q 1158 -659 787 -1242 
L 205 -1242 
z
" transform="scale(0.015625)"/>
      </defs>
      <use xlink:href="#Montserrat-Medium-43"/>
      <use xlink:href="#Montserrat-Medium-6f" x="72.299988"/>
      <use xlink:href="#Montserrat-Medium-73" x="135.799973"/>
      <use xlink:href="#Montserrat-Medium-74" x="185.899963"/>
      <use xlink:href="#Montserrat-Medium-20" x="227.299957"/>
      <use xlink:href="#Montserrat-Medium-46" x="254.199951"/>
      <use xlink:href="#Montserrat-Medium-75" x="317.699936"/>
      <use xlink:href="#Montserrat-Medium-6e" x="385.399918"/>
      <use xlink:href="#Montserrat-Medium-63" x="453.499908"/>
      <use xlink:href="#Montserrat-Medium-74" x="510.599899"/>
      <use xlink:href="#Montserrat-Medium-69" x="551.999893"/>
      <use xlink:href="#Montserrat-Medium-6f" x="579.899887"/>
      <use xlink:href="#Montserrat-Medium-6e" x="643.399872"/>
      <use xlink:href="#Montserrat-Medium-20" x="711.499863"/>
      <use xlink:href="#Montserrat-Medium-28" x="738.399857"/>
      <use xlink:href="#Montserrat-Medium-4d" x="772.099854"/>
      <use xlink:href="#Montserrat-Medium-53" x="867.599838"/>
      <use xlink:href="#Montserrat-Medium-45" x="929.699829"/>
      <use xlink:href="#Montserrat-Medium-29" x="996.699814"/>
     </g>
    </g>
   </g>
   <g id="line2d_13">
    <path d="M 74.422535 -1 
L 74.741488 47.663327 
L 75.187888 96.143465 
L 75.634287 126.84619 
L 76.080687 145.482208 
L 76.527087 155.06145 
L 76.973488 159.95037 
L 77.419888 163.458619 
L 78.312687 168.079172 
L 79.205488 171.146937 
L 80.098287 173.04833 
L 81.883888 175.261878 
L 82.330287 175.535362 
L 84.562287 177.654418 
L 85.455088 178.390445 
L 87.687088 180.199249 
L 89.472688 181.460768 
L 89.919088 181.929666 
L 91.258287 182.802229 
L 91.704688 183.228184 
L 92.151087 183.407948 
L 93.043887 184.092362 
L 93.936688 184.720033 
L 94.829487 185.244901 
L 95.722287 185.8333 
L 96.168688 186.039849 
L 96.615088 186.421741 
L 97.507887 186.964628 
L 97.954287 187.217259 
L 98.847088 188.097986 
L 99.293487 187.992665 
L 100.186287 188.623065 
L 100.632688 188.738399 
L 101.525487 189.298395 
L 101.971888 189.435143 
L 103.311087 190.222339 
L 103.757487 190.330895 
L 105.096688 191.033771 
L 108.221487 192.487849 
L 109.114287 192.727823 
L 110.007087 193.199354 
L 110.899888 193.506962 
L 111.346287 193.76855 
L 112.239087 194.004886 
L 112.685487 194.16145 
L 113.131888 194.474525 
L 113.578287 194.414568 
L 114.471087 194.856681 
L 114.917487 194.92184 
L 115.810287 195.283842 
L 119.827888 196.421885 
L 120.274287 196.738935 
L 120.720687 196.659363 
L 122.059888 197.022518 
L 124.738287 197.648117 
L 125.184687 197.882539 
L 126.077487 198.077784 
L 133.666288 199.545481 
L 134.112687 199.39964 
L 135.898287 199.74964 
L 136.344687 199.677724 
L 136.791088 199.820541 
L 137.237487 199.829286 
L 138.130288 199.994077 
L 138.576687 199.986791 
L 139.469488 200.148346 
L 142.594288 200.475918 
L 143.040687 200.607589 
L 144.379887 200.586071 
L 144.826287 200.883537 
L 145.272687 200.643405 
L 145.719088 200.785693 
L 150.183087 201.075631 
L 151.075887 201.221409 
L 151.522288 201.198885 
L 151.968687 201.344906 
L 153.307887 201.197659 
L 154.200688 201.396065 
L 157.325488 201.473702 
L 157.771887 201.656448 
L 158.218287 201.50312 
L 162.682287 201.799444 
L 163.128688 201.712798 
L 163.575087 201.893937 
L 164.021487 201.76198 
L 168.931887 201.915582 
L 175.181488 202.102833 
L 175.627887 202.157989 
L 176.520688 202.057205 
L 178.306287 202.145331 
L 178.752687 202.0098 
L 179.199087 202.214667 
L 180.091887 202.150576 
L 180.538287 202.09395 
L 181.431087 202.23976 
L 183.663087 202.17183 
L 184.109488 202.238132 
L 184.555887 202.164936 
L 185.448688 202.186994 
L 189.019887 202.365246 
L 189.466287 202.252608 
L 191.251888 202.340142 
L 191.698287 202.228805 
L 193.483887 202.33163 
L 193.930287 202.189997 
L 194.376688 202.372256 
L 195.715888 202.257884 
L 196.162287 202.357526 
L 197.055088 202.256531 
L 197.947887 202.32611 
L 198.394288 202.210955 
L 198.840688 202.350653 
L 200.626287 202.41982 
L 201.519088 202.285092 
L 203.304688 202.38945 
L 212.232687 202.371347 
L 212.679087 202.485423 
L 213.571888 202.451807 
L 216.696687 202.48978 
L 218.035888 202.35299 
L 219.375088 202.458078 
L 219.821487 202.346804 
L 220.267887 202.448762 
L 221.160687 202.426038 
L 227.856687 202.560712 
L 228.303088 202.416922 
L 229.642288 202.598368 
L 230.535087 202.405798 
L 232.320687 202.539204 
L 232.767088 202.494157 
L 233.213487 202.71128 
L 233.659887 202.469551 
L 234.106288 202.559184 
L 234.999087 202.413856 
L 235.445488 202.58386 
L 236.784687 202.417673 
L 237.231088 202.546432 
L 238.123887 202.504129 
L 240.355887 202.556588 
L 240.802287 202.416626 
L 241.695087 202.677559 
L 242.141487 202.419862 
L 242.587887 202.524908 
L 243.480687 202.376454 
L 243.927087 202.601699 
L 244.373488 202.478412 
L 253.301488 202.522867 
L 254.194287 202.524315 
L 256.426288 202.486935 
L 257.765488 202.528461 
L 259.104688 202.573798 
L 259.551087 202.475515 
L 259.997487 202.561146 
L 260.890287 202.546691 
L 261.336687 202.647824 
L 261.783087 202.402827 
L 262.229488 202.545089 
L 266.247087 202.530004 
L 266.693488 202.81741 
L 267.139887 202.542281 
L 268.032688 202.551687 
L 269.371887 202.581946 
L 269.818287 202.521799 
L 271.157488 202.603893 
L 271.603887 202.539786 
L 272.050287 202.615408 
L 272.496688 202.496315 
L 272.943087 202.617259 
L 273.389487 202.426778 
L 274.282287 202.61231 
L 277.407087 202.601556 
L 277.853487 202.648199 
L 278.746287 202.533092 
L 281.424688 202.537401 
L 281.871087 202.679848 
L 283.210287 202.555446 
L 283.656687 202.660978 
L 284.995887 202.538131 
L 285.442287 202.699305 
L 285.888688 202.543735 
L 289.013487 202.59123 
L 290.352688 202.690132 
L 290.799087 202.515856 
L 291.245487 202.651308 
L 293.477487 202.545919 
L 294.816688 202.661708 
L 295.709487 202.515031 
L 296.602287 202.599166 
L 297.048687 202.53177 
L 297.495087 202.618982 
L 298.387887 202.548515 
L 299.280687 202.617983 
L 299.727087 202.535191 
L 300.173487 202.685796 
L 300.619888 202.562674 
L 301.066287 202.693394 
L 301.959088 202.53461 
L 303.298287 202.60799 
L 303.744687 202.511404 
L 304.637487 202.607118 
L 305.530287 202.654116 
L 305.976687 202.422717 
L 306.423088 202.680583 
L 307.762287 202.573528 
L 308.208687 202.674783 
L 308.655087 202.492508 
L 309.101487 202.610745 
L 310.887088 202.613034 
L 311.779887 202.510146 
L 312.226287 202.685691 
L 312.672687 202.507693 
L 313.565487 202.615334 
L 314.011888 202.702282 
L 314.904688 202.60274 
L 315.797487 202.493438 
L 316.243887 202.68328 
L 316.690288 202.505631 
L 317.583087 202.63661 
L 318.922287 202.571207 
L 319.368688 202.686833 
L 322.047087 202.637175 
L 322.939887 202.618972 
L 323.386287 202.527255 
L 325.618288 202.74312 
L 326.064687 202.517844 
L 327.403887 202.662411 
L 328.296688 202.611623 
L 330.975087 202.638296 
L 333.207088 202.512441 
L 334.099887 202.709673 
L 334.992687 202.611728 
L 336.331887 202.634564 
L 336.778287 202.720358 
L 338.563888 202.590691 
L 339.010288 202.699548 
L 339.456687 202.58377 
L 339.903087 202.69847 
L 340.349488 202.592134 
L 340.795887 202.695689 
L 342.581487 202.597575 
L 343.474288 202.643467 
L 344.367087 202.601233 
L 345.706287 202.721204 
L 346.152688 202.53765 
L 346.599087 202.672626 
L 347.938288 202.624306 
L 348.384687 202.721448 
L 348.831087 202.480411 
L 349.277488 202.716071 
L 349.723887 202.613928 
L 352.402287 202.636287 
L 355.527087 202.723864 
L 355.973487 202.578948 
L 356.866287 202.642949 
L 357.759087 202.596565 
L 358.205488 202.773204 
L 358.651887 202.632311 
L 362.223087 202.658044 
L 362.669488 202.553474 
L 363.115887 202.744442 
L 364.008688 202.660555 
L 364.455087 202.676063 
L 364.901487 202.568775 
L 365.347888 202.6901 
L 366.240687 202.596369 
L 367.579887 202.733317 
L 368.026287 202.606161 
L 369.811888 202.686145 
L 370.258287 202.766447 
L 370.704687 202.599763 
L 371.597487 202.652117 
L 372.490287 202.648643 
L 372.936688 202.794844 
L 375.168687 202.649685 
L 377.847087 202.596866 
L 378.293487 202.735326 
L 378.739888 202.659953 
L 379.632687 202.651467 
L 380.525487 202.780685 
L 380.971887 202.559671 
L 383.203888 202.737373 
L 384.096687 202.610576 
L 384.543088 202.745922 
L 384.989487 202.547769 
L 385.435887 202.81153 
L 385.882287 202.650404 
L 386.775087 202.700828 
L 387.221487 202.588999 
L 387.667888 202.718487 
L 388.114287 202.613013 
L 388.560687 202.695842 
L 389.007088 202.600139 
L 392.131888 202.742052 
L 392.578287 202.605336 
L 393.471088 202.652482 
L 394.363887 202.564995 
L 394.810288 202.751135 
L 395.256687 202.632385 
L 396.595888 202.669448 
L 397.042287 202.576849 
L 397.935088 202.626802 
L 400.167087 202.61057 
L 400.613487 202.601318 
L 401.059888 202.70924 
L 402.399088 202.614113 
L 403.291887 202.748121 
L 403.738288 202.620976 
L 405.523888 202.649426 
L 405.970287 202.752515 
L 406.863088 202.656812 
L 407.309487 202.750897 
L 407.755887 202.676554 
L 408.202288 202.729759 
L 408.648687 202.669279 
L 409.541487 202.684554 
L 410.434287 202.632713 
L 410.880687 202.710334 
L 412.219887 202.622118 
L 413.112687 202.746863 
L 413.559087 202.667 
L 414.005488 202.710355 
L 414.451887 202.606563 
L 414.898287 202.692685 
L 415.344687 202.624248 
L 416.683887 202.910152 
L 417.130288 202.675227 
L 420.701487 202.678965 
L 421.147887 202.773997 
L 421.594288 202.597146 
L 422.040687 202.692379 
L 422.487087 202.632909 
L 423.379887 202.7352 
L 424.272687 202.608085 
L 426.058288 202.710704 
L 426.504687 202.592954 
L 426.951087 202.69609 
L 428.736687 202.649965 
L 430.075887 202.78215 
L 430.522288 202.609851 
L 430.968687 202.750781 
L 431.415087 202.660994 
L 432.307887 202.706189 
L 433.647087 202.747328 
L 434.093487 202.536196 
L 434.539887 202.72167 
L 435.879087 202.757559 
L 436.325488 202.640676 
L 437.218287 202.749665 
L 437.664687 202.615234 
L 438.111087 202.836274 
L 438.557487 202.612083 
L 439.003887 202.741893 
L 442.575087 202.653909 
L 443.021487 202.8084 
L 443.467887 202.627468 
L 444.360687 202.781039 
L 444.807087 202.58185 
L 445.253488 202.779934 
L 446.592688 202.687118 
L 449.271087 202.822782 
L 449.717488 202.663543 
L 450.610287 202.714981 
L 451.949487 202.689487 
L 452.842287 202.659297 
L 453.735087 202.707045 
L 454.627887 202.748084 
L 455.074287 202.754434 
L 455.520688 202.642489 
L 455.967087 202.712274 
L 456.859887 202.682888 
L 457.306287 202.77322 
L 457.752687 202.673979 
L 458.199087 202.721987 
L 459.091887 202.644181 
L 460.431087 202.727776 
L 461.323887 202.67611 
L 461.770287 202.632084 
L 462.216687 202.78786 
L 463.109488 202.851089 
L 463.555887 202.602666 
L 465.341487 202.815136 
L 465.787888 202.710857 
L 468.466287 202.723763 
L 468.912688 202.590913 
L 469.359087 202.718323 
L 470.251888 202.701949 
L 471.591087 202.790821 
L 472.930287 202.697312 
L 473.376688 202.81981 
L 474.269487 202.698501 
L 474.715888 202.872343 
L 475.162287 202.585668 
L 475.608687 202.659382 
L 476.055087 202.579186 
L 476.501487 202.70318 
L 476.947887 202.639216 
L 477.840688 202.727528 
L 478.287087 202.601371 
L 479.179888 202.797356 
L 480.072687 202.644006 
L 481.858287 202.706205 
L 483.197487 202.682973 
L 483.643888 202.746414 
L 484.090287 202.66258 
L 484.983087 202.768287 
L 485.429487 202.63782 
L 485.875887 202.728268 
L 486.768687 202.608662 
L 488.107888 202.805514 
L 488.554287 202.643985 
L 489.447087 202.876758 
L 489.893487 202.700267 
L 490.339887 202.661338 
L 490.786287 202.756137 
L 491.232687 202.697571 
L 492.125487 202.742464 
L 492.571888 202.665425 
L 493.911088 202.699226 
L 495.696687 202.70087 
L 499.267887 202.765744 
L 499.714287 202.563641 
L 500.160687 202.708621 
L 501.499887 202.730631 
L 501.946287 202.62925 
L 502.392687 202.766838 
L 504.178287 202.632993 
L 504.178287 202.632993 
" clip-path="url(#p49f5af3df3)" style="fill: none; stroke: #0000ff; stroke-width: 2; stroke-linecap: square"/>
   </g>
   <g id="patch_3">
    <path d="M 58.224688 291.238594 
L 58.224688 14.038594 
" style="fill: none; stroke: #000000; stroke-width: 0.8; stroke-linejoin: miter; stroke-linecap: square"/>
   </g>
   <g id="patch_4">
    <path d="M 504.624687 291.238594 
L 504.624687 14.038594 
" style="fill: none; stroke: #000000; stroke-width: 0.8; stroke-linejoin: miter; stroke-linecap: square"/>
   </g>
   <g id="patch_5">
    <path d="M 58.224688 291.238594 
L 504.624687 291.238594 
" style="fill: none; stroke: #000000; stroke-width: 0.8; stroke-linejoin: miter; stroke-linecap: square"/>
   </g>
   <g id="patch_6">
    <path d="M 58.224688 14.038594 
L 504.624687 14.038594 
" style="fill: none; stroke: #000000; stroke-width: 0.8; stroke-linejoin: miter; stroke-linecap: square"/>
   </g>
  </g>
 </g>
 <defs>
  <clipPath id="p49f5af3df3">
   <rect x="58.224688" y="14.038594" width="446.4" height="277.2"/>
  </clipPath>
 </defs>
</svg>
