<?xml version="1.0" encoding="utf-8" standalone="no"?>
<!DOCTYPE svg PUBLIC "-//W3C//DTD SVG 1.1//EN"
  "http://www.w3.org/Graphics/SVG/1.1/DTD/svg11.dtd">
<svg xmlns:xlink="http://www.w3.org/1999/xlink" width="747.905937pt" height="435.31625pt" viewBox="0 0 747.905937 435.31625" xmlns="http://www.w3.org/2000/svg" version="1.1">
 <metadata>
  <rdf:RDF xmlns:dc="http://purl.org/dc/elements/1.1/" xmlns:cc="http://creativecommons.org/ns#" xmlns:rdf="http://www.w3.org/1999/02/22-rdf-syntax-ns#">
   <cc:Work>
    <dc:type rdf:resource="http://purl.org/dc/dcmitype/StillImage"/>
    <dc:date>2023-01-10T00:03:43.464431</dc:date>
    <dc:format>image/svg+xml</dc:format>
    <dc:creator>
     <cc:Agent>
      <dc:title>Matplotlib v3.5.2, https://matplotlib.org/</dc:title>
     </cc:Agent>
    </dc:creator>
   </cc:Work>
  </rdf:RDF>
 </metadata>
 <defs>
  <style type="text/css">*{stroke-linejoin: round; stroke-linecap: butt}</style>
 </defs>
 <g id="figure_1">
  <g id="patch_1">
   <path d="M 0 435.31625 
L 747.905937 435.31625 
L 747.905937 -0 
L 0 -0 
z
" style="fill: #ffffff"/>
  </g>
  <g id="axes_1">
   <g id="patch_2">
    <path d="M 71.105938 201.6 
L 375.469574 201.6 
L 375.469574 50.4 
L 71.105938 50.4 
z
" style="fill: #f1f7f0"/>
   </g>
   <g id="patch_3">
    <path d="M 84.940648 201.6 
L 112.610071 201.6 
L 112.610071 201.168 
L 84.940648 201.168 
z
" clip-path="url(#pa27fe8578a)" style="opacity: 0.25"/>
   </g>
   <g id="patch_4">
    <path d="M 112.610071 201.6 
L 140.279494 201.6 
L 140.279494 197.712 
L 112.610071 197.712 
z
" clip-path="url(#pa27fe8578a)" style="opacity: 0.25"/>
   </g>
   <g id="patch_5">
    <path d="M 140.279494 201.6 
L 167.94891 201.6 
L 167.94891 195.552 
L 140.279494 195.552 
z
" clip-path="url(#pa27fe8578a)" style="opacity: 0.25"/>
   </g>
   <g id="patch_6">
    <path d="M 167.94891 201.6 
L 195.618333 201.6 
L 195.618333 186.48 
L 167.94891 186.48 
z
" clip-path="url(#pa27fe8578a)" style="opacity: 0.25"/>
   </g>
   <g id="patch_7">
    <path d="M 195.618333 201.6 
L 223.287756 201.6 
L 223.287756 183.456 
L 195.618333 183.456 
z
" clip-path="url(#pa27fe8578a)" style="opacity: 0.25"/>
   </g>
   <g id="patch_8">
    <path d="M 223.287755 201.6 
L 250.957178 201.6 
L 250.957178 181.728 
L 223.287755 181.728 
z
" clip-path="url(#pa27fe8578a)" style="opacity: 0.25"/>
   </g>
   <g id="patch_9">
    <path d="M 250.957175 201.6 
L 278.626598 201.6 
L 278.626598 180.864 
L 250.957175 180.864 
z
" clip-path="url(#pa27fe8578a)" style="opacity: 0.25"/>
   </g>
   <g id="patch_10">
    <path d="M 278.626595 201.6 
L 306.296017 201.6 
L 306.296017 188.208 
L 278.626595 188.208 
z
" clip-path="url(#pa27fe8578a)" style="opacity: 0.25"/>
   </g>
   <g id="patch_11">
    <path d="M 306.296017 201.6 
L 333.96544 201.6 
L 333.96544 189.936 
L 306.296017 189.936 
z
" clip-path="url(#pa27fe8578a)" style="opacity: 0.25"/>
   </g>
   <g id="patch_12">
    <path d="M 333.96544 201.6 
L 361.634863 201.6 
L 361.634863 198.576 
L 333.96544 198.576 
z
" clip-path="url(#pa27fe8578a)" style="opacity: 0.25"/>
   </g>
   <g id="patch_13">
    <path d="M 201.911641 201.6 
L 205.705639 201.6 
L 205.705639 201.168 
L 201.911641 201.168 
z
" clip-path="url(#pa27fe8578a)" style="opacity: 0.5"/>
   </g>
   <g id="patch_14">
    <path d="M 205.705639 201.6 
L 209.499636 201.6 
L 209.499636 201.6 
L 205.705639 201.6 
z
" clip-path="url(#pa27fe8578a)" style="opacity: 0.5"/>
   </g>
   <g id="patch_15">
    <path d="M 209.499638 201.6 
L 213.293636 201.6 
L 213.293636 201.6 
L 209.499638 201.6 
z
" clip-path="url(#pa27fe8578a)" style="opacity: 0.5"/>
   </g>
   <g id="patch_16">
    <path d="M 213.293636 201.6 
L 217.087634 201.6 
L 217.087634 201.168 
L 213.293636 201.168 
z
" clip-path="url(#pa27fe8578a)" style="opacity: 0.5"/>
   </g>
   <g id="patch_17">
    <path d="M 217.087635 201.6 
L 220.881633 201.6 
L 220.881633 200.736 
L 217.087635 200.736 
z
" clip-path="url(#pa27fe8578a)" style="opacity: 0.5"/>
   </g>
   <g id="patch_18">
    <path d="M 220.881633 201.6 
L 224.675631 201.6 
L 224.675631 200.736 
L 220.881633 200.736 
z
" clip-path="url(#pa27fe8578a)" style="opacity: 0.5"/>
   </g>
   <g id="patch_19">
    <path d="M 224.675631 201.6 
L 228.469628 201.6 
L 228.469628 199.872 
L 224.675631 199.872 
z
" clip-path="url(#pa27fe8578a)" style="opacity: 0.5"/>
   </g>
   <g id="patch_20">
    <path d="M 228.469628 201.6 
L 232.263626 201.6 
L 232.263626 194.688 
L 228.469628 194.688 
z
" clip-path="url(#pa27fe8578a)" style="opacity: 0.5"/>
   </g>
   <g id="patch_21">
    <path d="M 232.263627 201.6 
L 236.057625 201.6 
L 236.057625 177.408 
L 232.263627 177.408 
z
" clip-path="url(#pa27fe8578a)" style="opacity: 0.5"/>
   </g>
   <g id="patch_22">
    <path d="M 236.057625 201.6 
L 239.851623 201.6 
L 239.851623 145.008 
L 236.057625 145.008 
z
" clip-path="url(#pa27fe8578a)" style="opacity: 0.5"/>
   </g>
   <g id="patch_23">
    <path d="M 239.851623 201.6 
L 243.645621 201.6 
L 243.645621 186.48 
L 239.851623 186.48 
z
" clip-path="url(#pa27fe8578a)" style="opacity: 0.5"/>
   </g>
   <g id="patch_24">
    <path d="M 243.645622 201.6 
L 247.43962 201.6 
L 247.43962 199.44 
L 243.645622 199.44 
z
" clip-path="url(#pa27fe8578a)" style="opacity: 0.5"/>
   </g>
   <g id="patch_25">
    <path d="M 247.439621 201.6 
L 251.233618 201.6 
L 251.233618 200.304 
L 247.439621 200.304 
z
" clip-path="url(#pa27fe8578a)" style="opacity: 0.5"/>
   </g>
   <g id="patch_26">
    <path d="M 251.233618 201.6 
L 255.027616 201.6 
L 255.027616 200.736 
L 251.233618 200.736 
z
" clip-path="url(#pa27fe8578a)" style="opacity: 0.5"/>
   </g>
   <g id="patch_27">
    <path d="M 255.027616 201.6 
L 258.821614 201.6 
L 258.821614 201.168 
L 255.027616 201.168 
z
" clip-path="url(#pa27fe8578a)" style="opacity: 0.5"/>
   </g>
   <g id="patch_28">
    <path d="M 258.821614 201.6 
L 262.615611 201.6 
L 262.615611 201.6 
L 258.821614 201.6 
z
" clip-path="url(#pa27fe8578a)" style="opacity: 0.5"/>
   </g>
   <g id="patch_29">
    <path d="M 262.615615 201.6 
L 266.409613 201.6 
L 266.409613 201.6 
L 262.615615 201.6 
z
" clip-path="url(#pa27fe8578a)" style="opacity: 0.5"/>
   </g>
   <g id="patch_30">
    <path d="M 266.409613 201.6 
L 270.20361 201.6 
L 270.20361 201.6 
L 266.409613 201.6 
z
" clip-path="url(#pa27fe8578a)" style="opacity: 0.5"/>
   </g>
   <g id="patch_31">
    <path d="M 270.20361 201.6 
L 273.997608 201.6 
L 273.997608 201.6 
L 270.20361 201.6 
z
" clip-path="url(#pa27fe8578a)" style="opacity: 0.5"/>
   </g>
   <g id="patch_32">
    <path d="M 273.997608 201.6 
L 277.791606 201.6 
L 277.791606 201.168 
L 273.997608 201.168 
z
" clip-path="url(#pa27fe8578a)" style="opacity: 0.5"/>
   </g>
   <g id="matplotlib.axis_1">
    <g id="xtick_1">
     <g id="line2d_1">
      <defs>
       <path id="m758ece876f" d="M 0 0 
L 0 3.5 
" style="stroke: #000000; stroke-width: 0.8"/>
      </defs>
      <g>
       <use xlink:href="#m758ece876f" x="123.031987" y="201.6" style="stroke: #000000; stroke-width: 0.8"/>
      </g>
     </g>
     <g id="text_1">
      <!-- −1 -->
      <g transform="translate(114.463706 221.956562)scale(0.18 -0.18)">
       <defs>
        <path id="Montserrat-Medium-2212" d="M 429 2490 
L 3296 2490 
L 3296 1984 
L 429 1984 
L 429 2490 
z
" transform="scale(0.015625)"/>
        <path id="Montserrat-Medium-31" d="M 1696 4480 
L 1696 0 
L 1062 0 
L 1062 3923 
L 51 3923 
L 51 4480 
L 1696 4480 
z
" transform="scale(0.015625)"/>
       </defs>
       <use xlink:href="#Montserrat-Medium-2212"/>
       <use xlink:href="#Montserrat-Medium-31" x="58.199997"/>
      </g>
     </g>
    </g>
    <g id="xtick_2">
     <g id="line2d_2">
      <g>
       <use xlink:href="#m758ece876f" x="237.564734" y="201.6" style="stroke: #000000; stroke-width: 0.8"/>
      </g>
     </g>
     <g id="text_2">
      <!-- 0 -->
      <g transform="translate(231.561453 221.956562)scale(0.18 -0.18)">
       <defs>
        <path id="Montserrat-Medium-30" d="M 2138 -51 
Q 1606 -51 1193 221 
Q 781 493 544 1011 
Q 307 1530 307 2240 
Q 307 2950 544 3468 
Q 781 3987 1193 4259 
Q 1606 4531 2138 4531 
Q 2662 4531 3075 4259 
Q 3488 3987 3725 3468 
Q 3962 2950 3962 2240 
Q 3962 1530 3725 1011 
Q 3488 493 3075 221 
Q 2662 -51 2138 -51 
z
M 2138 518 
Q 2675 518 2998 960 
Q 3322 1402 3322 2240 
Q 3322 3078 2998 3520 
Q 2675 3962 2138 3962 
Q 1594 3962 1270 3520 
Q 947 3078 947 2240 
Q 947 1402 1270 960 
Q 1594 518 2138 518 
z
" transform="scale(0.015625)"/>
       </defs>
       <use xlink:href="#Montserrat-Medium-30"/>
      </g>
     </g>
    </g>
    <g id="xtick_3">
     <g id="line2d_3">
      <g>
       <use xlink:href="#m758ece876f" x="352.097481" y="201.6" style="stroke: #000000; stroke-width: 0.8"/>
      </g>
     </g>
     <g id="text_3">
      <!-- 1 -->
      <g transform="translate(348.767481 221.956562)scale(0.18 -0.18)">
       <use xlink:href="#Montserrat-Medium-31"/>
      </g>
     </g>
    </g>
   </g>
   <g id="matplotlib.axis_2">
    <g id="ytick_1">
     <g id="line2d_4">
      <defs>
       <path id="mcde195bc22" d="M 0 0 
L -3.5 0 
" style="stroke: #000000; stroke-width: 0.8"/>
      </defs>
      <g>
       <use xlink:href="#mcde195bc22" x="71.105938" y="201.6" style="stroke: #000000; stroke-width: 0.8"/>
      </g>
     </g>
     <g id="text_4">
      <!-- 0 -->
      <g transform="translate(52.099375 208.278281)scale(0.18 -0.18)">
       <use xlink:href="#Montserrat-Medium-30"/>
      </g>
     </g>
    </g>
    <g id="ytick_2">
     <g id="line2d_5">
      <g>
       <use xlink:href="#mcde195bc22" x="71.105938" y="158.4" style="stroke: #000000; stroke-width: 0.8"/>
      </g>
     </g>
     <g id="text_5">
      <!-- 100 -->
      <g transform="translate(33.432813 165.078281)scale(0.18 -0.18)">
       <use xlink:href="#Montserrat-Medium-31"/>
       <use xlink:href="#Montserrat-Medium-30" x="36.999985"/>
       <use xlink:href="#Montserrat-Medium-30" x="103.699982"/>
      </g>
     </g>
    </g>
    <g id="ytick_3">
     <g id="line2d_6">
      <g>
       <use xlink:href="#mcde195bc22" x="71.105938" y="115.2" style="stroke: #000000; stroke-width: 0.8"/>
      </g>
     </g>
     <g id="text_6">
      <!-- 200 -->
      <g transform="translate(29.759688 121.878281)scale(0.18 -0.18)">
       <defs>
        <path id="Montserrat-Medium-32" d="M 3456 557 
L 3456 0 
L 237 0 
L 237 435 
L 2061 2195 
Q 2394 2515 2509 2748 
Q 2624 2982 2624 3219 
Q 2624 3571 2377 3766 
Q 2131 3962 1670 3962 
Q 928 3962 525 3475 
L 90 3853 
Q 352 4173 777 4352 
Q 1203 4531 1728 4531 
Q 2432 4531 2848 4195 
Q 3264 3859 3264 3283 
Q 3264 2925 3110 2605 
Q 2957 2285 2528 1875 
L 1158 557 
L 3456 557 
z
" transform="scale(0.015625)"/>
       </defs>
       <use xlink:href="#Montserrat-Medium-32"/>
       <use xlink:href="#Montserrat-Medium-30" x="57.399994"/>
       <use xlink:href="#Montserrat-Medium-30" x="124.099991"/>
      </g>
     </g>
    </g>
    <g id="ytick_4">
     <g id="line2d_7">
      <g>
       <use xlink:href="#mcde195bc22" x="71.105938" y="72" style="stroke: #000000; stroke-width: 0.8"/>
      </g>
     </g>
     <g id="text_7">
      <!-- 300 -->
      <g transform="translate(29.79625 78.678281)scale(0.18 -0.18)">
       <defs>
        <path id="Montserrat-Medium-33" d="M 2022 2598 
Q 2682 2534 3027 2192 
Q 3373 1850 3373 1318 
Q 3373 934 3181 624 
Q 2989 314 2608 131 
Q 2227 -51 1677 -51 
Q 1197 -51 755 93 
Q 314 237 32 493 
L 326 998 
Q 557 781 915 649 
Q 1274 518 1677 518 
Q 2176 518 2454 729 
Q 2733 941 2733 1312 
Q 2733 1683 2457 1888 
Q 2182 2093 1626 2093 
L 1267 2093 
L 1267 2541 
L 2394 3923 
L 237 3923 
L 237 4480 
L 3194 4480 
L 3194 4045 
L 2022 2598 
z
" transform="scale(0.015625)"/>
       </defs>
       <use xlink:href="#Montserrat-Medium-33"/>
       <use xlink:href="#Montserrat-Medium-30" x="57.199997"/>
       <use xlink:href="#Montserrat-Medium-30" x="123.899994"/>
      </g>
     </g>
    </g>
    <g id="text_8">
     <!-- Count -->
     <g transform="translate(22.266563 154.17)rotate(-90)scale(0.18 -0.18)">
      <defs>
       <path id="Montserrat-Medium-43" d="M 2675 -51 
Q 2003 -51 1462 246 
Q 922 544 614 1065 
Q 307 1587 307 2240 
Q 307 2893 614 3414 
Q 922 3936 1466 4233 
Q 2010 4531 2682 4531 
Q 3206 4531 3641 4355 
Q 4077 4179 4384 3834 
L 3968 3430 
Q 3462 3962 2707 3962 
Q 2208 3962 1805 3738 
Q 1402 3514 1174 3120 
Q 947 2726 947 2240 
Q 947 1754 1174 1360 
Q 1402 966 1805 742 
Q 2208 518 2707 518 
Q 3456 518 3968 1056 
L 4384 653 
Q 4077 307 3638 128 
Q 3200 -51 2675 -51 
z
" transform="scale(0.015625)"/>
       <path id="Montserrat-Medium-6f" d="M 2035 -38 
Q 1530 -38 1126 186 
Q 723 410 496 803 
Q 269 1197 269 1696 
Q 269 2195 496 2588 
Q 723 2982 1126 3203 
Q 1530 3424 2035 3424 
Q 2541 3424 2941 3203 
Q 3341 2982 3568 2588 
Q 3795 2195 3795 1696 
Q 3795 1197 3568 803 
Q 3341 410 2941 186 
Q 2541 -38 2035 -38 
z
M 2035 499 
Q 2362 499 2621 649 
Q 2880 800 3027 1072 
Q 3174 1344 3174 1696 
Q 3174 2048 3027 2320 
Q 2880 2592 2621 2739 
Q 2362 2886 2035 2886 
Q 1709 2886 1449 2739 
Q 1190 2592 1040 2320 
Q 890 2048 890 1696 
Q 890 1344 1040 1072 
Q 1190 800 1449 649 
Q 1709 499 2035 499 
z
" transform="scale(0.015625)"/>
       <path id="Montserrat-Medium-75" d="M 3744 3392 
L 3744 0 
L 3162 0 
L 3162 512 
Q 2976 250 2672 106 
Q 2368 -38 2010 -38 
Q 1331 -38 940 336 
Q 550 710 550 1440 
L 550 3392 
L 1165 3392 
L 1165 1510 
Q 1165 1018 1401 765 
Q 1638 512 2080 512 
Q 2566 512 2848 806 
Q 3130 1101 3130 1638 
L 3130 3392 
L 3744 3392 
z
" transform="scale(0.015625)"/>
       <path id="Montserrat-Medium-6e" d="M 2394 3424 
Q 3040 3424 3421 3049 
Q 3802 2675 3802 1952 
L 3802 0 
L 3187 0 
L 3187 1882 
Q 3187 2374 2950 2624 
Q 2714 2874 2272 2874 
Q 1773 2874 1485 2582 
Q 1197 2291 1197 1747 
L 1197 0 
L 582 0 
L 582 3392 
L 1171 3392 
L 1171 2880 
Q 1357 3142 1673 3283 
Q 1990 3424 2394 3424 
z
" transform="scale(0.015625)"/>
       <path id="Montserrat-Medium-74" d="M 2490 198 
Q 2355 83 2156 22 
Q 1958 -38 1747 -38 
Q 1235 -38 953 237 
Q 672 512 672 1024 
L 672 2886 
L 96 2886 
L 96 3392 
L 672 3392 
L 672 4134 
L 1286 4134 
L 1286 3392 
L 2259 3392 
L 2259 2886 
L 1286 2886 
L 1286 1050 
Q 1286 774 1424 627 
Q 1562 480 1818 480 
Q 2099 480 2298 640 
L 2490 198 
z
" transform="scale(0.015625)"/>
      </defs>
      <use xlink:href="#Montserrat-Medium-43"/>
      <use xlink:href="#Montserrat-Medium-6f" x="72.299988"/>
      <use xlink:href="#Montserrat-Medium-75" x="135.799973"/>
      <use xlink:href="#Montserrat-Medium-6e" x="203.499954"/>
      <use xlink:href="#Montserrat-Medium-74" x="271.599945"/>
     </g>
    </g>
   </g>
   <g id="patch_33">
    <path d="M 71.105938 201.6 
L 71.105938 50.4 
" style="fill: none; stroke: #000000; stroke-width: 0.8; stroke-linejoin: miter; stroke-linecap: square"/>
   </g>
   <g id="patch_34">
    <path d="M 375.469574 201.6 
L 375.469574 50.4 
" style="fill: none; stroke: #000000; stroke-width: 0.8; stroke-linejoin: miter; stroke-linecap: square"/>
   </g>
   <g id="patch_35">
    <path d="M 71.105938 201.6 
L 375.469574 201.6 
" style="fill: none; stroke: #000000; stroke-width: 0.8; stroke-linejoin: miter; stroke-linecap: square"/>
   </g>
   <g id="patch_36">
    <path d="M 71.105938 50.4 
L 375.469574 50.4 
" style="fill: none; stroke: #000000; stroke-width: 0.8; stroke-linejoin: miter; stroke-linecap: square"/>
   </g>
   <g id="text_9">
    <!-- Layer 1 -->
    <g transform="translate(123.031987 136.8)scale(0.18 -0.18)">
     <defs>
      <path id="Montserrat-Medium-4c" d="M 672 4480 
L 1312 4480 
L 1312 557 
L 3738 557 
L 3738 0 
L 672 0 
L 672 4480 
z
" transform="scale(0.015625)"/>
      <path id="Montserrat-Medium-61" d="M 1818 3424 
Q 2522 3424 2896 3078 
Q 3270 2733 3270 2048 
L 3270 0 
L 2688 0 
L 2688 448 
Q 2534 211 2249 86 
Q 1965 -38 1574 -38 
Q 1005 -38 662 237 
Q 320 512 320 960 
Q 320 1408 646 1680 
Q 973 1952 1683 1952 
L 2656 1952 
L 2656 2074 
Q 2656 2470 2425 2681 
Q 2195 2893 1747 2893 
Q 1446 2893 1158 2793 
Q 870 2694 672 2528 
L 416 2989 
Q 678 3200 1043 3312 
Q 1408 3424 1818 3424 
z
M 1677 435 
Q 2029 435 2285 592 
Q 2541 749 2656 1037 
L 2656 1510 
L 1709 1510 
Q 928 1510 928 986 
Q 928 730 1126 582 
Q 1325 435 1677 435 
z
" transform="scale(0.015625)"/>
      <path id="Montserrat-Medium-79" d="M 3584 3392 
L 1939 -339 
Q 1722 -858 1430 -1069 
Q 1139 -1280 730 -1280 
Q 480 -1280 246 -1200 
Q 13 -1120 -141 -966 
L 122 -506 
Q 384 -755 730 -755 
Q 954 -755 1104 -636 
Q 1254 -518 1376 -230 
L 1485 6 
L -13 3392 
L 627 3392 
L 1811 678 
L 2982 3392 
L 3584 3392 
z
" transform="scale(0.015625)"/>
      <path id="Montserrat-Medium-65" d="M 3648 1677 
Q 3648 1606 3635 1491 
L 883 1491 
Q 941 1043 1277 771 
Q 1613 499 2112 499 
Q 2720 499 3091 909 
L 3430 512 
Q 3200 243 2857 102 
Q 2515 -38 2093 -38 
Q 1555 -38 1139 182 
Q 723 403 496 800 
Q 269 1197 269 1696 
Q 269 2189 489 2585 
Q 710 2982 1097 3203 
Q 1485 3424 1971 3424 
Q 2458 3424 2838 3203 
Q 3219 2982 3433 2585 
Q 3648 2189 3648 1677 
z
M 1971 2906 
Q 1530 2906 1232 2637 
Q 934 2368 883 1933 
L 3059 1933 
Q 3008 2362 2710 2634 
Q 2413 2906 1971 2906 
z
" transform="scale(0.015625)"/>
      <path id="Montserrat-Medium-72" d="M 1171 2822 
Q 1331 3117 1644 3270 
Q 1958 3424 2406 3424 
L 2406 2829 
Q 2355 2835 2266 2835 
Q 1766 2835 1481 2537 
Q 1197 2240 1197 1690 
L 1197 0 
L 582 0 
L 582 3392 
L 1171 3392 
L 1171 2822 
z
" transform="scale(0.015625)"/>
      <path id="Montserrat-Medium-20" transform="scale(0.015625)"/>
     </defs>
     <use xlink:href="#Montserrat-Medium-4c"/>
     <use xlink:href="#Montserrat-Medium-61" x="59.399994"/>
     <use xlink:href="#Montserrat-Medium-79" x="119.199982"/>
     <use xlink:href="#Montserrat-Medium-65" x="175.099976"/>
     <use xlink:href="#Montserrat-Medium-72" x="236.299973"/>
     <use xlink:href="#Montserrat-Medium-20" x="277.299957"/>
     <use xlink:href="#Montserrat-Medium-31" x="304.199951"/>
    </g>
   </g>
  </g>
  <g id="axes_2">
   <g id="patch_37">
    <path d="M 436.342301 201.6 
L 740.705937 201.6 
L 740.705937 50.4 
L 436.342301 50.4 
z
" style="fill: #f1f7f0"/>
   </g>
   <g id="patch_38">
    <path d="M 450.177012 201.6 
L 477.846433 201.6 
L 477.846433 200.736 
L 450.177012 200.736 
z
" clip-path="url(#p754f89650e)" style="opacity: 0.25"/>
   </g>
   <g id="patch_39">
    <path d="M 477.846433 201.6 
L 505.515855 201.6 
L 505.515855 201.6 
L 477.846433 201.6 
z
" clip-path="url(#p754f89650e)" style="opacity: 0.25"/>
   </g>
   <g id="patch_40">
    <path d="M 505.515855 201.6 
L 533.185276 201.6 
L 533.185276 201.6 
L 505.515855 201.6 
z
" clip-path="url(#p754f89650e)" style="opacity: 0.25"/>
   </g>
   <g id="patch_41">
    <path d="M 533.185276 201.6 
L 560.854698 201.6 
L 560.854698 201.168 
L 533.185276 201.168 
z
" clip-path="url(#p754f89650e)" style="opacity: 0.25"/>
   </g>
   <g id="patch_42">
    <path d="M 560.854698 201.6 
L 588.524119 201.6 
L 588.524119 197.712 
L 560.854698 197.712 
z
" clip-path="url(#p754f89650e)" style="opacity: 0.25"/>
   </g>
   <g id="patch_43">
    <path d="M 588.524119 201.6 
L 616.193541 201.6 
L 616.193541 189.504 
L 588.524119 189.504 
z
" clip-path="url(#p754f89650e)" style="opacity: 0.25"/>
   </g>
   <g id="patch_44">
    <path d="M 616.193541 201.6 
L 643.862962 201.6 
L 643.862962 163.584 
L 616.193541 163.584 
z
" clip-path="url(#p754f89650e)" style="opacity: 0.25"/>
   </g>
   <g id="patch_45">
    <path d="M 643.862962 201.6 
L 671.532384 201.6 
L 671.532384 144.144 
L 643.862962 144.144 
z
" clip-path="url(#p754f89650e)" style="opacity: 0.25"/>
   </g>
   <g id="patch_46">
    <path d="M 671.532384 201.6 
L 699.201805 201.6 
L 699.201805 154.08 
L 671.532384 154.08 
z
" clip-path="url(#p754f89650e)" style="opacity: 0.25"/>
   </g>
   <g id="patch_47">
    <path d="M 699.201805 201.6 
L 726.871227 201.6 
L 726.871227 189.072 
L 699.201805 189.072 
z
" clip-path="url(#p754f89650e)" style="opacity: 0.25"/>
   </g>
   <g id="patch_48">
    <path d="M 644.73365 201.6 
L 646.455042 201.6 
L 646.455042 201.168 
L 644.73365 201.168 
z
" clip-path="url(#p754f89650e)" style="opacity: 0.5"/>
   </g>
   <g id="patch_49">
    <path d="M 646.455041 201.6 
L 648.176432 201.6 
L 648.176432 200.736 
L 646.455041 200.736 
z
" clip-path="url(#p754f89650e)" style="opacity: 0.5"/>
   </g>
   <g id="patch_50">
    <path d="M 648.176433 201.6 
L 649.897824 201.6 
L 649.897824 201.6 
L 648.176433 201.6 
z
" clip-path="url(#p754f89650e)" style="opacity: 0.5"/>
   </g>
   <g id="patch_51">
    <path d="M 649.897824 201.6 
L 651.619215 201.6 
L 651.619215 199.008 
L 649.897824 199.008 
z
" clip-path="url(#p754f89650e)" style="opacity: 0.5"/>
   </g>
   <g id="patch_52">
    <path d="M 651.619215 201.6 
L 653.340606 201.6 
L 653.340606 196.416 
L 651.619215 196.416 
z
" clip-path="url(#p754f89650e)" style="opacity: 0.5"/>
   </g>
   <g id="patch_53">
    <path d="M 653.340606 201.6 
L 655.061997 201.6 
L 655.061997 171.36 
L 653.340606 171.36 
z
" clip-path="url(#p754f89650e)" style="opacity: 0.5"/>
   </g>
   <g id="patch_54">
    <path d="M 655.061997 201.6 
L 656.783388 201.6 
L 656.783388 107.856 
L 655.061997 107.856 
z
" clip-path="url(#p754f89650e)" style="opacity: 0.5"/>
   </g>
   <g id="patch_55">
    <path d="M 656.783388 201.6 
L 658.504779 201.6 
L 658.504779 181.728 
L 656.783388 181.728 
z
" clip-path="url(#p754f89650e)" style="opacity: 0.5"/>
   </g>
   <g id="patch_56">
    <path d="M 658.504779 201.6 
L 660.226171 201.6 
L 660.226171 191.664 
L 658.504779 191.664 
z
" clip-path="url(#p754f89650e)" style="opacity: 0.5"/>
   </g>
   <g id="patch_57">
    <path d="M 660.226171 201.6 
L 661.947562 201.6 
L 661.947562 197.28 
L 660.226171 197.28 
z
" clip-path="url(#p754f89650e)" style="opacity: 0.5"/>
   </g>
   <g id="patch_58">
    <path d="M 661.947561 201.6 
L 663.668952 201.6 
L 663.668952 200.736 
L 661.947561 200.736 
z
" clip-path="url(#p754f89650e)" style="opacity: 0.5"/>
   </g>
   <g id="patch_59">
    <path d="M 663.668953 201.6 
L 665.390344 201.6 
L 665.390344 199.872 
L 663.668953 199.872 
z
" clip-path="url(#p754f89650e)" style="opacity: 0.5"/>
   </g>
   <g id="patch_60">
    <path d="M 665.390344 201.6 
L 667.111735 201.6 
L 667.111735 200.304 
L 665.390344 200.304 
z
" clip-path="url(#p754f89650e)" style="opacity: 0.5"/>
   </g>
   <g id="patch_61">
    <path d="M 667.111735 201.6 
L 668.833126 201.6 
L 668.833126 200.736 
L 667.111735 200.736 
z
" clip-path="url(#p754f89650e)" style="opacity: 0.5"/>
   </g>
   <g id="patch_62">
    <path d="M 668.833126 201.6 
L 670.554518 201.6 
L 670.554518 201.6 
L 668.833126 201.6 
z
" clip-path="url(#p754f89650e)" style="opacity: 0.5"/>
   </g>
   <g id="patch_63">
    <path d="M 670.554517 201.6 
L 672.275907 201.6 
L 672.275907 201.6 
L 670.554517 201.6 
z
" clip-path="url(#p754f89650e)" style="opacity: 0.5"/>
   </g>
   <g id="patch_64">
    <path d="M 672.275908 201.6 
L 673.9973 201.6 
L 673.9973 201.6 
L 672.275908 201.6 
z
" clip-path="url(#p754f89650e)" style="opacity: 0.5"/>
   </g>
   <g id="patch_65">
    <path d="M 673.9973 201.6 
L 675.718692 201.6 
L 675.718692 201.6 
L 673.9973 201.6 
z
" clip-path="url(#p754f89650e)" style="opacity: 0.5"/>
   </g>
   <g id="patch_66">
    <path d="M 675.71869 201.6 
L 677.440079 201.6 
L 677.440079 201.168 
L 675.71869 201.168 
z
" clip-path="url(#p754f89650e)" style="opacity: 0.5"/>
   </g>
   <g id="patch_67">
    <path d="M 677.440081 201.6 
L 679.161473 201.6 
L 679.161473 201.168 
L 677.440081 201.168 
z
" clip-path="url(#p754f89650e)" style="opacity: 0.5"/>
   </g>
   <g id="matplotlib.axis_3">
    <g id="xtick_4">
     <g id="line2d_8">
      <g>
       <use xlink:href="#m758ece876f" x="504.741087" y="201.6" style="stroke: #000000; stroke-width: 0.8"/>
      </g>
     </g>
     <g id="text_10">
      <!-- −2 -->
      <g transform="translate(494.336243 221.956562)scale(0.18 -0.18)">
       <use xlink:href="#Montserrat-Medium-2212"/>
       <use xlink:href="#Montserrat-Medium-32" x="58.199997"/>
      </g>
     </g>
    </g>
    <g id="xtick_5">
     <g id="line2d_9">
      <g>
       <use xlink:href="#m758ece876f" x="580.026302" y="201.6" style="stroke: #000000; stroke-width: 0.8"/>
      </g>
     </g>
     <g id="text_11">
      <!-- −1 -->
      <g transform="translate(571.458021 221.956562)scale(0.18 -0.18)">
       <use xlink:href="#Montserrat-Medium-2212"/>
       <use xlink:href="#Montserrat-Medium-31" x="58.199997"/>
      </g>
     </g>
    </g>
    <g id="xtick_6">
     <g id="line2d_10">
      <g>
       <use xlink:href="#m758ece876f" x="655.311517" y="201.6" style="stroke: #000000; stroke-width: 0.8"/>
      </g>
     </g>
     <g id="text_12">
      <!-- 0 -->
      <g transform="translate(649.308235 221.956562)scale(0.18 -0.18)">
       <use xlink:href="#Montserrat-Medium-30"/>
      </g>
     </g>
    </g>
    <g id="xtick_7">
     <g id="line2d_11">
      <g>
       <use xlink:href="#m758ece876f" x="730.596731" y="201.6" style="stroke: #000000; stroke-width: 0.8"/>
      </g>
     </g>
     <g id="text_13">
      <!-- 1 -->
      <g transform="translate(727.266731 221.956562)scale(0.18 -0.18)">
       <use xlink:href="#Montserrat-Medium-31"/>
      </g>
     </g>
    </g>
   </g>
   <g id="matplotlib.axis_4">
    <g id="ytick_5">
     <g id="line2d_12">
      <g>
       <use xlink:href="#mcde195bc22" x="436.342301" y="201.6" style="stroke: #000000; stroke-width: 0.8"/>
      </g>
     </g>
     <g id="text_14">
      <!-- 0 -->
      <g transform="translate(417.335739 208.278281)scale(0.18 -0.18)">
       <use xlink:href="#Montserrat-Medium-30"/>
      </g>
     </g>
    </g>
    <g id="ytick_6">
     <g id="line2d_13">
      <g>
       <use xlink:href="#mcde195bc22" x="436.342301" y="158.4" style="stroke: #000000; stroke-width: 0.8"/>
      </g>
     </g>
     <g id="text_15">
      <!-- 100 -->
      <g transform="translate(398.669176 165.078281)scale(0.18 -0.18)">
       <use xlink:href="#Montserrat-Medium-31"/>
       <use xlink:href="#Montserrat-Medium-30" x="36.999985"/>
       <use xlink:href="#Montserrat-Medium-30" x="103.699982"/>
      </g>
     </g>
    </g>
    <g id="ytick_7">
     <g id="line2d_14">
      <g>
       <use xlink:href="#mcde195bc22" x="436.342301" y="115.2" style="stroke: #000000; stroke-width: 0.8"/>
      </g>
     </g>
     <g id="text_16">
      <!-- 200 -->
      <g transform="translate(394.996051 121.878281)scale(0.18 -0.18)">
       <use xlink:href="#Montserrat-Medium-32"/>
       <use xlink:href="#Montserrat-Medium-30" x="57.399994"/>
       <use xlink:href="#Montserrat-Medium-30" x="124.099991"/>
      </g>
     </g>
    </g>
    <g id="ytick_8">
     <g id="line2d_15">
      <g>
       <use xlink:href="#mcde195bc22" x="436.342301" y="72" style="stroke: #000000; stroke-width: 0.8"/>
      </g>
     </g>
     <g id="text_17">
      <!-- 300 -->
      <g transform="translate(395.032614 78.678281)scale(0.18 -0.18)">
       <use xlink:href="#Montserrat-Medium-33"/>
       <use xlink:href="#Montserrat-Medium-30" x="57.199997"/>
       <use xlink:href="#Montserrat-Medium-30" x="123.899994"/>
      </g>
     </g>
    </g>
   </g>
   <g id="patch_68">
    <path d="M 436.342301 201.6 
L 436.342301 50.4 
" style="fill: none; stroke: #000000; stroke-width: 0.8; stroke-linejoin: miter; stroke-linecap: square"/>
   </g>
   <g id="patch_69">
    <path d="M 740.705937 201.6 
L 740.705937 50.4 
" style="fill: none; stroke: #000000; stroke-width: 0.8; stroke-linejoin: miter; stroke-linecap: square"/>
   </g>
   <g id="patch_70">
    <path d="M 436.342301 201.6 
L 740.705937 201.6 
" style="fill: none; stroke: #000000; stroke-width: 0.8; stroke-linejoin: miter; stroke-linecap: square"/>
   </g>
   <g id="patch_71">
    <path d="M 436.342301 50.4 
L 740.705937 50.4 
" style="fill: none; stroke: #000000; stroke-width: 0.8; stroke-linejoin: miter; stroke-linecap: square"/>
   </g>
   <g id="text_18">
    <!-- Layer 2 -->
    <g transform="translate(561.204998 136.8)scale(0.18 -0.18)">
     <use xlink:href="#Montserrat-Medium-4c"/>
     <use xlink:href="#Montserrat-Medium-61" x="59.399994"/>
     <use xlink:href="#Montserrat-Medium-79" x="119.199982"/>
     <use xlink:href="#Montserrat-Medium-65" x="175.099976"/>
     <use xlink:href="#Montserrat-Medium-72" x="236.299973"/>
     <use xlink:href="#Montserrat-Medium-20" x="277.299957"/>
     <use xlink:href="#Montserrat-Medium-32" x="304.199951"/>
    </g>
   </g>
  </g>
  <g id="axes_3">
   <g id="patch_72">
    <path d="M 71.105938 383.04 
L 375.469574 383.04 
L 375.469574 231.84 
L 71.105938 231.84 
z
" style="fill: #f1f7f0"/>
   </g>
   <g id="patch_73">
    <path d="M 84.940648 383.04 
L 112.61007 383.04 
L 112.61007 381.15 
L 84.940648 381.15 
z
" clip-path="url(#p0d9f7f04e7)" style="opacity: 0.25"/>
   </g>
   <g id="patch_74">
    <path d="M 112.61007 383.04 
L 140.279491 383.04 
L 140.279491 381.528 
L 112.61007 381.528 
z
" clip-path="url(#p0d9f7f04e7)" style="opacity: 0.25"/>
   </g>
   <g id="patch_75">
    <path d="M 140.279491 383.04 
L 167.948913 383.04 
L 167.948913 379.638 
L 140.279491 379.638 
z
" clip-path="url(#p0d9f7f04e7)" style="opacity: 0.25"/>
   </g>
   <g id="patch_76">
    <path d="M 167.948913 383.04 
L 195.618334 383.04 
L 195.618334 366.03 
L 167.948913 366.03 
z
" clip-path="url(#p0d9f7f04e7)" style="opacity: 0.25"/>
   </g>
   <g id="patch_77">
    <path d="M 195.618334 383.04 
L 223.287756 383.04 
L 223.287756 335.79 
L 195.618334 335.79 
z
" clip-path="url(#p0d9f7f04e7)" style="opacity: 0.25"/>
   </g>
   <g id="patch_78">
    <path d="M 223.287756 383.04 
L 250.957177 383.04 
L 250.957177 328.23 
L 223.287756 328.23 
z
" clip-path="url(#p0d9f7f04e7)" style="opacity: 0.25"/>
   </g>
   <g id="patch_79">
    <path d="M 250.957177 383.04 
L 278.626599 383.04 
L 278.626599 359.982 
L 250.957177 359.982 
z
" clip-path="url(#p0d9f7f04e7)" style="opacity: 0.25"/>
   </g>
   <g id="patch_80">
    <path d="M 278.626599 383.04 
L 306.29602 383.04 
L 306.29602 381.528 
L 278.626599 381.528 
z
" clip-path="url(#p0d9f7f04e7)" style="opacity: 0.25"/>
   </g>
   <g id="patch_81">
    <path d="M 306.29602 383.04 
L 333.965442 383.04 
L 333.965442 383.04 
L 306.29602 383.04 
z
" clip-path="url(#p0d9f7f04e7)" style="opacity: 0.25"/>
   </g>
   <g id="patch_82">
    <path d="M 333.965442 383.04 
L 361.634863 383.04 
L 361.634863 382.284 
L 333.965442 382.284 
z
" clip-path="url(#p0d9f7f04e7)" style="opacity: 0.25"/>
   </g>
   <g id="patch_83">
    <path d="M 213.641861 383.04 
L 215.219596 383.04 
L 215.219596 382.662 
L 213.641861 382.662 
z
" clip-path="url(#p0d9f7f04e7)" style="opacity: 0.5"/>
   </g>
   <g id="patch_84">
    <path d="M 215.219596 383.04 
L 216.797331 383.04 
L 216.797331 383.04 
L 215.219596 383.04 
z
" clip-path="url(#p0d9f7f04e7)" style="opacity: 0.5"/>
   </g>
   <g id="patch_85">
    <path d="M 216.797331 383.04 
L 218.375066 383.04 
L 218.375066 382.662 
L 216.797331 382.662 
z
" clip-path="url(#p0d9f7f04e7)" style="opacity: 0.5"/>
   </g>
   <g id="patch_86">
    <path d="M 218.375066 383.04 
L 219.952801 383.04 
L 219.952801 382.284 
L 218.375066 382.284 
z
" clip-path="url(#p0d9f7f04e7)" style="opacity: 0.5"/>
   </g>
   <g id="patch_87">
    <path d="M 219.952801 383.04 
L 221.530535 383.04 
L 221.530535 380.394 
L 219.952801 380.394 
z
" clip-path="url(#p0d9f7f04e7)" style="opacity: 0.5"/>
   </g>
   <g id="patch_88">
    <path d="M 221.530535 383.04 
L 223.10827 383.04 
L 223.10827 361.494 
L 221.530535 361.494 
z
" clip-path="url(#p0d9f7f04e7)" style="opacity: 0.5"/>
   </g>
   <g id="patch_89">
    <path d="M 223.10827 383.04 
L 224.686005 383.04 
L 224.686005 278.712 
L 223.10827 278.712 
z
" clip-path="url(#p0d9f7f04e7)" style="opacity: 0.5"/>
   </g>
   <g id="patch_90">
    <path d="M 224.686005 383.04 
L 226.26374 383.04 
L 226.26374 373.212 
L 224.686005 373.212 
z
" clip-path="url(#p0d9f7f04e7)" style="opacity: 0.5"/>
   </g>
   <g id="patch_91">
    <path d="M 226.26374 383.04 
L 227.841475 383.04 
L 227.841475 378.504 
L 226.26374 378.504 
z
" clip-path="url(#p0d9f7f04e7)" style="opacity: 0.5"/>
   </g>
   <g id="patch_92">
    <path d="M 227.841475 383.04 
L 229.419209 383.04 
L 229.419209 381.528 
L 227.841475 381.528 
z
" clip-path="url(#p0d9f7f04e7)" style="opacity: 0.5"/>
   </g>
   <g id="patch_93">
    <path d="M 229.419209 383.04 
L 230.996944 383.04 
L 230.996944 381.15 
L 229.419209 381.15 
z
" clip-path="url(#p0d9f7f04e7)" style="opacity: 0.5"/>
   </g>
   <g id="patch_94">
    <path d="M 230.996944 383.04 
L 232.574679 383.04 
L 232.574679 382.284 
L 230.996944 382.284 
z
" clip-path="url(#p0d9f7f04e7)" style="opacity: 0.5"/>
   </g>
   <g id="patch_95">
    <path d="M 232.574679 383.04 
L 234.152414 383.04 
L 234.152414 382.284 
L 232.574679 382.284 
z
" clip-path="url(#p0d9f7f04e7)" style="opacity: 0.5"/>
   </g>
   <g id="patch_96">
    <path d="M 234.152413 383.04 
L 235.730148 383.04 
L 235.730148 382.662 
L 234.152413 382.662 
z
" clip-path="url(#p0d9f7f04e7)" style="opacity: 0.5"/>
   </g>
   <g id="patch_97">
    <path d="M 235.730149 383.04 
L 237.307883 383.04 
L 237.307883 382.662 
L 235.730149 382.662 
z
" clip-path="url(#p0d9f7f04e7)" style="opacity: 0.5"/>
   </g>
   <g id="patch_98">
    <path d="M 237.307882 383.04 
L 238.885617 383.04 
L 238.885617 382.662 
L 237.307882 382.662 
z
" clip-path="url(#p0d9f7f04e7)" style="opacity: 0.5"/>
   </g>
   <g id="patch_99">
    <path d="M 238.885618 383.04 
L 240.463354 383.04 
L 240.463354 383.04 
L 238.885618 383.04 
z
" clip-path="url(#p0d9f7f04e7)" style="opacity: 0.5"/>
   </g>
   <g id="patch_100">
    <path d="M 240.463354 383.04 
L 242.041088 383.04 
L 242.041088 383.04 
L 240.463354 383.04 
z
" clip-path="url(#p0d9f7f04e7)" style="opacity: 0.5"/>
   </g>
   <g id="patch_101">
    <path d="M 242.04109 383.04 
L 243.618824 383.04 
L 243.618824 382.662 
L 242.04109 382.662 
z
" clip-path="url(#p0d9f7f04e7)" style="opacity: 0.5"/>
   </g>
   <g id="patch_102">
    <path d="M 243.618822 383.04 
L 245.196557 383.04 
L 245.196557 382.662 
L 243.618822 382.662 
z
" clip-path="url(#p0d9f7f04e7)" style="opacity: 0.5"/>
   </g>
   <g id="matplotlib.axis_5">
    <g id="xtick_8">
     <g id="line2d_16">
      <g>
       <use xlink:href="#m758ece876f" x="96.060043" y="383.04" style="stroke: #000000; stroke-width: 0.8"/>
      </g>
     </g>
     <g id="text_19">
      <!-- −2 -->
      <g transform="translate(85.655199 403.396562)scale(0.18 -0.18)">
       <use xlink:href="#Montserrat-Medium-2212"/>
       <use xlink:href="#Montserrat-Medium-32" x="58.199997"/>
      </g>
     </g>
    </g>
    <g id="xtick_9">
     <g id="line2d_17">
      <g>
       <use xlink:href="#m758ece876f" x="159.698297" y="383.04" style="stroke: #000000; stroke-width: 0.8"/>
      </g>
     </g>
     <g id="text_20">
      <!-- −1 -->
      <g transform="translate(151.130016 403.396562)scale(0.18 -0.18)">
       <use xlink:href="#Montserrat-Medium-2212"/>
       <use xlink:href="#Montserrat-Medium-31" x="58.199997"/>
      </g>
     </g>
    </g>
    <g id="xtick_10">
     <g id="line2d_18">
      <g>
       <use xlink:href="#m758ece876f" x="223.336551" y="383.04" style="stroke: #000000; stroke-width: 0.8"/>
      </g>
     </g>
     <g id="text_21">
      <!-- 0 -->
      <g transform="translate(217.333269 403.396562)scale(0.18 -0.18)">
       <use xlink:href="#Montserrat-Medium-30"/>
      </g>
     </g>
    </g>
    <g id="xtick_11">
     <g id="line2d_19">
      <g>
       <use xlink:href="#m758ece876f" x="286.974804" y="383.04" style="stroke: #000000; stroke-width: 0.8"/>
      </g>
     </g>
     <g id="text_22">
      <!-- 1 -->
      <g transform="translate(283.644804 403.396562)scale(0.18 -0.18)">
       <use xlink:href="#Montserrat-Medium-31"/>
      </g>
     </g>
    </g>
    <g id="xtick_12">
     <g id="line2d_20">
      <g>
       <use xlink:href="#m758ece876f" x="350.613058" y="383.04" style="stroke: #000000; stroke-width: 0.8"/>
      </g>
     </g>
     <g id="text_23">
      <!-- 2 -->
      <g transform="translate(345.446496 403.396562)scale(0.18 -0.18)">
       <use xlink:href="#Montserrat-Medium-32"/>
      </g>
     </g>
    </g>
    <g id="text_24">
     <!-- Weights -->
     <g transform="translate(184.561037 424.51625)scale(0.18 -0.18)">
      <defs>
       <path id="Montserrat-Medium-57" d="M 7002 4480 
L 5504 0 
L 4832 0 
L 3610 3578 
L 2387 0 
L 1702 0 
L 205 4480 
L 864 4480 
L 2074 838 
L 3334 4480 
L 3923 4480 
L 5158 819 
L 6394 4480 
L 7002 4480 
z
" transform="scale(0.015625)"/>
       <path id="Montserrat-Medium-69" d="M 582 3392 
L 1197 3392 
L 1197 0 
L 582 0 
L 582 3392 
z
M 890 4045 
Q 710 4045 592 4160 
Q 474 4275 474 4442 
Q 474 4608 592 4726 
Q 710 4845 890 4845 
Q 1069 4845 1187 4733 
Q 1306 4621 1306 4454 
Q 1306 4282 1187 4163 
Q 1069 4045 890 4045 
z
" transform="scale(0.015625)"/>
       <path id="Montserrat-Medium-67" d="M 3827 3392 
L 3827 461 
Q 3827 -429 3385 -854 
Q 2944 -1280 2067 -1280 
Q 1587 -1280 1152 -1149 
Q 717 -1018 448 -774 
L 742 -301 
Q 979 -506 1328 -624 
Q 1677 -742 2048 -742 
Q 2643 -742 2928 -460 
Q 3213 -179 3213 397 
L 3213 666 
Q 2995 403 2678 272 
Q 2362 141 1990 141 
Q 1504 141 1110 349 
Q 717 557 493 931 
Q 269 1306 269 1786 
Q 269 2266 493 2640 
Q 717 3014 1110 3219 
Q 1504 3424 1990 3424 
Q 2374 3424 2704 3283 
Q 3034 3142 3245 2867 
L 3245 3392 
L 3827 3392 
z
M 2061 678 
Q 2394 678 2659 819 
Q 2925 960 3075 1213 
Q 3226 1466 3226 1786 
Q 3226 2278 2899 2582 
Q 2573 2886 2061 2886 
Q 1542 2886 1216 2582 
Q 890 2278 890 1786 
Q 890 1466 1040 1213 
Q 1190 960 1456 819 
Q 1722 678 2061 678 
z
" transform="scale(0.015625)"/>
       <path id="Montserrat-Medium-68" d="M 2394 3424 
Q 3040 3424 3421 3049 
Q 3802 2675 3802 1952 
L 3802 0 
L 3187 0 
L 3187 1882 
Q 3187 2374 2950 2624 
Q 2714 2874 2272 2874 
Q 1773 2874 1485 2582 
Q 1197 2291 1197 1747 
L 1197 0 
L 582 0 
L 582 4749 
L 1197 4749 
L 1197 2912 
Q 1389 3155 1699 3289 
Q 2010 3424 2394 3424 
z
" transform="scale(0.015625)"/>
       <path id="Montserrat-Medium-73" d="M 1555 -38 
Q 1139 -38 755 74 
Q 371 186 154 358 
L 410 845 
Q 634 685 954 589 
Q 1274 493 1600 493 
Q 2406 493 2406 954 
Q 2406 1107 2297 1196 
Q 2189 1286 2025 1328 
Q 1862 1370 1562 1421 
Q 1152 1485 893 1568 
Q 634 1651 448 1849 
Q 262 2048 262 2406 
Q 262 2867 646 3145 
Q 1030 3424 1677 3424 
Q 2016 3424 2355 3341 
Q 2694 3258 2912 3117 
L 2650 2630 
Q 2234 2899 1670 2899 
Q 1280 2899 1075 2771 
Q 870 2643 870 2432 
Q 870 2266 985 2170 
Q 1101 2074 1270 2029 
Q 1440 1984 1747 1926 
Q 2157 1856 2409 1776 
Q 2662 1696 2841 1504 
Q 3021 1312 3021 966 
Q 3021 506 2627 234 
Q 2234 -38 1555 -38 
z
" transform="scale(0.015625)"/>
      </defs>
      <use xlink:href="#Montserrat-Medium-57"/>
      <use xlink:href="#Montserrat-Medium-65" x="112.599991"/>
      <use xlink:href="#Montserrat-Medium-69" x="173.799988"/>
      <use xlink:href="#Montserrat-Medium-67" x="201.699982"/>
      <use xlink:href="#Montserrat-Medium-68" x="270.699966"/>
      <use xlink:href="#Montserrat-Medium-74" x="338.799957"/>
      <use xlink:href="#Montserrat-Medium-73" x="380.199951"/>
     </g>
    </g>
   </g>
   <g id="matplotlib.axis_6">
    <g id="ytick_9">
     <g id="line2d_21">
      <g>
       <use xlink:href="#mcde195bc22" x="71.105938" y="383.04" style="stroke: #000000; stroke-width: 0.8"/>
      </g>
     </g>
     <g id="text_25">
      <!-- 0 -->
      <g transform="translate(52.099375 389.718281)scale(0.18 -0.18)">
       <use xlink:href="#Montserrat-Medium-30"/>
      </g>
     </g>
    </g>
    <g id="ytick_10">
     <g id="line2d_22">
      <g>
       <use xlink:href="#mcde195bc22" x="71.105938" y="345.24" style="stroke: #000000; stroke-width: 0.8"/>
      </g>
     </g>
     <g id="text_26">
      <!-- 100 -->
      <g transform="translate(33.432813 351.918281)scale(0.18 -0.18)">
       <use xlink:href="#Montserrat-Medium-31"/>
       <use xlink:href="#Montserrat-Medium-30" x="36.999985"/>
       <use xlink:href="#Montserrat-Medium-30" x="103.699982"/>
      </g>
     </g>
    </g>
    <g id="ytick_11">
     <g id="line2d_23">
      <g>
       <use xlink:href="#mcde195bc22" x="71.105938" y="307.44" style="stroke: #000000; stroke-width: 0.8"/>
      </g>
     </g>
     <g id="text_27">
      <!-- 200 -->
      <g transform="translate(29.759688 314.118281)scale(0.18 -0.18)">
       <use xlink:href="#Montserrat-Medium-32"/>
       <use xlink:href="#Montserrat-Medium-30" x="57.399994"/>
       <use xlink:href="#Montserrat-Medium-30" x="124.099991"/>
      </g>
     </g>
    </g>
    <g id="ytick_12">
     <g id="line2d_24">
      <g>
       <use xlink:href="#mcde195bc22" x="71.105938" y="269.64" style="stroke: #000000; stroke-width: 0.8"/>
      </g>
     </g>
     <g id="text_28">
      <!-- 300 -->
      <g transform="translate(29.79625 276.318281)scale(0.18 -0.18)">
       <use xlink:href="#Montserrat-Medium-33"/>
       <use xlink:href="#Montserrat-Medium-30" x="57.199997"/>
       <use xlink:href="#Montserrat-Medium-30" x="123.899994"/>
      </g>
     </g>
    </g>
    <g id="ytick_13">
     <g id="line2d_25">
      <g>
       <use xlink:href="#mcde195bc22" x="71.105938" y="231.84" style="stroke: #000000; stroke-width: 0.8"/>
      </g>
     </g>
     <g id="text_29">
      <!-- 400 -->
      <g transform="translate(28.049688 238.518281)scale(0.18 -0.18)">
       <defs>
        <path id="Montserrat-Medium-34" d="M 4205 1101 
L 3354 1101 
L 3354 0 
L 2733 0 
L 2733 1101 
L 243 1101 
L 243 1549 
L 2534 4480 
L 3226 4480 
L 1030 1651 
L 2752 1651 
L 2752 2624 
L 3354 2624 
L 3354 1651 
L 4205 1651 
L 4205 1101 
z
" transform="scale(0.015625)"/>
       </defs>
       <use xlink:href="#Montserrat-Medium-34"/>
       <use xlink:href="#Montserrat-Medium-30" x="66.899994"/>
       <use xlink:href="#Montserrat-Medium-30" x="133.599991"/>
      </g>
     </g>
    </g>
    <g id="text_30">
     <!-- Count -->
     <g transform="translate(20.556563 335.61)rotate(-90)scale(0.18 -0.18)">
      <use xlink:href="#Montserrat-Medium-43"/>
      <use xlink:href="#Montserrat-Medium-6f" x="72.299988"/>
      <use xlink:href="#Montserrat-Medium-75" x="135.799973"/>
      <use xlink:href="#Montserrat-Medium-6e" x="203.499954"/>
      <use xlink:href="#Montserrat-Medium-74" x="271.599945"/>
     </g>
    </g>
   </g>
   <g id="patch_103">
    <path d="M 71.105938 383.04 
L 71.105938 231.84 
" style="fill: none; stroke: #000000; stroke-width: 0.8; stroke-linejoin: miter; stroke-linecap: square"/>
   </g>
   <g id="patch_104">
    <path d="M 375.469574 383.04 
L 375.469574 231.84 
" style="fill: none; stroke: #000000; stroke-width: 0.8; stroke-linejoin: miter; stroke-linecap: square"/>
   </g>
   <g id="patch_105">
    <path d="M 71.105937 383.04 
L 375.469574 383.04 
" style="fill: none; stroke: #000000; stroke-width: 0.8; stroke-linejoin: miter; stroke-linecap: square"/>
   </g>
   <g id="patch_106">
    <path d="M 71.105937 231.84 
L 375.469574 231.84 
" style="fill: none; stroke: #000000; stroke-width: 0.8; stroke-linejoin: miter; stroke-linecap: square"/>
   </g>
   <g id="text_31">
    <!-- Layer 3 -->
    <g transform="translate(76.968567 326.34)scale(0.18 -0.18)">
     <use xlink:href="#Montserrat-Medium-4c"/>
     <use xlink:href="#Montserrat-Medium-61" x="59.399994"/>
     <use xlink:href="#Montserrat-Medium-79" x="119.199982"/>
     <use xlink:href="#Montserrat-Medium-65" x="175.099976"/>
     <use xlink:href="#Montserrat-Medium-72" x="236.299973"/>
     <use xlink:href="#Montserrat-Medium-20" x="277.299957"/>
     <use xlink:href="#Montserrat-Medium-33" x="304.199951"/>
    </g>
   </g>
  </g>
  <g id="axes_4">
   <g id="patch_107">
    <path d="M 436.342301 383.04 
L 740.705937 383.04 
L 740.705937 231.84 
L 436.342301 231.84 
z
" style="fill: #f1f7f0"/>
   </g>
   <g id="patch_108">
    <path d="M 450.177012 383.04 
L 477.846438 383.04 
L 477.846438 382.662 
L 450.177012 382.662 
z
" clip-path="url(#p5b97fe2500)" style="opacity: 0.25"/>
   </g>
   <g id="patch_109">
    <path d="M 477.846438 383.04 
L 505.515853 383.04 
L 505.515853 382.284 
L 477.846438 382.284 
z
" clip-path="url(#p5b97fe2500)" style="opacity: 0.25"/>
   </g>
   <g id="patch_110">
    <path d="M 505.515853 383.04 
L 533.185279 383.04 
L 533.185279 381.528 
L 505.515853 381.528 
z
" clip-path="url(#p5b97fe2500)" style="opacity: 0.25"/>
   </g>
   <g id="patch_111">
    <path d="M 533.185279 383.04 
L 560.854693 383.04 
L 560.854693 382.284 
L 533.185279 382.284 
z
" clip-path="url(#p5b97fe2500)" style="opacity: 0.25"/>
   </g>
   <g id="patch_112">
    <path d="M 560.854693 383.04 
L 588.524119 383.04 
L 588.524119 379.638 
L 560.854693 379.638 
z
" clip-path="url(#p5b97fe2500)" style="opacity: 0.25"/>
   </g>
   <g id="patch_113">
    <path d="M 588.524119 383.04 
L 616.193534 383.04 
L 616.193534 367.92 
L 588.524119 367.92 
z
" clip-path="url(#p5b97fe2500)" style="opacity: 0.25"/>
   </g>
   <g id="patch_114">
    <path d="M 616.193534 383.04 
L 643.86296 383.04 
L 643.86296 316.134 
L 616.193534 316.134 
z
" clip-path="url(#p5b97fe2500)" style="opacity: 0.25"/>
   </g>
   <g id="patch_115">
    <path d="M 643.862956 383.04 
L 671.53238 383.04 
L 671.53238 327.474 
L 643.862956 327.474 
z
" clip-path="url(#p5b97fe2500)" style="opacity: 0.25"/>
   </g>
   <g id="patch_116">
    <path d="M 671.532375 383.04 
L 699.201801 383.04 
L 699.201801 377.748 
L 671.532375 377.748 
z
" clip-path="url(#p5b97fe2500)" style="opacity: 0.25"/>
   </g>
   <g id="patch_117">
    <path d="M 699.201801 383.04 
L 726.871227 383.04 
L 726.871227 381.528 
L 699.201801 381.528 
z
" clip-path="url(#p5b97fe2500)" style="opacity: 0.25"/>
   </g>
   <g id="patch_118">
    <path d="M 624.217551 383.04 
L 625.505953 383.04 
L 625.505953 382.662 
L 624.217551 382.662 
z
" clip-path="url(#p5b97fe2500)" style="opacity: 0.5"/>
   </g>
   <g id="patch_119">
    <path d="M 625.505954 383.04 
L 626.794355 383.04 
L 626.794355 383.04 
L 625.505954 383.04 
z
" clip-path="url(#p5b97fe2500)" style="opacity: 0.5"/>
   </g>
   <g id="patch_120">
    <path d="M 626.794355 383.04 
L 628.082755 383.04 
L 628.082755 383.04 
L 626.794355 383.04 
z
" clip-path="url(#p5b97fe2500)" style="opacity: 0.5"/>
   </g>
   <g id="patch_121">
    <path d="M 628.082755 383.04 
L 629.371157 383.04 
L 629.371157 382.662 
L 628.082755 382.662 
z
" clip-path="url(#p5b97fe2500)" style="opacity: 0.5"/>
   </g>
   <g id="patch_122">
    <path d="M 629.371158 383.04 
L 630.65956 383.04 
L 630.65956 382.662 
L 629.371158 382.662 
z
" clip-path="url(#p5b97fe2500)" style="opacity: 0.5"/>
   </g>
   <g id="patch_123">
    <path d="M 630.659559 383.04 
L 631.947961 383.04 
L 631.947961 383.04 
L 630.659559 383.04 
z
" clip-path="url(#p5b97fe2500)" style="opacity: 0.5"/>
   </g>
   <g id="patch_124">
    <path d="M 631.947961 383.04 
L 633.236361 383.04 
L 633.236361 382.284 
L 631.947961 382.284 
z
" clip-path="url(#p5b97fe2500)" style="opacity: 0.5"/>
   </g>
   <g id="patch_125">
    <path d="M 633.236362 383.04 
L 634.524764 383.04 
L 634.524764 383.04 
L 633.236362 383.04 
z
" clip-path="url(#p5b97fe2500)" style="opacity: 0.5"/>
   </g>
   <g id="patch_126">
    <path d="M 634.524764 383.04 
L 635.813165 383.04 
L 635.813165 381.15 
L 634.524764 381.15 
z
" clip-path="url(#p5b97fe2500)" style="opacity: 0.5"/>
   </g>
   <g id="patch_127">
    <path d="M 635.813165 383.04 
L 637.101567 383.04 
L 637.101567 273.798 
L 635.813165 273.798 
z
" clip-path="url(#p5b97fe2500)" style="opacity: 0.5"/>
   </g>
   <g id="patch_128">
    <path d="M 637.101566 383.04 
L 638.389968 383.04 
L 638.389968 361.116 
L 637.101566 361.116 
z
" clip-path="url(#p5b97fe2500)" style="opacity: 0.5"/>
   </g>
   <g id="patch_129">
    <path d="M 638.389968 383.04 
L 639.678369 383.04 
L 639.678369 376.992 
L 638.389968 376.992 
z
" clip-path="url(#p5b97fe2500)" style="opacity: 0.5"/>
   </g>
   <g id="patch_130">
    <path d="M 639.678369 383.04 
L 640.966771 383.04 
L 640.966771 379.638 
L 639.678369 379.638 
z
" clip-path="url(#p5b97fe2500)" style="opacity: 0.5"/>
   </g>
   <g id="patch_131">
    <path d="M 640.966772 383.04 
L 642.255172 383.04 
L 642.255172 380.394 
L 640.966772 380.394 
z
" clip-path="url(#p5b97fe2500)" style="opacity: 0.5"/>
   </g>
   <g id="patch_132">
    <path d="M 642.255172 383.04 
L 643.543574 383.04 
L 643.543574 381.528 
L 642.255172 381.528 
z
" clip-path="url(#p5b97fe2500)" style="opacity: 0.5"/>
   </g>
   <g id="patch_133">
    <path d="M 643.543574 383.04 
L 644.831976 383.04 
L 644.831976 382.284 
L 643.543574 382.284 
z
" clip-path="url(#p5b97fe2500)" style="opacity: 0.5"/>
   </g>
   <g id="patch_134">
    <path d="M 644.831977 383.04 
L 646.120378 383.04 
L 646.120378 381.906 
L 644.831977 381.906 
z
" clip-path="url(#p5b97fe2500)" style="opacity: 0.5"/>
   </g>
   <g id="patch_135">
    <path d="M 646.120378 383.04 
L 647.408778 383.04 
L 647.408778 383.04 
L 646.120378 383.04 
z
" clip-path="url(#p5b97fe2500)" style="opacity: 0.5"/>
   </g>
   <g id="patch_136">
    <path d="M 647.408778 383.04 
L 648.69718 383.04 
L 648.69718 383.04 
L 647.408778 383.04 
z
" clip-path="url(#p5b97fe2500)" style="opacity: 0.5"/>
   </g>
   <g id="patch_137">
    <path d="M 648.697181 383.04 
L 649.985582 383.04 
L 649.985582 382.284 
L 648.697181 382.284 
z
" clip-path="url(#p5b97fe2500)" style="opacity: 0.5"/>
   </g>
   <g id="matplotlib.axis_7">
    <g id="xtick_13">
     <g id="line2d_26">
      <g>
       <use xlink:href="#m758ece876f" x="444.9042" y="383.04" style="stroke: #000000; stroke-width: 0.8"/>
      </g>
     </g>
     <g id="text_32">
      <!-- −4 -->
      <g transform="translate(433.644356 403.396562)scale(0.18 -0.18)">
       <use xlink:href="#Montserrat-Medium-2212"/>
       <use xlink:href="#Montserrat-Medium-34" x="58.199997"/>
      </g>
     </g>
    </g>
    <g id="xtick_14">
     <g id="line2d_27">
      <g>
       <use xlink:href="#m758ece876f" x="540.955342" y="383.04" style="stroke: #000000; stroke-width: 0.8"/>
      </g>
     </g>
     <g id="text_33">
      <!-- −2 -->
      <g transform="translate(530.550498 403.396562)scale(0.18 -0.18)">
       <use xlink:href="#Montserrat-Medium-2212"/>
       <use xlink:href="#Montserrat-Medium-32" x="58.199997"/>
      </g>
     </g>
    </g>
    <g id="xtick_15">
     <g id="line2d_28">
      <g>
       <use xlink:href="#m758ece876f" x="637.006484" y="383.04" style="stroke: #000000; stroke-width: 0.8"/>
      </g>
     </g>
     <g id="text_34">
      <!-- 0 -->
      <g transform="translate(631.003203 403.396562)scale(0.18 -0.18)">
       <use xlink:href="#Montserrat-Medium-30"/>
      </g>
     </g>
    </g>
    <g id="xtick_16">
     <g id="line2d_29">
      <g>
       <use xlink:href="#m758ece876f" x="733.057626" y="383.04" style="stroke: #000000; stroke-width: 0.8"/>
      </g>
     </g>
     <g id="text_35">
      <!-- 2 -->
      <g transform="translate(727.891064 403.396562)scale(0.18 -0.18)">
       <use xlink:href="#Montserrat-Medium-32"/>
      </g>
     </g>
    </g>
    <g id="text_36">
     <!-- Weights -->
     <g transform="translate(549.797401 424.51625)scale(0.18 -0.18)">
      <use xlink:href="#Montserrat-Medium-57"/>
      <use xlink:href="#Montserrat-Medium-65" x="112.599991"/>
      <use xlink:href="#Montserrat-Medium-69" x="173.799988"/>
      <use xlink:href="#Montserrat-Medium-67" x="201.699982"/>
      <use xlink:href="#Montserrat-Medium-68" x="270.699966"/>
      <use xlink:href="#Montserrat-Medium-74" x="338.799957"/>
      <use xlink:href="#Montserrat-Medium-73" x="380.199951"/>
     </g>
    </g>
   </g>
   <g id="matplotlib.axis_8">
    <g id="ytick_14">
     <g id="line2d_30">
      <g>
       <use xlink:href="#mcde195bc22" x="436.342301" y="383.04" style="stroke: #000000; stroke-width: 0.8"/>
      </g>
     </g>
     <g id="text_37">
      <!-- 0 -->
      <g transform="translate(417.335739 389.718281)scale(0.18 -0.18)">
       <use xlink:href="#Montserrat-Medium-30"/>
      </g>
     </g>
    </g>
    <g id="ytick_15">
     <g id="line2d_31">
      <g>
       <use xlink:href="#mcde195bc22" x="436.342301" y="345.24" style="stroke: #000000; stroke-width: 0.8"/>
      </g>
     </g>
     <g id="text_38">
      <!-- 100 -->
      <g transform="translate(398.669176 351.918281)scale(0.18 -0.18)">
       <use xlink:href="#Montserrat-Medium-31"/>
       <use xlink:href="#Montserrat-Medium-30" x="36.999985"/>
       <use xlink:href="#Montserrat-Medium-30" x="103.699982"/>
      </g>
     </g>
    </g>
    <g id="ytick_16">
     <g id="line2d_32">
      <g>
       <use xlink:href="#mcde195bc22" x="436.342301" y="307.44" style="stroke: #000000; stroke-width: 0.8"/>
      </g>
     </g>
     <g id="text_39">
      <!-- 200 -->
      <g transform="translate(394.996051 314.118281)scale(0.18 -0.18)">
       <use xlink:href="#Montserrat-Medium-32"/>
       <use xlink:href="#Montserrat-Medium-30" x="57.399994"/>
       <use xlink:href="#Montserrat-Medium-30" x="124.099991"/>
      </g>
     </g>
    </g>
    <g id="ytick_17">
     <g id="line2d_33">
      <g>
       <use xlink:href="#mcde195bc22" x="436.342301" y="269.64" style="stroke: #000000; stroke-width: 0.8"/>
      </g>
     </g>
     <g id="text_40">
      <!-- 300 -->
      <g transform="translate(395.032614 276.318281)scale(0.18 -0.18)">
       <use xlink:href="#Montserrat-Medium-33"/>
       <use xlink:href="#Montserrat-Medium-30" x="57.199997"/>
       <use xlink:href="#Montserrat-Medium-30" x="123.899994"/>
      </g>
     </g>
    </g>
    <g id="ytick_18">
     <g id="line2d_34">
      <g>
       <use xlink:href="#mcde195bc22" x="436.342301" y="231.84" style="stroke: #000000; stroke-width: 0.8"/>
      </g>
     </g>
     <g id="text_41">
      <!-- 400 -->
      <g transform="translate(393.286051 238.518281)scale(0.18 -0.18)">
       <use xlink:href="#Montserrat-Medium-34"/>
       <use xlink:href="#Montserrat-Medium-30" x="66.899994"/>
       <use xlink:href="#Montserrat-Medium-30" x="133.599991"/>
      </g>
     </g>
    </g>
   </g>
   <g id="patch_138">
    <path d="M 436.342301 383.04 
L 436.342301 231.84 
" style="fill: none; stroke: #000000; stroke-width: 0.8; stroke-linejoin: miter; stroke-linecap: square"/>
   </g>
   <g id="patch_139">
    <path d="M 740.705937 383.04 
L 740.705937 231.84 
" style="fill: none; stroke: #000000; stroke-width: 0.8; stroke-linejoin: miter; stroke-linecap: square"/>
   </g>
   <g id="patch_140">
    <path d="M 436.342301 383.04 
L 740.705937 383.04 
" style="fill: none; stroke: #000000; stroke-width: 0.8; stroke-linejoin: miter; stroke-linecap: square"/>
   </g>
   <g id="patch_141">
    <path d="M 436.342301 231.84 
L 740.705937 231.84 
" style="fill: none; stroke: #000000; stroke-width: 0.8; stroke-linejoin: miter; stroke-linecap: square"/>
   </g>
   <g id="text_42">
    <!-- Layer 4 -->
    <g transform="translate(526.547671 326.34)scale(0.18 -0.18)">
     <use xlink:href="#Montserrat-Medium-4c"/>
     <use xlink:href="#Montserrat-Medium-61" x="59.399994"/>
     <use xlink:href="#Montserrat-Medium-79" x="119.199982"/>
     <use xlink:href="#Montserrat-Medium-65" x="175.099976"/>
     <use xlink:href="#Montserrat-Medium-72" x="236.299973"/>
     <use xlink:href="#Montserrat-Medium-20" x="277.299957"/>
     <use xlink:href="#Montserrat-Medium-34" x="304.199951"/>
    </g>
   </g>
  </g>
  <g id="text_43">
   <!-- $L_2$ Regularization -->
   <g transform="translate(316.805937 20.88)scale(0.18 -0.18)">
    <defs>
     <path id="DejaVuSans-Oblique-4c" d="M 1075 4666 
L 1709 4666 
L 909 525 
L 3181 525 
L 3078 0 
L 172 0 
L 1075 4666 
z
" transform="scale(0.015625)"/>
     <path id="DejaVuSans-32" d="M 1228 531 
L 3431 531 
L 3431 0 
L 469 0 
L 469 531 
Q 828 903 1448 1529 
Q 2069 2156 2228 2338 
Q 2531 2678 2651 2914 
Q 2772 3150 2772 3378 
Q 2772 3750 2511 3984 
Q 2250 4219 1831 4219 
Q 1534 4219 1204 4116 
Q 875 4013 500 3803 
L 500 4441 
Q 881 4594 1212 4672 
Q 1544 4750 1819 4750 
Q 2544 4750 2975 4387 
Q 3406 4025 3406 3419 
Q 3406 3131 3298 2873 
Q 3191 2616 2906 2266 
Q 2828 2175 2409 1742 
Q 1991 1309 1228 531 
z
" transform="scale(0.015625)"/>
     <path id="Montserrat-Medium-52" d="M 3667 0 
L 2701 1376 
Q 2522 1363 2419 1363 
L 1312 1363 
L 1312 0 
L 672 0 
L 672 4480 
L 2419 4480 
Q 3290 4480 3789 4064 
Q 4288 3648 4288 2918 
Q 4288 2400 4032 2035 
Q 3776 1670 3302 1504 
L 4365 0 
L 3667 0 
z
M 2400 1907 
Q 3008 1907 3328 2169 
Q 3648 2432 3648 2918 
Q 3648 3405 3328 3664 
Q 3008 3923 2400 3923 
L 1312 3923 
L 1312 1907 
L 2400 1907 
z
" transform="scale(0.015625)"/>
     <path id="Montserrat-Medium-6c" d="M 582 4749 
L 1197 4749 
L 1197 0 
L 582 0 
L 582 4749 
z
" transform="scale(0.015625)"/>
     <path id="Montserrat-Medium-7a" d="M 3098 506 
L 3098 0 
L 256 0 
L 256 397 
L 2259 2886 
L 294 2886 
L 294 3392 
L 3046 3392 
L 3046 2989 
L 1043 506 
L 3098 506 
z
" transform="scale(0.015625)"/>
    </defs>
    <use xlink:href="#DejaVuSans-Oblique-4c" transform="translate(0 0.296875)"/>
    <use xlink:href="#DejaVuSans-32" transform="translate(55.712891 -16.109375)scale(0.7)"/>
    <use xlink:href="#Montserrat-Medium-20" transform="translate(102.983398 0.296875)"/>
    <use xlink:href="#Montserrat-Medium-52" transform="translate(129.883392 0.296875)"/>
    <use xlink:href="#Montserrat-Medium-65" transform="translate(202.583374 0.296875)"/>
    <use xlink:href="#Montserrat-Medium-67" transform="translate(263.783371 0.296875)"/>
    <use xlink:href="#Montserrat-Medium-75" transform="translate(332.783356 0.296875)"/>
    <use xlink:href="#Montserrat-Medium-6c" transform="translate(400.483337 0.296875)"/>
    <use xlink:href="#Montserrat-Medium-61" transform="translate(428.383331 0.296875)"/>
    <use xlink:href="#Montserrat-Medium-72" transform="translate(488.183319 0.296875)"/>
    <use xlink:href="#Montserrat-Medium-69" transform="translate(529.183304 0.296875)"/>
    <use xlink:href="#Montserrat-Medium-7a" transform="translate(557.083298 0.296875)"/>
    <use xlink:href="#Montserrat-Medium-61" transform="translate(609.183289 0.296875)"/>
    <use xlink:href="#Montserrat-Medium-74" transform="translate(668.983276 0.296875)"/>
    <use xlink:href="#Montserrat-Medium-69" transform="translate(710.38327 0.296875)"/>
    <use xlink:href="#Montserrat-Medium-6f" transform="translate(738.283264 0.296875)"/>
    <use xlink:href="#Montserrat-Medium-6e" transform="translate(801.783249 0.296875)"/>
   </g>
  </g>
 </g>
 <defs>
  <clipPath id="pa27fe8578a">
   <rect x="71.105938" y="50.4" width="304.363636" height="151.2"/>
  </clipPath>
  <clipPath id="p754f89650e">
   <rect x="436.342301" y="50.4" width="304.363636" height="151.2"/>
  </clipPath>
  <clipPath id="p0d9f7f04e7">
   <rect x="71.105938" y="231.84" width="304.363636" height="151.2"/>
  </clipPath>
  <clipPath id="p5b97fe2500">
   <rect x="436.342301" y="231.84" width="304.363636" height="151.2"/>
  </clipPath>
 </defs>
</svg>
