<?xml version="1.0" encoding="utf-8" standalone="no"?>
<!DOCTYPE svg PUBLIC "-//W3C//DTD SVG 1.1//EN"
  "http://www.w3.org/Graphics/SVG/1.1/DTD/svg11.dtd">
<svg xmlns:xlink="http://www.w3.org/1999/xlink" width="540.790625pt" height="356.226875pt" viewBox="0 0 540.790625 356.226875" xmlns="http://www.w3.org/2000/svg" version="1.1">
 <metadata>
  <rdf:RDF xmlns:dc="http://purl.org/dc/elements/1.1/" xmlns:cc="http://creativecommons.org/ns#" xmlns:rdf="http://www.w3.org/1999/02/22-rdf-syntax-ns#">
   <cc:Work>
    <dc:type rdf:resource="http://purl.org/dc/dcmitype/StillImage"/>
    <dc:date>2023-01-09T03:52:29.348859</dc:date>
    <dc:format>image/svg+xml</dc:format>
    <dc:creator>
     <cc:Agent>
      <dc:title>Matplotlib v3.5.2, https://matplotlib.org/</dc:title>
     </cc:Agent>
    </dc:creator>
   </cc:Work>
  </rdf:RDF>
 </metadata>
 <defs>
  <style type="text/css">*{stroke-linejoin: round; stroke-linecap: butt}</style>
 </defs>
 <g id="figure_1">
  <g id="patch_1">
   <path d="M 0 356.226875 
L 540.790625 356.226875 
L 540.790625 0 
L 0 0 
z
" style="fill: #ffffff"/>
  </g>
  <g id="axes_1">
   <g id="patch_2">
    <path d="M 64.285625 303.756563 
L 510.685625 303.756563 
L 510.685625 26.556563 
L 64.285625 26.556563 
z
" style="fill: #f1f7f0"/>
   </g>
   <g id="matplotlib.axis_1">
    <g id="xtick_1">
     <g id="line2d_1">
      <defs>
       <path id="m75b84d221b" d="M 0 0 
L 0 3.5 
" style="stroke: #000000; stroke-width: 0.8"/>
      </defs>
      <g>
       <use xlink:href="#m75b84d221b" x="64.285625" y="303.756563" style="stroke: #000000; stroke-width: 0.8"/>
      </g>
     </g>
     <g id="text_1">
      <!-- 0 -->
      <g transform="translate(58.559375 324.43375)scale(0.18 -0.18)">
       <defs>
        <path id="DejaVuSans-30" d="M 2034 4250 
Q 1547 4250 1301 3770 
Q 1056 3291 1056 2328 
Q 1056 1369 1301 889 
Q 1547 409 2034 409 
Q 2525 409 2770 889 
Q 3016 1369 3016 2328 
Q 3016 3291 2770 3770 
Q 2525 4250 2034 4250 
z
M 2034 4750 
Q 2819 4750 3233 4129 
Q 3647 3509 3647 2328 
Q 3647 1150 3233 529 
Q 2819 -91 2034 -91 
Q 1250 -91 836 529 
Q 422 1150 422 2328 
Q 422 3509 836 4129 
Q 1250 4750 2034 4750 
z
" transform="scale(0.015625)"/>
       </defs>
       <use xlink:href="#DejaVuSans-30"/>
      </g>
     </g>
    </g>
    <g id="xtick_2">
     <g id="line2d_2">
      <g>
       <use xlink:href="#m75b84d221b" x="153.565625" y="303.756563" style="stroke: #000000; stroke-width: 0.8"/>
      </g>
     </g>
     <g id="text_2">
      <!-- 200 -->
      <g transform="translate(136.386875 324.43375)scale(0.18 -0.18)">
       <defs>
        <path id="DejaVuSans-32" d="M 1228 531 
L 3431 531 
L 3431 0 
L 469 0 
L 469 531 
Q 828 903 1448 1529 
Q 2069 2156 2228 2338 
Q 2531 2678 2651 2914 
Q 2772 3150 2772 3378 
Q 2772 3750 2511 3984 
Q 2250 4219 1831 4219 
Q 1534 4219 1204 4116 
Q 875 4013 500 3803 
L 500 4441 
Q 881 4594 1212 4672 
Q 1544 4750 1819 4750 
Q 2544 4750 2975 4387 
Q 3406 4025 3406 3419 
Q 3406 3131 3298 2873 
Q 3191 2616 2906 2266 
Q 2828 2175 2409 1742 
Q 1991 1309 1228 531 
z
" transform="scale(0.015625)"/>
       </defs>
       <use xlink:href="#DejaVuSans-32"/>
       <use xlink:href="#DejaVuSans-30" x="63.623047"/>
       <use xlink:href="#DejaVuSans-30" x="127.246094"/>
      </g>
     </g>
    </g>
    <g id="xtick_3">
     <g id="line2d_3">
      <g>
       <use xlink:href="#m75b84d221b" x="242.845625" y="303.756563" style="stroke: #000000; stroke-width: 0.8"/>
      </g>
     </g>
     <g id="text_3">
      <!-- 400 -->
      <g transform="translate(225.666875 324.43375)scale(0.18 -0.18)">
       <defs>
        <path id="DejaVuSans-34" d="M 2419 4116 
L 825 1625 
L 2419 1625 
L 2419 4116 
z
M 2253 4666 
L 3047 4666 
L 3047 1625 
L 3713 1625 
L 3713 1100 
L 3047 1100 
L 3047 0 
L 2419 0 
L 2419 1100 
L 313 1100 
L 313 1709 
L 2253 4666 
z
" transform="scale(0.015625)"/>
       </defs>
       <use xlink:href="#DejaVuSans-34"/>
       <use xlink:href="#DejaVuSans-30" x="63.623047"/>
       <use xlink:href="#DejaVuSans-30" x="127.246094"/>
      </g>
     </g>
    </g>
    <g id="xtick_4">
     <g id="line2d_4">
      <g>
       <use xlink:href="#m75b84d221b" x="332.125625" y="303.756563" style="stroke: #000000; stroke-width: 0.8"/>
      </g>
     </g>
     <g id="text_4">
      <!-- 600 -->
      <g transform="translate(314.946875 324.43375)scale(0.18 -0.18)">
       <defs>
        <path id="DejaVuSans-36" d="M 2113 2584 
Q 1688 2584 1439 2293 
Q 1191 2003 1191 1497 
Q 1191 994 1439 701 
Q 1688 409 2113 409 
Q 2538 409 2786 701 
Q 3034 994 3034 1497 
Q 3034 2003 2786 2293 
Q 2538 2584 2113 2584 
z
M 3366 4563 
L 3366 3988 
Q 3128 4100 2886 4159 
Q 2644 4219 2406 4219 
Q 1781 4219 1451 3797 
Q 1122 3375 1075 2522 
Q 1259 2794 1537 2939 
Q 1816 3084 2150 3084 
Q 2853 3084 3261 2657 
Q 3669 2231 3669 1497 
Q 3669 778 3244 343 
Q 2819 -91 2113 -91 
Q 1303 -91 875 529 
Q 447 1150 447 2328 
Q 447 3434 972 4092 
Q 1497 4750 2381 4750 
Q 2619 4750 2861 4703 
Q 3103 4656 3366 4563 
z
" transform="scale(0.015625)"/>
       </defs>
       <use xlink:href="#DejaVuSans-36"/>
       <use xlink:href="#DejaVuSans-30" x="63.623047"/>
       <use xlink:href="#DejaVuSans-30" x="127.246094"/>
      </g>
     </g>
    </g>
    <g id="xtick_5">
     <g id="line2d_5">
      <g>
       <use xlink:href="#m75b84d221b" x="421.405625" y="303.756563" style="stroke: #000000; stroke-width: 0.8"/>
      </g>
     </g>
     <g id="text_5">
      <!-- 800 -->
      <g transform="translate(404.226875 324.43375)scale(0.18 -0.18)">
       <defs>
        <path id="DejaVuSans-38" d="M 2034 2216 
Q 1584 2216 1326 1975 
Q 1069 1734 1069 1313 
Q 1069 891 1326 650 
Q 1584 409 2034 409 
Q 2484 409 2743 651 
Q 3003 894 3003 1313 
Q 3003 1734 2745 1975 
Q 2488 2216 2034 2216 
z
M 1403 2484 
Q 997 2584 770 2862 
Q 544 3141 544 3541 
Q 544 4100 942 4425 
Q 1341 4750 2034 4750 
Q 2731 4750 3128 4425 
Q 3525 4100 3525 3541 
Q 3525 3141 3298 2862 
Q 3072 2584 2669 2484 
Q 3125 2378 3379 2068 
Q 3634 1759 3634 1313 
Q 3634 634 3220 271 
Q 2806 -91 2034 -91 
Q 1263 -91 848 271 
Q 434 634 434 1313 
Q 434 1759 690 2068 
Q 947 2378 1403 2484 
z
M 1172 3481 
Q 1172 3119 1398 2916 
Q 1625 2713 2034 2713 
Q 2441 2713 2670 2916 
Q 2900 3119 2900 3481 
Q 2900 3844 2670 4047 
Q 2441 4250 2034 4250 
Q 1625 4250 1398 4047 
Q 1172 3844 1172 3481 
z
" transform="scale(0.015625)"/>
       </defs>
       <use xlink:href="#DejaVuSans-38"/>
       <use xlink:href="#DejaVuSans-30" x="63.623047"/>
       <use xlink:href="#DejaVuSans-30" x="127.246094"/>
      </g>
     </g>
    </g>
    <g id="xtick_6">
     <g id="line2d_6">
      <g>
       <use xlink:href="#m75b84d221b" x="510.685625" y="303.756563" style="stroke: #000000; stroke-width: 0.8"/>
      </g>
     </g>
     <g id="text_6">
      <!-- 1000 -->
      <g transform="translate(487.780625 324.43375)scale(0.18 -0.18)">
       <defs>
        <path id="DejaVuSans-31" d="M 794 531 
L 1825 531 
L 1825 4091 
L 703 3866 
L 703 4441 
L 1819 4666 
L 2450 4666 
L 2450 531 
L 3481 531 
L 3481 0 
L 794 0 
L 794 531 
z
" transform="scale(0.015625)"/>
       </defs>
       <use xlink:href="#DejaVuSans-31"/>
       <use xlink:href="#DejaVuSans-30" x="63.623047"/>
       <use xlink:href="#DejaVuSans-30" x="127.246094"/>
       <use xlink:href="#DejaVuSans-30" x="190.869141"/>
      </g>
     </g>
    </g>
    <g id="text_7">
     <!-- Epochs -->
     <g transform="translate(253.827031 345.53375)scale(0.18 -0.18)">
      <defs>
       <path id="Montserrat-Medium-45" d="M 3923 557 
L 3923 0 
L 672 0 
L 672 4480 
L 3834 4480 
L 3834 3923 
L 1312 3923 
L 1312 2547 
L 3558 2547 
L 3558 2003 
L 1312 2003 
L 1312 557 
L 3923 557 
z
" transform="scale(0.015625)"/>
       <path id="Montserrat-Medium-70" d="M 2381 3424 
Q 2874 3424 3264 3206 
Q 3654 2989 3875 2598 
Q 4096 2208 4096 1696 
Q 4096 1184 3875 790 
Q 3654 397 3264 179 
Q 2874 -38 2381 -38 
Q 2016 -38 1712 102 
Q 1408 243 1197 512 
L 1197 -1242 
L 582 -1242 
L 582 3392 
L 1171 3392 
L 1171 2854 
Q 1376 3136 1689 3280 
Q 2003 3424 2381 3424 
z
M 2330 499 
Q 2656 499 2915 649 
Q 3174 800 3324 1072 
Q 3475 1344 3475 1696 
Q 3475 2048 3324 2320 
Q 3174 2592 2915 2739 
Q 2656 2886 2330 2886 
Q 2010 2886 1750 2736 
Q 1491 2586 1340 2317 
Q 1190 2048 1190 1696 
Q 1190 1344 1337 1072 
Q 1485 800 1747 649 
Q 2010 499 2330 499 
z
" transform="scale(0.015625)"/>
       <path id="Montserrat-Medium-6f" d="M 2035 -38 
Q 1530 -38 1126 186 
Q 723 410 496 803 
Q 269 1197 269 1696 
Q 269 2195 496 2588 
Q 723 2982 1126 3203 
Q 1530 3424 2035 3424 
Q 2541 3424 2941 3203 
Q 3341 2982 3568 2588 
Q 3795 2195 3795 1696 
Q 3795 1197 3568 803 
Q 3341 410 2941 186 
Q 2541 -38 2035 -38 
z
M 2035 499 
Q 2362 499 2621 649 
Q 2880 800 3027 1072 
Q 3174 1344 3174 1696 
Q 3174 2048 3027 2320 
Q 2880 2592 2621 2739 
Q 2362 2886 2035 2886 
Q 1709 2886 1449 2739 
Q 1190 2592 1040 2320 
Q 890 2048 890 1696 
Q 890 1344 1040 1072 
Q 1190 800 1449 649 
Q 1709 499 2035 499 
z
" transform="scale(0.015625)"/>
       <path id="Montserrat-Medium-63" d="M 2061 -38 
Q 1542 -38 1136 186 
Q 730 410 499 803 
Q 269 1197 269 1696 
Q 269 2195 499 2588 
Q 730 2982 1136 3203 
Q 1542 3424 2061 3424 
Q 2522 3424 2883 3238 
Q 3245 3053 3443 2701 
L 2976 2400 
Q 2816 2643 2579 2764 
Q 2342 2886 2054 2886 
Q 1722 2886 1456 2739 
Q 1190 2592 1040 2320 
Q 890 2048 890 1696 
Q 890 1338 1040 1066 
Q 1190 794 1456 646 
Q 1722 499 2054 499 
Q 2342 499 2579 620 
Q 2816 742 2976 986 
L 3443 691 
Q 3245 339 2883 150 
Q 2522 -38 2061 -38 
z
" transform="scale(0.015625)"/>
       <path id="Montserrat-Medium-68" d="M 2394 3424 
Q 3040 3424 3421 3049 
Q 3802 2675 3802 1952 
L 3802 0 
L 3187 0 
L 3187 1882 
Q 3187 2374 2950 2624 
Q 2714 2874 2272 2874 
Q 1773 2874 1485 2582 
Q 1197 2291 1197 1747 
L 1197 0 
L 582 0 
L 582 4749 
L 1197 4749 
L 1197 2912 
Q 1389 3155 1699 3289 
Q 2010 3424 2394 3424 
z
" transform="scale(0.015625)"/>
       <path id="Montserrat-Medium-73" d="M 1555 -38 
Q 1139 -38 755 74 
Q 371 186 154 358 
L 410 845 
Q 634 685 954 589 
Q 1274 493 1600 493 
Q 2406 493 2406 954 
Q 2406 1107 2297 1196 
Q 2189 1286 2025 1328 
Q 1862 1370 1562 1421 
Q 1152 1485 893 1568 
Q 634 1651 448 1849 
Q 262 2048 262 2406 
Q 262 2867 646 3145 
Q 1030 3424 1677 3424 
Q 2016 3424 2355 3341 
Q 2694 3258 2912 3117 
L 2650 2630 
Q 2234 2899 1670 2899 
Q 1280 2899 1075 2771 
Q 870 2643 870 2432 
Q 870 2266 985 2170 
Q 1101 2074 1270 2029 
Q 1440 1984 1747 1926 
Q 2157 1856 2409 1776 
Q 2662 1696 2841 1504 
Q 3021 1312 3021 966 
Q 3021 506 2627 234 
Q 2234 -38 1555 -38 
z
" transform="scale(0.015625)"/>
      </defs>
      <use xlink:href="#Montserrat-Medium-45"/>
      <use xlink:href="#Montserrat-Medium-70" x="66.999985"/>
      <use xlink:href="#Montserrat-Medium-6f" x="135.199966"/>
      <use xlink:href="#Montserrat-Medium-63" x="198.699951"/>
      <use xlink:href="#Montserrat-Medium-68" x="255.799942"/>
      <use xlink:href="#Montserrat-Medium-73" x="323.899933"/>
     </g>
    </g>
   </g>
   <g id="matplotlib.axis_2">
    <g id="ytick_1">
     <g id="line2d_7">
      <defs>
       <path id="m8d1fae3850" d="M 0 0 
L -3.5 0 
" style="stroke: #000000; stroke-width: 0.8"/>
      </defs>
      <g>
       <use xlink:href="#m8d1fae3850" x="64.285625" y="303.756563" style="stroke: #000000; stroke-width: 0.8"/>
      </g>
     </g>
     <g id="text_8">
      <!-- 0.0 -->
      <g transform="translate(28.66 310.595156)scale(0.18 -0.18)">
       <defs>
        <path id="DejaVuSans-2e" d="M 684 794 
L 1344 794 
L 1344 0 
L 684 0 
L 684 794 
z
" transform="scale(0.015625)"/>
       </defs>
       <use xlink:href="#DejaVuSans-30"/>
       <use xlink:href="#DejaVuSans-2e" x="63.623047"/>
       <use xlink:href="#DejaVuSans-30" x="95.410156"/>
      </g>
     </g>
    </g>
    <g id="ytick_2">
     <g id="line2d_8">
      <g>
       <use xlink:href="#m8d1fae3850" x="64.285625" y="248.316563" style="stroke: #000000; stroke-width: 0.8"/>
      </g>
     </g>
     <g id="text_9">
      <!-- 0.2 -->
      <g transform="translate(28.66 255.155156)scale(0.18 -0.18)">
       <use xlink:href="#DejaVuSans-30"/>
       <use xlink:href="#DejaVuSans-2e" x="63.623047"/>
       <use xlink:href="#DejaVuSans-32" x="95.410156"/>
      </g>
     </g>
    </g>
    <g id="ytick_3">
     <g id="line2d_9">
      <g>
       <use xlink:href="#m8d1fae3850" x="64.285625" y="192.876563" style="stroke: #000000; stroke-width: 0.8"/>
      </g>
     </g>
     <g id="text_10">
      <!-- 0.4 -->
      <g transform="translate(28.66 199.715156)scale(0.18 -0.18)">
       <use xlink:href="#DejaVuSans-30"/>
       <use xlink:href="#DejaVuSans-2e" x="63.623047"/>
       <use xlink:href="#DejaVuSans-34" x="95.410156"/>
      </g>
     </g>
    </g>
    <g id="ytick_4">
     <g id="line2d_10">
      <g>
       <use xlink:href="#m8d1fae3850" x="64.285625" y="137.436563" style="stroke: #000000; stroke-width: 0.8"/>
      </g>
     </g>
     <g id="text_11">
      <!-- 0.6 -->
      <g transform="translate(28.66 144.275156)scale(0.18 -0.18)">
       <use xlink:href="#DejaVuSans-30"/>
       <use xlink:href="#DejaVuSans-2e" x="63.623047"/>
       <use xlink:href="#DejaVuSans-36" x="95.410156"/>
      </g>
     </g>
    </g>
    <g id="ytick_5">
     <g id="line2d_11">
      <g>
       <use xlink:href="#m8d1fae3850" x="64.285625" y="81.996563" style="stroke: #000000; stroke-width: 0.8"/>
      </g>
     </g>
     <g id="text_12">
      <!-- 0.8 -->
      <g transform="translate(28.66 88.835156)scale(0.18 -0.18)">
       <use xlink:href="#DejaVuSans-30"/>
       <use xlink:href="#DejaVuSans-2e" x="63.623047"/>
       <use xlink:href="#DejaVuSans-38" x="95.410156"/>
      </g>
     </g>
    </g>
    <g id="ytick_6">
     <g id="line2d_12">
      <g>
       <use xlink:href="#m8d1fae3850" x="64.285625" y="26.556563" style="stroke: #000000; stroke-width: 0.8"/>
      </g>
     </g>
     <g id="text_13">
      <!-- 1.0 -->
      <g transform="translate(28.66 33.395156)scale(0.18 -0.18)">
       <use xlink:href="#DejaVuSans-31"/>
       <use xlink:href="#DejaVuSans-2e" x="63.623047"/>
       <use xlink:href="#DejaVuSans-30" x="95.410156"/>
      </g>
     </g>
    </g>
    <g id="text_14">
     <!-- Cost function $J$ -->
     <g transform="translate(20.88 231.756563)rotate(-90)scale(0.18 -0.18)">
      <defs>
       <path id="Montserrat-Medium-43" d="M 2675 -51 
Q 2003 -51 1462 246 
Q 922 544 614 1065 
Q 307 1587 307 2240 
Q 307 2893 614 3414 
Q 922 3936 1466 4233 
Q 2010 4531 2682 4531 
Q 3206 4531 3641 4355 
Q 4077 4179 4384 3834 
L 3968 3430 
Q 3462 3962 2707 3962 
Q 2208 3962 1805 3738 
Q 1402 3514 1174 3120 
Q 947 2726 947 2240 
Q 947 1754 1174 1360 
Q 1402 966 1805 742 
Q 2208 518 2707 518 
Q 3456 518 3968 1056 
L 4384 653 
Q 4077 307 3638 128 
Q 3200 -51 2675 -51 
z
" transform="scale(0.015625)"/>
       <path id="Montserrat-Medium-74" d="M 2490 198 
Q 2355 83 2156 22 
Q 1958 -38 1747 -38 
Q 1235 -38 953 237 
Q 672 512 672 1024 
L 672 2886 
L 96 2886 
L 96 3392 
L 672 3392 
L 672 4134 
L 1286 4134 
L 1286 3392 
L 2259 3392 
L 2259 2886 
L 1286 2886 
L 1286 1050 
Q 1286 774 1424 627 
Q 1562 480 1818 480 
Q 2099 480 2298 640 
L 2490 198 
z
" transform="scale(0.015625)"/>
       <path id="Montserrat-Medium-20" transform="scale(0.015625)"/>
       <path id="Montserrat-Medium-66" d="M 1824 4282 
Q 1274 4282 1274 3686 
L 1274 3392 
L 2259 3392 
L 2259 2886 
L 1286 2886 
L 1286 0 
L 672 0 
L 672 2886 
L 96 2886 
L 96 3392 
L 672 3392 
L 672 3693 
Q 672 4198 966 4492 
Q 1261 4787 1792 4787 
Q 1997 4787 2176 4736 
Q 2355 4685 2483 4589 
L 2298 4122 
Q 2086 4282 1824 4282 
z
" transform="scale(0.015625)"/>
       <path id="Montserrat-Medium-75" d="M 3744 3392 
L 3744 0 
L 3162 0 
L 3162 512 
Q 2976 250 2672 106 
Q 2368 -38 2010 -38 
Q 1331 -38 940 336 
Q 550 710 550 1440 
L 550 3392 
L 1165 3392 
L 1165 1510 
Q 1165 1018 1401 765 
Q 1638 512 2080 512 
Q 2566 512 2848 806 
Q 3130 1101 3130 1638 
L 3130 3392 
L 3744 3392 
z
" transform="scale(0.015625)"/>
       <path id="Montserrat-Medium-6e" d="M 2394 3424 
Q 3040 3424 3421 3049 
Q 3802 2675 3802 1952 
L 3802 0 
L 3187 0 
L 3187 1882 
Q 3187 2374 2950 2624 
Q 2714 2874 2272 2874 
Q 1773 2874 1485 2582 
Q 1197 2291 1197 1747 
L 1197 0 
L 582 0 
L 582 3392 
L 1171 3392 
L 1171 2880 
Q 1357 3142 1673 3283 
Q 1990 3424 2394 3424 
z
" transform="scale(0.015625)"/>
       <path id="Montserrat-Medium-69" d="M 582 3392 
L 1197 3392 
L 1197 0 
L 582 0 
L 582 3392 
z
M 890 4045 
Q 710 4045 592 4160 
Q 474 4275 474 4442 
Q 474 4608 592 4726 
Q 710 4845 890 4845 
Q 1069 4845 1187 4733 
Q 1306 4621 1306 4454 
Q 1306 4282 1187 4163 
Q 1069 4045 890 4045 
z
" transform="scale(0.015625)"/>
       <path id="DejaVuSans-Oblique-4a" d="M 1069 4666 
L 1703 4666 
L 856 325 
Q 691 -522 298 -901 
Q -94 -1281 -800 -1281 
L -1050 -1281 
L -947 -750 
L -750 -750 
Q -328 -750 -109 -509 
Q 109 -269 225 325 
L 1069 4666 
z
" transform="scale(0.015625)"/>
      </defs>
      <use xlink:href="#Montserrat-Medium-43" transform="translate(0 0.296875)"/>
      <use xlink:href="#Montserrat-Medium-6f" transform="translate(72.299988 0.296875)"/>
      <use xlink:href="#Montserrat-Medium-73" transform="translate(135.799973 0.296875)"/>
      <use xlink:href="#Montserrat-Medium-74" transform="translate(185.899963 0.296875)"/>
      <use xlink:href="#Montserrat-Medium-20" transform="translate(227.299957 0.296875)"/>
      <use xlink:href="#Montserrat-Medium-66" transform="translate(254.199951 0.296875)"/>
      <use xlink:href="#Montserrat-Medium-75" transform="translate(289.499939 0.296875)"/>
      <use xlink:href="#Montserrat-Medium-6e" transform="translate(357.199921 0.296875)"/>
      <use xlink:href="#Montserrat-Medium-63" transform="translate(425.299911 0.296875)"/>
      <use xlink:href="#Montserrat-Medium-74" transform="translate(482.399902 0.296875)"/>
      <use xlink:href="#Montserrat-Medium-69" transform="translate(523.799896 0.296875)"/>
      <use xlink:href="#Montserrat-Medium-6f" transform="translate(551.69989 0.296875)"/>
      <use xlink:href="#Montserrat-Medium-6e" transform="translate(615.199875 0.296875)"/>
      <use xlink:href="#Montserrat-Medium-20" transform="translate(683.299866 0.296875)"/>
      <use xlink:href="#DejaVuSans-Oblique-4a" transform="translate(710.19986 0.296875)"/>
     </g>
    </g>
   </g>
   <g id="line2d_13">
    <path d="M 70.155148 -1 
L 70.981625 21.892518 
L 71.874425 39.518788 
L 72.767225 52.715962 
L 73.660025 63.081839 
L 74.999225 75.228585 
L 76.338425 84.814737 
L 77.677625 92.720527 
L 79.016825 99.466461 
L 80.802425 107.096938 
L 82.588025 113.528004 
L 84.373625 119.036856 
L 86.159225 123.789906 
L 87.944825 127.921434 
L 89.730425 131.58232 
L 91.962425 135.565063 
L 94.194425 139.034405 
L 96.872825 142.638008 
L 98.658425 144.76041 
L 100.890425 147.175689 
L 103.122425 149.340273 
L 105.800825 151.686141 
L 109.818425 154.757657 
L 114.282425 157.669334 
L 117.853625 159.731199 
L 124.996025 163.208273 
L 129.460025 165.078213 
L 133.477625 166.609444 
L 141.959225 169.411999 
L 149.548025 171.537706 
L 156.690425 173.319598 
L 175.885625 177.163826 
L 180.349625 177.928202 
L 184.813625 178.664275 
L 188.384825 179.207986 
L 191.509625 179.687706 
L 196.866425 180.443895 
L 209.812025 182.09735 
L 213.383225 182.488973 
L 216.061625 182.794059 
L 220.525625 183.305328 
L 222.757625 183.504704 
L 223.650425 183.622757 
L 226.328825 183.893196 
L 241.060025 185.29247 
L 246.416825 185.754941 
L 253.112825 186.317082 
L 303.556025 189.782525 
L 325.429625 190.982366 
L 326.322425 191.051182 
L 332.572025 191.360291 
L 333.911225 191.427108 
L 338.821625 191.692871 
L 341.500025 191.821349 
L 351.767225 192.310594 
L 355.784825 192.516488 
L 366.498425 192.987327 
L 370.516025 193.17332 
L 372.748025 193.279708 
L 376.319225 193.416092 
L 440.154425 195.876543 
L 443.725625 195.980659 
L 445.511225 196.059594 
L 448.189625 196.145238 
L 461.135225 196.571326 
L 462.474425 196.612641 
L 464.706425 196.677532 
L 510.239225 198.100236 
L 510.239225 198.100236 
" clip-path="url(#pedec501c94)" style="fill: none; stroke: #1f77b4; stroke-width: 2; stroke-linecap: square"/>
   </g>
   <g id="line2d_14">
    <path d="M 66.558644 -1 
L 66.964025 22.547929 
L 67.856825 55.412964 
L 68.749625 75.515182 
L 69.642425 89.316267 
L 70.535225 99.586496 
L 71.428025 107.59798 
L 72.767225 116.95913 
L 74.106425 124.203 
L 75.445625 130.046595 
L 76.784825 134.92363 
L 78.124025 139.053819 
L 79.909625 143.699341 
L 81.695225 147.588187 
L 83.480825 151.104883 
L 85.266425 154.15824 
L 87.498425 157.357358 
L 89.730425 160.129471 
L 92.408825 162.965179 
L 93.748025 164.246227 
L 96.872825 166.945262 
L 100.890425 169.874412 
L 104.461625 172.145433 
L 108.925625 174.570436 
L 112.050425 176.075057 
L 117.853625 178.582241 
L 125.888825 181.414942 
L 130.352825 182.785434 
L 132.584825 183.442745 
L 138.388025 184.95153 
L 150.440825 187.66351 
L 157.136825 188.955281 
L 158.476025 189.174542 
L 170.975225 191.2429 
L 174.100025 191.723247 
L 177.224825 192.179869 
L 180.349625 192.597993 
L 182.135225 192.847077 
L 183.920825 193.068213 
L 189.277625 193.762137 
L 191.509625 194.015368 
L 195.080825 194.454856 
L 198.205625 194.797192 
L 199.544825 194.968446 
L 209.812025 196.07957 
L 215.615225 196.623347 
L 217.400825 196.79276 
L 220.525625 197.121341 
L 222.311225 197.286722 
L 243.292025 199.096256 
L 245.524025 199.275557 
L 253.559225 199.920418 
L 255.791225 200.048897 
L 262.933625 200.587164 
L 267.844025 200.928285 
L 274.093625 201.380091 
L 275.432825 201.484694 
L 277.218425 201.603853 
L 290.610425 202.484531 
L 293.288825 202.698711 
L 295.074425 202.734234 
L 296.860025 202.890115 
L 341.053625 205.434144 
L 342.839225 205.520614 
L 345.071225 205.648778 
L 348.642425 205.84523 
L 373.640825 207.095852 
L 374.980025 207.165395 
L 378.104825 207.319376 
L 378.997625 207.363383 
L 379.444025 207.437122 
L 380.336825 207.42212 
L 384.800825 207.640629 
L 386.140025 207.694319 
L 393.282425 208.024453 
L 394.175225 208.051442 
L 396.407225 208.168198 
L 399.532025 208.286812 
L 407.567225 208.671792 
L 411.138425 208.798329 
L 414.263225 208.955548 
L 416.048825 208.99279 
L 418.280825 209.12411 
L 435.690425 209.823578 
L 436.583225 209.875722 
L 437.476025 209.919482 
L 439.261625 209.976633 
L 439.708025 210.028133 
L 440.154425 209.947058 
L 441.047225 210.069282 
L 442.386425 210.055643 
L 443.279225 210.131349 
L 459.349625 210.780002 
L 460.242425 210.756028 
L 463.367225 210.884391 
L 465.599225 210.976222 
L 470.063225 211.141083 
L 478.098425 211.393025 
L 478.991225 211.440998 
L 485.687225 211.683637 
L 486.580025 211.707124 
L 488.365625 211.758302 
L 491.044025 211.828456 
L 494.615225 211.985254 
L 495.954425 211.996853 
L 496.847225 212.090601 
L 498.632825 212.087544 
L 500.864825 212.184787 
L 503.096825 212.218616 
L 505.775225 212.355364 
L 507.560825 212.384311 
L 510.239225 212.46 
L 510.239225 212.46 
" clip-path="url(#pedec501c94)" style="fill: none; stroke: #ff7f0e; stroke-width: 2; stroke-linecap: square"/>
   </g>
   <g id="line2d_15">
    <path d="M 65.084264 -1 
L 65.178425 16.128742 
L 65.624825 55.191398 
L 66.071225 77.258643 
L 66.517625 91.605 
L 67.410425 109.878304 
L 68.303225 121.771777 
L 69.196025 130.467206 
L 70.088825 137.24896 
L 70.981625 142.757184 
L 72.320825 149.407205 
L 73.660025 154.626849 
L 74.999225 158.885334 
L 76.784825 163.404741 
L 78.124025 166.243423 
L 79.909625 169.358368 
L 81.695225 171.980482 
L 83.927225 174.712627 
L 85.712825 176.55229 
L 87.944825 178.569147 
L 91.516025 181.247834 
L 96.426425 184.15724 
L 97.765625 184.777739 
L 99.104825 185.448747 
L 101.336825 186.417258 
L 105.800825 188.196151 
L 116.960825 191.537089 
L 119.639225 192.171798 
L 120.978425 192.519123 
L 126.335225 193.701434 
L 127.228025 193.892623 
L 129.013625 194.258338 
L 129.906425 194.391889 
L 130.799225 194.655669 
L 132.584825 194.923249 
L 133.031225 195.051686 
L 133.477625 195.053892 
L 135.263225 195.455651 
L 137.048825 195.723785 
L 138.388025 196.01215 
L 139.280825 196.10955 
L 141.512825 196.469953 
L 150.887225 197.914516 
L 151.780025 198.023117 
L 156.690425 198.667921 
L 158.922425 198.968596 
L 162.047225 199.396435 
L 163.832825 199.585352 
L 167.404025 200.059091 
L 169.189625 200.208883 
L 175.885625 200.933176 
L 176.778425 201.111651 
L 177.671225 201.147265 
L 179.010425 201.296561 
L 193.741625 202.751029 
L 194.634425 202.837119 
L 204.455225 203.75132 
L 205.348025 203.804209 
L 208.472825 204.089047 
L 209.812025 204.208718 
L 214.722425 204.588461 
L 215.168825 204.684233 
L 216.061625 204.692734 
L 217.400825 204.815983 
L 218.740025 204.934845 
L 219.186425 205.000563 
L 220.079225 204.998762 
L 226.775225 205.543927 
L 228.114425 205.595708 
L 228.560825 205.708631 
L 229.453625 205.679271 
L 230.346425 205.795018 
L 231.685625 205.934773 
L 233.024825 206.013147 
L 258.023225 207.80734 
L 258.469625 207.722977 
L 258.916025 207.88583 
L 260.255225 207.900634 
L 278.557625 209.094857 
L 279.450425 209.102358 
L 280.789625 209.21932 
L 282.128825 209.292085 
L 282.575225 209.379761 
L 283.468025 209.40124 
L 287.039225 209.575866 
L 287.932025 209.638733 
L 292.842425 209.939639 
L 294.181625 210.00069 
L 295.520825 210.091918 
L 321.858425 211.516645 
L 405.781625 215.370604 
L 407.120825 215.402212 
L 408.013625 215.425872 
L 409.799225 215.519777 
L 411.584825 215.55383 
L 412.477625 215.645744 
L 413.370425 215.623215 
L 413.816825 215.709107 
L 414.263225 215.65118 
L 415.602425 215.77841 
L 416.495225 215.776832 
L 416.941625 215.835966 
L 417.388025 215.750859 
L 418.727225 215.878966 
L 462.474425 217.501276 
L 462.920825 217.398358 
L 463.813625 217.534453 
L 466.492025 217.599089 
L 466.938425 217.535791 
L 467.384825 217.638189 
L 467.831225 217.578014 
L 469.170425 217.670664 
L 470.509625 217.710557 
L 471.402425 217.776663 
L 474.527225 217.881829 
L 475.420025 217.912122 
L 476.312825 217.887223 
L 481.223225 218.038857 
L 481.669625 218.137992 
L 483.008825 218.10256 
L 485.240825 218.207683 
L 486.580025 218.195201 
L 487.026425 218.271576 
L 487.472825 218.220397 
L 487.919225 218.34382 
L 489.258425 218.354634 
L 491.936825 218.384044 
L 493.722425 218.494248 
L 496.847225 218.555133 
L 497.293625 218.627832 
L 498.186425 218.573919 
L 499.079225 218.602883 
L 499.525625 218.666222 
L 500.418425 218.662562 
L 506.668025 218.90578 
L 507.114425 218.829636 
L 508.900025 218.966863 
L 510.239225 218.90212 
L 510.239225 218.90212 
" clip-path="url(#pedec501c94)" style="fill: none; stroke: #2ca02c; stroke-width: 2; stroke-linecap: square"/>
   </g>
   <g id="line2d_16">
    <path d="M 64.580926 -1 
L 64.732025 51.385016 
L 65.178425 91.339964 
L 65.624825 112.653424 
L 66.071225 126.705384 
L 66.517625 136.607825 
L 67.410425 149.584243 
L 68.303225 157.767957 
L 69.196025 163.592849 
L 70.088825 167.927279 
L 70.981625 171.358744 
L 72.320825 175.302915 
L 73.213625 177.481023 
L 74.552825 180.118982 
L 75.892025 182.288837 
L 77.677625 184.722422 
L 78.570425 185.796503 
L 79.463225 186.704962 
L 79.909625 187.295928 
L 81.248825 188.448779 
L 82.141625 189.282673 
L 83.034425 189.957225 
L 85.266425 191.59562 
L 87.944825 193.213271 
L 89.284025 193.942215 
L 90.176825 194.499251 
L 90.623225 194.641856 
L 91.516025 195.130473 
L 92.408825 195.549242 
L 94.194425 196.306158 
L 95.087225 196.733056 
L 95.980025 197.050831 
L 96.872825 197.483099 
L 97.319225 197.689769 
L 97.765625 197.766747 
L 98.658425 198.128869 
L 101.783225 199.210591 
L 102.229625 199.309403 
L 102.676025 199.552597 
L 103.568825 199.744628 
L 104.015225 199.992208 
L 104.461625 200.06513 
L 104.908025 200.26444 
L 105.354425 200.306415 
L 106.247225 200.633691 
L 108.032825 201.078548 
L 109.372025 201.531642 
L 110.264825 201.776851 
L 111.604025 202.066241 
L 112.496825 202.373244 
L 117.407225 203.546228 
L 117.853625 203.561329 
L 119.639225 204.045907 
L 120.532025 204.211395 
L 120.978425 204.390234 
L 121.424825 204.406583 
L 122.317625 204.641358 
L 123.210425 204.74701 
L 123.656825 204.913796 
L 124.103225 204.954234 
L 124.549625 205.121036 
L 124.996025 205.149157 
L 125.888825 205.344816 
L 127.228025 205.578748 
L 128.567225 205.890047 
L 131.245625 206.377706 
L 132.584825 206.622138 
L 133.031225 206.790245 
L 133.477625 206.79455 
L 134.370425 207.008077 
L 134.816825 206.969844 
L 135.263225 207.126584 
L 135.709625 207.080544 
L 136.602425 207.382516 
L 138.834425 207.702431 
L 144.191225 208.522876 
L 144.637625 208.548767 
L 145.530425 208.777552 
L 145.976825 208.759923 
L 146.423225 208.900553 
L 146.869625 208.905634 
L 147.316025 209.041167 
L 148.208825 209.093114 
L 149.101625 209.302188 
L 149.548025 209.297215 
L 150.887225 209.562144 
L 152.672825 209.793168 
L 153.565625 209.948561 
L 154.458425 210.048117 
L 156.244025 210.28965 
L 158.476025 210.599957 
L 160.261625 210.902755 
L 160.708025 210.875716 
L 161.600825 210.994835 
L 177.671225 212.856902 
L 178.564025 212.914086 
L 179.010425 213.053816 
L 180.796025 213.164152 
L 181.242425 213.263031 
L 181.688825 213.191588 
L 182.581625 213.39236 
L 193.741625 214.454586 
L 194.188025 214.542047 
L 194.634425 214.504301 
L 196.420025 214.740944 
L 197.759225 214.787851 
L 198.205625 214.904557 
L 198.652025 214.879368 
L 199.098425 215.040891 
L 199.544825 214.92725 
L 201.330425 215.145412 
L 202.223225 215.158225 
L 203.116025 215.280929 
L 204.455225 215.398337 
L 229.453625 217.48952 
L 229.900025 217.394574 
L 231.239225 217.478971 
L 232.132025 217.678628 
L 233.917625 217.713391 
L 236.149625 217.843596 
L 236.596025 217.961929 
L 237.935225 218.020377 
L 239.274425 218.171012 
L 240.613625 218.131342 
L 241.952825 218.265999 
L 242.399225 218.388397 
L 243.738425 218.401111 
L 244.184825 218.476974 
L 244.631225 218.41461 
L 245.524025 218.627947 
L 245.970425 218.512026 
L 246.416825 218.627485 
L 246.863225 218.592895 
L 247.309625 218.701009 
L 247.756025 218.629591 
L 249.095225 218.834097 
L 249.988025 218.85765 
L 251.327225 219.094515 
L 252.220025 219.014291 
L 252.666425 219.08599 
L 253.112825 219.025518 
L 254.898425 219.264605 
L 258.469625 219.455604 
L 258.916025 219.537068 
L 259.362425 219.444923 
L 260.701625 219.656756 
L 261.148025 219.525329 
L 262.040825 219.693155 
L 264.272825 219.735031 
L 265.165625 219.884286 
L 265.612025 219.774322 
L 266.058425 219.920884 
L 294.628025 221.52934 
L 295.074425 221.447471 
L 296.413625 221.777143 
L 296.860025 221.644245 
L 298.199225 221.762669 
L 298.645625 221.871585 
L 300.431225 221.835963 
L 300.877625 222.008597 
L 301.324025 221.894138 
L 302.216825 221.954577 
L 303.109625 221.911049 
L 303.556025 222.09206 
L 305.341625 222.124981 
L 310.252025 222.438337 
L 310.698425 222.299284 
L 311.591225 222.422269 
L 312.037625 222.428151 
L 312.484025 222.552275 
L 315.608825 222.56185 
L 316.055225 222.739747 
L 316.948025 222.586171 
L 318.287225 222.827786 
L 319.180025 222.744877 
L 319.626425 222.708742 
L 320.965625 222.909531 
L 321.412025 222.830769 
L 322.304825 223.047014 
L 325.876025 223.087006 
L 326.768825 223.180218 
L 327.661625 223.196013 
L 330.786425 223.389507 
L 331.232825 223.320485 
L 333.018425 223.471359 
L 333.464825 223.384344 
L 336.143225 223.606306 
L 336.589625 223.534706 
L 338.821625 223.692206 
L 339.714425 223.700087 
L 340.160825 223.826359 
L 340.607225 223.704077 
L 342.392825 223.87268 
L 343.732025 223.831523 
L 344.178425 223.971195 
L 344.624825 223.857793 
L 345.071225 224.032278 
L 346.856825 223.993963 
L 347.303225 224.100499 
L 347.749625 224.013104 
L 349.981625 224.1834 
L 350.428025 224.068132 
L 350.874425 224.173165 
L 351.767225 224.187919 
L 352.660025 224.27011 
L 353.552825 224.289747 
L 358.463225 224.551767 
L 359.356025 224.518169 
L 359.802425 224.462158 
L 360.695225 224.591281 
L 361.141625 224.578484 
L 362.034425 224.674347 
L 363.373625 224.703509 
L 363.820025 224.58696 
L 364.712825 224.765097 
L 366.052025 224.834532 
L 366.944825 224.796035 
L 367.391225 224.900308 
L 367.837625 224.871253 
L 368.284025 224.966554 
L 368.730425 224.878556 
L 369.176825 224.994725 
L 370.069625 224.895904 
L 370.516025 225.047481 
L 371.855225 224.955088 
L 372.301625 225.083492 
L 372.748025 224.936839 
L 374.087225 225.167764 
L 375.426425 225.156521 
L 375.872825 225.078353 
L 377.212025 225.269385 
L 377.658425 225.176058 
L 379.444025 225.364612 
L 379.890425 225.250954 
L 380.336825 225.468315 
L 381.229625 225.335582 
L 382.568825 225.484937 
L 383.015225 225.583352 
L 383.908025 225.526399 
L 384.354425 225.562617 
L 384.800825 225.477047 
L 385.693625 225.651392 
L 386.140025 225.541683 
L 389.711225 225.739803 
L 390.157625 225.646575 
L 391.050425 225.758647 
L 394.621625 225.918889 
L 395.068025 225.820837 
L 400.871225 226.161835 
L 402.210425 226.075951 
L 402.656825 226.191501 
L 404.888825 226.144528 
L 405.335225 226.306753 
L 405.781625 226.209865 
L 406.228025 226.409828 
L 406.674425 226.308876 
L 407.567225 226.423137 
L 408.013625 226.277756 
L 408.906425 226.374842 
L 411.138425 226.536579 
L 411.584825 226.474538 
L 412.477625 226.549153 
L 413.370425 226.585957 
L 414.263225 226.606626 
L 414.709625 226.559149 
L 415.602425 226.706975 
L 416.495225 226.640687 
L 416.941625 226.683819 
L 417.388025 226.605544 
L 418.727225 226.789339 
L 420.066425 226.751561 
L 420.959225 226.822037 
L 423.191225 226.886235 
L 423.637625 226.96793 
L 424.530425 226.802268 
L 424.976825 226.971705 
L 426.762425 226.941147 
L 427.208825 227.098564 
L 428.101625 227.040298 
L 428.994425 227.052558 
L 429.887225 227.035556 
L 430.333625 227.219814 
L 431.672825 227.177566 
L 433.458425 227.21546 
L 434.351225 227.271463 
L 437.476025 227.312348 
L 437.922425 227.424766 
L 438.368825 227.358107 
L 439.708025 227.413481 
L 441.047225 227.420206 
L 441.493625 227.445832 
L 441.940025 227.652015 
L 442.386425 227.453226 
L 442.832825 227.436382 
L 443.279225 227.571824 
L 444.618425 227.557326 
L 445.064825 227.640565 
L 445.511225 227.492748 
L 445.957625 227.627604 
L 446.404025 227.612923 
L 446.850425 227.726936 
L 449.528825 227.728861 
L 451.760825 227.94699 
L 453.100025 227.771729 
L 453.546425 227.799478 
L 453.992825 227.980489 
L 454.885625 227.805269 
L 455.778425 228.021399 
L 456.224825 228.025612 
L 456.671225 227.885791 
L 458.456825 228.040854 
L 460.688825 228.18849 
L 461.581625 228.037648 
L 462.474425 228.139113 
L 463.813625 228.206177 
L 464.706425 228.142111 
L 465.152825 228.28912 
L 470.956025 228.372037 
L 471.402425 228.467776 
L 472.295225 228.471866 
L 473.634425 228.451353 
L 474.080825 228.453278 
L 474.527225 228.577039 
L 475.420025 228.546439 
L 477.205625 228.654199 
L 477.652025 228.668226 
L 478.098425 228.49598 
L 478.991225 228.681948 
L 479.437625 228.55874 
L 479.884025 228.734043 
L 480.330425 228.756117 
L 480.776825 228.657933 
L 481.223225 228.753548 
L 481.669625 228.632265 
L 483.008825 228.865818 
L 483.455225 228.739743 
L 483.901625 228.820844 
L 484.794425 228.72736 
L 485.240825 228.916946 
L 485.687225 228.82072 
L 487.472825 228.950545 
L 488.812025 228.841645 
L 489.258425 228.996113 
L 489.704825 228.901977 
L 492.383225 228.978401 
L 494.168825 228.950429 
L 494.615225 229.1866 
L 495.061625 229.070315 
L 495.508025 229.078783 
L 495.954425 229.227518 
L 497.740025 229.178488 
L 498.186425 229.244115 
L 499.079225 229.142626 
L 499.525625 229.258712 
L 499.972025 229.160321 
L 500.418425 229.275565 
L 500.864825 229.241207 
L 501.311225 229.410347 
L 502.204025 229.18698 
L 503.096825 229.318912 
L 503.989625 229.386753 
L 504.882425 229.389537 
L 508.007225 229.470893 
L 508.453625 229.404564 
L 509.346425 229.50317 
L 509.792825 229.425712 
L 510.239225 229.501881 
L 510.239225 229.501881 
" clip-path="url(#pedec501c94)" style="fill: none; stroke: #d62728; stroke-width: 2; stroke-linecap: square"/>
   </g>
   <g id="line2d_17">
    <path d="M 64.40982 -1 
L 64.732025 94.684678 
L 65.178425 122.605944 
L 65.624825 136.589882 
L 66.071225 146.229533 
L 66.964025 158.843086 
L 67.856825 166.619176 
L 68.749625 172.122649 
L 69.642425 175.892203 
L 70.535225 178.872474 
L 71.874425 182.380429 
L 73.213625 184.985641 
L 74.106425 186.440282 
L 74.999225 187.673473 
L 76.338425 189.45933 
L 79.463225 192.784217 
L 80.802425 193.765532 
L 81.248825 194.228713 
L 81.695225 194.496286 
L 82.588025 195.198306 
L 83.480825 195.855551 
L 84.373625 196.284572 
L 84.820025 196.77798 
L 87.052025 198.16692 
L 87.498425 198.239776 
L 88.391225 198.865719 
L 89.284025 199.276193 
L 90.176825 199.941055 
L 90.623225 199.993183 
L 91.069625 200.324474 
L 91.516025 200.304664 
L 91.962425 200.699367 
L 93.301625 201.324509 
L 93.748025 201.760808 
L 94.194425 201.742245 
L 94.640825 202.061499 
L 95.087225 202.117139 
L 96.426425 202.764065 
L 96.872825 202.984482 
L 97.319225 203.062832 
L 98.658425 203.750602 
L 99.104825 203.821838 
L 104.015225 205.807815 
L 104.908025 206.011842 
L 106.247225 206.545086 
L 106.693625 206.529654 
L 107.586425 206.96806 
L 108.925625 207.495471 
L 109.818425 207.613706 
L 110.264825 207.863021 
L 110.711225 207.962155 
L 111.157625 208.262516 
L 111.604025 208.154542 
L 112.496825 208.36507 
L 114.282425 208.973525 
L 114.728825 208.970865 
L 116.068025 209.407213 
L 117.853625 209.798926 
L 118.300025 210.005547 
L 118.746425 210.048844 
L 119.192825 210.215564 
L 120.532025 210.446729 
L 121.871225 210.802522 
L 122.764025 210.956998 
L 123.656825 211.303779 
L 124.103225 211.263704 
L 125.888825 211.557588 
L 126.335225 211.909152 
L 127.228025 212.155526 
L 127.674425 212.031302 
L 128.567225 212.201673 
L 129.013625 212.48409 
L 130.799225 212.75552 
L 131.245625 212.959861 
L 134.816825 213.551752 
L 135.263225 213.818085 
L 135.709625 213.701222 
L 136.602425 213.99903 
L 137.048825 214.000038 
L 138.388025 214.392238 
L 138.834425 214.37004 
L 140.173625 214.629872 
L 140.620025 214.682149 
L 141.066425 214.870958 
L 141.959225 214.916858 
L 143.298425 215.254064 
L 143.744825 215.160927 
L 145.084025 215.547716 
L 145.530425 215.645521 
L 145.976825 215.57502 
L 149.101625 216.169124 
L 151.333625 216.493988 
L 151.780025 216.665821 
L 152.672825 216.775587 
L 159.368825 217.778307 
L 159.815225 217.751929 
L 160.261625 217.976841 
L 160.708025 218.050464 
L 161.600825 217.990777 
L 163.386425 218.283604 
L 169.636025 219.166231 
L 170.082425 219.089071 
L 170.528825 219.280128 
L 170.975225 219.230668 
L 171.868025 219.39125 
L 172.314425 219.329059 
L 172.760825 219.602736 
L 173.207225 219.472094 
L 174.100025 219.790158 
L 174.546425 219.602885 
L 175.885625 220.006825 
L 176.332025 219.801625 
L 176.778425 220.038127 
L 179.010425 220.037978 
L 179.456825 220.364973 
L 180.349625 220.296669 
L 181.242425 220.514393 
L 181.688825 220.446412 
L 182.135225 220.554634 
L 183.028025 220.548487 
L 185.706425 220.987868 
L 186.152825 220.851153 
L 187.492025 221.10098 
L 187.938425 221.01793 
L 188.384825 221.162799 
L 188.831225 221.169267 
L 189.277625 221.363364 
L 189.724025 221.260446 
L 191.063225 221.446051 
L 191.509625 221.405348 
L 191.956025 221.644617 
L 193.295225 221.610969 
L 193.741625 221.705824 
L 194.188025 221.659677 
L 194.634425 221.915089 
L 195.973625 222.016933 
L 196.420025 221.895072 
L 198.205625 222.071812 
L 198.652025 222.290486 
L 199.098425 222.195912 
L 199.991225 222.267041 
L 200.884025 222.430885 
L 202.669625 222.575886 
L 203.116025 222.417196 
L 205.348025 222.792346 
L 207.133625 222.893901 
L 207.580025 223.106222 
L 208.026425 223.011863 
L 208.472825 223.189222 
L 208.919225 223.059678 
L 209.812025 223.102645 
L 210.258425 223.098275 
L 210.704825 223.383749 
L 211.151225 223.231578 
L 211.597625 223.324359 
L 212.044025 223.287291 
L 212.490425 223.466262 
L 213.383225 223.338874 
L 213.829625 223.509005 
L 214.276025 223.462486 
L 214.722425 223.653196 
L 215.168825 223.670413 
L 215.615225 223.567536 
L 216.508025 223.854489 
L 217.400825 223.762112 
L 219.186425 223.940281 
L 219.632825 223.879892 
L 220.079225 224.048858 
L 220.972025 224.038953 
L 221.418425 224.157295 
L 221.864825 224.066612 
L 222.757625 224.206788 
L 223.204025 224.4163 
L 223.650425 224.247796 
L 224.096825 224.215297 
L 224.989625 224.445743 
L 225.882425 224.464926 
L 226.328825 224.455475 
L 226.775225 224.576791 
L 227.221625 224.509065 
L 227.668025 224.750532 
L 228.114425 224.565729 
L 228.560825 224.754217 
L 229.007225 224.624697 
L 231.239225 225.000599 
L 232.132025 224.938739 
L 233.024825 225.155017 
L 233.917625 225.024292 
L 234.364025 225.187814 
L 235.703225 225.170647 
L 236.596025 225.297952 
L 237.488825 225.467885 
L 237.935225 225.389511 
L 238.381625 225.577569 
L 238.828025 225.477221 
L 239.274425 225.623502 
L 239.720825 225.541055 
L 241.060025 225.63634 
L 241.506425 225.822332 
L 241.952825 225.735747 
L 242.845625 225.880516 
L 243.292025 225.777441 
L 243.738425 225.793294 
L 244.184825 225.974091 
L 245.077625 225.978915 
L 247.309625 226.164214 
L 247.756025 226.048301 
L 248.202425 226.25531 
L 248.648825 226.333048 
L 249.095225 226.183967 
L 249.541625 226.336154 
L 249.988025 226.295608 
L 251.327225 226.571417 
L 252.220025 226.427862 
L 253.559225 226.660225 
L 254.005625 226.357774 
L 254.452025 226.670271 
L 255.344825 226.735187 
L 255.791225 226.836329 
L 256.237625 226.695054 
L 256.684025 226.884632 
L 257.130425 226.823912 
L 258.023225 227.018183 
L 258.469625 226.889432 
L 258.916025 226.966757 
L 259.362425 226.842211 
L 260.255225 227.10595 
L 262.040825 227.074318 
L 262.487225 227.274611 
L 263.380025 227.200128 
L 263.826425 227.376133 
L 264.272825 227.26701 
L 265.165625 227.30079 
L 265.612025 227.506073 
L 266.058425 227.424609 
L 266.951225 227.525156 
L 267.397625 227.471773 
L 267.844025 227.652908 
L 268.290425 227.684094 
L 268.736825 227.8533 
L 269.183225 227.641623 
L 269.629625 227.708035 
L 270.076025 227.646092 
L 270.522425 227.808045 
L 270.968825 227.701087 
L 271.415225 227.835687 
L 272.308025 227.745243 
L 272.754425 227.671859 
L 273.200825 227.884841 
L 275.432825 228.135635 
L 276.772025 227.993112 
L 277.218425 228.204483 
L 278.111225 228.103722 
L 278.557625 228.279404 
L 279.004025 228.210052 
L 279.450425 228.284485 
L 279.896825 228.095766 
L 280.343225 228.360381 
L 281.236025 228.252878 
L 282.128825 228.473931 
L 282.575225 228.347634 
L 284.807225 228.502564 
L 285.253625 228.477458 
L 286.146425 228.646367 
L 286.592825 228.628077 
L 287.485625 228.927405 
L 287.932025 228.784833 
L 288.378425 228.881274 
L 289.271225 228.82723 
L 289.717625 229.075446 
L 290.610425 228.85616 
L 291.056825 228.942713 
L 291.949625 228.896128 
L 292.842425 229.115463 
L 293.288825 228.955063 
L 293.735225 229.028002 
L 294.181625 228.986539 
L 294.628025 229.272657 
L 295.967225 229.092596 
L 297.306425 229.258679 
L 299.092025 229.433734 
L 299.538425 229.370875 
L 300.877625 229.501749 
L 301.770425 229.474743 
L 302.216825 229.574926 
L 303.556025 229.516743 
L 304.448825 229.617496 
L 305.788025 229.668088 
L 307.127225 229.852875 
L 307.573625 229.760333 
L 308.020025 229.952711 
L 308.466425 229.826116 
L 308.912825 229.974389 
L 309.359225 229.871561 
L 309.805625 230.029251 
L 310.252025 229.881351 
L 311.144825 230.017372 
L 312.484025 230.145866 
L 312.930425 229.987904 
L 313.823225 230.165222 
L 314.716025 230.120075 
L 315.162425 230.293891 
L 315.608825 230.33618 
L 316.055225 230.20234 
L 317.840825 230.39932 
L 318.733625 230.332247 
L 321.412025 230.491796 
L 321.858425 230.626933 
L 322.304825 230.489318 
L 323.644025 230.730247 
L 324.536825 230.654707 
L 325.429625 230.749199 
L 325.876025 230.673187 
L 326.322425 230.736286 
L 326.768825 230.663621 
L 327.215225 230.855462 
L 327.661625 230.782574 
L 328.108025 230.83414 
L 328.554425 230.736229 
L 329.000825 230.908565 
L 330.786425 230.980273 
L 331.232825 231.121572 
L 331.679225 231.024412 
L 333.464825 231.238411 
L 333.911225 231.077061 
L 334.804025 231.177435 
L 336.589625 231.182614 
L 337.482425 231.316562 
L 338.821625 231.350284 
L 340.607225 231.315174 
L 341.053625 231.475788 
L 341.500025 231.340783 
L 341.946425 231.49122 
L 343.285625 231.499845 
L 345.071225 231.680938 
L 345.517625 231.549742 
L 350.428025 231.826798 
L 350.874425 231.761634 
L 351.320825 231.989833 
L 352.660025 231.89891 
L 353.106425 231.936747 
L 353.552825 232.142252 
L 353.999225 232.186499 
L 354.892025 232.020433 
L 356.231225 232.22294 
L 356.677625 232.121335 
L 360.695225 232.271697 
L 361.141625 232.181832 
L 362.480825 232.489512 
L 362.927225 232.34504 
L 363.373625 232.550191 
L 363.820025 232.384446 
L 364.712825 232.369262 
L 365.605625 232.59552 
L 366.498425 232.454534 
L 366.944825 232.532867 
L 367.391225 232.772632 
L 367.837625 232.535469 
L 368.284025 232.661238 
L 368.730425 232.639089 
L 369.176825 232.485819 
L 370.069625 232.699834 
L 371.855225 232.675662 
L 373.194425 232.887702 
L 373.640825 232.72717 
L 374.533625 233.011058 
L 374.980025 232.765321 
L 378.551225 233.032149 
L 378.997625 232.941673 
L 379.444025 233.147517 
L 379.890425 232.956287 
L 380.336825 233.133448 
L 381.229625 233.088995 
L 381.676025 233.064517 
L 383.015225 233.266767 
L 383.461625 233.271625 
L 383.908025 233.144047 
L 385.693625 233.157703 
L 386.140025 233.371272 
L 387.032825 233.225866 
L 387.479225 233.399715 
L 391.496825 233.414924 
L 391.943225 233.575059 
L 392.389625 233.392709 
L 393.728825 233.485185 
L 394.175225 233.423796 
L 396.853625 233.643206 
L 397.746425 233.600702 
L 399.085625 233.734988 
L 399.532025 233.835353 
L 401.317625 233.747793 
L 402.656825 233.880682 
L 403.103225 233.805266 
L 403.549625 233.970002 
L 403.996025 233.895635 
L 404.442425 234.016257 
L 405.335225 234.020825 
L 405.781625 234.125875 
L 406.228025 233.940601 
L 407.120825 234.031656 
L 408.013625 233.993415 
L 408.460025 234.220358 
L 409.352825 234.09739 
L 416.048825 234.359336 
L 416.495225 234.458434 
L 416.941625 234.292032 
L 417.834425 234.383641 
L 418.727225 234.538361 
L 419.173625 234.323491 
L 419.620025 234.528423 
L 420.066425 234.555086 
L 420.512825 234.264349 
L 421.405625 234.543487 
L 423.191225 234.519819 
L 423.637625 234.635463 
L 424.084025 234.545912 
L 424.976825 234.628586 
L 426.316025 234.613653 
L 426.762425 234.530856 
L 427.208825 234.767704 
L 427.655225 234.751818 
L 428.101625 234.582715 
L 428.548025 234.802719 
L 430.780025 234.866624 
L 431.226425 234.791505 
L 432.119225 234.884856 
L 432.565625 234.849114 
L 433.012025 234.975581 
L 433.458425 234.94128 
L 433.904825 235.104072 
L 434.351225 234.922131 
L 434.797625 235.004119 
L 435.244025 234.885129 
L 435.690425 234.98547 
L 436.136825 234.964251 
L 436.583225 235.089255 
L 437.029625 235.007808 
L 437.476025 235.107876 
L 439.261625 235.085261 
L 439.708025 235.171297 
L 440.600825 235.173916 
L 441.493625 235.255479 
L 443.725625 235.197436 
L 445.957625 235.398889 
L 446.404025 235.492253 
L 446.850425 235.360198 
L 448.636025 235.464087 
L 449.082425 235.277429 
L 451.314425 235.573634 
L 451.760825 235.39323 
L 452.207225 235.588922 
L 452.653625 235.473261 
L 453.100025 235.600797 
L 453.992825 235.548772 
L 454.439225 235.628922 
L 454.885625 235.553518 
L 455.778425 235.641364 
L 456.224825 235.587521 
L 456.671225 235.75769 
L 457.117625 235.729069 
L 457.564025 235.554675 
L 458.010425 235.771007 
L 459.349625 235.737053 
L 460.242425 235.78187 
L 460.688825 235.656882 
L 461.135225 235.894384 
L 461.581625 235.731159 
L 462.028025 235.690914 
L 462.920825 235.870306 
L 463.367225 235.804853 
L 463.813625 235.900489 
L 465.152825 235.803482 
L 465.599225 235.888679 
L 466.045625 235.80534 
L 466.938425 236.048311 
L 468.277625 235.931584 
L 469.170425 236.068893 
L 470.063225 236.096791 
L 471.402425 236.144351 
L 471.848825 235.919027 
L 472.741625 236.180246 
L 473.188025 236.150617 
L 473.634425 236.29323 
L 474.080825 236.001391 
L 474.527225 236.224076 
L 475.420025 236.138734 
L 475.866425 236.231614 
L 477.652025 236.117193 
L 478.544825 236.30898 
L 479.437625 236.245914 
L 479.884025 236.317956 
L 480.330425 236.230763 
L 480.776825 236.357404 
L 481.223225 236.302301 
L 481.669625 236.471111 
L 482.562425 236.424596 
L 483.008825 236.508877 
L 483.455225 236.384575 
L 484.348025 236.380349 
L 485.240825 236.426376 
L 485.687225 236.438686 
L 486.133625 236.590551 
L 486.580025 236.563087 
L 487.026425 236.35205 
L 487.472825 236.503222 
L 487.919225 236.386747 
L 488.365625 236.538559 
L 490.597625 236.484928 
L 491.490425 236.726213 
L 491.936825 236.587623 
L 495.954425 236.785367 
L 496.847225 236.605264 
L 497.293625 236.782864 
L 498.186425 236.843865 
L 498.632825 236.79918 
L 499.079225 236.888392 
L 499.525625 236.764664 
L 499.972025 236.897959 
L 502.204025 236.837896 
L 503.096825 236.947415 
L 503.543225 236.803405 
L 504.436025 236.881792 
L 504.882425 237.147034 
L 505.775225 236.946865 
L 506.221625 237.104733 
L 506.668025 236.95088 
L 507.560825 237.148158 
L 508.007225 236.864253 
L 508.453625 237.187324 
L 508.900025 237.127947 
L 509.346425 236.948047 
L 509.792825 237.12596 
L 510.239225 237.125349 
L 510.239225 237.125349 
" clip-path="url(#pedec501c94)" style="fill: none; stroke: #9467bd; stroke-width: 2; stroke-linecap: square"/>
   </g>
   <g id="line2d_18">
    <path d="M 64.40106 -1 
L 64.732025 112.776053 
L 65.178425 142.178421 
L 65.624825 155.25095 
L 66.071225 163.350994 
L 66.964025 172.674498 
L 67.856825 178.501463 
L 68.749625 182.501522 
L 69.642425 185.768018 
L 71.874425 191.714804 
L 73.213625 194.288797 
L 74.552825 196.350215 
L 76.338425 198.710053 
L 77.231225 199.788165 
L 78.570425 201.024363 
L 79.016825 201.649232 
L 79.909625 202.290169 
L 80.356025 202.889503 
L 80.802425 203.177117 
L 81.248825 203.72481 
L 81.695225 203.881063 
L 82.588025 204.694444 
L 83.034425 204.909343 
L 84.373625 205.97707 
L 87.052025 207.79589 
L 87.498425 207.868704 
L 87.944825 208.245911 
L 88.837625 208.607975 
L 89.730425 209.359191 
L 90.176825 209.330648 
L 91.069625 209.809046 
L 91.516025 210.113819 
L 91.962425 210.131729 
L 92.855225 210.60313 
L 94.194425 211.170881 
L 95.087225 211.712006 
L 95.533625 211.784589 
L 95.980025 212.101886 
L 96.426425 212.147884 
L 98.658425 213.066307 
L 99.104825 213.062564 
L 99.551225 213.179692 
L 100.444025 213.667243 
L 101.336825 213.980045 
L 101.783225 214.069109 
L 102.676025 214.437691 
L 103.568825 214.68214 
L 104.015225 214.836427 
L 104.461625 214.818599 
L 105.354425 215.213955 
L 107.586425 215.76107 
L 108.032825 216.064306 
L 108.925625 216.219113 
L 109.818425 216.499803 
L 110.264825 216.7913 
L 111.604025 216.849484 
L 112.496825 217.264708 
L 112.943225 217.248979 
L 113.389625 217.539245 
L 113.836025 217.483655 
L 114.282425 217.550951 
L 114.728825 217.843951 
L 115.175225 217.787981 
L 118.300025 218.603825 
L 119.192825 218.643338 
L 119.639225 218.771659 
L 120.085625 219.052705 
L 120.978425 218.903863 
L 121.424825 219.253477 
L 122.317625 219.268868 
L 122.764025 219.46161 
L 123.656825 219.539233 
L 124.996025 219.880338 
L 126.335225 219.958092 
L 126.781625 220.195288 
L 127.228025 220.220311 
L 127.674425 220.54966 
L 128.120825 220.238998 
L 129.013625 220.700394 
L 129.460025 220.48101 
L 129.906425 220.751407 
L 130.352825 220.815803 
L 130.799225 221.063045 
L 131.245625 220.771275 
L 131.692025 221.173885 
L 133.031225 221.149242 
L 133.477625 221.254176 
L 133.924025 221.555825 
L 134.370425 221.344545 
L 135.263225 221.632382 
L 135.709625 221.72922 
L 136.156025 221.64774 
L 137.495225 222.044451 
L 137.941625 222.078867 
L 138.388025 222.298846 
L 138.834425 222.015479 
L 140.173625 222.472513 
L 141.512825 222.46797 
L 141.959225 222.666949 
L 144.191225 222.961849 
L 144.637625 222.90108 
L 145.084025 223.027344 
L 145.530425 222.980743 
L 145.976825 223.259699 
L 146.423225 223.313314 
L 146.869625 223.217137 
L 147.762425 223.412713 
L 149.548025 223.529369 
L 149.994425 223.711818 
L 150.440825 223.622506 
L 152.226425 223.926816 
L 152.672825 223.903841 
L 153.119225 224.048164 
L 153.565625 224.04543 
L 154.458425 224.396151 
L 154.904825 224.264649 
L 156.244025 224.494121 
L 156.690425 224.425999 
L 157.136825 224.604168 
L 157.583225 224.597435 
L 158.029625 224.851377 
L 158.476025 224.667309 
L 158.922425 224.800702 
L 159.815225 224.881323 
L 160.708025 225.152051 
L 161.154425 225.124401 
L 161.600825 225.320786 
L 162.047225 225.066944 
L 162.493625 225.21577 
L 162.940025 225.10331 
L 163.386425 225.305685 
L 164.725625 225.392675 
L 165.172025 225.602213 
L 166.064825 225.521121 
L 166.511225 225.448488 
L 166.957625 225.714358 
L 167.404025 225.722207 
L 167.850425 225.859896 
L 168.296825 225.830527 
L 168.743225 225.94872 
L 169.189625 225.763678 
L 169.636025 226.028524 
L 170.082425 226.143743 
L 170.975225 226.077149 
L 171.421625 226.215929 
L 172.314425 226.078223 
L 172.760825 226.332759 
L 173.207225 226.197275 
L 173.653625 226.405962 
L 174.100025 226.3978 
L 174.546425 226.506707 
L 174.992825 226.3958 
L 175.439225 226.633459 
L 176.332025 226.512738 
L 176.778425 226.696285 
L 177.671225 226.650361 
L 178.117625 226.878775 
L 178.564025 226.736922 
L 179.903225 227.144513 
L 180.349625 227.096169 
L 180.796025 226.824631 
L 181.242425 227.10975 
L 183.028025 227.29053 
L 183.474425 227.207133 
L 184.813625 227.476366 
L 185.260025 227.50932 
L 185.706425 227.379371 
L 186.152825 227.556681 
L 186.599225 227.425601 
L 187.938425 227.663532 
L 189.277625 227.709547 
L 189.724025 227.871673 
L 191.063225 227.807995 
L 192.402425 227.989362 
L 192.848825 227.825352 
L 193.295225 228.013683 
L 194.188025 228.059888 
L 194.634425 228.284006 
L 195.080825 228.199502 
L 195.527225 228.358018 
L 195.973625 228.23633 
L 196.866425 228.291623 
L 197.312825 228.473543 
L 198.652025 228.434195 
L 199.544825 228.623318 
L 200.437625 228.543507 
L 200.884025 228.681312 
L 201.330425 228.565672 
L 201.776825 228.849874 
L 202.223225 228.814854 
L 202.669625 228.640592 
L 203.116025 228.71002 
L 203.562425 228.908098 
L 204.008825 228.685145 
L 204.901625 228.898895 
L 205.348025 229.068333 
L 206.687225 229.06003 
L 208.919225 229.255366 
L 209.365625 229.259728 
L 209.812025 229.378739 
L 210.704825 229.363216 
L 211.597625 229.284338 
L 212.044025 229.547697 
L 212.936825 229.418798 
L 213.829625 229.584138 
L 214.276025 229.638967 
L 214.722425 229.489654 
L 215.168825 229.570482 
L 215.615225 229.838517 
L 217.400825 229.858195 
L 218.740025 229.85147 
L 219.186425 230.125238 
L 220.079225 229.932884 
L 220.525625 230.101611 
L 220.972025 229.982716 
L 221.864825 230.311338 
L 222.311225 230.12965 
L 222.757625 230.262804 
L 224.096825 230.340558 
L 224.989625 230.581934 
L 225.436025 230.432125 
L 225.882425 230.695906 
L 226.328825 230.493043 
L 227.221625 230.594326 
L 227.668025 230.449267 
L 228.560825 230.586701 
L 229.007225 230.898611 
L 229.453625 230.743944 
L 232.578425 231.154518 
L 233.024825 231.064231 
L 233.917625 231.144514 
L 234.364025 231.13346 
L 234.810425 231.256973 
L 235.256825 231.128314 
L 236.596025 231.353332 
L 237.042425 231.307879 
L 238.381625 231.527933 
L 238.828025 231.448617 
L 239.274425 231.736834 
L 239.720825 231.626373 
L 240.167225 231.725062 
L 241.060025 231.723533 
L 241.506425 231.827509 
L 241.952825 231.613263 
L 242.399225 231.882528 
L 242.845625 231.959192 
L 243.738425 231.841041 
L 244.631225 232.1253 
L 246.416825 232.04007 
L 246.863225 232.165764 
L 247.309625 232.114173 
L 247.756025 232.372922 
L 248.202425 232.189482 
L 249.541625 232.366445 
L 250.434425 232.308625 
L 251.327225 232.527505 
L 252.220025 232.475914 
L 252.666425 232.618792 
L 253.112825 232.559385 
L 253.559225 232.776473 
L 254.452025 232.756258 
L 256.684025 232.74817 
L 257.130425 232.949744 
L 257.576825 232.754804 
L 258.469625 233.063096 
L 258.916025 232.967861 
L 259.362425 233.12707 
L 260.701625 233.090862 
L 261.148025 233.306776 
L 262.040825 233.063021 
L 262.487225 233.095992 
L 262.933625 233.293112 
L 265.165625 233.234772 
L 266.058425 233.390942 
L 267.844025 233.404003 
L 268.290425 233.542113 
L 270.076025 233.530242 
L 270.522425 233.871264 
L 270.968825 233.677704 
L 271.861625 233.913231 
L 273.200825 233.803473 
L 273.647225 233.960403 
L 274.093625 233.851388 
L 274.986425 233.949853 
L 275.432825 233.891265 
L 275.879225 234.032085 
L 277.218425 233.918015 
L 277.664825 234.164281 
L 278.557625 233.930795 
L 279.004025 234.120604 
L 280.343225 234.260681 
L 280.789625 234.223316 
L 281.236025 234.378056 
L 281.682425 234.174748 
L 283.468025 234.353917 
L 283.914425 234.506613 
L 284.360825 234.421295 
L 284.807225 234.469016 
L 285.253625 234.391018 
L 287.485625 234.666839 
L 287.932025 234.619527 
L 288.378425 234.688347 
L 288.824825 234.580918 
L 289.271225 234.705448 
L 290.164025 234.657764 
L 290.610425 234.865591 
L 291.503225 234.700375 
L 291.949625 234.867834 
L 293.288825 234.935283 
L 293.735225 235.036829 
L 294.181625 234.943478 
L 297.306425 235.201409 
L 297.752825 235.065347 
L 298.645625 235.196828 
L 299.538425 235.095145 
L 299.984825 235.297268 
L 300.431225 235.217614 
L 300.877625 235.324922 
L 301.324025 235.126575 
L 302.663225 235.364188 
L 303.109625 235.235119 
L 304.002425 235.399963 
L 304.448825 235.528966 
L 305.341625 235.461806 
L 305.788025 235.658109 
L 306.234425 235.577909 
L 307.127225 235.603961 
L 307.573625 235.468271 
L 308.912825 235.644887 
L 309.359225 235.864788 
L 309.805625 235.667031 
L 310.252025 235.648762 
L 310.698425 235.781015 
L 312.037625 235.666626 
L 312.484025 235.847357 
L 312.930425 235.642029 
L 313.376825 235.924339 
L 314.269625 235.812086 
L 314.716025 236.056076 
L 316.055225 236.025914 
L 316.501625 235.946475 
L 317.840825 236.0815 
L 319.626425 236.051656 
L 320.072825 236.31416 
L 320.519225 235.990189 
L 321.412025 236.233973 
L 321.858425 236.18013 
L 322.751225 236.4189 
L 324.983225 236.438281 
L 325.876025 236.47368 
L 326.768825 236.241602 
L 327.215225 236.498046 
L 328.108025 236.558163 
L 328.554425 236.381559 
L 329.000825 236.581654 
L 330.340025 236.438326 
L 330.786425 236.678265 
L 331.679225 236.475642 
L 332.125625 236.697336 
L 332.572025 236.543648 
L 333.018425 236.615719 
L 333.911225 236.554755 
L 334.804025 236.592761 
L 335.250425 236.773021 
L 335.696825 236.612348 
L 336.589625 236.835211 
L 337.036025 236.928901 
L 337.482425 236.77799 
L 338.375225 236.797916 
L 338.821625 236.996949 
L 339.268025 236.8202 
L 339.714425 237.031584 
L 340.607225 236.902383 
L 341.053625 237.098685 
L 341.500025 237.016028 
L 342.392825 237.019308 
L 342.839225 236.930814 
L 343.285625 237.079156 
L 343.732025 236.940017 
L 344.178425 237.153214 
L 344.624825 237.216556 
L 345.071225 237.152631 
L 345.517625 236.938492 
L 346.410425 237.110136 
L 346.856825 237.024929 
L 347.303225 237.259767 
L 348.642425 237.207403 
L 349.535225 237.372544 
L 349.981625 237.293588 
L 351.767225 237.499482 
L 353.999225 237.472381 
L 354.892025 237.504753 
L 356.677625 237.394788 
L 357.124025 237.561586 
L 357.570425 237.605192 
L 358.016825 237.496595 
L 358.463225 237.697759 
L 359.356025 237.574543 
L 359.802425 237.689576 
L 360.248825 237.564378 
L 360.695225 237.627341 
L 361.141625 237.807555 
L 361.588025 237.665966 
L 362.034425 237.780363 
L 362.480825 237.696569 
L 363.373625 237.874111 
L 363.820025 237.656011 
L 364.266425 237.975707 
L 365.159225 237.679708 
L 365.605625 237.765695 
L 366.052025 237.980036 
L 366.498425 237.666945 
L 367.391225 238.123438 
L 368.284025 237.784931 
L 368.730425 237.911257 
L 370.069625 237.856729 
L 370.516025 237.998748 
L 371.855225 238.05791 
L 372.301625 237.875986 
L 372.748025 238.089109 
L 374.533625 238.057613 
L 374.980025 238.308411 
L 375.426425 237.903141 
L 375.872825 238.137028 
L 376.319225 238.08882 
L 377.212025 238.280682 
L 377.658425 238.068266 
L 378.551225 238.517308 
L 379.444025 238.111133 
L 379.890425 238.205468 
L 380.336825 238.181663 
L 380.783225 238.41769 
L 381.229625 238.275597 
L 382.122425 238.271103 
L 382.568825 238.455563 
L 383.015225 238.225497 
L 383.461625 238.424819 
L 383.908025 238.39234 
L 384.354425 238.477518 
L 384.800825 238.372761 
L 385.247225 238.579651 
L 386.140025 238.373034 
L 386.586425 238.572451 
L 387.032825 238.386471 
L 387.479225 238.702867 
L 387.925625 238.6298 
L 388.372025 238.228347 
L 388.818425 238.552798 
L 389.264825 238.689219 
L 389.711225 238.638107 
L 390.157625 238.707026 
L 391.050425 238.568106 
L 391.496825 238.54521 
L 392.389625 238.858681 
L 392.836025 238.551868 
L 393.282425 238.748948 
L 394.175225 238.635827 
L 395.068025 238.778395 
L 395.960825 238.636471 
L 396.407225 238.91976 
L 396.853625 238.819011 
L 398.192825 238.824331 
L 399.085625 238.833885 
L 399.532025 238.941744 
L 399.978425 238.898777 
L 400.424825 238.738782 
L 400.871225 239.04398 
L 402.210425 238.907629 
L 402.656825 239.071771 
L 403.103225 238.887211 
L 403.549625 238.868591 
L 403.996025 239.08187 
L 404.888825 239.014 
L 405.335225 239.099537 
L 406.674425 238.993339 
L 407.120825 238.95423 
L 407.567225 239.031931 
L 408.013625 239.257392 
L 408.460025 239.020518 
L 408.906425 239.179245 
L 410.245625 239.107492 
L 410.692025 239.328773 
L 411.138425 239.151665 
L 413.370425 239.097678 
L 413.816825 239.389381 
L 415.156025 239.204144 
L 416.048825 239.197952 
L 416.495225 239.475215 
L 418.280825 239.277917 
L 420.512825 239.524964 
L 421.405625 239.309272 
L 421.852025 239.612582 
L 422.298425 239.314196 
L 422.744825 239.655978 
L 423.191225 239.498094 
L 423.637625 239.655763 
L 424.530425 239.468594 
L 424.976825 239.582164 
L 425.869625 239.558504 
L 427.655225 239.69607 
L 428.101625 239.538574 
L 428.548025 239.769285 
L 428.994425 239.577096 
L 429.440825 239.869828 
L 429.887225 239.619418 
L 430.333625 239.606283 
L 430.780025 239.828526 
L 431.672825 239.669721 
L 432.119225 239.821938 
L 432.565625 239.641571 
L 433.012025 239.787092 
L 433.904825 239.681415 
L 434.351225 239.794886 
L 434.797625 239.721824 
L 436.136825 239.987281 
L 436.583225 239.872095 
L 437.029625 239.946364 
L 437.476025 239.691795 
L 438.815225 239.911886 
L 439.261625 239.815655 
L 440.600825 240.033024 
L 441.047225 239.973762 
L 441.493625 239.702163 
L 441.940025 240.033511 
L 443.725625 239.913104 
L 444.172025 240.044441 
L 448.636025 240.153567 
L 449.082425 240.276601 
L 449.528825 240.026559 
L 449.975225 239.965724 
L 450.421625 240.136446 
L 450.868025 240.179392 
L 451.314425 240.041888 
L 451.760825 240.234006 
L 452.207225 240.103165 
L 453.100025 240.297671 
L 454.439225 240.135442 
L 454.885625 240.127701 
L 455.778425 240.31982 
L 457.117625 240.380052 
L 457.564025 240.394708 
L 458.456825 240.28642 
L 458.903225 240.407417 
L 459.349625 240.337461 
L 460.688825 240.436988 
L 462.474425 240.44836 
L 463.367225 240.471243 
L 464.260025 240.3646 
L 464.706425 240.521451 
L 466.492025 240.444097 
L 467.384825 240.678377 
L 467.831225 240.495345 
L 468.277625 240.661772 
L 469.170425 240.693313 
L 469.616825 240.530815 
L 470.063225 240.662631 
L 470.509625 240.449566 
L 471.848825 240.883197 
L 472.295225 240.733111 
L 473.188025 240.846533 
L 473.634425 240.664357 
L 474.080825 240.891041 
L 474.527225 240.596731 
L 475.420025 240.782868 
L 478.098425 240.681578 
L 478.544825 240.889116 
L 479.884025 240.905808 
L 480.330425 240.840941 
L 480.776825 240.983298 
L 481.669625 240.856637 
L 482.562425 241.052659 
L 483.455225 240.894242 
L 483.901625 240.908059 
L 484.794425 241.097393 
L 485.240825 240.830816 
L 485.687225 241.01514 
L 487.472825 241.054637 
L 487.919225 241.122433 
L 488.365625 240.999118 
L 488.812025 241.062423 
L 489.258425 240.942838 
L 489.704825 241.184669 
L 490.151225 241.013653 
L 490.597625 241.179733 
L 491.044025 241.21179 
L 491.490425 241.020886 
L 492.383225 241.292114 
L 492.829625 240.988308 
L 493.276025 241.246847 
L 495.061625 241.204297 
L 496.400825 241.320074 
L 496.847225 241.286224 
L 497.293625 241.372053 
L 497.740025 241.270056 
L 499.079225 241.296831 
L 499.972025 241.149327 
L 500.864825 241.395495 
L 501.311225 241.248647 
L 504.436025 241.377692 
L 504.882425 241.264319 
L 505.328825 241.448982 
L 505.775225 241.293225 
L 506.221625 241.560277 
L 506.668025 241.401951 
L 507.114425 241.388105 
L 507.560825 241.541491 
L 508.007225 241.366295 
L 509.346425 241.509462 
L 509.792825 241.368183 
L 510.239225 241.492675 
L 510.239225 241.492675 
" clip-path="url(#pedec501c94)" style="fill: none; stroke: #8c564b; stroke-width: 2; stroke-linecap: square"/>
   </g>
   <g id="patch_3">
    <path d="M 64.285625 303.756563 
L 64.285625 26.556563 
" style="fill: none; stroke: #000000; stroke-width: 0.8; stroke-linejoin: miter; stroke-linecap: square"/>
   </g>
   <g id="patch_4">
    <path d="M 510.685625 303.756563 
L 510.685625 26.556563 
" style="fill: none; stroke: #000000; stroke-width: 0.8; stroke-linejoin: miter; stroke-linecap: square"/>
   </g>
   <g id="patch_5">
    <path d="M 64.285625 303.756563 
L 510.685625 303.756563 
" style="fill: none; stroke: #000000; stroke-width: 0.8; stroke-linejoin: miter; stroke-linecap: square"/>
   </g>
   <g id="patch_6">
    <path d="M 64.285625 26.556563 
L 510.685625 26.556563 
" style="fill: none; stroke: #000000; stroke-width: 0.8; stroke-linejoin: miter; stroke-linecap: square"/>
   </g>
   <g id="text_15">
    <!-- Different mini-batch sizes with the He initialization -->
    <g transform="translate(55.161875 20.556563)scale(0.18 -0.18)">
     <defs>
      <path id="Montserrat-Medium-44" d="M 672 4480 
L 2560 4480 
Q 3270 4480 3820 4198 
Q 4371 3917 4675 3408 
Q 4979 2899 4979 2240 
Q 4979 1581 4675 1072 
Q 4371 563 3820 281 
Q 3270 0 2560 0 
L 672 0 
L 672 4480 
z
M 2522 557 
Q 3066 557 3478 768 
Q 3891 979 4115 1360 
Q 4339 1741 4339 2240 
Q 4339 2739 4115 3120 
Q 3891 3501 3478 3712 
Q 3066 3923 2522 3923 
L 1312 3923 
L 1312 557 
L 2522 557 
z
" transform="scale(0.015625)"/>
      <path id="Montserrat-Medium-65" d="M 3648 1677 
Q 3648 1606 3635 1491 
L 883 1491 
Q 941 1043 1277 771 
Q 1613 499 2112 499 
Q 2720 499 3091 909 
L 3430 512 
Q 3200 243 2857 102 
Q 2515 -38 2093 -38 
Q 1555 -38 1139 182 
Q 723 403 496 800 
Q 269 1197 269 1696 
Q 269 2189 489 2585 
Q 710 2982 1097 3203 
Q 1485 3424 1971 3424 
Q 2458 3424 2838 3203 
Q 3219 2982 3433 2585 
Q 3648 2189 3648 1677 
z
M 1971 2906 
Q 1530 2906 1232 2637 
Q 934 2368 883 1933 
L 3059 1933 
Q 3008 2362 2710 2634 
Q 2413 2906 1971 2906 
z
" transform="scale(0.015625)"/>
      <path id="Montserrat-Medium-72" d="M 1171 2822 
Q 1331 3117 1644 3270 
Q 1958 3424 2406 3424 
L 2406 2829 
Q 2355 2835 2266 2835 
Q 1766 2835 1481 2537 
Q 1197 2240 1197 1690 
L 1197 0 
L 582 0 
L 582 3392 
L 1171 3392 
L 1171 2822 
z
" transform="scale(0.015625)"/>
      <path id="Montserrat-Medium-6d" d="M 4826 3424 
Q 5466 3424 5840 3053 
Q 6214 2682 6214 1952 
L 6214 0 
L 5600 0 
L 5600 1882 
Q 5600 2374 5373 2624 
Q 5146 2874 4723 2874 
Q 4256 2874 3981 2582 
Q 3706 2291 3706 1747 
L 3706 0 
L 3091 0 
L 3091 1882 
Q 3091 2374 2864 2624 
Q 2637 2874 2214 2874 
Q 1747 2874 1472 2582 
Q 1197 2291 1197 1747 
L 1197 0 
L 582 0 
L 582 3392 
L 1171 3392 
L 1171 2886 
Q 1357 3149 1657 3286 
Q 1958 3424 2342 3424 
Q 2739 3424 3046 3264 
Q 3354 3104 3520 2797 
Q 3712 3091 4054 3257 
Q 4397 3424 4826 3424 
z
" transform="scale(0.015625)"/>
      <path id="Montserrat-Medium-2d" d="M 365 2022 
L 2086 2022 
L 2086 1491 
L 365 1491 
L 365 2022 
z
" transform="scale(0.015625)"/>
      <path id="Montserrat-Medium-62" d="M 2381 3424 
Q 2874 3424 3264 3206 
Q 3654 2989 3875 2598 
Q 4096 2208 4096 1696 
Q 4096 1184 3875 790 
Q 3654 397 3264 179 
Q 2874 -38 2381 -38 
Q 2003 -38 1689 109 
Q 1376 256 1171 538 
L 1171 0 
L 582 0 
L 582 4749 
L 1197 4749 
L 1197 2880 
Q 1402 3149 1709 3286 
Q 2016 3424 2381 3424 
z
M 2330 499 
Q 2656 499 2915 649 
Q 3174 800 3324 1072 
Q 3475 1344 3475 1696 
Q 3475 2048 3324 2320 
Q 3174 2592 2915 2739 
Q 2656 2886 2330 2886 
Q 2010 2886 1747 2739 
Q 1485 2592 1337 2320 
Q 1190 2048 1190 1696 
Q 1190 1344 1337 1072 
Q 1485 800 1747 649 
Q 2010 499 2330 499 
z
" transform="scale(0.015625)"/>
      <path id="Montserrat-Medium-61" d="M 1818 3424 
Q 2522 3424 2896 3078 
Q 3270 2733 3270 2048 
L 3270 0 
L 2688 0 
L 2688 448 
Q 2534 211 2249 86 
Q 1965 -38 1574 -38 
Q 1005 -38 662 237 
Q 320 512 320 960 
Q 320 1408 646 1680 
Q 973 1952 1683 1952 
L 2656 1952 
L 2656 2074 
Q 2656 2470 2425 2681 
Q 2195 2893 1747 2893 
Q 1446 2893 1158 2793 
Q 870 2694 672 2528 
L 416 2989 
Q 678 3200 1043 3312 
Q 1408 3424 1818 3424 
z
M 1677 435 
Q 2029 435 2285 592 
Q 2541 749 2656 1037 
L 2656 1510 
L 1709 1510 
Q 928 1510 928 986 
Q 928 730 1126 582 
Q 1325 435 1677 435 
z
" transform="scale(0.015625)"/>
      <path id="Montserrat-Medium-7a" d="M 3098 506 
L 3098 0 
L 256 0 
L 256 397 
L 2259 2886 
L 294 2886 
L 294 3392 
L 3046 3392 
L 3046 2989 
L 1043 506 
L 3098 506 
z
" transform="scale(0.015625)"/>
      <path id="Montserrat-Medium-77" d="M 5715 3392 
L 4448 0 
L 3859 0 
L 2880 2573 
L 1888 0 
L 1299 0 
L 38 3392 
L 621 3392 
L 1606 691 
L 2630 3392 
L 3149 3392 
L 4154 678 
L 5165 3392 
L 5715 3392 
z
" transform="scale(0.015625)"/>
      <path id="Montserrat-Medium-48" d="M 4525 4480 
L 4525 0 
L 3885 0 
L 3885 1997 
L 1312 1997 
L 1312 0 
L 672 0 
L 672 4480 
L 1312 4480 
L 1312 2554 
L 3885 2554 
L 3885 4480 
L 4525 4480 
z
" transform="scale(0.015625)"/>
      <path id="Montserrat-Medium-6c" d="M 582 4749 
L 1197 4749 
L 1197 0 
L 582 0 
L 582 4749 
z
" transform="scale(0.015625)"/>
     </defs>
     <use xlink:href="#Montserrat-Medium-44"/>
     <use xlink:href="#Montserrat-Medium-69" x="82.599991"/>
     <use xlink:href="#Montserrat-Medium-66" x="110.499985"/>
     <use xlink:href="#Montserrat-Medium-66" x="145.799973"/>
     <use xlink:href="#Montserrat-Medium-65" x="181.09996"/>
     <use xlink:href="#Montserrat-Medium-72" x="242.299957"/>
     <use xlink:href="#Montserrat-Medium-65" x="283.299942"/>
     <use xlink:href="#Montserrat-Medium-6e" x="344.499939"/>
     <use xlink:href="#Montserrat-Medium-74" x="412.59993"/>
     <use xlink:href="#Montserrat-Medium-20" x="453.999924"/>
     <use xlink:href="#Montserrat-Medium-6d" x="480.899918"/>
     <use xlink:href="#Montserrat-Medium-69" x="586.599899"/>
     <use xlink:href="#Montserrat-Medium-6e" x="614.499893"/>
     <use xlink:href="#Montserrat-Medium-69" x="682.599884"/>
     <use xlink:href="#Montserrat-Medium-2d" x="710.499878"/>
     <use xlink:href="#Montserrat-Medium-62" x="748.799866"/>
     <use xlink:href="#Montserrat-Medium-61" x="816.999847"/>
     <use xlink:href="#Montserrat-Medium-74" x="876.799835"/>
     <use xlink:href="#Montserrat-Medium-63" x="918.199829"/>
     <use xlink:href="#Montserrat-Medium-68" x="975.29982"/>
     <use xlink:href="#Montserrat-Medium-20" x="1043.399811"/>
     <use xlink:href="#Montserrat-Medium-73" x="1070.299805"/>
     <use xlink:href="#Montserrat-Medium-69" x="1120.399796"/>
     <use xlink:href="#Montserrat-Medium-7a" x="1148.299789"/>
     <use xlink:href="#Montserrat-Medium-65" x="1200.39978"/>
     <use xlink:href="#Montserrat-Medium-73" x="1261.599777"/>
     <use xlink:href="#Montserrat-Medium-20" x="1311.699768"/>
     <use xlink:href="#Montserrat-Medium-77" x="1338.599762"/>
     <use xlink:href="#Montserrat-Medium-69" x="1428.499756"/>
     <use xlink:href="#Montserrat-Medium-74" x="1456.39975"/>
     <use xlink:href="#Montserrat-Medium-68" x="1497.799744"/>
     <use xlink:href="#Montserrat-Medium-20" x="1565.899734"/>
     <use xlink:href="#Montserrat-Medium-74" x="1592.799728"/>
     <use xlink:href="#Montserrat-Medium-68" x="1634.199722"/>
     <use xlink:href="#Montserrat-Medium-65" x="1702.299713"/>
     <use xlink:href="#Montserrat-Medium-20" x="1763.49971"/>
     <use xlink:href="#Montserrat-Medium-48" x="1790.399704"/>
     <use xlink:href="#Montserrat-Medium-65" x="1871.599686"/>
     <use xlink:href="#Montserrat-Medium-20" x="1932.799683"/>
     <use xlink:href="#Montserrat-Medium-69" x="1959.699677"/>
     <use xlink:href="#Montserrat-Medium-6e" x="1987.59967"/>
     <use xlink:href="#Montserrat-Medium-69" x="2055.699661"/>
     <use xlink:href="#Montserrat-Medium-74" x="2083.599655"/>
     <use xlink:href="#Montserrat-Medium-69" x="2124.999649"/>
     <use xlink:href="#Montserrat-Medium-61" x="2152.899643"/>
     <use xlink:href="#Montserrat-Medium-6c" x="2212.699631"/>
     <use xlink:href="#Montserrat-Medium-69" x="2240.599625"/>
     <use xlink:href="#Montserrat-Medium-7a" x="2268.499619"/>
     <use xlink:href="#Montserrat-Medium-61" x="2320.599609"/>
     <use xlink:href="#Montserrat-Medium-74" x="2380.399597"/>
     <use xlink:href="#Montserrat-Medium-69" x="2421.799591"/>
     <use xlink:href="#Montserrat-Medium-6f" x="2449.699585"/>
     <use xlink:href="#Montserrat-Medium-6e" x="2513.19957"/>
    </g>
   </g>
   <g id="legend_1">
    <g id="patch_7">
     <path d="M 259.470312 199.480312 
L 498.085625 199.480312 
Q 501.685625 199.480312 501.685625 195.880313 
L 501.685625 39.156563 
Q 501.685625 35.556563 498.085625 35.556563 
L 259.470312 35.556563 
Q 255.870312 35.556563 255.870312 39.156563 
L 255.870312 195.880313 
Q 255.870312 199.480312 259.470312 199.480312 
z
" style="fill: #f1f7f0; opacity: 0.8; stroke: #cccccc; stroke-linejoin: miter"/>
    </g>
    <g id="line2d_19">
     <path d="M 263.070312 50.13375 
L 281.070312 50.13375 
L 299.070312 50.13375 
" style="fill: none; stroke: #1f77b4; stroke-width: 2; stroke-linecap: square"/>
    </g>
    <g id="text_16">
     <!-- Mini-batch size: 200 -->
     <g transform="translate(313.470312 56.43375)scale(0.18 -0.18)">
      <defs>
       <path id="DejaVuSans-4d" d="M 628 4666 
L 1569 4666 
L 2759 1491 
L 3956 4666 
L 4897 4666 
L 4897 0 
L 4281 0 
L 4281 4097 
L 3078 897 
L 2444 897 
L 1241 4097 
L 1241 0 
L 628 0 
L 628 4666 
z
" transform="scale(0.015625)"/>
       <path id="DejaVuSans-69" d="M 603 3500 
L 1178 3500 
L 1178 0 
L 603 0 
L 603 3500 
z
M 603 4863 
L 1178 4863 
L 1178 4134 
L 603 4134 
L 603 4863 
z
" transform="scale(0.015625)"/>
       <path id="DejaVuSans-6e" d="M 3513 2113 
L 3513 0 
L 2938 0 
L 2938 2094 
Q 2938 2591 2744 2837 
Q 2550 3084 2163 3084 
Q 1697 3084 1428 2787 
Q 1159 2491 1159 1978 
L 1159 0 
L 581 0 
L 581 3500 
L 1159 3500 
L 1159 2956 
Q 1366 3272 1645 3428 
Q 1925 3584 2291 3584 
Q 2894 3584 3203 3211 
Q 3513 2838 3513 2113 
z
" transform="scale(0.015625)"/>
       <path id="DejaVuSans-2d" d="M 313 2009 
L 1997 2009 
L 1997 1497 
L 313 1497 
L 313 2009 
z
" transform="scale(0.015625)"/>
       <path id="DejaVuSans-62" d="M 3116 1747 
Q 3116 2381 2855 2742 
Q 2594 3103 2138 3103 
Q 1681 3103 1420 2742 
Q 1159 2381 1159 1747 
Q 1159 1113 1420 752 
Q 1681 391 2138 391 
Q 2594 391 2855 752 
Q 3116 1113 3116 1747 
z
M 1159 2969 
Q 1341 3281 1617 3432 
Q 1894 3584 2278 3584 
Q 2916 3584 3314 3078 
Q 3713 2572 3713 1747 
Q 3713 922 3314 415 
Q 2916 -91 2278 -91 
Q 1894 -91 1617 61 
Q 1341 213 1159 525 
L 1159 0 
L 581 0 
L 581 4863 
L 1159 4863 
L 1159 2969 
z
" transform="scale(0.015625)"/>
       <path id="DejaVuSans-61" d="M 2194 1759 
Q 1497 1759 1228 1600 
Q 959 1441 959 1056 
Q 959 750 1161 570 
Q 1363 391 1709 391 
Q 2188 391 2477 730 
Q 2766 1069 2766 1631 
L 2766 1759 
L 2194 1759 
z
M 3341 1997 
L 3341 0 
L 2766 0 
L 2766 531 
Q 2569 213 2275 61 
Q 1981 -91 1556 -91 
Q 1019 -91 701 211 
Q 384 513 384 1019 
Q 384 1609 779 1909 
Q 1175 2209 1959 2209 
L 2766 2209 
L 2766 2266 
Q 2766 2663 2505 2880 
Q 2244 3097 1772 3097 
Q 1472 3097 1187 3025 
Q 903 2953 641 2809 
L 641 3341 
Q 956 3463 1253 3523 
Q 1550 3584 1831 3584 
Q 2591 3584 2966 3190 
Q 3341 2797 3341 1997 
z
" transform="scale(0.015625)"/>
       <path id="DejaVuSans-74" d="M 1172 4494 
L 1172 3500 
L 2356 3500 
L 2356 3053 
L 1172 3053 
L 1172 1153 
Q 1172 725 1289 603 
Q 1406 481 1766 481 
L 2356 481 
L 2356 0 
L 1766 0 
Q 1100 0 847 248 
Q 594 497 594 1153 
L 594 3053 
L 172 3053 
L 172 3500 
L 594 3500 
L 594 4494 
L 1172 4494 
z
" transform="scale(0.015625)"/>
       <path id="DejaVuSans-63" d="M 3122 3366 
L 3122 2828 
Q 2878 2963 2633 3030 
Q 2388 3097 2138 3097 
Q 1578 3097 1268 2742 
Q 959 2388 959 1747 
Q 959 1106 1268 751 
Q 1578 397 2138 397 
Q 2388 397 2633 464 
Q 2878 531 3122 666 
L 3122 134 
Q 2881 22 2623 -34 
Q 2366 -91 2075 -91 
Q 1284 -91 818 406 
Q 353 903 353 1747 
Q 353 2603 823 3093 
Q 1294 3584 2113 3584 
Q 2378 3584 2631 3529 
Q 2884 3475 3122 3366 
z
" transform="scale(0.015625)"/>
       <path id="DejaVuSans-68" d="M 3513 2113 
L 3513 0 
L 2938 0 
L 2938 2094 
Q 2938 2591 2744 2837 
Q 2550 3084 2163 3084 
Q 1697 3084 1428 2787 
Q 1159 2491 1159 1978 
L 1159 0 
L 581 0 
L 581 4863 
L 1159 4863 
L 1159 2956 
Q 1366 3272 1645 3428 
Q 1925 3584 2291 3584 
Q 2894 3584 3203 3211 
Q 3513 2838 3513 2113 
z
" transform="scale(0.015625)"/>
       <path id="DejaVuSans-20" transform="scale(0.015625)"/>
       <path id="DejaVuSans-73" d="M 2834 3397 
L 2834 2853 
Q 2591 2978 2328 3040 
Q 2066 3103 1784 3103 
Q 1356 3103 1142 2972 
Q 928 2841 928 2578 
Q 928 2378 1081 2264 
Q 1234 2150 1697 2047 
L 1894 2003 
Q 2506 1872 2764 1633 
Q 3022 1394 3022 966 
Q 3022 478 2636 193 
Q 2250 -91 1575 -91 
Q 1294 -91 989 -36 
Q 684 19 347 128 
L 347 722 
Q 666 556 975 473 
Q 1284 391 1588 391 
Q 1994 391 2212 530 
Q 2431 669 2431 922 
Q 2431 1156 2273 1281 
Q 2116 1406 1581 1522 
L 1381 1569 
Q 847 1681 609 1914 
Q 372 2147 372 2553 
Q 372 3047 722 3315 
Q 1072 3584 1716 3584 
Q 2034 3584 2315 3537 
Q 2597 3491 2834 3397 
z
" transform="scale(0.015625)"/>
       <path id="DejaVuSans-7a" d="M 353 3500 
L 3084 3500 
L 3084 2975 
L 922 459 
L 3084 459 
L 3084 0 
L 275 0 
L 275 525 
L 2438 3041 
L 353 3041 
L 353 3500 
z
" transform="scale(0.015625)"/>
       <path id="DejaVuSans-65" d="M 3597 1894 
L 3597 1613 
L 953 1613 
Q 991 1019 1311 708 
Q 1631 397 2203 397 
Q 2534 397 2845 478 
Q 3156 559 3463 722 
L 3463 178 
Q 3153 47 2828 -22 
Q 2503 -91 2169 -91 
Q 1331 -91 842 396 
Q 353 884 353 1716 
Q 353 2575 817 3079 
Q 1281 3584 2069 3584 
Q 2775 3584 3186 3129 
Q 3597 2675 3597 1894 
z
M 3022 2063 
Q 3016 2534 2758 2815 
Q 2500 3097 2075 3097 
Q 1594 3097 1305 2825 
Q 1016 2553 972 2059 
L 3022 2063 
z
" transform="scale(0.015625)"/>
       <path id="DejaVuSans-3a" d="M 750 794 
L 1409 794 
L 1409 0 
L 750 0 
L 750 794 
z
M 750 3309 
L 1409 3309 
L 1409 2516 
L 750 2516 
L 750 3309 
z
" transform="scale(0.015625)"/>
      </defs>
      <use xlink:href="#DejaVuSans-4d"/>
      <use xlink:href="#DejaVuSans-69" x="86.279297"/>
      <use xlink:href="#DejaVuSans-6e" x="114.0625"/>
      <use xlink:href="#DejaVuSans-69" x="177.441406"/>
      <use xlink:href="#DejaVuSans-2d" x="205.224609"/>
      <use xlink:href="#DejaVuSans-62" x="241.308594"/>
      <use xlink:href="#DejaVuSans-61" x="304.785156"/>
      <use xlink:href="#DejaVuSans-74" x="366.064453"/>
      <use xlink:href="#DejaVuSans-63" x="405.273438"/>
      <use xlink:href="#DejaVuSans-68" x="460.253906"/>
      <use xlink:href="#DejaVuSans-20" x="523.632812"/>
      <use xlink:href="#DejaVuSans-73" x="555.419922"/>
      <use xlink:href="#DejaVuSans-69" x="607.519531"/>
      <use xlink:href="#DejaVuSans-7a" x="635.302734"/>
      <use xlink:href="#DejaVuSans-65" x="687.792969"/>
      <use xlink:href="#DejaVuSans-3a" x="749.316406"/>
      <use xlink:href="#DejaVuSans-20" x="783.007812"/>
      <use xlink:href="#DejaVuSans-32" x="814.794922"/>
      <use xlink:href="#DejaVuSans-30" x="878.417969"/>
      <use xlink:href="#DejaVuSans-30" x="942.041016"/>
     </g>
    </g>
    <g id="line2d_20">
     <path d="M 263.070312 76.554375 
L 281.070312 76.554375 
L 299.070312 76.554375 
" style="fill: none; stroke: #ff7f0e; stroke-width: 2; stroke-linecap: square"/>
    </g>
    <g id="text_17">
     <!-- Mini-batch size: 100 -->
     <g transform="translate(313.470312 82.854375)scale(0.18 -0.18)">
      <use xlink:href="#DejaVuSans-4d"/>
      <use xlink:href="#DejaVuSans-69" x="86.279297"/>
      <use xlink:href="#DejaVuSans-6e" x="114.0625"/>
      <use xlink:href="#DejaVuSans-69" x="177.441406"/>
      <use xlink:href="#DejaVuSans-2d" x="205.224609"/>
      <use xlink:href="#DejaVuSans-62" x="241.308594"/>
      <use xlink:href="#DejaVuSans-61" x="304.785156"/>
      <use xlink:href="#DejaVuSans-74" x="366.064453"/>
      <use xlink:href="#DejaVuSans-63" x="405.273438"/>
      <use xlink:href="#DejaVuSans-68" x="460.253906"/>
      <use xlink:href="#DejaVuSans-20" x="523.632812"/>
      <use xlink:href="#DejaVuSans-73" x="555.419922"/>
      <use xlink:href="#DejaVuSans-69" x="607.519531"/>
      <use xlink:href="#DejaVuSans-7a" x="635.302734"/>
      <use xlink:href="#DejaVuSans-65" x="687.792969"/>
      <use xlink:href="#DejaVuSans-3a" x="749.316406"/>
      <use xlink:href="#DejaVuSans-20" x="783.007812"/>
      <use xlink:href="#DejaVuSans-31" x="814.794922"/>
      <use xlink:href="#DejaVuSans-30" x="878.417969"/>
      <use xlink:href="#DejaVuSans-30" x="942.041016"/>
     </g>
    </g>
    <g id="line2d_21">
     <path d="M 263.070312 102.975 
L 281.070312 102.975 
L 299.070312 102.975 
" style="fill: none; stroke: #2ca02c; stroke-width: 2; stroke-linecap: square"/>
    </g>
    <g id="text_18">
     <!-- Mini-batch size: 50 -->
     <g transform="translate(313.470312 109.275)scale(0.18 -0.18)">
      <defs>
       <path id="DejaVuSans-35" d="M 691 4666 
L 3169 4666 
L 3169 4134 
L 1269 4134 
L 1269 2991 
Q 1406 3038 1543 3061 
Q 1681 3084 1819 3084 
Q 2600 3084 3056 2656 
Q 3513 2228 3513 1497 
Q 3513 744 3044 326 
Q 2575 -91 1722 -91 
Q 1428 -91 1123 -41 
Q 819 9 494 109 
L 494 744 
Q 775 591 1075 516 
Q 1375 441 1709 441 
Q 2250 441 2565 725 
Q 2881 1009 2881 1497 
Q 2881 1984 2565 2268 
Q 2250 2553 1709 2553 
Q 1456 2553 1204 2497 
Q 953 2441 691 2322 
L 691 4666 
z
" transform="scale(0.015625)"/>
      </defs>
      <use xlink:href="#DejaVuSans-4d"/>
      <use xlink:href="#DejaVuSans-69" x="86.279297"/>
      <use xlink:href="#DejaVuSans-6e" x="114.0625"/>
      <use xlink:href="#DejaVuSans-69" x="177.441406"/>
      <use xlink:href="#DejaVuSans-2d" x="205.224609"/>
      <use xlink:href="#DejaVuSans-62" x="241.308594"/>
      <use xlink:href="#DejaVuSans-61" x="304.785156"/>
      <use xlink:href="#DejaVuSans-74" x="366.064453"/>
      <use xlink:href="#DejaVuSans-63" x="405.273438"/>
      <use xlink:href="#DejaVuSans-68" x="460.253906"/>
      <use xlink:href="#DejaVuSans-20" x="523.632812"/>
      <use xlink:href="#DejaVuSans-73" x="555.419922"/>
      <use xlink:href="#DejaVuSans-69" x="607.519531"/>
      <use xlink:href="#DejaVuSans-7a" x="635.302734"/>
      <use xlink:href="#DejaVuSans-65" x="687.792969"/>
      <use xlink:href="#DejaVuSans-3a" x="749.316406"/>
      <use xlink:href="#DejaVuSans-20" x="783.007812"/>
      <use xlink:href="#DejaVuSans-35" x="814.794922"/>
      <use xlink:href="#DejaVuSans-30" x="878.417969"/>
     </g>
    </g>
    <g id="line2d_22">
     <path d="M 263.070312 129.395625 
L 281.070312 129.395625 
L 299.070312 129.395625 
" style="fill: none; stroke: #d62728; stroke-width: 2; stroke-linecap: square"/>
    </g>
    <g id="text_19">
     <!-- Mini-batch size: 20 -->
     <g transform="translate(313.470312 135.695625)scale(0.18 -0.18)">
      <use xlink:href="#DejaVuSans-4d"/>
      <use xlink:href="#DejaVuSans-69" x="86.279297"/>
      <use xlink:href="#DejaVuSans-6e" x="114.0625"/>
      <use xlink:href="#DejaVuSans-69" x="177.441406"/>
      <use xlink:href="#DejaVuSans-2d" x="205.224609"/>
      <use xlink:href="#DejaVuSans-62" x="241.308594"/>
      <use xlink:href="#DejaVuSans-61" x="304.785156"/>
      <use xlink:href="#DejaVuSans-74" x="366.064453"/>
      <use xlink:href="#DejaVuSans-63" x="405.273438"/>
      <use xlink:href="#DejaVuSans-68" x="460.253906"/>
      <use xlink:href="#DejaVuSans-20" x="523.632812"/>
      <use xlink:href="#DejaVuSans-73" x="555.419922"/>
      <use xlink:href="#DejaVuSans-69" x="607.519531"/>
      <use xlink:href="#DejaVuSans-7a" x="635.302734"/>
      <use xlink:href="#DejaVuSans-65" x="687.792969"/>
      <use xlink:href="#DejaVuSans-3a" x="749.316406"/>
      <use xlink:href="#DejaVuSans-20" x="783.007812"/>
      <use xlink:href="#DejaVuSans-32" x="814.794922"/>
      <use xlink:href="#DejaVuSans-30" x="878.417969"/>
     </g>
    </g>
    <g id="line2d_23">
     <path d="M 263.070312 155.81625 
L 281.070312 155.81625 
L 299.070312 155.81625 
" style="fill: none; stroke: #9467bd; stroke-width: 2; stroke-linecap: square"/>
    </g>
    <g id="text_20">
     <!-- Mini-batch size: 10 -->
     <g transform="translate(313.470312 162.11625)scale(0.18 -0.18)">
      <use xlink:href="#DejaVuSans-4d"/>
      <use xlink:href="#DejaVuSans-69" x="86.279297"/>
      <use xlink:href="#DejaVuSans-6e" x="114.0625"/>
      <use xlink:href="#DejaVuSans-69" x="177.441406"/>
      <use xlink:href="#DejaVuSans-2d" x="205.224609"/>
      <use xlink:href="#DejaVuSans-62" x="241.308594"/>
      <use xlink:href="#DejaVuSans-61" x="304.785156"/>
      <use xlink:href="#DejaVuSans-74" x="366.064453"/>
      <use xlink:href="#DejaVuSans-63" x="405.273438"/>
      <use xlink:href="#DejaVuSans-68" x="460.253906"/>
      <use xlink:href="#DejaVuSans-20" x="523.632812"/>
      <use xlink:href="#DejaVuSans-73" x="555.419922"/>
      <use xlink:href="#DejaVuSans-69" x="607.519531"/>
      <use xlink:href="#DejaVuSans-7a" x="635.302734"/>
      <use xlink:href="#DejaVuSans-65" x="687.792969"/>
      <use xlink:href="#DejaVuSans-3a" x="749.316406"/>
      <use xlink:href="#DejaVuSans-20" x="783.007812"/>
      <use xlink:href="#DejaVuSans-31" x="814.794922"/>
      <use xlink:href="#DejaVuSans-30" x="878.417969"/>
     </g>
    </g>
    <g id="line2d_24">
     <path d="M 263.070312 182.236875 
L 281.070312 182.236875 
L 299.070312 182.236875 
" style="fill: none; stroke: #8c564b; stroke-width: 2; stroke-linecap: square"/>
    </g>
    <g id="text_21">
     <!-- Mini-batch size: 5 -->
     <g transform="translate(313.470312 188.536875)scale(0.18 -0.18)">
      <use xlink:href="#DejaVuSans-4d"/>
      <use xlink:href="#DejaVuSans-69" x="86.279297"/>
      <use xlink:href="#DejaVuSans-6e" x="114.0625"/>
      <use xlink:href="#DejaVuSans-69" x="177.441406"/>
      <use xlink:href="#DejaVuSans-2d" x="205.224609"/>
      <use xlink:href="#DejaVuSans-62" x="241.308594"/>
      <use xlink:href="#DejaVuSans-61" x="304.785156"/>
      <use xlink:href="#DejaVuSans-74" x="366.064453"/>
      <use xlink:href="#DejaVuSans-63" x="405.273438"/>
      <use xlink:href="#DejaVuSans-68" x="460.253906"/>
      <use xlink:href="#DejaVuSans-20" x="523.632812"/>
      <use xlink:href="#DejaVuSans-73" x="555.419922"/>
      <use xlink:href="#DejaVuSans-69" x="607.519531"/>
      <use xlink:href="#DejaVuSans-7a" x="635.302734"/>
      <use xlink:href="#DejaVuSans-65" x="687.792969"/>
      <use xlink:href="#DejaVuSans-3a" x="749.316406"/>
      <use xlink:href="#DejaVuSans-20" x="783.007812"/>
      <use xlink:href="#DejaVuSans-35" x="814.794922"/>
     </g>
    </g>
   </g>
  </g>
 </g>
 <defs>
  <clipPath id="pedec501c94">
   <rect x="64.285625" y="26.556563" width="446.4" height="277.2"/>
  </clipPath>
 </defs>
</svg>
