<?xml version="1.0" encoding="utf-8" standalone="no"?>
<!DOCTYPE svg PUBLIC "-//W3C//DTD SVG 1.1//EN"
  "http://www.w3.org/Graphics/SVG/1.1/DTD/svg11.dtd">
<svg xmlns:xlink="http://www.w3.org/1999/xlink" width="540.790625pt" height="356.226875pt" viewBox="0 0 540.790625 356.226875" xmlns="http://www.w3.org/2000/svg" version="1.1">
 <metadata>
  <rdf:RDF xmlns:dc="http://purl.org/dc/elements/1.1/" xmlns:cc="http://creativecommons.org/ns#" xmlns:rdf="http://www.w3.org/1999/02/22-rdf-syntax-ns#">
   <cc:Work>
    <dc:type rdf:resource="http://purl.org/dc/dcmitype/StillImage"/>
    <dc:date>2022-12-29T13:57:09.727697</dc:date>
    <dc:format>image/svg+xml</dc:format>
    <dc:creator>
     <cc:Agent>
      <dc:title>Matplotlib v3.5.2, https://matplotlib.org/</dc:title>
     </cc:Agent>
    </dc:creator>
   </cc:Work>
  </rdf:RDF>
 </metadata>
 <defs>
  <style type="text/css">*{stroke-linejoin: round; stroke-linecap: butt}</style>
 </defs>
 <g id="figure_1">
  <g id="patch_1">
   <path d="M 0 356.226875 
L 540.790625 356.226875 
L 540.790625 0 
L 0 0 
z
" style="fill: #ffffff"/>
  </g>
  <g id="axes_1">
   <g id="patch_2">
    <path d="M 64.285625 303.756563 
L 510.685625 303.756563 
L 510.685625 26.556563 
L 64.285625 26.556563 
z
" style="fill: #f1f7f0"/>
   </g>
   <g id="matplotlib.axis_1">
    <g id="xtick_1">
     <g id="line2d_1">
      <defs>
       <path id="m6593f1af11" d="M 0 0 
L 0 3.5 
" style="stroke: #000000; stroke-width: 0.8"/>
      </defs>
      <g>
       <use xlink:href="#m6593f1af11" x="64.285625" y="303.756563" style="stroke: #000000; stroke-width: 0.8"/>
      </g>
     </g>
     <g id="text_1">
      <!-- 0 -->
      <g transform="translate(58.559375 324.43375)scale(0.18 -0.18)">
       <defs>
        <path id="DejaVuSans-30" d="M 2034 4250 
Q 1547 4250 1301 3770 
Q 1056 3291 1056 2328 
Q 1056 1369 1301 889 
Q 1547 409 2034 409 
Q 2525 409 2770 889 
Q 3016 1369 3016 2328 
Q 3016 3291 2770 3770 
Q 2525 4250 2034 4250 
z
M 2034 4750 
Q 2819 4750 3233 4129 
Q 3647 3509 3647 2328 
Q 3647 1150 3233 529 
Q 2819 -91 2034 -91 
Q 1250 -91 836 529 
Q 422 1150 422 2328 
Q 422 3509 836 4129 
Q 1250 4750 2034 4750 
z
" transform="scale(0.015625)"/>
       </defs>
       <use xlink:href="#DejaVuSans-30"/>
      </g>
     </g>
    </g>
    <g id="xtick_2">
     <g id="line2d_2">
      <g>
       <use xlink:href="#m6593f1af11" x="153.565625" y="303.756563" style="stroke: #000000; stroke-width: 0.8"/>
      </g>
     </g>
     <g id="text_2">
      <!-- 200 -->
      <g transform="translate(136.386875 324.43375)scale(0.18 -0.18)">
       <defs>
        <path id="DejaVuSans-32" d="M 1228 531 
L 3431 531 
L 3431 0 
L 469 0 
L 469 531 
Q 828 903 1448 1529 
Q 2069 2156 2228 2338 
Q 2531 2678 2651 2914 
Q 2772 3150 2772 3378 
Q 2772 3750 2511 3984 
Q 2250 4219 1831 4219 
Q 1534 4219 1204 4116 
Q 875 4013 500 3803 
L 500 4441 
Q 881 4594 1212 4672 
Q 1544 4750 1819 4750 
Q 2544 4750 2975 4387 
Q 3406 4025 3406 3419 
Q 3406 3131 3298 2873 
Q 3191 2616 2906 2266 
Q 2828 2175 2409 1742 
Q 1991 1309 1228 531 
z
" transform="scale(0.015625)"/>
       </defs>
       <use xlink:href="#DejaVuSans-32"/>
       <use xlink:href="#DejaVuSans-30" x="63.623047"/>
       <use xlink:href="#DejaVuSans-30" x="127.246094"/>
      </g>
     </g>
    </g>
    <g id="xtick_3">
     <g id="line2d_3">
      <g>
       <use xlink:href="#m6593f1af11" x="242.845625" y="303.756563" style="stroke: #000000; stroke-width: 0.8"/>
      </g>
     </g>
     <g id="text_3">
      <!-- 400 -->
      <g transform="translate(225.666875 324.43375)scale(0.18 -0.18)">
       <defs>
        <path id="DejaVuSans-34" d="M 2419 4116 
L 825 1625 
L 2419 1625 
L 2419 4116 
z
M 2253 4666 
L 3047 4666 
L 3047 1625 
L 3713 1625 
L 3713 1100 
L 3047 1100 
L 3047 0 
L 2419 0 
L 2419 1100 
L 313 1100 
L 313 1709 
L 2253 4666 
z
" transform="scale(0.015625)"/>
       </defs>
       <use xlink:href="#DejaVuSans-34"/>
       <use xlink:href="#DejaVuSans-30" x="63.623047"/>
       <use xlink:href="#DejaVuSans-30" x="127.246094"/>
      </g>
     </g>
    </g>
    <g id="xtick_4">
     <g id="line2d_4">
      <g>
       <use xlink:href="#m6593f1af11" x="332.125625" y="303.756563" style="stroke: #000000; stroke-width: 0.8"/>
      </g>
     </g>
     <g id="text_4">
      <!-- 600 -->
      <g transform="translate(314.946875 324.43375)scale(0.18 -0.18)">
       <defs>
        <path id="DejaVuSans-36" d="M 2113 2584 
Q 1688 2584 1439 2293 
Q 1191 2003 1191 1497 
Q 1191 994 1439 701 
Q 1688 409 2113 409 
Q 2538 409 2786 701 
Q 3034 994 3034 1497 
Q 3034 2003 2786 2293 
Q 2538 2584 2113 2584 
z
M 3366 4563 
L 3366 3988 
Q 3128 4100 2886 4159 
Q 2644 4219 2406 4219 
Q 1781 4219 1451 3797 
Q 1122 3375 1075 2522 
Q 1259 2794 1537 2939 
Q 1816 3084 2150 3084 
Q 2853 3084 3261 2657 
Q 3669 2231 3669 1497 
Q 3669 778 3244 343 
Q 2819 -91 2113 -91 
Q 1303 -91 875 529 
Q 447 1150 447 2328 
Q 447 3434 972 4092 
Q 1497 4750 2381 4750 
Q 2619 4750 2861 4703 
Q 3103 4656 3366 4563 
z
" transform="scale(0.015625)"/>
       </defs>
       <use xlink:href="#DejaVuSans-36"/>
       <use xlink:href="#DejaVuSans-30" x="63.623047"/>
       <use xlink:href="#DejaVuSans-30" x="127.246094"/>
      </g>
     </g>
    </g>
    <g id="xtick_5">
     <g id="line2d_5">
      <g>
       <use xlink:href="#m6593f1af11" x="421.405625" y="303.756563" style="stroke: #000000; stroke-width: 0.8"/>
      </g>
     </g>
     <g id="text_5">
      <!-- 800 -->
      <g transform="translate(404.226875 324.43375)scale(0.18 -0.18)">
       <defs>
        <path id="DejaVuSans-38" d="M 2034 2216 
Q 1584 2216 1326 1975 
Q 1069 1734 1069 1313 
Q 1069 891 1326 650 
Q 1584 409 2034 409 
Q 2484 409 2743 651 
Q 3003 894 3003 1313 
Q 3003 1734 2745 1975 
Q 2488 2216 2034 2216 
z
M 1403 2484 
Q 997 2584 770 2862 
Q 544 3141 544 3541 
Q 544 4100 942 4425 
Q 1341 4750 2034 4750 
Q 2731 4750 3128 4425 
Q 3525 4100 3525 3541 
Q 3525 3141 3298 2862 
Q 3072 2584 2669 2484 
Q 3125 2378 3379 2068 
Q 3634 1759 3634 1313 
Q 3634 634 3220 271 
Q 2806 -91 2034 -91 
Q 1263 -91 848 271 
Q 434 634 434 1313 
Q 434 1759 690 2068 
Q 947 2378 1403 2484 
z
M 1172 3481 
Q 1172 3119 1398 2916 
Q 1625 2713 2034 2713 
Q 2441 2713 2670 2916 
Q 2900 3119 2900 3481 
Q 2900 3844 2670 4047 
Q 2441 4250 2034 4250 
Q 1625 4250 1398 4047 
Q 1172 3844 1172 3481 
z
" transform="scale(0.015625)"/>
       </defs>
       <use xlink:href="#DejaVuSans-38"/>
       <use xlink:href="#DejaVuSans-30" x="63.623047"/>
       <use xlink:href="#DejaVuSans-30" x="127.246094"/>
      </g>
     </g>
    </g>
    <g id="xtick_6">
     <g id="line2d_6">
      <g>
       <use xlink:href="#m6593f1af11" x="510.685625" y="303.756563" style="stroke: #000000; stroke-width: 0.8"/>
      </g>
     </g>
     <g id="text_6">
      <!-- 1000 -->
      <g transform="translate(487.780625 324.43375)scale(0.18 -0.18)">
       <defs>
        <path id="DejaVuSans-31" d="M 794 531 
L 1825 531 
L 1825 4091 
L 703 3866 
L 703 4441 
L 1819 4666 
L 2450 4666 
L 2450 531 
L 3481 531 
L 3481 0 
L 794 0 
L 794 531 
z
" transform="scale(0.015625)"/>
       </defs>
       <use xlink:href="#DejaVuSans-31"/>
       <use xlink:href="#DejaVuSans-30" x="63.623047"/>
       <use xlink:href="#DejaVuSans-30" x="127.246094"/>
       <use xlink:href="#DejaVuSans-30" x="190.869141"/>
      </g>
     </g>
    </g>
    <g id="text_7">
     <!-- Epochs -->
     <g transform="translate(253.827031 345.53375)scale(0.18 -0.18)">
      <defs>
       <path id="Montserrat-Medium-45" d="M 3923 557 
L 3923 0 
L 672 0 
L 672 4480 
L 3834 4480 
L 3834 3923 
L 1312 3923 
L 1312 2547 
L 3558 2547 
L 3558 2003 
L 1312 2003 
L 1312 557 
L 3923 557 
z
" transform="scale(0.015625)"/>
       <path id="Montserrat-Medium-70" d="M 2381 3424 
Q 2874 3424 3264 3206 
Q 3654 2989 3875 2598 
Q 4096 2208 4096 1696 
Q 4096 1184 3875 790 
Q 3654 397 3264 179 
Q 2874 -38 2381 -38 
Q 2016 -38 1712 102 
Q 1408 243 1197 512 
L 1197 -1242 
L 582 -1242 
L 582 3392 
L 1171 3392 
L 1171 2854 
Q 1376 3136 1689 3280 
Q 2003 3424 2381 3424 
z
M 2330 499 
Q 2656 499 2915 649 
Q 3174 800 3324 1072 
Q 3475 1344 3475 1696 
Q 3475 2048 3324 2320 
Q 3174 2592 2915 2739 
Q 2656 2886 2330 2886 
Q 2010 2886 1750 2736 
Q 1491 2586 1340 2317 
Q 1190 2048 1190 1696 
Q 1190 1344 1337 1072 
Q 1485 800 1747 649 
Q 2010 499 2330 499 
z
" transform="scale(0.015625)"/>
       <path id="Montserrat-Medium-6f" d="M 2035 -38 
Q 1530 -38 1126 186 
Q 723 410 496 803 
Q 269 1197 269 1696 
Q 269 2195 496 2588 
Q 723 2982 1126 3203 
Q 1530 3424 2035 3424 
Q 2541 3424 2941 3203 
Q 3341 2982 3568 2588 
Q 3795 2195 3795 1696 
Q 3795 1197 3568 803 
Q 3341 410 2941 186 
Q 2541 -38 2035 -38 
z
M 2035 499 
Q 2362 499 2621 649 
Q 2880 800 3027 1072 
Q 3174 1344 3174 1696 
Q 3174 2048 3027 2320 
Q 2880 2592 2621 2739 
Q 2362 2886 2035 2886 
Q 1709 2886 1449 2739 
Q 1190 2592 1040 2320 
Q 890 2048 890 1696 
Q 890 1344 1040 1072 
Q 1190 800 1449 649 
Q 1709 499 2035 499 
z
" transform="scale(0.015625)"/>
       <path id="Montserrat-Medium-63" d="M 2061 -38 
Q 1542 -38 1136 186 
Q 730 410 499 803 
Q 269 1197 269 1696 
Q 269 2195 499 2588 
Q 730 2982 1136 3203 
Q 1542 3424 2061 3424 
Q 2522 3424 2883 3238 
Q 3245 3053 3443 2701 
L 2976 2400 
Q 2816 2643 2579 2764 
Q 2342 2886 2054 2886 
Q 1722 2886 1456 2739 
Q 1190 2592 1040 2320 
Q 890 2048 890 1696 
Q 890 1338 1040 1066 
Q 1190 794 1456 646 
Q 1722 499 2054 499 
Q 2342 499 2579 620 
Q 2816 742 2976 986 
L 3443 691 
Q 3245 339 2883 150 
Q 2522 -38 2061 -38 
z
" transform="scale(0.015625)"/>
       <path id="Montserrat-Medium-68" d="M 2394 3424 
Q 3040 3424 3421 3049 
Q 3802 2675 3802 1952 
L 3802 0 
L 3187 0 
L 3187 1882 
Q 3187 2374 2950 2624 
Q 2714 2874 2272 2874 
Q 1773 2874 1485 2582 
Q 1197 2291 1197 1747 
L 1197 0 
L 582 0 
L 582 4749 
L 1197 4749 
L 1197 2912 
Q 1389 3155 1699 3289 
Q 2010 3424 2394 3424 
z
" transform="scale(0.015625)"/>
       <path id="Montserrat-Medium-73" d="M 1555 -38 
Q 1139 -38 755 74 
Q 371 186 154 358 
L 410 845 
Q 634 685 954 589 
Q 1274 493 1600 493 
Q 2406 493 2406 954 
Q 2406 1107 2297 1196 
Q 2189 1286 2025 1328 
Q 1862 1370 1562 1421 
Q 1152 1485 893 1568 
Q 634 1651 448 1849 
Q 262 2048 262 2406 
Q 262 2867 646 3145 
Q 1030 3424 1677 3424 
Q 2016 3424 2355 3341 
Q 2694 3258 2912 3117 
L 2650 2630 
Q 2234 2899 1670 2899 
Q 1280 2899 1075 2771 
Q 870 2643 870 2432 
Q 870 2266 985 2170 
Q 1101 2074 1270 2029 
Q 1440 1984 1747 1926 
Q 2157 1856 2409 1776 
Q 2662 1696 2841 1504 
Q 3021 1312 3021 966 
Q 3021 506 2627 234 
Q 2234 -38 1555 -38 
z
" transform="scale(0.015625)"/>
      </defs>
      <use xlink:href="#Montserrat-Medium-45"/>
      <use xlink:href="#Montserrat-Medium-70" x="66.999985"/>
      <use xlink:href="#Montserrat-Medium-6f" x="135.199966"/>
      <use xlink:href="#Montserrat-Medium-63" x="198.699951"/>
      <use xlink:href="#Montserrat-Medium-68" x="255.799942"/>
      <use xlink:href="#Montserrat-Medium-73" x="323.899933"/>
     </g>
    </g>
   </g>
   <g id="matplotlib.axis_2">
    <g id="ytick_1">
     <g id="line2d_7">
      <defs>
       <path id="me58eb2b7a6" d="M 0 0 
L -3.5 0 
" style="stroke: #000000; stroke-width: 0.8"/>
      </defs>
      <g>
       <use xlink:href="#me58eb2b7a6" x="64.285625" y="303.756563" style="stroke: #000000; stroke-width: 0.8"/>
      </g>
     </g>
     <g id="text_8">
      <!-- 0.0 -->
      <g transform="translate(28.66 310.595156)scale(0.18 -0.18)">
       <defs>
        <path id="DejaVuSans-2e" d="M 684 794 
L 1344 794 
L 1344 0 
L 684 0 
L 684 794 
z
" transform="scale(0.015625)"/>
       </defs>
       <use xlink:href="#DejaVuSans-30"/>
       <use xlink:href="#DejaVuSans-2e" x="63.623047"/>
       <use xlink:href="#DejaVuSans-30" x="95.410156"/>
      </g>
     </g>
    </g>
    <g id="ytick_2">
     <g id="line2d_8">
      <g>
       <use xlink:href="#me58eb2b7a6" x="64.285625" y="248.316563" style="stroke: #000000; stroke-width: 0.8"/>
      </g>
     </g>
     <g id="text_9">
      <!-- 0.2 -->
      <g transform="translate(28.66 255.155156)scale(0.18 -0.18)">
       <use xlink:href="#DejaVuSans-30"/>
       <use xlink:href="#DejaVuSans-2e" x="63.623047"/>
       <use xlink:href="#DejaVuSans-32" x="95.410156"/>
      </g>
     </g>
    </g>
    <g id="ytick_3">
     <g id="line2d_9">
      <g>
       <use xlink:href="#me58eb2b7a6" x="64.285625" y="192.876563" style="stroke: #000000; stroke-width: 0.8"/>
      </g>
     </g>
     <g id="text_10">
      <!-- 0.4 -->
      <g transform="translate(28.66 199.715156)scale(0.18 -0.18)">
       <use xlink:href="#DejaVuSans-30"/>
       <use xlink:href="#DejaVuSans-2e" x="63.623047"/>
       <use xlink:href="#DejaVuSans-34" x="95.410156"/>
      </g>
     </g>
    </g>
    <g id="ytick_4">
     <g id="line2d_10">
      <g>
       <use xlink:href="#me58eb2b7a6" x="64.285625" y="137.436563" style="stroke: #000000; stroke-width: 0.8"/>
      </g>
     </g>
     <g id="text_11">
      <!-- 0.6 -->
      <g transform="translate(28.66 144.275156)scale(0.18 -0.18)">
       <use xlink:href="#DejaVuSans-30"/>
       <use xlink:href="#DejaVuSans-2e" x="63.623047"/>
       <use xlink:href="#DejaVuSans-36" x="95.410156"/>
      </g>
     </g>
    </g>
    <g id="ytick_5">
     <g id="line2d_11">
      <g>
       <use xlink:href="#me58eb2b7a6" x="64.285625" y="81.996563" style="stroke: #000000; stroke-width: 0.8"/>
      </g>
     </g>
     <g id="text_12">
      <!-- 0.8 -->
      <g transform="translate(28.66 88.835156)scale(0.18 -0.18)">
       <use xlink:href="#DejaVuSans-30"/>
       <use xlink:href="#DejaVuSans-2e" x="63.623047"/>
       <use xlink:href="#DejaVuSans-38" x="95.410156"/>
      </g>
     </g>
    </g>
    <g id="ytick_6">
     <g id="line2d_12">
      <g>
       <use xlink:href="#me58eb2b7a6" x="64.285625" y="26.556563" style="stroke: #000000; stroke-width: 0.8"/>
      </g>
     </g>
     <g id="text_13">
      <!-- 1.0 -->
      <g transform="translate(28.66 33.395156)scale(0.18 -0.18)">
       <use xlink:href="#DejaVuSans-31"/>
       <use xlink:href="#DejaVuSans-2e" x="63.623047"/>
       <use xlink:href="#DejaVuSans-30" x="95.410156"/>
      </g>
     </g>
    </g>
    <g id="text_14">
     <!-- Cost function $J$ -->
     <g transform="translate(20.88 231.756563)rotate(-90)scale(0.18 -0.18)">
      <defs>
       <path id="Montserrat-Medium-43" d="M 2675 -51 
Q 2003 -51 1462 246 
Q 922 544 614 1065 
Q 307 1587 307 2240 
Q 307 2893 614 3414 
Q 922 3936 1466 4233 
Q 2010 4531 2682 4531 
Q 3206 4531 3641 4355 
Q 4077 4179 4384 3834 
L 3968 3430 
Q 3462 3962 2707 3962 
Q 2208 3962 1805 3738 
Q 1402 3514 1174 3120 
Q 947 2726 947 2240 
Q 947 1754 1174 1360 
Q 1402 966 1805 742 
Q 2208 518 2707 518 
Q 3456 518 3968 1056 
L 4384 653 
Q 4077 307 3638 128 
Q 3200 -51 2675 -51 
z
" transform="scale(0.015625)"/>
       <path id="Montserrat-Medium-74" d="M 2490 198 
Q 2355 83 2156 22 
Q 1958 -38 1747 -38 
Q 1235 -38 953 237 
Q 672 512 672 1024 
L 672 2886 
L 96 2886 
L 96 3392 
L 672 3392 
L 672 4134 
L 1286 4134 
L 1286 3392 
L 2259 3392 
L 2259 2886 
L 1286 2886 
L 1286 1050 
Q 1286 774 1424 627 
Q 1562 480 1818 480 
Q 2099 480 2298 640 
L 2490 198 
z
" transform="scale(0.015625)"/>
       <path id="Montserrat-Medium-20" transform="scale(0.015625)"/>
       <path id="Montserrat-Medium-66" d="M 1824 4282 
Q 1274 4282 1274 3686 
L 1274 3392 
L 2259 3392 
L 2259 2886 
L 1286 2886 
L 1286 0 
L 672 0 
L 672 2886 
L 96 2886 
L 96 3392 
L 672 3392 
L 672 3693 
Q 672 4198 966 4492 
Q 1261 4787 1792 4787 
Q 1997 4787 2176 4736 
Q 2355 4685 2483 4589 
L 2298 4122 
Q 2086 4282 1824 4282 
z
" transform="scale(0.015625)"/>
       <path id="Montserrat-Medium-75" d="M 3744 3392 
L 3744 0 
L 3162 0 
L 3162 512 
Q 2976 250 2672 106 
Q 2368 -38 2010 -38 
Q 1331 -38 940 336 
Q 550 710 550 1440 
L 550 3392 
L 1165 3392 
L 1165 1510 
Q 1165 1018 1401 765 
Q 1638 512 2080 512 
Q 2566 512 2848 806 
Q 3130 1101 3130 1638 
L 3130 3392 
L 3744 3392 
z
" transform="scale(0.015625)"/>
       <path id="Montserrat-Medium-6e" d="M 2394 3424 
Q 3040 3424 3421 3049 
Q 3802 2675 3802 1952 
L 3802 0 
L 3187 0 
L 3187 1882 
Q 3187 2374 2950 2624 
Q 2714 2874 2272 2874 
Q 1773 2874 1485 2582 
Q 1197 2291 1197 1747 
L 1197 0 
L 582 0 
L 582 3392 
L 1171 3392 
L 1171 2880 
Q 1357 3142 1673 3283 
Q 1990 3424 2394 3424 
z
" transform="scale(0.015625)"/>
       <path id="Montserrat-Medium-69" d="M 582 3392 
L 1197 3392 
L 1197 0 
L 582 0 
L 582 3392 
z
M 890 4045 
Q 710 4045 592 4160 
Q 474 4275 474 4442 
Q 474 4608 592 4726 
Q 710 4845 890 4845 
Q 1069 4845 1187 4733 
Q 1306 4621 1306 4454 
Q 1306 4282 1187 4163 
Q 1069 4045 890 4045 
z
" transform="scale(0.015625)"/>
       <path id="DejaVuSans-Oblique-4a" d="M 1069 4666 
L 1703 4666 
L 856 325 
Q 691 -522 298 -901 
Q -94 -1281 -800 -1281 
L -1050 -1281 
L -947 -750 
L -750 -750 
Q -328 -750 -109 -509 
Q 109 -269 225 325 
L 1069 4666 
z
" transform="scale(0.015625)"/>
      </defs>
      <use xlink:href="#Montserrat-Medium-43" transform="translate(0 0.296875)"/>
      <use xlink:href="#Montserrat-Medium-6f" transform="translate(72.299988 0.296875)"/>
      <use xlink:href="#Montserrat-Medium-73" transform="translate(135.799973 0.296875)"/>
      <use xlink:href="#Montserrat-Medium-74" transform="translate(185.899963 0.296875)"/>
      <use xlink:href="#Montserrat-Medium-20" transform="translate(227.299957 0.296875)"/>
      <use xlink:href="#Montserrat-Medium-66" transform="translate(254.199951 0.296875)"/>
      <use xlink:href="#Montserrat-Medium-75" transform="translate(289.499939 0.296875)"/>
      <use xlink:href="#Montserrat-Medium-6e" transform="translate(357.199921 0.296875)"/>
      <use xlink:href="#Montserrat-Medium-63" transform="translate(425.299911 0.296875)"/>
      <use xlink:href="#Montserrat-Medium-74" transform="translate(482.399902 0.296875)"/>
      <use xlink:href="#Montserrat-Medium-69" transform="translate(523.799896 0.296875)"/>
      <use xlink:href="#Montserrat-Medium-6f" transform="translate(551.69989 0.296875)"/>
      <use xlink:href="#Montserrat-Medium-6e" transform="translate(615.199875 0.296875)"/>
      <use xlink:href="#Montserrat-Medium-20" transform="translate(683.299866 0.296875)"/>
      <use xlink:href="#DejaVuSans-Oblique-4a" transform="translate(710.19986 0.296875)"/>
     </g>
    </g>
   </g>
   <g id="line2d_13">
    <path d="M 69.526187 -1 
L 70.088825 16.075441 
L 70.981625 36.458375 
L 71.874425 51.498971 
L 73.213625 69.378942 
L 74.106425 77.896838 
L 75.445625 88.016779 
L 76.784825 96.098467 
L 78.124025 102.811786 
L 79.463225 108.543739 
L 80.802425 113.51434 
L 82.588025 119.230664 
L 84.373625 124.125311 
L 86.159225 128.335683 
L 87.944825 132.008301 
L 90.176825 136.092524 
L 92.408825 139.561784 
L 94.640825 142.60037 
L 96.872825 145.278239 
L 100.444025 148.968618 
L 104.015225 152.135369 
L 107.140025 154.589706 
L 111.604025 157.638619 
L 116.068025 160.292481 
L 118.300025 161.498501 
L 122.317625 163.487932 
L 126.335225 165.290278 
L 132.584825 167.78446 
L 136.156025 169.057272 
L 139.727225 170.252436 
L 148.208825 172.826091 
L 154.904825 174.607429 
L 161.154425 176.120163 
L 170.528825 178.18377 
L 178.117625 179.653984 
L 181.242425 180.21221 
L 186.152825 181.061751 
L 189.277625 181.5868 
L 216.508025 185.513251 
L 227.668025 186.886585 
L 234.364025 187.635992 
L 241.060025 188.360607 
L 276.325625 191.653994 
L 282.128825 192.109574 
L 283.914425 192.283629 
L 290.610425 192.794098 
L 297.306425 193.28991 
L 299.092025 193.411457 
L 306.680825 193.95972 
L 308.020025 194.03417 
L 309.805625 194.16587 
L 311.591225 194.279602 
L 314.269625 194.487454 
L 315.608825 194.548967 
L 329.447225 195.417335 
L 333.018425 195.626526 
L 337.036025 195.875659 
L 366.944825 197.496218 
L 369.176825 197.578863 
L 374.533625 197.854316 
L 380.783225 198.127902 
L 383.015225 198.24555 
L 437.476025 200.505807 
L 489.258425 202.280421 
L 491.490425 202.333937 
L 496.400825 202.501689 
L 497.740025 202.515296 
L 507.560825 202.82994 
L 508.900025 202.857846 
L 510.239225 202.918095 
L 510.239225 202.918095 
" clip-path="url(#p88b213785a)" style="fill: none; stroke: #1f77b4; stroke-width: 2; stroke-linecap: square"/>
   </g>
   <g id="line2d_14">
    <path d="M 66.397123 -1 
L 66.517625 11.47904 
L 66.964025 41.598827 
L 67.410425 60.704612 
L 67.856825 73.975228 
L 68.749625 91.789258 
L 69.642425 103.71148 
L 70.535225 112.646914 
L 71.428025 119.681114 
L 72.320825 125.461445 
L 73.660025 132.508913 
L 74.999225 138.129919 
L 76.338425 142.771674 
L 77.677625 146.644048 
L 79.016825 149.998195 
L 80.802425 153.741314 
L 82.588025 156.897936 
L 85.712825 161.384745 
L 87.944825 164.006801 
L 89.730425 165.81983 
L 91.962425 167.84266 
L 95.980025 170.876843 
L 98.212025 172.324148 
L 101.336825 174.121299 
L 103.568825 175.271836 
L 110.711225 178.381841 
L 120.085625 181.535919 
L 121.871225 182.052823 
L 123.656825 182.556178 
L 129.906425 184.165948 
L 131.692025 184.601263 
L 133.924025 185.103553 
L 138.834425 186.116847 
L 139.727225 186.298379 
L 145.976825 187.525721 
L 155.351225 189.140398 
L 156.690425 189.356693 
L 162.940025 190.314902 
L 169.189625 191.21477 
L 170.528825 191.356516 
L 177.224825 192.226668 
L 178.117625 192.297599 
L 179.903225 192.572763 
L 184.813625 193.133269 
L 187.045625 193.401635 
L 188.384825 193.537746 
L 191.956025 193.945577 
L 194.634425 194.203814 
L 197.312825 194.526051 
L 199.098425 194.692448 
L 220.525625 196.690131 
L 221.418425 196.724646 
L 222.757625 196.890837 
L 224.543225 197.032145 
L 231.239225 197.564967 
L 232.578425 197.642433 
L 233.471225 197.720328 
L 245.970425 198.667648 
L 246.863225 198.726906 
L 249.095225 198.864389 
L 252.666425 199.106235 
L 255.791225 199.31208 
L 258.023225 199.465317 
L 259.362425 199.549639 
L 260.701625 199.639587 
L 264.719225 199.893173 
L 266.951225 200.043543 
L 271.861625 200.339774 
L 290.164025 201.374357 
L 291.056825 201.410748 
L 293.735225 201.548536 
L 296.860025 201.748548 
L 298.199225 201.777785 
L 303.556025 202.091884 
L 305.341625 202.167615 
L 307.573625 202.300579 
L 308.020025 202.263188 
L 309.359225 202.424695 
L 310.252025 202.431998 
L 312.484025 202.559353 
L 317.840825 202.793136 
L 318.733625 202.858706 
L 320.519225 202.928587 
L 384.354425 205.761701 
L 384.800825 205.71975 
L 385.693625 205.788831 
L 392.836025 206.080914 
L 393.728825 206.11452 
L 396.853625 206.247534 
L 398.639225 206.270971 
L 403.103225 206.478278 
L 404.442425 206.510538 
L 405.781625 206.575438 
L 417.388025 207.034141 
L 418.280825 207.065054 
L 420.512825 207.163445 
L 427.208825 207.372082 
L 428.548025 207.452356 
L 429.440825 207.43419 
L 430.333625 207.505434 
L 433.012025 207.541528 
L 435.690425 207.665289 
L 437.922425 207.74515 
L 438.368825 207.833545 
L 439.261625 207.787447 
L 441.940025 207.920304 
L 443.279225 207.938701 
L 446.404025 208.047287 
L 448.189625 208.119911 
L 451.314425 208.207125 
L 453.546425 208.311893 
L 462.028025 208.599986 
L 463.813625 208.653139 
L 464.260025 208.731224 
L 465.152825 208.732975 
L 467.384825 208.793265 
L 468.277625 208.825467 
L 483.455225 209.366064 
L 484.348025 209.345097 
L 486.133625 209.405933 
L 494.615225 209.649415 
L 495.954425 209.703534 
L 498.632825 209.762833 
L 501.311225 209.864619 
L 510.239225 210.15448 
L 510.239225 210.15448 
" clip-path="url(#p88b213785a)" style="fill: none; stroke: #ff7f0e; stroke-width: 2; stroke-linecap: square"/>
   </g>
   <g id="line2d_15">
    <path d="M 65.605695 -1 
L 65.624825 1.57075 
L 66.071225 40.579212 
L 66.517625 64.396511 
L 66.964025 80.323467 
L 67.856825 101.312625 
L 68.749625 115.14107 
L 69.642425 125.106908 
L 70.535225 132.877693 
L 71.428025 139.069614 
L 72.320825 144.09355 
L 73.213625 148.288159 
L 74.552825 153.392658 
L 75.445625 156.162673 
L 76.784825 159.71276 
L 78.124025 162.634301 
L 79.463225 165.122378 
L 81.695225 168.478211 
L 84.373625 171.723567 
L 87.498425 174.713206 
L 90.176825 176.847512 
L 93.748025 179.230762 
L 95.533625 180.296449 
L 97.319225 181.25194 
L 99.997625 182.646068 
L 108.925625 186.357538 
L 110.711225 186.968239 
L 112.050425 187.470817 
L 112.496825 187.560204 
L 113.389625 187.946572 
L 114.728825 188.349958 
L 117.407225 189.203564 
L 127.228025 191.837483 
L 127.674425 191.912396 
L 128.120825 192.110524 
L 128.567225 192.121652 
L 129.460025 192.381946 
L 131.692025 192.879617 
L 132.138425 193.03782 
L 133.031225 193.123777 
L 133.477625 193.36246 
L 134.370425 193.463429 
L 137.495225 194.129719 
L 138.834425 194.380075 
L 139.727225 194.574693 
L 144.191225 195.390429 
L 145.084025 195.591853 
L 148.655225 196.196697 
L 149.994425 196.437958 
L 161.600825 198.261792 
L 164.279225 198.645814 
L 164.725625 198.774449 
L 165.618425 198.815672 
L 166.957625 199.000277 
L 167.404025 199.03219 
L 168.296825 199.223842 
L 169.636025 199.362738 
L 170.528825 199.52027 
L 174.992825 200.121686 
L 176.332025 200.290983 
L 178.564025 200.6279 
L 179.456825 200.68192 
L 181.688825 200.976589 
L 182.581625 201.115443 
L 183.474425 201.207002 
L 184.813625 201.333506 
L 186.599225 201.579623 
L 190.170425 202.023316 
L 199.098425 202.997899 
L 199.544825 203.1753 
L 200.884025 203.270188 
L 201.330425 203.37285 
L 202.223225 203.441277 
L 203.116025 203.58204 
L 203.562425 203.527053 
L 204.008825 203.627444 
L 204.901625 203.688238 
L 205.794425 203.83627 
L 208.472825 204.071392 
L 220.972025 205.392144 
L 222.311225 205.52415 
L 225.436025 205.798513 
L 225.882425 205.911245 
L 226.775225 205.94163 
L 228.114425 206.100138 
L 228.560825 206.058096 
L 229.453625 206.208855 
L 233.024825 206.479178 
L 233.917625 206.613737 
L 236.596025 206.830899 
L 247.309625 207.806489 
L 247.756025 207.726281 
L 249.095225 207.901741 
L 251.327225 208.07473 
L 252.666425 208.233346 
L 254.898425 208.332315 
L 256.684025 208.545842 
L 257.130425 208.509865 
L 258.469625 208.641201 
L 259.808825 208.745201 
L 278.111225 210.028538 
L 278.557625 210.018501 
L 279.450425 210.125888 
L 280.343225 210.158817 
L 282.128825 210.295524 
L 283.021625 210.34538 
L 283.914425 210.442193 
L 285.700025 210.507903 
L 286.146425 210.632531 
L 286.592825 210.535826 
L 287.485625 210.666163 
L 288.824825 210.708658 
L 290.164025 210.801291 
L 291.503225 210.857542 
L 292.396025 210.970291 
L 293.288825 211.0398 
L 296.413625 211.216722 
L 301.770425 211.486641 
L 302.216825 211.591261 
L 303.109625 211.53411 
L 304.002425 211.689759 
L 309.805625 212.008864 
L 313.376825 212.224581 
L 314.269625 212.231892 
L 315.162425 212.281492 
L 316.948025 212.36693 
L 317.394425 212.481042 
L 318.733625 212.481273 
L 330.340025 213.184987 
L 330.786425 213.105333 
L 331.679225 213.171687 
L 339.714425 213.613405 
L 340.607225 213.6751 
L 341.500025 213.703758 
L 344.178425 213.848254 
L 344.624825 213.824925 
L 345.071225 213.9203 
L 345.964025 213.894509 
L 353.552825 214.301167 
L 354.445625 214.378186 
L 356.231225 214.422482 
L 357.124025 214.495503 
L 400.871225 216.35282 
L 401.317625 216.335711 
L 402.210425 216.431244 
L 404.442425 216.504025 
L 404.888825 216.604597 
L 406.228025 216.585323 
L 407.120825 216.673124 
L 410.245625 216.76436 
L 411.138425 216.782295 
L 412.477625 216.802362 
L 414.709625 216.912228 
L 415.156025 216.845353 
L 416.048825 216.972749 
L 416.941625 216.969602 
L 418.727225 217.057732 
L 419.620025 217.101219 
L 437.476025 217.744965 
L 437.922425 217.833872 
L 438.368825 217.734267 
L 440.600825 217.807312 
L 445.511225 218.019237 
L 446.404025 218.054835 
L 450.421625 218.139578 
L 450.868025 218.200381 
L 451.314425 218.122114 
L 452.207225 218.257432 
L 469.616825 218.77351 
L 470.956025 218.817881 
L 471.402425 218.75137 
L 471.848825 218.86568 
L 474.527225 218.846043 
L 475.866425 218.950002 
L 480.330425 219.059166 
L 481.223225 219.090748 
L 484.348025 219.185546 
L 493.276025 219.418032 
L 494.168825 219.453754 
L 494.615225 219.425112 
L 495.061625 219.562612 
L 496.847225 219.525288 
L 497.293625 219.604884 
L 497.740025 219.499926 
L 498.632825 219.578969 
L 500.418425 219.658078 
L 502.204025 219.689884 
L 510.239225 219.883477 
L 510.239225 219.883477 
" clip-path="url(#p88b213785a)" style="fill: none; stroke: #2ca02c; stroke-width: 2; stroke-linecap: square"/>
   </g>
   <g id="line2d_16">
    <path d="M 64.638584 -1 
L 64.732025 38.614434 
L 65.178425 87.452258 
L 65.624825 109.511605 
L 66.071225 122.997128 
L 66.964025 139.574175 
L 67.856825 149.885893 
L 68.749625 156.961118 
L 69.642425 162.024162 
L 70.535225 166.030086 
L 71.428025 169.187311 
L 72.767225 173.009638 
L 74.106425 176.13253 
L 76.784825 180.55044 
L 78.124025 182.247043 
L 80.356025 184.659984 
L 82.588025 186.678461 
L 84.373625 188.045673 
L 87.498425 190.168274 
L 88.391225 190.654627 
L 88.837625 190.996096 
L 89.730425 191.448529 
L 90.623225 191.978428 
L 98.658425 195.928514 
L 99.997625 196.381525 
L 102.229625 197.328251 
L 106.693625 198.978451 
L 107.140025 199.22176 
L 108.032825 199.451438 
L 108.925625 199.815427 
L 109.372025 199.864391 
L 111.157625 200.487038 
L 112.943225 201.065578 
L 115.621625 201.881719 
L 122.317625 203.747231 
L 123.656825 204.052962 
L 125.888825 204.575334 
L 128.120825 205.1834 
L 128.567225 205.176659 
L 129.460025 205.537285 
L 130.352825 205.650629 
L 130.799225 205.778322 
L 131.245625 205.779058 
L 133.477625 206.377309 
L 133.924025 206.496494 
L 134.370425 206.486811 
L 135.263225 206.700074 
L 136.156025 206.902135 
L 137.495225 207.116117 
L 140.173625 207.676788 
L 141.512825 207.949383 
L 144.191225 208.462454 
L 148.208825 209.124457 
L 148.655225 209.309557 
L 149.548025 209.326815 
L 150.440825 209.541392 
L 150.887225 209.513138 
L 151.780025 209.763296 
L 152.672825 209.863983 
L 153.119225 210.054644 
L 154.012025 210.043912 
L 154.458425 210.241074 
L 155.797625 210.418434 
L 159.368825 210.946598 
L 159.815225 210.902202 
L 160.708025 211.078207 
L 162.047225 211.262275 
L 162.493625 211.43082 
L 163.832825 211.547741 
L 164.725625 211.661274 
L 165.172025 211.665364 
L 166.064825 211.896818 
L 167.850425 212.093426 
L 169.636025 212.367797 
L 170.082425 212.489237 
L 171.421625 212.513037 
L 171.868025 212.728853 
L 173.207225 212.7903 
L 173.653625 212.961769 
L 174.546425 213.001308 
L 180.796025 213.817275 
L 181.242425 213.763164 
L 187.938425 214.594448 
L 188.831225 214.669996 
L 189.277625 214.692574 
L 190.170425 214.886002 
L 192.402425 215.006946 
L 192.848825 215.179465 
L 193.741625 215.226645 
L 194.188025 215.16661 
L 195.527225 215.379923 
L 197.759225 215.579877 
L 199.098425 215.763152 
L 199.544825 215.705191 
L 201.776825 216.108214 
L 202.223225 216.041943 
L 202.669625 216.192718 
L 203.116025 216.082489 
L 203.562425 216.267498 
L 204.008825 216.120267 
L 204.455225 216.289209 
L 205.348025 216.346153 
L 205.794425 216.469667 
L 206.687225 216.41435 
L 207.580025 216.613197 
L 208.472825 216.577451 
L 208.919225 216.712777 
L 211.151225 216.884272 
L 213.383225 217.148151 
L 213.829625 217.086456 
L 216.061625 217.325783 
L 216.954425 217.280958 
L 217.400825 217.451065 
L 217.847225 217.338506 
L 218.293625 217.482945 
L 218.740025 217.452452 
L 220.079225 217.661932 
L 221.418425 217.721338 
L 222.311225 217.837962 
L 223.650425 217.897219 
L 224.989625 218.064855 
L 225.882425 218.117554 
L 226.775225 218.085095 
L 227.668025 218.291634 
L 230.346425 218.455553 
L 237.042425 218.958495 
L 237.488825 219.08675 
L 238.381625 218.97866 
L 238.828025 219.10509 
L 239.720825 219.112327 
L 240.167225 219.231684 
L 240.613625 219.156441 
L 244.631225 219.550683 
L 245.077625 219.482288 
L 246.416825 219.577556 
L 249.988025 219.80122 
L 250.434425 219.957266 
L 251.773625 219.946336 
L 252.666425 220.064207 
L 253.112825 219.965164 
L 254.005625 220.135097 
L 254.898425 220.180773 
L 255.344825 220.357116 
L 255.791225 220.263608 
L 256.684025 220.326773 
L 257.130425 220.274752 
L 258.023225 220.407361 
L 260.255225 220.66041 
L 260.701625 220.570718 
L 261.594425 220.644565 
L 263.380025 220.803684 
L 263.826425 220.76218 
L 264.272825 220.892822 
L 264.719225 220.762568 
L 265.612025 221.001879 
L 267.844025 220.950535 
L 268.290425 221.032106 
L 268.736825 220.966769 
L 269.183225 221.203411 
L 270.968825 221.195273 
L 271.861625 221.27202 
L 272.308025 221.441573 
L 272.754425 221.306461 
L 273.200825 221.296622 
L 273.647225 221.409082 
L 274.093625 221.332856 
L 274.986425 221.375938 
L 275.432825 221.387611 
L 275.879225 221.514957 
L 276.772025 221.516527 
L 277.664825 221.653242 
L 278.111225 221.494585 
L 278.557625 221.693036 
L 279.450425 221.744949 
L 280.789625 221.774111 
L 281.236025 221.737159 
L 282.128825 221.820258 
L 282.575225 221.873213 
L 283.021625 221.785735 
L 283.914425 222.069383 
L 284.360825 221.900334 
L 284.807225 222.044517 
L 285.700025 222.009415 
L 288.824825 222.227726 
L 290.164025 222.248494 
L 291.056825 222.420228 
L 291.503225 222.30505 
L 293.288825 222.39784 
L 294.628025 222.56698 
L 295.967225 222.485731 
L 296.413625 222.429514 
L 296.860025 222.648229 
L 298.645625 222.758657 
L 301.324025 222.841087 
L 301.770425 222.967483 
L 303.556025 222.918627 
L 304.002425 223.023536 
L 304.448825 222.956215 
L 304.895225 223.14234 
L 305.788025 223.014985 
L 306.234425 223.162473 
L 307.127225 223.081463 
L 307.573625 223.212089 
L 308.466425 223.131435 
L 308.912825 223.267745 
L 309.359225 223.171899 
L 309.805625 223.298989 
L 311.144825 223.300261 
L 315.608825 223.512706 
L 316.055225 223.665753 
L 316.501625 223.54205 
L 318.287225 223.679707 
L 319.626425 223.758502 
L 320.072825 223.649784 
L 320.965625 223.731306 
L 322.304825 223.737485 
L 323.644025 223.972285 
L 324.090425 223.873407 
L 335.696825 224.457466 
L 336.143225 224.300503 
L 337.036025 224.385139 
L 339.714425 224.629596 
L 340.607225 224.63295 
L 341.053625 224.689383 
L 341.500025 224.541259 
L 341.946425 224.683278 
L 346.856825 224.775828 
L 347.749625 224.921787 
L 348.642425 224.943142 
L 355.338425 225.168466 
L 356.231225 225.147103 
L 356.677625 225.32015 
L 357.570425 225.254449 
L 358.016825 225.296647 
L 358.463225 225.214812 
L 360.248825 225.39997 
L 360.695225 225.340118 
L 361.141625 225.492388 
L 362.034425 225.288262 
L 362.480825 225.441036 
L 362.927225 225.402168 
L 363.373625 225.589895 
L 363.820025 225.384216 
L 364.266425 225.560874 
L 364.712825 225.522657 
L 365.605625 225.676786 
L 366.498425 225.466084 
L 366.944825 225.654225 
L 368.284025 225.619693 
L 369.176825 225.6972 
L 370.069625 225.71573 
L 371.408825 225.783876 
L 372.748025 225.842085 
L 373.194425 225.92036 
L 373.640825 225.817144 
L 374.087225 225.890322 
L 374.533625 225.840011 
L 375.426425 225.948762 
L 375.872825 225.882647 
L 376.319225 225.986689 
L 377.658425 225.987532 
L 381.676025 226.042865 
L 382.122425 226.155969 
L 383.015225 226.094522 
L 387.032825 226.289206 
L 387.479225 226.155969 
L 387.925625 226.347654 
L 394.175225 226.600571 
L 394.621625 226.487566 
L 395.960825 226.619216 
L 396.407225 226.525543 
L 397.746425 226.67569 
L 398.192825 226.623677 
L 398.639225 226.742151 
L 399.085625 226.607618 
L 399.532025 226.849357 
L 399.978425 226.854355 
L 400.424825 226.686182 
L 400.871225 226.826432 
L 402.656825 226.839708 
L 403.996025 226.954679 
L 404.888825 226.885946 
L 405.335225 226.839691 
L 406.228025 226.993275 
L 408.460025 226.923427 
L 408.906425 227.058101 
L 415.156025 227.201292 
L 416.048825 227.280873 
L 417.388025 227.296751 
L 418.280825 227.346177 
L 418.727225 227.424163 
L 419.173625 227.3369 
L 420.512825 227.411168 
L 420.959225 227.205051 
L 421.405625 227.401445 
L 430.333625 227.685283 
L 430.780025 227.564513 
L 431.226425 227.71167 
L 433.012025 227.692016 
L 434.351225 227.870632 
L 435.244025 227.861809 
L 435.690425 227.921463 
L 436.136825 227.76887 
L 437.476025 227.952451 
L 439.261625 227.873978 
L 440.154425 227.96034 
L 441.493625 227.900628 
L 443.725625 228.090999 
L 445.511225 228.082267 
L 445.957625 228.011436 
L 448.189625 228.254026 
L 448.636025 228.061342 
L 449.528825 228.22132 
L 452.207225 228.238437 
L 452.653625 228.388857 
L 453.100025 228.402662 
L 453.546425 228.192852 
L 458.010425 228.384685 
L 459.349625 228.317885 
L 460.242425 228.51052 
L 460.688825 228.410105 
L 462.920825 228.649374 
L 463.367225 228.497508 
L 463.813625 228.559715 
L 464.260025 228.472907 
L 464.706425 228.656016 
L 465.152825 228.571958 
L 465.599225 228.683567 
L 466.492025 228.606465 
L 466.938425 228.754357 
L 468.724025 228.579823 
L 469.170425 228.788873 
L 472.741625 228.762833 
L 473.188025 228.876351 
L 473.634425 228.752862 
L 475.420025 229.028919 
L 476.312825 228.888049 
L 477.205625 228.928322 
L 478.098425 228.908454 
L 478.991225 229.059749 
L 479.437625 228.910676 
L 492.829625 229.25934 
L 493.276025 229.402697 
L 493.722425 229.192094 
L 495.508025 229.252797 
L 495.954425 229.378764 
L 496.400825 229.272013 
L 497.740025 229.419236 
L 500.864825 229.352262 
L 501.311225 229.503872 
L 506.221625 229.491653 
L 506.668025 229.722207 
L 507.114425 229.725801 
L 507.560825 229.600354 
L 508.453625 229.583378 
L 508.900025 229.588954 
L 509.346425 229.722818 
L 509.792825 229.658084 
L 510.239225 229.728816 
L 510.239225 229.728816 
" clip-path="url(#p88b213785a)" style="fill: none; stroke: #d62728; stroke-width: 2; stroke-linecap: square"/>
   </g>
   <g id="line2d_17">
    <path d="M 64.454067 -1 
L 64.732025 94.304778 
L 65.178425 122.537244 
L 65.624825 138.353037 
L 66.071225 148.675312 
L 66.517625 155.671577 
L 67.410425 164.879449 
L 68.303225 170.636335 
L 69.196025 174.678368 
L 70.088825 177.645784 
L 70.981625 180.096743 
L 71.874425 182.166695 
L 73.660025 185.337799 
L 74.552825 186.577211 
L 75.445625 187.684229 
L 76.338425 188.696003 
L 79.463225 191.677745 
L 83.480825 194.591835 
L 85.266425 195.815393 
L 85.712825 196.033431 
L 86.605625 196.651576 
L 88.837625 197.951253 
L 89.284025 198.460573 
L 90.176825 198.614743 
L 90.623225 199.001426 
L 91.962425 199.526301 
L 93.301625 200.239293 
L 94.640825 200.79889 
L 95.533625 201.311176 
L 96.426425 201.693901 
L 97.765625 202.185054 
L 98.212025 202.438888 
L 99.551225 202.857615 
L 99.997625 203.112581 
L 100.890425 203.403738 
L 101.783225 203.697639 
L 102.676025 204.067972 
L 103.568825 204.466129 
L 104.015225 204.353744 
L 104.461625 204.630354 
L 104.908025 204.666488 
L 107.140025 205.431079 
L 107.586425 205.519714 
L 108.032825 205.721642 
L 108.925625 205.863975 
L 109.818425 206.163228 
L 111.157625 206.51575 
L 111.604025 206.575793 
L 112.050425 206.863944 
L 112.943225 207.061238 
L 115.175225 207.509433 
L 115.621625 207.771288 
L 116.514425 207.84782 
L 116.960825 208.029087 
L 117.407225 208.061108 
L 118.300025 208.289728 
L 119.639225 208.624951 
L 120.085625 208.64073 
L 120.978425 208.852118 
L 126.781625 210.012718 
L 127.674425 210.160527 
L 128.120825 210.313517 
L 128.567225 210.337565 
L 129.013625 210.540915 
L 129.906425 210.599577 
L 131.692025 210.97438 
L 132.138425 210.941443 
L 134.370425 211.352644 
L 134.816825 211.35917 
L 135.263225 211.533308 
L 136.156025 211.587832 
L 136.602425 211.774692 
L 138.834425 212.0325 
L 141.959225 212.521373 
L 142.405625 212.47915 
L 144.637625 212.854316 
L 145.084025 212.795984 
L 145.530425 213.046678 
L 145.976825 213.041911 
L 146.423225 213.220783 
L 146.869625 213.122103 
L 150.440825 213.618064 
L 151.333625 213.574189 
L 152.226425 213.817118 
L 153.119225 213.969901 
L 153.565625 213.923109 
L 154.012025 214.163519 
L 156.244025 214.261728 
L 157.136825 214.438964 
L 157.583225 214.219249 
L 158.029625 214.457477 
L 160.708025 214.623907 
L 161.154425 214.878179 
L 161.600825 214.786289 
L 162.493625 215.018124 
L 162.940025 215.13074 
L 163.386425 215.029028 
L 164.279225 215.276088 
L 164.725625 215.149221 
L 165.172025 215.39633 
L 165.618425 215.23061 
L 166.064825 215.372678 
L 166.511225 215.379981 
L 167.404025 215.584214 
L 168.296825 215.546518 
L 168.743225 215.67408 
L 169.636025 215.635492 
L 170.528825 215.782235 
L 171.868025 215.992863 
L 175.439225 216.254181 
L 176.332025 216.247002 
L 177.224825 216.481265 
L 178.117625 216.395151 
L 178.564025 216.556508 
L 179.010425 216.475449 
L 179.456825 216.659079 
L 180.796025 216.717701 
L 181.688825 216.847369 
L 183.028025 216.977764 
L 183.474425 216.920902 
L 183.920825 217.033039 
L 184.813625 216.985777 
L 186.599225 217.238925 
L 187.492025 217.248467 
L 188.831225 217.478087 
L 189.277625 217.433154 
L 189.724025 217.520203 
L 190.170425 217.492304 
L 191.063225 217.660486 
L 192.402425 217.613819 
L 193.741625 217.803851 
L 194.188025 217.775036 
L 194.634425 217.996874 
L 195.527225 217.966101 
L 195.973625 218.041823 
L 196.420025 217.944804 
L 196.866425 218.047342 
L 197.312825 218.027267 
L 197.759225 218.167749 
L 199.098425 218.102378 
L 199.991225 218.267461 
L 201.776825 218.556868 
L 202.223225 218.435808 
L 203.562425 218.635862 
L 204.008825 218.542171 
L 204.901625 218.754996 
L 205.348025 218.700051 
L 205.794425 218.862574 
L 206.240825 218.805572 
L 206.687225 218.959461 
L 208.026425 219.057712 
L 208.919225 218.933959 
L 209.365625 219.12248 
L 209.812025 219.040479 
L 210.704825 219.37058 
L 211.151225 219.351604 
L 211.597625 219.460239 
L 212.936825 219.415513 
L 213.383225 219.699384 
L 213.829625 219.629197 
L 214.276025 219.708529 
L 214.722425 219.566792 
L 215.615225 219.58547 
L 216.061625 219.715064 
L 216.508025 219.69779 
L 216.954425 219.816627 
L 217.400825 219.781063 
L 217.847225 219.916538 
L 218.293625 219.816908 
L 219.186425 220.063522 
L 219.632825 219.986147 
L 220.079225 220.140714 
L 220.525625 220.046941 
L 220.972025 220.186068 
L 221.418425 220.130776 
L 224.096825 220.525653 
L 224.989625 220.428997 
L 225.436025 220.657469 
L 226.328825 220.568777 
L 227.221625 220.619765 
L 228.114425 220.765914 
L 229.007225 220.72764 
L 229.453625 220.779644 
L 229.900025 220.977128 
L 230.346425 220.787988 
L 230.792825 221.000449 
L 231.239225 220.909543 
L 232.132025 221.018888 
L 232.578425 221.2151 
L 233.024825 221.035105 
L 233.471225 221.041384 
L 233.917625 221.237075 
L 234.364025 221.19448 
L 235.256825 221.280042 
L 235.703225 221.287799 
L 236.149625 221.422019 
L 237.488825 221.409255 
L 238.828025 221.562476 
L 239.274425 221.493965 
L 240.613625 221.731244 
L 241.060025 221.602485 
L 241.506425 221.821861 
L 241.952825 221.668302 
L 242.399225 221.63947 
L 242.845625 221.877888 
L 243.292025 221.859325 
L 243.738425 221.981922 
L 244.184825 221.857929 
L 244.631225 221.975924 
L 245.077625 221.912751 
L 245.524025 222.118405 
L 246.863225 222.159695 
L 248.202425 222.134713 
L 248.648825 222.313873 
L 249.095225 222.319772 
L 249.541625 222.210708 
L 250.434425 222.391306 
L 250.880825 222.282035 
L 252.220025 222.540313 
L 252.666425 222.512489 
L 253.112825 222.604503 
L 254.005625 222.499081 
L 254.452025 222.697821 
L 254.898425 222.598208 
L 255.344825 222.677267 
L 255.791225 222.616118 
L 257.130425 222.771602 
L 257.576825 222.69355 
L 259.362425 223.122282 
L 259.808825 222.919337 
L 260.701625 222.909614 
L 261.594425 223.120117 
L 266.058425 223.347441 
L 266.504825 223.439099 
L 266.951225 223.413464 
L 267.844025 223.541893 
L 268.290425 223.344004 
L 268.736825 223.512847 
L 271.415225 223.752347 
L 271.861625 223.627818 
L 272.308025 223.77286 
L 272.754425 223.670016 
L 273.200825 223.813555 
L 274.093625 223.754388 
L 274.540025 223.769927 
L 275.432825 223.964801 
L 277.218425 223.922652 
L 278.111225 224.108818 
L 279.450425 224.156956 
L 279.896825 224.23728 
L 280.343225 224.04339 
L 282.575225 224.271465 
L 283.021625 224.306195 
L 283.468025 224.207102 
L 283.914425 224.380281 
L 284.807225 224.421959 
L 285.700025 224.46039 
L 287.039225 224.499788 
L 287.485625 224.682807 
L 287.932025 224.590256 
L 288.378425 224.682088 
L 289.717625 224.54349 
L 290.164025 224.70897 
L 291.056825 224.733423 
L 292.396025 224.891452 
L 294.181625 224.912352 
L 294.628025 224.978467 
L 295.520825 224.920605 
L 297.306425 225.273251 
L 297.752825 225.113471 
L 298.199225 225.253226 
L 300.431225 225.248608 
L 301.324025 225.388239 
L 301.770425 225.302174 
L 303.556025 225.491149 
L 304.002425 225.625757 
L 305.341625 225.424035 
L 305.788025 225.559758 
L 306.234425 225.494528 
L 306.680825 225.648029 
L 307.127225 225.457551 
L 307.573625 225.659677 
L 308.912825 225.678207 
L 309.359225 225.63211 
L 310.698425 225.808908 
L 314.269625 225.91575 
L 314.716025 226.005219 
L 315.608825 225.976338 
L 316.055225 226.123932 
L 321.412025 226.226859 
L 321.858425 226.401624 
L 322.751225 226.289074 
L 323.197625 226.458346 
L 323.644025 226.363904 
L 324.536825 226.464542 
L 324.983225 226.348596 
L 325.876025 226.508764 
L 326.322425 226.363656 
L 330.340025 226.718309 
L 330.786425 226.570492 
L 331.232825 226.596861 
L 331.679225 226.809992 
L 332.125625 226.705827 
L 333.018425 226.777815 
L 333.464825 226.674228 
L 335.696825 226.997943 
L 336.143225 226.84863 
L 337.482425 227.049666 
L 337.928825 226.949103 
L 338.375225 227.063991 
L 338.821625 226.93548 
L 339.268025 227.158475 
L 339.714425 227.175542 
L 340.160825 227.03088 
L 342.392825 227.133047 
L 343.285625 227.043223 
L 343.732025 227.327639 
L 344.178425 227.304971 
L 344.624825 227.423461 
L 345.071225 227.24582 
L 346.410425 227.409351 
L 348.642425 227.277395 
L 349.535225 227.526082 
L 349.981625 227.428286 
L 351.320825 227.625109 
L 351.767225 227.43154 
L 353.999225 227.631346 
L 354.892025 227.569593 
L 356.231225 227.715974 
L 356.677625 227.649141 
L 358.463225 227.808078 
L 359.802425 227.818875 
L 360.248825 227.955995 
L 361.141625 227.759221 
L 361.588025 227.824419 
L 362.034425 228.10872 
L 362.480825 227.97184 
L 362.927225 228.049305 
L 364.712825 227.929187 
L 365.605625 228.019903 
L 366.052025 227.909815 
L 366.944825 228.182038 
L 367.391225 228.110744 
L 367.837625 228.305559 
L 368.284025 228.06396 
L 370.069625 228.298686 
L 370.516025 228.157188 
L 371.408825 228.221212 
L 372.748025 228.370104 
L 373.194425 228.207201 
L 373.640825 228.340017 
L 374.533625 228.389708 
L 374.980025 228.460193 
L 375.426425 228.299314 
L 376.319225 228.526513 
L 376.765625 228.443819 
L 377.658425 228.441126 
L 378.104825 228.381959 
L 378.551225 228.646012 
L 378.997625 228.439672 
L 380.783225 228.60687 
L 381.676025 228.604772 
L 382.122425 228.411443 
L 382.568825 228.645871 
L 387.032825 228.718611 
L 387.925625 228.864149 
L 388.372025 228.70042 
L 391.050425 228.968637 
L 391.496825 228.865702 
L 393.282425 229.059708 
L 393.728825 228.85678 
L 394.621625 229.0874 
L 396.853625 229.139164 
L 397.300025 229.196638 
L 397.746425 228.996469 
L 399.085625 229.146632 
L 399.532025 229.203395 
L 399.978425 229.118016 
L 402.656825 229.373551 
L 405.781625 229.368619 
L 406.228025 229.41679 
L 406.674425 229.343984 
L 407.120825 229.479749 
L 408.013625 229.452875 
L 408.460025 229.516999 
L 408.906425 229.382548 
L 409.352825 229.401796 
L 409.799225 229.581899 
L 410.692025 229.348065 
L 411.584825 229.647261 
L 412.031225 229.465845 
L 412.477625 229.541741 
L 413.370425 229.572299 
L 415.156025 229.787727 
L 417.388025 229.664362 
L 417.834425 229.825844 
L 421.852025 229.790783 
L 422.298425 229.922013 
L 422.744825 229.759779 
L 425.423225 229.956949 
L 425.869625 230.03021 
L 426.762425 229.927126 
L 427.208825 229.898922 
L 427.655225 230.15084 
L 428.101625 230.107485 
L 428.548025 229.934041 
L 429.887225 230.068732 
L 432.119225 229.970316 
L 432.565625 230.197738 
L 433.012025 229.984219 
L 433.458425 230.10461 
L 434.351225 230.113995 
L 435.244025 230.152004 
L 435.690425 230.257674 
L 436.136825 230.200556 
L 437.029625 230.36977 
L 437.476025 230.186123 
L 438.368825 230.414223 
L 438.815225 230.28121 
L 441.047225 230.513556 
L 441.493625 230.394785 
L 444.172025 230.357808 
L 444.618425 230.581595 
L 445.511225 230.438371 
L 445.957625 230.526972 
L 446.850425 230.498364 
L 447.743225 230.549583 
L 448.189625 230.451308 
L 448.636025 230.682597 
L 449.082425 230.486938 
L 452.207225 230.688801 
L 452.653625 230.621513 
L 453.100025 230.718921 
L 453.546425 230.535845 
L 453.992825 230.665405 
L 454.439225 230.637747 
L 454.885625 230.876413 
L 455.332025 230.576787 
L 455.778425 230.810348 
L 456.224825 230.642092 
L 456.671225 230.655987 
L 457.117625 230.811819 
L 457.564025 230.730925 
L 458.010425 230.852389 
L 458.456825 230.746844 
L 458.903225 230.93463 
L 459.349625 230.776089 
L 459.796025 230.913704 
L 460.688825 230.968657 
L 461.135225 230.800393 
L 462.028025 230.862071 
L 463.367225 230.765308 
L 464.260025 230.975382 
L 468.277625 231.028774 
L 468.724025 230.99587 
L 469.170425 231.192792 
L 469.616825 231.038341 
L 470.509625 231.077152 
L 470.956025 230.983495 
L 471.848825 231.050972 
L 472.295225 231.206621 
L 473.188025 231.110461 
L 474.973625 231.238361 
L 475.866425 231.162928 
L 476.312825 231.15299 
L 477.205625 231.336512 
L 477.652025 231.142663 
L 478.544825 231.392978 
L 478.991225 231.277593 
L 479.437625 231.374506 
L 479.884025 231.231479 
L 480.330425 231.372597 
L 480.776825 231.302493 
L 481.223225 231.507197 
L 481.669625 231.237328 
L 482.116025 231.335918 
L 482.562425 231.232892 
L 483.455225 231.386212 
L 483.901625 231.360561 
L 484.348025 231.453483 
L 485.240825 231.327789 
L 485.687225 231.524653 
L 486.133625 231.350391 
L 486.580025 231.453921 
L 487.472825 231.385402 
L 488.365625 231.466139 
L 490.151225 231.593551 
L 490.597625 231.669373 
L 491.490425 231.502637 
L 493.276025 231.71186 
L 494.168825 231.502463 
L 494.615225 231.661624 
L 495.508025 231.673256 
L 497.293625 231.64758 
L 497.740025 231.765087 
L 499.079225 231.649959 
L 499.972025 231.905478 
L 500.864825 231.883544 
L 501.311225 231.757759 
L 502.204025 231.75942 
L 502.650425 231.695321 
L 503.989625 231.832457 
L 505.328825 231.839099 
L 505.775225 231.927288 
L 506.221625 231.808591 
L 506.668025 231.954483 
L 507.560825 231.91592 
L 508.007225 231.930204 
L 508.453625 232.092404 
L 508.900025 231.893557 
L 509.346425 232.016988 
L 509.792825 231.973889 
L 510.239225 232.118303 
L 510.239225 232.118303 
" clip-path="url(#p88b213785a)" style="fill: none; stroke: #9467bd; stroke-width: 2; stroke-linecap: square"/>
   </g>
   <g id="line2d_18">
    <path d="M 64.285625 14.211251 
L 64.732025 137.1394 
L 65.178425 156.542225 
L 65.624825 165.520692 
L 66.071225 171.16273 
L 66.517625 175.301998 
L 67.410425 180.82054 
L 68.303225 184.556496 
L 69.196025 187.32566 
L 70.088825 189.830647 
L 72.320825 193.993129 
L 72.767225 194.555295 
L 73.660025 195.871074 
L 74.106425 196.516084 
L 74.552825 196.86683 
L 75.445625 197.99783 
L 77.677625 200.171708 
L 78.570425 200.812959 
L 79.016825 201.37876 
L 79.463225 201.5871 
L 80.356025 202.322116 
L 81.248825 202.947282 
L 82.141625 203.451703 
L 82.588025 203.98983 
L 83.034425 204.158746 
L 84.820025 205.326575 
L 85.266425 205.563291 
L 85.712825 206.081112 
L 86.159225 206.105218 
L 86.605625 206.35179 
L 87.052025 206.880631 
L 87.498425 206.935593 
L 88.391225 207.358972 
L 89.284025 207.915372 
L 91.069625 208.68558 
L 92.408825 209.341016 
L 92.855225 209.533337 
L 93.748025 210.079105 
L 94.194425 210.19187 
L 94.640825 210.542369 
L 95.087225 210.5454 
L 95.980025 211.107708 
L 97.319225 211.670163 
L 97.765625 211.74064 
L 98.658425 212.244714 
L 101.336825 213.221188 
L 101.783225 213.48548 
L 102.229625 213.583599 
L 102.676025 213.830832 
L 103.568825 213.933898 
L 104.461625 214.40026 
L 105.354425 214.786248 
L 105.800825 214.756681 
L 108.479225 215.685612 
L 109.372025 215.924287 
L 110.711225 216.432475 
L 111.157625 216.458307 
L 111.604025 216.707746 
L 112.943225 216.836258 
L 113.389625 217.077427 
L 122.764025 219.330918 
L 123.210425 219.549666 
L 124.103225 219.43505 
L 124.549625 219.726927 
L 124.996025 219.714354 
L 125.442425 219.881288 
L 126.781625 220.011773 
L 127.228025 220.174635 
L 127.674425 220.185878 
L 128.120825 220.412706 
L 129.906425 220.58078 
L 130.352825 220.766905 
L 131.692025 220.849005 
L 132.138425 221.095569 
L 132.584825 221.050537 
L 134.816825 221.610234 
L 135.263225 221.68798 
L 135.709625 221.59096 
L 136.156025 221.673671 
L 136.602425 221.889975 
L 138.388025 222.127889 
L 139.280825 222.416684 
L 139.727225 222.306422 
L 140.173625 222.35318 
L 141.066425 222.647345 
L 141.512825 222.509259 
L 141.959225 222.678077 
L 142.405625 222.710783 
L 142.852025 222.89343 
L 143.744825 222.912571 
L 145.530425 223.248265 
L 145.976825 223.22919 
L 146.423225 223.339758 
L 146.869625 223.305342 
L 147.316025 223.485593 
L 148.208825 223.611576 
L 148.655225 223.536077 
L 149.548025 223.825054 
L 149.994425 223.737147 
L 151.333625 224.145721 
L 151.780025 224.052716 
L 152.672825 224.35373 
L 153.565625 224.343726 
L 154.012025 224.411674 
L 154.458425 224.359744 
L 156.690425 224.63647 
L 157.136825 224.615073 
L 157.583225 224.935847 
L 158.029625 224.866899 
L 159.368825 225.225857 
L 159.815225 225.052975 
L 160.261625 225.002284 
L 161.154425 225.379044 
L 162.493625 225.413006 
L 162.940025 225.566921 
L 163.386425 225.472148 
L 163.832825 225.735813 
L 164.279225 225.531687 
L 165.618425 225.944334 
L 166.064825 225.761943 
L 166.511225 225.950381 
L 167.404025 225.886018 
L 167.850425 225.958783 
L 168.296825 226.16257 
L 168.743225 226.158819 
L 169.189625 226.326249 
L 169.636025 226.228007 
L 171.421625 226.276062 
L 171.868025 226.580504 
L 172.314425 226.446987 
L 172.760825 226.614086 
L 173.207225 226.551574 
L 173.653625 226.623355 
L 174.100025 226.547633 
L 174.546425 226.841211 
L 174.992825 226.659308 
L 175.439225 226.95548 
L 175.885625 226.840336 
L 178.117625 227.055284 
L 179.010425 227.002065 
L 179.456825 227.28801 
L 179.903225 227.158475 
L 180.349625 227.396827 
L 180.796025 227.356727 
L 181.242425 227.496721 
L 181.688825 227.400396 
L 182.135225 227.580333 
L 183.028025 227.509708 
L 184.367225 227.662648 
L 187.938425 228.025562 
L 188.384825 227.953508 
L 190.170425 228.255496 
L 190.616825 228.140129 
L 191.063225 228.292754 
L 191.509625 228.184401 
L 191.956025 228.249937 
L 192.402425 228.501936 
L 192.848825 228.315002 
L 193.741625 228.567555 
L 195.527225 228.688408 
L 195.973625 228.551314 
L 198.652025 228.946753 
L 200.437625 228.990785 
L 202.223225 229.156447 
L 203.116025 229.21563 
L 203.562425 229.329949 
L 204.008825 229.225543 
L 204.455225 229.373279 
L 204.901625 229.23036 
L 206.240825 229.50773 
L 206.687225 229.444821 
L 207.580025 229.655233 
L 208.026425 229.46041 
L 208.919225 229.785306 
L 209.365625 229.641768 
L 210.258425 229.866968 
L 210.704825 229.622403 
L 211.597625 229.871355 
L 212.044025 229.817508 
L 212.490425 230.031597 
L 212.936825 229.770072 
L 213.383225 230.049334 
L 213.829625 230.051928 
L 214.276025 230.252213 
L 214.722425 230.100298 
L 215.168825 230.1201 
L 215.615225 230.368547 
L 216.061625 230.099075 
L 216.954425 230.377106 
L 217.400825 230.439189 
L 217.847225 230.225314 
L 218.293625 230.408308 
L 219.632825 230.476678 
L 220.079225 230.366358 
L 221.418425 230.585726 
L 221.864825 230.543652 
L 222.311225 230.822013 
L 223.204025 230.52361 
L 223.650425 230.730355 
L 224.096825 230.671337 
L 224.543225 230.80763 
L 224.989625 230.789001 
L 225.436025 230.925608 
L 226.328825 230.792355 
L 226.775225 230.96223 
L 227.221625 230.776973 
L 227.668025 231.03673 
L 228.560825 231.097251 
L 229.007225 230.960479 
L 230.346425 231.082183 
L 231.239225 231.315471 
L 231.685625 231.196625 
L 232.132025 231.227588 
L 232.578425 231.127826 
L 233.471225 231.514558 
L 233.917625 231.362428 
L 235.256825 231.518614 
L 237.488825 231.507957 
L 237.935225 231.359941 
L 238.381625 231.572188 
L 239.274425 231.539201 
L 239.720825 231.909006 
L 240.167225 231.698031 
L 241.060025 231.803254 
L 241.506425 231.614981 
L 242.399225 231.931716 
L 244.631225 231.910278 
L 245.077625 232.061284 
L 245.970425 232.049876 
L 246.416825 232.152868 
L 246.863225 231.985992 
L 247.756025 232.198734 
L 248.202425 232.355449 
L 249.095225 232.096915 
L 249.988025 232.381918 
L 250.880825 232.324701 
L 252.666425 232.411658 
L 253.559225 232.666897 
L 254.005625 232.532206 
L 254.452025 232.58079 
L 254.898425 232.44838 
L 255.344825 232.617049 
L 256.237625 232.515105 
L 256.684025 232.704179 
L 257.130425 232.495105 
L 258.023225 232.663262 
L 258.469625 232.824677 
L 259.808825 232.713886 
L 260.255225 232.823141 
L 261.148025 232.782463 
L 261.594425 233.016792 
L 262.040825 232.914121 
L 263.380025 233.053157 
L 264.719225 232.809832 
L 265.612025 233.057544 
L 266.058425 233.191004 
L 266.504825 233.059304 
L 266.951225 233.314534 
L 267.397625 233.36235 
L 267.844025 233.178116 
L 268.736825 233.084467 
L 269.183225 233.35997 
L 269.629625 233.291386 
L 270.076025 233.384894 
L 270.522425 233.286338 
L 271.861625 233.487845 
L 272.308025 233.361879 
L 272.754425 233.513521 
L 273.200825 233.412437 
L 273.647225 233.547673 
L 274.540025 233.465284 
L 274.986425 233.514463 
L 275.432825 233.415056 
L 275.879225 233.431529 
L 276.325625 233.581775 
L 276.772025 233.918667 
L 277.664825 233.568417 
L 279.004025 233.73954 
L 279.450425 233.63235 
L 279.896825 233.808802 
L 285.700025 234.007756 
L 286.146425 234.115854 
L 286.592825 233.888208 
L 287.039225 234.077712 
L 287.485625 234.004567 
L 287.932025 234.121273 
L 288.378425 234.020247 
L 288.824825 234.036447 
L 289.271225 234.329786 
L 289.717625 234.17621 
L 290.164025 234.321533 
L 291.056825 234.374727 
L 291.503225 234.182167 
L 293.735225 234.452515 
L 294.181625 234.331909 
L 294.628025 234.547919 
L 295.074425 234.384137 
L 295.520825 234.579427 
L 296.413625 234.423691 
L 296.860025 234.542239 
L 297.306425 234.512697 
L 297.752825 234.671379 
L 299.092025 234.645087 
L 299.538425 234.482337 
L 299.984825 234.702701 
L 300.431225 234.529881 
L 301.324025 234.646062 
L 303.109625 234.6379 
L 303.556025 234.821497 
L 304.002425 234.871184 
L 304.448825 234.648545 
L 304.895225 234.870217 
L 306.234425 234.953313 
L 306.680825 234.72057 
L 307.573625 234.825913 
L 309.359225 234.928951 
L 309.805625 235.044992 
L 310.698425 235.124857 
L 311.144825 235.18473 
L 311.591225 235.007667 
L 312.484025 235.101915 
L 312.930425 235.282741 
L 313.376825 235.241554 
L 313.823225 235.409207 
L 314.269625 235.079916 
L 315.162425 235.127934 
L 315.608825 235.404891 
L 316.055225 235.06728 
L 316.501625 235.285376 
L 317.840825 235.288949 
L 318.287225 235.602073 
L 319.180025 235.264252 
L 319.626425 235.414189 
L 320.072825 235.174998 
L 320.519225 235.428617 
L 321.858425 235.474962 
L 322.304825 235.531106 
L 322.751225 235.456507 
L 323.644025 235.564493 
L 324.090425 235.494211 
L 324.536825 235.653409 
L 324.983225 235.599355 
L 325.429625 235.73821 
L 325.876025 235.643784 
L 326.768825 235.752076 
L 327.215225 235.648121 
L 327.661625 235.664396 
L 328.108025 235.829913 
L 328.554425 235.583688 
L 329.000825 235.674904 
L 329.447225 235.619876 
L 331.679225 235.896399 
L 332.572025 235.866296 
L 333.018425 236.019747 
L 333.464825 235.863144 
L 334.357625 235.989487 
L 334.804025 236.071582 
L 335.250425 235.919407 
L 336.143225 235.986426 
L 336.589625 236.335045 
L 337.036025 235.993849 
L 337.482425 235.972051 
L 337.928825 236.11041 
L 338.375225 236.017075 
L 338.821625 236.137804 
L 340.160825 236.018624 
L 340.607225 236.187681 
L 341.946425 236.014803 
L 342.392825 236.263085 
L 342.839225 236.33027 
L 343.285625 236.095024 
L 343.732025 236.328241 
L 344.624825 236.166334 
L 347.303225 236.408222 
L 347.749625 236.258732 
L 348.196025 236.439181 
L 348.642425 236.268026 
L 349.088825 236.401114 
L 349.535225 236.387326 
L 349.981625 236.541104 
L 350.428025 236.38208 
L 350.874425 236.615099 
L 351.320825 236.510203 
L 351.767225 236.590816 
L 352.660025 236.352372 
L 353.552825 236.683304 
L 353.999225 236.536705 
L 354.445625 236.613228 
L 354.892025 236.561484 
L 356.677625 236.729302 
L 357.124025 236.546407 
L 358.016825 236.843352 
L 358.463225 236.67406 
L 358.909625 236.775012 
L 359.356025 236.620866 
L 360.248825 236.791658 
L 360.695225 236.799634 
L 361.141625 236.942569 
L 361.588025 236.844038 
L 362.034425 236.94886 
L 362.480825 236.85054 
L 362.927225 236.921652 
L 363.373625 236.719839 
L 363.820025 236.918455 
L 364.266425 236.837012 
L 364.712825 237.010146 
L 365.159225 236.898673 
L 365.605625 237.060899 
L 366.052025 236.742049 
L 366.944825 237.040646 
L 368.730425 237.148149 
L 369.176825 236.98846 
L 370.069625 237.128905 
L 370.962425 236.979666 
L 371.408825 237.089317 
L 371.855225 236.93817 
L 372.301625 237.126055 
L 372.748025 237.11705 
L 373.194425 237.247709 
L 373.640825 236.979699 
L 374.087225 237.349268 
L 374.533625 237.250869 
L 374.980025 237.300114 
L 375.872825 237.105327 
L 376.319225 237.271035 
L 377.212025 237.173813 
L 377.658425 237.412103 
L 378.104825 237.269663 
L 379.890425 237.403045 
L 380.336825 237.357112 
L 380.783225 237.488528 
L 381.229625 237.283319 
L 382.122425 237.381491 
L 383.015225 237.365919 
L 383.461625 237.600434 
L 383.908025 237.410984 
L 384.800825 237.513571 
L 385.247225 237.439539 
L 385.693625 237.690229 
L 386.140025 237.6997 
L 386.586425 237.532126 
L 387.925625 237.541127 
L 388.372025 237.754332 
L 388.818425 237.531787 
L 389.264825 237.661129 
L 389.711225 237.537285 
L 390.157625 237.753047 
L 391.050425 237.711378 
L 391.496825 237.567699 
L 392.389625 237.655825 
L 392.836025 237.922398 
L 393.282425 237.77021 
L 394.621625 237.709031 
L 395.068025 237.908383 
L 395.960825 237.722886 
L 396.853625 237.91303 
L 397.300025 237.800714 
L 398.192825 237.836332 
L 399.085625 237.716388 
L 399.532025 238.016807 
L 399.978425 237.989285 
L 400.424825 237.780553 
L 400.871225 237.997257 
L 401.317625 237.879679 
L 401.764025 237.923137 
L 402.210425 237.845337 
L 402.656825 238.029099 
L 403.103225 237.961618 
L 403.549625 238.094871 
L 404.888825 237.996856 
L 405.781625 238.142592 
L 406.228025 237.926029 
L 406.674425 238.100881 
L 407.120825 237.990111 
L 407.567225 238.056097 
L 408.460025 237.939436 
L 409.352825 238.195352 
L 410.245625 238.021953 
L 411.138425 238.401667 
L 412.031225 238.154781 
L 412.924025 238.381555 
L 413.370425 238.128531 
L 414.263225 238.416682 
L 415.602425 238.280558 
L 416.048825 238.365091 
L 416.495225 238.268505 
L 416.941625 238.401597 
L 417.834425 238.34274 
L 418.280825 238.20135 
L 418.727225 238.63788 
L 419.173625 238.210582 
L 420.066425 238.497386 
L 420.512825 238.470624 
L 421.405625 238.638512 
L 421.852025 238.367974 
L 422.298425 238.523289 
L 422.744825 238.441205 
L 424.084025 238.610044 
L 424.530425 238.68335 
L 424.976825 238.61087 
L 425.869625 238.697009 
L 426.316025 238.477955 
L 426.762425 238.693176 
L 427.208825 238.504887 
L 427.655225 238.605513 
L 428.101625 238.459297 
L 431.226425 238.787552 
L 431.672825 238.650317 
L 432.119225 238.868281 
L 432.565625 238.652151 
L 433.012025 238.916972 
L 433.904825 238.803075 
L 434.797625 238.789572 
L 435.690425 238.60719 
L 436.136825 238.778184 
L 436.583225 238.769245 
L 437.029625 238.904399 
L 437.922425 238.757733 
L 438.368825 238.730001 
L 438.815225 238.982703 
L 439.261625 238.749233 
L 439.708025 238.964235 
L 440.154425 238.833596 
L 441.493625 239.048425 
L 441.940025 238.854658 
L 442.386425 239.063369 
L 442.832825 238.945296 
L 443.279225 239.191529 
L 443.725625 238.925688 
L 444.172025 239.126196 
L 444.618425 238.914498 
L 445.064825 238.834042 
L 445.511225 239.03885 
L 446.404025 239.046301 
L 446.850425 238.94936 
L 447.743225 239.064307 
L 448.636025 238.984384 
L 449.528825 239.160211 
L 450.421625 239.05396 
L 450.868025 239.236635 
L 451.314425 239.108719 
L 451.760825 239.243249 
L 452.207225 239.215235 
L 452.653625 239.051399 
L 453.100025 239.297797 
L 453.546425 239.287574 
L 453.992825 239.129897 
L 454.885625 239.348761 
L 455.332025 239.201467 
L 455.778425 239.340483 
L 456.224825 239.162111 
L 457.564025 239.428076 
L 458.010425 239.22842 
L 458.903225 239.375767 
L 459.349625 239.283274 
L 460.242425 239.440642 
L 460.688825 239.337707 
L 461.135225 239.349223 
L 461.581625 239.240683 
L 462.028025 239.512696 
L 463.367225 239.203929 
L 464.260025 239.586625 
L 464.706425 239.51876 
L 465.152825 239.335121 
L 466.045625 239.454004 
L 466.492025 239.512485 
L 466.938425 239.213752 
L 467.384825 239.427977 
L 468.277625 239.527616 
L 468.724025 239.399336 
L 469.170425 239.546666 
L 470.509625 239.582173 
L 470.956025 239.619699 
L 471.402425 239.458907 
L 472.295225 239.72265 
L 473.188025 239.701365 
L 473.634425 239.714897 
L 474.080825 239.522415 
L 474.973625 239.653624 
L 475.420025 239.468689 
L 476.312825 239.744968 
L 476.759225 239.770958 
L 477.205625 239.534043 
L 477.652025 239.504018 
L 478.098425 239.72626 
L 478.544825 239.804201 
L 479.437625 239.730779 
L 479.884025 239.804713 
L 480.776825 239.672711 
L 481.669625 240.038753 
L 482.116025 239.859741 
L 483.008825 239.935471 
L 483.455225 239.790549 
L 484.794425 239.996034 
L 485.240825 239.683141 
L 485.687225 239.919482 
L 487.026425 240.063487 
L 487.472825 239.913955 
L 488.812025 239.927198 
L 489.258425 239.988673 
L 489.704825 239.845903 
L 491.044025 239.943869 
L 491.936825 239.873409 
L 492.383225 240.043404 
L 493.276025 240.004395 
L 494.168825 240.161262 
L 495.061625 240.047952 
L 495.508025 240.175591 
L 495.954425 239.868213 
L 496.847225 240.203514 
L 497.293625 240.063826 
L 498.186425 240.268204 
L 498.632825 240.070831 
L 500.418425 240.048319 
L 500.864825 240.087535 
L 501.311225 240.322075 
L 502.204025 240.144315 
L 503.096825 240.252656 
L 503.543225 240.189842 
L 504.436025 240.357941 
L 504.882425 240.165071 
L 505.328825 240.407992 
L 506.221625 240.298213 
L 507.114425 240.189008 
L 507.560825 240.308861 
L 508.453625 240.269117 
L 508.900025 240.421792 
L 509.346425 240.227385 
L 510.239225 240.40308 
L 510.239225 240.40308 
" clip-path="url(#p88b213785a)" style="fill: none; stroke: #8c564b; stroke-width: 2; stroke-linecap: square"/>
   </g>
   <g id="patch_3">
    <path d="M 64.285625 303.756563 
L 64.285625 26.556563 
" style="fill: none; stroke: #000000; stroke-width: 0.8; stroke-linejoin: miter; stroke-linecap: square"/>
   </g>
   <g id="patch_4">
    <path d="M 510.685625 303.756563 
L 510.685625 26.556563 
" style="fill: none; stroke: #000000; stroke-width: 0.8; stroke-linejoin: miter; stroke-linecap: square"/>
   </g>
   <g id="patch_5">
    <path d="M 64.285625 303.756563 
L 510.685625 303.756563 
" style="fill: none; stroke: #000000; stroke-width: 0.8; stroke-linejoin: miter; stroke-linecap: square"/>
   </g>
   <g id="patch_6">
    <path d="M 64.285625 26.556563 
L 510.685625 26.556563 
" style="fill: none; stroke: #000000; stroke-width: 0.8; stroke-linejoin: miter; stroke-linecap: square"/>
   </g>
   <g id="text_15">
    <!-- Different mini-batch sizes -->
    <g transform="translate(169.432344 20.556563)scale(0.18 -0.18)">
     <defs>
      <path id="Montserrat-Medium-44" d="M 672 4480 
L 2560 4480 
Q 3270 4480 3820 4198 
Q 4371 3917 4675 3408 
Q 4979 2899 4979 2240 
Q 4979 1581 4675 1072 
Q 4371 563 3820 281 
Q 3270 0 2560 0 
L 672 0 
L 672 4480 
z
M 2522 557 
Q 3066 557 3478 768 
Q 3891 979 4115 1360 
Q 4339 1741 4339 2240 
Q 4339 2739 4115 3120 
Q 3891 3501 3478 3712 
Q 3066 3923 2522 3923 
L 1312 3923 
L 1312 557 
L 2522 557 
z
" transform="scale(0.015625)"/>
      <path id="Montserrat-Medium-65" d="M 3648 1677 
Q 3648 1606 3635 1491 
L 883 1491 
Q 941 1043 1277 771 
Q 1613 499 2112 499 
Q 2720 499 3091 909 
L 3430 512 
Q 3200 243 2857 102 
Q 2515 -38 2093 -38 
Q 1555 -38 1139 182 
Q 723 403 496 800 
Q 269 1197 269 1696 
Q 269 2189 489 2585 
Q 710 2982 1097 3203 
Q 1485 3424 1971 3424 
Q 2458 3424 2838 3203 
Q 3219 2982 3433 2585 
Q 3648 2189 3648 1677 
z
M 1971 2906 
Q 1530 2906 1232 2637 
Q 934 2368 883 1933 
L 3059 1933 
Q 3008 2362 2710 2634 
Q 2413 2906 1971 2906 
z
" transform="scale(0.015625)"/>
      <path id="Montserrat-Medium-72" d="M 1171 2822 
Q 1331 3117 1644 3270 
Q 1958 3424 2406 3424 
L 2406 2829 
Q 2355 2835 2266 2835 
Q 1766 2835 1481 2537 
Q 1197 2240 1197 1690 
L 1197 0 
L 582 0 
L 582 3392 
L 1171 3392 
L 1171 2822 
z
" transform="scale(0.015625)"/>
      <path id="Montserrat-Medium-6d" d="M 4826 3424 
Q 5466 3424 5840 3053 
Q 6214 2682 6214 1952 
L 6214 0 
L 5600 0 
L 5600 1882 
Q 5600 2374 5373 2624 
Q 5146 2874 4723 2874 
Q 4256 2874 3981 2582 
Q 3706 2291 3706 1747 
L 3706 0 
L 3091 0 
L 3091 1882 
Q 3091 2374 2864 2624 
Q 2637 2874 2214 2874 
Q 1747 2874 1472 2582 
Q 1197 2291 1197 1747 
L 1197 0 
L 582 0 
L 582 3392 
L 1171 3392 
L 1171 2886 
Q 1357 3149 1657 3286 
Q 1958 3424 2342 3424 
Q 2739 3424 3046 3264 
Q 3354 3104 3520 2797 
Q 3712 3091 4054 3257 
Q 4397 3424 4826 3424 
z
" transform="scale(0.015625)"/>
      <path id="Montserrat-Medium-2d" d="M 365 2022 
L 2086 2022 
L 2086 1491 
L 365 1491 
L 365 2022 
z
" transform="scale(0.015625)"/>
      <path id="Montserrat-Medium-62" d="M 2381 3424 
Q 2874 3424 3264 3206 
Q 3654 2989 3875 2598 
Q 4096 2208 4096 1696 
Q 4096 1184 3875 790 
Q 3654 397 3264 179 
Q 2874 -38 2381 -38 
Q 2003 -38 1689 109 
Q 1376 256 1171 538 
L 1171 0 
L 582 0 
L 582 4749 
L 1197 4749 
L 1197 2880 
Q 1402 3149 1709 3286 
Q 2016 3424 2381 3424 
z
M 2330 499 
Q 2656 499 2915 649 
Q 3174 800 3324 1072 
Q 3475 1344 3475 1696 
Q 3475 2048 3324 2320 
Q 3174 2592 2915 2739 
Q 2656 2886 2330 2886 
Q 2010 2886 1747 2739 
Q 1485 2592 1337 2320 
Q 1190 2048 1190 1696 
Q 1190 1344 1337 1072 
Q 1485 800 1747 649 
Q 2010 499 2330 499 
z
" transform="scale(0.015625)"/>
      <path id="Montserrat-Medium-61" d="M 1818 3424 
Q 2522 3424 2896 3078 
Q 3270 2733 3270 2048 
L 3270 0 
L 2688 0 
L 2688 448 
Q 2534 211 2249 86 
Q 1965 -38 1574 -38 
Q 1005 -38 662 237 
Q 320 512 320 960 
Q 320 1408 646 1680 
Q 973 1952 1683 1952 
L 2656 1952 
L 2656 2074 
Q 2656 2470 2425 2681 
Q 2195 2893 1747 2893 
Q 1446 2893 1158 2793 
Q 870 2694 672 2528 
L 416 2989 
Q 678 3200 1043 3312 
Q 1408 3424 1818 3424 
z
M 1677 435 
Q 2029 435 2285 592 
Q 2541 749 2656 1037 
L 2656 1510 
L 1709 1510 
Q 928 1510 928 986 
Q 928 730 1126 582 
Q 1325 435 1677 435 
z
" transform="scale(0.015625)"/>
      <path id="Montserrat-Medium-7a" d="M 3098 506 
L 3098 0 
L 256 0 
L 256 397 
L 2259 2886 
L 294 2886 
L 294 3392 
L 3046 3392 
L 3046 2989 
L 1043 506 
L 3098 506 
z
" transform="scale(0.015625)"/>
     </defs>
     <use xlink:href="#Montserrat-Medium-44"/>
     <use xlink:href="#Montserrat-Medium-69" x="82.599991"/>
     <use xlink:href="#Montserrat-Medium-66" x="110.499985"/>
     <use xlink:href="#Montserrat-Medium-66" x="145.799973"/>
     <use xlink:href="#Montserrat-Medium-65" x="181.09996"/>
     <use xlink:href="#Montserrat-Medium-72" x="242.299957"/>
     <use xlink:href="#Montserrat-Medium-65" x="283.299942"/>
     <use xlink:href="#Montserrat-Medium-6e" x="344.499939"/>
     <use xlink:href="#Montserrat-Medium-74" x="412.59993"/>
     <use xlink:href="#Montserrat-Medium-20" x="453.999924"/>
     <use xlink:href="#Montserrat-Medium-6d" x="480.899918"/>
     <use xlink:href="#Montserrat-Medium-69" x="586.599899"/>
     <use xlink:href="#Montserrat-Medium-6e" x="614.499893"/>
     <use xlink:href="#Montserrat-Medium-69" x="682.599884"/>
     <use xlink:href="#Montserrat-Medium-2d" x="710.499878"/>
     <use xlink:href="#Montserrat-Medium-62" x="748.799866"/>
     <use xlink:href="#Montserrat-Medium-61" x="816.999847"/>
     <use xlink:href="#Montserrat-Medium-74" x="876.799835"/>
     <use xlink:href="#Montserrat-Medium-63" x="918.199829"/>
     <use xlink:href="#Montserrat-Medium-68" x="975.29982"/>
     <use xlink:href="#Montserrat-Medium-20" x="1043.399811"/>
     <use xlink:href="#Montserrat-Medium-73" x="1070.299805"/>
     <use xlink:href="#Montserrat-Medium-69" x="1120.399796"/>
     <use xlink:href="#Montserrat-Medium-7a" x="1148.299789"/>
     <use xlink:href="#Montserrat-Medium-65" x="1200.39978"/>
     <use xlink:href="#Montserrat-Medium-73" x="1261.599777"/>
    </g>
   </g>
   <g id="legend_1">
    <g id="patch_7">
     <path d="M 259.470312 199.480312 
L 498.085625 199.480312 
Q 501.685625 199.480312 501.685625 195.880313 
L 501.685625 39.156563 
Q 501.685625 35.556563 498.085625 35.556563 
L 259.470312 35.556563 
Q 255.870312 35.556563 255.870312 39.156563 
L 255.870312 195.880313 
Q 255.870312 199.480312 259.470312 199.480312 
z
" style="fill: #f1f7f0; opacity: 0.8; stroke: #cccccc; stroke-linejoin: miter"/>
    </g>
    <g id="line2d_19">
     <path d="M 263.070312 50.13375 
L 281.070312 50.13375 
L 299.070312 50.13375 
" style="fill: none; stroke: #1f77b4; stroke-width: 2; stroke-linecap: square"/>
    </g>
    <g id="text_16">
     <!-- Mini-batch size: 200 -->
     <g transform="translate(313.470312 56.43375)scale(0.18 -0.18)">
      <defs>
       <path id="DejaVuSans-4d" d="M 628 4666 
L 1569 4666 
L 2759 1491 
L 3956 4666 
L 4897 4666 
L 4897 0 
L 4281 0 
L 4281 4097 
L 3078 897 
L 2444 897 
L 1241 4097 
L 1241 0 
L 628 0 
L 628 4666 
z
" transform="scale(0.015625)"/>
       <path id="DejaVuSans-69" d="M 603 3500 
L 1178 3500 
L 1178 0 
L 603 0 
L 603 3500 
z
M 603 4863 
L 1178 4863 
L 1178 4134 
L 603 4134 
L 603 4863 
z
" transform="scale(0.015625)"/>
       <path id="DejaVuSans-6e" d="M 3513 2113 
L 3513 0 
L 2938 0 
L 2938 2094 
Q 2938 2591 2744 2837 
Q 2550 3084 2163 3084 
Q 1697 3084 1428 2787 
Q 1159 2491 1159 1978 
L 1159 0 
L 581 0 
L 581 3500 
L 1159 3500 
L 1159 2956 
Q 1366 3272 1645 3428 
Q 1925 3584 2291 3584 
Q 2894 3584 3203 3211 
Q 3513 2838 3513 2113 
z
" transform="scale(0.015625)"/>
       <path id="DejaVuSans-2d" d="M 313 2009 
L 1997 2009 
L 1997 1497 
L 313 1497 
L 313 2009 
z
" transform="scale(0.015625)"/>
       <path id="DejaVuSans-62" d="M 3116 1747 
Q 3116 2381 2855 2742 
Q 2594 3103 2138 3103 
Q 1681 3103 1420 2742 
Q 1159 2381 1159 1747 
Q 1159 1113 1420 752 
Q 1681 391 2138 391 
Q 2594 391 2855 752 
Q 3116 1113 3116 1747 
z
M 1159 2969 
Q 1341 3281 1617 3432 
Q 1894 3584 2278 3584 
Q 2916 3584 3314 3078 
Q 3713 2572 3713 1747 
Q 3713 922 3314 415 
Q 2916 -91 2278 -91 
Q 1894 -91 1617 61 
Q 1341 213 1159 525 
L 1159 0 
L 581 0 
L 581 4863 
L 1159 4863 
L 1159 2969 
z
" transform="scale(0.015625)"/>
       <path id="DejaVuSans-61" d="M 2194 1759 
Q 1497 1759 1228 1600 
Q 959 1441 959 1056 
Q 959 750 1161 570 
Q 1363 391 1709 391 
Q 2188 391 2477 730 
Q 2766 1069 2766 1631 
L 2766 1759 
L 2194 1759 
z
M 3341 1997 
L 3341 0 
L 2766 0 
L 2766 531 
Q 2569 213 2275 61 
Q 1981 -91 1556 -91 
Q 1019 -91 701 211 
Q 384 513 384 1019 
Q 384 1609 779 1909 
Q 1175 2209 1959 2209 
L 2766 2209 
L 2766 2266 
Q 2766 2663 2505 2880 
Q 2244 3097 1772 3097 
Q 1472 3097 1187 3025 
Q 903 2953 641 2809 
L 641 3341 
Q 956 3463 1253 3523 
Q 1550 3584 1831 3584 
Q 2591 3584 2966 3190 
Q 3341 2797 3341 1997 
z
" transform="scale(0.015625)"/>
       <path id="DejaVuSans-74" d="M 1172 4494 
L 1172 3500 
L 2356 3500 
L 2356 3053 
L 1172 3053 
L 1172 1153 
Q 1172 725 1289 603 
Q 1406 481 1766 481 
L 2356 481 
L 2356 0 
L 1766 0 
Q 1100 0 847 248 
Q 594 497 594 1153 
L 594 3053 
L 172 3053 
L 172 3500 
L 594 3500 
L 594 4494 
L 1172 4494 
z
" transform="scale(0.015625)"/>
       <path id="DejaVuSans-63" d="M 3122 3366 
L 3122 2828 
Q 2878 2963 2633 3030 
Q 2388 3097 2138 3097 
Q 1578 3097 1268 2742 
Q 959 2388 959 1747 
Q 959 1106 1268 751 
Q 1578 397 2138 397 
Q 2388 397 2633 464 
Q 2878 531 3122 666 
L 3122 134 
Q 2881 22 2623 -34 
Q 2366 -91 2075 -91 
Q 1284 -91 818 406 
Q 353 903 353 1747 
Q 353 2603 823 3093 
Q 1294 3584 2113 3584 
Q 2378 3584 2631 3529 
Q 2884 3475 3122 3366 
z
" transform="scale(0.015625)"/>
       <path id="DejaVuSans-68" d="M 3513 2113 
L 3513 0 
L 2938 0 
L 2938 2094 
Q 2938 2591 2744 2837 
Q 2550 3084 2163 3084 
Q 1697 3084 1428 2787 
Q 1159 2491 1159 1978 
L 1159 0 
L 581 0 
L 581 4863 
L 1159 4863 
L 1159 2956 
Q 1366 3272 1645 3428 
Q 1925 3584 2291 3584 
Q 2894 3584 3203 3211 
Q 3513 2838 3513 2113 
z
" transform="scale(0.015625)"/>
       <path id="DejaVuSans-20" transform="scale(0.015625)"/>
       <path id="DejaVuSans-73" d="M 2834 3397 
L 2834 2853 
Q 2591 2978 2328 3040 
Q 2066 3103 1784 3103 
Q 1356 3103 1142 2972 
Q 928 2841 928 2578 
Q 928 2378 1081 2264 
Q 1234 2150 1697 2047 
L 1894 2003 
Q 2506 1872 2764 1633 
Q 3022 1394 3022 966 
Q 3022 478 2636 193 
Q 2250 -91 1575 -91 
Q 1294 -91 989 -36 
Q 684 19 347 128 
L 347 722 
Q 666 556 975 473 
Q 1284 391 1588 391 
Q 1994 391 2212 530 
Q 2431 669 2431 922 
Q 2431 1156 2273 1281 
Q 2116 1406 1581 1522 
L 1381 1569 
Q 847 1681 609 1914 
Q 372 2147 372 2553 
Q 372 3047 722 3315 
Q 1072 3584 1716 3584 
Q 2034 3584 2315 3537 
Q 2597 3491 2834 3397 
z
" transform="scale(0.015625)"/>
       <path id="DejaVuSans-7a" d="M 353 3500 
L 3084 3500 
L 3084 2975 
L 922 459 
L 3084 459 
L 3084 0 
L 275 0 
L 275 525 
L 2438 3041 
L 353 3041 
L 353 3500 
z
" transform="scale(0.015625)"/>
       <path id="DejaVuSans-65" d="M 3597 1894 
L 3597 1613 
L 953 1613 
Q 991 1019 1311 708 
Q 1631 397 2203 397 
Q 2534 397 2845 478 
Q 3156 559 3463 722 
L 3463 178 
Q 3153 47 2828 -22 
Q 2503 -91 2169 -91 
Q 1331 -91 842 396 
Q 353 884 353 1716 
Q 353 2575 817 3079 
Q 1281 3584 2069 3584 
Q 2775 3584 3186 3129 
Q 3597 2675 3597 1894 
z
M 3022 2063 
Q 3016 2534 2758 2815 
Q 2500 3097 2075 3097 
Q 1594 3097 1305 2825 
Q 1016 2553 972 2059 
L 3022 2063 
z
" transform="scale(0.015625)"/>
       <path id="DejaVuSans-3a" d="M 750 794 
L 1409 794 
L 1409 0 
L 750 0 
L 750 794 
z
M 750 3309 
L 1409 3309 
L 1409 2516 
L 750 2516 
L 750 3309 
z
" transform="scale(0.015625)"/>
      </defs>
      <use xlink:href="#DejaVuSans-4d"/>
      <use xlink:href="#DejaVuSans-69" x="86.279297"/>
      <use xlink:href="#DejaVuSans-6e" x="114.0625"/>
      <use xlink:href="#DejaVuSans-69" x="177.441406"/>
      <use xlink:href="#DejaVuSans-2d" x="205.224609"/>
      <use xlink:href="#DejaVuSans-62" x="241.308594"/>
      <use xlink:href="#DejaVuSans-61" x="304.785156"/>
      <use xlink:href="#DejaVuSans-74" x="366.064453"/>
      <use xlink:href="#DejaVuSans-63" x="405.273438"/>
      <use xlink:href="#DejaVuSans-68" x="460.253906"/>
      <use xlink:href="#DejaVuSans-20" x="523.632812"/>
      <use xlink:href="#DejaVuSans-73" x="555.419922"/>
      <use xlink:href="#DejaVuSans-69" x="607.519531"/>
      <use xlink:href="#DejaVuSans-7a" x="635.302734"/>
      <use xlink:href="#DejaVuSans-65" x="687.792969"/>
      <use xlink:href="#DejaVuSans-3a" x="749.316406"/>
      <use xlink:href="#DejaVuSans-20" x="783.007812"/>
      <use xlink:href="#DejaVuSans-32" x="814.794922"/>
      <use xlink:href="#DejaVuSans-30" x="878.417969"/>
      <use xlink:href="#DejaVuSans-30" x="942.041016"/>
     </g>
    </g>
    <g id="line2d_20">
     <path d="M 263.070312 76.554375 
L 281.070312 76.554375 
L 299.070312 76.554375 
" style="fill: none; stroke: #ff7f0e; stroke-width: 2; stroke-linecap: square"/>
    </g>
    <g id="text_17">
     <!-- Mini-batch size: 100 -->
     <g transform="translate(313.470312 82.854375)scale(0.18 -0.18)">
      <use xlink:href="#DejaVuSans-4d"/>
      <use xlink:href="#DejaVuSans-69" x="86.279297"/>
      <use xlink:href="#DejaVuSans-6e" x="114.0625"/>
      <use xlink:href="#DejaVuSans-69" x="177.441406"/>
      <use xlink:href="#DejaVuSans-2d" x="205.224609"/>
      <use xlink:href="#DejaVuSans-62" x="241.308594"/>
      <use xlink:href="#DejaVuSans-61" x="304.785156"/>
      <use xlink:href="#DejaVuSans-74" x="366.064453"/>
      <use xlink:href="#DejaVuSans-63" x="405.273438"/>
      <use xlink:href="#DejaVuSans-68" x="460.253906"/>
      <use xlink:href="#DejaVuSans-20" x="523.632812"/>
      <use xlink:href="#DejaVuSans-73" x="555.419922"/>
      <use xlink:href="#DejaVuSans-69" x="607.519531"/>
      <use xlink:href="#DejaVuSans-7a" x="635.302734"/>
      <use xlink:href="#DejaVuSans-65" x="687.792969"/>
      <use xlink:href="#DejaVuSans-3a" x="749.316406"/>
      <use xlink:href="#DejaVuSans-20" x="783.007812"/>
      <use xlink:href="#DejaVuSans-31" x="814.794922"/>
      <use xlink:href="#DejaVuSans-30" x="878.417969"/>
      <use xlink:href="#DejaVuSans-30" x="942.041016"/>
     </g>
    </g>
    <g id="line2d_21">
     <path d="M 263.070312 102.975 
L 281.070312 102.975 
L 299.070312 102.975 
" style="fill: none; stroke: #2ca02c; stroke-width: 2; stroke-linecap: square"/>
    </g>
    <g id="text_18">
     <!-- Mini-batch size: 50 -->
     <g transform="translate(313.470312 109.275)scale(0.18 -0.18)">
      <defs>
       <path id="DejaVuSans-35" d="M 691 4666 
L 3169 4666 
L 3169 4134 
L 1269 4134 
L 1269 2991 
Q 1406 3038 1543 3061 
Q 1681 3084 1819 3084 
Q 2600 3084 3056 2656 
Q 3513 2228 3513 1497 
Q 3513 744 3044 326 
Q 2575 -91 1722 -91 
Q 1428 -91 1123 -41 
Q 819 9 494 109 
L 494 744 
Q 775 591 1075 516 
Q 1375 441 1709 441 
Q 2250 441 2565 725 
Q 2881 1009 2881 1497 
Q 2881 1984 2565 2268 
Q 2250 2553 1709 2553 
Q 1456 2553 1204 2497 
Q 953 2441 691 2322 
L 691 4666 
z
" transform="scale(0.015625)"/>
      </defs>
      <use xlink:href="#DejaVuSans-4d"/>
      <use xlink:href="#DejaVuSans-69" x="86.279297"/>
      <use xlink:href="#DejaVuSans-6e" x="114.0625"/>
      <use xlink:href="#DejaVuSans-69" x="177.441406"/>
      <use xlink:href="#DejaVuSans-2d" x="205.224609"/>
      <use xlink:href="#DejaVuSans-62" x="241.308594"/>
      <use xlink:href="#DejaVuSans-61" x="304.785156"/>
      <use xlink:href="#DejaVuSans-74" x="366.064453"/>
      <use xlink:href="#DejaVuSans-63" x="405.273438"/>
      <use xlink:href="#DejaVuSans-68" x="460.253906"/>
      <use xlink:href="#DejaVuSans-20" x="523.632812"/>
      <use xlink:href="#DejaVuSans-73" x="555.419922"/>
      <use xlink:href="#DejaVuSans-69" x="607.519531"/>
      <use xlink:href="#DejaVuSans-7a" x="635.302734"/>
      <use xlink:href="#DejaVuSans-65" x="687.792969"/>
      <use xlink:href="#DejaVuSans-3a" x="749.316406"/>
      <use xlink:href="#DejaVuSans-20" x="783.007812"/>
      <use xlink:href="#DejaVuSans-35" x="814.794922"/>
      <use xlink:href="#DejaVuSans-30" x="878.417969"/>
     </g>
    </g>
    <g id="line2d_22">
     <path d="M 263.070312 129.395625 
L 281.070312 129.395625 
L 299.070312 129.395625 
" style="fill: none; stroke: #d62728; stroke-width: 2; stroke-linecap: square"/>
    </g>
    <g id="text_19">
     <!-- Mini-batch size: 20 -->
     <g transform="translate(313.470312 135.695625)scale(0.18 -0.18)">
      <use xlink:href="#DejaVuSans-4d"/>
      <use xlink:href="#DejaVuSans-69" x="86.279297"/>
      <use xlink:href="#DejaVuSans-6e" x="114.0625"/>
      <use xlink:href="#DejaVuSans-69" x="177.441406"/>
      <use xlink:href="#DejaVuSans-2d" x="205.224609"/>
      <use xlink:href="#DejaVuSans-62" x="241.308594"/>
      <use xlink:href="#DejaVuSans-61" x="304.785156"/>
      <use xlink:href="#DejaVuSans-74" x="366.064453"/>
      <use xlink:href="#DejaVuSans-63" x="405.273438"/>
      <use xlink:href="#DejaVuSans-68" x="460.253906"/>
      <use xlink:href="#DejaVuSans-20" x="523.632812"/>
      <use xlink:href="#DejaVuSans-73" x="555.419922"/>
      <use xlink:href="#DejaVuSans-69" x="607.519531"/>
      <use xlink:href="#DejaVuSans-7a" x="635.302734"/>
      <use xlink:href="#DejaVuSans-65" x="687.792969"/>
      <use xlink:href="#DejaVuSans-3a" x="749.316406"/>
      <use xlink:href="#DejaVuSans-20" x="783.007812"/>
      <use xlink:href="#DejaVuSans-32" x="814.794922"/>
      <use xlink:href="#DejaVuSans-30" x="878.417969"/>
     </g>
    </g>
    <g id="line2d_23">
     <path d="M 263.070312 155.81625 
L 281.070312 155.81625 
L 299.070312 155.81625 
" style="fill: none; stroke: #9467bd; stroke-width: 2; stroke-linecap: square"/>
    </g>
    <g id="text_20">
     <!-- Mini-batch size: 10 -->
     <g transform="translate(313.470312 162.11625)scale(0.18 -0.18)">
      <use xlink:href="#DejaVuSans-4d"/>
      <use xlink:href="#DejaVuSans-69" x="86.279297"/>
      <use xlink:href="#DejaVuSans-6e" x="114.0625"/>
      <use xlink:href="#DejaVuSans-69" x="177.441406"/>
      <use xlink:href="#DejaVuSans-2d" x="205.224609"/>
      <use xlink:href="#DejaVuSans-62" x="241.308594"/>
      <use xlink:href="#DejaVuSans-61" x="304.785156"/>
      <use xlink:href="#DejaVuSans-74" x="366.064453"/>
      <use xlink:href="#DejaVuSans-63" x="405.273438"/>
      <use xlink:href="#DejaVuSans-68" x="460.253906"/>
      <use xlink:href="#DejaVuSans-20" x="523.632812"/>
      <use xlink:href="#DejaVuSans-73" x="555.419922"/>
      <use xlink:href="#DejaVuSans-69" x="607.519531"/>
      <use xlink:href="#DejaVuSans-7a" x="635.302734"/>
      <use xlink:href="#DejaVuSans-65" x="687.792969"/>
      <use xlink:href="#DejaVuSans-3a" x="749.316406"/>
      <use xlink:href="#DejaVuSans-20" x="783.007812"/>
      <use xlink:href="#DejaVuSans-31" x="814.794922"/>
      <use xlink:href="#DejaVuSans-30" x="878.417969"/>
     </g>
    </g>
    <g id="line2d_24">
     <path d="M 263.070312 182.236875 
L 281.070312 182.236875 
L 299.070312 182.236875 
" style="fill: none; stroke: #8c564b; stroke-width: 2; stroke-linecap: square"/>
    </g>
    <g id="text_21">
     <!-- Mini-batch size: 5 -->
     <g transform="translate(313.470312 188.536875)scale(0.18 -0.18)">
      <use xlink:href="#DejaVuSans-4d"/>
      <use xlink:href="#DejaVuSans-69" x="86.279297"/>
      <use xlink:href="#DejaVuSans-6e" x="114.0625"/>
      <use xlink:href="#DejaVuSans-69" x="177.441406"/>
      <use xlink:href="#DejaVuSans-2d" x="205.224609"/>
      <use xlink:href="#DejaVuSans-62" x="241.308594"/>
      <use xlink:href="#DejaVuSans-61" x="304.785156"/>
      <use xlink:href="#DejaVuSans-74" x="366.064453"/>
      <use xlink:href="#DejaVuSans-63" x="405.273438"/>
      <use xlink:href="#DejaVuSans-68" x="460.253906"/>
      <use xlink:href="#DejaVuSans-20" x="523.632812"/>
      <use xlink:href="#DejaVuSans-73" x="555.419922"/>
      <use xlink:href="#DejaVuSans-69" x="607.519531"/>
      <use xlink:href="#DejaVuSans-7a" x="635.302734"/>
      <use xlink:href="#DejaVuSans-65" x="687.792969"/>
      <use xlink:href="#DejaVuSans-3a" x="749.316406"/>
      <use xlink:href="#DejaVuSans-20" x="783.007812"/>
      <use xlink:href="#DejaVuSans-35" x="814.794922"/>
     </g>
    </g>
   </g>
  </g>
 </g>
 <defs>
  <clipPath id="p88b213785a">
   <rect x="64.285625" y="26.556563" width="446.4" height="277.2"/>
  </clipPath>
 </defs>
</svg>
