<?xml version="1.0" encoding="utf-8" standalone="no"?>
<!DOCTYPE svg PUBLIC "-//W3C//DTD SVG 1.1//EN"
  "http://www.w3.org/Graphics/SVG/1.1/DTD/svg11.dtd">
<svg xmlns:xlink="http://www.w3.org/1999/xlink" width="747.905937pt" height="435.31625pt" viewBox="0 0 747.905937 435.31625" xmlns="http://www.w3.org/2000/svg" version="1.1">
 <metadata>
  <rdf:RDF xmlns:dc="http://purl.org/dc/elements/1.1/" xmlns:cc="http://creativecommons.org/ns#" xmlns:rdf="http://www.w3.org/1999/02/22-rdf-syntax-ns#">
   <cc:Work>
    <dc:type rdf:resource="http://purl.org/dc/dcmitype/StillImage"/>
    <dc:date>2022-12-06T13:35:22.452790</dc:date>
    <dc:format>image/svg+xml</dc:format>
    <dc:creator>
     <cc:Agent>
      <dc:title>Matplotlib v3.5.2, https://matplotlib.org/</dc:title>
     </cc:Agent>
    </dc:creator>
   </cc:Work>
  </rdf:RDF>
 </metadata>
 <defs>
  <style type="text/css">*{stroke-linejoin: round; stroke-linecap: butt}</style>
 </defs>
 <g id="figure_1">
  <g id="patch_1">
   <path d="M 0 435.31625 
L 747.905937 435.31625 
L 747.905937 -0 
L 0 -0 
z
" style="fill: #ffffff"/>
  </g>
  <g id="axes_1">
   <g id="patch_2">
    <path d="M 71.105938 201.6 
L 375.469574 201.6 
L 375.469574 50.4 
L 71.105938 50.4 
z
" style="fill: #f1f7f0"/>
   </g>
   <g id="patch_3">
    <path d="M 84.940648 201.6 
L 112.610072 201.6 
L 112.610072 200.304 
L 84.940648 200.304 
z
" clip-path="url(#p7867457ccb)" style="opacity: 0.25"/>
   </g>
   <g id="patch_4">
    <path d="M 112.610072 201.6 
L 140.27949 201.6 
L 140.27949 191.664 
L 112.610072 191.664 
z
" clip-path="url(#p7867457ccb)" style="opacity: 0.25"/>
   </g>
   <g id="patch_5">
    <path d="M 140.27949 201.6 
L 167.948914 201.6 
L 167.948914 186.912 
L 140.27949 186.912 
z
" clip-path="url(#p7867457ccb)" style="opacity: 0.25"/>
   </g>
   <g id="patch_6">
    <path d="M 167.948914 201.6 
L 195.618338 201.6 
L 195.618338 183.456 
L 167.948914 183.456 
z
" clip-path="url(#p7867457ccb)" style="opacity: 0.25"/>
   </g>
   <g id="patch_7">
    <path d="M 195.618333 201.6 
L 223.287757 201.6 
L 223.287757 176.112 
L 195.618333 176.112 
z
" clip-path="url(#p7867457ccb)" style="opacity: 0.25"/>
   </g>
   <g id="patch_8">
    <path d="M 223.287754 201.6 
L 250.95718 201.6 
L 250.95718 181.296 
L 223.287754 181.296 
z
" clip-path="url(#p7867457ccb)" style="opacity: 0.25"/>
   </g>
   <g id="patch_9">
    <path d="M 250.957174 201.6 
L 278.626597 201.6 
L 278.626597 189.072 
L 250.957174 189.072 
z
" clip-path="url(#p7867457ccb)" style="opacity: 0.25"/>
   </g>
   <g id="patch_10">
    <path d="M 278.626597 201.6 
L 306.296021 201.6 
L 306.296021 195.12 
L 278.626597 195.12 
z
" clip-path="url(#p7867457ccb)" style="opacity: 0.25"/>
   </g>
   <g id="patch_11">
    <path d="M 306.296015 201.6 
L 333.965439 201.6 
L 333.965439 199.008 
L 306.296015 199.008 
z
" clip-path="url(#p7867457ccb)" style="opacity: 0.25"/>
   </g>
   <g id="patch_12">
    <path d="M 333.965439 201.6 
L 361.634863 201.6 
L 361.634863 200.736 
L 333.965439 200.736 
z
" clip-path="url(#p7867457ccb)" style="opacity: 0.25"/>
   </g>
   <g id="patch_13">
    <path d="M 184.78537 201.6 
L 198.28537 201.6 
L 198.28537 201.168 
L 184.78537 201.168 
z
" clip-path="url(#p7867457ccb)" style="opacity: 0.5"/>
   </g>
   <g id="patch_14">
    <path d="M 198.28537 201.6 
L 211.785371 201.6 
L 211.785371 187.776 
L 198.28537 187.776 
z
" clip-path="url(#p7867457ccb)" style="opacity: 0.5"/>
   </g>
   <g id="patch_15">
    <path d="M 211.78537 201.6 
L 225.28537 201.6 
L 225.28537 106.128 
L 211.78537 106.128 
z
" clip-path="url(#p7867457ccb)" style="opacity: 0.5"/>
   </g>
   <g id="patch_16">
    <path d="M 225.285371 201.6 
L 238.785371 201.6 
L 238.785371 199.44 
L 225.285371 199.44 
z
" clip-path="url(#p7867457ccb)" style="opacity: 0.5"/>
   </g>
   <g id="patch_17">
    <path d="M 238.785371 201.6 
L 252.285371 201.6 
L 252.285371 201.168 
L 238.785371 201.168 
z
" clip-path="url(#p7867457ccb)" style="opacity: 0.5"/>
   </g>
   <g id="matplotlib.axis_1">
    <g id="xtick_1">
     <g id="line2d_1">
      <defs>
       <path id="m16ee789516" d="M 0 0 
L 0 3.5 
" style="stroke: #000000; stroke-width: 0.8"/>
      </defs>
      <g>
       <use xlink:href="#m16ee789516" x="113.784266" y="201.6" style="stroke: #000000; stroke-width: 0.8"/>
      </g>
     </g>
     <g id="text_1">
      <!-- −1 -->
      <g transform="translate(105.215985 221.956562)scale(0.18 -0.18)">
       <defs>
        <path id="Montserrat-Medium-2212" d="M 429 2490 
L 3296 2490 
L 3296 1984 
L 429 1984 
L 429 2490 
z
" transform="scale(0.015625)"/>
        <path id="Montserrat-Medium-31" d="M 1696 4480 
L 1696 0 
L 1062 0 
L 1062 3923 
L 51 3923 
L 51 4480 
L 1696 4480 
z
" transform="scale(0.015625)"/>
       </defs>
       <use xlink:href="#Montserrat-Medium-2212"/>
       <use xlink:href="#Montserrat-Medium-31" x="58.199997"/>
      </g>
     </g>
    </g>
    <g id="xtick_2">
     <g id="line2d_2">
      <g>
       <use xlink:href="#m16ee789516" x="215.961186" y="201.6" style="stroke: #000000; stroke-width: 0.8"/>
      </g>
     </g>
     <g id="text_2">
      <!-- 0 -->
      <g transform="translate(209.957904 221.956562)scale(0.18 -0.18)">
       <defs>
        <path id="Montserrat-Medium-30" d="M 2138 -51 
Q 1606 -51 1193 221 
Q 781 493 544 1011 
Q 307 1530 307 2240 
Q 307 2950 544 3468 
Q 781 3987 1193 4259 
Q 1606 4531 2138 4531 
Q 2662 4531 3075 4259 
Q 3488 3987 3725 3468 
Q 3962 2950 3962 2240 
Q 3962 1530 3725 1011 
Q 3488 493 3075 221 
Q 2662 -51 2138 -51 
z
M 2138 518 
Q 2675 518 2998 960 
Q 3322 1402 3322 2240 
Q 3322 3078 2998 3520 
Q 2675 3962 2138 3962 
Q 1594 3962 1270 3520 
Q 947 3078 947 2240 
Q 947 1402 1270 960 
Q 1594 518 2138 518 
z
" transform="scale(0.015625)"/>
       </defs>
       <use xlink:href="#Montserrat-Medium-30"/>
      </g>
     </g>
    </g>
    <g id="xtick_3">
     <g id="line2d_3">
      <g>
       <use xlink:href="#m16ee789516" x="318.138105" y="201.6" style="stroke: #000000; stroke-width: 0.8"/>
      </g>
     </g>
     <g id="text_3">
      <!-- 1 -->
      <g transform="translate(314.808105 221.956562)scale(0.18 -0.18)">
       <use xlink:href="#Montserrat-Medium-31"/>
      </g>
     </g>
    </g>
   </g>
   <g id="matplotlib.axis_2">
    <g id="ytick_1">
     <g id="line2d_4">
      <defs>
       <path id="mfbd4e0836d" d="M 0 0 
L -3.5 0 
" style="stroke: #000000; stroke-width: 0.8"/>
      </defs>
      <g>
       <use xlink:href="#mfbd4e0836d" x="71.105938" y="201.6" style="stroke: #000000; stroke-width: 0.8"/>
      </g>
     </g>
     <g id="text_4">
      <!-- 0 -->
      <g transform="translate(52.099375 208.278281)scale(0.18 -0.18)">
       <use xlink:href="#Montserrat-Medium-30"/>
      </g>
     </g>
    </g>
    <g id="ytick_2">
     <g id="line2d_5">
      <g>
       <use xlink:href="#mfbd4e0836d" x="71.105938" y="158.4" style="stroke: #000000; stroke-width: 0.8"/>
      </g>
     </g>
     <g id="text_5">
      <!-- 100 -->
      <g transform="translate(33.432813 165.078281)scale(0.18 -0.18)">
       <use xlink:href="#Montserrat-Medium-31"/>
       <use xlink:href="#Montserrat-Medium-30" x="36.999985"/>
       <use xlink:href="#Montserrat-Medium-30" x="103.699982"/>
      </g>
     </g>
    </g>
    <g id="ytick_3">
     <g id="line2d_6">
      <g>
       <use xlink:href="#mfbd4e0836d" x="71.105938" y="115.2" style="stroke: #000000; stroke-width: 0.8"/>
      </g>
     </g>
     <g id="text_6">
      <!-- 200 -->
      <g transform="translate(29.759688 121.878281)scale(0.18 -0.18)">
       <defs>
        <path id="Montserrat-Medium-32" d="M 3456 557 
L 3456 0 
L 237 0 
L 237 435 
L 2061 2195 
Q 2394 2515 2509 2748 
Q 2624 2982 2624 3219 
Q 2624 3571 2377 3766 
Q 2131 3962 1670 3962 
Q 928 3962 525 3475 
L 90 3853 
Q 352 4173 777 4352 
Q 1203 4531 1728 4531 
Q 2432 4531 2848 4195 
Q 3264 3859 3264 3283 
Q 3264 2925 3110 2605 
Q 2957 2285 2528 1875 
L 1158 557 
L 3456 557 
z
" transform="scale(0.015625)"/>
       </defs>
       <use xlink:href="#Montserrat-Medium-32"/>
       <use xlink:href="#Montserrat-Medium-30" x="57.399994"/>
       <use xlink:href="#Montserrat-Medium-30" x="124.099991"/>
      </g>
     </g>
    </g>
    <g id="ytick_4">
     <g id="line2d_7">
      <g>
       <use xlink:href="#mfbd4e0836d" x="71.105938" y="72" style="stroke: #000000; stroke-width: 0.8"/>
      </g>
     </g>
     <g id="text_7">
      <!-- 300 -->
      <g transform="translate(29.79625 78.678281)scale(0.18 -0.18)">
       <defs>
        <path id="Montserrat-Medium-33" d="M 2022 2598 
Q 2682 2534 3027 2192 
Q 3373 1850 3373 1318 
Q 3373 934 3181 624 
Q 2989 314 2608 131 
Q 2227 -51 1677 -51 
Q 1197 -51 755 93 
Q 314 237 32 493 
L 326 998 
Q 557 781 915 649 
Q 1274 518 1677 518 
Q 2176 518 2454 729 
Q 2733 941 2733 1312 
Q 2733 1683 2457 1888 
Q 2182 2093 1626 2093 
L 1267 2093 
L 1267 2541 
L 2394 3923 
L 237 3923 
L 237 4480 
L 3194 4480 
L 3194 4045 
L 2022 2598 
z
" transform="scale(0.015625)"/>
       </defs>
       <use xlink:href="#Montserrat-Medium-33"/>
       <use xlink:href="#Montserrat-Medium-30" x="57.199997"/>
       <use xlink:href="#Montserrat-Medium-30" x="123.899994"/>
      </g>
     </g>
    </g>
    <g id="text_8">
     <!-- Count -->
     <g transform="translate(22.266563 154.17)rotate(-90)scale(0.18 -0.18)">
      <defs>
       <path id="Montserrat-Medium-43" d="M 2675 -51 
Q 2003 -51 1462 246 
Q 922 544 614 1065 
Q 307 1587 307 2240 
Q 307 2893 614 3414 
Q 922 3936 1466 4233 
Q 2010 4531 2682 4531 
Q 3206 4531 3641 4355 
Q 4077 4179 4384 3834 
L 3968 3430 
Q 3462 3962 2707 3962 
Q 2208 3962 1805 3738 
Q 1402 3514 1174 3120 
Q 947 2726 947 2240 
Q 947 1754 1174 1360 
Q 1402 966 1805 742 
Q 2208 518 2707 518 
Q 3456 518 3968 1056 
L 4384 653 
Q 4077 307 3638 128 
Q 3200 -51 2675 -51 
z
" transform="scale(0.015625)"/>
       <path id="Montserrat-Medium-6f" d="M 2035 -38 
Q 1530 -38 1126 186 
Q 723 410 496 803 
Q 269 1197 269 1696 
Q 269 2195 496 2588 
Q 723 2982 1126 3203 
Q 1530 3424 2035 3424 
Q 2541 3424 2941 3203 
Q 3341 2982 3568 2588 
Q 3795 2195 3795 1696 
Q 3795 1197 3568 803 
Q 3341 410 2941 186 
Q 2541 -38 2035 -38 
z
M 2035 499 
Q 2362 499 2621 649 
Q 2880 800 3027 1072 
Q 3174 1344 3174 1696 
Q 3174 2048 3027 2320 
Q 2880 2592 2621 2739 
Q 2362 2886 2035 2886 
Q 1709 2886 1449 2739 
Q 1190 2592 1040 2320 
Q 890 2048 890 1696 
Q 890 1344 1040 1072 
Q 1190 800 1449 649 
Q 1709 499 2035 499 
z
" transform="scale(0.015625)"/>
       <path id="Montserrat-Medium-75" d="M 3744 3392 
L 3744 0 
L 3162 0 
L 3162 512 
Q 2976 250 2672 106 
Q 2368 -38 2010 -38 
Q 1331 -38 940 336 
Q 550 710 550 1440 
L 550 3392 
L 1165 3392 
L 1165 1510 
Q 1165 1018 1401 765 
Q 1638 512 2080 512 
Q 2566 512 2848 806 
Q 3130 1101 3130 1638 
L 3130 3392 
L 3744 3392 
z
" transform="scale(0.015625)"/>
       <path id="Montserrat-Medium-6e" d="M 2394 3424 
Q 3040 3424 3421 3049 
Q 3802 2675 3802 1952 
L 3802 0 
L 3187 0 
L 3187 1882 
Q 3187 2374 2950 2624 
Q 2714 2874 2272 2874 
Q 1773 2874 1485 2582 
Q 1197 2291 1197 1747 
L 1197 0 
L 582 0 
L 582 3392 
L 1171 3392 
L 1171 2880 
Q 1357 3142 1673 3283 
Q 1990 3424 2394 3424 
z
" transform="scale(0.015625)"/>
       <path id="Montserrat-Medium-74" d="M 2490 198 
Q 2355 83 2156 22 
Q 1958 -38 1747 -38 
Q 1235 -38 953 237 
Q 672 512 672 1024 
L 672 2886 
L 96 2886 
L 96 3392 
L 672 3392 
L 672 4134 
L 1286 4134 
L 1286 3392 
L 2259 3392 
L 2259 2886 
L 1286 2886 
L 1286 1050 
Q 1286 774 1424 627 
Q 1562 480 1818 480 
Q 2099 480 2298 640 
L 2490 198 
z
" transform="scale(0.015625)"/>
      </defs>
      <use xlink:href="#Montserrat-Medium-43"/>
      <use xlink:href="#Montserrat-Medium-6f" x="72.299988"/>
      <use xlink:href="#Montserrat-Medium-75" x="135.799973"/>
      <use xlink:href="#Montserrat-Medium-6e" x="203.499954"/>
      <use xlink:href="#Montserrat-Medium-74" x="271.599945"/>
     </g>
    </g>
   </g>
   <g id="patch_18">
    <path d="M 71.105938 201.6 
L 71.105938 50.4 
" style="fill: none; stroke: #000000; stroke-width: 0.8; stroke-linejoin: miter; stroke-linecap: square"/>
   </g>
   <g id="patch_19">
    <path d="M 375.469574 201.6 
L 375.469574 50.4 
" style="fill: none; stroke: #000000; stroke-width: 0.8; stroke-linejoin: miter; stroke-linecap: square"/>
   </g>
   <g id="patch_20">
    <path d="M 71.105938 201.6 
L 375.469574 201.6 
" style="fill: none; stroke: #000000; stroke-width: 0.8; stroke-linejoin: miter; stroke-linecap: square"/>
   </g>
   <g id="patch_21">
    <path d="M 71.105938 50.4 
L 375.469574 50.4 
" style="fill: none; stroke: #000000; stroke-width: 0.8; stroke-linejoin: miter; stroke-linecap: square"/>
   </g>
   <g id="text_9">
    <!-- Layer 1 -->
    <g transform="translate(113.784266 136.8)scale(0.18 -0.18)">
     <defs>
      <path id="Montserrat-Medium-4c" d="M 672 4480 
L 1312 4480 
L 1312 557 
L 3738 557 
L 3738 0 
L 672 0 
L 672 4480 
z
" transform="scale(0.015625)"/>
      <path id="Montserrat-Medium-61" d="M 1818 3424 
Q 2522 3424 2896 3078 
Q 3270 2733 3270 2048 
L 3270 0 
L 2688 0 
L 2688 448 
Q 2534 211 2249 86 
Q 1965 -38 1574 -38 
Q 1005 -38 662 237 
Q 320 512 320 960 
Q 320 1408 646 1680 
Q 973 1952 1683 1952 
L 2656 1952 
L 2656 2074 
Q 2656 2470 2425 2681 
Q 2195 2893 1747 2893 
Q 1446 2893 1158 2793 
Q 870 2694 672 2528 
L 416 2989 
Q 678 3200 1043 3312 
Q 1408 3424 1818 3424 
z
M 1677 435 
Q 2029 435 2285 592 
Q 2541 749 2656 1037 
L 2656 1510 
L 1709 1510 
Q 928 1510 928 986 
Q 928 730 1126 582 
Q 1325 435 1677 435 
z
" transform="scale(0.015625)"/>
      <path id="Montserrat-Medium-79" d="M 3584 3392 
L 1939 -339 
Q 1722 -858 1430 -1069 
Q 1139 -1280 730 -1280 
Q 480 -1280 246 -1200 
Q 13 -1120 -141 -966 
L 122 -506 
Q 384 -755 730 -755 
Q 954 -755 1104 -636 
Q 1254 -518 1376 -230 
L 1485 6 
L -13 3392 
L 627 3392 
L 1811 678 
L 2982 3392 
L 3584 3392 
z
" transform="scale(0.015625)"/>
      <path id="Montserrat-Medium-65" d="M 3648 1677 
Q 3648 1606 3635 1491 
L 883 1491 
Q 941 1043 1277 771 
Q 1613 499 2112 499 
Q 2720 499 3091 909 
L 3430 512 
Q 3200 243 2857 102 
Q 2515 -38 2093 -38 
Q 1555 -38 1139 182 
Q 723 403 496 800 
Q 269 1197 269 1696 
Q 269 2189 489 2585 
Q 710 2982 1097 3203 
Q 1485 3424 1971 3424 
Q 2458 3424 2838 3203 
Q 3219 2982 3433 2585 
Q 3648 2189 3648 1677 
z
M 1971 2906 
Q 1530 2906 1232 2637 
Q 934 2368 883 1933 
L 3059 1933 
Q 3008 2362 2710 2634 
Q 2413 2906 1971 2906 
z
" transform="scale(0.015625)"/>
      <path id="Montserrat-Medium-72" d="M 1171 2822 
Q 1331 3117 1644 3270 
Q 1958 3424 2406 3424 
L 2406 2829 
Q 2355 2835 2266 2835 
Q 1766 2835 1481 2537 
Q 1197 2240 1197 1690 
L 1197 0 
L 582 0 
L 582 3392 
L 1171 3392 
L 1171 2822 
z
" transform="scale(0.015625)"/>
      <path id="Montserrat-Medium-20" transform="scale(0.015625)"/>
     </defs>
     <use xlink:href="#Montserrat-Medium-4c"/>
     <use xlink:href="#Montserrat-Medium-61" x="59.399994"/>
     <use xlink:href="#Montserrat-Medium-79" x="119.199982"/>
     <use xlink:href="#Montserrat-Medium-65" x="175.099976"/>
     <use xlink:href="#Montserrat-Medium-72" x="236.299973"/>
     <use xlink:href="#Montserrat-Medium-20" x="277.299957"/>
     <use xlink:href="#Montserrat-Medium-31" x="304.199951"/>
    </g>
   </g>
  </g>
  <g id="axes_2">
   <g id="patch_22">
    <path d="M 436.342301 201.6 
L 740.705937 201.6 
L 740.705937 50.4 
L 436.342301 50.4 
z
" style="fill: #f1f7f0"/>
   </g>
   <g id="patch_23">
    <path d="M 450.177012 201.6 
L 477.846437 201.6 
L 477.846437 198.576 
L 450.177012 198.576 
z
" clip-path="url(#p646b486483)" style="opacity: 0.25"/>
   </g>
   <g id="patch_24">
    <path d="M 477.846424 201.6 
L 505.515837 201.6 
L 505.515837 199.008 
L 477.846424 199.008 
z
" clip-path="url(#p646b486483)" style="opacity: 0.25"/>
   </g>
   <g id="patch_25">
    <path d="M 505.515843 201.6 
L 533.185269 201.6 
L 533.185269 198.576 
L 505.515843 198.576 
z
" clip-path="url(#p646b486483)" style="opacity: 0.25"/>
   </g>
   <g id="patch_26">
    <path d="M 533.185269 201.6 
L 560.854694 201.6 
L 560.854694 186.48 
L 533.185269 186.48 
z
" clip-path="url(#p646b486483)" style="opacity: 0.25"/>
   </g>
   <g id="patch_27">
    <path d="M 560.854688 201.6 
L 588.524113 201.6 
L 588.524113 175.68 
L 560.854688 175.68 
z
" clip-path="url(#p646b486483)" style="opacity: 0.25"/>
   </g>
   <g id="patch_28">
    <path d="M 588.524111 201.6 
L 616.193537 201.6 
L 616.193537 157.968 
L 588.524111 157.968 
z
" clip-path="url(#p646b486483)" style="opacity: 0.25"/>
   </g>
   <g id="patch_29">
    <path d="M 616.193535 201.6 
L 643.86296 201.6 
L 643.86296 162.288 
L 616.193535 162.288 
z
" clip-path="url(#p646b486483)" style="opacity: 0.25"/>
   </g>
   <g id="patch_30">
    <path d="M 643.862957 201.6 
L 671.532383 201.6 
L 671.532383 173.952 
L 643.862957 173.952 
z
" clip-path="url(#p646b486483)" style="opacity: 0.25"/>
   </g>
   <g id="patch_31">
    <path d="M 671.532389 201.6 
L 699.201801 201.6 
L 699.201801 192.096 
L 671.532389 192.096 
z
" clip-path="url(#p646b486483)" style="opacity: 0.25"/>
   </g>
   <g id="patch_32">
    <path d="M 699.201801 201.6 
L 726.871227 201.6 
L 726.871227 198.576 
L 699.201801 198.576 
z
" clip-path="url(#p646b486483)" style="opacity: 0.25"/>
   </g>
   <g id="patch_33">
    <path d="M 599.002832 201.6 
L 608.922196 201.6 
L 608.922196 180.432 
L 599.002832 180.432 
z
" clip-path="url(#p646b486483)" style="opacity: 0.5"/>
   </g>
   <g id="patch_34">
    <path d="M 608.922196 201.6 
L 618.841561 201.6 
L 618.841561 56.88 
L 608.922196 56.88 
z
" clip-path="url(#p646b486483)" style="opacity: 0.5"/>
   </g>
   <g id="patch_35">
    <path d="M 618.841561 201.6 
L 628.760924 201.6 
L 628.760924 195.552 
L 618.841561 195.552 
z
" clip-path="url(#p646b486483)" style="opacity: 0.5"/>
   </g>
   <g id="patch_36">
    <path d="M 628.760924 201.6 
L 638.680288 201.6 
L 638.680288 201.168 
L 628.760924 201.168 
z
" clip-path="url(#p646b486483)" style="opacity: 0.5"/>
   </g>
   <g id="patch_37">
    <path d="M 638.680285 201.6 
L 648.599648 201.6 
L 648.599648 201.168 
L 638.680285 201.168 
z
" clip-path="url(#p646b486483)" style="opacity: 0.5"/>
   </g>
   <g id="matplotlib.axis_3">
    <g id="xtick_4">
     <g id="line2d_8">
      <g>
       <use xlink:href="#m16ee789516" x="503.283181" y="201.6" style="stroke: #000000; stroke-width: 0.8"/>
      </g>
     </g>
     <g id="text_10">
      <!-- −1 -->
      <g transform="translate(494.7149 221.956562)scale(0.18 -0.18)">
       <use xlink:href="#Montserrat-Medium-2212"/>
       <use xlink:href="#Montserrat-Medium-31" x="58.199997"/>
      </g>
     </g>
    </g>
    <g id="xtick_5">
     <g id="line2d_9">
      <g>
       <use xlink:href="#m16ee789516" x="609.734752" y="201.6" style="stroke: #000000; stroke-width: 0.8"/>
      </g>
     </g>
     <g id="text_11">
      <!-- 0 -->
      <g transform="translate(603.73147 221.956562)scale(0.18 -0.18)">
       <use xlink:href="#Montserrat-Medium-30"/>
      </g>
     </g>
    </g>
    <g id="xtick_6">
     <g id="line2d_10">
      <g>
       <use xlink:href="#m16ee789516" x="716.186322" y="201.6" style="stroke: #000000; stroke-width: 0.8"/>
      </g>
     </g>
     <g id="text_12">
      <!-- 1 -->
      <g transform="translate(712.856322 221.956562)scale(0.18 -0.18)">
       <use xlink:href="#Montserrat-Medium-31"/>
      </g>
     </g>
    </g>
   </g>
   <g id="matplotlib.axis_4">
    <g id="ytick_5">
     <g id="line2d_11">
      <g>
       <use xlink:href="#mfbd4e0836d" x="436.342301" y="201.6" style="stroke: #000000; stroke-width: 0.8"/>
      </g>
     </g>
     <g id="text_13">
      <!-- 0 -->
      <g transform="translate(417.335739 208.278281)scale(0.18 -0.18)">
       <use xlink:href="#Montserrat-Medium-30"/>
      </g>
     </g>
    </g>
    <g id="ytick_6">
     <g id="line2d_12">
      <g>
       <use xlink:href="#mfbd4e0836d" x="436.342301" y="158.4" style="stroke: #000000; stroke-width: 0.8"/>
      </g>
     </g>
     <g id="text_14">
      <!-- 100 -->
      <g transform="translate(398.669176 165.078281)scale(0.18 -0.18)">
       <use xlink:href="#Montserrat-Medium-31"/>
       <use xlink:href="#Montserrat-Medium-30" x="36.999985"/>
       <use xlink:href="#Montserrat-Medium-30" x="103.699982"/>
      </g>
     </g>
    </g>
    <g id="ytick_7">
     <g id="line2d_13">
      <g>
       <use xlink:href="#mfbd4e0836d" x="436.342301" y="115.2" style="stroke: #000000; stroke-width: 0.8"/>
      </g>
     </g>
     <g id="text_15">
      <!-- 200 -->
      <g transform="translate(394.996051 121.878281)scale(0.18 -0.18)">
       <use xlink:href="#Montserrat-Medium-32"/>
       <use xlink:href="#Montserrat-Medium-30" x="57.399994"/>
       <use xlink:href="#Montserrat-Medium-30" x="124.099991"/>
      </g>
     </g>
    </g>
    <g id="ytick_8">
     <g id="line2d_14">
      <g>
       <use xlink:href="#mfbd4e0836d" x="436.342301" y="72" style="stroke: #000000; stroke-width: 0.8"/>
      </g>
     </g>
     <g id="text_16">
      <!-- 300 -->
      <g transform="translate(395.032614 78.678281)scale(0.18 -0.18)">
       <use xlink:href="#Montserrat-Medium-33"/>
       <use xlink:href="#Montserrat-Medium-30" x="57.199997"/>
       <use xlink:href="#Montserrat-Medium-30" x="123.899994"/>
      </g>
     </g>
    </g>
   </g>
   <g id="patch_38">
    <path d="M 436.342301 201.6 
L 436.342301 50.4 
" style="fill: none; stroke: #000000; stroke-width: 0.8; stroke-linejoin: miter; stroke-linecap: square"/>
   </g>
   <g id="patch_39">
    <path d="M 740.705937 201.6 
L 740.705937 50.4 
" style="fill: none; stroke: #000000; stroke-width: 0.8; stroke-linejoin: miter; stroke-linecap: square"/>
   </g>
   <g id="patch_40">
    <path d="M 436.342301 201.6 
L 740.705937 201.6 
" style="fill: none; stroke: #000000; stroke-width: 0.8; stroke-linejoin: miter; stroke-linecap: square"/>
   </g>
   <g id="patch_41">
    <path d="M 436.342301 50.4 
L 740.705937 50.4 
" style="fill: none; stroke: #000000; stroke-width: 0.8; stroke-linejoin: miter; stroke-linecap: square"/>
   </g>
   <g id="text_17">
    <!-- Layer 2 -->
    <g transform="translate(476.670288 136.8)scale(0.18 -0.18)">
     <use xlink:href="#Montserrat-Medium-4c"/>
     <use xlink:href="#Montserrat-Medium-61" x="59.399994"/>
     <use xlink:href="#Montserrat-Medium-79" x="119.199982"/>
     <use xlink:href="#Montserrat-Medium-65" x="175.099976"/>
     <use xlink:href="#Montserrat-Medium-72" x="236.299973"/>
     <use xlink:href="#Montserrat-Medium-20" x="277.299957"/>
     <use xlink:href="#Montserrat-Medium-32" x="304.199951"/>
    </g>
   </g>
  </g>
  <g id="axes_3">
   <g id="patch_42">
    <path d="M 71.105938 383.04 
L 375.469574 383.04 
L 375.469574 231.84 
L 71.105938 231.84 
z
" style="fill: #f1f7f0"/>
   </g>
   <g id="patch_43">
    <path d="M 84.940648 383.04 
L 112.610075 383.04 
L 112.610075 381.906 
L 84.940648 381.906 
z
" clip-path="url(#p7baa0e97a5)" style="opacity: 0.25"/>
   </g>
   <g id="patch_44">
    <path d="M 112.610075 383.04 
L 140.279488 383.04 
L 140.279488 382.662 
L 112.610075 382.662 
z
" clip-path="url(#p7baa0e97a5)" style="opacity: 0.25"/>
   </g>
   <g id="patch_45">
    <path d="M 140.279488 383.04 
L 167.948916 383.04 
L 167.948916 381.906 
L 140.279488 381.906 
z
" clip-path="url(#p7baa0e97a5)" style="opacity: 0.25"/>
   </g>
   <g id="patch_46">
    <path d="M 167.948908 383.04 
L 195.618336 383.04 
L 195.618336 380.394 
L 167.948908 380.394 
z
" clip-path="url(#p7baa0e97a5)" style="opacity: 0.25"/>
   </g>
   <g id="patch_47">
    <path d="M 195.618328 383.04 
L 223.287756 383.04 
L 223.287756 366.408 
L 195.618328 366.408 
z
" clip-path="url(#p7baa0e97a5)" style="opacity: 0.25"/>
   </g>
   <g id="patch_48">
    <path d="M 223.287749 383.04 
L 250.957176 383.04 
L 250.957176 322.182 
L 223.287749 322.182 
z
" clip-path="url(#p7baa0e97a5)" style="opacity: 0.25"/>
   </g>
   <g id="patch_49">
    <path d="M 250.957169 383.04 
L 278.626596 383.04 
L 278.626596 333.9 
L 250.957169 333.9 
z
" clip-path="url(#p7baa0e97a5)" style="opacity: 0.25"/>
   </g>
   <g id="patch_50">
    <path d="M 278.626589 383.04 
L 306.296016 383.04 
L 306.296016 366.408 
L 278.626589 366.408 
z
" clip-path="url(#p7baa0e97a5)" style="opacity: 0.25"/>
   </g>
   <g id="patch_51">
    <path d="M 306.296009 383.04 
L 333.965436 383.04 
L 333.965436 381.15 
L 306.296009 381.15 
z
" clip-path="url(#p7baa0e97a5)" style="opacity: 0.25"/>
   </g>
   <g id="patch_52">
    <path d="M 333.965436 383.04 
L 361.634863 383.04 
L 361.634863 382.284 
L 333.965436 382.284 
z
" clip-path="url(#p7baa0e97a5)" style="opacity: 0.25"/>
   </g>
   <g id="patch_53">
    <path d="M 244.547083 383.04 
L 251.640317 383.04 
L 251.640317 235.242 
L 244.547083 235.242 
z
" clip-path="url(#p7baa0e97a5)" style="opacity: 0.5"/>
   </g>
   <g id="patch_54">
    <path d="M 251.640317 383.04 
L 258.733551 383.04 
L 258.733551 381.15 
L 251.640317 381.15 
z
" clip-path="url(#p7baa0e97a5)" style="opacity: 0.5"/>
   </g>
   <g id="patch_55">
    <path d="M 258.733552 383.04 
L 265.826786 383.04 
L 265.826786 381.906 
L 258.733552 381.906 
z
" clip-path="url(#p7baa0e97a5)" style="opacity: 0.5"/>
   </g>
   <g id="patch_56">
    <path d="M 265.826786 383.04 
L 272.92002 383.04 
L 272.92002 383.04 
L 265.826786 383.04 
z
" clip-path="url(#p7baa0e97a5)" style="opacity: 0.5"/>
   </g>
   <g id="patch_57">
    <path d="M 272.92002 383.04 
L 280.013253 383.04 
L 280.013253 382.662 
L 272.92002 382.662 
z
" clip-path="url(#p7baa0e97a5)" style="opacity: 0.5"/>
   </g>
   <g id="matplotlib.axis_5">
    <g id="xtick_7">
     <g id="line2d_15">
      <g>
       <use xlink:href="#m16ee789516" x="126.606956" y="383.04" style="stroke: #000000; stroke-width: 0.8"/>
      </g>
     </g>
     <g id="text_18">
      <!-- −2 -->
      <g transform="translate(116.202112 403.396562)scale(0.18 -0.18)">
       <use xlink:href="#Montserrat-Medium-2212"/>
       <use xlink:href="#Montserrat-Medium-32" x="58.199997"/>
      </g>
     </g>
    </g>
    <g id="xtick_8">
     <g id="line2d_16">
      <g>
       <use xlink:href="#m16ee789516" x="246.970939" y="383.04" style="stroke: #000000; stroke-width: 0.8"/>
      </g>
     </g>
     <g id="text_19">
      <!-- 0 -->
      <g transform="translate(240.967657 403.396562)scale(0.18 -0.18)">
       <use xlink:href="#Montserrat-Medium-30"/>
      </g>
     </g>
    </g>
    <g id="xtick_9">
     <g id="line2d_17">
      <g>
       <use xlink:href="#m16ee789516" x="367.334921" y="383.04" style="stroke: #000000; stroke-width: 0.8"/>
      </g>
     </g>
     <g id="text_20">
      <!-- 2 -->
      <g transform="translate(362.168359 403.396562)scale(0.18 -0.18)">
       <use xlink:href="#Montserrat-Medium-32"/>
      </g>
     </g>
    </g>
    <g id="text_21">
     <!-- Weights -->
     <g transform="translate(184.561037 424.51625)scale(0.18 -0.18)">
      <defs>
       <path id="Montserrat-Medium-57" d="M 7002 4480 
L 5504 0 
L 4832 0 
L 3610 3578 
L 2387 0 
L 1702 0 
L 205 4480 
L 864 4480 
L 2074 838 
L 3334 4480 
L 3923 4480 
L 5158 819 
L 6394 4480 
L 7002 4480 
z
" transform="scale(0.015625)"/>
       <path id="Montserrat-Medium-69" d="M 582 3392 
L 1197 3392 
L 1197 0 
L 582 0 
L 582 3392 
z
M 890 4045 
Q 710 4045 592 4160 
Q 474 4275 474 4442 
Q 474 4608 592 4726 
Q 710 4845 890 4845 
Q 1069 4845 1187 4733 
Q 1306 4621 1306 4454 
Q 1306 4282 1187 4163 
Q 1069 4045 890 4045 
z
" transform="scale(0.015625)"/>
       <path id="Montserrat-Medium-67" d="M 3827 3392 
L 3827 461 
Q 3827 -429 3385 -854 
Q 2944 -1280 2067 -1280 
Q 1587 -1280 1152 -1149 
Q 717 -1018 448 -774 
L 742 -301 
Q 979 -506 1328 -624 
Q 1677 -742 2048 -742 
Q 2643 -742 2928 -460 
Q 3213 -179 3213 397 
L 3213 666 
Q 2995 403 2678 272 
Q 2362 141 1990 141 
Q 1504 141 1110 349 
Q 717 557 493 931 
Q 269 1306 269 1786 
Q 269 2266 493 2640 
Q 717 3014 1110 3219 
Q 1504 3424 1990 3424 
Q 2374 3424 2704 3283 
Q 3034 3142 3245 2867 
L 3245 3392 
L 3827 3392 
z
M 2061 678 
Q 2394 678 2659 819 
Q 2925 960 3075 1213 
Q 3226 1466 3226 1786 
Q 3226 2278 2899 2582 
Q 2573 2886 2061 2886 
Q 1542 2886 1216 2582 
Q 890 2278 890 1786 
Q 890 1466 1040 1213 
Q 1190 960 1456 819 
Q 1722 678 2061 678 
z
" transform="scale(0.015625)"/>
       <path id="Montserrat-Medium-68" d="M 2394 3424 
Q 3040 3424 3421 3049 
Q 3802 2675 3802 1952 
L 3802 0 
L 3187 0 
L 3187 1882 
Q 3187 2374 2950 2624 
Q 2714 2874 2272 2874 
Q 1773 2874 1485 2582 
Q 1197 2291 1197 1747 
L 1197 0 
L 582 0 
L 582 4749 
L 1197 4749 
L 1197 2912 
Q 1389 3155 1699 3289 
Q 2010 3424 2394 3424 
z
" transform="scale(0.015625)"/>
       <path id="Montserrat-Medium-73" d="M 1555 -38 
Q 1139 -38 755 74 
Q 371 186 154 358 
L 410 845 
Q 634 685 954 589 
Q 1274 493 1600 493 
Q 2406 493 2406 954 
Q 2406 1107 2297 1196 
Q 2189 1286 2025 1328 
Q 1862 1370 1562 1421 
Q 1152 1485 893 1568 
Q 634 1651 448 1849 
Q 262 2048 262 2406 
Q 262 2867 646 3145 
Q 1030 3424 1677 3424 
Q 2016 3424 2355 3341 
Q 2694 3258 2912 3117 
L 2650 2630 
Q 2234 2899 1670 2899 
Q 1280 2899 1075 2771 
Q 870 2643 870 2432 
Q 870 2266 985 2170 
Q 1101 2074 1270 2029 
Q 1440 1984 1747 1926 
Q 2157 1856 2409 1776 
Q 2662 1696 2841 1504 
Q 3021 1312 3021 966 
Q 3021 506 2627 234 
Q 2234 -38 1555 -38 
z
" transform="scale(0.015625)"/>
      </defs>
      <use xlink:href="#Montserrat-Medium-57"/>
      <use xlink:href="#Montserrat-Medium-65" x="112.599991"/>
      <use xlink:href="#Montserrat-Medium-69" x="173.799988"/>
      <use xlink:href="#Montserrat-Medium-67" x="201.699982"/>
      <use xlink:href="#Montserrat-Medium-68" x="270.699966"/>
      <use xlink:href="#Montserrat-Medium-74" x="338.799957"/>
      <use xlink:href="#Montserrat-Medium-73" x="380.199951"/>
     </g>
    </g>
   </g>
   <g id="matplotlib.axis_6">
    <g id="ytick_9">
     <g id="line2d_18">
      <g>
       <use xlink:href="#mfbd4e0836d" x="71.105938" y="383.04" style="stroke: #000000; stroke-width: 0.8"/>
      </g>
     </g>
     <g id="text_22">
      <!-- 0 -->
      <g transform="translate(52.099375 389.718281)scale(0.18 -0.18)">
       <use xlink:href="#Montserrat-Medium-30"/>
      </g>
     </g>
    </g>
    <g id="ytick_10">
     <g id="line2d_19">
      <g>
       <use xlink:href="#mfbd4e0836d" x="71.105938" y="345.24" style="stroke: #000000; stroke-width: 0.8"/>
      </g>
     </g>
     <g id="text_23">
      <!-- 100 -->
      <g transform="translate(33.432813 351.918281)scale(0.18 -0.18)">
       <use xlink:href="#Montserrat-Medium-31"/>
       <use xlink:href="#Montserrat-Medium-30" x="36.999985"/>
       <use xlink:href="#Montserrat-Medium-30" x="103.699982"/>
      </g>
     </g>
    </g>
    <g id="ytick_11">
     <g id="line2d_20">
      <g>
       <use xlink:href="#mfbd4e0836d" x="71.105938" y="307.44" style="stroke: #000000; stroke-width: 0.8"/>
      </g>
     </g>
     <g id="text_24">
      <!-- 200 -->
      <g transform="translate(29.759688 314.118281)scale(0.18 -0.18)">
       <use xlink:href="#Montserrat-Medium-32"/>
       <use xlink:href="#Montserrat-Medium-30" x="57.399994"/>
       <use xlink:href="#Montserrat-Medium-30" x="124.099991"/>
      </g>
     </g>
    </g>
    <g id="ytick_12">
     <g id="line2d_21">
      <g>
       <use xlink:href="#mfbd4e0836d" x="71.105938" y="269.64" style="stroke: #000000; stroke-width: 0.8"/>
      </g>
     </g>
     <g id="text_25">
      <!-- 300 -->
      <g transform="translate(29.79625 276.318281)scale(0.18 -0.18)">
       <use xlink:href="#Montserrat-Medium-33"/>
       <use xlink:href="#Montserrat-Medium-30" x="57.199997"/>
       <use xlink:href="#Montserrat-Medium-30" x="123.899994"/>
      </g>
     </g>
    </g>
    <g id="ytick_13">
     <g id="line2d_22">
      <g>
       <use xlink:href="#mfbd4e0836d" x="71.105938" y="231.84" style="stroke: #000000; stroke-width: 0.8"/>
      </g>
     </g>
     <g id="text_26">
      <!-- 400 -->
      <g transform="translate(28.049688 238.518281)scale(0.18 -0.18)">
       <defs>
        <path id="Montserrat-Medium-34" d="M 4205 1101 
L 3354 1101 
L 3354 0 
L 2733 0 
L 2733 1101 
L 243 1101 
L 243 1549 
L 2534 4480 
L 3226 4480 
L 1030 1651 
L 2752 1651 
L 2752 2624 
L 3354 2624 
L 3354 1651 
L 4205 1651 
L 4205 1101 
z
" transform="scale(0.015625)"/>
       </defs>
       <use xlink:href="#Montserrat-Medium-34"/>
       <use xlink:href="#Montserrat-Medium-30" x="66.899994"/>
       <use xlink:href="#Montserrat-Medium-30" x="133.599991"/>
      </g>
     </g>
    </g>
    <g id="text_27">
     <!-- Count -->
     <g transform="translate(20.556563 335.61)rotate(-90)scale(0.18 -0.18)">
      <use xlink:href="#Montserrat-Medium-43"/>
      <use xlink:href="#Montserrat-Medium-6f" x="72.299988"/>
      <use xlink:href="#Montserrat-Medium-75" x="135.799973"/>
      <use xlink:href="#Montserrat-Medium-6e" x="203.499954"/>
      <use xlink:href="#Montserrat-Medium-74" x="271.599945"/>
     </g>
    </g>
   </g>
   <g id="patch_58">
    <path d="M 71.105938 383.04 
L 71.105938 231.84 
" style="fill: none; stroke: #000000; stroke-width: 0.8; stroke-linejoin: miter; stroke-linecap: square"/>
   </g>
   <g id="patch_59">
    <path d="M 375.469574 383.04 
L 375.469574 231.84 
" style="fill: none; stroke: #000000; stroke-width: 0.8; stroke-linejoin: miter; stroke-linecap: square"/>
   </g>
   <g id="patch_60">
    <path d="M 71.105938 383.04 
L 375.469574 383.04 
" style="fill: none; stroke: #000000; stroke-width: 0.8; stroke-linejoin: miter; stroke-linecap: square"/>
   </g>
   <g id="patch_61">
    <path d="M 71.105938 231.84 
L 375.469574 231.84 
" style="fill: none; stroke: #000000; stroke-width: 0.8; stroke-linejoin: miter; stroke-linecap: square"/>
   </g>
   <g id="text_28">
    <!-- Layer 3 -->
    <g transform="translate(108.552358 326.34)scale(0.18 -0.18)">
     <use xlink:href="#Montserrat-Medium-4c"/>
     <use xlink:href="#Montserrat-Medium-61" x="59.399994"/>
     <use xlink:href="#Montserrat-Medium-79" x="119.199982"/>
     <use xlink:href="#Montserrat-Medium-65" x="175.099976"/>
     <use xlink:href="#Montserrat-Medium-72" x="236.299973"/>
     <use xlink:href="#Montserrat-Medium-20" x="277.299957"/>
     <use xlink:href="#Montserrat-Medium-33" x="304.199951"/>
    </g>
   </g>
  </g>
  <g id="axes_4">
   <g id="patch_62">
    <path d="M 436.342301 383.04 
L 740.705937 383.04 
L 740.705937 231.84 
L 436.342301 231.84 
z
" style="fill: #f1f7f0"/>
   </g>
   <g id="patch_63">
    <path d="M 450.177012 383.04 
L 477.846439 383.04 
L 477.846439 381.906 
L 450.177012 381.906 
z
" clip-path="url(#p11a59ae9e5)" style="opacity: 0.25"/>
   </g>
   <g id="patch_64">
    <path d="M 477.846439 383.04 
L 505.515855 383.04 
L 505.515855 382.284 
L 477.846439 382.284 
z
" clip-path="url(#p11a59ae9e5)" style="opacity: 0.25"/>
   </g>
   <g id="patch_65">
    <path d="M 505.515855 383.04 
L 533.185282 383.04 
L 533.185282 383.04 
L 505.515855 383.04 
z
" clip-path="url(#p11a59ae9e5)" style="opacity: 0.25"/>
   </g>
   <g id="patch_66">
    <path d="M 533.18527 383.04 
L 560.854698 383.04 
L 560.854698 381.528 
L 533.18527 381.528 
z
" clip-path="url(#p11a59ae9e5)" style="opacity: 0.25"/>
   </g>
   <g id="patch_67">
    <path d="M 560.854698 383.04 
L 588.524125 383.04 
L 588.524125 372.078 
L 560.854698 372.078 
z
" clip-path="url(#p11a59ae9e5)" style="opacity: 0.25"/>
   </g>
   <g id="patch_68">
    <path d="M 588.524116 383.04 
L 616.193544 383.04 
L 616.193544 319.158 
L 588.524116 319.158 
z
" clip-path="url(#p11a59ae9e5)" style="opacity: 0.25"/>
   </g>
   <g id="patch_69">
    <path d="M 616.193538 383.04 
L 643.862965 383.04 
L 643.862965 322.938 
L 616.193538 322.938 
z
" clip-path="url(#p11a59ae9e5)" style="opacity: 0.25"/>
   </g>
   <g id="patch_70">
    <path d="M 643.862959 383.04 
L 671.532384 383.04 
L 671.532384 371.7 
L 643.862959 371.7 
z
" clip-path="url(#p11a59ae9e5)" style="opacity: 0.25"/>
   </g>
   <g id="patch_71">
    <path d="M 671.532384 383.04 
L 699.201811 383.04 
L 699.201811 382.284 
L 671.532384 382.284 
z
" clip-path="url(#p11a59ae9e5)" style="opacity: 0.25"/>
   </g>
   <g id="patch_72">
    <path d="M 699.201799 383.04 
L 726.871227 383.04 
L 726.871227 382.284 
L 699.201799 382.284 
z
" clip-path="url(#p11a59ae9e5)" style="opacity: 0.25"/>
   </g>
   <g id="patch_73">
    <path d="M 614.255064 383.04 
L 618.890327 383.04 
L 618.890327 236.754 
L 614.255064 236.754 
z
" clip-path="url(#p11a59ae9e5)" style="opacity: 0.5"/>
   </g>
   <g id="patch_74">
    <path d="M 618.890327 383.04 
L 623.52559 383.04 
L 623.52559 380.394 
L 618.890327 380.394 
z
" clip-path="url(#p11a59ae9e5)" style="opacity: 0.5"/>
   </g>
   <g id="patch_75">
    <path d="M 623.525589 383.04 
L 628.160852 383.04 
L 628.160852 381.906 
L 623.525589 381.906 
z
" clip-path="url(#p11a59ae9e5)" style="opacity: 0.5"/>
   </g>
   <g id="patch_76">
    <path d="M 628.160852 383.04 
L 632.796115 383.04 
L 632.796115 382.662 
L 628.160852 382.662 
z
" clip-path="url(#p11a59ae9e5)" style="opacity: 0.5"/>
   </g>
   <g id="patch_77">
    <path d="M 632.796115 383.04 
L 637.431378 383.04 
L 637.431378 382.284 
L 632.796115 382.284 
z
" clip-path="url(#p11a59ae9e5)" style="opacity: 0.5"/>
   </g>
   <g id="matplotlib.axis_7">
    <g id="xtick_10">
     <g id="line2d_23">
      <g>
       <use xlink:href="#m16ee789516" x="516.001945" y="383.04" style="stroke: #000000; stroke-width: 0.8"/>
      </g>
     </g>
     <g id="text_29">
      <!-- −2 -->
      <g transform="translate(505.597101 403.396562)scale(0.18 -0.18)">
       <use xlink:href="#Montserrat-Medium-2212"/>
       <use xlink:href="#Montserrat-Medium-32" x="58.199997"/>
      </g>
     </g>
    </g>
    <g id="xtick_11">
     <g id="line2d_24">
      <g>
       <use xlink:href="#m16ee789516" x="615.442586" y="383.04" style="stroke: #000000; stroke-width: 0.8"/>
      </g>
     </g>
     <g id="text_30">
      <!-- 0 -->
      <g transform="translate(609.439305 403.396562)scale(0.18 -0.18)">
       <use xlink:href="#Montserrat-Medium-30"/>
      </g>
     </g>
    </g>
    <g id="xtick_12">
     <g id="line2d_25">
      <g>
       <use xlink:href="#m16ee789516" x="714.883227" y="383.04" style="stroke: #000000; stroke-width: 0.8"/>
      </g>
     </g>
     <g id="text_31">
      <!-- 2 -->
      <g transform="translate(709.716665 403.396562)scale(0.18 -0.18)">
       <use xlink:href="#Montserrat-Medium-32"/>
      </g>
     </g>
    </g>
    <g id="text_32">
     <!-- Weights -->
     <g transform="translate(549.797401 424.51625)scale(0.18 -0.18)">
      <use xlink:href="#Montserrat-Medium-57"/>
      <use xlink:href="#Montserrat-Medium-65" x="112.599991"/>
      <use xlink:href="#Montserrat-Medium-69" x="173.799988"/>
      <use xlink:href="#Montserrat-Medium-67" x="201.699982"/>
      <use xlink:href="#Montserrat-Medium-68" x="270.699966"/>
      <use xlink:href="#Montserrat-Medium-74" x="338.799957"/>
      <use xlink:href="#Montserrat-Medium-73" x="380.199951"/>
     </g>
    </g>
   </g>
   <g id="matplotlib.axis_8">
    <g id="ytick_14">
     <g id="line2d_26">
      <g>
       <use xlink:href="#mfbd4e0836d" x="436.342301" y="383.04" style="stroke: #000000; stroke-width: 0.8"/>
      </g>
     </g>
     <g id="text_33">
      <!-- 0 -->
      <g transform="translate(417.335739 389.718281)scale(0.18 -0.18)">
       <use xlink:href="#Montserrat-Medium-30"/>
      </g>
     </g>
    </g>
    <g id="ytick_15">
     <g id="line2d_27">
      <g>
       <use xlink:href="#mfbd4e0836d" x="436.342301" y="345.24" style="stroke: #000000; stroke-width: 0.8"/>
      </g>
     </g>
     <g id="text_34">
      <!-- 100 -->
      <g transform="translate(398.669176 351.918281)scale(0.18 -0.18)">
       <use xlink:href="#Montserrat-Medium-31"/>
       <use xlink:href="#Montserrat-Medium-30" x="36.999985"/>
       <use xlink:href="#Montserrat-Medium-30" x="103.699982"/>
      </g>
     </g>
    </g>
    <g id="ytick_16">
     <g id="line2d_28">
      <g>
       <use xlink:href="#mfbd4e0836d" x="436.342301" y="307.44" style="stroke: #000000; stroke-width: 0.8"/>
      </g>
     </g>
     <g id="text_35">
      <!-- 200 -->
      <g transform="translate(394.996051 314.118281)scale(0.18 -0.18)">
       <use xlink:href="#Montserrat-Medium-32"/>
       <use xlink:href="#Montserrat-Medium-30" x="57.399994"/>
       <use xlink:href="#Montserrat-Medium-30" x="124.099991"/>
      </g>
     </g>
    </g>
    <g id="ytick_17">
     <g id="line2d_29">
      <g>
       <use xlink:href="#mfbd4e0836d" x="436.342301" y="269.64" style="stroke: #000000; stroke-width: 0.8"/>
      </g>
     </g>
     <g id="text_36">
      <!-- 300 -->
      <g transform="translate(395.032614 276.318281)scale(0.18 -0.18)">
       <use xlink:href="#Montserrat-Medium-33"/>
       <use xlink:href="#Montserrat-Medium-30" x="57.199997"/>
       <use xlink:href="#Montserrat-Medium-30" x="123.899994"/>
      </g>
     </g>
    </g>
    <g id="ytick_18">
     <g id="line2d_30">
      <g>
       <use xlink:href="#mfbd4e0836d" x="436.342301" y="231.84" style="stroke: #000000; stroke-width: 0.8"/>
      </g>
     </g>
     <g id="text_37">
      <!-- 400 -->
      <g transform="translate(393.286051 238.518281)scale(0.18 -0.18)">
       <use xlink:href="#Montserrat-Medium-34"/>
       <use xlink:href="#Montserrat-Medium-30" x="66.899994"/>
       <use xlink:href="#Montserrat-Medium-30" x="133.599991"/>
      </g>
     </g>
    </g>
   </g>
   <g id="patch_78">
    <path d="M 436.342301 383.04 
L 436.342301 231.84 
" style="fill: none; stroke: #000000; stroke-width: 0.8; stroke-linejoin: miter; stroke-linecap: square"/>
   </g>
   <g id="patch_79">
    <path d="M 740.705937 383.04 
L 740.705937 231.84 
" style="fill: none; stroke: #000000; stroke-width: 0.8; stroke-linejoin: miter; stroke-linecap: square"/>
   </g>
   <g id="patch_80">
    <path d="M 436.342301 383.04 
L 740.705937 383.04 
" style="fill: none; stroke: #000000; stroke-width: 0.8; stroke-linejoin: miter; stroke-linecap: square"/>
   </g>
   <g id="patch_81">
    <path d="M 436.342301 231.84 
L 740.705937 231.84 
" style="fill: none; stroke: #000000; stroke-width: 0.8; stroke-linejoin: miter; stroke-linecap: square"/>
   </g>
   <g id="text_38">
    <!-- Layer 4 -->
    <g transform="translate(501.085849 326.34)scale(0.18 -0.18)">
     <use xlink:href="#Montserrat-Medium-4c"/>
     <use xlink:href="#Montserrat-Medium-61" x="59.399994"/>
     <use xlink:href="#Montserrat-Medium-79" x="119.199982"/>
     <use xlink:href="#Montserrat-Medium-65" x="175.099976"/>
     <use xlink:href="#Montserrat-Medium-72" x="236.299973"/>
     <use xlink:href="#Montserrat-Medium-20" x="277.299957"/>
     <use xlink:href="#Montserrat-Medium-34" x="304.199951"/>
    </g>
   </g>
  </g>
  <g id="text_39">
   <!-- $L_2$ Regularization with $λ$ = 0.0 and $λ$ = 10.0 -->
   <g transform="translate(206.735937 20.88)scale(0.18 -0.18)">
    <defs>
     <path id="DejaVuSans-Oblique-4c" d="M 1075 4666 
L 1709 4666 
L 909 525 
L 3181 525 
L 3078 0 
L 172 0 
L 1075 4666 
z
" transform="scale(0.015625)"/>
     <path id="DejaVuSans-32" d="M 1228 531 
L 3431 531 
L 3431 0 
L 469 0 
L 469 531 
Q 828 903 1448 1529 
Q 2069 2156 2228 2338 
Q 2531 2678 2651 2914 
Q 2772 3150 2772 3378 
Q 2772 3750 2511 3984 
Q 2250 4219 1831 4219 
Q 1534 4219 1204 4116 
Q 875 4013 500 3803 
L 500 4441 
Q 881 4594 1212 4672 
Q 1544 4750 1819 4750 
Q 2544 4750 2975 4387 
Q 3406 4025 3406 3419 
Q 3406 3131 3298 2873 
Q 3191 2616 2906 2266 
Q 2828 2175 2409 1742 
Q 1991 1309 1228 531 
z
" transform="scale(0.015625)"/>
     <path id="Montserrat-Medium-52" d="M 3667 0 
L 2701 1376 
Q 2522 1363 2419 1363 
L 1312 1363 
L 1312 0 
L 672 0 
L 672 4480 
L 2419 4480 
Q 3290 4480 3789 4064 
Q 4288 3648 4288 2918 
Q 4288 2400 4032 2035 
Q 3776 1670 3302 1504 
L 4365 0 
L 3667 0 
z
M 2400 1907 
Q 3008 1907 3328 2169 
Q 3648 2432 3648 2918 
Q 3648 3405 3328 3664 
Q 3008 3923 2400 3923 
L 1312 3923 
L 1312 1907 
L 2400 1907 
z
" transform="scale(0.015625)"/>
     <path id="Montserrat-Medium-6c" d="M 582 4749 
L 1197 4749 
L 1197 0 
L 582 0 
L 582 4749 
z
" transform="scale(0.015625)"/>
     <path id="Montserrat-Medium-7a" d="M 3098 506 
L 3098 0 
L 256 0 
L 256 397 
L 2259 2886 
L 294 2886 
L 294 3392 
L 3046 3392 
L 3046 2989 
L 1043 506 
L 3098 506 
z
" transform="scale(0.015625)"/>
     <path id="Montserrat-Medium-77" d="M 5715 3392 
L 4448 0 
L 3859 0 
L 2880 2573 
L 1888 0 
L 1299 0 
L 38 3392 
L 621 3392 
L 1606 691 
L 2630 3392 
L 3149 3392 
L 4154 678 
L 5165 3392 
L 5715 3392 
z
" transform="scale(0.015625)"/>
     <path id="DejaVuSans-Oblique-3bb" d="M 2350 4316 
L 3125 0 
L 2516 0 
L 2038 2588 
L 328 0 
L -281 0 
L 1903 3356 
L 1794 3975 
Q 1725 4369 1391 4369 
L 1091 4369 
L 1184 4863 
L 1550 4856 
Q 2253 4847 2350 4316 
z
" transform="scale(0.015625)"/>
     <path id="Montserrat-Medium-3d" d="M 429 3251 
L 3296 3251 
L 3296 2746 
L 429 2746 
L 429 3251 
z
M 429 1734 
L 3296 1734 
L 3296 1229 
L 429 1229 
L 429 1734 
z
" transform="scale(0.015625)"/>
     <path id="Montserrat-Medium-2e" d="M 730 -38 
Q 550 -38 422 86 
Q 294 211 294 403 
Q 294 589 422 713 
Q 550 838 730 838 
Q 909 838 1030 716 
Q 1152 595 1152 403 
Q 1152 211 1027 86 
Q 902 -38 730 -38 
z
" transform="scale(0.015625)"/>
     <path id="Montserrat-Medium-64" d="M 3782 4749 
L 3782 0 
L 3194 0 
L 3194 538 
Q 2989 256 2675 109 
Q 2362 -38 1984 -38 
Q 1491 -38 1100 179 
Q 710 397 489 790 
Q 269 1184 269 1696 
Q 269 2208 489 2598 
Q 710 2989 1100 3206 
Q 1491 3424 1984 3424 
Q 2349 3424 2656 3286 
Q 2963 3149 3168 2880 
L 3168 4749 
L 3782 4749 
z
M 2035 499 
Q 2355 499 2617 649 
Q 2880 800 3027 1072 
Q 3174 1344 3174 1696 
Q 3174 2048 3027 2320 
Q 2880 2592 2617 2739 
Q 2355 2886 2035 2886 
Q 1709 2886 1449 2739 
Q 1190 2592 1040 2320 
Q 890 2048 890 1696 
Q 890 1344 1040 1072 
Q 1190 800 1449 649 
Q 1709 499 2035 499 
z
" transform="scale(0.015625)"/>
    </defs>
    <use xlink:href="#DejaVuSans-Oblique-4c" transform="translate(0 0.015625)"/>
    <use xlink:href="#DejaVuSans-32" transform="translate(55.712891 -16.390625)scale(0.7)"/>
    <use xlink:href="#Montserrat-Medium-20" transform="translate(102.983398 0.015625)"/>
    <use xlink:href="#Montserrat-Medium-52" transform="translate(129.883392 0.015625)"/>
    <use xlink:href="#Montserrat-Medium-65" transform="translate(202.583374 0.015625)"/>
    <use xlink:href="#Montserrat-Medium-67" transform="translate(263.783371 0.015625)"/>
    <use xlink:href="#Montserrat-Medium-75" transform="translate(332.783356 0.015625)"/>
    <use xlink:href="#Montserrat-Medium-6c" transform="translate(400.483337 0.015625)"/>
    <use xlink:href="#Montserrat-Medium-61" transform="translate(428.383331 0.015625)"/>
    <use xlink:href="#Montserrat-Medium-72" transform="translate(488.183319 0.015625)"/>
    <use xlink:href="#Montserrat-Medium-69" transform="translate(529.183304 0.015625)"/>
    <use xlink:href="#Montserrat-Medium-7a" transform="translate(557.083298 0.015625)"/>
    <use xlink:href="#Montserrat-Medium-61" transform="translate(609.183289 0.015625)"/>
    <use xlink:href="#Montserrat-Medium-74" transform="translate(668.983276 0.015625)"/>
    <use xlink:href="#Montserrat-Medium-69" transform="translate(710.38327 0.015625)"/>
    <use xlink:href="#Montserrat-Medium-6f" transform="translate(738.283264 0.015625)"/>
    <use xlink:href="#Montserrat-Medium-6e" transform="translate(801.783249 0.015625)"/>
    <use xlink:href="#Montserrat-Medium-20" transform="translate(869.88324 0.015625)"/>
    <use xlink:href="#Montserrat-Medium-77" transform="translate(896.783234 0.015625)"/>
    <use xlink:href="#Montserrat-Medium-69" transform="translate(986.683228 0.015625)"/>
    <use xlink:href="#Montserrat-Medium-74" transform="translate(1014.583221 0.015625)"/>
    <use xlink:href="#Montserrat-Medium-68" transform="translate(1055.983215 0.015625)"/>
    <use xlink:href="#Montserrat-Medium-20" transform="translate(1124.083206 0.015625)"/>
    <use xlink:href="#DejaVuSans-Oblique-3bb" transform="translate(1150.9832 0.015625)"/>
    <use xlink:href="#Montserrat-Medium-20" transform="translate(1210.162888 0.015625)"/>
    <use xlink:href="#Montserrat-Medium-3d" transform="translate(1237.062881 0.015625)"/>
    <use xlink:href="#Montserrat-Medium-20" transform="translate(1295.262878 0.015625)"/>
    <use xlink:href="#Montserrat-Medium-30" transform="translate(1322.162872 0.015625)"/>
    <use xlink:href="#Montserrat-Medium-2e" transform="translate(1388.862869 0.015625)"/>
    <use xlink:href="#Montserrat-Medium-30" transform="translate(1411.562866 0.015625)"/>
    <use xlink:href="#Montserrat-Medium-20" transform="translate(1478.262863 0.015625)"/>
    <use xlink:href="#Montserrat-Medium-61" transform="translate(1505.162857 0.015625)"/>
    <use xlink:href="#Montserrat-Medium-6e" transform="translate(1564.962845 0.015625)"/>
    <use xlink:href="#Montserrat-Medium-64" transform="translate(1633.062836 0.015625)"/>
    <use xlink:href="#Montserrat-Medium-20" transform="translate(1701.262817 0.015625)"/>
    <use xlink:href="#DejaVuSans-Oblique-3bb" transform="translate(1728.162811 0.015625)"/>
    <use xlink:href="#Montserrat-Medium-20" transform="translate(1787.342499 0.015625)"/>
    <use xlink:href="#Montserrat-Medium-3d" transform="translate(1814.242493 0.015625)"/>
    <use xlink:href="#Montserrat-Medium-20" transform="translate(1872.44249 0.015625)"/>
    <use xlink:href="#Montserrat-Medium-31" transform="translate(1899.342484 0.015625)"/>
    <use xlink:href="#Montserrat-Medium-30" transform="translate(1936.342468 0.015625)"/>
    <use xlink:href="#Montserrat-Medium-2e" transform="translate(2003.042465 0.015625)"/>
    <use xlink:href="#Montserrat-Medium-30" transform="translate(2025.742462 0.015625)"/>
   </g>
  </g>
 </g>
 <defs>
  <clipPath id="p7867457ccb">
   <rect x="71.105938" y="50.4" width="304.363636" height="151.2"/>
  </clipPath>
  <clipPath id="p646b486483">
   <rect x="436.342301" y="50.4" width="304.363636" height="151.2"/>
  </clipPath>
  <clipPath id="p7baa0e97a5">
   <rect x="71.105938" y="231.84" width="304.363636" height="151.2"/>
  </clipPath>
  <clipPath id="p11a59ae9e5">
   <rect x="436.342301" y="231.84" width="304.363636" height="151.2"/>
  </clipPath>
 </defs>
</svg>
