<?xml version="1.0" encoding="utf-8" standalone="no"?>
<!DOCTYPE svg PUBLIC "-//W3C//DTD SVG 1.1//EN"
  "http://www.w3.org/Graphics/SVG/1.1/DTD/svg11.dtd">
<svg xmlns:xlink="http://www.w3.org/1999/xlink" width="534.729687pt" height="356.496875pt" viewBox="0 0 534.729687 356.496875" xmlns="http://www.w3.org/2000/svg" version="1.1">
 <metadata>
  <rdf:RDF xmlns:dc="http://purl.org/dc/elements/1.1/" xmlns:cc="http://creativecommons.org/ns#" xmlns:rdf="http://www.w3.org/1999/02/22-rdf-syntax-ns#">
   <cc:Work>
    <dc:type rdf:resource="http://purl.org/dc/dcmitype/StillImage"/>
    <dc:date>2022-12-27T22:52:10.488718</dc:date>
    <dc:format>image/svg+xml</dc:format>
    <dc:creator>
     <cc:Agent>
      <dc:title>Matplotlib v3.5.2, https://matplotlib.org/</dc:title>
     </cc:Agent>
    </dc:creator>
   </cc:Work>
  </rdf:RDF>
 </metadata>
 <defs>
  <style type="text/css">*{stroke-linejoin: round; stroke-linecap: butt}</style>
 </defs>
 <g id="figure_1">
  <g id="patch_1">
   <path d="M 0 356.496875 
L 534.729687 356.496875 
L 534.729687 0 
L 0 0 
z
" style="fill: #ffffff"/>
  </g>
  <g id="axes_1">
   <g id="patch_2">
    <path d="M 58.224688 304.026563 
L 504.624687 304.026563 
L 504.624687 26.826562 
L 58.224688 26.826562 
z
" style="fill: #f1f7f0"/>
   </g>
   <g id="matplotlib.axis_1">
    <g id="xtick_1">
     <g id="line2d_1">
      <defs>
       <path id="m091066f9f6" d="M 0 0 
L 0 3.5 
" style="stroke: #000000; stroke-width: 0.8"/>
      </defs>
      <g>
       <use xlink:href="#m091066f9f6" x="58.224688" y="304.026563" style="stroke: #000000; stroke-width: 0.8"/>
      </g>
     </g>
     <g id="text_1">
      <!-- 0 -->
      <g transform="translate(52.498438 324.70375)scale(0.18 -0.18)">
       <defs>
        <path id="DejaVuSans-30" d="M 2034 4250 
Q 1547 4250 1301 3770 
Q 1056 3291 1056 2328 
Q 1056 1369 1301 889 
Q 1547 409 2034 409 
Q 2525 409 2770 889 
Q 3016 1369 3016 2328 
Q 3016 3291 2770 3770 
Q 2525 4250 2034 4250 
z
M 2034 4750 
Q 2819 4750 3233 4129 
Q 3647 3509 3647 2328 
Q 3647 1150 3233 529 
Q 2819 -91 2034 -91 
Q 1250 -91 836 529 
Q 422 1150 422 2328 
Q 422 3509 836 4129 
Q 1250 4750 2034 4750 
z
" transform="scale(0.015625)"/>
       </defs>
       <use xlink:href="#DejaVuSans-30"/>
      </g>
     </g>
    </g>
    <g id="xtick_2">
     <g id="line2d_2">
      <g>
       <use xlink:href="#m091066f9f6" x="147.504687" y="304.026563" style="stroke: #000000; stroke-width: 0.8"/>
      </g>
     </g>
     <g id="text_2">
      <!-- 200 -->
      <g transform="translate(130.325937 324.70375)scale(0.18 -0.18)">
       <defs>
        <path id="DejaVuSans-32" d="M 1228 531 
L 3431 531 
L 3431 0 
L 469 0 
L 469 531 
Q 828 903 1448 1529 
Q 2069 2156 2228 2338 
Q 2531 2678 2651 2914 
Q 2772 3150 2772 3378 
Q 2772 3750 2511 3984 
Q 2250 4219 1831 4219 
Q 1534 4219 1204 4116 
Q 875 4013 500 3803 
L 500 4441 
Q 881 4594 1212 4672 
Q 1544 4750 1819 4750 
Q 2544 4750 2975 4387 
Q 3406 4025 3406 3419 
Q 3406 3131 3298 2873 
Q 3191 2616 2906 2266 
Q 2828 2175 2409 1742 
Q 1991 1309 1228 531 
z
" transform="scale(0.015625)"/>
       </defs>
       <use xlink:href="#DejaVuSans-32"/>
       <use xlink:href="#DejaVuSans-30" x="63.623047"/>
       <use xlink:href="#DejaVuSans-30" x="127.246094"/>
      </g>
     </g>
    </g>
    <g id="xtick_3">
     <g id="line2d_3">
      <g>
       <use xlink:href="#m091066f9f6" x="236.784687" y="304.026563" style="stroke: #000000; stroke-width: 0.8"/>
      </g>
     </g>
     <g id="text_3">
      <!-- 400 -->
      <g transform="translate(219.605937 324.70375)scale(0.18 -0.18)">
       <defs>
        <path id="DejaVuSans-34" d="M 2419 4116 
L 825 1625 
L 2419 1625 
L 2419 4116 
z
M 2253 4666 
L 3047 4666 
L 3047 1625 
L 3713 1625 
L 3713 1100 
L 3047 1100 
L 3047 0 
L 2419 0 
L 2419 1100 
L 313 1100 
L 313 1709 
L 2253 4666 
z
" transform="scale(0.015625)"/>
       </defs>
       <use xlink:href="#DejaVuSans-34"/>
       <use xlink:href="#DejaVuSans-30" x="63.623047"/>
       <use xlink:href="#DejaVuSans-30" x="127.246094"/>
      </g>
     </g>
    </g>
    <g id="xtick_4">
     <g id="line2d_4">
      <g>
       <use xlink:href="#m091066f9f6" x="326.064687" y="304.026563" style="stroke: #000000; stroke-width: 0.8"/>
      </g>
     </g>
     <g id="text_4">
      <!-- 600 -->
      <g transform="translate(308.885938 324.70375)scale(0.18 -0.18)">
       <defs>
        <path id="DejaVuSans-36" d="M 2113 2584 
Q 1688 2584 1439 2293 
Q 1191 2003 1191 1497 
Q 1191 994 1439 701 
Q 1688 409 2113 409 
Q 2538 409 2786 701 
Q 3034 994 3034 1497 
Q 3034 2003 2786 2293 
Q 2538 2584 2113 2584 
z
M 3366 4563 
L 3366 3988 
Q 3128 4100 2886 4159 
Q 2644 4219 2406 4219 
Q 1781 4219 1451 3797 
Q 1122 3375 1075 2522 
Q 1259 2794 1537 2939 
Q 1816 3084 2150 3084 
Q 2853 3084 3261 2657 
Q 3669 2231 3669 1497 
Q 3669 778 3244 343 
Q 2819 -91 2113 -91 
Q 1303 -91 875 529 
Q 447 1150 447 2328 
Q 447 3434 972 4092 
Q 1497 4750 2381 4750 
Q 2619 4750 2861 4703 
Q 3103 4656 3366 4563 
z
" transform="scale(0.015625)"/>
       </defs>
       <use xlink:href="#DejaVuSans-36"/>
       <use xlink:href="#DejaVuSans-30" x="63.623047"/>
       <use xlink:href="#DejaVuSans-30" x="127.246094"/>
      </g>
     </g>
    </g>
    <g id="xtick_5">
     <g id="line2d_5">
      <g>
       <use xlink:href="#m091066f9f6" x="415.344687" y="304.026563" style="stroke: #000000; stroke-width: 0.8"/>
      </g>
     </g>
     <g id="text_5">
      <!-- 800 -->
      <g transform="translate(398.165937 324.70375)scale(0.18 -0.18)">
       <defs>
        <path id="DejaVuSans-38" d="M 2034 2216 
Q 1584 2216 1326 1975 
Q 1069 1734 1069 1313 
Q 1069 891 1326 650 
Q 1584 409 2034 409 
Q 2484 409 2743 651 
Q 3003 894 3003 1313 
Q 3003 1734 2745 1975 
Q 2488 2216 2034 2216 
z
M 1403 2484 
Q 997 2584 770 2862 
Q 544 3141 544 3541 
Q 544 4100 942 4425 
Q 1341 4750 2034 4750 
Q 2731 4750 3128 4425 
Q 3525 4100 3525 3541 
Q 3525 3141 3298 2862 
Q 3072 2584 2669 2484 
Q 3125 2378 3379 2068 
Q 3634 1759 3634 1313 
Q 3634 634 3220 271 
Q 2806 -91 2034 -91 
Q 1263 -91 848 271 
Q 434 634 434 1313 
Q 434 1759 690 2068 
Q 947 2378 1403 2484 
z
M 1172 3481 
Q 1172 3119 1398 2916 
Q 1625 2713 2034 2713 
Q 2441 2713 2670 2916 
Q 2900 3119 2900 3481 
Q 2900 3844 2670 4047 
Q 2441 4250 2034 4250 
Q 1625 4250 1398 4047 
Q 1172 3844 1172 3481 
z
" transform="scale(0.015625)"/>
       </defs>
       <use xlink:href="#DejaVuSans-38"/>
       <use xlink:href="#DejaVuSans-30" x="63.623047"/>
       <use xlink:href="#DejaVuSans-30" x="127.246094"/>
      </g>
     </g>
    </g>
    <g id="xtick_6">
     <g id="line2d_6">
      <g>
       <use xlink:href="#m091066f9f6" x="504.624687" y="304.026563" style="stroke: #000000; stroke-width: 0.8"/>
      </g>
     </g>
     <g id="text_6">
      <!-- 1000 -->
      <g transform="translate(481.719688 324.70375)scale(0.18 -0.18)">
       <defs>
        <path id="DejaVuSans-31" d="M 794 531 
L 1825 531 
L 1825 4091 
L 703 3866 
L 703 4441 
L 1819 4666 
L 2450 4666 
L 2450 531 
L 3481 531 
L 3481 0 
L 794 0 
L 794 531 
z
" transform="scale(0.015625)"/>
       </defs>
       <use xlink:href="#DejaVuSans-31"/>
       <use xlink:href="#DejaVuSans-30" x="63.623047"/>
       <use xlink:href="#DejaVuSans-30" x="127.246094"/>
       <use xlink:href="#DejaVuSans-30" x="190.869141"/>
      </g>
     </g>
    </g>
    <g id="text_7">
     <!-- Number of Iterations -->
     <g transform="translate(185.751875 345.80375)scale(0.18 -0.18)">
      <defs>
       <path id="Montserrat-Medium-4e" d="M 4525 4480 
L 4525 0 
L 4000 0 
L 1312 3341 
L 1312 0 
L 672 0 
L 672 4480 
L 1197 4480 
L 3885 1139 
L 3885 4480 
L 4525 4480 
z
" transform="scale(0.015625)"/>
       <path id="Montserrat-Medium-75" d="M 3744 3392 
L 3744 0 
L 3162 0 
L 3162 512 
Q 2976 250 2672 106 
Q 2368 -38 2010 -38 
Q 1331 -38 940 336 
Q 550 710 550 1440 
L 550 3392 
L 1165 3392 
L 1165 1510 
Q 1165 1018 1401 765 
Q 1638 512 2080 512 
Q 2566 512 2848 806 
Q 3130 1101 3130 1638 
L 3130 3392 
L 3744 3392 
z
" transform="scale(0.015625)"/>
       <path id="Montserrat-Medium-6d" d="M 4826 3424 
Q 5466 3424 5840 3053 
Q 6214 2682 6214 1952 
L 6214 0 
L 5600 0 
L 5600 1882 
Q 5600 2374 5373 2624 
Q 5146 2874 4723 2874 
Q 4256 2874 3981 2582 
Q 3706 2291 3706 1747 
L 3706 0 
L 3091 0 
L 3091 1882 
Q 3091 2374 2864 2624 
Q 2637 2874 2214 2874 
Q 1747 2874 1472 2582 
Q 1197 2291 1197 1747 
L 1197 0 
L 582 0 
L 582 3392 
L 1171 3392 
L 1171 2886 
Q 1357 3149 1657 3286 
Q 1958 3424 2342 3424 
Q 2739 3424 3046 3264 
Q 3354 3104 3520 2797 
Q 3712 3091 4054 3257 
Q 4397 3424 4826 3424 
z
" transform="scale(0.015625)"/>
       <path id="Montserrat-Medium-62" d="M 2381 3424 
Q 2874 3424 3264 3206 
Q 3654 2989 3875 2598 
Q 4096 2208 4096 1696 
Q 4096 1184 3875 790 
Q 3654 397 3264 179 
Q 2874 -38 2381 -38 
Q 2003 -38 1689 109 
Q 1376 256 1171 538 
L 1171 0 
L 582 0 
L 582 4749 
L 1197 4749 
L 1197 2880 
Q 1402 3149 1709 3286 
Q 2016 3424 2381 3424 
z
M 2330 499 
Q 2656 499 2915 649 
Q 3174 800 3324 1072 
Q 3475 1344 3475 1696 
Q 3475 2048 3324 2320 
Q 3174 2592 2915 2739 
Q 2656 2886 2330 2886 
Q 2010 2886 1747 2739 
Q 1485 2592 1337 2320 
Q 1190 2048 1190 1696 
Q 1190 1344 1337 1072 
Q 1485 800 1747 649 
Q 2010 499 2330 499 
z
" transform="scale(0.015625)"/>
       <path id="Montserrat-Medium-65" d="M 3648 1677 
Q 3648 1606 3635 1491 
L 883 1491 
Q 941 1043 1277 771 
Q 1613 499 2112 499 
Q 2720 499 3091 909 
L 3430 512 
Q 3200 243 2857 102 
Q 2515 -38 2093 -38 
Q 1555 -38 1139 182 
Q 723 403 496 800 
Q 269 1197 269 1696 
Q 269 2189 489 2585 
Q 710 2982 1097 3203 
Q 1485 3424 1971 3424 
Q 2458 3424 2838 3203 
Q 3219 2982 3433 2585 
Q 3648 2189 3648 1677 
z
M 1971 2906 
Q 1530 2906 1232 2637 
Q 934 2368 883 1933 
L 3059 1933 
Q 3008 2362 2710 2634 
Q 2413 2906 1971 2906 
z
" transform="scale(0.015625)"/>
       <path id="Montserrat-Medium-72" d="M 1171 2822 
Q 1331 3117 1644 3270 
Q 1958 3424 2406 3424 
L 2406 2829 
Q 2355 2835 2266 2835 
Q 1766 2835 1481 2537 
Q 1197 2240 1197 1690 
L 1197 0 
L 582 0 
L 582 3392 
L 1171 3392 
L 1171 2822 
z
" transform="scale(0.015625)"/>
       <path id="Montserrat-Medium-20" transform="scale(0.015625)"/>
       <path id="Montserrat-Medium-6f" d="M 2035 -38 
Q 1530 -38 1126 186 
Q 723 410 496 803 
Q 269 1197 269 1696 
Q 269 2195 496 2588 
Q 723 2982 1126 3203 
Q 1530 3424 2035 3424 
Q 2541 3424 2941 3203 
Q 3341 2982 3568 2588 
Q 3795 2195 3795 1696 
Q 3795 1197 3568 803 
Q 3341 410 2941 186 
Q 2541 -38 2035 -38 
z
M 2035 499 
Q 2362 499 2621 649 
Q 2880 800 3027 1072 
Q 3174 1344 3174 1696 
Q 3174 2048 3027 2320 
Q 2880 2592 2621 2739 
Q 2362 2886 2035 2886 
Q 1709 2886 1449 2739 
Q 1190 2592 1040 2320 
Q 890 2048 890 1696 
Q 890 1344 1040 1072 
Q 1190 800 1449 649 
Q 1709 499 2035 499 
z
" transform="scale(0.015625)"/>
       <path id="Montserrat-Medium-66" d="M 1824 4282 
Q 1274 4282 1274 3686 
L 1274 3392 
L 2259 3392 
L 2259 2886 
L 1286 2886 
L 1286 0 
L 672 0 
L 672 2886 
L 96 2886 
L 96 3392 
L 672 3392 
L 672 3693 
Q 672 4198 966 4492 
Q 1261 4787 1792 4787 
Q 1997 4787 2176 4736 
Q 2355 4685 2483 4589 
L 2298 4122 
Q 2086 4282 1824 4282 
z
" transform="scale(0.015625)"/>
       <path id="Montserrat-Medium-49" d="M 672 4480 
L 1312 4480 
L 1312 0 
L 672 0 
L 672 4480 
z
" transform="scale(0.015625)"/>
       <path id="Montserrat-Medium-74" d="M 2490 198 
Q 2355 83 2156 22 
Q 1958 -38 1747 -38 
Q 1235 -38 953 237 
Q 672 512 672 1024 
L 672 2886 
L 96 2886 
L 96 3392 
L 672 3392 
L 672 4134 
L 1286 4134 
L 1286 3392 
L 2259 3392 
L 2259 2886 
L 1286 2886 
L 1286 1050 
Q 1286 774 1424 627 
Q 1562 480 1818 480 
Q 2099 480 2298 640 
L 2490 198 
z
" transform="scale(0.015625)"/>
       <path id="Montserrat-Medium-61" d="M 1818 3424 
Q 2522 3424 2896 3078 
Q 3270 2733 3270 2048 
L 3270 0 
L 2688 0 
L 2688 448 
Q 2534 211 2249 86 
Q 1965 -38 1574 -38 
Q 1005 -38 662 237 
Q 320 512 320 960 
Q 320 1408 646 1680 
Q 973 1952 1683 1952 
L 2656 1952 
L 2656 2074 
Q 2656 2470 2425 2681 
Q 2195 2893 1747 2893 
Q 1446 2893 1158 2793 
Q 870 2694 672 2528 
L 416 2989 
Q 678 3200 1043 3312 
Q 1408 3424 1818 3424 
z
M 1677 435 
Q 2029 435 2285 592 
Q 2541 749 2656 1037 
L 2656 1510 
L 1709 1510 
Q 928 1510 928 986 
Q 928 730 1126 582 
Q 1325 435 1677 435 
z
" transform="scale(0.015625)"/>
       <path id="Montserrat-Medium-69" d="M 582 3392 
L 1197 3392 
L 1197 0 
L 582 0 
L 582 3392 
z
M 890 4045 
Q 710 4045 592 4160 
Q 474 4275 474 4442 
Q 474 4608 592 4726 
Q 710 4845 890 4845 
Q 1069 4845 1187 4733 
Q 1306 4621 1306 4454 
Q 1306 4282 1187 4163 
Q 1069 4045 890 4045 
z
" transform="scale(0.015625)"/>
       <path id="Montserrat-Medium-6e" d="M 2394 3424 
Q 3040 3424 3421 3049 
Q 3802 2675 3802 1952 
L 3802 0 
L 3187 0 
L 3187 1882 
Q 3187 2374 2950 2624 
Q 2714 2874 2272 2874 
Q 1773 2874 1485 2582 
Q 1197 2291 1197 1747 
L 1197 0 
L 582 0 
L 582 3392 
L 1171 3392 
L 1171 2880 
Q 1357 3142 1673 3283 
Q 1990 3424 2394 3424 
z
" transform="scale(0.015625)"/>
       <path id="Montserrat-Medium-73" d="M 1555 -38 
Q 1139 -38 755 74 
Q 371 186 154 358 
L 410 845 
Q 634 685 954 589 
Q 1274 493 1600 493 
Q 2406 493 2406 954 
Q 2406 1107 2297 1196 
Q 2189 1286 2025 1328 
Q 1862 1370 1562 1421 
Q 1152 1485 893 1568 
Q 634 1651 448 1849 
Q 262 2048 262 2406 
Q 262 2867 646 3145 
Q 1030 3424 1677 3424 
Q 2016 3424 2355 3341 
Q 2694 3258 2912 3117 
L 2650 2630 
Q 2234 2899 1670 2899 
Q 1280 2899 1075 2771 
Q 870 2643 870 2432 
Q 870 2266 985 2170 
Q 1101 2074 1270 2029 
Q 1440 1984 1747 1926 
Q 2157 1856 2409 1776 
Q 2662 1696 2841 1504 
Q 3021 1312 3021 966 
Q 3021 506 2627 234 
Q 2234 -38 1555 -38 
z
" transform="scale(0.015625)"/>
      </defs>
      <use xlink:href="#Montserrat-Medium-4e"/>
      <use xlink:href="#Montserrat-Medium-75" x="81.199982"/>
      <use xlink:href="#Montserrat-Medium-6d" x="148.899963"/>
      <use xlink:href="#Montserrat-Medium-62" x="254.599945"/>
      <use xlink:href="#Montserrat-Medium-65" x="322.799927"/>
      <use xlink:href="#Montserrat-Medium-72" x="383.999924"/>
      <use xlink:href="#Montserrat-Medium-20" x="424.999908"/>
      <use xlink:href="#Montserrat-Medium-6f" x="451.899902"/>
      <use xlink:href="#Montserrat-Medium-66" x="515.399887"/>
      <use xlink:href="#Montserrat-Medium-20" x="550.699875"/>
      <use xlink:href="#Montserrat-Medium-49" x="577.599869"/>
      <use xlink:href="#Montserrat-Medium-74" x="608.599854"/>
      <use xlink:href="#Montserrat-Medium-65" x="649.999847"/>
      <use xlink:href="#Montserrat-Medium-72" x="711.199844"/>
      <use xlink:href="#Montserrat-Medium-61" x="752.199829"/>
      <use xlink:href="#Montserrat-Medium-74" x="811.999817"/>
      <use xlink:href="#Montserrat-Medium-69" x="853.399811"/>
      <use xlink:href="#Montserrat-Medium-6f" x="881.299805"/>
      <use xlink:href="#Montserrat-Medium-6e" x="944.799789"/>
      <use xlink:href="#Montserrat-Medium-73" x="1012.89978"/>
     </g>
    </g>
   </g>
   <g id="matplotlib.axis_2">
    <g id="ytick_1">
     <g id="line2d_7">
      <defs>
       <path id="m2115765e9c" d="M 0 0 
L -3.5 0 
" style="stroke: #000000; stroke-width: 0.8"/>
      </defs>
      <g>
       <use xlink:href="#m2115765e9c" x="58.224688" y="304.026563" style="stroke: #000000; stroke-width: 0.8"/>
      </g>
     </g>
     <g id="text_8">
      <!-- 0 -->
      <g transform="translate(39.772188 310.865156)scale(0.18 -0.18)">
       <use xlink:href="#DejaVuSans-30"/>
      </g>
     </g>
    </g>
    <g id="ytick_2">
     <g id="line2d_8">
      <g>
       <use xlink:href="#m2115765e9c" x="58.224688" y="248.586563" style="stroke: #000000; stroke-width: 0.8"/>
      </g>
     </g>
     <g id="text_9">
      <!-- 10 -->
      <g transform="translate(28.319688 255.425156)scale(0.18 -0.18)">
       <use xlink:href="#DejaVuSans-31"/>
       <use xlink:href="#DejaVuSans-30" x="63.623047"/>
      </g>
     </g>
    </g>
    <g id="ytick_3">
     <g id="line2d_9">
      <g>
       <use xlink:href="#m2115765e9c" x="58.224688" y="193.146562" style="stroke: #000000; stroke-width: 0.8"/>
      </g>
     </g>
     <g id="text_10">
      <!-- 20 -->
      <g transform="translate(28.319688 199.985156)scale(0.18 -0.18)">
       <use xlink:href="#DejaVuSans-32"/>
       <use xlink:href="#DejaVuSans-30" x="63.623047"/>
      </g>
     </g>
    </g>
    <g id="ytick_4">
     <g id="line2d_10">
      <g>
       <use xlink:href="#m2115765e9c" x="58.224688" y="137.706562" style="stroke: #000000; stroke-width: 0.8"/>
      </g>
     </g>
     <g id="text_11">
      <!-- 30 -->
      <g transform="translate(28.319688 144.545156)scale(0.18 -0.18)">
       <defs>
        <path id="DejaVuSans-33" d="M 2597 2516 
Q 3050 2419 3304 2112 
Q 3559 1806 3559 1356 
Q 3559 666 3084 287 
Q 2609 -91 1734 -91 
Q 1441 -91 1130 -33 
Q 819 25 488 141 
L 488 750 
Q 750 597 1062 519 
Q 1375 441 1716 441 
Q 2309 441 2620 675 
Q 2931 909 2931 1356 
Q 2931 1769 2642 2001 
Q 2353 2234 1838 2234 
L 1294 2234 
L 1294 2753 
L 1863 2753 
Q 2328 2753 2575 2939 
Q 2822 3125 2822 3475 
Q 2822 3834 2567 4026 
Q 2313 4219 1838 4219 
Q 1578 4219 1281 4162 
Q 984 4106 628 3988 
L 628 4550 
Q 988 4650 1302 4700 
Q 1616 4750 1894 4750 
Q 2613 4750 3031 4423 
Q 3450 4097 3450 3541 
Q 3450 3153 3228 2886 
Q 3006 2619 2597 2516 
z
" transform="scale(0.015625)"/>
       </defs>
       <use xlink:href="#DejaVuSans-33"/>
       <use xlink:href="#DejaVuSans-30" x="63.623047"/>
      </g>
     </g>
    </g>
    <g id="ytick_5">
     <g id="line2d_11">
      <g>
       <use xlink:href="#m2115765e9c" x="58.224688" y="82.266562" style="stroke: #000000; stroke-width: 0.8"/>
      </g>
     </g>
     <g id="text_12">
      <!-- 40 -->
      <g transform="translate(28.319688 89.105156)scale(0.18 -0.18)">
       <use xlink:href="#DejaVuSans-34"/>
       <use xlink:href="#DejaVuSans-30" x="63.623047"/>
      </g>
     </g>
    </g>
    <g id="ytick_6">
     <g id="line2d_12">
      <g>
       <use xlink:href="#m2115765e9c" x="58.224688" y="26.826562" style="stroke: #000000; stroke-width: 0.8"/>
      </g>
     </g>
     <g id="text_13">
      <!-- 50 -->
      <g transform="translate(28.319688 33.665156)scale(0.18 -0.18)">
       <defs>
        <path id="DejaVuSans-35" d="M 691 4666 
L 3169 4666 
L 3169 4134 
L 1269 4134 
L 1269 2991 
Q 1406 3038 1543 3061 
Q 1681 3084 1819 3084 
Q 2600 3084 3056 2656 
Q 3513 2228 3513 1497 
Q 3513 744 3044 326 
Q 2575 -91 1722 -91 
Q 1428 -91 1123 -41 
Q 819 9 494 109 
L 494 744 
Q 775 591 1075 516 
Q 1375 441 1709 441 
Q 2250 441 2565 725 
Q 2881 1009 2881 1497 
Q 2881 1984 2565 2268 
Q 2250 2553 1709 2553 
Q 1456 2553 1204 2497 
Q 953 2441 691 2322 
L 691 4666 
z
" transform="scale(0.015625)"/>
       </defs>
       <use xlink:href="#DejaVuSans-35"/>
       <use xlink:href="#DejaVuSans-30" x="63.623047"/>
      </g>
     </g>
    </g>
    <g id="text_14">
     <!-- Cost Function (MSE) -->
     <g transform="translate(20.826562 258.171562)rotate(-90)scale(0.18 -0.18)">
      <defs>
       <path id="Montserrat-Medium-43" d="M 2675 -51 
Q 2003 -51 1462 246 
Q 922 544 614 1065 
Q 307 1587 307 2240 
Q 307 2893 614 3414 
Q 922 3936 1466 4233 
Q 2010 4531 2682 4531 
Q 3206 4531 3641 4355 
Q 4077 4179 4384 3834 
L 3968 3430 
Q 3462 3962 2707 3962 
Q 2208 3962 1805 3738 
Q 1402 3514 1174 3120 
Q 947 2726 947 2240 
Q 947 1754 1174 1360 
Q 1402 966 1805 742 
Q 2208 518 2707 518 
Q 3456 518 3968 1056 
L 4384 653 
Q 4077 307 3638 128 
Q 3200 -51 2675 -51 
z
" transform="scale(0.015625)"/>
       <path id="Montserrat-Medium-46" d="M 1312 3923 
L 1312 2362 
L 3558 2362 
L 3558 1811 
L 1312 1811 
L 1312 0 
L 672 0 
L 672 4480 
L 3834 4480 
L 3834 3923 
L 1312 3923 
z
" transform="scale(0.015625)"/>
       <path id="Montserrat-Medium-63" d="M 2061 -38 
Q 1542 -38 1136 186 
Q 730 410 499 803 
Q 269 1197 269 1696 
Q 269 2195 499 2588 
Q 730 2982 1136 3203 
Q 1542 3424 2061 3424 
Q 2522 3424 2883 3238 
Q 3245 3053 3443 2701 
L 2976 2400 
Q 2816 2643 2579 2764 
Q 2342 2886 2054 2886 
Q 1722 2886 1456 2739 
Q 1190 2592 1040 2320 
Q 890 2048 890 1696 
Q 890 1338 1040 1066 
Q 1190 794 1456 646 
Q 1722 499 2054 499 
Q 2342 499 2579 620 
Q 2816 742 2976 986 
L 3443 691 
Q 3245 339 2883 150 
Q 2522 -38 2061 -38 
z
" transform="scale(0.015625)"/>
       <path id="Montserrat-Medium-28" d="M 1370 -1242 
Q 1005 -653 806 112 
Q 608 877 608 1754 
Q 608 2630 806 3401 
Q 1005 4173 1370 4749 
L 1952 4749 
Q 1568 4077 1389 3341 
Q 1210 2605 1210 1754 
Q 1210 902 1389 166 
Q 1568 -570 1952 -1242 
L 1370 -1242 
z
" transform="scale(0.015625)"/>
       <path id="Montserrat-Medium-4d" d="M 4826 0 
L 4819 3264 
L 3200 544 
L 2906 544 
L 1286 3245 
L 1286 0 
L 672 0 
L 672 4480 
L 1197 4480 
L 3066 1331 
L 4909 4480 
L 5434 4480 
L 5440 0 
L 4826 0 
z
" transform="scale(0.015625)"/>
       <path id="Montserrat-Medium-53" d="M 1978 -51 
Q 1472 -51 1001 105 
Q 531 262 262 512 
L 499 1011 
Q 755 781 1155 637 
Q 1555 493 1978 493 
Q 2534 493 2809 681 
Q 3085 870 3085 1184 
Q 3085 1414 2934 1558 
Q 2784 1702 2563 1779 
Q 2342 1856 1939 1952 
Q 1434 2074 1123 2195 
Q 813 2317 592 2569 
Q 371 2822 371 3251 
Q 371 3610 560 3898 
Q 749 4186 1133 4358 
Q 1517 4531 2086 4531 
Q 2483 4531 2867 4428 
Q 3251 4326 3526 4134 
L 3315 3622 
Q 3034 3802 2714 3894 
Q 2394 3987 2086 3987 
Q 1542 3987 1270 3788 
Q 998 3590 998 3277 
Q 998 3046 1152 2902 
Q 1306 2758 1533 2678 
Q 1760 2598 2150 2509 
Q 2656 2387 2963 2265 
Q 3270 2144 3491 1894 
Q 3712 1645 3712 1222 
Q 3712 870 3520 579 
Q 3328 288 2937 118 
Q 2547 -51 1978 -51 
z
" transform="scale(0.015625)"/>
       <path id="Montserrat-Medium-45" d="M 3923 557 
L 3923 0 
L 672 0 
L 672 4480 
L 3834 4480 
L 3834 3923 
L 1312 3923 
L 1312 2547 
L 3558 2547 
L 3558 2003 
L 1312 2003 
L 1312 557 
L 3923 557 
z
" transform="scale(0.015625)"/>
       <path id="Montserrat-Medium-29" d="M 205 -1242 
Q 589 -570 771 166 
Q 954 902 954 1754 
Q 954 2605 771 3341 
Q 589 4077 205 4749 
L 787 4749 
Q 1158 4173 1356 3405 
Q 1555 2637 1555 1754 
Q 1555 877 1356 109 
Q 1158 -659 787 -1242 
L 205 -1242 
z
" transform="scale(0.015625)"/>
      </defs>
      <use xlink:href="#Montserrat-Medium-43"/>
      <use xlink:href="#Montserrat-Medium-6f" x="72.299988"/>
      <use xlink:href="#Montserrat-Medium-73" x="135.799973"/>
      <use xlink:href="#Montserrat-Medium-74" x="185.899963"/>
      <use xlink:href="#Montserrat-Medium-20" x="227.299957"/>
      <use xlink:href="#Montserrat-Medium-46" x="254.199951"/>
      <use xlink:href="#Montserrat-Medium-75" x="317.699936"/>
      <use xlink:href="#Montserrat-Medium-6e" x="385.399918"/>
      <use xlink:href="#Montserrat-Medium-63" x="453.499908"/>
      <use xlink:href="#Montserrat-Medium-74" x="510.599899"/>
      <use xlink:href="#Montserrat-Medium-69" x="551.999893"/>
      <use xlink:href="#Montserrat-Medium-6f" x="579.899887"/>
      <use xlink:href="#Montserrat-Medium-6e" x="643.399872"/>
      <use xlink:href="#Montserrat-Medium-20" x="711.499863"/>
      <use xlink:href="#Montserrat-Medium-28" x="738.399857"/>
      <use xlink:href="#Montserrat-Medium-4d" x="772.099854"/>
      <use xlink:href="#Montserrat-Medium-53" x="867.599838"/>
      <use xlink:href="#Montserrat-Medium-45" x="929.699829"/>
      <use xlink:href="#Montserrat-Medium-29" x="996.699814"/>
     </g>
    </g>
   </g>
   <g id="line2d_13">
    <path d="M 82.28154 -1 
L 83.669488 35.725716 
L 85.008688 67.082549 
L 86.347887 93.238118 
L 89.026287 134.898705 
L 89.919088 145.13767 
L 90.811887 153.077054 
L 91.704688 160.122822 
L 92.597487 165.423253 
L 93.490287 169.303898 
L 94.829487 173.353543 
L 95.722287 175.029069 
L 96.168688 175.620153 
L 97.061487 177.122534 
L 97.507887 177.359315 
L 98.400688 178.472772 
L 98.847088 178.778169 
L 99.293487 179.365849 
L 99.739888 179.739483 
L 101.525487 181.67795 
L 104.203888 184.467789 
L 104.650287 184.736366 
L 105.543087 185.750699 
L 107.328688 187.313333 
L 114.024687 193.049733 
L 115.363888 194.018576 
L 117.595888 195.619584 
L 118.042287 196.212159 
L 118.488687 196.276388 
L 118.935087 196.696644 
L 120.274287 197.469903 
L 122.952687 199.291915 
L 123.399087 199.499626 
L 124.291888 200.029951 
L 129.202288 202.821408 
L 129.648687 203.155017 
L 130.095087 203.169124 
L 130.541488 203.579302 
L 131.880687 204.040555 
L 132.773487 204.507021 
L 133.666288 204.757464 
L 134.112687 205.077084 
L 134.559087 205.149846 
L 135.451887 205.621017 
L 135.898287 205.659508 
L 136.791088 206.148286 
L 137.683887 206.295449 
L 140.808687 207.503345 
L 141.255088 207.543031 
L 141.701487 207.707388 
L 142.147887 208.006853 
L 143.487088 208.298726 
L 147.504687 209.517218 
L 147.951087 209.514828 
L 148.397488 209.775771 
L 149.290287 209.914633 
L 150.629487 210.282747 
L 151.075887 210.265648 
L 151.522288 210.44225 
L 151.968687 210.424285 
L 153.307887 210.925889 
L 153.754287 210.851858 
L 154.647087 211.079196 
L 155.093487 211.192193 
L 155.539887 211.183924 
L 156.432687 211.397706 
L 157.325488 211.57141 
L 157.771887 211.747378 
L 158.664688 211.800757 
L 159.557487 212.004271 
L 161.343087 212.285802 
L 161.789488 212.292411 
L 162.235887 212.453321 
L 162.682287 212.384492 
L 164.021487 212.717605 
L 164.914288 212.635538 
L 165.360687 212.902445 
L 166.253488 212.771492 
L 166.699887 213.058015 
L 167.146287 212.972003 
L 168.931887 213.197649 
L 169.378287 213.129635 
L 169.824687 213.34054 
L 172.503087 213.414782 
L 172.949487 213.610143 
L 173.842287 213.650019 
L 175.181488 213.695277 
L 175.627887 213.786988 
L 176.520688 213.781099 
L 180.091887 214.036733 
L 180.538287 213.964331 
L 180.984688 214.200519 
L 181.877487 214.011862 
L 182.770287 214.177837 
L 183.216687 214.135973 
L 183.663087 214.239718 
L 185.002287 214.231333 
L 185.895087 214.322029 
L 186.341487 214.270786 
L 187.234287 214.389165 
L 188.573487 214.386818 
L 193.037487 214.625988 
L 193.483887 214.539511 
L 194.376688 214.59822 
L 194.823087 214.550012 
L 196.162287 214.829756 
L 196.608687 214.599045 
L 197.055088 214.751971 
L 197.501487 214.660218 
L 197.947887 214.734227 
L 198.394288 214.625037 
L 198.840688 214.790028 
L 199.287087 214.689149 
L 199.733487 214.788886 
L 200.626287 214.780025 
L 201.519088 214.812541 
L 202.411887 214.738256 
L 203.304688 214.821804 
L 204.197487 214.817405 
L 206.875887 214.91452 
L 207.768687 214.845353 
L 208.215087 215.008758 
L 208.661487 214.889268 
L 211.339887 215.032815 
L 213.125487 215.02168 
L 214.018287 215.014606 
L 215.803887 214.999284 
L 217.589487 215.02205 
L 218.035888 214.948886 
L 218.482287 215.103526 
L 218.928687 214.987546 
L 219.375088 215.044616 
L 219.821487 215.253544 
L 221.160687 215.032963 
L 222.946287 215.105736 
L 223.392687 215.053276 
L 223.839088 215.13674 
L 224.285487 215.072278 
L 224.731887 215.161061 
L 225.178288 215.034792 
L 227.410287 215.173232 
L 228.303088 215.128227 
L 234.106288 215.156144 
L 234.552687 215.052071 
L 235.445488 215.14319 
L 237.231088 215.173982 
L 237.677487 215.12718 
L 238.123887 215.248024 
L 239.463087 215.098714 
L 239.909488 215.227372 
L 241.248687 215.167162 
L 242.141487 215.250942 
L 243.034288 215.123532 
L 243.480687 215.25293 
L 243.927087 215.135344 
L 244.373488 215.237471 
L 245.712687 215.194602 
L 246.605487 215.328949 
L 247.051887 215.195459 
L 247.498288 215.266772 
L 248.837488 215.188765 
L 249.730287 215.304015 
L 250.176688 215.151036 
L 250.623087 215.281788 
L 251.069487 215.180634 
L 251.515887 215.242716 
L 252.408687 215.216037 
L 253.301488 215.291559 
L 254.194287 215.187909 
L 254.640688 215.256483 
L 255.087087 215.204934 
L 255.533487 215.369666 
L 255.979887 215.22071 
L 256.872687 215.270727 
L 257.319087 215.344922 
L 257.765488 215.133546 
L 258.211887 215.341385 
L 261.783087 215.256431 
L 268.925487 215.200894 
L 269.371887 215.093469 
L 269.818287 215.389583 
L 270.264687 215.400998 
L 270.711087 215.217009 
L 271.157488 215.343547 
L 272.496688 215.213456 
L 273.389487 215.328838 
L 273.835887 215.109056 
L 274.728687 215.294403 
L 275.621488 215.190859 
L 276.067887 215.363607 
L 278.299888 215.232575 
L 279.192687 215.278182 
L 280.531887 215.26526 
L 280.978287 215.339476 
L 281.424688 215.182791 
L 282.317487 215.350669 
L 283.210287 215.230597 
L 284.103087 215.327998 
L 284.549487 215.257361 
L 284.995887 215.377332 
L 285.442287 215.266423 
L 285.888688 215.392855 
L 286.335087 215.233548 
L 286.781487 215.492413 
L 287.227888 215.213425 
L 288.120687 215.323197 
L 288.567087 215.378765 
L 289.459887 215.271108 
L 290.799087 215.371569 
L 291.691888 215.277865 
L 292.138287 215.395684 
L 294.370287 215.264182 
L 295.263087 215.38613 
L 295.709487 215.277738 
L 296.602287 215.307653 
L 298.387887 215.323493 
L 299.280687 215.331101 
L 299.727087 215.382826 
L 300.173487 215.303148 
L 301.066287 215.267449 
L 301.512687 215.547294 
L 301.959088 215.363348 
L 302.405487 215.456894 
L 302.851887 215.319242 
L 304.637487 215.349966 
L 305.083888 215.26268 
L 305.976687 215.38373 
L 306.869487 215.309387 
L 307.315887 215.424467 
L 308.208687 215.276025 
L 308.655087 215.355602 
L 309.101487 215.281925 
L 309.547888 215.345303 
L 309.994287 215.285922 
L 310.887088 215.327739 
L 311.779887 215.310169 
L 312.672687 215.422157 
L 313.565487 215.275063 
L 314.011888 215.428253 
L 314.458287 215.304861 
L 314.904688 215.418562 
L 315.351088 215.32325 
L 315.797487 215.404556 
L 316.243887 215.309165 
L 316.690288 215.46087 
L 320.261487 215.347846 
L 322.939887 215.44909 
L 323.832688 215.282951 
L 324.279088 215.427518 
L 326.064687 215.226251 
L 326.511087 215.399295 
L 326.957488 215.405016 
L 327.403887 215.267438 
L 328.296688 215.423199 
L 330.528687 215.374493 
L 330.975087 215.546654 
L 331.421488 215.308097 
L 331.867887 215.444141 
L 332.314287 215.326084 
L 333.207088 215.375196 
L 334.992687 215.371871 
L 336.778287 215.389657 
L 337.224688 215.346006 
L 337.671087 215.423918 
L 338.563888 215.364162 
L 339.010288 215.42819 
L 339.456687 215.341803 
L 340.349488 215.44394 
L 341.242287 215.368598 
L 341.688688 215.436485 
L 342.581487 215.248785 
L 343.027888 215.397445 
L 343.920687 215.368741 
L 344.367087 215.52348 
L 344.813488 215.357648 
L 346.152688 215.416796 
L 346.599087 215.510273 
L 347.045487 215.232363 
L 347.491888 215.439848 
L 349.277488 215.469556 
L 349.723887 215.330213 
L 350.616688 215.49079 
L 351.063087 215.351864 
L 351.509487 215.4154 
L 351.955888 215.288439 
L 353.295087 215.416309 
L 355.973487 215.444818 
L 356.419888 215.227594 
L 356.866287 215.478397 
L 357.759087 215.410848 
L 358.205488 215.440207 
L 358.651887 215.300229 
L 359.098287 215.449777 
L 359.991087 215.313447 
L 360.437487 215.463444 
L 360.883888 215.344055 
L 363.115887 215.441936 
L 364.455087 215.409468 
L 365.794287 215.409367 
L 366.240687 215.325952 
L 367.133488 215.375794 
L 368.472688 215.434645 
L 368.919087 215.350283 
L 370.258287 215.401405 
L 371.151088 215.379833 
L 371.597487 215.451268 
L 372.936688 215.340735 
L 373.383087 215.547759 
L 373.829487 215.385094 
L 374.722287 215.393231 
L 375.168687 215.524284 
L 378.739888 215.412963 
L 379.632687 215.449444 
L 381.864688 215.464682 
L 382.311087 215.353646 
L 388.114287 215.505594 
L 388.560687 215.338271 
L 389.453487 215.521767 
L 389.899887 215.410123 
L 393.024687 215.474859 
L 393.471088 215.324762 
L 393.917487 215.467204 
L 395.256687 215.436533 
L 395.703087 215.376798 
L 396.595888 215.463291 
L 397.042287 215.390756 
L 397.488687 215.600599 
L 397.935088 215.429517 
L 398.827887 215.394711 
L 401.506287 215.481939 
L 401.952687 215.323213 
L 402.399088 215.567306 
L 403.291887 215.376148 
L 403.738288 215.509845 
L 404.631087 215.351087 
L 405.523888 215.505139 
L 406.863088 215.359488 
L 407.309487 215.455752 
L 407.755887 215.408225 
L 408.202288 215.488125 
L 408.648687 215.38391 
L 410.434287 215.507222 
L 410.880687 215.406243 
L 411.327088 215.487258 
L 412.219887 215.448725 
L 412.666288 215.535366 
L 413.559087 215.431177 
L 415.344687 215.443575 
L 421.594288 215.451109 
L 422.040687 215.583611 
L 422.487087 215.463127 
L 424.719088 215.461187 
L 426.058288 215.395166 
L 426.504687 215.549054 
L 427.397488 215.352308 
L 428.290287 215.527546 
L 429.183087 215.330916 
L 430.968687 215.527472 
L 431.415087 215.405518 
L 434.093487 215.513223 
L 434.539887 215.556821 
L 435.432687 215.46446 
L 435.879087 215.558915 
L 436.325488 215.422093 
L 438.111087 215.488574 
L 438.557487 215.334506 
L 439.003887 215.474188 
L 439.896687 215.480104 
L 441.235887 215.451379 
L 442.128688 215.593266 
L 442.575087 215.374493 
L 443.021487 215.467056 
L 443.914288 215.428523 
L 445.699887 215.483335 
L 446.146287 215.396821 
L 446.592688 215.511198 
L 447.485487 215.417166 
L 447.931887 215.506683 
L 448.378287 215.476969 
L 448.824687 215.569505 
L 449.271087 215.454208 
L 449.717488 215.571075 
L 450.163887 215.437389 
L 451.056688 215.447435 
L 453.288687 215.483472 
L 453.735087 215.572487 
L 454.627887 215.447572 
L 465.341487 215.512589 
L 465.787888 215.584928 
L 466.680687 215.468948 
L 467.127087 215.448461 
L 467.573487 215.539812 
L 468.466287 215.430791 
L 469.805487 215.529989 
L 470.251888 215.387029 
L 471.144687 215.498646 
L 471.591087 215.534102 
L 472.037487 215.420444 
L 472.483887 215.508216 
L 473.376688 215.434709 
L 473.823087 215.68218 
L 474.269487 215.436485 
L 474.715888 215.372484 
L 475.162287 215.49457 
L 475.608687 215.44476 
L 476.055087 215.531818 
L 476.501487 215.445056 
L 476.947887 215.689513 
L 477.394287 215.386923 
L 477.840688 215.66073 
L 478.287087 215.487855 
L 480.519087 215.431304 
L 484.090287 215.467828 
L 484.536687 215.517337 
L 484.983087 215.44136 
L 485.875887 215.511589 
L 486.768687 215.435031 
L 487.215087 215.542229 
L 488.554287 215.482695 
L 490.339887 215.531723 
L 490.786287 215.442423 
L 491.232687 215.523427 
L 491.679087 215.412672 
L 493.464687 215.477836 
L 496.589487 215.497689 
L 497.035888 215.606462 
L 498.375088 215.356252 
L 498.821487 215.524189 
L 501.946287 215.483715 
L 502.839088 215.521931 
L 503.285487 215.447905 
L 503.731887 215.534599 
L 504.178287 215.498097 
L 504.178287 215.498097 
" clip-path="url(#pdaefef76dc)" style="fill: none; stroke: #0000ff; stroke-width: 2; stroke-linecap: square"/>
   </g>
   <g id="patch_3">
    <path d="M 58.224688 304.026563 
L 58.224688 26.826562 
" style="fill: none; stroke: #000000; stroke-width: 0.8; stroke-linejoin: miter; stroke-linecap: square"/>
   </g>
   <g id="patch_4">
    <path d="M 504.624687 304.026563 
L 504.624687 26.826562 
" style="fill: none; stroke: #000000; stroke-width: 0.8; stroke-linejoin: miter; stroke-linecap: square"/>
   </g>
   <g id="patch_5">
    <path d="M 58.224688 304.026563 
L 504.624687 304.026563 
" style="fill: none; stroke: #000000; stroke-width: 0.8; stroke-linejoin: miter; stroke-linecap: square"/>
   </g>
   <g id="patch_6">
    <path d="M 58.224688 26.826562 
L 504.624687 26.826562 
" style="fill: none; stroke: #000000; stroke-width: 0.8; stroke-linejoin: miter; stroke-linecap: square"/>
   </g>
   <g id="text_15">
    <!-- Linear Regression with Single Neuron -->
    <g transform="translate(108.980469 20.826562)scale(0.18 -0.18)">
     <defs>
      <path id="Montserrat-Medium-4c" d="M 672 4480 
L 1312 4480 
L 1312 557 
L 3738 557 
L 3738 0 
L 672 0 
L 672 4480 
z
" transform="scale(0.015625)"/>
      <path id="Montserrat-Medium-52" d="M 3667 0 
L 2701 1376 
Q 2522 1363 2419 1363 
L 1312 1363 
L 1312 0 
L 672 0 
L 672 4480 
L 2419 4480 
Q 3290 4480 3789 4064 
Q 4288 3648 4288 2918 
Q 4288 2400 4032 2035 
Q 3776 1670 3302 1504 
L 4365 0 
L 3667 0 
z
M 2400 1907 
Q 3008 1907 3328 2169 
Q 3648 2432 3648 2918 
Q 3648 3405 3328 3664 
Q 3008 3923 2400 3923 
L 1312 3923 
L 1312 1907 
L 2400 1907 
z
" transform="scale(0.015625)"/>
      <path id="Montserrat-Medium-67" d="M 3827 3392 
L 3827 461 
Q 3827 -429 3385 -854 
Q 2944 -1280 2067 -1280 
Q 1587 -1280 1152 -1149 
Q 717 -1018 448 -774 
L 742 -301 
Q 979 -506 1328 -624 
Q 1677 -742 2048 -742 
Q 2643 -742 2928 -460 
Q 3213 -179 3213 397 
L 3213 666 
Q 2995 403 2678 272 
Q 2362 141 1990 141 
Q 1504 141 1110 349 
Q 717 557 493 931 
Q 269 1306 269 1786 
Q 269 2266 493 2640 
Q 717 3014 1110 3219 
Q 1504 3424 1990 3424 
Q 2374 3424 2704 3283 
Q 3034 3142 3245 2867 
L 3245 3392 
L 3827 3392 
z
M 2061 678 
Q 2394 678 2659 819 
Q 2925 960 3075 1213 
Q 3226 1466 3226 1786 
Q 3226 2278 2899 2582 
Q 2573 2886 2061 2886 
Q 1542 2886 1216 2582 
Q 890 2278 890 1786 
Q 890 1466 1040 1213 
Q 1190 960 1456 819 
Q 1722 678 2061 678 
z
" transform="scale(0.015625)"/>
      <path id="Montserrat-Medium-77" d="M 5715 3392 
L 4448 0 
L 3859 0 
L 2880 2573 
L 1888 0 
L 1299 0 
L 38 3392 
L 621 3392 
L 1606 691 
L 2630 3392 
L 3149 3392 
L 4154 678 
L 5165 3392 
L 5715 3392 
z
" transform="scale(0.015625)"/>
      <path id="Montserrat-Medium-68" d="M 2394 3424 
Q 3040 3424 3421 3049 
Q 3802 2675 3802 1952 
L 3802 0 
L 3187 0 
L 3187 1882 
Q 3187 2374 2950 2624 
Q 2714 2874 2272 2874 
Q 1773 2874 1485 2582 
Q 1197 2291 1197 1747 
L 1197 0 
L 582 0 
L 582 4749 
L 1197 4749 
L 1197 2912 
Q 1389 3155 1699 3289 
Q 2010 3424 2394 3424 
z
" transform="scale(0.015625)"/>
      <path id="Montserrat-Medium-6c" d="M 582 4749 
L 1197 4749 
L 1197 0 
L 582 0 
L 582 4749 
z
" transform="scale(0.015625)"/>
     </defs>
     <use xlink:href="#Montserrat-Medium-4c"/>
     <use xlink:href="#Montserrat-Medium-69" x="59.399994"/>
     <use xlink:href="#Montserrat-Medium-6e" x="87.299988"/>
     <use xlink:href="#Montserrat-Medium-65" x="155.399979"/>
     <use xlink:href="#Montserrat-Medium-61" x="216.599976"/>
     <use xlink:href="#Montserrat-Medium-72" x="276.399963"/>
     <use xlink:href="#Montserrat-Medium-20" x="317.399948"/>
     <use xlink:href="#Montserrat-Medium-52" x="344.299942"/>
     <use xlink:href="#Montserrat-Medium-65" x="416.999924"/>
     <use xlink:href="#Montserrat-Medium-67" x="478.199921"/>
     <use xlink:href="#Montserrat-Medium-72" x="547.199905"/>
     <use xlink:href="#Montserrat-Medium-65" x="588.19989"/>
     <use xlink:href="#Montserrat-Medium-73" x="649.399887"/>
     <use xlink:href="#Montserrat-Medium-73" x="699.499878"/>
     <use xlink:href="#Montserrat-Medium-69" x="749.599869"/>
     <use xlink:href="#Montserrat-Medium-6f" x="777.499863"/>
     <use xlink:href="#Montserrat-Medium-6e" x="840.999847"/>
     <use xlink:href="#Montserrat-Medium-20" x="909.099838"/>
     <use xlink:href="#Montserrat-Medium-77" x="935.999832"/>
     <use xlink:href="#Montserrat-Medium-69" x="1025.899826"/>
     <use xlink:href="#Montserrat-Medium-74" x="1053.79982"/>
     <use xlink:href="#Montserrat-Medium-68" x="1095.199814"/>
     <use xlink:href="#Montserrat-Medium-20" x="1163.299805"/>
     <use xlink:href="#Montserrat-Medium-53" x="1190.199799"/>
     <use xlink:href="#Montserrat-Medium-69" x="1252.299789"/>
     <use xlink:href="#Montserrat-Medium-6e" x="1280.199783"/>
     <use xlink:href="#Montserrat-Medium-67" x="1348.299774"/>
     <use xlink:href="#Montserrat-Medium-6c" x="1417.299759"/>
     <use xlink:href="#Montserrat-Medium-65" x="1445.199753"/>
     <use xlink:href="#Montserrat-Medium-20" x="1506.39975"/>
     <use xlink:href="#Montserrat-Medium-4e" x="1533.299744"/>
     <use xlink:href="#Montserrat-Medium-65" x="1614.499725"/>
     <use xlink:href="#Montserrat-Medium-75" x="1675.699722"/>
     <use xlink:href="#Montserrat-Medium-72" x="1743.399704"/>
     <use xlink:href="#Montserrat-Medium-6f" x="1784.399689"/>
     <use xlink:href="#Montserrat-Medium-6e" x="1847.899673"/>
    </g>
   </g>
  </g>
 </g>
 <defs>
  <clipPath id="pdaefef76dc">
   <rect x="58.224688" y="26.826562" width="446.4" height="277.2"/>
  </clipPath>
 </defs>
</svg>
