<?xml version="1.0" encoding="utf-8" standalone="no"?>
<!DOCTYPE svg PUBLIC "-//W3C//DTD SVG 1.1//EN"
  "http://www.w3.org/Graphics/SVG/1.1/DTD/svg11.dtd">
<svg xmlns:xlink="http://www.w3.org/1999/xlink" width="540.790625pt" height="356.226875pt" viewBox="0 0 540.790625 356.226875" xmlns="http://www.w3.org/2000/svg" version="1.1">
 <metadata>
  <rdf:RDF xmlns:dc="http://purl.org/dc/elements/1.1/" xmlns:cc="http://creativecommons.org/ns#" xmlns:rdf="http://www.w3.org/1999/02/22-rdf-syntax-ns#">
   <cc:Work>
    <dc:type rdf:resource="http://purl.org/dc/dcmitype/StillImage"/>
    <dc:date>2023-01-06T00:32:23.665846</dc:date>
    <dc:format>image/svg+xml</dc:format>
    <dc:creator>
     <cc:Agent>
      <dc:title>Matplotlib v3.5.2, https://matplotlib.org/</dc:title>
     </cc:Agent>
    </dc:creator>
   </cc:Work>
  </rdf:RDF>
 </metadata>
 <defs>
  <style type="text/css">*{stroke-linejoin: round; stroke-linecap: butt}</style>
 </defs>
 <g id="figure_1">
  <g id="patch_1">
   <path d="M 0 356.226875 
L 540.790625 356.226875 
L 540.790625 0 
L 0 0 
z
" style="fill: #ffffff"/>
  </g>
  <g id="axes_1">
   <g id="patch_2">
    <path d="M 64.285625 303.756563 
L 510.685625 303.756563 
L 510.685625 26.556563 
L 64.285625 26.556563 
z
" style="fill: #f1f7f0"/>
   </g>
   <g id="matplotlib.axis_1">
    <g id="xtick_1">
     <g id="line2d_1">
      <defs>
       <path id="mcc1890f57e" d="M 0 0 
L 0 3.5 
" style="stroke: #000000; stroke-width: 0.8"/>
      </defs>
      <g>
       <use xlink:href="#mcc1890f57e" x="64.285625" y="303.756563" style="stroke: #000000; stroke-width: 0.8"/>
      </g>
     </g>
     <g id="text_1">
      <!-- 0 -->
      <g transform="translate(58.559375 324.43375)scale(0.18 -0.18)">
       <defs>
        <path id="DejaVuSans-30" d="M 2034 4250 
Q 1547 4250 1301 3770 
Q 1056 3291 1056 2328 
Q 1056 1369 1301 889 
Q 1547 409 2034 409 
Q 2525 409 2770 889 
Q 3016 1369 3016 2328 
Q 3016 3291 2770 3770 
Q 2525 4250 2034 4250 
z
M 2034 4750 
Q 2819 4750 3233 4129 
Q 3647 3509 3647 2328 
Q 3647 1150 3233 529 
Q 2819 -91 2034 -91 
Q 1250 -91 836 529 
Q 422 1150 422 2328 
Q 422 3509 836 4129 
Q 1250 4750 2034 4750 
z
" transform="scale(0.015625)"/>
       </defs>
       <use xlink:href="#DejaVuSans-30"/>
      </g>
     </g>
    </g>
    <g id="xtick_2">
     <g id="line2d_2">
      <g>
       <use xlink:href="#mcc1890f57e" x="153.565625" y="303.756563" style="stroke: #000000; stroke-width: 0.8"/>
      </g>
     </g>
     <g id="text_2">
      <!-- 200 -->
      <g transform="translate(136.386875 324.43375)scale(0.18 -0.18)">
       <defs>
        <path id="DejaVuSans-32" d="M 1228 531 
L 3431 531 
L 3431 0 
L 469 0 
L 469 531 
Q 828 903 1448 1529 
Q 2069 2156 2228 2338 
Q 2531 2678 2651 2914 
Q 2772 3150 2772 3378 
Q 2772 3750 2511 3984 
Q 2250 4219 1831 4219 
Q 1534 4219 1204 4116 
Q 875 4013 500 3803 
L 500 4441 
Q 881 4594 1212 4672 
Q 1544 4750 1819 4750 
Q 2544 4750 2975 4387 
Q 3406 4025 3406 3419 
Q 3406 3131 3298 2873 
Q 3191 2616 2906 2266 
Q 2828 2175 2409 1742 
Q 1991 1309 1228 531 
z
" transform="scale(0.015625)"/>
       </defs>
       <use xlink:href="#DejaVuSans-32"/>
       <use xlink:href="#DejaVuSans-30" x="63.623047"/>
       <use xlink:href="#DejaVuSans-30" x="127.246094"/>
      </g>
     </g>
    </g>
    <g id="xtick_3">
     <g id="line2d_3">
      <g>
       <use xlink:href="#mcc1890f57e" x="242.845625" y="303.756563" style="stroke: #000000; stroke-width: 0.8"/>
      </g>
     </g>
     <g id="text_3">
      <!-- 400 -->
      <g transform="translate(225.666875 324.43375)scale(0.18 -0.18)">
       <defs>
        <path id="DejaVuSans-34" d="M 2419 4116 
L 825 1625 
L 2419 1625 
L 2419 4116 
z
M 2253 4666 
L 3047 4666 
L 3047 1625 
L 3713 1625 
L 3713 1100 
L 3047 1100 
L 3047 0 
L 2419 0 
L 2419 1100 
L 313 1100 
L 313 1709 
L 2253 4666 
z
" transform="scale(0.015625)"/>
       </defs>
       <use xlink:href="#DejaVuSans-34"/>
       <use xlink:href="#DejaVuSans-30" x="63.623047"/>
       <use xlink:href="#DejaVuSans-30" x="127.246094"/>
      </g>
     </g>
    </g>
    <g id="xtick_4">
     <g id="line2d_4">
      <g>
       <use xlink:href="#mcc1890f57e" x="332.125625" y="303.756563" style="stroke: #000000; stroke-width: 0.8"/>
      </g>
     </g>
     <g id="text_4">
      <!-- 600 -->
      <g transform="translate(314.946875 324.43375)scale(0.18 -0.18)">
       <defs>
        <path id="DejaVuSans-36" d="M 2113 2584 
Q 1688 2584 1439 2293 
Q 1191 2003 1191 1497 
Q 1191 994 1439 701 
Q 1688 409 2113 409 
Q 2538 409 2786 701 
Q 3034 994 3034 1497 
Q 3034 2003 2786 2293 
Q 2538 2584 2113 2584 
z
M 3366 4563 
L 3366 3988 
Q 3128 4100 2886 4159 
Q 2644 4219 2406 4219 
Q 1781 4219 1451 3797 
Q 1122 3375 1075 2522 
Q 1259 2794 1537 2939 
Q 1816 3084 2150 3084 
Q 2853 3084 3261 2657 
Q 3669 2231 3669 1497 
Q 3669 778 3244 343 
Q 2819 -91 2113 -91 
Q 1303 -91 875 529 
Q 447 1150 447 2328 
Q 447 3434 972 4092 
Q 1497 4750 2381 4750 
Q 2619 4750 2861 4703 
Q 3103 4656 3366 4563 
z
" transform="scale(0.015625)"/>
       </defs>
       <use xlink:href="#DejaVuSans-36"/>
       <use xlink:href="#DejaVuSans-30" x="63.623047"/>
       <use xlink:href="#DejaVuSans-30" x="127.246094"/>
      </g>
     </g>
    </g>
    <g id="xtick_5">
     <g id="line2d_5">
      <g>
       <use xlink:href="#mcc1890f57e" x="421.405625" y="303.756563" style="stroke: #000000; stroke-width: 0.8"/>
      </g>
     </g>
     <g id="text_5">
      <!-- 800 -->
      <g transform="translate(404.226875 324.43375)scale(0.18 -0.18)">
       <defs>
        <path id="DejaVuSans-38" d="M 2034 2216 
Q 1584 2216 1326 1975 
Q 1069 1734 1069 1313 
Q 1069 891 1326 650 
Q 1584 409 2034 409 
Q 2484 409 2743 651 
Q 3003 894 3003 1313 
Q 3003 1734 2745 1975 
Q 2488 2216 2034 2216 
z
M 1403 2484 
Q 997 2584 770 2862 
Q 544 3141 544 3541 
Q 544 4100 942 4425 
Q 1341 4750 2034 4750 
Q 2731 4750 3128 4425 
Q 3525 4100 3525 3541 
Q 3525 3141 3298 2862 
Q 3072 2584 2669 2484 
Q 3125 2378 3379 2068 
Q 3634 1759 3634 1313 
Q 3634 634 3220 271 
Q 2806 -91 2034 -91 
Q 1263 -91 848 271 
Q 434 634 434 1313 
Q 434 1759 690 2068 
Q 947 2378 1403 2484 
z
M 1172 3481 
Q 1172 3119 1398 2916 
Q 1625 2713 2034 2713 
Q 2441 2713 2670 2916 
Q 2900 3119 2900 3481 
Q 2900 3844 2670 4047 
Q 2441 4250 2034 4250 
Q 1625 4250 1398 4047 
Q 1172 3844 1172 3481 
z
" transform="scale(0.015625)"/>
       </defs>
       <use xlink:href="#DejaVuSans-38"/>
       <use xlink:href="#DejaVuSans-30" x="63.623047"/>
       <use xlink:href="#DejaVuSans-30" x="127.246094"/>
      </g>
     </g>
    </g>
    <g id="xtick_6">
     <g id="line2d_6">
      <g>
       <use xlink:href="#mcc1890f57e" x="510.685625" y="303.756563" style="stroke: #000000; stroke-width: 0.8"/>
      </g>
     </g>
     <g id="text_6">
      <!-- 1000 -->
      <g transform="translate(487.780625 324.43375)scale(0.18 -0.18)">
       <defs>
        <path id="DejaVuSans-31" d="M 794 531 
L 1825 531 
L 1825 4091 
L 703 3866 
L 703 4441 
L 1819 4666 
L 2450 4666 
L 2450 531 
L 3481 531 
L 3481 0 
L 794 0 
L 794 531 
z
" transform="scale(0.015625)"/>
       </defs>
       <use xlink:href="#DejaVuSans-31"/>
       <use xlink:href="#DejaVuSans-30" x="63.623047"/>
       <use xlink:href="#DejaVuSans-30" x="127.246094"/>
       <use xlink:href="#DejaVuSans-30" x="190.869141"/>
      </g>
     </g>
    </g>
    <g id="text_7">
     <!-- Epochs -->
     <g transform="translate(253.827031 345.53375)scale(0.18 -0.18)">
      <defs>
       <path id="Montserrat-Medium-45" d="M 3923 557 
L 3923 0 
L 672 0 
L 672 4480 
L 3834 4480 
L 3834 3923 
L 1312 3923 
L 1312 2547 
L 3558 2547 
L 3558 2003 
L 1312 2003 
L 1312 557 
L 3923 557 
z
" transform="scale(0.015625)"/>
       <path id="Montserrat-Medium-70" d="M 2381 3424 
Q 2874 3424 3264 3206 
Q 3654 2989 3875 2598 
Q 4096 2208 4096 1696 
Q 4096 1184 3875 790 
Q 3654 397 3264 179 
Q 2874 -38 2381 -38 
Q 2016 -38 1712 102 
Q 1408 243 1197 512 
L 1197 -1242 
L 582 -1242 
L 582 3392 
L 1171 3392 
L 1171 2854 
Q 1376 3136 1689 3280 
Q 2003 3424 2381 3424 
z
M 2330 499 
Q 2656 499 2915 649 
Q 3174 800 3324 1072 
Q 3475 1344 3475 1696 
Q 3475 2048 3324 2320 
Q 3174 2592 2915 2739 
Q 2656 2886 2330 2886 
Q 2010 2886 1750 2736 
Q 1491 2586 1340 2317 
Q 1190 2048 1190 1696 
Q 1190 1344 1337 1072 
Q 1485 800 1747 649 
Q 2010 499 2330 499 
z
" transform="scale(0.015625)"/>
       <path id="Montserrat-Medium-6f" d="M 2035 -38 
Q 1530 -38 1126 186 
Q 723 410 496 803 
Q 269 1197 269 1696 
Q 269 2195 496 2588 
Q 723 2982 1126 3203 
Q 1530 3424 2035 3424 
Q 2541 3424 2941 3203 
Q 3341 2982 3568 2588 
Q 3795 2195 3795 1696 
Q 3795 1197 3568 803 
Q 3341 410 2941 186 
Q 2541 -38 2035 -38 
z
M 2035 499 
Q 2362 499 2621 649 
Q 2880 800 3027 1072 
Q 3174 1344 3174 1696 
Q 3174 2048 3027 2320 
Q 2880 2592 2621 2739 
Q 2362 2886 2035 2886 
Q 1709 2886 1449 2739 
Q 1190 2592 1040 2320 
Q 890 2048 890 1696 
Q 890 1344 1040 1072 
Q 1190 800 1449 649 
Q 1709 499 2035 499 
z
" transform="scale(0.015625)"/>
       <path id="Montserrat-Medium-63" d="M 2061 -38 
Q 1542 -38 1136 186 
Q 730 410 499 803 
Q 269 1197 269 1696 
Q 269 2195 499 2588 
Q 730 2982 1136 3203 
Q 1542 3424 2061 3424 
Q 2522 3424 2883 3238 
Q 3245 3053 3443 2701 
L 2976 2400 
Q 2816 2643 2579 2764 
Q 2342 2886 2054 2886 
Q 1722 2886 1456 2739 
Q 1190 2592 1040 2320 
Q 890 2048 890 1696 
Q 890 1338 1040 1066 
Q 1190 794 1456 646 
Q 1722 499 2054 499 
Q 2342 499 2579 620 
Q 2816 742 2976 986 
L 3443 691 
Q 3245 339 2883 150 
Q 2522 -38 2061 -38 
z
" transform="scale(0.015625)"/>
       <path id="Montserrat-Medium-68" d="M 2394 3424 
Q 3040 3424 3421 3049 
Q 3802 2675 3802 1952 
L 3802 0 
L 3187 0 
L 3187 1882 
Q 3187 2374 2950 2624 
Q 2714 2874 2272 2874 
Q 1773 2874 1485 2582 
Q 1197 2291 1197 1747 
L 1197 0 
L 582 0 
L 582 4749 
L 1197 4749 
L 1197 2912 
Q 1389 3155 1699 3289 
Q 2010 3424 2394 3424 
z
" transform="scale(0.015625)"/>
       <path id="Montserrat-Medium-73" d="M 1555 -38 
Q 1139 -38 755 74 
Q 371 186 154 358 
L 410 845 
Q 634 685 954 589 
Q 1274 493 1600 493 
Q 2406 493 2406 954 
Q 2406 1107 2297 1196 
Q 2189 1286 2025 1328 
Q 1862 1370 1562 1421 
Q 1152 1485 893 1568 
Q 634 1651 448 1849 
Q 262 2048 262 2406 
Q 262 2867 646 3145 
Q 1030 3424 1677 3424 
Q 2016 3424 2355 3341 
Q 2694 3258 2912 3117 
L 2650 2630 
Q 2234 2899 1670 2899 
Q 1280 2899 1075 2771 
Q 870 2643 870 2432 
Q 870 2266 985 2170 
Q 1101 2074 1270 2029 
Q 1440 1984 1747 1926 
Q 2157 1856 2409 1776 
Q 2662 1696 2841 1504 
Q 3021 1312 3021 966 
Q 3021 506 2627 234 
Q 2234 -38 1555 -38 
z
" transform="scale(0.015625)"/>
      </defs>
      <use xlink:href="#Montserrat-Medium-45"/>
      <use xlink:href="#Montserrat-Medium-70" x="66.999985"/>
      <use xlink:href="#Montserrat-Medium-6f" x="135.199966"/>
      <use xlink:href="#Montserrat-Medium-63" x="198.699951"/>
      <use xlink:href="#Montserrat-Medium-68" x="255.799942"/>
      <use xlink:href="#Montserrat-Medium-73" x="323.899933"/>
     </g>
    </g>
   </g>
   <g id="matplotlib.axis_2">
    <g id="ytick_1">
     <g id="line2d_7">
      <defs>
       <path id="mb76611da4c" d="M 0 0 
L -3.5 0 
" style="stroke: #000000; stroke-width: 0.8"/>
      </defs>
      <g>
       <use xlink:href="#mb76611da4c" x="64.285625" y="303.756563" style="stroke: #000000; stroke-width: 0.8"/>
      </g>
     </g>
     <g id="text_8">
      <!-- 0.0 -->
      <g transform="translate(28.66 310.595156)scale(0.18 -0.18)">
       <defs>
        <path id="DejaVuSans-2e" d="M 684 794 
L 1344 794 
L 1344 0 
L 684 0 
L 684 794 
z
" transform="scale(0.015625)"/>
       </defs>
       <use xlink:href="#DejaVuSans-30"/>
       <use xlink:href="#DejaVuSans-2e" x="63.623047"/>
       <use xlink:href="#DejaVuSans-30" x="95.410156"/>
      </g>
     </g>
    </g>
    <g id="ytick_2">
     <g id="line2d_8">
      <g>
       <use xlink:href="#mb76611da4c" x="64.285625" y="248.316563" style="stroke: #000000; stroke-width: 0.8"/>
      </g>
     </g>
     <g id="text_9">
      <!-- 0.2 -->
      <g transform="translate(28.66 255.155156)scale(0.18 -0.18)">
       <use xlink:href="#DejaVuSans-30"/>
       <use xlink:href="#DejaVuSans-2e" x="63.623047"/>
       <use xlink:href="#DejaVuSans-32" x="95.410156"/>
      </g>
     </g>
    </g>
    <g id="ytick_3">
     <g id="line2d_9">
      <g>
       <use xlink:href="#mb76611da4c" x="64.285625" y="192.876563" style="stroke: #000000; stroke-width: 0.8"/>
      </g>
     </g>
     <g id="text_10">
      <!-- 0.4 -->
      <g transform="translate(28.66 199.715156)scale(0.18 -0.18)">
       <use xlink:href="#DejaVuSans-30"/>
       <use xlink:href="#DejaVuSans-2e" x="63.623047"/>
       <use xlink:href="#DejaVuSans-34" x="95.410156"/>
      </g>
     </g>
    </g>
    <g id="ytick_4">
     <g id="line2d_10">
      <g>
       <use xlink:href="#mb76611da4c" x="64.285625" y="137.436563" style="stroke: #000000; stroke-width: 0.8"/>
      </g>
     </g>
     <g id="text_11">
      <!-- 0.6 -->
      <g transform="translate(28.66 144.275156)scale(0.18 -0.18)">
       <use xlink:href="#DejaVuSans-30"/>
       <use xlink:href="#DejaVuSans-2e" x="63.623047"/>
       <use xlink:href="#DejaVuSans-36" x="95.410156"/>
      </g>
     </g>
    </g>
    <g id="ytick_5">
     <g id="line2d_11">
      <g>
       <use xlink:href="#mb76611da4c" x="64.285625" y="81.996563" style="stroke: #000000; stroke-width: 0.8"/>
      </g>
     </g>
     <g id="text_12">
      <!-- 0.8 -->
      <g transform="translate(28.66 88.835156)scale(0.18 -0.18)">
       <use xlink:href="#DejaVuSans-30"/>
       <use xlink:href="#DejaVuSans-2e" x="63.623047"/>
       <use xlink:href="#DejaVuSans-38" x="95.410156"/>
      </g>
     </g>
    </g>
    <g id="ytick_6">
     <g id="line2d_12">
      <g>
       <use xlink:href="#mb76611da4c" x="64.285625" y="26.556563" style="stroke: #000000; stroke-width: 0.8"/>
      </g>
     </g>
     <g id="text_13">
      <!-- 1.0 -->
      <g transform="translate(28.66 33.395156)scale(0.18 -0.18)">
       <use xlink:href="#DejaVuSans-31"/>
       <use xlink:href="#DejaVuSans-2e" x="63.623047"/>
       <use xlink:href="#DejaVuSans-30" x="95.410156"/>
      </g>
     </g>
    </g>
    <g id="text_14">
     <!-- Cost function $J$ -->
     <g transform="translate(20.88 231.756563)rotate(-90)scale(0.18 -0.18)">
      <defs>
       <path id="Montserrat-Medium-43" d="M 2675 -51 
Q 2003 -51 1462 246 
Q 922 544 614 1065 
Q 307 1587 307 2240 
Q 307 2893 614 3414 
Q 922 3936 1466 4233 
Q 2010 4531 2682 4531 
Q 3206 4531 3641 4355 
Q 4077 4179 4384 3834 
L 3968 3430 
Q 3462 3962 2707 3962 
Q 2208 3962 1805 3738 
Q 1402 3514 1174 3120 
Q 947 2726 947 2240 
Q 947 1754 1174 1360 
Q 1402 966 1805 742 
Q 2208 518 2707 518 
Q 3456 518 3968 1056 
L 4384 653 
Q 4077 307 3638 128 
Q 3200 -51 2675 -51 
z
" transform="scale(0.015625)"/>
       <path id="Montserrat-Medium-74" d="M 2490 198 
Q 2355 83 2156 22 
Q 1958 -38 1747 -38 
Q 1235 -38 953 237 
Q 672 512 672 1024 
L 672 2886 
L 96 2886 
L 96 3392 
L 672 3392 
L 672 4134 
L 1286 4134 
L 1286 3392 
L 2259 3392 
L 2259 2886 
L 1286 2886 
L 1286 1050 
Q 1286 774 1424 627 
Q 1562 480 1818 480 
Q 2099 480 2298 640 
L 2490 198 
z
" transform="scale(0.015625)"/>
       <path id="Montserrat-Medium-20" transform="scale(0.015625)"/>
       <path id="Montserrat-Medium-66" d="M 1824 4282 
Q 1274 4282 1274 3686 
L 1274 3392 
L 2259 3392 
L 2259 2886 
L 1286 2886 
L 1286 0 
L 672 0 
L 672 2886 
L 96 2886 
L 96 3392 
L 672 3392 
L 672 3693 
Q 672 4198 966 4492 
Q 1261 4787 1792 4787 
Q 1997 4787 2176 4736 
Q 2355 4685 2483 4589 
L 2298 4122 
Q 2086 4282 1824 4282 
z
" transform="scale(0.015625)"/>
       <path id="Montserrat-Medium-75" d="M 3744 3392 
L 3744 0 
L 3162 0 
L 3162 512 
Q 2976 250 2672 106 
Q 2368 -38 2010 -38 
Q 1331 -38 940 336 
Q 550 710 550 1440 
L 550 3392 
L 1165 3392 
L 1165 1510 
Q 1165 1018 1401 765 
Q 1638 512 2080 512 
Q 2566 512 2848 806 
Q 3130 1101 3130 1638 
L 3130 3392 
L 3744 3392 
z
" transform="scale(0.015625)"/>
       <path id="Montserrat-Medium-6e" d="M 2394 3424 
Q 3040 3424 3421 3049 
Q 3802 2675 3802 1952 
L 3802 0 
L 3187 0 
L 3187 1882 
Q 3187 2374 2950 2624 
Q 2714 2874 2272 2874 
Q 1773 2874 1485 2582 
Q 1197 2291 1197 1747 
L 1197 0 
L 582 0 
L 582 3392 
L 1171 3392 
L 1171 2880 
Q 1357 3142 1673 3283 
Q 1990 3424 2394 3424 
z
" transform="scale(0.015625)"/>
       <path id="Montserrat-Medium-69" d="M 582 3392 
L 1197 3392 
L 1197 0 
L 582 0 
L 582 3392 
z
M 890 4045 
Q 710 4045 592 4160 
Q 474 4275 474 4442 
Q 474 4608 592 4726 
Q 710 4845 890 4845 
Q 1069 4845 1187 4733 
Q 1306 4621 1306 4454 
Q 1306 4282 1187 4163 
Q 1069 4045 890 4045 
z
" transform="scale(0.015625)"/>
       <path id="DejaVuSans-Oblique-4a" d="M 1069 4666 
L 1703 4666 
L 856 325 
Q 691 -522 298 -901 
Q -94 -1281 -800 -1281 
L -1050 -1281 
L -947 -750 
L -750 -750 
Q -328 -750 -109 -509 
Q 109 -269 225 325 
L 1069 4666 
z
" transform="scale(0.015625)"/>
      </defs>
      <use xlink:href="#Montserrat-Medium-43" transform="translate(0 0.296875)"/>
      <use xlink:href="#Montserrat-Medium-6f" transform="translate(72.299988 0.296875)"/>
      <use xlink:href="#Montserrat-Medium-73" transform="translate(135.799973 0.296875)"/>
      <use xlink:href="#Montserrat-Medium-74" transform="translate(185.899963 0.296875)"/>
      <use xlink:href="#Montserrat-Medium-20" transform="translate(227.299957 0.296875)"/>
      <use xlink:href="#Montserrat-Medium-66" transform="translate(254.199951 0.296875)"/>
      <use xlink:href="#Montserrat-Medium-75" transform="translate(289.499939 0.296875)"/>
      <use xlink:href="#Montserrat-Medium-6e" transform="translate(357.199921 0.296875)"/>
      <use xlink:href="#Montserrat-Medium-63" transform="translate(425.299911 0.296875)"/>
      <use xlink:href="#Montserrat-Medium-74" transform="translate(482.399902 0.296875)"/>
      <use xlink:href="#Montserrat-Medium-69" transform="translate(523.799896 0.296875)"/>
      <use xlink:href="#Montserrat-Medium-6f" transform="translate(551.69989 0.296875)"/>
      <use xlink:href="#Montserrat-Medium-6e" transform="translate(615.199875 0.296875)"/>
      <use xlink:href="#Montserrat-Medium-20" transform="translate(683.299866 0.296875)"/>
      <use xlink:href="#DejaVuSans-Oblique-4a" transform="translate(710.19986 0.296875)"/>
     </g>
    </g>
   </g>
   <g id="line2d_13">
    <path d="M 72.178941 -1 
L 74.552825 13.208704 
L 75.892025 19.717773 
L 77.231225 24.890575 
L 78.570425 29.212771 
L 79.909625 32.923109 
L 81.248825 36.120426 
L 83.034425 39.827839 
L 86.159225 45.238845 
L 87.498425 47.284154 
L 91.516025 52.810866 
L 94.640825 56.729701 
L 95.533625 57.744061 
L 96.426425 58.790755 
L 99.997625 62.9088 
L 103.122425 66.207367 
L 105.354425 68.298442 
L 106.247225 69.079605 
L 109.818425 72.295196 
L 115.175225 77.655627 
L 118.300025 80.181639 
L 120.532025 81.625053 
L 121.424825 82.176835 
L 125.888825 84.628364 
L 127.674425 85.489214 
L 128.567225 85.913675 
L 130.799225 86.875527 
L 132.138425 87.333446 
L 133.477625 87.885509 
L 133.924025 87.945369 
L 136.602425 88.890649 
L 145.084025 91.349266 
L 146.423225 91.632626 
L 146.869625 91.700764 
L 147.316025 91.897397 
L 147.762425 91.933647 
L 149.101625 92.312572 
L 150.440825 92.549817 
L 151.780025 92.86751 
L 152.226425 93.008744 
L 153.119225 93.109844 
L 154.012025 93.353897 
L 155.797625 93.645997 
L 156.244025 93.825645 
L 156.690425 93.83683 
L 157.583225 94.059486 
L 158.476025 94.207907 
L 165.618425 95.427277 
L 166.064825 95.398082 
L 168.296825 95.781072 
L 172.314425 96.33824 
L 172.760825 96.470766 
L 173.653625 96.490445 
L 174.100025 96.664673 
L 175.885625 96.829055 
L 177.671225 97.04031 
L 180.349625 97.386141 
L 181.688825 97.537288 
L 183.474425 97.793666 
L 184.367225 97.81726 
L 185.706425 97.992183 
L 189.724025 98.374693 
L 190.616825 98.494183 
L 209.812025 100.203773 
L 210.704825 100.273498 
L 212.044025 100.411262 
L 215.168825 100.59889 
L 216.061625 100.693993 
L 227.221625 101.488192 
L 230.792825 101.670005 
L 232.578425 101.750898 
L 233.917625 101.884796 
L 237.488825 102.07715 
L 237.935225 102.210337 
L 238.381625 102.14547 
L 240.613625 102.296138 
L 243.292025 102.413331 
L 245.524025 102.544717 
L 245.970425 102.517389 
L 246.416825 102.66348 
L 246.863225 102.584041 
L 249.541625 102.7586 
L 265.165625 103.481901 
L 266.058425 103.540672 
L 266.504825 103.622623 
L 267.844025 103.554022 
L 268.736825 103.667465 
L 291.503225 104.51014 
L 292.396025 104.510983 
L 293.288825 104.584838 
L 294.181625 104.660428 
L 295.520825 104.662361 
L 297.306425 104.703816 
L 298.199225 104.7037 
L 300.431225 104.871304 
L 301.324025 104.846454 
L 301.770425 104.940913 
L 302.663225 104.876194 
L 303.109625 104.945241 
L 303.556025 104.89807 
L 304.002425 105.003219 
L 306.680825 105.010158 
L 307.573625 105.07676 
L 308.020025 104.994148 
L 308.466425 105.129136 
L 315.608825 105.371387 
L 316.055225 105.255813 
L 316.501625 105.394354 
L 317.394425 105.388257 
L 318.287225 105.434883 
L 321.412025 105.538528 
L 322.751225 105.574547 
L 324.983225 105.609161 
L 329.893625 105.816898 
L 330.340025 105.733327 
L 331.232825 105.750775 
L 342.392825 106.136639 
L 343.285625 106.14462 
L 344.178425 106.170609 
L 345.071225 106.158812 
L 346.856825 106.257385 
L 347.303225 106.197855 
L 347.749625 106.3072 
L 348.196025 106.230255 
L 349.088825 106.363112 
L 349.981625 106.325523 
L 350.428025 106.283077 
L 350.874425 106.406401 
L 351.767225 106.355726 
L 354.892025 106.465947 
L 355.338425 106.570683 
L 356.677625 106.521248 
L 359.356025 106.623455 
L 359.802425 106.590179 
L 360.248825 106.670776 
L 361.141625 106.643563 
L 366.944825 106.794991 
L 369.176825 106.895943 
L 370.516025 106.836396 
L 371.408825 106.921388 
L 372.748025 106.894324 
L 373.194425 107.002 
L 374.087225 107.002099 
L 377.212025 107.033905 
L 378.104825 107.125208 
L 378.997625 107.067148 
L 379.890425 107.184292 
L 380.336825 107.04785 
L 380.783225 107.143217 
L 382.568825 107.135402 
L 391.943225 107.409592 
L 392.389625 107.306178 
L 393.282425 107.536748 
L 393.728825 107.384891 
L 394.175225 107.360157 
L 395.068025 107.432789 
L 395.960825 107.530866 
L 396.853625 107.481216 
L 401.764025 107.656321 
L 402.656825 107.659295 
L 407.120825 107.72436 
L 407.567225 107.674446 
L 408.013625 107.744815 
L 408.460025 107.702352 
L 408.906425 107.825081 
L 409.799225 107.813135 
L 415.156025 107.85649 
L 415.602425 107.984522 
L 416.495225 107.941117 
L 424.084025 108.094396 
L 424.530425 108.208929 
L 424.976825 108.085523 
L 425.869625 108.144029 
L 428.548025 108.19885 
L 432.119225 108.29397 
L 433.012025 108.313929 
L 433.904825 108.243015 
L 436.583225 108.377838 
L 441.047225 108.474263 
L 441.940025 108.512677 
L 468.277625 109.044814 
L 468.724025 109.086699 
L 469.616825 109.002467 
L 474.973625 109.176432 
L 475.420025 109.083278 
L 477.205625 109.189352 
L 479.884025 109.211096 
L 482.116025 109.218498 
L 486.580025 109.323266 
L 487.472825 109.318987 
L 488.365625 109.340532 
L 489.258425 109.34924 
L 489.704825 109.432182 
L 491.044025 109.371958 
L 492.383225 109.428663 
L 500.418425 109.564593 
L 500.864825 109.663281 
L 501.757625 109.63706 
L 504.882425 109.654276 
L 505.328825 109.579132 
L 506.221625 109.729668 
L 507.560825 109.72063 
L 508.900025 109.761028 
L 509.792825 109.730379 
L 510.239225 109.738689 
L 510.239225 109.738689 
" clip-path="url(#pceae143e5b)" style="fill: none; stroke: #1f77b4; stroke-width: 2; stroke-linecap: square"/>
   </g>
   <g id="line2d_14">
    <path d="M 66.778548 -1 
L 67.410425 22.470835 
L 68.749625 62.388476 
L 69.642425 79.703579 
L 70.535225 90.755616 
L 71.428025 98.712163 
L 72.320825 104.882952 
L 73.660025 111.993849 
L 74.999225 117.548187 
L 76.338425 121.946039 
L 77.677625 125.578821 
L 79.463225 129.401891 
L 80.802425 131.7201 
L 82.141625 133.671331 
L 83.480825 135.41917 
L 85.266425 137.302642 
L 88.391225 140.040438 
L 91.069625 142.077915 
L 94.640825 144.555665 
L 95.533625 145.198519 
L 95.980025 145.658155 
L 96.426425 146.531414 
L 96.872825 148.041628 
L 97.765625 149.974519 
L 99.104825 151.886591 
L 108.479225 163.002933 
L 110.264825 164.745997 
L 111.604025 165.840648 
L 115.175225 168.111413 
L 118.300025 169.545996 
L 124.996025 171.930279 
L 127.674425 172.636488 
L 128.567225 172.893866 
L 140.620025 175.469808 
L 145.084025 176.260223 
L 145.976825 176.340407 
L 147.316025 176.584534 
L 148.655225 176.776483 
L 149.548025 176.924788 
L 151.333625 177.164734 
L 152.672825 177.371934 
L 153.565625 177.485368 
L 154.458425 177.629576 
L 158.029625 178.108676 
L 158.922425 178.206249 
L 176.778425 180.168525 
L 179.903225 180.463086 
L 180.796025 180.515545 
L 186.152825 181.044501 
L 187.045625 181.058479 
L 187.938425 181.154045 
L 189.277625 181.317204 
L 190.170425 181.332479 
L 191.063225 181.408515 
L 194.188025 181.693691 
L 194.634425 181.660275 
L 195.080825 181.795164 
L 195.527225 181.737071 
L 196.420025 181.871117 
L 197.312825 181.908838 
L 200.437625 182.217551 
L 202.223225 182.285855 
L 204.008825 182.44038 
L 205.794425 182.540234 
L 207.133625 182.665093 
L 208.026425 182.713331 
L 208.919225 182.833638 
L 213.383225 183.135247 
L 216.954425 183.368155 
L 219.186425 183.509595 
L 220.972025 183.634521 
L 224.543225 183.855384 
L 227.668025 184.103352 
L 228.560825 184.115232 
L 231.685625 184.277763 
L 232.132025 184.407761 
L 232.578425 184.343977 
L 233.471225 184.466457 
L 234.364025 184.483475 
L 236.149625 184.613713 
L 237.935225 184.662223 
L 239.274425 184.766958 
L 241.952825 184.859583 
L 242.845625 184.97239 
L 244.184825 185.049037 
L 248.202425 185.242853 
L 249.095225 185.372786 
L 249.541625 185.319352 
L 250.880825 185.445567 
L 252.220025 185.481239 
L 253.559225 185.583132 
L 254.005625 185.522272 
L 255.791225 185.699161 
L 256.237625 185.624496 
L 258.469625 185.848333 
L 258.916025 185.778625 
L 259.808825 185.848738 
L 262.040825 186.0325 
L 262.933625 186.060762 
L 264.719225 186.1271 
L 266.058425 186.141515 
L 267.397625 186.254215 
L 268.290425 186.264574 
L 268.736825 186.279552 
L 269.183225 186.412475 
L 270.968825 186.340652 
L 271.861625 186.482852 
L 275.432825 186.593221 
L 275.879225 186.72027 
L 276.772025 186.599905 
L 278.111225 186.770474 
L 281.682425 186.86466 
L 282.575225 186.938077 
L 284.807225 186.95797 
L 285.700025 187.0529 
L 286.592825 187.084895 
L 287.485625 187.108374 
L 288.824825 187.187863 
L 290.164025 187.26722 
L 290.610425 187.199635 
L 291.949625 187.335681 
L 293.288825 187.307931 
L 298.645625 187.631952 
L 299.092025 187.50411 
L 299.984825 187.596586 
L 301.324025 187.656529 
L 303.556025 187.713069 
L 317.394425 188.264942 
L 317.840825 188.173259 
L 319.626425 188.297615 
L 320.072825 188.233839 
L 320.519225 188.350817 
L 320.965625 188.254252 
L 321.858425 188.384052 
L 322.304825 188.315294 
L 323.197625 188.410728 
L 324.536825 188.419708 
L 326.768825 188.500733 
L 330.340025 188.610062 
L 330.786425 188.545666 
L 331.679225 188.628823 
L 333.464825 188.711229 
L 334.357625 188.703182 
L 334.804025 188.766125 
L 335.696825 188.71018 
L 337.036025 188.788339 
L 337.928825 188.787356 
L 338.821625 188.843383 
L 339.268025 188.991151 
L 341.500025 188.887201 
L 341.946425 188.962559 
L 342.839225 188.929796 
L 358.016825 189.365591 
L 358.909625 189.314272 
L 359.802425 189.399651 
L 361.141625 189.373802 
L 363.373625 189.496489 
L 363.820025 189.433969 
L 364.712825 189.56671 
L 365.159225 189.477323 
L 366.052025 189.578903 
L 366.498425 189.482396 
L 366.944825 189.578498 
L 369.176825 189.561612 
L 371.408825 189.64871 
L 372.301625 189.702193 
L 375.426425 189.775982 
L 377.658425 189.864452 
L 379.890425 189.77533 
L 381.229625 189.876976 
L 382.568825 189.889805 
L 386.586425 190.021571 
L 387.032825 190.084241 
L 387.479225 190.009114 
L 388.372025 190.036805 
L 388.818425 190.003091 
L 389.264825 190.123151 
L 389.711225 190.035012 
L 390.604025 190.076789 
L 391.496825 190.030014 
L 391.943225 190.161376 
L 393.728825 190.068032 
L 394.621625 190.239469 
L 397.746425 190.164722 
L 399.085625 190.325567 
L 399.978425 190.245731 
L 407.120825 190.400422 
L 407.567225 190.374845 
L 408.013625 190.476243 
L 409.352825 190.424545 
L 411.138425 190.580814 
L 411.584825 190.452476 
L 413.816825 190.578971 
L 414.263225 190.506595 
L 415.602425 190.672736 
L 416.048825 190.533411 
L 418.280825 190.650505 
L 419.620025 190.609653 
L 420.512825 190.667242 
L 421.852025 190.694843 
L 422.744825 190.745823 
L 427.655225 190.778876 
L 428.994425 190.860604 
L 431.226425 190.782891 
L 432.119225 190.865453 
L 432.565625 190.925554 
L 433.458425 190.817026 
L 433.904825 190.944753 
L 437.476025 190.957574 
L 439.261625 190.989504 
L 439.708025 191.08858 
L 440.154425 190.994997 
L 441.047225 191.057179 
L 442.386425 190.990247 
L 442.832825 191.119882 
L 444.618425 191.082872 
L 445.957625 191.11728 
L 446.404025 191.068646 
L 447.296825 191.129895 
L 449.082425 191.210012 
L 458.010425 191.305685 
L 458.456825 191.236547 
L 459.796025 191.371221 
L 460.242425 191.286527 
L 460.688825 191.381638 
L 462.028025 191.351419 
L 462.920825 191.412676 
L 463.367225 191.327924 
L 464.260025 191.396979 
L 464.706425 191.361654 
L 465.599225 191.454824 
L 470.509625 191.508861 
L 472.741625 191.572455 
L 473.634425 191.496568 
L 474.527225 191.594331 
L 475.866425 191.578585 
L 478.991225 191.634051 
L 481.223225 191.635629 
L 484.348025 191.775648 
L 485.240825 191.745115 
L 486.133625 191.821729 
L 487.026425 191.721669 
L 487.472825 191.824571 
L 488.812025 191.76419 
L 489.258425 191.840829 
L 489.704825 191.740918 
L 490.597625 191.804257 
L 495.508025 191.81436 
L 495.954425 191.920814 
L 496.400825 191.825678 
L 498.632825 191.872849 
L 499.525625 191.909752 
L 509.792825 192.074489 
L 510.239225 192.026533 
L 510.239225 192.026533 
" clip-path="url(#pceae143e5b)" style="fill: none; stroke: #ff7f0e; stroke-width: 2; stroke-linecap: square"/>
   </g>
   <g id="line2d_15">
    <path d="M 64.716936 -1 
L 64.732025 4.326225 
L 65.178425 61.409408 
L 65.624825 88.679543 
L 66.071225 105.481939 
L 66.964025 126.808451 
L 67.856825 139.993498 
L 68.749625 148.711678 
L 69.642425 154.847192 
L 70.535225 159.38099 
L 71.428025 162.956406 
L 72.767225 167.032566 
L 74.999225 171.744839 
L 76.338425 173.962865 
L 77.231225 175.203128 
L 78.570425 176.79507 
L 79.016825 177.340954 
L 79.463225 177.683315 
L 79.909625 178.250389 
L 80.356025 178.593113 
L 80.802425 179.082523 
L 81.695225 179.787245 
L 83.927225 181.501883 
L 87.052025 183.428305 
L 93.301625 186.365377 
L 93.748025 186.463768 
L 94.640825 186.837084 
L 100.444025 188.810504 
L 101.783225 189.045138 
L 102.229625 189.34046 
L 103.122425 189.486716 
L 103.568825 189.799841 
L 104.461625 189.896612 
L 105.354425 190.244591 
L 105.800825 190.165713 
L 106.693625 190.42205 
L 110.711225 191.381754 
L 111.604025 191.641453 
L 112.050425 191.632506 
L 113.836025 192.064848 
L 114.282425 192.017982 
L 115.175225 192.301821 
L 116.960825 192.586072 
L 128.120825 194.400753 
L 128.567225 194.618518 
L 129.013625 194.547439 
L 129.460025 194.726641 
L 130.352825 194.722932 
L 137.941625 195.699505 
L 146.869625 196.862897 
L 147.316025 196.720788 
L 148.208825 196.983486 
L 149.548025 197.009055 
L 150.440825 197.185464 
L 152.226425 197.373952 
L 155.351225 197.708266 
L 156.244025 197.718403 
L 158.476025 198.067265 
L 159.815225 198.1072 
L 165.618425 198.677545 
L 166.064825 198.690895 
L 166.511225 198.831608 
L 167.404025 198.882952 
L 170.082425 199.133803 
L 170.528825 199.004557 
L 171.421625 199.234747 
L 172.314425 199.189781 
L 172.760825 199.326479 
L 173.653625 199.389454 
L 174.100025 199.3709 
L 174.546425 199.489184 
L 175.439225 199.483236 
L 179.456825 199.765694 
L 182.135225 199.97999 
L 182.581625 200.135879 
L 184.813625 200.175483 
L 186.599225 200.385987 
L 187.492025 200.403682 
L 191.956025 200.705695 
L 192.848825 200.74045 
L 193.741625 200.888714 
L 194.634425 200.867103 
L 195.527225 200.961396 
L 195.973625 200.969748 
L 196.420025 201.128041 
L 196.866425 200.998844 
L 197.759225 201.256577 
L 198.205625 201.141598 
L 199.991225 201.297801 
L 200.884025 201.323865 
L 201.330425 201.420595 
L 201.776825 201.334175 
L 202.223225 201.45991 
L 203.116025 201.456011 
L 204.008825 201.479085 
L 204.901625 201.566116 
L 205.794425 201.599657 
L 209.812025 201.78389 
L 210.258425 201.944025 
L 211.151225 201.937879 
L 211.597625 202.085019 
L 212.044025 201.996583 
L 212.936825 202.076138 
L 213.383225 202.011403 
L 214.722425 202.109365 
L 215.168825 202.094767 
L 216.508025 202.312656 
L 217.400825 202.241015 
L 217.847225 202.34875 
L 218.740025 202.379448 
L 226.775225 202.79744 
L 227.221625 202.707261 
L 229.453625 202.936047 
L 229.900025 202.883737 
L 230.346425 203.014437 
L 231.239225 202.97889 
L 231.685625 203.063327 
L 232.578425 203.036107 
L 233.471225 203.163139 
L 233.917625 203.213863 
L 234.810425 203.165328 
L 235.256825 203.138678 
L 236.149625 203.25887 
L 242.845625 203.523328 
L 243.292025 203.673434 
L 244.184825 203.531531 
L 244.631225 203.547409 
L 245.077625 203.713955 
L 246.863225 203.794221 
L 247.309625 203.673731 
L 247.756025 203.818616 
L 253.112825 204.002519 
L 257.130425 204.233866 
L 257.576825 204.110319 
L 258.023225 204.184108 
L 258.469625 204.118547 
L 258.916025 204.263746 
L 260.255225 204.244663 
L 266.058425 204.621721 
L 266.504825 204.532202 
L 267.844025 204.641399 
L 268.290425 204.572922 
L 268.736825 204.720293 
L 269.183225 204.593377 
L 269.629625 204.709463 
L 272.308025 204.778733 
L 274.093625 204.914068 
L 274.540025 204.788564 
L 275.432825 205.017135 
L 275.879225 204.892358 
L 278.111225 204.976531 
L 278.557625 204.936291 
L 279.004025 205.066554 
L 280.343225 205.023314 
L 280.789625 205.157642 
L 281.236025 205.022307 
L 281.682425 205.227217 
L 282.128825 205.136559 
L 282.575225 205.240146 
L 283.021625 205.13171 
L 285.253625 205.270688 
L 287.485625 205.290077 
L 288.824825 205.475582 
L 289.717625 205.356439 
L 291.056825 205.47179 
L 291.949625 205.448296 
L 292.396025 205.398869 
L 292.842425 205.537913 
L 293.288825 205.519111 
L 293.735225 205.654875 
L 297.752825 205.592098 
L 298.645625 205.741527 
L 299.092025 205.646011 
L 300.431225 205.845296 
L 301.324025 205.697354 
L 301.770425 205.832665 
L 302.216825 205.76232 
L 302.663225 205.856011 
L 303.109625 205.767062 
L 305.788025 205.933079 
L 306.680825 205.93778 
L 308.020025 205.98738 
L 308.466425 205.964935 
L 308.912825 206.133438 
L 309.359225 206.019087 
L 310.252025 206.065639 
L 311.144825 206.081228 
L 312.037625 206.167037 
L 312.484025 206.109101 
L 313.823225 206.193035 
L 316.948025 206.231301 
L 317.840825 206.347718 
L 318.733625 206.254201 
L 319.180025 206.347908 
L 319.626425 206.304396 
L 320.072825 206.439392 
L 322.304825 206.390891 
L 322.751225 206.518138 
L 323.644025 206.417178 
L 324.536825 206.521616 
L 324.983225 206.449421 
L 326.322425 206.589176 
L 326.768825 206.521302 
L 327.215225 206.602212 
L 327.661625 206.488018 
L 329.893625 206.619949 
L 330.786425 206.700107 
L 331.232825 206.637256 
L 331.679225 206.770138 
L 332.125625 206.670359 
L 332.572025 206.77863 
L 334.357625 206.730889 
L 336.143225 206.787544 
L 336.589625 206.791171 
L 337.036025 206.936304 
L 337.928825 206.786098 
L 338.821625 206.86857 
L 340.160825 206.902961 
L 341.946425 206.951331 
L 343.732025 206.928232 
L 344.624825 207.076992 
L 345.071225 207.015851 
L 345.517625 207.139471 
L 345.964025 207.011233 
L 346.856825 207.104518 
L 347.749625 207.068185 
L 349.088825 207.222034 
L 349.535225 207.113572 
L 350.874425 207.158299 
L 351.320825 207.131945 
L 351.767225 207.278441 
L 352.213625 207.197952 
L 352.660025 207.27341 
L 353.106425 207.111862 
L 353.552825 207.326158 
L 355.784825 207.276227 
L 356.231225 207.370033 
L 357.124025 207.280341 
L 358.909625 207.454975 
L 361.141625 207.431943 
L 362.480825 207.466954 
L 363.373625 207.513952 
L 364.266425 207.445797 
L 364.712825 207.551425 
L 366.052025 207.518512 
L 366.498425 207.654037 
L 367.391225 207.494802 
L 368.284025 207.57639 
L 370.069625 207.722944 
L 370.516025 207.604916 
L 370.962425 207.713418 
L 371.408825 207.613821 
L 372.748025 207.811372 
L 373.194425 207.648163 
L 374.087225 207.769347 
L 379.444025 207.780276 
L 379.890425 207.953059 
L 381.676025 207.891274 
L 382.122425 207.968805 
L 383.461625 207.867672 
L 383.908025 207.966253 
L 384.354425 207.906235 
L 385.247225 208.064495 
L 386.140025 208.005964 
L 386.586425 208.054532 
L 387.032825 207.923939 
L 387.479225 208.078473 
L 390.157625 208.036894 
L 391.050425 208.063404 
L 391.496825 208.025048 
L 392.389625 208.219087 
L 392.836025 208.075515 
L 396.407225 208.202391 
L 396.853625 208.132765 
L 397.746425 208.305978 
L 398.192825 208.231751 
L 399.978425 208.347011 
L 400.424825 208.212726 
L 400.871225 208.323475 
L 401.764025 208.201581 
L 402.210425 208.384228 
L 405.781625 208.437728 
L 407.120825 208.43501 
L 407.567225 208.326986 
L 408.013625 208.479488 
L 408.460025 208.369375 
L 409.352825 208.504751 
L 409.799225 208.402601 
L 411.138425 208.512062 
L 412.031225 208.445774 
L 412.477625 208.560712 
L 413.370425 208.539952 
L 414.709625 208.603604 
L 416.048825 208.565008 
L 416.495225 208.672842 
L 416.941625 208.5087 
L 417.834425 208.652957 
L 472.295225 209.557187 
L 472.741625 209.458804 
L 473.188025 209.675545 
L 473.634425 209.543606 
L 475.866425 209.682865 
L 476.759225 209.607803 
L 477.205625 209.739057 
L 478.544825 209.598733 
L 481.223225 209.759215 
L 481.669625 209.67524 
L 482.116025 209.847238 
L 483.008825 209.723245 
L 483.901625 209.7895 
L 484.794425 209.762866 
L 489.704825 209.832591 
L 491.936825 209.910973 
L 492.829625 209.841818 
L 493.722425 209.897309 
L 495.508025 209.88196 
L 496.400825 210.040533 
L 497.293625 209.913014 
L 498.632825 209.995832 
L 499.525625 210.066664 
L 499.972025 210.082253 
L 500.418425 209.928355 
L 502.204025 210.015452 
L 502.650425 210.145666 
L 503.096825 209.970883 
L 504.882425 210.060005 
L 505.775225 210.055899 
L 506.221625 210.186393 
L 506.668025 210.052198 
L 507.114425 210.139858 
L 509.792825 210.026019 
L 510.239225 210.071389 
L 510.239225 210.071389 
" clip-path="url(#pceae143e5b)" style="fill: none; stroke: #2ca02c; stroke-width: 2; stroke-linecap: square"/>
   </g>
   <g id="line2d_16">
    <path d="M 64.550551 -1 
L 64.732025 65.111353 
L 65.178425 102.753395 
L 65.624825 120.322564 
L 66.071225 131.411825 
L 66.964025 145.645582 
L 67.856825 154.701596 
L 68.749625 161.024275 
L 69.642425 165.729163 
L 70.981625 171.009997 
L 72.320825 174.957977 
L 73.660025 178.131535 
L 74.999225 180.702281 
L 77.231225 184.314963 
L 78.570425 186.034062 
L 82.588025 190.170232 
L 83.927225 191.272582 
L 85.712825 192.611418 
L 87.052025 193.558936 
L 88.837625 194.723774 
L 89.284025 194.884934 
L 91.069625 195.935172 
L 92.855225 196.893241 
L 93.748025 197.289812 
L 99.104825 199.590144 
L 99.997625 199.9168 
L 100.890425 200.247108 
L 101.783225 200.514853 
L 104.461625 201.484884 
L 104.908025 201.556938 
L 106.247225 202.070488 
L 106.693625 202.099625 
L 108.032825 202.590927 
L 108.479225 202.679347 
L 108.925625 202.900929 
L 111.604025 203.564741 
L 112.943225 203.971448 
L 113.836025 204.144223 
L 114.282425 204.306143 
L 114.728825 204.347416 
L 115.175225 204.612336 
L 115.621625 204.616161 
L 116.068025 204.784483 
L 116.514425 204.817817 
L 117.407225 205.149157 
L 117.853625 205.070403 
L 118.746425 205.432921 
L 120.978425 205.890733 
L 121.871225 206.141667 
L 122.317625 206.16203 
L 123.210425 206.470661 
L 124.103225 206.654671 
L 126.335225 207.132747 
L 126.781625 207.274757 
L 127.228025 207.173251 
L 128.120825 207.548004 
L 130.352825 207.93082 
L 131.245625 208.075961 
L 131.692025 208.262301 
L 132.584825 208.371522 
L 133.031225 208.516928 
L 133.477625 208.530675 
L 134.370425 208.784847 
L 134.816825 208.722764 
L 136.156025 209.098781 
L 137.941625 209.405734 
L 141.959225 210.172407 
L 142.405625 210.203593 
L 143.298425 210.471041 
L 143.744825 210.478394 
L 145.084025 210.764306 
L 145.976825 210.83275 
L 146.423225 211.07415 
L 146.869625 211.053473 
L 148.208825 211.32601 
L 149.994425 211.552111 
L 150.887225 211.807803 
L 153.565625 212.174402 
L 155.351225 212.596484 
L 155.797625 212.581176 
L 156.244025 212.754653 
L 156.690425 212.688927 
L 159.368825 213.2503 
L 160.261625 213.311028 
L 160.708025 213.356952 
L 161.154425 213.536419 
L 161.600825 213.492775 
L 162.940025 213.774936 
L 163.832825 213.849048 
L 164.279225 214.041633 
L 165.172025 214.048531 
L 165.618425 214.190888 
L 166.064825 214.154183 
L 166.957625 214.373452 
L 168.296825 214.472347 
L 168.743225 214.627352 
L 169.636025 214.755872 
L 170.082425 214.776103 
L 170.528825 214.912165 
L 170.975225 214.91295 
L 172.760825 215.281028 
L 173.653625 215.332801 
L 175.439225 215.604124 
L 175.885625 215.743887 
L 177.671225 215.870936 
L 182.135225 216.502051 
L 182.581625 216.441124 
L 183.028025 216.543076 
L 183.474425 216.494111 
L 184.813625 216.811176 
L 188.384825 217.263535 
L 189.277625 217.302809 
L 191.509625 217.596197 
L 192.402425 217.641774 
L 193.295225 217.801009 
L 193.741625 217.808882 
L 194.634425 217.972322 
L 195.080825 217.947208 
L 195.527225 218.119355 
L 196.420025 218.149822 
L 199.098425 218.452108 
L 199.544825 218.42069 
L 200.437625 218.617034 
L 201.330425 218.604337 
L 201.776825 218.762349 
L 202.223225 218.723645 
L 203.562425 218.990796 
L 204.008825 218.906176 
L 204.455225 219.091368 
L 205.348025 219.17075 
L 205.794425 219.140621 
L 206.687225 219.300525 
L 207.580025 219.320955 
L 211.151225 219.745416 
L 213.383225 219.961554 
L 214.722425 220.156353 
L 215.615225 220.178988 
L 216.508025 220.319173 
L 217.847225 220.369888 
L 219.186425 220.568463 
L 224.543225 221.073181 
L 225.882425 221.168854 
L 227.221625 221.373658 
L 227.668025 221.208095 
L 228.114425 221.396607 
L 229.453625 221.555156 
L 230.346425 221.516304 
L 230.792825 221.631275 
L 231.685625 221.627764 
L 232.132025 221.724007 
L 232.578425 221.663485 
L 233.471225 221.860647 
L 233.917625 221.823893 
L 234.364025 222.007697 
L 235.703225 221.95257 
L 236.149625 222.137257 
L 237.042425 222.141223 
L 251.327225 223.339667 
L 251.773625 223.488303 
L 252.220025 223.394439 
L 254.898425 223.703491 
L 255.344825 223.616417 
L 258.023225 223.811968 
L 258.469625 223.967907 
L 258.916025 223.908112 
L 259.362425 224.125018 
L 261.148025 224.073609 
L 261.594425 224.201311 
L 262.933625 224.229903 
L 264.272825 224.40699 
L 266.058425 224.534659 
L 266.504825 224.522283 
L 266.951225 224.660881 
L 268.736825 224.742585 
L 269.183225 224.834276 
L 269.629625 224.786336 
L 270.076025 224.881166 
L 270.968825 224.890022 
L 278.557625 225.476601 
L 279.004025 225.413609 
L 279.896825 225.588392 
L 280.789625 225.696233 
L 281.236025 225.641866 
L 283.021625 225.866563 
L 283.914425 225.889959 
L 285.253625 225.965326 
L 285.700025 226.100264 
L 286.146425 226.010861 
L 292.396025 226.54841 
L 292.842425 226.519033 
L 293.735225 226.614681 
L 295.967225 226.875231 
L 296.860025 226.784862 
L 299.092025 227.01924 
L 300.431225 227.058712 
L 300.877625 227.199822 
L 301.324025 227.107652 
L 302.216825 227.216171 
L 302.663225 227.287829 
L 303.109625 227.197294 
L 303.556025 227.418413 
L 305.788025 227.469385 
L 306.234425 227.422156 
L 306.680825 227.60605 
L 307.127225 227.516623 
L 308.466425 227.60078 
L 310.252025 227.787673 
L 311.144825 227.87031 
L 311.591225 227.812151 
L 313.823225 228.019433 
L 317.840825 228.273745 
L 323.197625 228.693448 
L 324.090425 228.654496 
L 324.536825 228.757852 
L 325.429625 228.727748 
L 325.876025 228.81896 
L 326.768825 228.848329 
L 329.000825 229.046052 
L 329.447225 228.918235 
L 330.340025 229.077775 
L 330.786425 229.127037 
L 331.232825 229.064442 
L 332.125625 229.181032 
L 332.572025 229.285396 
L 333.018425 229.182965 
L 333.464825 229.312253 
L 336.143225 229.445366 
L 337.482425 229.50274 
L 338.375225 229.529258 
L 339.714425 229.765198 
L 340.607225 229.711071 
L 341.053625 229.859434 
L 341.946425 229.80011 
L 342.839225 229.885085 
L 343.285625 229.841201 
L 343.732025 229.95319 
L 344.178425 229.881929 
L 345.071225 229.930778 
L 352.213625 230.445071 
L 353.106425 230.442444 
L 354.445625 230.447458 
L 354.892025 230.628833 
L 355.784825 230.611963 
L 356.677625 230.736319 
L 357.570425 230.740103 
L 358.016825 230.813843 
L 358.909625 230.768365 
L 359.802425 230.866541 
L 360.248825 230.822632 
L 361.141625 230.938678 
L 362.034425 230.9886 
L 363.373625 231.050212 
L 363.820025 231.000191 
L 364.266425 231.163696 
L 365.159225 231.050452 
L 365.605625 231.167959 
L 366.052025 231.088329 
L 366.498425 231.250745 
L 366.944825 231.180343 
L 367.391225 231.342229 
L 368.284025 231.24915 
L 369.176825 231.332208 
L 371.408825 231.601994 
L 371.855225 231.47502 
L 376.765625 231.737627 
L 378.104825 231.840223 
L 378.551225 231.97792 
L 379.890425 231.986091 
L 380.783225 232.077295 
L 381.229625 231.919902 
L 381.676025 232.176057 
L 382.122425 232.04534 
L 383.015225 232.158932 
L 383.908025 232.157172 
L 389.264825 232.516064 
L 390.604025 232.434534 
L 391.943225 232.630374 
L 393.282425 232.585036 
L 393.728825 232.716084 
L 395.068025 232.688533 
L 396.407225 232.905323 
L 396.853625 232.786436 
L 397.300025 232.924043 
L 398.639225 232.879697 
L 399.085625 232.977229 
L 399.532025 232.927728 
L 399.978425 233.113167 
L 400.424825 232.959005 
L 401.764025 233.072753 
L 402.656825 233.039609 
L 403.103225 233.277895 
L 403.549625 233.120238 
L 405.781625 233.251418 
L 406.228025 233.400929 
L 407.120825 233.419707 
L 408.906425 233.3461 
L 409.352825 233.488093 
L 409.799225 233.475817 
L 410.245625 233.639249 
L 411.138425 233.496041 
L 411.584825 233.568425 
L 412.031225 233.495867 
L 412.924025 233.564741 
L 414.709625 233.747487 
L 415.156025 233.647204 
L 416.048825 233.744703 
L 416.495225 233.874899 
L 417.388025 233.853668 
L 418.727225 233.920006 
L 419.620025 233.923698 
L 420.066425 233.987847 
L 420.512825 233.916098 
L 421.852025 234.121662 
L 423.637625 234.077464 
L 424.530425 234.195756 
L 425.869625 234.094837 
L 426.316025 234.28387 
L 427.655225 234.348803 
L 428.548025 234.292495 
L 429.440825 234.433266 
L 429.887225 234.397454 
L 430.780025 234.498319 
L 431.672825 234.494952 
L 432.565625 234.519443 
L 439.708025 234.865319 
L 441.047225 234.934882 
L 441.940025 234.933131 
L 443.279225 235.004359 
L 443.725625 234.890007 
L 444.172025 235.050291 
L 448.189625 235.203276 
L 448.636025 235.291394 
L 449.082425 235.154432 
L 449.975225 235.280572 
L 450.421625 235.294372 
L 450.868025 235.136976 
L 451.760825 235.471348 
L 452.207225 235.317339 
L 454.885625 235.508391 
L 455.332025 235.410128 
L 455.778425 235.550866 
L 456.224825 235.510436 
L 456.671225 235.587972 
L 457.564025 235.56066 
L 459.349625 235.70488 
L 461.135225 235.52187 
L 461.581625 235.847857 
L 462.028025 235.754344 
L 463.367225 235.870244 
L 463.813625 235.720758 
L 464.260025 235.996315 
L 464.706425 235.805807 
L 466.045625 235.944438 
L 468.277625 236.020805 
L 468.724025 236.252011 
L 469.170425 236.074974 
L 470.509625 236.103467 
L 470.956025 236.162489 
L 471.848825 236.096899 
L 472.741625 236.182824 
L 478.544825 236.429181 
L 478.991225 236.503201 
L 479.884025 236.482197 
L 480.776825 236.557639 
L 481.669625 236.519612 
L 482.116025 236.648809 
L 483.901625 236.556292 
L 484.794425 236.678657 
L 485.687225 236.735436 
L 486.580025 236.596194 
L 487.472825 236.858772 
L 488.365625 236.750496 
L 490.151225 236.89755 
L 490.597625 236.732929 
L 491.044025 236.954759 
L 491.490425 236.834864 
L 493.276025 236.963784 
L 493.722425 236.913986 
L 494.168825 237.064848 
L 495.508025 237.087615 
L 495.954425 237.181442 
L 496.847225 237.033063 
L 497.293625 237.197461 
L 498.186425 237.142255 
L 499.079225 237.117236 
L 499.525625 237.062303 
L 499.972025 237.26809 
L 500.418425 237.267573 
L 500.864825 237.382024 
L 501.311225 237.148951 
L 502.204025 237.281283 
L 502.650425 237.135245 
L 503.989625 237.36793 
L 504.882425 237.329669 
L 510.239225 237.6086 
L 510.239225 237.6086 
" clip-path="url(#pceae143e5b)" style="fill: none; stroke: #d62728; stroke-width: 2; stroke-linecap: square"/>
   </g>
   <g id="line2d_17">
    <path d="M 64.490283 -1 
L 64.732025 79.902493 
L 65.178425 112.990927 
L 65.624825 129.541902 
L 66.071225 140.032953 
L 66.964025 153.189036 
L 67.856825 161.345322 
L 68.749625 167.093402 
L 69.642425 171.37116 
L 70.535225 174.80792 
L 71.874425 178.805632 
L 73.213625 182.015515 
L 74.552825 184.635324 
L 75.445625 186.1041 
L 78.124025 189.810151 
L 79.909625 191.924945 
L 80.356025 192.276649 
L 81.248825 193.273702 
L 82.141625 194.035682 
L 83.480825 195.2563 
L 83.927225 195.479022 
L 84.820025 196.267041 
L 86.605625 197.598714 
L 87.944825 198.467124 
L 88.391225 198.859217 
L 89.730425 199.576628 
L 90.623225 200.207826 
L 91.516025 200.785523 
L 92.855225 201.400562 
L 95.087225 202.659776 
L 98.212025 204.115904 
L 98.658425 204.270744 
L 99.104825 204.579927 
L 100.444025 205.130528 
L 100.890425 205.403412 
L 102.676025 206.042003 
L 103.568825 206.420722 
L 104.461625 206.790791 
L 107.140025 207.963584 
L 107.586425 207.993638 
L 114.728825 210.660603 
L 115.175225 210.683123 
L 116.068025 211.06337 
L 116.960825 211.407655 
L 117.853625 211.607981 
L 118.300025 211.832595 
L 120.085625 212.308143 
L 120.978425 212.616872 
L 128.567225 214.894057 
L 129.013625 214.92074 
L 129.906425 215.236781 
L 130.799225 215.558068 
L 131.692025 215.682134 
L 132.138425 215.938413 
L 133.924025 216.323964 
L 135.263225 216.77952 
L 135.709625 216.898217 
L 136.156025 216.842933 
L 137.048825 217.20683 
L 149.548025 220.252976 
L 149.994425 220.296661 
L 150.440825 220.517095 
L 151.780025 220.749342 
L 153.565625 221.150357 
L 154.012025 221.315168 
L 154.458425 221.318894 
L 155.797625 221.680231 
L 156.244025 221.71302 
L 156.690425 221.881366 
L 157.136825 221.862019 
L 158.476025 222.202711 
L 160.261625 222.633673 
L 160.708025 222.668395 
L 161.600825 222.871637 
L 164.279225 223.352885 
L 164.725625 223.55583 
L 165.172025 223.595442 
L 165.618425 223.776239 
L 168.743225 224.238147 
L 169.189625 224.410443 
L 169.636025 224.3533 
L 170.528825 224.667515 
L 180.796025 226.471646 
L 181.242425 226.449763 
L 183.028025 226.902823 
L 194.188025 228.662865 
L 194.634425 228.848064 
L 195.080825 228.732606 
L 195.527225 228.947042 
L 195.973625 228.900721 
L 196.866425 229.100965 
L 198.205625 229.334649 
L 199.098425 229.467407 
L 199.991225 229.546846 
L 201.776825 229.851784 
L 202.223225 229.894015 
L 202.669625 230.138646 
L 203.562425 230.120661 
L 204.901625 230.326316 
L 207.580025 230.734659 
L 208.026425 230.898834 
L 208.919225 230.941693 
L 210.704825 231.123225 
L 211.151225 231.409864 
L 211.597625 231.266722 
L 215.615225 231.938605 
L 216.508025 231.956185 
L 217.847225 232.193976 
L 218.293625 232.202584 
L 218.740025 232.370724 
L 219.632825 232.372872 
L 220.525625 232.562136 
L 223.650425 233.069928 
L 224.096825 232.984994 
L 225.436025 233.296161 
L 225.882425 233.251542 
L 226.328825 233.416444 
L 227.221625 233.483913 
L 228.560825 233.674854 
L 229.900025 233.821499 
L 230.346425 233.931472 
L 230.792825 233.89713 
L 231.239225 234.045353 
L 232.578425 234.192006 
L 233.024825 234.287125 
L 233.471225 234.262102 
L 234.364025 234.438892 
L 235.703225 234.482304 
L 236.149625 234.697521 
L 237.488825 234.744131 
L 237.935225 234.951764 
L 238.381625 234.867954 
L 239.720825 235.156353 
L 240.613625 235.169302 
L 241.060025 235.356336 
L 241.952825 235.389199 
L 242.399225 235.548289 
L 244.631225 235.6888 
L 245.077625 235.81874 
L 245.970425 235.830929 
L 246.863225 236.059405 
L 247.756025 236.138709 
L 248.202425 236.269806 
L 248.648825 236.194071 
L 249.095225 236.364397 
L 249.541625 236.324491 
L 250.434425 236.450024 
L 250.880825 236.474572 
L 251.327225 236.688773 
L 251.773625 236.618098 
L 252.220025 236.745127 
L 252.666425 236.663551 
L 253.112825 236.824546 
L 253.559225 236.837776 
L 254.005625 236.970748 
L 254.898425 236.993074 
L 255.344825 237.120532 
L 256.237625 237.147947 
L 257.130425 237.268482 
L 258.023225 237.363916 
L 259.362425 237.662157 
L 259.808825 237.593255 
L 260.255225 237.740383 
L 261.148025 237.767459 
L 263.826425 238.061731 
L 264.272825 238.050533 
L 265.612025 238.332108 
L 267.397625 238.505222 
L 271.415225 239.027644 
L 271.861625 238.94936 
L 273.200825 239.219902 
L 274.093625 239.281692 
L 274.986425 239.443504 
L 275.879225 239.454884 
L 276.325625 239.618956 
L 277.218425 239.634809 
L 277.664825 239.716748 
L 278.111225 239.641971 
L 278.557625 239.861794 
L 285.253625 240.618276 
L 285.700025 240.532917 
L 286.592825 240.729927 
L 287.485625 240.77716 
L 289.717625 241.112784 
L 290.610425 241.129062 
L 294.181625 241.574544 
L 295.520825 241.571669 
L 296.413625 241.737141 
L 312.037625 243.389076 
L 312.484025 243.384503 
L 313.823225 243.649684 
L 314.716025 243.621319 
L 315.608825 243.744609 
L 316.055225 243.679333 
L 316.501625 243.87455 
L 326.322425 244.76141 
L 326.768825 244.925594 
L 327.661625 244.861487 
L 328.108025 244.960629 
L 328.554425 244.918146 
L 329.000825 245.074993 
L 329.447225 245.052515 
L 329.893625 245.17571 
L 330.340025 245.118778 
L 331.679225 245.222472 
L 332.125625 245.216946 
L 332.572025 245.393417 
L 333.911225 245.390452 
L 335.696825 245.783251 
L 336.143225 245.614012 
L 336.589625 245.780575 
L 339.268025 245.968451 
L 341.500025 246.259208 
L 341.946425 246.183416 
L 342.839225 246.326537 
L 343.732025 246.32507 
L 344.624825 246.468861 
L 345.517625 246.503298 
L 346.856825 246.711848 
L 349.088825 246.822023 
L 349.535225 247.020887 
L 349.981625 246.884214 
L 351.320825 247.071375 
L 351.767225 246.983901 
L 352.213625 247.145701 
L 353.106425 247.206161 
L 354.892025 247.438235 
L 355.338425 247.358336 
L 356.231225 247.433142 
L 358.463225 247.66377 
L 358.909625 247.799844 
L 359.356025 247.663518 
L 359.802425 247.903948 
L 360.695225 247.778947 
L 361.141625 247.909718 
L 361.588025 247.906075 
L 362.034425 248.056796 
L 362.927225 248.027246 
L 363.373625 248.145712 
L 363.820025 248.077107 
L 365.605625 248.308375 
L 366.944825 248.278354 
L 367.391225 248.493909 
L 367.837625 248.454152 
L 368.284025 248.535046 
L 368.730425 248.494388 
L 369.176825 248.606175 
L 369.623225 248.5379 
L 371.408825 248.78023 
L 372.748025 248.792023 
L 374.087225 249.026542 
L 376.319225 249.132273 
L 377.658425 249.254597 
L 378.997625 249.359844 
L 379.890425 249.499488 
L 380.783225 249.544738 
L 381.676025 249.637474 
L 382.122425 249.446199 
L 382.568825 249.691866 
L 383.908025 249.737352 
L 384.800825 249.892568 
L 385.247225 249.74404 
L 386.586425 249.949492 
L 387.479225 250.013235 
L 388.372025 250.087115 
L 389.264825 250.124708 
L 390.157625 250.259836 
L 390.604025 250.208691 
L 391.050425 250.382077 
L 392.389625 250.462413 
L 393.728825 250.511047 
L 394.621625 250.645114 
L 395.068025 250.61052 
L 396.853625 250.82382 
L 397.300025 250.77567 
L 398.192825 250.873776 
L 401.317625 251.16685 
L 401.764025 251.108051 
L 405.335225 251.430296 
L 405.781625 251.453985 
L 406.228025 251.614657 
L 406.674425 251.512809 
L 411.584825 251.96143 
L 412.031225 251.845897 
L 412.477625 251.991922 
L 413.816825 252.07118 
L 416.048825 252.238353 
L 416.941625 252.159843 
L 417.834425 252.325307 
L 428.994425 253.130964 
L 429.440825 253.100282 
L 429.887225 253.257183 
L 430.333625 253.182072 
L 431.226425 253.368073 
L 432.119225 253.374959 
L 433.904825 253.514775 
L 434.797625 253.519141 
L 435.690425 253.584649 
L 455.332025 254.953493 
L 455.778425 255.138722 
L 456.671225 255.01805 
L 461.135225 255.292648 
L 461.581625 255.485977 
L 462.920825 255.336689 
L 463.367225 255.458674 
L 463.813625 255.396616 
L 464.260025 255.499621 
L 464.706425 255.3698 
L 465.152825 255.579486 
L 467.831225 255.845463 
L 468.277625 255.704139 
L 468.724025 255.899058 
L 469.170425 255.948262 
L 469.616825 255.884204 
L 470.509625 256.041762 
L 470.956025 255.925101 
L 471.402425 256.060424 
L 471.848825 255.954045 
L 473.188025 256.172355 
L 473.634425 256.328781 
L 474.527225 256.154887 
L 476.759225 256.327525 
L 477.205625 256.288429 
L 477.652025 256.533642 
L 478.991225 256.443211 
L 480.330425 256.733452 
L 480.776825 256.560252 
L 481.669625 256.643376 
L 482.116025 256.744402 
L 483.455225 256.728487 
L 483.901625 256.854929 
L 484.348025 256.805308 
L 485.240825 256.88875 
L 488.365625 256.958987 
L 488.812025 257.141609 
L 489.258425 257.030302 
L 489.704825 257.264065 
L 491.044025 257.139259 
L 491.490425 257.311249 
L 492.383225 257.333794 
L 492.829625 257.36854 
L 493.276025 257.286957 
L 493.722425 257.389135 
L 494.168825 257.348226 
L 495.061625 257.49853 
L 495.508025 257.400329 
L 495.954425 257.575607 
L 496.400825 257.503392 
L 496.847225 257.663936 
L 500.864825 257.791155 
L 501.757625 257.978845 
L 502.204025 257.914833 
L 503.989625 258.132553 
L 504.436025 258.062023 
L 504.882425 258.20766 
L 505.775225 258.055748 
L 506.221625 258.183756 
L 506.668025 258.139682 
L 507.114425 258.238181 
L 507.560825 258.119876 
L 508.007225 258.288937 
L 510.239225 258.329843 
L 510.239225 258.329843 
" clip-path="url(#pceae143e5b)" style="fill: none; stroke: #9467bd; stroke-width: 2; stroke-linecap: square"/>
   </g>
   <g id="line2d_18">
    <path d="M 64.384224 -1 
L 64.732025 91.925072 
L 65.178425 118.708374 
L 65.624825 133.256172 
L 66.071225 142.821291 
L 66.517625 149.783982 
L 67.410425 159.059365 
L 68.303225 165.250385 
L 69.196025 169.893041 
L 70.088825 173.533968 
L 71.428025 177.720193 
L 72.320825 180.042376 
L 74.106425 183.79587 
L 77.677625 189.492061 
L 79.016825 191.142377 
L 79.909625 192.30358 
L 80.356025 192.664785 
L 81.695225 194.189283 
L 84.373625 196.864517 
L 86.605625 198.749591 
L 87.498425 199.564253 
L 88.391225 200.241482 
L 89.284025 200.946493 
L 91.516025 202.600535 
L 91.962425 202.893328 
L 92.408825 203.321986 
L 93.301625 203.842251 
L 93.748025 204.1106 
L 94.194425 204.514358 
L 95.087225 204.956853 
L 95.980025 205.625366 
L 97.319225 206.331881 
L 98.658425 207.205032 
L 100.444025 208.101315 
L 101.336825 208.641895 
L 104.908025 210.561204 
L 105.800825 210.862482 
L 106.247225 211.240969 
L 109.818425 212.908452 
L 110.264825 213.006719 
L 110.711225 213.284692 
L 111.157625 213.374648 
L 112.050425 213.883918 
L 112.496825 214.026573 
L 113.389625 214.441748 
L 121.424825 217.637437 
L 124.549625 218.698985 
L 124.996025 218.985344 
L 125.888825 219.290942 
L 126.335225 219.467344 
L 126.781625 219.4647 
L 127.228025 219.751033 
L 127.674425 219.879239 
L 128.120825 220.126232 
L 129.013625 220.243145 
L 130.799225 220.891253 
L 132.584825 221.547804 
L 133.031225 221.53656 
L 134.370425 222.043055 
L 138.388025 223.283904 
L 138.834425 223.311926 
L 139.727225 223.670694 
L 141.512825 224.152198 
L 141.959225 224.400951 
L 142.852025 224.563936 
L 144.637625 225.113397 
L 145.530425 225.338333 
L 146.423225 225.656621 
L 146.869625 225.64256 
L 148.655225 226.206082 
L 151.333625 226.951994 
L 152.226425 227.1164 
L 152.672825 227.197757 
L 153.119225 227.429682 
L 154.904825 227.836009 
L 156.244025 228.278297 
L 157.583225 228.561566 
L 158.476025 228.741288 
L 159.368825 229.012173 
L 160.261625 229.2057 
L 165.618425 230.443724 
L 166.064825 230.498182 
L 166.511225 230.666644 
L 167.404025 230.82673 
L 168.296825 231.063917 
L 170.528825 231.516978 
L 170.975225 231.784955 
L 171.868025 231.888435 
L 173.207225 232.107654 
L 174.100025 232.36547 
L 174.546425 232.364347 
L 177.224825 233.119024 
L 177.671225 233.081361 
L 179.010425 233.415337 
L 181.242425 233.886201 
L 182.581625 234.251412 
L 183.028025 234.212353 
L 183.474425 234.388226 
L 184.367225 234.520227 
L 187.492025 235.195932 
L 187.938425 235.402462 
L 189.724025 235.59874 
L 190.616825 235.907275 
L 191.509625 235.94481 
L 192.402425 236.165359 
L 196.866425 237.026763 
L 197.312825 237.215396 
L 197.759225 237.165448 
L 201.330425 237.878093 
L 208.026425 239.160244 
L 208.919225 239.339558 
L 210.704825 239.593094 
L 212.044025 239.816931 
L 216.061625 240.642738 
L 216.954425 240.723764 
L 230.346425 242.982282 
L 230.792825 243.176358 
L 232.132025 243.227317 
L 233.471225 243.502337 
L 233.917625 243.488384 
L 234.364025 243.663067 
L 235.703225 243.875396 
L 237.935225 244.216419 
L 241.952825 244.850433 
L 242.845625 244.995843 
L 244.631225 245.257454 
L 245.077625 245.358336 
L 245.524025 245.340223 
L 246.416825 245.555907 
L 247.756025 245.686033 
L 248.648825 245.917971 
L 249.095225 245.838915 
L 249.541625 246.101931 
L 249.988025 246.000178 
L 250.880825 246.220405 
L 251.773625 246.249538 
L 252.666425 246.467539 
L 256.237625 246.944983 
L 257.130425 247.12309 
L 258.469625 247.264733 
L 258.916025 247.425306 
L 261.594425 247.735089 
L 262.487225 247.924431 
L 263.380025 248.000521 
L 269.183225 248.94317 
L 269.629625 248.869116 
L 281.682425 250.640079 
L 282.128825 250.5436 
L 282.575225 250.777248 
L 283.914425 250.805191 
L 284.807225 250.968028 
L 285.700025 251.084408 
L 286.146425 251.199098 
L 287.039225 251.192026 
L 287.485625 251.366181 
L 288.378425 251.435525 
L 289.717625 251.651882 
L 292.842425 252.082126 
L 293.288825 251.967985 
L 293.735225 252.140545 
L 294.181625 252.182169 
L 294.628025 252.342093 
L 295.520825 252.386832 
L 295.967225 252.493658 
L 296.860025 252.55375 
L 298.199225 252.722881 
L 299.092025 252.94106 
L 299.984825 253.011912 
L 300.431225 252.934207 
L 300.877625 253.101319 
L 302.663225 253.219152 
L 306.680825 253.829135 
L 307.127225 253.750711 
L 308.020025 254.022753 
L 311.591225 254.435644 
L 312.037625 254.356563 
L 313.376825 254.60589 
L 313.823225 254.609521 
L 314.269625 254.764183 
L 315.608825 254.845639 
L 316.501625 255.135653 
L 317.394425 254.984295 
L 318.733625 255.247563 
L 319.626425 255.340179 
L 320.072825 255.480165 
L 320.519225 255.46114 
L 320.965625 255.577953 
L 321.412025 255.513809 
L 322.304825 255.719125 
L 323.644025 255.837814 
L 329.000825 256.497438 
L 329.447225 256.419733 
L 329.893625 256.597266 
L 331.679225 256.698933 
L 333.911225 256.973861 
L 334.357625 256.934786 
L 335.250425 257.188942 
L 338.375225 257.515586 
L 338.821625 257.393559 
L 339.714425 257.658975 
L 341.946425 257.906221 
L 345.517625 258.298991 
L 345.964025 258.383388 
L 346.856825 258.412112 
L 347.749625 258.541524 
L 351.320825 258.972246 
L 351.767225 258.900952 
L 352.213625 259.093133 
L 353.106425 259.080671 
L 353.999225 259.21774 
L 354.445625 259.13764 
L 355.784825 259.523223 
L 356.231225 259.4305 
L 356.677625 259.620718 
L 357.570425 259.552604 
L 360.695225 259.958564 
L 361.141625 259.888282 
L 362.034425 260.100991 
L 362.480825 260.185636 
L 363.373625 260.143086 
L 363.820025 260.332049 
L 364.266425 260.261337 
L 364.712825 260.416127 
L 365.159225 260.322664 
L 366.498425 260.516588 
L 368.284025 260.661064 
L 368.730425 260.771875 
L 369.623225 260.735468 
L 370.516025 260.840542 
L 371.855225 260.997154 
L 372.301625 261.174229 
L 372.748025 261.048696 
L 374.087225 261.285623 
L 375.872825 261.467188 
L 376.319225 261.446667 
L 376.765625 261.599888 
L 377.658425 261.647873 
L 378.104825 261.584749 
L 378.551225 261.720526 
L 378.997625 261.647807 
L 379.890425 261.876072 
L 380.336825 261.826848 
L 381.229625 262.036992 
L 382.122425 262.044741 
L 383.015225 262.176317 
L 384.354425 262.196941 
L 385.247225 262.292135 
L 385.693625 262.278207 
L 386.586425 262.506579 
L 387.925625 262.611968 
L 389.711225 262.84595 
L 390.604025 262.919264 
L 391.050425 263.034892 
L 391.943225 262.955237 
L 392.836025 263.165146 
L 393.282425 263.095897 
L 393.728825 263.19076 
L 394.175225 263.128727 
L 395.068025 263.32816 
L 397.300025 263.474375 
L 397.746425 263.622333 
L 398.639225 263.675139 
L 403.103225 264.109398 
L 403.549625 264.254778 
L 404.442425 264.239623 
L 406.228025 264.299071 
L 406.674425 264.41716 
L 407.120825 264.398399 
L 408.460025 264.572281 
L 411.138425 264.726972 
L 412.031225 264.894922 
L 413.816825 265.078701 
L 414.263225 265.012768 
L 415.156025 265.175456 
L 416.941625 265.324877 
L 417.388025 265.410855 
L 417.834425 265.343671 
L 418.280825 265.500444 
L 419.173625 265.446597 
L 420.066425 265.60513 
L 421.852025 265.731522 
L 425.869625 266.151414 
L 426.762425 266.147156 
L 428.101625 266.277819 
L 428.548025 266.479743 
L 428.994425 266.370886 
L 429.440825 266.477414 
L 429.887225 266.355293 
L 431.226425 266.598527 
L 432.119225 266.657966 
L 432.565625 266.721743 
L 433.012025 266.634509 
L 435.244025 266.999212 
L 435.690425 266.890594 
L 438.368825 267.199811 
L 438.815225 267.31491 
L 439.261625 267.279172 
L 439.708025 267.370483 
L 440.154425 267.262893 
L 441.047225 267.441162 
L 442.832825 267.607571 
L 451.760825 268.272933 
L 452.207225 268.384149 
L 452.653625 268.332678 
L 453.546425 268.458669 
L 454.885625 268.531446 
L 455.778425 268.636752 
L 457.564025 268.739695 
L 458.903225 268.926501 
L 459.796025 268.876641 
L 460.242425 269.000336 
L 461.135225 269.00678 
L 464.706425 269.327494 
L 466.938425 269.381024 
L 467.384825 269.615228 
L 468.724025 269.517107 
L 469.170425 269.719482 
L 479.437625 270.548196 
L 479.884025 270.629381 
L 480.330425 270.496572 
L 481.669625 270.687034 
L 482.116025 270.6654 
L 482.562425 270.772746 
L 483.008825 270.693205 
L 483.455225 270.857671 
L 483.901625 270.761234 
L 484.794425 270.956566 
L 485.687225 270.875751 
L 488.365625 271.186401 
L 488.812025 271.121726 
L 489.258425 271.307035 
L 491.936825 271.361064 
L 493.276025 271.554085 
L 493.722425 271.494955 
L 494.615225 271.640596 
L 495.061625 271.54299 
L 496.400825 271.854551 
L 497.740025 271.8479 
L 498.186425 271.757368 
L 498.632825 271.990024 
L 499.525625 271.978568 
L 501.757625 272.065945 
L 502.204025 272.189322 
L 503.096825 272.186011 
L 504.882425 272.442457 
L 505.328825 272.291721 
L 505.775225 272.50467 
L 506.221625 272.552207 
L 506.668025 272.377047 
L 507.114425 272.553767 
L 507.560825 272.523138 
L 508.007225 272.667998 
L 508.453625 272.681431 
L 508.900025 272.575737 
L 509.346425 272.613528 
L 509.792825 272.832595 
L 510.239225 272.726479 
L 510.239225 272.726479 
" clip-path="url(#pceae143e5b)" style="fill: none; stroke: #8c564b; stroke-width: 2; stroke-linecap: square"/>
   </g>
   <g id="patch_3">
    <path d="M 64.285625 303.756563 
L 64.285625 26.556563 
" style="fill: none; stroke: #000000; stroke-width: 0.8; stroke-linejoin: miter; stroke-linecap: square"/>
   </g>
   <g id="patch_4">
    <path d="M 510.685625 303.756563 
L 510.685625 26.556563 
" style="fill: none; stroke: #000000; stroke-width: 0.8; stroke-linejoin: miter; stroke-linecap: square"/>
   </g>
   <g id="patch_5">
    <path d="M 64.285625 303.756563 
L 510.685625 303.756563 
" style="fill: none; stroke: #000000; stroke-width: 0.8; stroke-linejoin: miter; stroke-linecap: square"/>
   </g>
   <g id="patch_6">
    <path d="M 64.285625 26.556563 
L 510.685625 26.556563 
" style="fill: none; stroke: #000000; stroke-width: 0.8; stroke-linejoin: miter; stroke-linecap: square"/>
   </g>
   <g id="text_15">
    <!-- Different number of neurons -->
    <g transform="translate(155.625781 20.556563)scale(0.18 -0.18)">
     <defs>
      <path id="Montserrat-Medium-44" d="M 672 4480 
L 2560 4480 
Q 3270 4480 3820 4198 
Q 4371 3917 4675 3408 
Q 4979 2899 4979 2240 
Q 4979 1581 4675 1072 
Q 4371 563 3820 281 
Q 3270 0 2560 0 
L 672 0 
L 672 4480 
z
M 2522 557 
Q 3066 557 3478 768 
Q 3891 979 4115 1360 
Q 4339 1741 4339 2240 
Q 4339 2739 4115 3120 
Q 3891 3501 3478 3712 
Q 3066 3923 2522 3923 
L 1312 3923 
L 1312 557 
L 2522 557 
z
" transform="scale(0.015625)"/>
      <path id="Montserrat-Medium-65" d="M 3648 1677 
Q 3648 1606 3635 1491 
L 883 1491 
Q 941 1043 1277 771 
Q 1613 499 2112 499 
Q 2720 499 3091 909 
L 3430 512 
Q 3200 243 2857 102 
Q 2515 -38 2093 -38 
Q 1555 -38 1139 182 
Q 723 403 496 800 
Q 269 1197 269 1696 
Q 269 2189 489 2585 
Q 710 2982 1097 3203 
Q 1485 3424 1971 3424 
Q 2458 3424 2838 3203 
Q 3219 2982 3433 2585 
Q 3648 2189 3648 1677 
z
M 1971 2906 
Q 1530 2906 1232 2637 
Q 934 2368 883 1933 
L 3059 1933 
Q 3008 2362 2710 2634 
Q 2413 2906 1971 2906 
z
" transform="scale(0.015625)"/>
      <path id="Montserrat-Medium-72" d="M 1171 2822 
Q 1331 3117 1644 3270 
Q 1958 3424 2406 3424 
L 2406 2829 
Q 2355 2835 2266 2835 
Q 1766 2835 1481 2537 
Q 1197 2240 1197 1690 
L 1197 0 
L 582 0 
L 582 3392 
L 1171 3392 
L 1171 2822 
z
" transform="scale(0.015625)"/>
      <path id="Montserrat-Medium-6d" d="M 4826 3424 
Q 5466 3424 5840 3053 
Q 6214 2682 6214 1952 
L 6214 0 
L 5600 0 
L 5600 1882 
Q 5600 2374 5373 2624 
Q 5146 2874 4723 2874 
Q 4256 2874 3981 2582 
Q 3706 2291 3706 1747 
L 3706 0 
L 3091 0 
L 3091 1882 
Q 3091 2374 2864 2624 
Q 2637 2874 2214 2874 
Q 1747 2874 1472 2582 
Q 1197 2291 1197 1747 
L 1197 0 
L 582 0 
L 582 3392 
L 1171 3392 
L 1171 2886 
Q 1357 3149 1657 3286 
Q 1958 3424 2342 3424 
Q 2739 3424 3046 3264 
Q 3354 3104 3520 2797 
Q 3712 3091 4054 3257 
Q 4397 3424 4826 3424 
z
" transform="scale(0.015625)"/>
      <path id="Montserrat-Medium-62" d="M 2381 3424 
Q 2874 3424 3264 3206 
Q 3654 2989 3875 2598 
Q 4096 2208 4096 1696 
Q 4096 1184 3875 790 
Q 3654 397 3264 179 
Q 2874 -38 2381 -38 
Q 2003 -38 1689 109 
Q 1376 256 1171 538 
L 1171 0 
L 582 0 
L 582 4749 
L 1197 4749 
L 1197 2880 
Q 1402 3149 1709 3286 
Q 2016 3424 2381 3424 
z
M 2330 499 
Q 2656 499 2915 649 
Q 3174 800 3324 1072 
Q 3475 1344 3475 1696 
Q 3475 2048 3324 2320 
Q 3174 2592 2915 2739 
Q 2656 2886 2330 2886 
Q 2010 2886 1747 2739 
Q 1485 2592 1337 2320 
Q 1190 2048 1190 1696 
Q 1190 1344 1337 1072 
Q 1485 800 1747 649 
Q 2010 499 2330 499 
z
" transform="scale(0.015625)"/>
     </defs>
     <use xlink:href="#Montserrat-Medium-44"/>
     <use xlink:href="#Montserrat-Medium-69" x="82.599991"/>
     <use xlink:href="#Montserrat-Medium-66" x="110.499985"/>
     <use xlink:href="#Montserrat-Medium-66" x="145.799973"/>
     <use xlink:href="#Montserrat-Medium-65" x="181.09996"/>
     <use xlink:href="#Montserrat-Medium-72" x="242.299957"/>
     <use xlink:href="#Montserrat-Medium-65" x="283.299942"/>
     <use xlink:href="#Montserrat-Medium-6e" x="344.499939"/>
     <use xlink:href="#Montserrat-Medium-74" x="412.59993"/>
     <use xlink:href="#Montserrat-Medium-20" x="453.999924"/>
     <use xlink:href="#Montserrat-Medium-6e" x="480.899918"/>
     <use xlink:href="#Montserrat-Medium-75" x="548.999908"/>
     <use xlink:href="#Montserrat-Medium-6d" x="616.69989"/>
     <use xlink:href="#Montserrat-Medium-62" x="722.399872"/>
     <use xlink:href="#Montserrat-Medium-65" x="790.599854"/>
     <use xlink:href="#Montserrat-Medium-72" x="851.79985"/>
     <use xlink:href="#Montserrat-Medium-20" x="892.799835"/>
     <use xlink:href="#Montserrat-Medium-6f" x="919.699829"/>
     <use xlink:href="#Montserrat-Medium-66" x="983.199814"/>
     <use xlink:href="#Montserrat-Medium-20" x="1018.499802"/>
     <use xlink:href="#Montserrat-Medium-6e" x="1045.399796"/>
     <use xlink:href="#Montserrat-Medium-65" x="1113.499786"/>
     <use xlink:href="#Montserrat-Medium-75" x="1174.699783"/>
     <use xlink:href="#Montserrat-Medium-72" x="1242.399765"/>
     <use xlink:href="#Montserrat-Medium-6f" x="1283.39975"/>
     <use xlink:href="#Montserrat-Medium-6e" x="1346.899734"/>
     <use xlink:href="#Montserrat-Medium-73" x="1414.999725"/>
    </g>
   </g>
   <g id="legend_1">
    <g id="patch_7">
     <path d="M 186.483125 199.480312 
L 498.085625 199.480312 
Q 501.685625 199.480312 501.685625 195.880313 
L 501.685625 39.156563 
Q 501.685625 35.556563 498.085625 35.556563 
L 186.483125 35.556563 
Q 182.883125 35.556563 182.883125 39.156563 
L 182.883125 195.880313 
Q 182.883125 199.480312 186.483125 199.480312 
z
" style="fill: #f1f7f0; opacity: 0.8; stroke: #cccccc; stroke-linejoin: miter"/>
    </g>
    <g id="line2d_19">
     <path d="M 190.083125 50.13375 
L 208.083125 50.13375 
L 226.083125 50.13375 
" style="fill: none; stroke: #1f77b4; stroke-width: 2; stroke-linecap: square"/>
    </g>
    <g id="text_16">
     <!-- 1 hidden layer, 2 neurons -->
     <g transform="translate(240.483125 56.43375)scale(0.18 -0.18)">
      <defs>
       <path id="DejaVuSans-20" transform="scale(0.015625)"/>
       <path id="DejaVuSans-68" d="M 3513 2113 
L 3513 0 
L 2938 0 
L 2938 2094 
Q 2938 2591 2744 2837 
Q 2550 3084 2163 3084 
Q 1697 3084 1428 2787 
Q 1159 2491 1159 1978 
L 1159 0 
L 581 0 
L 581 4863 
L 1159 4863 
L 1159 2956 
Q 1366 3272 1645 3428 
Q 1925 3584 2291 3584 
Q 2894 3584 3203 3211 
Q 3513 2838 3513 2113 
z
" transform="scale(0.015625)"/>
       <path id="DejaVuSans-69" d="M 603 3500 
L 1178 3500 
L 1178 0 
L 603 0 
L 603 3500 
z
M 603 4863 
L 1178 4863 
L 1178 4134 
L 603 4134 
L 603 4863 
z
" transform="scale(0.015625)"/>
       <path id="DejaVuSans-64" d="M 2906 2969 
L 2906 4863 
L 3481 4863 
L 3481 0 
L 2906 0 
L 2906 525 
Q 2725 213 2448 61 
Q 2172 -91 1784 -91 
Q 1150 -91 751 415 
Q 353 922 353 1747 
Q 353 2572 751 3078 
Q 1150 3584 1784 3584 
Q 2172 3584 2448 3432 
Q 2725 3281 2906 2969 
z
M 947 1747 
Q 947 1113 1208 752 
Q 1469 391 1925 391 
Q 2381 391 2643 752 
Q 2906 1113 2906 1747 
Q 2906 2381 2643 2742 
Q 2381 3103 1925 3103 
Q 1469 3103 1208 2742 
Q 947 2381 947 1747 
z
" transform="scale(0.015625)"/>
       <path id="DejaVuSans-65" d="M 3597 1894 
L 3597 1613 
L 953 1613 
Q 991 1019 1311 708 
Q 1631 397 2203 397 
Q 2534 397 2845 478 
Q 3156 559 3463 722 
L 3463 178 
Q 3153 47 2828 -22 
Q 2503 -91 2169 -91 
Q 1331 -91 842 396 
Q 353 884 353 1716 
Q 353 2575 817 3079 
Q 1281 3584 2069 3584 
Q 2775 3584 3186 3129 
Q 3597 2675 3597 1894 
z
M 3022 2063 
Q 3016 2534 2758 2815 
Q 2500 3097 2075 3097 
Q 1594 3097 1305 2825 
Q 1016 2553 972 2059 
L 3022 2063 
z
" transform="scale(0.015625)"/>
       <path id="DejaVuSans-6e" d="M 3513 2113 
L 3513 0 
L 2938 0 
L 2938 2094 
Q 2938 2591 2744 2837 
Q 2550 3084 2163 3084 
Q 1697 3084 1428 2787 
Q 1159 2491 1159 1978 
L 1159 0 
L 581 0 
L 581 3500 
L 1159 3500 
L 1159 2956 
Q 1366 3272 1645 3428 
Q 1925 3584 2291 3584 
Q 2894 3584 3203 3211 
Q 3513 2838 3513 2113 
z
" transform="scale(0.015625)"/>
       <path id="DejaVuSans-6c" d="M 603 4863 
L 1178 4863 
L 1178 0 
L 603 0 
L 603 4863 
z
" transform="scale(0.015625)"/>
       <path id="DejaVuSans-61" d="M 2194 1759 
Q 1497 1759 1228 1600 
Q 959 1441 959 1056 
Q 959 750 1161 570 
Q 1363 391 1709 391 
Q 2188 391 2477 730 
Q 2766 1069 2766 1631 
L 2766 1759 
L 2194 1759 
z
M 3341 1997 
L 3341 0 
L 2766 0 
L 2766 531 
Q 2569 213 2275 61 
Q 1981 -91 1556 -91 
Q 1019 -91 701 211 
Q 384 513 384 1019 
Q 384 1609 779 1909 
Q 1175 2209 1959 2209 
L 2766 2209 
L 2766 2266 
Q 2766 2663 2505 2880 
Q 2244 3097 1772 3097 
Q 1472 3097 1187 3025 
Q 903 2953 641 2809 
L 641 3341 
Q 956 3463 1253 3523 
Q 1550 3584 1831 3584 
Q 2591 3584 2966 3190 
Q 3341 2797 3341 1997 
z
" transform="scale(0.015625)"/>
       <path id="DejaVuSans-79" d="M 2059 -325 
Q 1816 -950 1584 -1140 
Q 1353 -1331 966 -1331 
L 506 -1331 
L 506 -850 
L 844 -850 
Q 1081 -850 1212 -737 
Q 1344 -625 1503 -206 
L 1606 56 
L 191 3500 
L 800 3500 
L 1894 763 
L 2988 3500 
L 3597 3500 
L 2059 -325 
z
" transform="scale(0.015625)"/>
       <path id="DejaVuSans-72" d="M 2631 2963 
Q 2534 3019 2420 3045 
Q 2306 3072 2169 3072 
Q 1681 3072 1420 2755 
Q 1159 2438 1159 1844 
L 1159 0 
L 581 0 
L 581 3500 
L 1159 3500 
L 1159 2956 
Q 1341 3275 1631 3429 
Q 1922 3584 2338 3584 
Q 2397 3584 2469 3576 
Q 2541 3569 2628 3553 
L 2631 2963 
z
" transform="scale(0.015625)"/>
       <path id="DejaVuSans-2c" d="M 750 794 
L 1409 794 
L 1409 256 
L 897 -744 
L 494 -744 
L 750 256 
L 750 794 
z
" transform="scale(0.015625)"/>
       <path id="DejaVuSans-75" d="M 544 1381 
L 544 3500 
L 1119 3500 
L 1119 1403 
Q 1119 906 1312 657 
Q 1506 409 1894 409 
Q 2359 409 2629 706 
Q 2900 1003 2900 1516 
L 2900 3500 
L 3475 3500 
L 3475 0 
L 2900 0 
L 2900 538 
Q 2691 219 2414 64 
Q 2138 -91 1772 -91 
Q 1169 -91 856 284 
Q 544 659 544 1381 
z
M 1991 3584 
L 1991 3584 
z
" transform="scale(0.015625)"/>
       <path id="DejaVuSans-6f" d="M 1959 3097 
Q 1497 3097 1228 2736 
Q 959 2375 959 1747 
Q 959 1119 1226 758 
Q 1494 397 1959 397 
Q 2419 397 2687 759 
Q 2956 1122 2956 1747 
Q 2956 2369 2687 2733 
Q 2419 3097 1959 3097 
z
M 1959 3584 
Q 2709 3584 3137 3096 
Q 3566 2609 3566 1747 
Q 3566 888 3137 398 
Q 2709 -91 1959 -91 
Q 1206 -91 779 398 
Q 353 888 353 1747 
Q 353 2609 779 3096 
Q 1206 3584 1959 3584 
z
" transform="scale(0.015625)"/>
       <path id="DejaVuSans-73" d="M 2834 3397 
L 2834 2853 
Q 2591 2978 2328 3040 
Q 2066 3103 1784 3103 
Q 1356 3103 1142 2972 
Q 928 2841 928 2578 
Q 928 2378 1081 2264 
Q 1234 2150 1697 2047 
L 1894 2003 
Q 2506 1872 2764 1633 
Q 3022 1394 3022 966 
Q 3022 478 2636 193 
Q 2250 -91 1575 -91 
Q 1294 -91 989 -36 
Q 684 19 347 128 
L 347 722 
Q 666 556 975 473 
Q 1284 391 1588 391 
Q 1994 391 2212 530 
Q 2431 669 2431 922 
Q 2431 1156 2273 1281 
Q 2116 1406 1581 1522 
L 1381 1569 
Q 847 1681 609 1914 
Q 372 2147 372 2553 
Q 372 3047 722 3315 
Q 1072 3584 1716 3584 
Q 2034 3584 2315 3537 
Q 2597 3491 2834 3397 
z
" transform="scale(0.015625)"/>
      </defs>
      <use xlink:href="#DejaVuSans-31"/>
      <use xlink:href="#DejaVuSans-20" x="63.623047"/>
      <use xlink:href="#DejaVuSans-68" x="95.410156"/>
      <use xlink:href="#DejaVuSans-69" x="158.789062"/>
      <use xlink:href="#DejaVuSans-64" x="186.572266"/>
      <use xlink:href="#DejaVuSans-64" x="250.048828"/>
      <use xlink:href="#DejaVuSans-65" x="313.525391"/>
      <use xlink:href="#DejaVuSans-6e" x="375.048828"/>
      <use xlink:href="#DejaVuSans-20" x="438.427734"/>
      <use xlink:href="#DejaVuSans-6c" x="470.214844"/>
      <use xlink:href="#DejaVuSans-61" x="497.998047"/>
      <use xlink:href="#DejaVuSans-79" x="559.277344"/>
      <use xlink:href="#DejaVuSans-65" x="618.457031"/>
      <use xlink:href="#DejaVuSans-72" x="679.980469"/>
      <use xlink:href="#DejaVuSans-2c" x="721.09375"/>
      <use xlink:href="#DejaVuSans-20" x="752.880859"/>
      <use xlink:href="#DejaVuSans-32" x="784.667969"/>
      <use xlink:href="#DejaVuSans-20" x="848.291016"/>
      <use xlink:href="#DejaVuSans-6e" x="880.078125"/>
      <use xlink:href="#DejaVuSans-65" x="943.457031"/>
      <use xlink:href="#DejaVuSans-75" x="1004.980469"/>
      <use xlink:href="#DejaVuSans-72" x="1068.359375"/>
      <use xlink:href="#DejaVuSans-6f" x="1107.222656"/>
      <use xlink:href="#DejaVuSans-6e" x="1168.404297"/>
      <use xlink:href="#DejaVuSans-73" x="1231.783203"/>
     </g>
    </g>
    <g id="line2d_20">
     <path d="M 190.083125 76.554375 
L 208.083125 76.554375 
L 226.083125 76.554375 
" style="fill: none; stroke: #ff7f0e; stroke-width: 2; stroke-linecap: square"/>
    </g>
    <g id="text_17">
     <!-- 1 hidden layer, 5 neurons -->
     <g transform="translate(240.483125 82.854375)scale(0.18 -0.18)">
      <defs>
       <path id="DejaVuSans-35" d="M 691 4666 
L 3169 4666 
L 3169 4134 
L 1269 4134 
L 1269 2991 
Q 1406 3038 1543 3061 
Q 1681 3084 1819 3084 
Q 2600 3084 3056 2656 
Q 3513 2228 3513 1497 
Q 3513 744 3044 326 
Q 2575 -91 1722 -91 
Q 1428 -91 1123 -41 
Q 819 9 494 109 
L 494 744 
Q 775 591 1075 516 
Q 1375 441 1709 441 
Q 2250 441 2565 725 
Q 2881 1009 2881 1497 
Q 2881 1984 2565 2268 
Q 2250 2553 1709 2553 
Q 1456 2553 1204 2497 
Q 953 2441 691 2322 
L 691 4666 
z
" transform="scale(0.015625)"/>
      </defs>
      <use xlink:href="#DejaVuSans-31"/>
      <use xlink:href="#DejaVuSans-20" x="63.623047"/>
      <use xlink:href="#DejaVuSans-68" x="95.410156"/>
      <use xlink:href="#DejaVuSans-69" x="158.789062"/>
      <use xlink:href="#DejaVuSans-64" x="186.572266"/>
      <use xlink:href="#DejaVuSans-64" x="250.048828"/>
      <use xlink:href="#DejaVuSans-65" x="313.525391"/>
      <use xlink:href="#DejaVuSans-6e" x="375.048828"/>
      <use xlink:href="#DejaVuSans-20" x="438.427734"/>
      <use xlink:href="#DejaVuSans-6c" x="470.214844"/>
      <use xlink:href="#DejaVuSans-61" x="497.998047"/>
      <use xlink:href="#DejaVuSans-79" x="559.277344"/>
      <use xlink:href="#DejaVuSans-65" x="618.457031"/>
      <use xlink:href="#DejaVuSans-72" x="679.980469"/>
      <use xlink:href="#DejaVuSans-2c" x="721.09375"/>
      <use xlink:href="#DejaVuSans-20" x="752.880859"/>
      <use xlink:href="#DejaVuSans-35" x="784.667969"/>
      <use xlink:href="#DejaVuSans-20" x="848.291016"/>
      <use xlink:href="#DejaVuSans-6e" x="880.078125"/>
      <use xlink:href="#DejaVuSans-65" x="943.457031"/>
      <use xlink:href="#DejaVuSans-75" x="1004.980469"/>
      <use xlink:href="#DejaVuSans-72" x="1068.359375"/>
      <use xlink:href="#DejaVuSans-6f" x="1107.222656"/>
      <use xlink:href="#DejaVuSans-6e" x="1168.404297"/>
      <use xlink:href="#DejaVuSans-73" x="1231.783203"/>
     </g>
    </g>
    <g id="line2d_21">
     <path d="M 190.083125 102.975 
L 208.083125 102.975 
L 226.083125 102.975 
" style="fill: none; stroke: #2ca02c; stroke-width: 2; stroke-linecap: square"/>
    </g>
    <g id="text_18">
     <!-- 1 hidden layer, 10 neurons -->
     <g transform="translate(240.483125 109.275)scale(0.18 -0.18)">
      <use xlink:href="#DejaVuSans-31"/>
      <use xlink:href="#DejaVuSans-20" x="63.623047"/>
      <use xlink:href="#DejaVuSans-68" x="95.410156"/>
      <use xlink:href="#DejaVuSans-69" x="158.789062"/>
      <use xlink:href="#DejaVuSans-64" x="186.572266"/>
      <use xlink:href="#DejaVuSans-64" x="250.048828"/>
      <use xlink:href="#DejaVuSans-65" x="313.525391"/>
      <use xlink:href="#DejaVuSans-6e" x="375.048828"/>
      <use xlink:href="#DejaVuSans-20" x="438.427734"/>
      <use xlink:href="#DejaVuSans-6c" x="470.214844"/>
      <use xlink:href="#DejaVuSans-61" x="497.998047"/>
      <use xlink:href="#DejaVuSans-79" x="559.277344"/>
      <use xlink:href="#DejaVuSans-65" x="618.457031"/>
      <use xlink:href="#DejaVuSans-72" x="679.980469"/>
      <use xlink:href="#DejaVuSans-2c" x="721.09375"/>
      <use xlink:href="#DejaVuSans-20" x="752.880859"/>
      <use xlink:href="#DejaVuSans-31" x="784.667969"/>
      <use xlink:href="#DejaVuSans-30" x="848.291016"/>
      <use xlink:href="#DejaVuSans-20" x="911.914062"/>
      <use xlink:href="#DejaVuSans-6e" x="943.701172"/>
      <use xlink:href="#DejaVuSans-65" x="1007.080078"/>
      <use xlink:href="#DejaVuSans-75" x="1068.603516"/>
      <use xlink:href="#DejaVuSans-72" x="1131.982422"/>
      <use xlink:href="#DejaVuSans-6f" x="1170.845703"/>
      <use xlink:href="#DejaVuSans-6e" x="1232.027344"/>
      <use xlink:href="#DejaVuSans-73" x="1295.40625"/>
     </g>
    </g>
    <g id="line2d_22">
     <path d="M 190.083125 129.395625 
L 208.083125 129.395625 
L 226.083125 129.395625 
" style="fill: none; stroke: #d62728; stroke-width: 2; stroke-linecap: square"/>
    </g>
    <g id="text_19">
     <!-- 1 hidden layer, 20 neurons -->
     <g transform="translate(240.483125 135.695625)scale(0.18 -0.18)">
      <use xlink:href="#DejaVuSans-31"/>
      <use xlink:href="#DejaVuSans-20" x="63.623047"/>
      <use xlink:href="#DejaVuSans-68" x="95.410156"/>
      <use xlink:href="#DejaVuSans-69" x="158.789062"/>
      <use xlink:href="#DejaVuSans-64" x="186.572266"/>
      <use xlink:href="#DejaVuSans-64" x="250.048828"/>
      <use xlink:href="#DejaVuSans-65" x="313.525391"/>
      <use xlink:href="#DejaVuSans-6e" x="375.048828"/>
      <use xlink:href="#DejaVuSans-20" x="438.427734"/>
      <use xlink:href="#DejaVuSans-6c" x="470.214844"/>
      <use xlink:href="#DejaVuSans-61" x="497.998047"/>
      <use xlink:href="#DejaVuSans-79" x="559.277344"/>
      <use xlink:href="#DejaVuSans-65" x="618.457031"/>
      <use xlink:href="#DejaVuSans-72" x="679.980469"/>
      <use xlink:href="#DejaVuSans-2c" x="721.09375"/>
      <use xlink:href="#DejaVuSans-20" x="752.880859"/>
      <use xlink:href="#DejaVuSans-32" x="784.667969"/>
      <use xlink:href="#DejaVuSans-30" x="848.291016"/>
      <use xlink:href="#DejaVuSans-20" x="911.914062"/>
      <use xlink:href="#DejaVuSans-6e" x="943.701172"/>
      <use xlink:href="#DejaVuSans-65" x="1007.080078"/>
      <use xlink:href="#DejaVuSans-75" x="1068.603516"/>
      <use xlink:href="#DejaVuSans-72" x="1131.982422"/>
      <use xlink:href="#DejaVuSans-6f" x="1170.845703"/>
      <use xlink:href="#DejaVuSans-6e" x="1232.027344"/>
      <use xlink:href="#DejaVuSans-73" x="1295.40625"/>
     </g>
    </g>
    <g id="line2d_23">
     <path d="M 190.083125 155.81625 
L 208.083125 155.81625 
L 226.083125 155.81625 
" style="fill: none; stroke: #9467bd; stroke-width: 2; stroke-linecap: square"/>
    </g>
    <g id="text_20">
     <!-- 1 hidden layer, 50 neurons -->
     <g transform="translate(240.483125 162.11625)scale(0.18 -0.18)">
      <use xlink:href="#DejaVuSans-31"/>
      <use xlink:href="#DejaVuSans-20" x="63.623047"/>
      <use xlink:href="#DejaVuSans-68" x="95.410156"/>
      <use xlink:href="#DejaVuSans-69" x="158.789062"/>
      <use xlink:href="#DejaVuSans-64" x="186.572266"/>
      <use xlink:href="#DejaVuSans-64" x="250.048828"/>
      <use xlink:href="#DejaVuSans-65" x="313.525391"/>
      <use xlink:href="#DejaVuSans-6e" x="375.048828"/>
      <use xlink:href="#DejaVuSans-20" x="438.427734"/>
      <use xlink:href="#DejaVuSans-6c" x="470.214844"/>
      <use xlink:href="#DejaVuSans-61" x="497.998047"/>
      <use xlink:href="#DejaVuSans-79" x="559.277344"/>
      <use xlink:href="#DejaVuSans-65" x="618.457031"/>
      <use xlink:href="#DejaVuSans-72" x="679.980469"/>
      <use xlink:href="#DejaVuSans-2c" x="721.09375"/>
      <use xlink:href="#DejaVuSans-20" x="752.880859"/>
      <use xlink:href="#DejaVuSans-35" x="784.667969"/>
      <use xlink:href="#DejaVuSans-30" x="848.291016"/>
      <use xlink:href="#DejaVuSans-20" x="911.914062"/>
      <use xlink:href="#DejaVuSans-6e" x="943.701172"/>
      <use xlink:href="#DejaVuSans-65" x="1007.080078"/>
      <use xlink:href="#DejaVuSans-75" x="1068.603516"/>
      <use xlink:href="#DejaVuSans-72" x="1131.982422"/>
      <use xlink:href="#DejaVuSans-6f" x="1170.845703"/>
      <use xlink:href="#DejaVuSans-6e" x="1232.027344"/>
      <use xlink:href="#DejaVuSans-73" x="1295.40625"/>
     </g>
    </g>
    <g id="line2d_24">
     <path d="M 190.083125 182.236875 
L 208.083125 182.236875 
L 226.083125 182.236875 
" style="fill: none; stroke: #8c564b; stroke-width: 2; stroke-linecap: square"/>
    </g>
    <g id="text_21">
     <!-- 1 hidden layer, 100 neurons -->
     <g transform="translate(240.483125 188.536875)scale(0.18 -0.18)">
      <use xlink:href="#DejaVuSans-31"/>
      <use xlink:href="#DejaVuSans-20" x="63.623047"/>
      <use xlink:href="#DejaVuSans-68" x="95.410156"/>
      <use xlink:href="#DejaVuSans-69" x="158.789062"/>
      <use xlink:href="#DejaVuSans-64" x="186.572266"/>
      <use xlink:href="#DejaVuSans-64" x="250.048828"/>
      <use xlink:href="#DejaVuSans-65" x="313.525391"/>
      <use xlink:href="#DejaVuSans-6e" x="375.048828"/>
      <use xlink:href="#DejaVuSans-20" x="438.427734"/>
      <use xlink:href="#DejaVuSans-6c" x="470.214844"/>
      <use xlink:href="#DejaVuSans-61" x="497.998047"/>
      <use xlink:href="#DejaVuSans-79" x="559.277344"/>
      <use xlink:href="#DejaVuSans-65" x="618.457031"/>
      <use xlink:href="#DejaVuSans-72" x="679.980469"/>
      <use xlink:href="#DejaVuSans-2c" x="721.09375"/>
      <use xlink:href="#DejaVuSans-20" x="752.880859"/>
      <use xlink:href="#DejaVuSans-31" x="784.667969"/>
      <use xlink:href="#DejaVuSans-30" x="848.291016"/>
      <use xlink:href="#DejaVuSans-30" x="911.914062"/>
      <use xlink:href="#DejaVuSans-20" x="975.537109"/>
      <use xlink:href="#DejaVuSans-6e" x="1007.324219"/>
      <use xlink:href="#DejaVuSans-65" x="1070.703125"/>
      <use xlink:href="#DejaVuSans-75" x="1132.226562"/>
      <use xlink:href="#DejaVuSans-72" x="1195.605469"/>
      <use xlink:href="#DejaVuSans-6f" x="1234.46875"/>
      <use xlink:href="#DejaVuSans-6e" x="1295.650391"/>
      <use xlink:href="#DejaVuSans-73" x="1359.029297"/>
     </g>
    </g>
   </g>
  </g>
 </g>
 <defs>
  <clipPath id="pceae143e5b">
   <rect x="64.285625" y="26.556563" width="446.4" height="277.2"/>
  </clipPath>
 </defs>
</svg>
