<?xml version="1.0" encoding="utf-8" standalone="no"?>
<!DOCTYPE svg PUBLIC "-//W3C//DTD SVG 1.1//EN"
  "http://www.w3.org/Graphics/SVG/1.1/DTD/svg11.dtd">
<svg xmlns:xlink="http://www.w3.org/1999/xlink" width="747.905937pt" height="502.99625pt" viewBox="0 0 747.905937 502.99625" xmlns="http://www.w3.org/2000/svg" version="1.1">
 <metadata>
  <rdf:RDF xmlns:dc="http://purl.org/dc/elements/1.1/" xmlns:cc="http://creativecommons.org/ns#" xmlns:rdf="http://www.w3.org/1999/02/22-rdf-syntax-ns#">
   <cc:Work>
    <dc:type rdf:resource="http://purl.org/dc/dcmitype/StillImage"/>
    <dc:date>2022-12-05T20:14:18.942073</dc:date>
    <dc:format>image/svg+xml</dc:format>
    <dc:creator>
     <cc:Agent>
      <dc:title>Matplotlib v3.5.2, https://matplotlib.org/</dc:title>
     </cc:Agent>
    </dc:creator>
   </cc:Work>
  </rdf:RDF>
 </metadata>
 <defs>
  <style type="text/css">*{stroke-linejoin: round; stroke-linecap: butt}</style>
 </defs>
 <g id="figure_1">
  <g id="patch_1">
   <path d="M 0 502.99625 
L 747.905937 502.99625 
L 747.905937 0 
L 0 0 
z
" style="fill: #ffffff"/>
  </g>
  <g id="axes_1">
   <g id="patch_2">
    <path d="M 71.105938 208.8 
L 375.469574 208.8 
L 375.469574 7.2 
L 71.105938 7.2 
z
" style="fill: #f1f7f0"/>
   </g>
   <g id="patch_3">
    <path d="M 84.940648 208.8 
L 112.610063 208.8 
L 112.610063 207.648 
L 84.940648 207.648 
z
" clip-path="url(#p8d9ed290ad)" style="opacity: 0.25"/>
   </g>
   <g id="patch_4">
    <path d="M 112.610063 208.8 
L 140.279493 208.8 
L 140.279493 203.04 
L 112.610063 203.04 
z
" clip-path="url(#p8d9ed290ad)" style="opacity: 0.25"/>
   </g>
   <g id="patch_5">
    <path d="M 140.279493 208.8 
L 167.948915 208.8 
L 167.948915 199.008 
L 140.279493 199.008 
z
" clip-path="url(#p8d9ed290ad)" style="opacity: 0.25"/>
   </g>
   <g id="patch_6">
    <path d="M 167.948915 208.8 
L 195.61833 208.8 
L 195.61833 190.944 
L 167.948915 190.944 
z
" clip-path="url(#p8d9ed290ad)" style="opacity: 0.25"/>
   </g>
   <g id="patch_7">
    <path d="M 195.618333 208.8 
L 223.287756 208.8 
L 223.287756 183.456 
L 195.618333 183.456 
z
" clip-path="url(#p8d9ed290ad)" style="opacity: 0.25"/>
   </g>
   <g id="patch_8">
    <path d="M 223.287756 208.8 
L 250.957178 208.8 
L 250.957178 182.304 
L 223.287756 182.304 
z
" clip-path="url(#p8d9ed290ad)" style="opacity: 0.25"/>
   </g>
   <g id="patch_9">
    <path d="M 250.957178 208.8 
L 278.6266 208.8 
L 278.6266 185.184 
L 250.957178 185.184 
z
" clip-path="url(#p8d9ed290ad)" style="opacity: 0.25"/>
   </g>
   <g id="patch_10">
    <path d="M 278.626604 208.8 
L 306.296019 208.8 
L 306.296019 187.488 
L 278.626604 187.488 
z
" clip-path="url(#p8d9ed290ad)" style="opacity: 0.25"/>
   </g>
   <g id="patch_11">
    <path d="M 306.296011 208.8 
L 333.965434 208.8 
L 333.965434 198.432 
L 306.296011 198.432 
z
" clip-path="url(#p8d9ed290ad)" style="opacity: 0.25"/>
   </g>
   <g id="patch_12">
    <path d="M 333.965441 208.8 
L 361.634863 208.8 
L 361.634863 200.736 
L 333.965441 200.736 
z
" clip-path="url(#p8d9ed290ad)" style="opacity: 0.25"/>
   </g>
   <g id="patch_13">
    <path d="M 204.137452 208.8 
L 220.396509 208.8 
L 220.396509 207.648 
L 204.137452 207.648 
z
" clip-path="url(#p8d9ed290ad)" style="opacity: 0.5"/>
   </g>
   <g id="patch_14">
    <path d="M 220.396509 208.8 
L 236.655563 208.8 
L 236.655563 194.4 
L 220.396509 194.4 
z
" clip-path="url(#p8d9ed290ad)" style="opacity: 0.5"/>
   </g>
   <g id="patch_15">
    <path d="M 236.655564 208.8 
L 252.91462 208.8 
L 252.91462 77.472 
L 236.655564 77.472 
z
" clip-path="url(#p8d9ed290ad)" style="opacity: 0.5"/>
   </g>
   <g id="patch_16">
    <path d="M 252.914621 208.8 
L 269.173675 208.8 
L 269.173675 206.496 
L 252.914621 206.496 
z
" clip-path="url(#p8d9ed290ad)" style="opacity: 0.5"/>
   </g>
   <g id="patch_17">
    <path d="M 269.173676 208.8 
L 285.432731 208.8 
L 285.432731 208.224 
L 269.173676 208.224 
z
" clip-path="url(#p8d9ed290ad)" style="opacity: 0.5"/>
   </g>
   <g id="matplotlib.axis_1">
    <g id="xtick_1">
     <g id="line2d_1">
      <defs>
       <path id="mbd620af770" d="M 0 0 
L 0 3.5 
" style="stroke: #000000; stroke-width: 0.8"/>
      </defs>
      <g>
       <use xlink:href="#mbd620af770" x="119.498777" y="208.8" style="stroke: #000000; stroke-width: 0.8"/>
      </g>
     </g>
     <g id="text_1">
      <!-- −1.0 -->
      <g transform="translate(102.883933 229.156562)scale(0.18 -0.18)">
       <defs>
        <path id="Montserrat-Medium-2212" d="M 429 2490 
L 3296 2490 
L 3296 1984 
L 429 1984 
L 429 2490 
z
" transform="scale(0.015625)"/>
        <path id="Montserrat-Medium-31" d="M 1696 4480 
L 1696 0 
L 1062 0 
L 1062 3923 
L 51 3923 
L 51 4480 
L 1696 4480 
z
" transform="scale(0.015625)"/>
        <path id="Montserrat-Medium-2e" d="M 730 -38 
Q 550 -38 422 86 
Q 294 211 294 403 
Q 294 589 422 713 
Q 550 838 730 838 
Q 909 838 1030 716 
Q 1152 595 1152 403 
Q 1152 211 1027 86 
Q 902 -38 730 -38 
z
" transform="scale(0.015625)"/>
        <path id="Montserrat-Medium-30" d="M 2138 -51 
Q 1606 -51 1193 221 
Q 781 493 544 1011 
Q 307 1530 307 2240 
Q 307 2950 544 3468 
Q 781 3987 1193 4259 
Q 1606 4531 2138 4531 
Q 2662 4531 3075 4259 
Q 3488 3987 3725 3468 
Q 3962 2950 3962 2240 
Q 3962 1530 3725 1011 
Q 3488 493 3075 221 
Q 2662 -51 2138 -51 
z
M 2138 518 
Q 2675 518 2998 960 
Q 3322 1402 3322 2240 
Q 3322 3078 2998 3520 
Q 2675 3962 2138 3962 
Q 1594 3962 1270 3520 
Q 947 3078 947 2240 
Q 947 1402 1270 960 
Q 1594 518 2138 518 
z
" transform="scale(0.015625)"/>
       </defs>
       <use xlink:href="#Montserrat-Medium-2212"/>
       <use xlink:href="#Montserrat-Medium-31" x="58.199997"/>
       <use xlink:href="#Montserrat-Medium-2e" x="95.199982"/>
       <use xlink:href="#Montserrat-Medium-30" x="117.899979"/>
      </g>
     </g>
    </g>
    <g id="xtick_2">
     <g id="line2d_2">
      <g>
       <use xlink:href="#mbd620af770" x="180.515344" y="208.8" style="stroke: #000000; stroke-width: 0.8"/>
      </g>
     </g>
     <g id="text_2">
      <!-- −0.5 -->
      <g transform="translate(162.063937 229.156562)scale(0.18 -0.18)">
       <defs>
        <path id="Montserrat-Medium-35" d="M 1587 2694 
Q 2547 2694 2998 2332 
Q 3450 1971 3450 1344 
Q 3450 947 3261 630 
Q 3072 314 2691 131 
Q 2310 -51 1754 -51 
Q 1280 -51 838 93 
Q 397 237 109 493 
L 403 998 
Q 634 781 992 649 
Q 1350 518 1747 518 
Q 2253 518 2531 732 
Q 2810 947 2810 1318 
Q 2810 1722 2502 1930 
Q 2195 2138 1453 2138 
L 435 2138 
L 672 4480 
L 3200 4480 
L 3200 3923 
L 1210 3923 
L 1088 2694 
L 1587 2694 
z
" transform="scale(0.015625)"/>
       </defs>
       <use xlink:href="#Montserrat-Medium-2212"/>
       <use xlink:href="#Montserrat-Medium-30" x="58.199997"/>
       <use xlink:href="#Montserrat-Medium-2e" x="124.899994"/>
       <use xlink:href="#Montserrat-Medium-35" x="147.599991"/>
      </g>
     </g>
    </g>
    <g id="xtick_3">
     <g id="line2d_3">
      <g>
       <use xlink:href="#mbd620af770" x="241.531911" y="208.8" style="stroke: #000000; stroke-width: 0.8"/>
      </g>
     </g>
     <g id="text_3">
      <!-- 0.0 -->
      <g transform="translate(227.482067 229.156562)scale(0.18 -0.18)">
       <use xlink:href="#Montserrat-Medium-30"/>
       <use xlink:href="#Montserrat-Medium-2e" x="66.699997"/>
       <use xlink:href="#Montserrat-Medium-30" x="89.399994"/>
      </g>
     </g>
    </g>
    <g id="xtick_4">
     <g id="line2d_4">
      <g>
       <use xlink:href="#mbd620af770" x="302.548478" y="208.8" style="stroke: #000000; stroke-width: 0.8"/>
      </g>
     </g>
     <g id="text_4">
      <!-- 0.5 -->
      <g transform="translate(289.335353 229.156562)scale(0.18 -0.18)">
       <use xlink:href="#Montserrat-Medium-30"/>
       <use xlink:href="#Montserrat-Medium-2e" x="66.699997"/>
       <use xlink:href="#Montserrat-Medium-35" x="89.399994"/>
      </g>
     </g>
    </g>
    <g id="xtick_5">
     <g id="line2d_5">
      <g>
       <use xlink:href="#mbd620af770" x="363.565045" y="208.8" style="stroke: #000000; stroke-width: 0.8"/>
      </g>
     </g>
     <g id="text_5">
      <!-- 1.0 -->
      <g transform="translate(352.188483 229.156562)scale(0.18 -0.18)">
       <use xlink:href="#Montserrat-Medium-31"/>
       <use xlink:href="#Montserrat-Medium-2e" x="36.999985"/>
       <use xlink:href="#Montserrat-Medium-30" x="59.699982"/>
      </g>
     </g>
    </g>
   </g>
   <g id="matplotlib.axis_2">
    <g id="ytick_1">
     <g id="line2d_6">
      <defs>
       <path id="m2121ed77d8" d="M 0 0 
L -3.5 0 
" style="stroke: #000000; stroke-width: 0.8"/>
      </defs>
      <g>
       <use xlink:href="#m2121ed77d8" x="71.105938" y="208.8" style="stroke: #000000; stroke-width: 0.8"/>
      </g>
     </g>
     <g id="text_6">
      <!-- 0 -->
      <g transform="translate(52.099375 215.478281)scale(0.18 -0.18)">
       <use xlink:href="#Montserrat-Medium-30"/>
      </g>
     </g>
    </g>
    <g id="ytick_2">
     <g id="line2d_7">
      <g>
       <use xlink:href="#m2121ed77d8" x="71.105938" y="151.2" style="stroke: #000000; stroke-width: 0.8"/>
      </g>
     </g>
     <g id="text_7">
      <!-- 100 -->
      <g transform="translate(33.432813 157.878281)scale(0.18 -0.18)">
       <use xlink:href="#Montserrat-Medium-31"/>
       <use xlink:href="#Montserrat-Medium-30" x="36.999985"/>
       <use xlink:href="#Montserrat-Medium-30" x="103.699982"/>
      </g>
     </g>
    </g>
    <g id="ytick_3">
     <g id="line2d_8">
      <g>
       <use xlink:href="#m2121ed77d8" x="71.105938" y="93.6" style="stroke: #000000; stroke-width: 0.8"/>
      </g>
     </g>
     <g id="text_8">
      <!-- 200 -->
      <g transform="translate(29.759688 100.278281)scale(0.18 -0.18)">
       <defs>
        <path id="Montserrat-Medium-32" d="M 3456 557 
L 3456 0 
L 237 0 
L 237 435 
L 2061 2195 
Q 2394 2515 2509 2748 
Q 2624 2982 2624 3219 
Q 2624 3571 2377 3766 
Q 2131 3962 1670 3962 
Q 928 3962 525 3475 
L 90 3853 
Q 352 4173 777 4352 
Q 1203 4531 1728 4531 
Q 2432 4531 2848 4195 
Q 3264 3859 3264 3283 
Q 3264 2925 3110 2605 
Q 2957 2285 2528 1875 
L 1158 557 
L 3456 557 
z
" transform="scale(0.015625)"/>
       </defs>
       <use xlink:href="#Montserrat-Medium-32"/>
       <use xlink:href="#Montserrat-Medium-30" x="57.399994"/>
       <use xlink:href="#Montserrat-Medium-30" x="124.099991"/>
      </g>
     </g>
    </g>
    <g id="ytick_4">
     <g id="line2d_9">
      <g>
       <use xlink:href="#m2121ed77d8" x="71.105938" y="36" style="stroke: #000000; stroke-width: 0.8"/>
      </g>
     </g>
     <g id="text_9">
      <!-- 300 -->
      <g transform="translate(29.79625 42.678281)scale(0.18 -0.18)">
       <defs>
        <path id="Montserrat-Medium-33" d="M 2022 2598 
Q 2682 2534 3027 2192 
Q 3373 1850 3373 1318 
Q 3373 934 3181 624 
Q 2989 314 2608 131 
Q 2227 -51 1677 -51 
Q 1197 -51 755 93 
Q 314 237 32 493 
L 326 998 
Q 557 781 915 649 
Q 1274 518 1677 518 
Q 2176 518 2454 729 
Q 2733 941 2733 1312 
Q 2733 1683 2457 1888 
Q 2182 2093 1626 2093 
L 1267 2093 
L 1267 2541 
L 2394 3923 
L 237 3923 
L 237 4480 
L 3194 4480 
L 3194 4045 
L 2022 2598 
z
" transform="scale(0.015625)"/>
       </defs>
       <use xlink:href="#Montserrat-Medium-33"/>
       <use xlink:href="#Montserrat-Medium-30" x="57.199997"/>
       <use xlink:href="#Montserrat-Medium-30" x="123.899994"/>
      </g>
     </g>
    </g>
    <g id="text_10">
     <!-- Count -->
     <g transform="translate(22.266563 136.17)rotate(-90)scale(0.18 -0.18)">
      <defs>
       <path id="Montserrat-Medium-43" d="M 2675 -51 
Q 2003 -51 1462 246 
Q 922 544 614 1065 
Q 307 1587 307 2240 
Q 307 2893 614 3414 
Q 922 3936 1466 4233 
Q 2010 4531 2682 4531 
Q 3206 4531 3641 4355 
Q 4077 4179 4384 3834 
L 3968 3430 
Q 3462 3962 2707 3962 
Q 2208 3962 1805 3738 
Q 1402 3514 1174 3120 
Q 947 2726 947 2240 
Q 947 1754 1174 1360 
Q 1402 966 1805 742 
Q 2208 518 2707 518 
Q 3456 518 3968 1056 
L 4384 653 
Q 4077 307 3638 128 
Q 3200 -51 2675 -51 
z
" transform="scale(0.015625)"/>
       <path id="Montserrat-Medium-6f" d="M 2035 -38 
Q 1530 -38 1126 186 
Q 723 410 496 803 
Q 269 1197 269 1696 
Q 269 2195 496 2588 
Q 723 2982 1126 3203 
Q 1530 3424 2035 3424 
Q 2541 3424 2941 3203 
Q 3341 2982 3568 2588 
Q 3795 2195 3795 1696 
Q 3795 1197 3568 803 
Q 3341 410 2941 186 
Q 2541 -38 2035 -38 
z
M 2035 499 
Q 2362 499 2621 649 
Q 2880 800 3027 1072 
Q 3174 1344 3174 1696 
Q 3174 2048 3027 2320 
Q 2880 2592 2621 2739 
Q 2362 2886 2035 2886 
Q 1709 2886 1449 2739 
Q 1190 2592 1040 2320 
Q 890 2048 890 1696 
Q 890 1344 1040 1072 
Q 1190 800 1449 649 
Q 1709 499 2035 499 
z
" transform="scale(0.015625)"/>
       <path id="Montserrat-Medium-75" d="M 3744 3392 
L 3744 0 
L 3162 0 
L 3162 512 
Q 2976 250 2672 106 
Q 2368 -38 2010 -38 
Q 1331 -38 940 336 
Q 550 710 550 1440 
L 550 3392 
L 1165 3392 
L 1165 1510 
Q 1165 1018 1401 765 
Q 1638 512 2080 512 
Q 2566 512 2848 806 
Q 3130 1101 3130 1638 
L 3130 3392 
L 3744 3392 
z
" transform="scale(0.015625)"/>
       <path id="Montserrat-Medium-6e" d="M 2394 3424 
Q 3040 3424 3421 3049 
Q 3802 2675 3802 1952 
L 3802 0 
L 3187 0 
L 3187 1882 
Q 3187 2374 2950 2624 
Q 2714 2874 2272 2874 
Q 1773 2874 1485 2582 
Q 1197 2291 1197 1747 
L 1197 0 
L 582 0 
L 582 3392 
L 1171 3392 
L 1171 2880 
Q 1357 3142 1673 3283 
Q 1990 3424 2394 3424 
z
" transform="scale(0.015625)"/>
       <path id="Montserrat-Medium-74" d="M 2490 198 
Q 2355 83 2156 22 
Q 1958 -38 1747 -38 
Q 1235 -38 953 237 
Q 672 512 672 1024 
L 672 2886 
L 96 2886 
L 96 3392 
L 672 3392 
L 672 4134 
L 1286 4134 
L 1286 3392 
L 2259 3392 
L 2259 2886 
L 1286 2886 
L 1286 1050 
Q 1286 774 1424 627 
Q 1562 480 1818 480 
Q 2099 480 2298 640 
L 2490 198 
z
" transform="scale(0.015625)"/>
      </defs>
      <use xlink:href="#Montserrat-Medium-43"/>
      <use xlink:href="#Montserrat-Medium-6f" x="72.299988"/>
      <use xlink:href="#Montserrat-Medium-75" x="135.799973"/>
      <use xlink:href="#Montserrat-Medium-6e" x="203.499954"/>
      <use xlink:href="#Montserrat-Medium-74" x="271.599945"/>
     </g>
    </g>
   </g>
   <g id="patch_18">
    <path d="M 71.105938 208.8 
L 71.105938 7.2 
" style="fill: none; stroke: #000000; stroke-width: 0.8; stroke-linejoin: miter; stroke-linecap: square"/>
   </g>
   <g id="patch_19">
    <path d="M 375.469574 208.8 
L 375.469574 7.2 
" style="fill: none; stroke: #000000; stroke-width: 0.8; stroke-linejoin: miter; stroke-linecap: square"/>
   </g>
   <g id="patch_20">
    <path d="M 71.105938 208.8 
L 375.469574 208.8 
" style="fill: none; stroke: #000000; stroke-width: 0.8; stroke-linejoin: miter; stroke-linecap: square"/>
   </g>
   <g id="patch_21">
    <path d="M 71.105938 7.2 
L 375.469574 7.2 
" style="fill: none; stroke: #000000; stroke-width: 0.8; stroke-linejoin: miter; stroke-linecap: square"/>
   </g>
   <g id="text_11">
    <!-- Layer 1 -->
    <g transform="translate(119.498777 122.4)scale(0.18 -0.18)">
     <defs>
      <path id="Montserrat-Medium-4c" d="M 672 4480 
L 1312 4480 
L 1312 557 
L 3738 557 
L 3738 0 
L 672 0 
L 672 4480 
z
" transform="scale(0.015625)"/>
      <path id="Montserrat-Medium-61" d="M 1818 3424 
Q 2522 3424 2896 3078 
Q 3270 2733 3270 2048 
L 3270 0 
L 2688 0 
L 2688 448 
Q 2534 211 2249 86 
Q 1965 -38 1574 -38 
Q 1005 -38 662 237 
Q 320 512 320 960 
Q 320 1408 646 1680 
Q 973 1952 1683 1952 
L 2656 1952 
L 2656 2074 
Q 2656 2470 2425 2681 
Q 2195 2893 1747 2893 
Q 1446 2893 1158 2793 
Q 870 2694 672 2528 
L 416 2989 
Q 678 3200 1043 3312 
Q 1408 3424 1818 3424 
z
M 1677 435 
Q 2029 435 2285 592 
Q 2541 749 2656 1037 
L 2656 1510 
L 1709 1510 
Q 928 1510 928 986 
Q 928 730 1126 582 
Q 1325 435 1677 435 
z
" transform="scale(0.015625)"/>
      <path id="Montserrat-Medium-79" d="M 3584 3392 
L 1939 -339 
Q 1722 -858 1430 -1069 
Q 1139 -1280 730 -1280 
Q 480 -1280 246 -1200 
Q 13 -1120 -141 -966 
L 122 -506 
Q 384 -755 730 -755 
Q 954 -755 1104 -636 
Q 1254 -518 1376 -230 
L 1485 6 
L -13 3392 
L 627 3392 
L 1811 678 
L 2982 3392 
L 3584 3392 
z
" transform="scale(0.015625)"/>
      <path id="Montserrat-Medium-65" d="M 3648 1677 
Q 3648 1606 3635 1491 
L 883 1491 
Q 941 1043 1277 771 
Q 1613 499 2112 499 
Q 2720 499 3091 909 
L 3430 512 
Q 3200 243 2857 102 
Q 2515 -38 2093 -38 
Q 1555 -38 1139 182 
Q 723 403 496 800 
Q 269 1197 269 1696 
Q 269 2189 489 2585 
Q 710 2982 1097 3203 
Q 1485 3424 1971 3424 
Q 2458 3424 2838 3203 
Q 3219 2982 3433 2585 
Q 3648 2189 3648 1677 
z
M 1971 2906 
Q 1530 2906 1232 2637 
Q 934 2368 883 1933 
L 3059 1933 
Q 3008 2362 2710 2634 
Q 2413 2906 1971 2906 
z
" transform="scale(0.015625)"/>
      <path id="Montserrat-Medium-72" d="M 1171 2822 
Q 1331 3117 1644 3270 
Q 1958 3424 2406 3424 
L 2406 2829 
Q 2355 2835 2266 2835 
Q 1766 2835 1481 2537 
Q 1197 2240 1197 1690 
L 1197 0 
L 582 0 
L 582 3392 
L 1171 3392 
L 1171 2822 
z
" transform="scale(0.015625)"/>
      <path id="Montserrat-Medium-20" transform="scale(0.015625)"/>
     </defs>
     <use xlink:href="#Montserrat-Medium-4c"/>
     <use xlink:href="#Montserrat-Medium-61" x="59.399994"/>
     <use xlink:href="#Montserrat-Medium-79" x="119.199982"/>
     <use xlink:href="#Montserrat-Medium-65" x="175.099976"/>
     <use xlink:href="#Montserrat-Medium-72" x="236.299973"/>
     <use xlink:href="#Montserrat-Medium-20" x="277.299957"/>
     <use xlink:href="#Montserrat-Medium-31" x="304.199951"/>
    </g>
   </g>
  </g>
  <g id="axes_2">
   <g id="patch_22">
    <path d="M 436.342301 208.8 
L 740.705937 208.8 
L 740.705937 7.2 
L 436.342301 7.2 
z
" style="fill: #f1f7f0"/>
   </g>
   <g id="patch_23">
    <path d="M 450.177012 208.8 
L 477.846432 208.8 
L 477.846432 207.072 
L 450.177012 207.072 
z
" clip-path="url(#pfe4c9a1a06)" style="opacity: 0.25"/>
   </g>
   <g id="patch_24">
    <path d="M 477.846432 208.8 
L 505.515853 208.8 
L 505.515853 206.496 
L 477.846432 206.496 
z
" clip-path="url(#pfe4c9a1a06)" style="opacity: 0.25"/>
   </g>
   <g id="patch_25">
    <path d="M 505.515853 208.8 
L 533.185284 208.8 
L 533.185284 201.888 
L 505.515853 201.888 
z
" clip-path="url(#pfe4c9a1a06)" style="opacity: 0.25"/>
   </g>
   <g id="patch_26">
    <path d="M 533.185279 208.8 
L 560.854699 208.8 
L 560.854699 186.336 
L 533.185279 186.336 
z
" clip-path="url(#pfe4c9a1a06)" style="opacity: 0.25"/>
   </g>
   <g id="patch_27">
    <path d="M 560.854699 208.8 
L 588.524119 208.8 
L 588.524119 169.632 
L 560.854699 169.632 
z
" clip-path="url(#pfe4c9a1a06)" style="opacity: 0.25"/>
   </g>
   <g id="patch_28">
    <path d="M 588.524119 208.8 
L 616.19354 208.8 
L 616.19354 148.32 
L 588.524119 148.32 
z
" clip-path="url(#pfe4c9a1a06)" style="opacity: 0.25"/>
   </g>
   <g id="patch_29">
    <path d="M 616.193541 208.8 
L 643.86296 208.8 
L 643.86296 158.112 
L 616.193541 158.112 
z
" clip-path="url(#pfe4c9a1a06)" style="opacity: 0.25"/>
   </g>
   <g id="patch_30">
    <path d="M 643.862966 208.8 
L 671.532386 208.8 
L 671.532386 173.088 
L 643.862966 173.088 
z
" clip-path="url(#pfe4c9a1a06)" style="opacity: 0.25"/>
   </g>
   <g id="patch_31">
    <path d="M 671.532386 208.8 
L 699.201806 208.8 
L 699.201806 199.008 
L 671.532386 199.008 
z
" clip-path="url(#pfe4c9a1a06)" style="opacity: 0.25"/>
   </g>
   <g id="patch_32">
    <path d="M 699.201806 208.8 
L 726.871227 208.8 
L 726.871227 207.648 
L 699.201806 207.648 
z
" clip-path="url(#pfe4c9a1a06)" style="opacity: 0.25"/>
   </g>
   <g id="patch_33">
    <path d="M 593.005499 208.8 
L 602.394809 208.8 
L 602.394809 204.192 
L 593.005499 204.192 
z
" clip-path="url(#pfe4c9a1a06)" style="opacity: 0.5"/>
   </g>
   <g id="patch_34">
    <path d="M 602.394809 208.8 
L 611.784119 208.8 
L 611.784119 0.864 
L 602.394809 0.864 
z
" clip-path="url(#pfe4c9a1a06)" style="opacity: 0.5"/>
   </g>
   <g id="patch_35">
    <path d="M 611.784119 208.8 
L 621.173428 208.8 
L 621.173428 194.4 
L 611.784119 194.4 
z
" clip-path="url(#pfe4c9a1a06)" style="opacity: 0.5"/>
   </g>
   <g id="patch_36">
    <path d="M 621.173431 208.8 
L 630.562742 208.8 
L 630.562742 206.496 
L 621.173431 206.496 
z
" clip-path="url(#pfe4c9a1a06)" style="opacity: 0.5"/>
   </g>
   <g id="patch_37">
    <path d="M 630.562742 208.8 
L 639.952053 208.8 
L 639.952053 207.648 
L 630.562742 207.648 
z
" clip-path="url(#pfe4c9a1a06)" style="opacity: 0.5"/>
   </g>
   <g id="matplotlib.axis_3">
    <g id="xtick_6">
     <g id="line2d_10">
      <g>
       <use xlink:href="#mbd620af770" x="515.581595" y="208.8" style="stroke: #000000; stroke-width: 0.8"/>
      </g>
     </g>
     <g id="text_12">
      <!-- −1 -->
      <g transform="translate(507.013314 229.156562)scale(0.18 -0.18)">
       <use xlink:href="#Montserrat-Medium-2212"/>
       <use xlink:href="#Montserrat-Medium-31" x="58.199997"/>
      </g>
     </g>
    </g>
    <g id="xtick_7">
     <g id="line2d_11">
      <g>
       <use xlink:href="#mbd620af770" x="607.296958" y="208.8" style="stroke: #000000; stroke-width: 0.8"/>
      </g>
     </g>
     <g id="text_13">
      <!-- 0 -->
      <g transform="translate(601.293677 229.156562)scale(0.18 -0.18)">
       <use xlink:href="#Montserrat-Medium-30"/>
      </g>
     </g>
    </g>
    <g id="xtick_8">
     <g id="line2d_12">
      <g>
       <use xlink:href="#mbd620af770" x="699.012321" y="208.8" style="stroke: #000000; stroke-width: 0.8"/>
      </g>
     </g>
     <g id="text_14">
      <!-- 1 -->
      <g transform="translate(695.682321 229.156562)scale(0.18 -0.18)">
       <use xlink:href="#Montserrat-Medium-31"/>
      </g>
     </g>
    </g>
   </g>
   <g id="matplotlib.axis_4">
    <g id="ytick_5">
     <g id="line2d_13">
      <g>
       <use xlink:href="#m2121ed77d8" x="436.342301" y="208.8" style="stroke: #000000; stroke-width: 0.8"/>
      </g>
     </g>
     <g id="text_15">
      <!-- 0 -->
      <g transform="translate(417.335739 215.478281)scale(0.18 -0.18)">
       <use xlink:href="#Montserrat-Medium-30"/>
      </g>
     </g>
    </g>
    <g id="ytick_6">
     <g id="line2d_14">
      <g>
       <use xlink:href="#m2121ed77d8" x="436.342301" y="151.2" style="stroke: #000000; stroke-width: 0.8"/>
      </g>
     </g>
     <g id="text_16">
      <!-- 100 -->
      <g transform="translate(398.669176 157.878281)scale(0.18 -0.18)">
       <use xlink:href="#Montserrat-Medium-31"/>
       <use xlink:href="#Montserrat-Medium-30" x="36.999985"/>
       <use xlink:href="#Montserrat-Medium-30" x="103.699982"/>
      </g>
     </g>
    </g>
    <g id="ytick_7">
     <g id="line2d_15">
      <g>
       <use xlink:href="#m2121ed77d8" x="436.342301" y="93.6" style="stroke: #000000; stroke-width: 0.8"/>
      </g>
     </g>
     <g id="text_17">
      <!-- 200 -->
      <g transform="translate(394.996051 100.278281)scale(0.18 -0.18)">
       <use xlink:href="#Montserrat-Medium-32"/>
       <use xlink:href="#Montserrat-Medium-30" x="57.399994"/>
       <use xlink:href="#Montserrat-Medium-30" x="124.099991"/>
      </g>
     </g>
    </g>
    <g id="ytick_8">
     <g id="line2d_16">
      <g>
       <use xlink:href="#m2121ed77d8" x="436.342301" y="36" style="stroke: #000000; stroke-width: 0.8"/>
      </g>
     </g>
     <g id="text_18">
      <!-- 300 -->
      <g transform="translate(395.032614 42.678281)scale(0.18 -0.18)">
       <use xlink:href="#Montserrat-Medium-33"/>
       <use xlink:href="#Montserrat-Medium-30" x="57.199997"/>
       <use xlink:href="#Montserrat-Medium-30" x="123.899994"/>
      </g>
     </g>
    </g>
   </g>
   <g id="patch_38">
    <path d="M 436.342301 208.8 
L 436.342301 7.2 
" style="fill: none; stroke: #000000; stroke-width: 0.8; stroke-linejoin: miter; stroke-linecap: square"/>
   </g>
   <g id="patch_39">
    <path d="M 740.705937 208.8 
L 740.705937 7.2 
" style="fill: none; stroke: #000000; stroke-width: 0.8; stroke-linejoin: miter; stroke-linecap: square"/>
   </g>
   <g id="patch_40">
    <path d="M 436.342301 208.8 
L 740.705937 208.8 
" style="fill: none; stroke: #000000; stroke-width: 0.8; stroke-linejoin: miter; stroke-linecap: square"/>
   </g>
   <g id="patch_41">
    <path d="M 436.342301 7.2 
L 740.705937 7.2 
" style="fill: none; stroke: #000000; stroke-width: 0.8; stroke-linejoin: miter; stroke-linecap: square"/>
   </g>
   <g id="text_19">
    <!-- Layer 2 -->
    <g transform="translate(492.652754 122.4)scale(0.18 -0.18)">
     <use xlink:href="#Montserrat-Medium-4c"/>
     <use xlink:href="#Montserrat-Medium-61" x="59.399994"/>
     <use xlink:href="#Montserrat-Medium-79" x="119.199982"/>
     <use xlink:href="#Montserrat-Medium-65" x="175.099976"/>
     <use xlink:href="#Montserrat-Medium-72" x="236.299973"/>
     <use xlink:href="#Montserrat-Medium-20" x="277.299957"/>
     <use xlink:href="#Montserrat-Medium-32" x="304.199951"/>
    </g>
   </g>
  </g>
  <g id="axes_3">
   <g id="patch_42">
    <path d="M 71.105938 450.72 
L 375.469574 450.72 
L 375.469574 249.12 
L 71.105938 249.12 
z
" style="fill: #f1f7f0"/>
   </g>
   <g id="patch_43">
    <path d="M 84.940648 450.72 
L 112.610077 450.72 
L 112.610077 449.208 
L 84.940648 449.208 
z
" clip-path="url(#pb6be13a799)" style="opacity: 0.25"/>
   </g>
   <g id="patch_44">
    <path d="M 112.610077 450.72 
L 140.279491 450.72 
L 140.279491 448.704 
L 112.610077 448.704 
z
" clip-path="url(#pb6be13a799)" style="opacity: 0.25"/>
   </g>
   <g id="patch_45">
    <path d="M 140.279491 450.72 
L 167.94892 450.72 
L 167.94892 449.712 
L 140.279491 449.712 
z
" clip-path="url(#pb6be13a799)" style="opacity: 0.25"/>
   </g>
   <g id="patch_46">
    <path d="M 167.948906 450.72 
L 195.618334 450.72 
L 195.618334 447.696 
L 167.948906 447.696 
z
" clip-path="url(#pb6be13a799)" style="opacity: 0.25"/>
   </g>
   <g id="patch_47">
    <path d="M 195.618334 450.72 
L 223.287763 450.72 
L 223.287763 434.088 
L 195.618334 434.088 
z
" clip-path="url(#pb6be13a799)" style="opacity: 0.25"/>
   </g>
   <g id="patch_48">
    <path d="M 223.287752 450.72 
L 250.957181 450.72 
L 250.957181 402.336 
L 223.287752 402.336 
z
" clip-path="url(#pb6be13a799)" style="opacity: 0.25"/>
   </g>
   <g id="patch_49">
    <path d="M 250.957174 450.72 
L 278.626602 450.72 
L 278.626602 376.632 
L 250.957174 376.632 
z
" clip-path="url(#pb6be13a799)" style="opacity: 0.25"/>
   </g>
   <g id="patch_50">
    <path d="M 278.626595 450.72 
L 306.296024 450.72 
L 306.296024 408.888 
L 278.626595 408.888 
z
" clip-path="url(#pb6be13a799)" style="opacity: 0.25"/>
   </g>
   <g id="patch_51">
    <path d="M 306.29602 450.72 
L 333.965449 450.72 
L 333.965449 441.144 
L 306.29602 441.144 
z
" clip-path="url(#pb6be13a799)" style="opacity: 0.25"/>
   </g>
   <g id="patch_52">
    <path d="M 333.965435 450.72 
L 361.634863 450.72 
L 361.634863 447.192 
L 333.965435 447.192 
z
" clip-path="url(#pb6be13a799)" style="opacity: 0.25"/>
   </g>
   <g id="patch_53">
    <path d="M 248.073531 450.72 
L 255.124477 450.72 
L 255.124477 448.2 
L 248.073531 448.2 
z
" clip-path="url(#pb6be13a799)" style="opacity: 0.5"/>
   </g>
   <g id="patch_54">
    <path d="M 255.124477 450.72 
L 262.175423 450.72 
L 262.175423 260.208 
L 255.124477 260.208 
z
" clip-path="url(#pb6be13a799)" style="opacity: 0.5"/>
   </g>
   <g id="patch_55">
    <path d="M 262.175423 450.72 
L 269.226368 450.72 
L 269.226368 444.672 
L 262.175423 444.672 
z
" clip-path="url(#pb6be13a799)" style="opacity: 0.5"/>
   </g>
   <g id="patch_56">
    <path d="M 269.226368 450.72 
L 276.277315 450.72 
L 276.277315 449.208 
L 269.226368 449.208 
z
" clip-path="url(#pb6be13a799)" style="opacity: 0.5"/>
   </g>
   <g id="patch_57">
    <path d="M 276.277315 450.72 
L 283.32826 450.72 
L 283.32826 449.712 
L 276.277315 449.712 
z
" clip-path="url(#pb6be13a799)" style="opacity: 0.5"/>
   </g>
   <g id="matplotlib.axis_5">
    <g id="xtick_9">
     <g id="line2d_17">
      <g>
       <use xlink:href="#mbd620af770" x="139.523981" y="450.72" style="stroke: #000000; stroke-width: 0.8"/>
      </g>
     </g>
     <g id="text_20">
      <!-- −2 -->
      <g transform="translate(129.119137 471.076562)scale(0.18 -0.18)">
       <use xlink:href="#Montserrat-Medium-2212"/>
       <use xlink:href="#Montserrat-Medium-32" x="58.199997"/>
      </g>
     </g>
    </g>
    <g id="xtick_10">
     <g id="line2d_18">
      <g>
       <use xlink:href="#mbd620af770" x="258.803534" y="450.72" style="stroke: #000000; stroke-width: 0.8"/>
      </g>
     </g>
     <g id="text_21">
      <!-- 0 -->
      <g transform="translate(252.800252 471.076562)scale(0.18 -0.18)">
       <use xlink:href="#Montserrat-Medium-30"/>
      </g>
     </g>
    </g>
    <g id="text_22">
     <!-- Weights -->
     <g transform="translate(184.561037 492.19625)scale(0.18 -0.18)">
      <defs>
       <path id="Montserrat-Medium-57" d="M 7002 4480 
L 5504 0 
L 4832 0 
L 3610 3578 
L 2387 0 
L 1702 0 
L 205 4480 
L 864 4480 
L 2074 838 
L 3334 4480 
L 3923 4480 
L 5158 819 
L 6394 4480 
L 7002 4480 
z
" transform="scale(0.015625)"/>
       <path id="Montserrat-Medium-69" d="M 582 3392 
L 1197 3392 
L 1197 0 
L 582 0 
L 582 3392 
z
M 890 4045 
Q 710 4045 592 4160 
Q 474 4275 474 4442 
Q 474 4608 592 4726 
Q 710 4845 890 4845 
Q 1069 4845 1187 4733 
Q 1306 4621 1306 4454 
Q 1306 4282 1187 4163 
Q 1069 4045 890 4045 
z
" transform="scale(0.015625)"/>
       <path id="Montserrat-Medium-67" d="M 3827 3392 
L 3827 461 
Q 3827 -429 3385 -854 
Q 2944 -1280 2067 -1280 
Q 1587 -1280 1152 -1149 
Q 717 -1018 448 -774 
L 742 -301 
Q 979 -506 1328 -624 
Q 1677 -742 2048 -742 
Q 2643 -742 2928 -460 
Q 3213 -179 3213 397 
L 3213 666 
Q 2995 403 2678 272 
Q 2362 141 1990 141 
Q 1504 141 1110 349 
Q 717 557 493 931 
Q 269 1306 269 1786 
Q 269 2266 493 2640 
Q 717 3014 1110 3219 
Q 1504 3424 1990 3424 
Q 2374 3424 2704 3283 
Q 3034 3142 3245 2867 
L 3245 3392 
L 3827 3392 
z
M 2061 678 
Q 2394 678 2659 819 
Q 2925 960 3075 1213 
Q 3226 1466 3226 1786 
Q 3226 2278 2899 2582 
Q 2573 2886 2061 2886 
Q 1542 2886 1216 2582 
Q 890 2278 890 1786 
Q 890 1466 1040 1213 
Q 1190 960 1456 819 
Q 1722 678 2061 678 
z
" transform="scale(0.015625)"/>
       <path id="Montserrat-Medium-68" d="M 2394 3424 
Q 3040 3424 3421 3049 
Q 3802 2675 3802 1952 
L 3802 0 
L 3187 0 
L 3187 1882 
Q 3187 2374 2950 2624 
Q 2714 2874 2272 2874 
Q 1773 2874 1485 2582 
Q 1197 2291 1197 1747 
L 1197 0 
L 582 0 
L 582 4749 
L 1197 4749 
L 1197 2912 
Q 1389 3155 1699 3289 
Q 2010 3424 2394 3424 
z
" transform="scale(0.015625)"/>
       <path id="Montserrat-Medium-73" d="M 1555 -38 
Q 1139 -38 755 74 
Q 371 186 154 358 
L 410 845 
Q 634 685 954 589 
Q 1274 493 1600 493 
Q 2406 493 2406 954 
Q 2406 1107 2297 1196 
Q 2189 1286 2025 1328 
Q 1862 1370 1562 1421 
Q 1152 1485 893 1568 
Q 634 1651 448 1849 
Q 262 2048 262 2406 
Q 262 2867 646 3145 
Q 1030 3424 1677 3424 
Q 2016 3424 2355 3341 
Q 2694 3258 2912 3117 
L 2650 2630 
Q 2234 2899 1670 2899 
Q 1280 2899 1075 2771 
Q 870 2643 870 2432 
Q 870 2266 985 2170 
Q 1101 2074 1270 2029 
Q 1440 1984 1747 1926 
Q 2157 1856 2409 1776 
Q 2662 1696 2841 1504 
Q 3021 1312 3021 966 
Q 3021 506 2627 234 
Q 2234 -38 1555 -38 
z
" transform="scale(0.015625)"/>
      </defs>
      <use xlink:href="#Montserrat-Medium-57"/>
      <use xlink:href="#Montserrat-Medium-65" x="112.599991"/>
      <use xlink:href="#Montserrat-Medium-69" x="173.799988"/>
      <use xlink:href="#Montserrat-Medium-67" x="201.699982"/>
      <use xlink:href="#Montserrat-Medium-68" x="270.699966"/>
      <use xlink:href="#Montserrat-Medium-74" x="338.799957"/>
      <use xlink:href="#Montserrat-Medium-73" x="380.199951"/>
     </g>
    </g>
   </g>
   <g id="matplotlib.axis_6">
    <g id="ytick_9">
     <g id="line2d_19">
      <g>
       <use xlink:href="#m2121ed77d8" x="71.105938" y="450.72" style="stroke: #000000; stroke-width: 0.8"/>
      </g>
     </g>
     <g id="text_23">
      <!-- 0 -->
      <g transform="translate(52.099375 457.398281)scale(0.18 -0.18)">
       <use xlink:href="#Montserrat-Medium-30"/>
      </g>
     </g>
    </g>
    <g id="ytick_10">
     <g id="line2d_20">
      <g>
       <use xlink:href="#m2121ed77d8" x="71.105938" y="400.32" style="stroke: #000000; stroke-width: 0.8"/>
      </g>
     </g>
     <g id="text_24">
      <!-- 100 -->
      <g transform="translate(33.432813 406.998281)scale(0.18 -0.18)">
       <use xlink:href="#Montserrat-Medium-31"/>
       <use xlink:href="#Montserrat-Medium-30" x="36.999985"/>
       <use xlink:href="#Montserrat-Medium-30" x="103.699982"/>
      </g>
     </g>
    </g>
    <g id="ytick_11">
     <g id="line2d_21">
      <g>
       <use xlink:href="#m2121ed77d8" x="71.105938" y="349.92" style="stroke: #000000; stroke-width: 0.8"/>
      </g>
     </g>
     <g id="text_25">
      <!-- 200 -->
      <g transform="translate(29.759688 356.598281)scale(0.18 -0.18)">
       <use xlink:href="#Montserrat-Medium-32"/>
       <use xlink:href="#Montserrat-Medium-30" x="57.399994"/>
       <use xlink:href="#Montserrat-Medium-30" x="124.099991"/>
      </g>
     </g>
    </g>
    <g id="ytick_12">
     <g id="line2d_22">
      <g>
       <use xlink:href="#m2121ed77d8" x="71.105938" y="299.52" style="stroke: #000000; stroke-width: 0.8"/>
      </g>
     </g>
     <g id="text_26">
      <!-- 300 -->
      <g transform="translate(29.79625 306.198281)scale(0.18 -0.18)">
       <use xlink:href="#Montserrat-Medium-33"/>
       <use xlink:href="#Montserrat-Medium-30" x="57.199997"/>
       <use xlink:href="#Montserrat-Medium-30" x="123.899994"/>
      </g>
     </g>
    </g>
    <g id="ytick_13">
     <g id="line2d_23">
      <g>
       <use xlink:href="#m2121ed77d8" x="71.105938" y="249.12" style="stroke: #000000; stroke-width: 0.8"/>
      </g>
     </g>
     <g id="text_27">
      <!-- 400 -->
      <g transform="translate(28.049688 255.798281)scale(0.18 -0.18)">
       <defs>
        <path id="Montserrat-Medium-34" d="M 4205 1101 
L 3354 1101 
L 3354 0 
L 2733 0 
L 2733 1101 
L 243 1101 
L 243 1549 
L 2534 4480 
L 3226 4480 
L 1030 1651 
L 2752 1651 
L 2752 2624 
L 3354 2624 
L 3354 1651 
L 4205 1651 
L 4205 1101 
z
" transform="scale(0.015625)"/>
       </defs>
       <use xlink:href="#Montserrat-Medium-34"/>
       <use xlink:href="#Montserrat-Medium-30" x="66.899994"/>
       <use xlink:href="#Montserrat-Medium-30" x="133.599991"/>
      </g>
     </g>
    </g>
    <g id="text_28">
     <!-- Count -->
     <g transform="translate(20.556563 378.09)rotate(-90)scale(0.18 -0.18)">
      <use xlink:href="#Montserrat-Medium-43"/>
      <use xlink:href="#Montserrat-Medium-6f" x="72.299988"/>
      <use xlink:href="#Montserrat-Medium-75" x="135.799973"/>
      <use xlink:href="#Montserrat-Medium-6e" x="203.499954"/>
      <use xlink:href="#Montserrat-Medium-74" x="271.599945"/>
     </g>
    </g>
   </g>
   <g id="patch_58">
    <path d="M 71.105938 450.72 
L 71.105938 249.12 
" style="fill: none; stroke: #000000; stroke-width: 0.8; stroke-linejoin: miter; stroke-linecap: square"/>
   </g>
   <g id="patch_59">
    <path d="M 375.469574 450.72 
L 375.469574 249.12 
" style="fill: none; stroke: #000000; stroke-width: 0.8; stroke-linejoin: miter; stroke-linecap: square"/>
   </g>
   <g id="patch_60">
    <path d="M 71.105938 450.72 
L 375.469574 450.72 
" style="fill: none; stroke: #000000; stroke-width: 0.8; stroke-linejoin: miter; stroke-linecap: square"/>
   </g>
   <g id="patch_61">
    <path d="M 71.105938 249.12 
L 375.469574 249.12 
" style="fill: none; stroke: #000000; stroke-width: 0.8; stroke-linejoin: miter; stroke-linecap: square"/>
   </g>
   <g id="text_29">
    <!-- Layer 3 -->
    <g transform="translate(121.632048 375.12)scale(0.18 -0.18)">
     <use xlink:href="#Montserrat-Medium-4c"/>
     <use xlink:href="#Montserrat-Medium-61" x="59.399994"/>
     <use xlink:href="#Montserrat-Medium-79" x="119.199982"/>
     <use xlink:href="#Montserrat-Medium-65" x="175.099976"/>
     <use xlink:href="#Montserrat-Medium-72" x="236.299973"/>
     <use xlink:href="#Montserrat-Medium-20" x="277.299957"/>
     <use xlink:href="#Montserrat-Medium-33" x="304.199951"/>
    </g>
   </g>
  </g>
  <g id="axes_4">
   <g id="patch_62">
    <path d="M 436.342301 450.72 
L 740.705937 450.72 
L 740.705937 249.12 
L 436.342301 249.12 
z
" style="fill: #f1f7f0"/>
   </g>
   <g id="patch_63">
    <path d="M 450.177012 450.72 
L 477.846435 450.72 
L 477.846435 449.208 
L 450.177012 449.208 
z
" clip-path="url(#p9d4468e883)" style="opacity: 0.25"/>
   </g>
   <g id="patch_64">
    <path d="M 477.846435 450.72 
L 505.515859 450.72 
L 505.515859 450.216 
L 477.846435 450.216 
z
" clip-path="url(#p9d4468e883)" style="opacity: 0.25"/>
   </g>
   <g id="patch_65">
    <path d="M 505.515859 450.72 
L 533.185283 450.72 
L 533.185283 450.216 
L 505.515859 450.216 
z
" clip-path="url(#p9d4468e883)" style="opacity: 0.25"/>
   </g>
   <g id="patch_66">
    <path d="M 533.185277 450.72 
L 560.854701 450.72 
L 560.854701 443.664 
L 533.185277 443.664 
z
" clip-path="url(#p9d4468e883)" style="opacity: 0.25"/>
   </g>
   <g id="patch_67">
    <path d="M 560.854696 450.72 
L 588.524119 450.72 
L 588.524119 413.424 
L 560.854696 413.424 
z
" clip-path="url(#p9d4468e883)" style="opacity: 0.25"/>
   </g>
   <g id="patch_68">
    <path d="M 588.524118 450.72 
L 616.193542 450.72 
L 616.193542 360 
L 588.524118 360 
z
" clip-path="url(#p9d4468e883)" style="opacity: 0.25"/>
   </g>
   <g id="patch_69">
    <path d="M 616.193538 450.72 
L 643.862961 450.72 
L 643.862961 398.304 
L 616.193538 398.304 
z
" clip-path="url(#p9d4468e883)" style="opacity: 0.25"/>
   </g>
   <g id="patch_70">
    <path d="M 643.862961 450.72 
L 671.532385 450.72 
L 671.532385 443.16 
L 643.862961 443.16 
z
" clip-path="url(#p9d4468e883)" style="opacity: 0.25"/>
   </g>
   <g id="patch_71">
    <path d="M 671.53238 450.72 
L 699.201803 450.72 
L 699.201803 447.696 
L 671.53238 447.696 
z
" clip-path="url(#p9d4468e883)" style="opacity: 0.25"/>
   </g>
   <g id="patch_72">
    <path d="M 699.201803 450.72 
L 726.871227 450.72 
L 726.871227 449.712 
L 699.201803 449.712 
z
" clip-path="url(#p9d4468e883)" style="opacity: 0.25"/>
   </g>
   <g id="patch_73">
    <path d="M 599.405114 450.72 
L 602.573356 450.72 
L 602.573356 274.32 
L 599.405114 274.32 
z
" clip-path="url(#p9d4468e883)" style="opacity: 0.5"/>
   </g>
   <g id="patch_74">
    <path d="M 602.573355 450.72 
L 605.741597 450.72 
L 605.741597 436.104 
L 602.573355 436.104 
z
" clip-path="url(#p9d4468e883)" style="opacity: 0.5"/>
   </g>
   <g id="patch_75">
    <path d="M 605.741597 450.72 
L 608.909839 450.72 
L 608.909839 444.672 
L 605.741597 444.672 
z
" clip-path="url(#p9d4468e883)" style="opacity: 0.5"/>
   </g>
   <g id="patch_76">
    <path d="M 608.909839 450.72 
L 612.078081 450.72 
L 612.078081 448.2 
L 608.909839 448.2 
z
" clip-path="url(#p9d4468e883)" style="opacity: 0.5"/>
   </g>
   <g id="patch_77">
    <path d="M 612.078081 450.72 
L 615.246324 450.72 
L 615.246324 448.704 
L 612.078081 448.704 
z
" clip-path="url(#p9d4468e883)" style="opacity: 0.5"/>
   </g>
   <g id="matplotlib.axis_7">
    <g id="xtick_11">
     <g id="line2d_24">
      <g>
       <use xlink:href="#mbd620af770" x="512.691997" y="450.72" style="stroke: #000000; stroke-width: 0.8"/>
      </g>
     </g>
     <g id="text_30">
      <!-- −2 -->
      <g transform="translate(502.287153 471.076562)scale(0.18 -0.18)">
       <use xlink:href="#Montserrat-Medium-2212"/>
       <use xlink:href="#Montserrat-Medium-32" x="58.199997"/>
      </g>
     </g>
    </g>
    <g id="xtick_12">
     <g id="line2d_25">
      <g>
       <use xlink:href="#mbd620af770" x="602.075877" y="450.72" style="stroke: #000000; stroke-width: 0.8"/>
      </g>
     </g>
     <g id="text_31">
      <!-- 0 -->
      <g transform="translate(596.072596 471.076562)scale(0.18 -0.18)">
       <use xlink:href="#Montserrat-Medium-30"/>
      </g>
     </g>
    </g>
    <g id="xtick_13">
     <g id="line2d_26">
      <g>
       <use xlink:href="#mbd620af770" x="691.459757" y="450.72" style="stroke: #000000; stroke-width: 0.8"/>
      </g>
     </g>
     <g id="text_32">
      <!-- 2 -->
      <g transform="translate(686.293195 471.076562)scale(0.18 -0.18)">
       <use xlink:href="#Montserrat-Medium-32"/>
      </g>
     </g>
    </g>
    <g id="text_33">
     <!-- Weights -->
     <g transform="translate(549.797401 492.19625)scale(0.18 -0.18)">
      <use xlink:href="#Montserrat-Medium-57"/>
      <use xlink:href="#Montserrat-Medium-65" x="112.599991"/>
      <use xlink:href="#Montserrat-Medium-69" x="173.799988"/>
      <use xlink:href="#Montserrat-Medium-67" x="201.699982"/>
      <use xlink:href="#Montserrat-Medium-68" x="270.699966"/>
      <use xlink:href="#Montserrat-Medium-74" x="338.799957"/>
      <use xlink:href="#Montserrat-Medium-73" x="380.199951"/>
     </g>
    </g>
   </g>
   <g id="matplotlib.axis_8">
    <g id="ytick_14">
     <g id="line2d_27">
      <g>
       <use xlink:href="#m2121ed77d8" x="436.342301" y="450.72" style="stroke: #000000; stroke-width: 0.8"/>
      </g>
     </g>
     <g id="text_34">
      <!-- 0 -->
      <g transform="translate(417.335739 457.398281)scale(0.18 -0.18)">
       <use xlink:href="#Montserrat-Medium-30"/>
      </g>
     </g>
    </g>
    <g id="ytick_15">
     <g id="line2d_28">
      <g>
       <use xlink:href="#m2121ed77d8" x="436.342301" y="400.32" style="stroke: #000000; stroke-width: 0.8"/>
      </g>
     </g>
     <g id="text_35">
      <!-- 100 -->
      <g transform="translate(398.669176 406.998281)scale(0.18 -0.18)">
       <use xlink:href="#Montserrat-Medium-31"/>
       <use xlink:href="#Montserrat-Medium-30" x="36.999985"/>
       <use xlink:href="#Montserrat-Medium-30" x="103.699982"/>
      </g>
     </g>
    </g>
    <g id="ytick_16">
     <g id="line2d_29">
      <g>
       <use xlink:href="#m2121ed77d8" x="436.342301" y="349.92" style="stroke: #000000; stroke-width: 0.8"/>
      </g>
     </g>
     <g id="text_36">
      <!-- 200 -->
      <g transform="translate(394.996051 356.598281)scale(0.18 -0.18)">
       <use xlink:href="#Montserrat-Medium-32"/>
       <use xlink:href="#Montserrat-Medium-30" x="57.399994"/>
       <use xlink:href="#Montserrat-Medium-30" x="124.099991"/>
      </g>
     </g>
    </g>
    <g id="ytick_17">
     <g id="line2d_30">
      <g>
       <use xlink:href="#m2121ed77d8" x="436.342301" y="299.52" style="stroke: #000000; stroke-width: 0.8"/>
      </g>
     </g>
     <g id="text_37">
      <!-- 300 -->
      <g transform="translate(395.032614 306.198281)scale(0.18 -0.18)">
       <use xlink:href="#Montserrat-Medium-33"/>
       <use xlink:href="#Montserrat-Medium-30" x="57.199997"/>
       <use xlink:href="#Montserrat-Medium-30" x="123.899994"/>
      </g>
     </g>
    </g>
    <g id="ytick_18">
     <g id="line2d_31">
      <g>
       <use xlink:href="#m2121ed77d8" x="436.342301" y="249.12" style="stroke: #000000; stroke-width: 0.8"/>
      </g>
     </g>
     <g id="text_38">
      <!-- 400 -->
      <g transform="translate(393.286051 255.798281)scale(0.18 -0.18)">
       <use xlink:href="#Montserrat-Medium-34"/>
       <use xlink:href="#Montserrat-Medium-30" x="66.899994"/>
       <use xlink:href="#Montserrat-Medium-30" x="133.599991"/>
      </g>
     </g>
    </g>
   </g>
   <g id="patch_78">
    <path d="M 436.342301 450.72 
L 436.342301 249.12 
" style="fill: none; stroke: #000000; stroke-width: 0.8; stroke-linejoin: miter; stroke-linecap: square"/>
   </g>
   <g id="patch_79">
    <path d="M 740.705937 450.72 
L 740.705937 249.12 
" style="fill: none; stroke: #000000; stroke-width: 0.8; stroke-linejoin: miter; stroke-linecap: square"/>
   </g>
   <g id="patch_80">
    <path d="M 436.342301 450.72 
L 740.705937 450.72 
" style="fill: none; stroke: #000000; stroke-width: 0.8; stroke-linejoin: miter; stroke-linecap: square"/>
   </g>
   <g id="patch_81">
    <path d="M 436.342301 249.12 
L 740.705937 249.12 
" style="fill: none; stroke: #000000; stroke-width: 0.8; stroke-linejoin: miter; stroke-linecap: square"/>
   </g>
   <g id="text_39">
    <!-- Layer 4 -->
    <g transform="translate(499.284415 375.12)scale(0.18 -0.18)">
     <use xlink:href="#Montserrat-Medium-4c"/>
     <use xlink:href="#Montserrat-Medium-61" x="59.399994"/>
     <use xlink:href="#Montserrat-Medium-79" x="119.199982"/>
     <use xlink:href="#Montserrat-Medium-65" x="175.099976"/>
     <use xlink:href="#Montserrat-Medium-72" x="236.299973"/>
     <use xlink:href="#Montserrat-Medium-20" x="277.299957"/>
     <use xlink:href="#Montserrat-Medium-34" x="304.199951"/>
    </g>
   </g>
  </g>
 </g>
 <defs>
  <clipPath id="p8d9ed290ad">
   <rect x="71.105938" y="7.2" width="304.363636" height="201.6"/>
  </clipPath>
  <clipPath id="pfe4c9a1a06">
   <rect x="436.342301" y="7.2" width="304.363636" height="201.6"/>
  </clipPath>
  <clipPath id="pb6be13a799">
   <rect x="71.105938" y="249.12" width="304.363636" height="201.6"/>
  </clipPath>
  <clipPath id="p9d4468e883">
   <rect x="436.342301" y="249.12" width="304.363636" height="201.6"/>
  </clipPath>
 </defs>
</svg>
