<?xml version="1.0" encoding="utf-8" standalone="no"?>
<!DOCTYPE svg PUBLIC "-//W3C//DTD SVG 1.1//EN"
  "http://www.w3.org/Graphics/SVG/1.1/DTD/svg11.dtd">
<svg xmlns:xlink="http://www.w3.org/1999/xlink" width="535.064375pt" height="343.708906pt" viewBox="0 0 535.064375 343.708906" xmlns="http://www.w3.org/2000/svg" version="1.1">
 <metadata>
  <rdf:RDF xmlns:dc="http://purl.org/dc/elements/1.1/" xmlns:cc="http://creativecommons.org/ns#" xmlns:rdf="http://www.w3.org/1999/02/22-rdf-syntax-ns#">
   <cc:Work>
    <dc:type rdf:resource="http://purl.org/dc/dcmitype/StillImage"/>
    <dc:date>2022-12-06T11:27:24.702658</dc:date>
    <dc:format>image/svg+xml</dc:format>
    <dc:creator>
     <cc:Agent>
      <dc:title>Matplotlib v3.5.2, https://matplotlib.org/</dc:title>
     </cc:Agent>
    </dc:creator>
   </cc:Work>
  </rdf:RDF>
 </metadata>
 <defs>
  <style type="text/css">*{stroke-linejoin: round; stroke-linecap: butt}</style>
 </defs>
 <g id="figure_1">
  <g id="patch_1">
   <path d="M 0 343.708906 
L 535.064375 343.708906 
L 535.064375 0 
L 0 0 
z
" style="fill: #ffffff"/>
  </g>
  <g id="axes_1">
   <g id="patch_2">
    <path d="M 64.285625 291.238594 
L 510.685625 291.238594 
L 510.685625 14.038594 
L 64.285625 14.038594 
z
" style="fill: #f1f7f0"/>
   </g>
   <g id="matplotlib.axis_1">
    <g id="xtick_1">
     <g id="line2d_1">
      <defs>
       <path id="m22282947ea" d="M 0 0 
L 0 3.5 
" style="stroke: #000000; stroke-width: 0.8"/>
      </defs>
      <g>
       <use xlink:href="#m22282947ea" x="64.285625" y="291.238594" style="stroke: #000000; stroke-width: 0.8"/>
      </g>
     </g>
     <g id="text_1">
      <!-- 0 -->
      <g transform="translate(58.559375 311.915781)scale(0.18 -0.18)">
       <defs>
        <path id="DejaVuSans-30" d="M 2034 4250 
Q 1547 4250 1301 3770 
Q 1056 3291 1056 2328 
Q 1056 1369 1301 889 
Q 1547 409 2034 409 
Q 2525 409 2770 889 
Q 3016 1369 3016 2328 
Q 3016 3291 2770 3770 
Q 2525 4250 2034 4250 
z
M 2034 4750 
Q 2819 4750 3233 4129 
Q 3647 3509 3647 2328 
Q 3647 1150 3233 529 
Q 2819 -91 2034 -91 
Q 1250 -91 836 529 
Q 422 1150 422 2328 
Q 422 3509 836 4129 
Q 1250 4750 2034 4750 
z
" transform="scale(0.015625)"/>
       </defs>
       <use xlink:href="#DejaVuSans-30"/>
      </g>
     </g>
    </g>
    <g id="xtick_2">
     <g id="line2d_2">
      <g>
       <use xlink:href="#m22282947ea" x="153.565625" y="291.238594" style="stroke: #000000; stroke-width: 0.8"/>
      </g>
     </g>
     <g id="text_2">
      <!-- 20 -->
      <g transform="translate(142.113125 311.915781)scale(0.18 -0.18)">
       <defs>
        <path id="DejaVuSans-32" d="M 1228 531 
L 3431 531 
L 3431 0 
L 469 0 
L 469 531 
Q 828 903 1448 1529 
Q 2069 2156 2228 2338 
Q 2531 2678 2651 2914 
Q 2772 3150 2772 3378 
Q 2772 3750 2511 3984 
Q 2250 4219 1831 4219 
Q 1534 4219 1204 4116 
Q 875 4013 500 3803 
L 500 4441 
Q 881 4594 1212 4672 
Q 1544 4750 1819 4750 
Q 2544 4750 2975 4387 
Q 3406 4025 3406 3419 
Q 3406 3131 3298 2873 
Q 3191 2616 2906 2266 
Q 2828 2175 2409 1742 
Q 1991 1309 1228 531 
z
" transform="scale(0.015625)"/>
       </defs>
       <use xlink:href="#DejaVuSans-32"/>
       <use xlink:href="#DejaVuSans-30" x="63.623047"/>
      </g>
     </g>
    </g>
    <g id="xtick_3">
     <g id="line2d_3">
      <g>
       <use xlink:href="#m22282947ea" x="242.845625" y="291.238594" style="stroke: #000000; stroke-width: 0.8"/>
      </g>
     </g>
     <g id="text_3">
      <!-- 40 -->
      <g transform="translate(231.393125 311.915781)scale(0.18 -0.18)">
       <defs>
        <path id="DejaVuSans-34" d="M 2419 4116 
L 825 1625 
L 2419 1625 
L 2419 4116 
z
M 2253 4666 
L 3047 4666 
L 3047 1625 
L 3713 1625 
L 3713 1100 
L 3047 1100 
L 3047 0 
L 2419 0 
L 2419 1100 
L 313 1100 
L 313 1709 
L 2253 4666 
z
" transform="scale(0.015625)"/>
       </defs>
       <use xlink:href="#DejaVuSans-34"/>
       <use xlink:href="#DejaVuSans-30" x="63.623047"/>
      </g>
     </g>
    </g>
    <g id="xtick_4">
     <g id="line2d_4">
      <g>
       <use xlink:href="#m22282947ea" x="332.125625" y="291.238594" style="stroke: #000000; stroke-width: 0.8"/>
      </g>
     </g>
     <g id="text_4">
      <!-- 60 -->
      <g transform="translate(320.673125 311.915781)scale(0.18 -0.18)">
       <defs>
        <path id="DejaVuSans-36" d="M 2113 2584 
Q 1688 2584 1439 2293 
Q 1191 2003 1191 1497 
Q 1191 994 1439 701 
Q 1688 409 2113 409 
Q 2538 409 2786 701 
Q 3034 994 3034 1497 
Q 3034 2003 2786 2293 
Q 2538 2584 2113 2584 
z
M 3366 4563 
L 3366 3988 
Q 3128 4100 2886 4159 
Q 2644 4219 2406 4219 
Q 1781 4219 1451 3797 
Q 1122 3375 1075 2522 
Q 1259 2794 1537 2939 
Q 1816 3084 2150 3084 
Q 2853 3084 3261 2657 
Q 3669 2231 3669 1497 
Q 3669 778 3244 343 
Q 2819 -91 2113 -91 
Q 1303 -91 875 529 
Q 447 1150 447 2328 
Q 447 3434 972 4092 
Q 1497 4750 2381 4750 
Q 2619 4750 2861 4703 
Q 3103 4656 3366 4563 
z
" transform="scale(0.015625)"/>
       </defs>
       <use xlink:href="#DejaVuSans-36"/>
       <use xlink:href="#DejaVuSans-30" x="63.623047"/>
      </g>
     </g>
    </g>
    <g id="xtick_5">
     <g id="line2d_5">
      <g>
       <use xlink:href="#m22282947ea" x="421.405625" y="291.238594" style="stroke: #000000; stroke-width: 0.8"/>
      </g>
     </g>
     <g id="text_5">
      <!-- 80 -->
      <g transform="translate(409.953125 311.915781)scale(0.18 -0.18)">
       <defs>
        <path id="DejaVuSans-38" d="M 2034 2216 
Q 1584 2216 1326 1975 
Q 1069 1734 1069 1313 
Q 1069 891 1326 650 
Q 1584 409 2034 409 
Q 2484 409 2743 651 
Q 3003 894 3003 1313 
Q 3003 1734 2745 1975 
Q 2488 2216 2034 2216 
z
M 1403 2484 
Q 997 2584 770 2862 
Q 544 3141 544 3541 
Q 544 4100 942 4425 
Q 1341 4750 2034 4750 
Q 2731 4750 3128 4425 
Q 3525 4100 3525 3541 
Q 3525 3141 3298 2862 
Q 3072 2584 2669 2484 
Q 3125 2378 3379 2068 
Q 3634 1759 3634 1313 
Q 3634 634 3220 271 
Q 2806 -91 2034 -91 
Q 1263 -91 848 271 
Q 434 634 434 1313 
Q 434 1759 690 2068 
Q 947 2378 1403 2484 
z
M 1172 3481 
Q 1172 3119 1398 2916 
Q 1625 2713 2034 2713 
Q 2441 2713 2670 2916 
Q 2900 3119 2900 3481 
Q 2900 3844 2670 4047 
Q 2441 4250 2034 4250 
Q 1625 4250 1398 4047 
Q 1172 3844 1172 3481 
z
" transform="scale(0.015625)"/>
       </defs>
       <use xlink:href="#DejaVuSans-38"/>
       <use xlink:href="#DejaVuSans-30" x="63.623047"/>
      </g>
     </g>
    </g>
    <g id="xtick_6">
     <g id="line2d_6">
      <g>
       <use xlink:href="#m22282947ea" x="510.685625" y="291.238594" style="stroke: #000000; stroke-width: 0.8"/>
      </g>
     </g>
     <g id="text_6">
      <!-- 100 -->
      <g transform="translate(493.506875 311.915781)scale(0.18 -0.18)">
       <defs>
        <path id="DejaVuSans-31" d="M 794 531 
L 1825 531 
L 1825 4091 
L 703 3866 
L 703 4441 
L 1819 4666 
L 2450 4666 
L 2450 531 
L 3481 531 
L 3481 0 
L 794 0 
L 794 531 
z
" transform="scale(0.015625)"/>
       </defs>
       <use xlink:href="#DejaVuSans-31"/>
       <use xlink:href="#DejaVuSans-30" x="63.623047"/>
       <use xlink:href="#DejaVuSans-30" x="127.246094"/>
      </g>
     </g>
    </g>
    <g id="text_7">
     <!-- Epochs -->
     <g transform="translate(253.827031 333.015781)scale(0.18 -0.18)">
      <defs>
       <path id="Montserrat-Medium-45" d="M 3923 557 
L 3923 0 
L 672 0 
L 672 4480 
L 3834 4480 
L 3834 3923 
L 1312 3923 
L 1312 2547 
L 3558 2547 
L 3558 2003 
L 1312 2003 
L 1312 557 
L 3923 557 
z
" transform="scale(0.015625)"/>
       <path id="Montserrat-Medium-70" d="M 2381 3424 
Q 2874 3424 3264 3206 
Q 3654 2989 3875 2598 
Q 4096 2208 4096 1696 
Q 4096 1184 3875 790 
Q 3654 397 3264 179 
Q 2874 -38 2381 -38 
Q 2016 -38 1712 102 
Q 1408 243 1197 512 
L 1197 -1242 
L 582 -1242 
L 582 3392 
L 1171 3392 
L 1171 2854 
Q 1376 3136 1689 3280 
Q 2003 3424 2381 3424 
z
M 2330 499 
Q 2656 499 2915 649 
Q 3174 800 3324 1072 
Q 3475 1344 3475 1696 
Q 3475 2048 3324 2320 
Q 3174 2592 2915 2739 
Q 2656 2886 2330 2886 
Q 2010 2886 1750 2736 
Q 1491 2586 1340 2317 
Q 1190 2048 1190 1696 
Q 1190 1344 1337 1072 
Q 1485 800 1747 649 
Q 2010 499 2330 499 
z
" transform="scale(0.015625)"/>
       <path id="Montserrat-Medium-6f" d="M 2035 -38 
Q 1530 -38 1126 186 
Q 723 410 496 803 
Q 269 1197 269 1696 
Q 269 2195 496 2588 
Q 723 2982 1126 3203 
Q 1530 3424 2035 3424 
Q 2541 3424 2941 3203 
Q 3341 2982 3568 2588 
Q 3795 2195 3795 1696 
Q 3795 1197 3568 803 
Q 3341 410 2941 186 
Q 2541 -38 2035 -38 
z
M 2035 499 
Q 2362 499 2621 649 
Q 2880 800 3027 1072 
Q 3174 1344 3174 1696 
Q 3174 2048 3027 2320 
Q 2880 2592 2621 2739 
Q 2362 2886 2035 2886 
Q 1709 2886 1449 2739 
Q 1190 2592 1040 2320 
Q 890 2048 890 1696 
Q 890 1344 1040 1072 
Q 1190 800 1449 649 
Q 1709 499 2035 499 
z
" transform="scale(0.015625)"/>
       <path id="Montserrat-Medium-63" d="M 2061 -38 
Q 1542 -38 1136 186 
Q 730 410 499 803 
Q 269 1197 269 1696 
Q 269 2195 499 2588 
Q 730 2982 1136 3203 
Q 1542 3424 2061 3424 
Q 2522 3424 2883 3238 
Q 3245 3053 3443 2701 
L 2976 2400 
Q 2816 2643 2579 2764 
Q 2342 2886 2054 2886 
Q 1722 2886 1456 2739 
Q 1190 2592 1040 2320 
Q 890 2048 890 1696 
Q 890 1338 1040 1066 
Q 1190 794 1456 646 
Q 1722 499 2054 499 
Q 2342 499 2579 620 
Q 2816 742 2976 986 
L 3443 691 
Q 3245 339 2883 150 
Q 2522 -38 2061 -38 
z
" transform="scale(0.015625)"/>
       <path id="Montserrat-Medium-68" d="M 2394 3424 
Q 3040 3424 3421 3049 
Q 3802 2675 3802 1952 
L 3802 0 
L 3187 0 
L 3187 1882 
Q 3187 2374 2950 2624 
Q 2714 2874 2272 2874 
Q 1773 2874 1485 2582 
Q 1197 2291 1197 1747 
L 1197 0 
L 582 0 
L 582 4749 
L 1197 4749 
L 1197 2912 
Q 1389 3155 1699 3289 
Q 2010 3424 2394 3424 
z
" transform="scale(0.015625)"/>
       <path id="Montserrat-Medium-73" d="M 1555 -38 
Q 1139 -38 755 74 
Q 371 186 154 358 
L 410 845 
Q 634 685 954 589 
Q 1274 493 1600 493 
Q 2406 493 2406 954 
Q 2406 1107 2297 1196 
Q 2189 1286 2025 1328 
Q 1862 1370 1562 1421 
Q 1152 1485 893 1568 
Q 634 1651 448 1849 
Q 262 2048 262 2406 
Q 262 2867 646 3145 
Q 1030 3424 1677 3424 
Q 2016 3424 2355 3341 
Q 2694 3258 2912 3117 
L 2650 2630 
Q 2234 2899 1670 2899 
Q 1280 2899 1075 2771 
Q 870 2643 870 2432 
Q 870 2266 985 2170 
Q 1101 2074 1270 2029 
Q 1440 1984 1747 1926 
Q 2157 1856 2409 1776 
Q 2662 1696 2841 1504 
Q 3021 1312 3021 966 
Q 3021 506 2627 234 
Q 2234 -38 1555 -38 
z
" transform="scale(0.015625)"/>
      </defs>
      <use xlink:href="#Montserrat-Medium-45"/>
      <use xlink:href="#Montserrat-Medium-70" x="66.999985"/>
      <use xlink:href="#Montserrat-Medium-6f" x="135.199966"/>
      <use xlink:href="#Montserrat-Medium-63" x="198.699951"/>
      <use xlink:href="#Montserrat-Medium-68" x="255.799942"/>
      <use xlink:href="#Montserrat-Medium-73" x="323.899933"/>
     </g>
    </g>
   </g>
   <g id="matplotlib.axis_2">
    <g id="ytick_1">
     <g id="line2d_7">
      <defs>
       <path id="mdb91cfa0e3" d="M 0 0 
L -3.5 0 
" style="stroke: #000000; stroke-width: 0.8"/>
      </defs>
      <g>
       <use xlink:href="#mdb91cfa0e3" x="64.285625" y="291.238594" style="stroke: #000000; stroke-width: 0.8"/>
      </g>
     </g>
     <g id="text_8">
      <!-- 0.3 -->
      <g transform="translate(28.66 298.077188)scale(0.18 -0.18)">
       <defs>
        <path id="DejaVuSans-2e" d="M 684 794 
L 1344 794 
L 1344 0 
L 684 0 
L 684 794 
z
" transform="scale(0.015625)"/>
        <path id="DejaVuSans-33" d="M 2597 2516 
Q 3050 2419 3304 2112 
Q 3559 1806 3559 1356 
Q 3559 666 3084 287 
Q 2609 -91 1734 -91 
Q 1441 -91 1130 -33 
Q 819 25 488 141 
L 488 750 
Q 750 597 1062 519 
Q 1375 441 1716 441 
Q 2309 441 2620 675 
Q 2931 909 2931 1356 
Q 2931 1769 2642 2001 
Q 2353 2234 1838 2234 
L 1294 2234 
L 1294 2753 
L 1863 2753 
Q 2328 2753 2575 2939 
Q 2822 3125 2822 3475 
Q 2822 3834 2567 4026 
Q 2313 4219 1838 4219 
Q 1578 4219 1281 4162 
Q 984 4106 628 3988 
L 628 4550 
Q 988 4650 1302 4700 
Q 1616 4750 1894 4750 
Q 2613 4750 3031 4423 
Q 3450 4097 3450 3541 
Q 3450 3153 3228 2886 
Q 3006 2619 2597 2516 
z
" transform="scale(0.015625)"/>
       </defs>
       <use xlink:href="#DejaVuSans-30"/>
       <use xlink:href="#DejaVuSans-2e" x="63.623047"/>
       <use xlink:href="#DejaVuSans-33" x="95.410156"/>
      </g>
     </g>
    </g>
    <g id="ytick_2">
     <g id="line2d_8">
      <g>
       <use xlink:href="#mdb91cfa0e3" x="64.285625" y="251.638594" style="stroke: #000000; stroke-width: 0.8"/>
      </g>
     </g>
     <g id="text_9">
      <!-- 0.4 -->
      <g transform="translate(28.66 258.477188)scale(0.18 -0.18)">
       <use xlink:href="#DejaVuSans-30"/>
       <use xlink:href="#DejaVuSans-2e" x="63.623047"/>
       <use xlink:href="#DejaVuSans-34" x="95.410156"/>
      </g>
     </g>
    </g>
    <g id="ytick_3">
     <g id="line2d_9">
      <g>
       <use xlink:href="#mdb91cfa0e3" x="64.285625" y="212.038594" style="stroke: #000000; stroke-width: 0.8"/>
      </g>
     </g>
     <g id="text_10">
      <!-- 0.5 -->
      <g transform="translate(28.66 218.877188)scale(0.18 -0.18)">
       <defs>
        <path id="DejaVuSans-35" d="M 691 4666 
L 3169 4666 
L 3169 4134 
L 1269 4134 
L 1269 2991 
Q 1406 3038 1543 3061 
Q 1681 3084 1819 3084 
Q 2600 3084 3056 2656 
Q 3513 2228 3513 1497 
Q 3513 744 3044 326 
Q 2575 -91 1722 -91 
Q 1428 -91 1123 -41 
Q 819 9 494 109 
L 494 744 
Q 775 591 1075 516 
Q 1375 441 1709 441 
Q 2250 441 2565 725 
Q 2881 1009 2881 1497 
Q 2881 1984 2565 2268 
Q 2250 2553 1709 2553 
Q 1456 2553 1204 2497 
Q 953 2441 691 2322 
L 691 4666 
z
" transform="scale(0.015625)"/>
       </defs>
       <use xlink:href="#DejaVuSans-30"/>
       <use xlink:href="#DejaVuSans-2e" x="63.623047"/>
       <use xlink:href="#DejaVuSans-35" x="95.410156"/>
      </g>
     </g>
    </g>
    <g id="ytick_4">
     <g id="line2d_10">
      <g>
       <use xlink:href="#mdb91cfa0e3" x="64.285625" y="172.438594" style="stroke: #000000; stroke-width: 0.8"/>
      </g>
     </g>
     <g id="text_11">
      <!-- 0.6 -->
      <g transform="translate(28.66 179.277187)scale(0.18 -0.18)">
       <use xlink:href="#DejaVuSans-30"/>
       <use xlink:href="#DejaVuSans-2e" x="63.623047"/>
       <use xlink:href="#DejaVuSans-36" x="95.410156"/>
      </g>
     </g>
    </g>
    <g id="ytick_5">
     <g id="line2d_11">
      <g>
       <use xlink:href="#mdb91cfa0e3" x="64.285625" y="132.838594" style="stroke: #000000; stroke-width: 0.8"/>
      </g>
     </g>
     <g id="text_12">
      <!-- 0.7 -->
      <g transform="translate(28.66 139.677188)scale(0.18 -0.18)">
       <defs>
        <path id="DejaVuSans-37" d="M 525 4666 
L 3525 4666 
L 3525 4397 
L 1831 0 
L 1172 0 
L 2766 4134 
L 525 4134 
L 525 4666 
z
" transform="scale(0.015625)"/>
       </defs>
       <use xlink:href="#DejaVuSans-30"/>
       <use xlink:href="#DejaVuSans-2e" x="63.623047"/>
       <use xlink:href="#DejaVuSans-37" x="95.410156"/>
      </g>
     </g>
    </g>
    <g id="ytick_6">
     <g id="line2d_12">
      <g>
       <use xlink:href="#mdb91cfa0e3" x="64.285625" y="93.238594" style="stroke: #000000; stroke-width: 0.8"/>
      </g>
     </g>
     <g id="text_13">
      <!-- 0.8 -->
      <g transform="translate(28.66 100.077187)scale(0.18 -0.18)">
       <use xlink:href="#DejaVuSans-30"/>
       <use xlink:href="#DejaVuSans-2e" x="63.623047"/>
       <use xlink:href="#DejaVuSans-38" x="95.410156"/>
      </g>
     </g>
    </g>
    <g id="ytick_7">
     <g id="line2d_13">
      <g>
       <use xlink:href="#mdb91cfa0e3" x="64.285625" y="53.638594" style="stroke: #000000; stroke-width: 0.8"/>
      </g>
     </g>
     <g id="text_14">
      <!-- 0.9 -->
      <g transform="translate(28.66 60.477187)scale(0.18 -0.18)">
       <defs>
        <path id="DejaVuSans-39" d="M 703 97 
L 703 672 
Q 941 559 1184 500 
Q 1428 441 1663 441 
Q 2288 441 2617 861 
Q 2947 1281 2994 2138 
Q 2813 1869 2534 1725 
Q 2256 1581 1919 1581 
Q 1219 1581 811 2004 
Q 403 2428 403 3163 
Q 403 3881 828 4315 
Q 1253 4750 1959 4750 
Q 2769 4750 3195 4129 
Q 3622 3509 3622 2328 
Q 3622 1225 3098 567 
Q 2575 -91 1691 -91 
Q 1453 -91 1209 -44 
Q 966 3 703 97 
z
M 1959 2075 
Q 2384 2075 2632 2365 
Q 2881 2656 2881 3163 
Q 2881 3666 2632 3958 
Q 2384 4250 1959 4250 
Q 1534 4250 1286 3958 
Q 1038 3666 1038 3163 
Q 1038 2656 1286 2365 
Q 1534 2075 1959 2075 
z
" transform="scale(0.015625)"/>
       </defs>
       <use xlink:href="#DejaVuSans-30"/>
       <use xlink:href="#DejaVuSans-2e" x="63.623047"/>
       <use xlink:href="#DejaVuSans-39" x="95.410156"/>
      </g>
     </g>
    </g>
    <g id="ytick_8">
     <g id="line2d_14">
      <g>
       <use xlink:href="#mdb91cfa0e3" x="64.285625" y="14.038594" style="stroke: #000000; stroke-width: 0.8"/>
      </g>
     </g>
     <g id="text_15">
      <!-- 1.0 -->
      <g transform="translate(28.66 20.877187)scale(0.18 -0.18)">
       <use xlink:href="#DejaVuSans-31"/>
       <use xlink:href="#DejaVuSans-2e" x="63.623047"/>
       <use xlink:href="#DejaVuSans-30" x="95.410156"/>
      </g>
     </g>
    </g>
    <g id="text_16">
     <!-- Cost function $J$ -->
     <g transform="translate(20.88 219.238594)rotate(-90)scale(0.18 -0.18)">
      <defs>
       <path id="Montserrat-Medium-43" d="M 2675 -51 
Q 2003 -51 1462 246 
Q 922 544 614 1065 
Q 307 1587 307 2240 
Q 307 2893 614 3414 
Q 922 3936 1466 4233 
Q 2010 4531 2682 4531 
Q 3206 4531 3641 4355 
Q 4077 4179 4384 3834 
L 3968 3430 
Q 3462 3962 2707 3962 
Q 2208 3962 1805 3738 
Q 1402 3514 1174 3120 
Q 947 2726 947 2240 
Q 947 1754 1174 1360 
Q 1402 966 1805 742 
Q 2208 518 2707 518 
Q 3456 518 3968 1056 
L 4384 653 
Q 4077 307 3638 128 
Q 3200 -51 2675 -51 
z
" transform="scale(0.015625)"/>
       <path id="Montserrat-Medium-74" d="M 2490 198 
Q 2355 83 2156 22 
Q 1958 -38 1747 -38 
Q 1235 -38 953 237 
Q 672 512 672 1024 
L 672 2886 
L 96 2886 
L 96 3392 
L 672 3392 
L 672 4134 
L 1286 4134 
L 1286 3392 
L 2259 3392 
L 2259 2886 
L 1286 2886 
L 1286 1050 
Q 1286 774 1424 627 
Q 1562 480 1818 480 
Q 2099 480 2298 640 
L 2490 198 
z
" transform="scale(0.015625)"/>
       <path id="Montserrat-Medium-20" transform="scale(0.015625)"/>
       <path id="Montserrat-Medium-66" d="M 1824 4282 
Q 1274 4282 1274 3686 
L 1274 3392 
L 2259 3392 
L 2259 2886 
L 1286 2886 
L 1286 0 
L 672 0 
L 672 2886 
L 96 2886 
L 96 3392 
L 672 3392 
L 672 3693 
Q 672 4198 966 4492 
Q 1261 4787 1792 4787 
Q 1997 4787 2176 4736 
Q 2355 4685 2483 4589 
L 2298 4122 
Q 2086 4282 1824 4282 
z
" transform="scale(0.015625)"/>
       <path id="Montserrat-Medium-75" d="M 3744 3392 
L 3744 0 
L 3162 0 
L 3162 512 
Q 2976 250 2672 106 
Q 2368 -38 2010 -38 
Q 1331 -38 940 336 
Q 550 710 550 1440 
L 550 3392 
L 1165 3392 
L 1165 1510 
Q 1165 1018 1401 765 
Q 1638 512 2080 512 
Q 2566 512 2848 806 
Q 3130 1101 3130 1638 
L 3130 3392 
L 3744 3392 
z
" transform="scale(0.015625)"/>
       <path id="Montserrat-Medium-6e" d="M 2394 3424 
Q 3040 3424 3421 3049 
Q 3802 2675 3802 1952 
L 3802 0 
L 3187 0 
L 3187 1882 
Q 3187 2374 2950 2624 
Q 2714 2874 2272 2874 
Q 1773 2874 1485 2582 
Q 1197 2291 1197 1747 
L 1197 0 
L 582 0 
L 582 3392 
L 1171 3392 
L 1171 2880 
Q 1357 3142 1673 3283 
Q 1990 3424 2394 3424 
z
" transform="scale(0.015625)"/>
       <path id="Montserrat-Medium-69" d="M 582 3392 
L 1197 3392 
L 1197 0 
L 582 0 
L 582 3392 
z
M 890 4045 
Q 710 4045 592 4160 
Q 474 4275 474 4442 
Q 474 4608 592 4726 
Q 710 4845 890 4845 
Q 1069 4845 1187 4733 
Q 1306 4621 1306 4454 
Q 1306 4282 1187 4163 
Q 1069 4045 890 4045 
z
" transform="scale(0.015625)"/>
       <path id="DejaVuSans-Oblique-4a" d="M 1069 4666 
L 1703 4666 
L 856 325 
Q 691 -522 298 -901 
Q -94 -1281 -800 -1281 
L -1050 -1281 
L -947 -750 
L -750 -750 
Q -328 -750 -109 -509 
Q 109 -269 225 325 
L 1069 4666 
z
" transform="scale(0.015625)"/>
      </defs>
      <use xlink:href="#Montserrat-Medium-43" transform="translate(0 0.296875)"/>
      <use xlink:href="#Montserrat-Medium-6f" transform="translate(72.299988 0.296875)"/>
      <use xlink:href="#Montserrat-Medium-73" transform="translate(135.799973 0.296875)"/>
      <use xlink:href="#Montserrat-Medium-74" transform="translate(185.899963 0.296875)"/>
      <use xlink:href="#Montserrat-Medium-20" transform="translate(227.299957 0.296875)"/>
      <use xlink:href="#Montserrat-Medium-66" transform="translate(254.199951 0.296875)"/>
      <use xlink:href="#Montserrat-Medium-75" transform="translate(289.499939 0.296875)"/>
      <use xlink:href="#Montserrat-Medium-6e" transform="translate(357.199921 0.296875)"/>
      <use xlink:href="#Montserrat-Medium-63" transform="translate(425.299911 0.296875)"/>
      <use xlink:href="#Montserrat-Medium-74" transform="translate(482.399902 0.296875)"/>
      <use xlink:href="#Montserrat-Medium-69" transform="translate(523.799896 0.296875)"/>
      <use xlink:href="#Montserrat-Medium-6f" transform="translate(551.69989 0.296875)"/>
      <use xlink:href="#Montserrat-Medium-6e" transform="translate(615.199875 0.296875)"/>
      <use xlink:href="#Montserrat-Medium-20" transform="translate(683.299866 0.296875)"/>
      <use xlink:href="#DejaVuSans-Oblique-4a" transform="translate(710.19986 0.296875)"/>
     </g>
    </g>
   </g>
   <g id="line2d_15">
    <path d="M 98.680448 -1 
L 99.997625 4.58603 
L 104.461625 20.159674 
L 108.925625 33.206782 
L 113.389625 44.289847 
L 117.853625 53.841947 
L 122.317625 62.215432 
L 126.781625 69.56991 
L 131.245625 76.184726 
L 135.709625 82.131519 
L 140.173625 87.540742 
L 144.637625 92.47988 
L 149.101625 97.032677 
L 153.565625 101.270863 
L 158.029625 105.206146 
L 162.493625 108.881556 
L 166.957625 112.339483 
L 171.421625 115.617742 
L 175.885625 118.713285 
L 180.349625 121.646414 
L 184.813625 124.428056 
L 189.277625 127.079973 
L 193.741625 129.610191 
L 198.205625 132.038607 
L 202.669625 134.333357 
L 207.133625 136.588264 
L 211.597625 138.705068 
L 216.061625 140.753186 
L 220.525625 142.728251 
L 224.989625 144.630428 
L 229.453625 146.495714 
L 233.917625 148.262644 
L 238.381625 149.976584 
L 242.845625 151.604112 
L 247.309625 153.211954 
L 251.773625 154.763078 
L 256.237625 156.245799 
L 260.701625 157.702627 
L 265.165625 159.118644 
L 269.629625 160.459225 
L 274.093625 161.805778 
L 278.557625 163.070828 
L 283.021625 164.333919 
L 287.485625 165.555562 
L 291.949625 166.712225 
L 296.413625 167.869171 
L 300.877625 168.98271 
L 305.341625 170.074063 
L 309.805625 171.143676 
L 314.269625 172.149041 
L 318.733625 173.192596 
L 323.197625 174.159369 
L 327.661625 175.098078 
L 332.125625 176.03327 
L 336.589625 176.951255 
L 341.053625 177.822057 
L 345.517625 178.709522 
L 349.981625 179.528798 
L 354.445625 180.36377 
L 358.909625 181.184721 
L 363.373625 181.963776 
L 367.837625 182.752839 
L 372.301625 183.500147 
L 376.765625 184.229848 
L 381.229625 184.961389 
L 385.693625 185.675417 
L 390.157625 186.365038 
L 394.621625 187.045171 
L 399.085625 187.692307 
L 403.549625 188.336421 
L 408.013625 188.993163 
L 412.477625 189.653092 
L 416.941625 190.214877 
L 421.405625 190.833618 
L 425.869625 191.434089 
L 430.333625 191.977818 
L 434.797625 192.566512 
L 439.261625 193.106771 
L 443.725625 193.653851 
L 448.189625 194.20773 
L 452.653625 194.71551 
L 457.117625 195.252984 
L 461.581625 195.747618 
L 466.045625 196.237012 
L 470.509625 196.734076 
L 474.973625 197.205933 
L 479.437625 197.68107 
L 483.901625 198.127789 
L 488.365625 198.595255 
L 492.829625 199.07051 
L 497.293625 199.480525 
L 501.757625 199.919479 
L 506.221625 200.379746 
" clip-path="url(#p1e8a71c256)" style="fill: none; stroke: #000000; stroke-width: 2; stroke-linecap: square"/>
   </g>
   <g id="line2d_16">
    <path d="M 84.626771 -1 
L 86.605625 15.539112 
L 91.069625 41.516774 
L 95.533625 60.806307 
L 99.997625 75.844058 
L 104.461625 88.079231 
L 108.925625 98.307498 
L 113.389625 107.019481 
L 117.853625 114.614265 
L 122.317625 121.319837 
L 126.781625 127.3229 
L 131.245625 132.717088 
L 135.709625 137.600498 
L 140.173625 142.059754 
L 144.637625 146.128963 
L 149.101625 149.898315 
L 153.565625 153.388178 
L 158.029625 156.610165 
L 162.493625 159.647149 
L 166.957625 162.459805 
L 171.421625 165.10948 
L 175.885625 167.560343 
L 180.349625 169.887383 
L 184.813625 172.132589 
L 189.277625 174.171454 
L 193.741625 176.15065 
L 198.205625 178.005455 
L 202.669625 179.77654 
L 207.133625 181.460338 
L 211.597625 183.078637 
L 216.061625 184.605614 
L 220.525625 186.038485 
L 224.989625 187.452048 
L 229.453625 188.803061 
L 233.917625 190.084822 
L 238.381625 191.293082 
L 242.845625 192.496952 
L 247.309625 193.626613 
L 251.773625 194.718579 
L 256.237625 195.773676 
L 260.701625 196.817373 
L 265.165625 197.764697 
L 269.629625 198.712965 
L 274.093625 199.628495 
L 278.557625 200.497928 
L 283.021625 201.388037 
L 287.485625 202.186778 
L 291.949625 203.025715 
L 296.413625 203.777886 
L 300.877625 204.495123 
L 305.341625 205.309206 
L 309.805625 205.982447 
L 314.269625 206.680023 
L 318.733625 207.358315 
L 323.197625 208.009463 
L 327.661625 208.659974 
L 332.125625 209.279895 
L 336.589625 209.884308 
L 341.053625 210.501986 
L 345.517625 211.061742 
L 349.981625 211.623999 
L 354.445625 212.16178 
L 358.909625 212.73152 
L 363.373625 213.249804 
L 367.837625 213.788305 
L 372.301625 214.267419 
L 376.765625 214.801282 
L 381.229625 215.264818 
L 385.693625 215.712504 
L 390.157625 216.17394 
L 394.621625 216.644734 
L 399.085625 217.091394 
L 403.549625 217.518097 
L 408.013625 217.910256 
L 412.477625 218.342223 
L 416.941625 218.722675 
L 421.405625 219.166183 
L 425.869625 219.561081 
L 430.333625 219.972241 
L 434.797625 220.331721 
L 439.261625 220.707063 
L 443.725625 221.097051 
L 448.189625 221.387125 
L 452.653625 221.792739 
L 457.117625 222.121039 
L 461.581625 222.47122 
L 466.045625 222.810932 
L 470.509625 223.13437 
L 474.973625 223.456557 
L 479.437625 223.798594 
L 483.901625 224.019192 
L 488.365625 224.426139 
L 492.829625 224.676489 
L 497.293625 224.993766 
L 501.757625 225.326646 
L 506.221625 225.615859 
" clip-path="url(#p1e8a71c256)" style="fill: none; stroke: #0000ff; stroke-width: 2; stroke-linecap: square"/>
   </g>
   <g id="line2d_17">
    <path d="M 74.46578 -1 
L 77.677625 51.931154 
L 82.141625 87.862953 
L 86.605625 109.743837 
L 91.069625 125.40453 
L 95.533625 137.525651 
L 99.997625 147.201126 
L 104.461625 155.164454 
L 108.925625 161.818406 
L 113.389625 167.585859 
L 117.853625 172.511047 
L 122.317625 176.882569 
L 126.781625 180.812376 
L 131.245625 184.259022 
L 135.709625 187.388979 
L 140.173625 190.243131 
L 144.637625 192.869981 
L 149.101625 195.357949 
L 153.565625 197.484571 
L 158.029625 199.504153 
L 162.493625 201.456582 
L 166.957625 203.180553 
L 171.421625 204.8479 
L 175.885625 206.412808 
L 180.349625 207.861092 
L 184.813625 209.232263 
L 189.277625 210.506825 
L 193.741625 211.754479 
L 198.205625 212.906374 
L 202.669625 214.090748 
L 207.133625 215.059256 
L 211.597625 216.112418 
L 216.061625 217.090497 
L 220.525625 217.99157 
L 224.989625 218.83511 
L 229.453625 219.725726 
L 233.917625 220.574636 
L 238.381625 221.303664 
L 242.845625 222.082813 
L 247.309625 222.798705 
L 251.773625 223.535959 
L 256.237625 224.165805 
L 260.701625 224.845395 
L 265.165625 225.471807 
L 269.629625 226.107849 
L 274.093625 226.640991 
L 278.557625 227.236624 
L 283.021625 227.871321 
L 287.485625 228.344994 
L 291.949625 228.943141 
L 296.413625 229.426244 
L 300.877625 229.949745 
L 305.341625 230.413411 
L 309.805625 230.898615 
L 314.269625 231.346337 
L 318.733625 231.758913 
L 323.197625 232.259707 
L 327.661625 232.694825 
L 332.125625 233.152496 
L 336.589625 233.549163 
L 341.053625 233.906354 
L 345.517625 234.293226 
L 349.981625 234.720224 
L 354.445625 235.076483 
L 358.909625 235.487808 
L 363.373625 235.843311 
L 367.837625 236.213708 
L 372.301625 236.53671 
L 376.765625 236.888365 
L 381.229625 237.234793 
L 385.693625 237.530816 
L 390.157625 237.91063 
L 394.621625 238.213982 
L 399.085625 238.552302 
L 403.549625 238.741153 
L 408.013625 239.114406 
L 412.477625 239.395287 
L 416.941625 239.659917 
L 421.405625 240.029629 
L 425.869625 240.179334 
L 430.333625 240.520581 
L 434.797625 240.856422 
L 439.261625 240.991694 
L 443.725625 241.323888 
L 448.189625 241.561103 
L 452.653625 241.818251 
L 457.117625 242.108242 
L 461.581625 242.322231 
L 466.045625 242.574894 
L 470.509625 242.822164 
L 474.973625 243.05205 
L 479.437625 243.258769 
L 483.901625 243.548843 
L 488.365625 243.750806 
L 492.829625 243.958788 
L 497.293625 244.207816 
L 501.757625 244.429204 
L 506.221625 244.621761 
" clip-path="url(#p1e8a71c256)" style="fill: none; stroke: #ff0000; stroke-width: 2; stroke-linecap: square"/>
   </g>
   <g id="line2d_18">
    <path d="M 67.79671 -1 
L 68.749625 49.285562 
L 73.213625 106.898301 
L 77.677625 136.402977 
L 82.141625 155.227877 
L 86.605625 168.300713 
L 91.069625 178.284566 
L 95.533625 185.938359 
L 99.997625 192.104592 
L 104.461625 197.321023 
L 108.925625 201.640901 
L 113.389625 205.254257 
L 117.853625 208.589164 
L 122.317625 211.380081 
L 126.781625 213.856483 
L 131.245625 216.059617 
L 135.709625 218.226377 
L 140.173625 220.107075 
L 144.637625 221.746157 
L 149.101625 223.275105 
L 153.565625 224.791048 
L 158.029625 226.214902 
L 162.493625 227.423079 
L 166.957625 228.583141 
L 171.421625 229.724049 
L 175.885625 230.800307 
L 180.349625 231.683052 
L 184.813625 232.582898 
L 189.277625 233.525359 
L 193.741625 234.340882 
L 198.205625 235.142785 
L 202.669625 235.953764 
L 207.133625 236.603248 
L 211.597625 237.24833 
L 216.061625 238.009364 
L 220.525625 238.627585 
L 224.989625 239.264229 
L 229.453625 239.811109 
L 233.917625 240.492918 
L 238.381625 240.961163 
L 242.845625 241.357252 
L 247.309625 241.866213 
L 251.773625 242.381204 
L 256.237625 242.891228 
L 260.701625 243.168674 
L 265.165625 243.80271 
L 269.629625 244.145219 
L 274.093625 244.580951 
L 278.557625 244.939263 
L 283.021625 245.318534 
L 287.485625 245.71067 
L 291.949625 246.064026 
L 296.413625 246.399112 
L 300.877625 246.719906 
L 305.341625 247.154221 
L 309.805625 247.321452 
L 314.269625 247.700358 
L 318.733625 248.095172 
L 323.197625 248.234409 
L 327.661625 248.599731 
L 332.125625 248.965112 
L 336.589625 249.224974 
L 341.053625 249.434915 
L 345.517625 249.71438 
L 349.981625 250.092708 
L 354.445625 250.289714 
L 358.909625 250.584131 
L 363.373625 250.741425 
L 367.837625 251.048458 
L 372.301625 251.318257 
L 376.765625 251.616947 
L 381.229625 251.949862 
L 385.693625 252.0014 
L 390.157625 252.28352 
L 394.621625 252.442407 
L 399.085625 252.759247 
L 403.549625 252.915325 
L 408.013625 253.112449 
L 412.477625 253.234467 
L 416.941625 253.538798 
L 421.405625 253.897441 
L 425.869625 253.95174 
L 430.333625 254.239832 
L 434.797625 254.421047 
L 439.261625 254.682939 
L 443.725625 254.805028 
L 448.189625 254.983765 
L 452.653625 255.2124 
L 457.117625 255.355956 
L 461.581625 255.768178 
L 466.045625 255.892982 
L 470.509625 256.126597 
L 474.973625 256.22402 
L 479.437625 256.505573 
L 483.901625 256.694424 
L 488.365625 256.747509 
L 492.829625 257.086242 
L 497.293625 257.300702 
L 501.757625 257.376859 
L 506.221625 257.630773 
" clip-path="url(#p1e8a71c256)" style="fill: none; stroke: #008000; stroke-width: 2; stroke-linecap: square"/>
   </g>
   <g id="line2d_19">
    <path d="M 66.694684 -1 
L 68.749625 106.024525 
L 73.213625 146.782519 
L 77.677625 168.518077 
L 82.141625 182.742453 
L 86.605625 192.704969 
L 91.069625 200.271925 
L 95.533625 205.870991 
L 99.997625 210.822828 
L 104.461625 214.889087 
L 108.925625 218.422557 
L 113.389625 221.325898 
L 117.853625 224.105864 
L 122.317625 226.317848 
L 126.781625 228.522032 
L 131.245625 230.451861 
L 135.709625 232.268417 
L 140.173625 233.716512 
L 144.637625 235.390043 
L 149.101625 236.470856 
L 153.565625 237.774002 
L 158.029625 238.999056 
L 162.493625 239.956836 
L 166.957625 241.017315 
L 171.421625 242.015634 
L 175.885625 242.974666 
L 180.349625 243.912761 
L 184.813625 244.826426 
L 189.277625 245.590812 
L 193.741625 246.581177 
L 198.205625 247.147978 
L 202.669625 247.976058 
L 207.133625 248.72149 
L 211.597625 249.520159 
L 216.061625 250.137566 
L 220.525625 250.833572 
L 224.989625 251.451097 
L 229.453625 252.085157 
L 233.917625 252.714082 
L 238.381625 253.489774 
L 242.845625 254.059927 
L 247.309625 254.778132 
L 251.773625 255.371015 
L 256.237625 255.93044 
L 260.701625 256.471868 
L 265.165625 257.029393 
L 269.629625 257.657563 
L 274.093625 258.194978 
L 278.557625 258.849702 
L 283.021625 259.205665 
L 287.485625 259.955759 
L 291.949625 260.315263 
L 296.413625 260.719944 
L 300.877625 261.225223 
L 305.341625 261.571155 
L 309.805625 262.235887 
L 314.269625 262.624765 
L 318.733625 262.872271 
L 323.197625 263.298679 
L 327.661625 263.797455 
L 332.125625 264.121577 
L 336.589625 264.410283 
L 341.053625 264.783748 
L 345.517625 265.259759 
L 349.981625 265.541702 
L 354.445625 266.050368 
L 358.909625 266.293589 
L 363.373625 266.507543 
L 367.837625 266.832444 
L 372.301625 267.225913 
L 376.765625 267.393805 
L 381.229625 267.822549 
L 385.693625 268.063835 
L 390.157625 268.217576 
L 394.621625 268.542938 
L 399.085625 268.727682 
L 403.549625 269.043107 
L 408.013625 269.337111 
L 412.477625 269.536666 
L 416.941625 269.743952 
L 421.405625 270.056579 
L 425.869625 270.437905 
L 430.333625 270.399207 
L 434.797625 270.611213 
L 439.261625 271.03067 
L 443.725625 271.151378 
L 448.189625 271.336311 
L 452.653625 271.661483 
L 457.117625 271.734253 
L 461.581625 272.000665 
L 466.045625 272.356345 
L 470.509625 272.279398 
L 474.973625 272.631089 
L 479.437625 272.712273 
L 483.901625 273.03649 
L 488.365625 273.392477 
L 492.829625 273.28946 
L 497.293625 273.438952 
L 501.757625 273.581033 
L 506.221625 273.965828 
" clip-path="url(#p1e8a71c256)" style="fill: none; stroke: #ff00ff; stroke-width: 2; stroke-linecap: square"/>
   </g>
   <g id="line2d_20">
    <path d="M 64.285625 15.781613 
L 68.749625 166.19479 
L 73.213625 193.70795 
L 77.677625 208.229943 
L 82.141625 216.939163 
L 86.605625 222.880102 
L 91.069625 227.588717 
L 95.533625 231.584921 
L 99.997625 234.289615 
L 104.461625 237.051147 
L 108.925625 239.29738 
L 113.389625 241.427991 
L 117.853625 243.166113 
L 122.317625 245.035954 
L 126.781625 246.645272 
L 131.245625 247.772112 
L 135.709625 249.165458 
L 140.173625 250.563785 
L 144.637625 251.543245 
L 149.101625 252.899818 
L 153.565625 253.983806 
L 158.029625 254.949564 
L 162.493625 255.705216 
L 166.957625 256.771561 
L 171.421625 257.626229 
L 175.885625 258.633435 
L 180.349625 259.283816 
L 184.813625 260.127981 
L 189.277625 260.645463 
L 193.741625 261.234617 
L 198.205625 262.040344 
L 202.669625 262.841256 
L 207.133625 263.507628 
L 211.597625 263.937364 
L 216.061625 264.523756 
L 220.525625 265.004015 
L 224.989625 265.447252 
L 229.453625 266.160383 
L 233.917625 266.598262 
L 238.381625 266.930528 
L 242.845625 267.485657 
L 247.309625 268.291314 
L 251.773625 268.277624 
L 256.237625 268.853512 
L 260.701625 269.130404 
L 265.165625 269.619373 
L 269.629625 270.174195 
L 274.093625 270.196619 
L 278.557625 270.789289 
L 283.021625 271.186405 
L 287.485625 271.30002 
L 291.949625 271.6255 
L 296.413625 271.946696 
L 300.877625 272.353867 
L 305.341625 272.582454 
L 309.805625 273.103075 
L 314.269625 273.287701 
L 318.733625 273.494515 
L 323.197625 273.892882 
L 327.661625 274.094148 
L 332.125625 274.418471 
L 336.589625 274.39128 
L 341.053625 274.755198 
L 345.517625 274.932318 
L 349.981625 275.141811 
L 354.445625 275.49264 
L 358.909625 275.857266 
L 363.373625 275.855944 
L 367.837625 276.373025 
L 372.301625 276.393017 
L 376.765625 276.663099 
L 381.229625 276.85588 
L 385.693625 277.165876 
L 390.157625 277.433752 
L 394.621625 277.521804 
L 399.085625 277.964782 
L 403.549625 277.959566 
L 408.013625 278.261678 
L 412.477625 278.32582 
L 416.941625 278.570198 
L 421.405625 278.788082 
L 425.869625 278.734478 
L 430.333625 279.013683 
L 434.797625 279.035292 
L 439.261625 279.494344 
L 443.725625 279.83395 
L 448.189625 279.769288 
L 452.653625 279.908065 
L 457.117625 280.006184 
L 461.581625 280.277777 
L 466.045625 280.614905 
L 470.509625 280.63092 
L 474.973625 280.626601 
L 479.437625 280.804866 
L 483.901625 281.163532 
L 488.365625 281.173764 
L 492.829625 281.434405 
L 497.293625 281.467898 
L 501.757625 281.534849 
L 506.221625 281.645656 
" clip-path="url(#p1e8a71c256)" style="fill: none; stroke: #ffff00; stroke-width: 2; stroke-linecap: square"/>
   </g>
   <g id="patch_3">
    <path d="M 64.285625 291.238594 
L 64.285625 14.038594 
" style="fill: none; stroke: #000000; stroke-width: 0.8; stroke-linejoin: miter; stroke-linecap: square"/>
   </g>
   <g id="patch_4">
    <path d="M 510.685625 291.238594 
L 510.685625 14.038594 
" style="fill: none; stroke: #000000; stroke-width: 0.8; stroke-linejoin: miter; stroke-linecap: square"/>
   </g>
   <g id="patch_5">
    <path d="M 64.285625 291.238594 
L 510.685625 291.238594 
" style="fill: none; stroke: #000000; stroke-width: 0.8; stroke-linejoin: miter; stroke-linecap: square"/>
   </g>
   <g id="patch_6">
    <path d="M 64.285625 14.038594 
L 510.685625 14.038594 
" style="fill: none; stroke: #000000; stroke-width: 0.8; stroke-linejoin: miter; stroke-linecap: square"/>
   </g>
   <g id="legend_1">
    <g id="patch_7">
     <path d="M 259.470312 186.962344 
L 498.085625 186.962344 
Q 501.685625 186.962344 501.685625 183.362344 
L 501.685625 26.638594 
Q 501.685625 23.038594 498.085625 23.038594 
L 259.470312 23.038594 
Q 255.870312 23.038594 255.870312 26.638594 
L 255.870312 183.362344 
Q 255.870312 186.962344 259.470312 186.962344 
z
" style="fill: #f1f7f0; opacity: 0.8; stroke: #cccccc; stroke-linejoin: miter"/>
    </g>
    <g id="line2d_21">
     <path d="M 263.070312 37.615781 
L 281.070312 37.615781 
L 299.070312 37.615781 
" style="fill: none; stroke: #000000; stroke-width: 2; stroke-linecap: square"/>
    </g>
    <g id="text_17">
     <!-- Mini-batch size: 200 -->
     <g transform="translate(313.470312 43.915781)scale(0.18 -0.18)">
      <defs>
       <path id="DejaVuSans-4d" d="M 628 4666 
L 1569 4666 
L 2759 1491 
L 3956 4666 
L 4897 4666 
L 4897 0 
L 4281 0 
L 4281 4097 
L 3078 897 
L 2444 897 
L 1241 4097 
L 1241 0 
L 628 0 
L 628 4666 
z
" transform="scale(0.015625)"/>
       <path id="DejaVuSans-69" d="M 603 3500 
L 1178 3500 
L 1178 0 
L 603 0 
L 603 3500 
z
M 603 4863 
L 1178 4863 
L 1178 4134 
L 603 4134 
L 603 4863 
z
" transform="scale(0.015625)"/>
       <path id="DejaVuSans-6e" d="M 3513 2113 
L 3513 0 
L 2938 0 
L 2938 2094 
Q 2938 2591 2744 2837 
Q 2550 3084 2163 3084 
Q 1697 3084 1428 2787 
Q 1159 2491 1159 1978 
L 1159 0 
L 581 0 
L 581 3500 
L 1159 3500 
L 1159 2956 
Q 1366 3272 1645 3428 
Q 1925 3584 2291 3584 
Q 2894 3584 3203 3211 
Q 3513 2838 3513 2113 
z
" transform="scale(0.015625)"/>
       <path id="DejaVuSans-2d" d="M 313 2009 
L 1997 2009 
L 1997 1497 
L 313 1497 
L 313 2009 
z
" transform="scale(0.015625)"/>
       <path id="DejaVuSans-62" d="M 3116 1747 
Q 3116 2381 2855 2742 
Q 2594 3103 2138 3103 
Q 1681 3103 1420 2742 
Q 1159 2381 1159 1747 
Q 1159 1113 1420 752 
Q 1681 391 2138 391 
Q 2594 391 2855 752 
Q 3116 1113 3116 1747 
z
M 1159 2969 
Q 1341 3281 1617 3432 
Q 1894 3584 2278 3584 
Q 2916 3584 3314 3078 
Q 3713 2572 3713 1747 
Q 3713 922 3314 415 
Q 2916 -91 2278 -91 
Q 1894 -91 1617 61 
Q 1341 213 1159 525 
L 1159 0 
L 581 0 
L 581 4863 
L 1159 4863 
L 1159 2969 
z
" transform="scale(0.015625)"/>
       <path id="DejaVuSans-61" d="M 2194 1759 
Q 1497 1759 1228 1600 
Q 959 1441 959 1056 
Q 959 750 1161 570 
Q 1363 391 1709 391 
Q 2188 391 2477 730 
Q 2766 1069 2766 1631 
L 2766 1759 
L 2194 1759 
z
M 3341 1997 
L 3341 0 
L 2766 0 
L 2766 531 
Q 2569 213 2275 61 
Q 1981 -91 1556 -91 
Q 1019 -91 701 211 
Q 384 513 384 1019 
Q 384 1609 779 1909 
Q 1175 2209 1959 2209 
L 2766 2209 
L 2766 2266 
Q 2766 2663 2505 2880 
Q 2244 3097 1772 3097 
Q 1472 3097 1187 3025 
Q 903 2953 641 2809 
L 641 3341 
Q 956 3463 1253 3523 
Q 1550 3584 1831 3584 
Q 2591 3584 2966 3190 
Q 3341 2797 3341 1997 
z
" transform="scale(0.015625)"/>
       <path id="DejaVuSans-74" d="M 1172 4494 
L 1172 3500 
L 2356 3500 
L 2356 3053 
L 1172 3053 
L 1172 1153 
Q 1172 725 1289 603 
Q 1406 481 1766 481 
L 2356 481 
L 2356 0 
L 1766 0 
Q 1100 0 847 248 
Q 594 497 594 1153 
L 594 3053 
L 172 3053 
L 172 3500 
L 594 3500 
L 594 4494 
L 1172 4494 
z
" transform="scale(0.015625)"/>
       <path id="DejaVuSans-63" d="M 3122 3366 
L 3122 2828 
Q 2878 2963 2633 3030 
Q 2388 3097 2138 3097 
Q 1578 3097 1268 2742 
Q 959 2388 959 1747 
Q 959 1106 1268 751 
Q 1578 397 2138 397 
Q 2388 397 2633 464 
Q 2878 531 3122 666 
L 3122 134 
Q 2881 22 2623 -34 
Q 2366 -91 2075 -91 
Q 1284 -91 818 406 
Q 353 903 353 1747 
Q 353 2603 823 3093 
Q 1294 3584 2113 3584 
Q 2378 3584 2631 3529 
Q 2884 3475 3122 3366 
z
" transform="scale(0.015625)"/>
       <path id="DejaVuSans-68" d="M 3513 2113 
L 3513 0 
L 2938 0 
L 2938 2094 
Q 2938 2591 2744 2837 
Q 2550 3084 2163 3084 
Q 1697 3084 1428 2787 
Q 1159 2491 1159 1978 
L 1159 0 
L 581 0 
L 581 4863 
L 1159 4863 
L 1159 2956 
Q 1366 3272 1645 3428 
Q 1925 3584 2291 3584 
Q 2894 3584 3203 3211 
Q 3513 2838 3513 2113 
z
" transform="scale(0.015625)"/>
       <path id="DejaVuSans-20" transform="scale(0.015625)"/>
       <path id="DejaVuSans-73" d="M 2834 3397 
L 2834 2853 
Q 2591 2978 2328 3040 
Q 2066 3103 1784 3103 
Q 1356 3103 1142 2972 
Q 928 2841 928 2578 
Q 928 2378 1081 2264 
Q 1234 2150 1697 2047 
L 1894 2003 
Q 2506 1872 2764 1633 
Q 3022 1394 3022 966 
Q 3022 478 2636 193 
Q 2250 -91 1575 -91 
Q 1294 -91 989 -36 
Q 684 19 347 128 
L 347 722 
Q 666 556 975 473 
Q 1284 391 1588 391 
Q 1994 391 2212 530 
Q 2431 669 2431 922 
Q 2431 1156 2273 1281 
Q 2116 1406 1581 1522 
L 1381 1569 
Q 847 1681 609 1914 
Q 372 2147 372 2553 
Q 372 3047 722 3315 
Q 1072 3584 1716 3584 
Q 2034 3584 2315 3537 
Q 2597 3491 2834 3397 
z
" transform="scale(0.015625)"/>
       <path id="DejaVuSans-7a" d="M 353 3500 
L 3084 3500 
L 3084 2975 
L 922 459 
L 3084 459 
L 3084 0 
L 275 0 
L 275 525 
L 2438 3041 
L 353 3041 
L 353 3500 
z
" transform="scale(0.015625)"/>
       <path id="DejaVuSans-65" d="M 3597 1894 
L 3597 1613 
L 953 1613 
Q 991 1019 1311 708 
Q 1631 397 2203 397 
Q 2534 397 2845 478 
Q 3156 559 3463 722 
L 3463 178 
Q 3153 47 2828 -22 
Q 2503 -91 2169 -91 
Q 1331 -91 842 396 
Q 353 884 353 1716 
Q 353 2575 817 3079 
Q 1281 3584 2069 3584 
Q 2775 3584 3186 3129 
Q 3597 2675 3597 1894 
z
M 3022 2063 
Q 3016 2534 2758 2815 
Q 2500 3097 2075 3097 
Q 1594 3097 1305 2825 
Q 1016 2553 972 2059 
L 3022 2063 
z
" transform="scale(0.015625)"/>
       <path id="DejaVuSans-3a" d="M 750 794 
L 1409 794 
L 1409 0 
L 750 0 
L 750 794 
z
M 750 3309 
L 1409 3309 
L 1409 2516 
L 750 2516 
L 750 3309 
z
" transform="scale(0.015625)"/>
      </defs>
      <use xlink:href="#DejaVuSans-4d"/>
      <use xlink:href="#DejaVuSans-69" x="86.279297"/>
      <use xlink:href="#DejaVuSans-6e" x="114.0625"/>
      <use xlink:href="#DejaVuSans-69" x="177.441406"/>
      <use xlink:href="#DejaVuSans-2d" x="205.224609"/>
      <use xlink:href="#DejaVuSans-62" x="241.308594"/>
      <use xlink:href="#DejaVuSans-61" x="304.785156"/>
      <use xlink:href="#DejaVuSans-74" x="366.064453"/>
      <use xlink:href="#DejaVuSans-63" x="405.273438"/>
      <use xlink:href="#DejaVuSans-68" x="460.253906"/>
      <use xlink:href="#DejaVuSans-20" x="523.632812"/>
      <use xlink:href="#DejaVuSans-73" x="555.419922"/>
      <use xlink:href="#DejaVuSans-69" x="607.519531"/>
      <use xlink:href="#DejaVuSans-7a" x="635.302734"/>
      <use xlink:href="#DejaVuSans-65" x="687.792969"/>
      <use xlink:href="#DejaVuSans-3a" x="749.316406"/>
      <use xlink:href="#DejaVuSans-20" x="783.007812"/>
      <use xlink:href="#DejaVuSans-32" x="814.794922"/>
      <use xlink:href="#DejaVuSans-30" x="878.417969"/>
      <use xlink:href="#DejaVuSans-30" x="942.041016"/>
     </g>
    </g>
    <g id="line2d_22">
     <path d="M 263.070312 64.036406 
L 281.070312 64.036406 
L 299.070312 64.036406 
" style="fill: none; stroke: #0000ff; stroke-width: 2; stroke-linecap: square"/>
    </g>
    <g id="text_18">
     <!-- Mini-batch size: 100 -->
     <g transform="translate(313.470312 70.336406)scale(0.18 -0.18)">
      <use xlink:href="#DejaVuSans-4d"/>
      <use xlink:href="#DejaVuSans-69" x="86.279297"/>
      <use xlink:href="#DejaVuSans-6e" x="114.0625"/>
      <use xlink:href="#DejaVuSans-69" x="177.441406"/>
      <use xlink:href="#DejaVuSans-2d" x="205.224609"/>
      <use xlink:href="#DejaVuSans-62" x="241.308594"/>
      <use xlink:href="#DejaVuSans-61" x="304.785156"/>
      <use xlink:href="#DejaVuSans-74" x="366.064453"/>
      <use xlink:href="#DejaVuSans-63" x="405.273438"/>
      <use xlink:href="#DejaVuSans-68" x="460.253906"/>
      <use xlink:href="#DejaVuSans-20" x="523.632812"/>
      <use xlink:href="#DejaVuSans-73" x="555.419922"/>
      <use xlink:href="#DejaVuSans-69" x="607.519531"/>
      <use xlink:href="#DejaVuSans-7a" x="635.302734"/>
      <use xlink:href="#DejaVuSans-65" x="687.792969"/>
      <use xlink:href="#DejaVuSans-3a" x="749.316406"/>
      <use xlink:href="#DejaVuSans-20" x="783.007812"/>
      <use xlink:href="#DejaVuSans-31" x="814.794922"/>
      <use xlink:href="#DejaVuSans-30" x="878.417969"/>
      <use xlink:href="#DejaVuSans-30" x="942.041016"/>
     </g>
    </g>
    <g id="line2d_23">
     <path d="M 263.070312 90.457031 
L 281.070312 90.457031 
L 299.070312 90.457031 
" style="fill: none; stroke: #ff0000; stroke-width: 2; stroke-linecap: square"/>
    </g>
    <g id="text_19">
     <!-- Mini-batch size: 50 -->
     <g transform="translate(313.470312 96.757031)scale(0.18 -0.18)">
      <use xlink:href="#DejaVuSans-4d"/>
      <use xlink:href="#DejaVuSans-69" x="86.279297"/>
      <use xlink:href="#DejaVuSans-6e" x="114.0625"/>
      <use xlink:href="#DejaVuSans-69" x="177.441406"/>
      <use xlink:href="#DejaVuSans-2d" x="205.224609"/>
      <use xlink:href="#DejaVuSans-62" x="241.308594"/>
      <use xlink:href="#DejaVuSans-61" x="304.785156"/>
      <use xlink:href="#DejaVuSans-74" x="366.064453"/>
      <use xlink:href="#DejaVuSans-63" x="405.273438"/>
      <use xlink:href="#DejaVuSans-68" x="460.253906"/>
      <use xlink:href="#DejaVuSans-20" x="523.632812"/>
      <use xlink:href="#DejaVuSans-73" x="555.419922"/>
      <use xlink:href="#DejaVuSans-69" x="607.519531"/>
      <use xlink:href="#DejaVuSans-7a" x="635.302734"/>
      <use xlink:href="#DejaVuSans-65" x="687.792969"/>
      <use xlink:href="#DejaVuSans-3a" x="749.316406"/>
      <use xlink:href="#DejaVuSans-20" x="783.007812"/>
      <use xlink:href="#DejaVuSans-35" x="814.794922"/>
      <use xlink:href="#DejaVuSans-30" x="878.417969"/>
     </g>
    </g>
    <g id="line2d_24">
     <path d="M 263.070312 116.877656 
L 281.070312 116.877656 
L 299.070312 116.877656 
" style="fill: none; stroke: #008000; stroke-width: 2; stroke-linecap: square"/>
    </g>
    <g id="text_20">
     <!-- Mini-batch size: 20 -->
     <g transform="translate(313.470312 123.177656)scale(0.18 -0.18)">
      <use xlink:href="#DejaVuSans-4d"/>
      <use xlink:href="#DejaVuSans-69" x="86.279297"/>
      <use xlink:href="#DejaVuSans-6e" x="114.0625"/>
      <use xlink:href="#DejaVuSans-69" x="177.441406"/>
      <use xlink:href="#DejaVuSans-2d" x="205.224609"/>
      <use xlink:href="#DejaVuSans-62" x="241.308594"/>
      <use xlink:href="#DejaVuSans-61" x="304.785156"/>
      <use xlink:href="#DejaVuSans-74" x="366.064453"/>
      <use xlink:href="#DejaVuSans-63" x="405.273438"/>
      <use xlink:href="#DejaVuSans-68" x="460.253906"/>
      <use xlink:href="#DejaVuSans-20" x="523.632812"/>
      <use xlink:href="#DejaVuSans-73" x="555.419922"/>
      <use xlink:href="#DejaVuSans-69" x="607.519531"/>
      <use xlink:href="#DejaVuSans-7a" x="635.302734"/>
      <use xlink:href="#DejaVuSans-65" x="687.792969"/>
      <use xlink:href="#DejaVuSans-3a" x="749.316406"/>
      <use xlink:href="#DejaVuSans-20" x="783.007812"/>
      <use xlink:href="#DejaVuSans-32" x="814.794922"/>
      <use xlink:href="#DejaVuSans-30" x="878.417969"/>
     </g>
    </g>
    <g id="line2d_25">
     <path d="M 263.070312 143.298281 
L 281.070312 143.298281 
L 299.070312 143.298281 
" style="fill: none; stroke: #ff00ff; stroke-width: 2; stroke-linecap: square"/>
    </g>
    <g id="text_21">
     <!-- Mini-batch size: 10 -->
     <g transform="translate(313.470312 149.598281)scale(0.18 -0.18)">
      <use xlink:href="#DejaVuSans-4d"/>
      <use xlink:href="#DejaVuSans-69" x="86.279297"/>
      <use xlink:href="#DejaVuSans-6e" x="114.0625"/>
      <use xlink:href="#DejaVuSans-69" x="177.441406"/>
      <use xlink:href="#DejaVuSans-2d" x="205.224609"/>
      <use xlink:href="#DejaVuSans-62" x="241.308594"/>
      <use xlink:href="#DejaVuSans-61" x="304.785156"/>
      <use xlink:href="#DejaVuSans-74" x="366.064453"/>
      <use xlink:href="#DejaVuSans-63" x="405.273438"/>
      <use xlink:href="#DejaVuSans-68" x="460.253906"/>
      <use xlink:href="#DejaVuSans-20" x="523.632812"/>
      <use xlink:href="#DejaVuSans-73" x="555.419922"/>
      <use xlink:href="#DejaVuSans-69" x="607.519531"/>
      <use xlink:href="#DejaVuSans-7a" x="635.302734"/>
      <use xlink:href="#DejaVuSans-65" x="687.792969"/>
      <use xlink:href="#DejaVuSans-3a" x="749.316406"/>
      <use xlink:href="#DejaVuSans-20" x="783.007812"/>
      <use xlink:href="#DejaVuSans-31" x="814.794922"/>
      <use xlink:href="#DejaVuSans-30" x="878.417969"/>
     </g>
    </g>
    <g id="line2d_26">
     <path d="M 263.070312 169.718906 
L 281.070312 169.718906 
L 299.070312 169.718906 
" style="fill: none; stroke: #ffff00; stroke-width: 2; stroke-linecap: square"/>
    </g>
    <g id="text_22">
     <!-- Mini-batch size: 5 -->
     <g transform="translate(313.470312 176.018906)scale(0.18 -0.18)">
      <use xlink:href="#DejaVuSans-4d"/>
      <use xlink:href="#DejaVuSans-69" x="86.279297"/>
      <use xlink:href="#DejaVuSans-6e" x="114.0625"/>
      <use xlink:href="#DejaVuSans-69" x="177.441406"/>
      <use xlink:href="#DejaVuSans-2d" x="205.224609"/>
      <use xlink:href="#DejaVuSans-62" x="241.308594"/>
      <use xlink:href="#DejaVuSans-61" x="304.785156"/>
      <use xlink:href="#DejaVuSans-74" x="366.064453"/>
      <use xlink:href="#DejaVuSans-63" x="405.273438"/>
      <use xlink:href="#DejaVuSans-68" x="460.253906"/>
      <use xlink:href="#DejaVuSans-20" x="523.632812"/>
      <use xlink:href="#DejaVuSans-73" x="555.419922"/>
      <use xlink:href="#DejaVuSans-69" x="607.519531"/>
      <use xlink:href="#DejaVuSans-7a" x="635.302734"/>
      <use xlink:href="#DejaVuSans-65" x="687.792969"/>
      <use xlink:href="#DejaVuSans-3a" x="749.316406"/>
      <use xlink:href="#DejaVuSans-20" x="783.007812"/>
      <use xlink:href="#DejaVuSans-35" x="814.794922"/>
     </g>
    </g>
   </g>
  </g>
 </g>
 <defs>
  <clipPath id="p1e8a71c256">
   <rect x="64.285625" y="14.038594" width="446.4" height="277.2"/>
  </clipPath>
 </defs>
</svg>
