<?xml version="1.0" encoding="utf-8" standalone="no"?>
<!DOCTYPE svg PUBLIC "-//W3C//DTD SVG 1.1//EN"
  "http://www.w3.org/Graphics/SVG/1.1/DTD/svg11.dtd">
<svg xmlns:xlink="http://www.w3.org/1999/xlink" width="534.729687pt" height="356.496875pt" viewBox="0 0 534.729687 356.496875" xmlns="http://www.w3.org/2000/svg" version="1.1">
 <metadata>
  <rdf:RDF xmlns:dc="http://purl.org/dc/elements/1.1/" xmlns:cc="http://creativecommons.org/ns#" xmlns:rdf="http://www.w3.org/1999/02/22-rdf-syntax-ns#">
   <cc:Work>
    <dc:type rdf:resource="http://purl.org/dc/dcmitype/StillImage"/>
    <dc:date>2022-12-28T12:12:05.059138</dc:date>
    <dc:format>image/svg+xml</dc:format>
    <dc:creator>
     <cc:Agent>
      <dc:title>Matplotlib v3.5.2, https://matplotlib.org/</dc:title>
     </cc:Agent>
    </dc:creator>
   </cc:Work>
  </rdf:RDF>
 </metadata>
 <defs>
  <style type="text/css">*{stroke-linejoin: round; stroke-linecap: butt}</style>
 </defs>
 <g id="figure_1">
  <g id="patch_1">
   <path d="M 0 356.496875 
L 534.729687 356.496875 
L 534.729687 0 
L 0 0 
z
" style="fill: #ffffff"/>
  </g>
  <g id="axes_1">
   <g id="patch_2">
    <path d="M 58.224688 304.026563 
L 504.624687 304.026563 
L 504.624687 26.826562 
L 58.224688 26.826562 
z
" style="fill: #f1f7f0"/>
   </g>
   <g id="matplotlib.axis_1">
    <g id="xtick_1">
     <g id="line2d_1">
      <defs>
       <path id="mcd730b7a85" d="M 0 0 
L 0 3.5 
" style="stroke: #000000; stroke-width: 0.8"/>
      </defs>
      <g>
       <use xlink:href="#mcd730b7a85" x="58.224688" y="304.026563" style="stroke: #000000; stroke-width: 0.8"/>
      </g>
     </g>
     <g id="text_1">
      <!-- 0 -->
      <g transform="translate(52.498438 324.70375)scale(0.18 -0.18)">
       <defs>
        <path id="DejaVuSans-30" d="M 2034 4250 
Q 1547 4250 1301 3770 
Q 1056 3291 1056 2328 
Q 1056 1369 1301 889 
Q 1547 409 2034 409 
Q 2525 409 2770 889 
Q 3016 1369 3016 2328 
Q 3016 3291 2770 3770 
Q 2525 4250 2034 4250 
z
M 2034 4750 
Q 2819 4750 3233 4129 
Q 3647 3509 3647 2328 
Q 3647 1150 3233 529 
Q 2819 -91 2034 -91 
Q 1250 -91 836 529 
Q 422 1150 422 2328 
Q 422 3509 836 4129 
Q 1250 4750 2034 4750 
z
" transform="scale(0.015625)"/>
       </defs>
       <use xlink:href="#DejaVuSans-30"/>
      </g>
     </g>
    </g>
    <g id="xtick_2">
     <g id="line2d_2">
      <g>
       <use xlink:href="#mcd730b7a85" x="147.504687" y="304.026563" style="stroke: #000000; stroke-width: 0.8"/>
      </g>
     </g>
     <g id="text_2">
      <!-- 200 -->
      <g transform="translate(130.325937 324.70375)scale(0.18 -0.18)">
       <defs>
        <path id="DejaVuSans-32" d="M 1228 531 
L 3431 531 
L 3431 0 
L 469 0 
L 469 531 
Q 828 903 1448 1529 
Q 2069 2156 2228 2338 
Q 2531 2678 2651 2914 
Q 2772 3150 2772 3378 
Q 2772 3750 2511 3984 
Q 2250 4219 1831 4219 
Q 1534 4219 1204 4116 
Q 875 4013 500 3803 
L 500 4441 
Q 881 4594 1212 4672 
Q 1544 4750 1819 4750 
Q 2544 4750 2975 4387 
Q 3406 4025 3406 3419 
Q 3406 3131 3298 2873 
Q 3191 2616 2906 2266 
Q 2828 2175 2409 1742 
Q 1991 1309 1228 531 
z
" transform="scale(0.015625)"/>
       </defs>
       <use xlink:href="#DejaVuSans-32"/>
       <use xlink:href="#DejaVuSans-30" x="63.623047"/>
       <use xlink:href="#DejaVuSans-30" x="127.246094"/>
      </g>
     </g>
    </g>
    <g id="xtick_3">
     <g id="line2d_3">
      <g>
       <use xlink:href="#mcd730b7a85" x="236.784687" y="304.026563" style="stroke: #000000; stroke-width: 0.8"/>
      </g>
     </g>
     <g id="text_3">
      <!-- 400 -->
      <g transform="translate(219.605937 324.70375)scale(0.18 -0.18)">
       <defs>
        <path id="DejaVuSans-34" d="M 2419 4116 
L 825 1625 
L 2419 1625 
L 2419 4116 
z
M 2253 4666 
L 3047 4666 
L 3047 1625 
L 3713 1625 
L 3713 1100 
L 3047 1100 
L 3047 0 
L 2419 0 
L 2419 1100 
L 313 1100 
L 313 1709 
L 2253 4666 
z
" transform="scale(0.015625)"/>
       </defs>
       <use xlink:href="#DejaVuSans-34"/>
       <use xlink:href="#DejaVuSans-30" x="63.623047"/>
       <use xlink:href="#DejaVuSans-30" x="127.246094"/>
      </g>
     </g>
    </g>
    <g id="xtick_4">
     <g id="line2d_4">
      <g>
       <use xlink:href="#mcd730b7a85" x="326.064687" y="304.026563" style="stroke: #000000; stroke-width: 0.8"/>
      </g>
     </g>
     <g id="text_4">
      <!-- 600 -->
      <g transform="translate(308.885938 324.70375)scale(0.18 -0.18)">
       <defs>
        <path id="DejaVuSans-36" d="M 2113 2584 
Q 1688 2584 1439 2293 
Q 1191 2003 1191 1497 
Q 1191 994 1439 701 
Q 1688 409 2113 409 
Q 2538 409 2786 701 
Q 3034 994 3034 1497 
Q 3034 2003 2786 2293 
Q 2538 2584 2113 2584 
z
M 3366 4563 
L 3366 3988 
Q 3128 4100 2886 4159 
Q 2644 4219 2406 4219 
Q 1781 4219 1451 3797 
Q 1122 3375 1075 2522 
Q 1259 2794 1537 2939 
Q 1816 3084 2150 3084 
Q 2853 3084 3261 2657 
Q 3669 2231 3669 1497 
Q 3669 778 3244 343 
Q 2819 -91 2113 -91 
Q 1303 -91 875 529 
Q 447 1150 447 2328 
Q 447 3434 972 4092 
Q 1497 4750 2381 4750 
Q 2619 4750 2861 4703 
Q 3103 4656 3366 4563 
z
" transform="scale(0.015625)"/>
       </defs>
       <use xlink:href="#DejaVuSans-36"/>
       <use xlink:href="#DejaVuSans-30" x="63.623047"/>
       <use xlink:href="#DejaVuSans-30" x="127.246094"/>
      </g>
     </g>
    </g>
    <g id="xtick_5">
     <g id="line2d_5">
      <g>
       <use xlink:href="#mcd730b7a85" x="415.344687" y="304.026563" style="stroke: #000000; stroke-width: 0.8"/>
      </g>
     </g>
     <g id="text_5">
      <!-- 800 -->
      <g transform="translate(398.165937 324.70375)scale(0.18 -0.18)">
       <defs>
        <path id="DejaVuSans-38" d="M 2034 2216 
Q 1584 2216 1326 1975 
Q 1069 1734 1069 1313 
Q 1069 891 1326 650 
Q 1584 409 2034 409 
Q 2484 409 2743 651 
Q 3003 894 3003 1313 
Q 3003 1734 2745 1975 
Q 2488 2216 2034 2216 
z
M 1403 2484 
Q 997 2584 770 2862 
Q 544 3141 544 3541 
Q 544 4100 942 4425 
Q 1341 4750 2034 4750 
Q 2731 4750 3128 4425 
Q 3525 4100 3525 3541 
Q 3525 3141 3298 2862 
Q 3072 2584 2669 2484 
Q 3125 2378 3379 2068 
Q 3634 1759 3634 1313 
Q 3634 634 3220 271 
Q 2806 -91 2034 -91 
Q 1263 -91 848 271 
Q 434 634 434 1313 
Q 434 1759 690 2068 
Q 947 2378 1403 2484 
z
M 1172 3481 
Q 1172 3119 1398 2916 
Q 1625 2713 2034 2713 
Q 2441 2713 2670 2916 
Q 2900 3119 2900 3481 
Q 2900 3844 2670 4047 
Q 2441 4250 2034 4250 
Q 1625 4250 1398 4047 
Q 1172 3844 1172 3481 
z
" transform="scale(0.015625)"/>
       </defs>
       <use xlink:href="#DejaVuSans-38"/>
       <use xlink:href="#DejaVuSans-30" x="63.623047"/>
       <use xlink:href="#DejaVuSans-30" x="127.246094"/>
      </g>
     </g>
    </g>
    <g id="xtick_6">
     <g id="line2d_6">
      <g>
       <use xlink:href="#mcd730b7a85" x="504.624687" y="304.026563" style="stroke: #000000; stroke-width: 0.8"/>
      </g>
     </g>
     <g id="text_6">
      <!-- 1000 -->
      <g transform="translate(481.719688 324.70375)scale(0.18 -0.18)">
       <defs>
        <path id="DejaVuSans-31" d="M 794 531 
L 1825 531 
L 1825 4091 
L 703 3866 
L 703 4441 
L 1819 4666 
L 2450 4666 
L 2450 531 
L 3481 531 
L 3481 0 
L 794 0 
L 794 531 
z
" transform="scale(0.015625)"/>
       </defs>
       <use xlink:href="#DejaVuSans-31"/>
       <use xlink:href="#DejaVuSans-30" x="63.623047"/>
       <use xlink:href="#DejaVuSans-30" x="127.246094"/>
       <use xlink:href="#DejaVuSans-30" x="190.869141"/>
      </g>
     </g>
    </g>
    <g id="text_7">
     <!-- Number of Iterations -->
     <g transform="translate(185.751875 345.80375)scale(0.18 -0.18)">
      <defs>
       <path id="Montserrat-Medium-4e" d="M 4525 4480 
L 4525 0 
L 4000 0 
L 1312 3341 
L 1312 0 
L 672 0 
L 672 4480 
L 1197 4480 
L 3885 1139 
L 3885 4480 
L 4525 4480 
z
" transform="scale(0.015625)"/>
       <path id="Montserrat-Medium-75" d="M 3744 3392 
L 3744 0 
L 3162 0 
L 3162 512 
Q 2976 250 2672 106 
Q 2368 -38 2010 -38 
Q 1331 -38 940 336 
Q 550 710 550 1440 
L 550 3392 
L 1165 3392 
L 1165 1510 
Q 1165 1018 1401 765 
Q 1638 512 2080 512 
Q 2566 512 2848 806 
Q 3130 1101 3130 1638 
L 3130 3392 
L 3744 3392 
z
" transform="scale(0.015625)"/>
       <path id="Montserrat-Medium-6d" d="M 4826 3424 
Q 5466 3424 5840 3053 
Q 6214 2682 6214 1952 
L 6214 0 
L 5600 0 
L 5600 1882 
Q 5600 2374 5373 2624 
Q 5146 2874 4723 2874 
Q 4256 2874 3981 2582 
Q 3706 2291 3706 1747 
L 3706 0 
L 3091 0 
L 3091 1882 
Q 3091 2374 2864 2624 
Q 2637 2874 2214 2874 
Q 1747 2874 1472 2582 
Q 1197 2291 1197 1747 
L 1197 0 
L 582 0 
L 582 3392 
L 1171 3392 
L 1171 2886 
Q 1357 3149 1657 3286 
Q 1958 3424 2342 3424 
Q 2739 3424 3046 3264 
Q 3354 3104 3520 2797 
Q 3712 3091 4054 3257 
Q 4397 3424 4826 3424 
z
" transform="scale(0.015625)"/>
       <path id="Montserrat-Medium-62" d="M 2381 3424 
Q 2874 3424 3264 3206 
Q 3654 2989 3875 2598 
Q 4096 2208 4096 1696 
Q 4096 1184 3875 790 
Q 3654 397 3264 179 
Q 2874 -38 2381 -38 
Q 2003 -38 1689 109 
Q 1376 256 1171 538 
L 1171 0 
L 582 0 
L 582 4749 
L 1197 4749 
L 1197 2880 
Q 1402 3149 1709 3286 
Q 2016 3424 2381 3424 
z
M 2330 499 
Q 2656 499 2915 649 
Q 3174 800 3324 1072 
Q 3475 1344 3475 1696 
Q 3475 2048 3324 2320 
Q 3174 2592 2915 2739 
Q 2656 2886 2330 2886 
Q 2010 2886 1747 2739 
Q 1485 2592 1337 2320 
Q 1190 2048 1190 1696 
Q 1190 1344 1337 1072 
Q 1485 800 1747 649 
Q 2010 499 2330 499 
z
" transform="scale(0.015625)"/>
       <path id="Montserrat-Medium-65" d="M 3648 1677 
Q 3648 1606 3635 1491 
L 883 1491 
Q 941 1043 1277 771 
Q 1613 499 2112 499 
Q 2720 499 3091 909 
L 3430 512 
Q 3200 243 2857 102 
Q 2515 -38 2093 -38 
Q 1555 -38 1139 182 
Q 723 403 496 800 
Q 269 1197 269 1696 
Q 269 2189 489 2585 
Q 710 2982 1097 3203 
Q 1485 3424 1971 3424 
Q 2458 3424 2838 3203 
Q 3219 2982 3433 2585 
Q 3648 2189 3648 1677 
z
M 1971 2906 
Q 1530 2906 1232 2637 
Q 934 2368 883 1933 
L 3059 1933 
Q 3008 2362 2710 2634 
Q 2413 2906 1971 2906 
z
" transform="scale(0.015625)"/>
       <path id="Montserrat-Medium-72" d="M 1171 2822 
Q 1331 3117 1644 3270 
Q 1958 3424 2406 3424 
L 2406 2829 
Q 2355 2835 2266 2835 
Q 1766 2835 1481 2537 
Q 1197 2240 1197 1690 
L 1197 0 
L 582 0 
L 582 3392 
L 1171 3392 
L 1171 2822 
z
" transform="scale(0.015625)"/>
       <path id="Montserrat-Medium-20" transform="scale(0.015625)"/>
       <path id="Montserrat-Medium-6f" d="M 2035 -38 
Q 1530 -38 1126 186 
Q 723 410 496 803 
Q 269 1197 269 1696 
Q 269 2195 496 2588 
Q 723 2982 1126 3203 
Q 1530 3424 2035 3424 
Q 2541 3424 2941 3203 
Q 3341 2982 3568 2588 
Q 3795 2195 3795 1696 
Q 3795 1197 3568 803 
Q 3341 410 2941 186 
Q 2541 -38 2035 -38 
z
M 2035 499 
Q 2362 499 2621 649 
Q 2880 800 3027 1072 
Q 3174 1344 3174 1696 
Q 3174 2048 3027 2320 
Q 2880 2592 2621 2739 
Q 2362 2886 2035 2886 
Q 1709 2886 1449 2739 
Q 1190 2592 1040 2320 
Q 890 2048 890 1696 
Q 890 1344 1040 1072 
Q 1190 800 1449 649 
Q 1709 499 2035 499 
z
" transform="scale(0.015625)"/>
       <path id="Montserrat-Medium-66" d="M 1824 4282 
Q 1274 4282 1274 3686 
L 1274 3392 
L 2259 3392 
L 2259 2886 
L 1286 2886 
L 1286 0 
L 672 0 
L 672 2886 
L 96 2886 
L 96 3392 
L 672 3392 
L 672 3693 
Q 672 4198 966 4492 
Q 1261 4787 1792 4787 
Q 1997 4787 2176 4736 
Q 2355 4685 2483 4589 
L 2298 4122 
Q 2086 4282 1824 4282 
z
" transform="scale(0.015625)"/>
       <path id="Montserrat-Medium-49" d="M 672 4480 
L 1312 4480 
L 1312 0 
L 672 0 
L 672 4480 
z
" transform="scale(0.015625)"/>
       <path id="Montserrat-Medium-74" d="M 2490 198 
Q 2355 83 2156 22 
Q 1958 -38 1747 -38 
Q 1235 -38 953 237 
Q 672 512 672 1024 
L 672 2886 
L 96 2886 
L 96 3392 
L 672 3392 
L 672 4134 
L 1286 4134 
L 1286 3392 
L 2259 3392 
L 2259 2886 
L 1286 2886 
L 1286 1050 
Q 1286 774 1424 627 
Q 1562 480 1818 480 
Q 2099 480 2298 640 
L 2490 198 
z
" transform="scale(0.015625)"/>
       <path id="Montserrat-Medium-61" d="M 1818 3424 
Q 2522 3424 2896 3078 
Q 3270 2733 3270 2048 
L 3270 0 
L 2688 0 
L 2688 448 
Q 2534 211 2249 86 
Q 1965 -38 1574 -38 
Q 1005 -38 662 237 
Q 320 512 320 960 
Q 320 1408 646 1680 
Q 973 1952 1683 1952 
L 2656 1952 
L 2656 2074 
Q 2656 2470 2425 2681 
Q 2195 2893 1747 2893 
Q 1446 2893 1158 2793 
Q 870 2694 672 2528 
L 416 2989 
Q 678 3200 1043 3312 
Q 1408 3424 1818 3424 
z
M 1677 435 
Q 2029 435 2285 592 
Q 2541 749 2656 1037 
L 2656 1510 
L 1709 1510 
Q 928 1510 928 986 
Q 928 730 1126 582 
Q 1325 435 1677 435 
z
" transform="scale(0.015625)"/>
       <path id="Montserrat-Medium-69" d="M 582 3392 
L 1197 3392 
L 1197 0 
L 582 0 
L 582 3392 
z
M 890 4045 
Q 710 4045 592 4160 
Q 474 4275 474 4442 
Q 474 4608 592 4726 
Q 710 4845 890 4845 
Q 1069 4845 1187 4733 
Q 1306 4621 1306 4454 
Q 1306 4282 1187 4163 
Q 1069 4045 890 4045 
z
" transform="scale(0.015625)"/>
       <path id="Montserrat-Medium-6e" d="M 2394 3424 
Q 3040 3424 3421 3049 
Q 3802 2675 3802 1952 
L 3802 0 
L 3187 0 
L 3187 1882 
Q 3187 2374 2950 2624 
Q 2714 2874 2272 2874 
Q 1773 2874 1485 2582 
Q 1197 2291 1197 1747 
L 1197 0 
L 582 0 
L 582 3392 
L 1171 3392 
L 1171 2880 
Q 1357 3142 1673 3283 
Q 1990 3424 2394 3424 
z
" transform="scale(0.015625)"/>
       <path id="Montserrat-Medium-73" d="M 1555 -38 
Q 1139 -38 755 74 
Q 371 186 154 358 
L 410 845 
Q 634 685 954 589 
Q 1274 493 1600 493 
Q 2406 493 2406 954 
Q 2406 1107 2297 1196 
Q 2189 1286 2025 1328 
Q 1862 1370 1562 1421 
Q 1152 1485 893 1568 
Q 634 1651 448 1849 
Q 262 2048 262 2406 
Q 262 2867 646 3145 
Q 1030 3424 1677 3424 
Q 2016 3424 2355 3341 
Q 2694 3258 2912 3117 
L 2650 2630 
Q 2234 2899 1670 2899 
Q 1280 2899 1075 2771 
Q 870 2643 870 2432 
Q 870 2266 985 2170 
Q 1101 2074 1270 2029 
Q 1440 1984 1747 1926 
Q 2157 1856 2409 1776 
Q 2662 1696 2841 1504 
Q 3021 1312 3021 966 
Q 3021 506 2627 234 
Q 2234 -38 1555 -38 
z
" transform="scale(0.015625)"/>
      </defs>
      <use xlink:href="#Montserrat-Medium-4e"/>
      <use xlink:href="#Montserrat-Medium-75" x="81.199982"/>
      <use xlink:href="#Montserrat-Medium-6d" x="148.899963"/>
      <use xlink:href="#Montserrat-Medium-62" x="254.599945"/>
      <use xlink:href="#Montserrat-Medium-65" x="322.799927"/>
      <use xlink:href="#Montserrat-Medium-72" x="383.999924"/>
      <use xlink:href="#Montserrat-Medium-20" x="424.999908"/>
      <use xlink:href="#Montserrat-Medium-6f" x="451.899902"/>
      <use xlink:href="#Montserrat-Medium-66" x="515.399887"/>
      <use xlink:href="#Montserrat-Medium-20" x="550.699875"/>
      <use xlink:href="#Montserrat-Medium-49" x="577.599869"/>
      <use xlink:href="#Montserrat-Medium-74" x="608.599854"/>
      <use xlink:href="#Montserrat-Medium-65" x="649.999847"/>
      <use xlink:href="#Montserrat-Medium-72" x="711.199844"/>
      <use xlink:href="#Montserrat-Medium-61" x="752.199829"/>
      <use xlink:href="#Montserrat-Medium-74" x="811.999817"/>
      <use xlink:href="#Montserrat-Medium-69" x="853.399811"/>
      <use xlink:href="#Montserrat-Medium-6f" x="881.299805"/>
      <use xlink:href="#Montserrat-Medium-6e" x="944.799789"/>
      <use xlink:href="#Montserrat-Medium-73" x="1012.89978"/>
     </g>
    </g>
   </g>
   <g id="matplotlib.axis_2">
    <g id="ytick_1">
     <g id="line2d_7">
      <defs>
       <path id="m62f6599034" d="M 0 0 
L -3.5 0 
" style="stroke: #000000; stroke-width: 0.8"/>
      </defs>
      <g>
       <use xlink:href="#m62f6599034" x="58.224688" y="304.026563" style="stroke: #000000; stroke-width: 0.8"/>
      </g>
     </g>
     <g id="text_8">
      <!-- 0 -->
      <g transform="translate(39.772188 310.865156)scale(0.18 -0.18)">
       <use xlink:href="#DejaVuSans-30"/>
      </g>
     </g>
    </g>
    <g id="ytick_2">
     <g id="line2d_8">
      <g>
       <use xlink:href="#m62f6599034" x="58.224688" y="248.586563" style="stroke: #000000; stroke-width: 0.8"/>
      </g>
     </g>
     <g id="text_9">
      <!-- 10 -->
      <g transform="translate(28.319688 255.425156)scale(0.18 -0.18)">
       <use xlink:href="#DejaVuSans-31"/>
       <use xlink:href="#DejaVuSans-30" x="63.623047"/>
      </g>
     </g>
    </g>
    <g id="ytick_3">
     <g id="line2d_9">
      <g>
       <use xlink:href="#m62f6599034" x="58.224688" y="193.146562" style="stroke: #000000; stroke-width: 0.8"/>
      </g>
     </g>
     <g id="text_10">
      <!-- 20 -->
      <g transform="translate(28.319688 199.985156)scale(0.18 -0.18)">
       <use xlink:href="#DejaVuSans-32"/>
       <use xlink:href="#DejaVuSans-30" x="63.623047"/>
      </g>
     </g>
    </g>
    <g id="ytick_4">
     <g id="line2d_10">
      <g>
       <use xlink:href="#m62f6599034" x="58.224688" y="137.706562" style="stroke: #000000; stroke-width: 0.8"/>
      </g>
     </g>
     <g id="text_11">
      <!-- 30 -->
      <g transform="translate(28.319688 144.545156)scale(0.18 -0.18)">
       <defs>
        <path id="DejaVuSans-33" d="M 2597 2516 
Q 3050 2419 3304 2112 
Q 3559 1806 3559 1356 
Q 3559 666 3084 287 
Q 2609 -91 1734 -91 
Q 1441 -91 1130 -33 
Q 819 25 488 141 
L 488 750 
Q 750 597 1062 519 
Q 1375 441 1716 441 
Q 2309 441 2620 675 
Q 2931 909 2931 1356 
Q 2931 1769 2642 2001 
Q 2353 2234 1838 2234 
L 1294 2234 
L 1294 2753 
L 1863 2753 
Q 2328 2753 2575 2939 
Q 2822 3125 2822 3475 
Q 2822 3834 2567 4026 
Q 2313 4219 1838 4219 
Q 1578 4219 1281 4162 
Q 984 4106 628 3988 
L 628 4550 
Q 988 4650 1302 4700 
Q 1616 4750 1894 4750 
Q 2613 4750 3031 4423 
Q 3450 4097 3450 3541 
Q 3450 3153 3228 2886 
Q 3006 2619 2597 2516 
z
" transform="scale(0.015625)"/>
       </defs>
       <use xlink:href="#DejaVuSans-33"/>
       <use xlink:href="#DejaVuSans-30" x="63.623047"/>
      </g>
     </g>
    </g>
    <g id="ytick_5">
     <g id="line2d_11">
      <g>
       <use xlink:href="#m62f6599034" x="58.224688" y="82.266562" style="stroke: #000000; stroke-width: 0.8"/>
      </g>
     </g>
     <g id="text_12">
      <!-- 40 -->
      <g transform="translate(28.319688 89.105156)scale(0.18 -0.18)">
       <use xlink:href="#DejaVuSans-34"/>
       <use xlink:href="#DejaVuSans-30" x="63.623047"/>
      </g>
     </g>
    </g>
    <g id="ytick_6">
     <g id="line2d_12">
      <g>
       <use xlink:href="#m62f6599034" x="58.224688" y="26.826562" style="stroke: #000000; stroke-width: 0.8"/>
      </g>
     </g>
     <g id="text_13">
      <!-- 50 -->
      <g transform="translate(28.319688 33.665156)scale(0.18 -0.18)">
       <defs>
        <path id="DejaVuSans-35" d="M 691 4666 
L 3169 4666 
L 3169 4134 
L 1269 4134 
L 1269 2991 
Q 1406 3038 1543 3061 
Q 1681 3084 1819 3084 
Q 2600 3084 3056 2656 
Q 3513 2228 3513 1497 
Q 3513 744 3044 326 
Q 2575 -91 1722 -91 
Q 1428 -91 1123 -41 
Q 819 9 494 109 
L 494 744 
Q 775 591 1075 516 
Q 1375 441 1709 441 
Q 2250 441 2565 725 
Q 2881 1009 2881 1497 
Q 2881 1984 2565 2268 
Q 2250 2553 1709 2553 
Q 1456 2553 1204 2497 
Q 953 2441 691 2322 
L 691 4666 
z
" transform="scale(0.015625)"/>
       </defs>
       <use xlink:href="#DejaVuSans-35"/>
       <use xlink:href="#DejaVuSans-30" x="63.623047"/>
      </g>
     </g>
    </g>
    <g id="text_14">
     <!-- Cost Function (MSE) -->
     <g transform="translate(20.826562 258.171562)rotate(-90)scale(0.18 -0.18)">
      <defs>
       <path id="Montserrat-Medium-43" d="M 2675 -51 
Q 2003 -51 1462 246 
Q 922 544 614 1065 
Q 307 1587 307 2240 
Q 307 2893 614 3414 
Q 922 3936 1466 4233 
Q 2010 4531 2682 4531 
Q 3206 4531 3641 4355 
Q 4077 4179 4384 3834 
L 3968 3430 
Q 3462 3962 2707 3962 
Q 2208 3962 1805 3738 
Q 1402 3514 1174 3120 
Q 947 2726 947 2240 
Q 947 1754 1174 1360 
Q 1402 966 1805 742 
Q 2208 518 2707 518 
Q 3456 518 3968 1056 
L 4384 653 
Q 4077 307 3638 128 
Q 3200 -51 2675 -51 
z
" transform="scale(0.015625)"/>
       <path id="Montserrat-Medium-46" d="M 1312 3923 
L 1312 2362 
L 3558 2362 
L 3558 1811 
L 1312 1811 
L 1312 0 
L 672 0 
L 672 4480 
L 3834 4480 
L 3834 3923 
L 1312 3923 
z
" transform="scale(0.015625)"/>
       <path id="Montserrat-Medium-63" d="M 2061 -38 
Q 1542 -38 1136 186 
Q 730 410 499 803 
Q 269 1197 269 1696 
Q 269 2195 499 2588 
Q 730 2982 1136 3203 
Q 1542 3424 2061 3424 
Q 2522 3424 2883 3238 
Q 3245 3053 3443 2701 
L 2976 2400 
Q 2816 2643 2579 2764 
Q 2342 2886 2054 2886 
Q 1722 2886 1456 2739 
Q 1190 2592 1040 2320 
Q 890 2048 890 1696 
Q 890 1338 1040 1066 
Q 1190 794 1456 646 
Q 1722 499 2054 499 
Q 2342 499 2579 620 
Q 2816 742 2976 986 
L 3443 691 
Q 3245 339 2883 150 
Q 2522 -38 2061 -38 
z
" transform="scale(0.015625)"/>
       <path id="Montserrat-Medium-28" d="M 1370 -1242 
Q 1005 -653 806 112 
Q 608 877 608 1754 
Q 608 2630 806 3401 
Q 1005 4173 1370 4749 
L 1952 4749 
Q 1568 4077 1389 3341 
Q 1210 2605 1210 1754 
Q 1210 902 1389 166 
Q 1568 -570 1952 -1242 
L 1370 -1242 
z
" transform="scale(0.015625)"/>
       <path id="Montserrat-Medium-4d" d="M 4826 0 
L 4819 3264 
L 3200 544 
L 2906 544 
L 1286 3245 
L 1286 0 
L 672 0 
L 672 4480 
L 1197 4480 
L 3066 1331 
L 4909 4480 
L 5434 4480 
L 5440 0 
L 4826 0 
z
" transform="scale(0.015625)"/>
       <path id="Montserrat-Medium-53" d="M 1978 -51 
Q 1472 -51 1001 105 
Q 531 262 262 512 
L 499 1011 
Q 755 781 1155 637 
Q 1555 493 1978 493 
Q 2534 493 2809 681 
Q 3085 870 3085 1184 
Q 3085 1414 2934 1558 
Q 2784 1702 2563 1779 
Q 2342 1856 1939 1952 
Q 1434 2074 1123 2195 
Q 813 2317 592 2569 
Q 371 2822 371 3251 
Q 371 3610 560 3898 
Q 749 4186 1133 4358 
Q 1517 4531 2086 4531 
Q 2483 4531 2867 4428 
Q 3251 4326 3526 4134 
L 3315 3622 
Q 3034 3802 2714 3894 
Q 2394 3987 2086 3987 
Q 1542 3987 1270 3788 
Q 998 3590 998 3277 
Q 998 3046 1152 2902 
Q 1306 2758 1533 2678 
Q 1760 2598 2150 2509 
Q 2656 2387 2963 2265 
Q 3270 2144 3491 1894 
Q 3712 1645 3712 1222 
Q 3712 870 3520 579 
Q 3328 288 2937 118 
Q 2547 -51 1978 -51 
z
" transform="scale(0.015625)"/>
       <path id="Montserrat-Medium-45" d="M 3923 557 
L 3923 0 
L 672 0 
L 672 4480 
L 3834 4480 
L 3834 3923 
L 1312 3923 
L 1312 2547 
L 3558 2547 
L 3558 2003 
L 1312 2003 
L 1312 557 
L 3923 557 
z
" transform="scale(0.015625)"/>
       <path id="Montserrat-Medium-29" d="M 205 -1242 
Q 589 -570 771 166 
Q 954 902 954 1754 
Q 954 2605 771 3341 
Q 589 4077 205 4749 
L 787 4749 
Q 1158 4173 1356 3405 
Q 1555 2637 1555 1754 
Q 1555 877 1356 109 
Q 1158 -659 787 -1242 
L 205 -1242 
z
" transform="scale(0.015625)"/>
      </defs>
      <use xlink:href="#Montserrat-Medium-43"/>
      <use xlink:href="#Montserrat-Medium-6f" x="72.299988"/>
      <use xlink:href="#Montserrat-Medium-73" x="135.799973"/>
      <use xlink:href="#Montserrat-Medium-74" x="185.899963"/>
      <use xlink:href="#Montserrat-Medium-20" x="227.299957"/>
      <use xlink:href="#Montserrat-Medium-46" x="254.199951"/>
      <use xlink:href="#Montserrat-Medium-75" x="317.699936"/>
      <use xlink:href="#Montserrat-Medium-6e" x="385.399918"/>
      <use xlink:href="#Montserrat-Medium-63" x="453.499908"/>
      <use xlink:href="#Montserrat-Medium-74" x="510.599899"/>
      <use xlink:href="#Montserrat-Medium-69" x="551.999893"/>
      <use xlink:href="#Montserrat-Medium-6f" x="579.899887"/>
      <use xlink:href="#Montserrat-Medium-6e" x="643.399872"/>
      <use xlink:href="#Montserrat-Medium-20" x="711.499863"/>
      <use xlink:href="#Montserrat-Medium-28" x="738.399857"/>
      <use xlink:href="#Montserrat-Medium-4d" x="772.099854"/>
      <use xlink:href="#Montserrat-Medium-53" x="867.599838"/>
      <use xlink:href="#Montserrat-Medium-45" x="929.699829"/>
      <use xlink:href="#Montserrat-Medium-29" x="996.699814"/>
     </g>
    </g>
   </g>
   <g id="line2d_13">
    <path d="M 79.261137 -1 
L 80.544687 31.586348 
L 82.330287 70.499774 
L 84.115887 103.187219 
L 85.008688 116.621158 
L 86.347887 134.924929 
L 88.133488 155.07589 
L 89.472688 165.571209 
L 90.365488 170.555298 
L 91.258287 174.322766 
L 92.151087 177.228743 
L 93.490287 179.666964 
L 96.168688 182.858459 
L 96.615088 183.096233 
L 97.954287 184.696036 
L 98.400688 184.996125 
L 99.293487 185.970106 
L 105.989487 191.993536 
L 110.007087 195.078886 
L 110.453487 195.358112 
L 110.899888 195.816097 
L 112.239087 196.676817 
L 114.917487 198.571252 
L 115.363888 198.691292 
L 115.810287 199.094492 
L 116.256687 199.288912 
L 116.703087 199.653441 
L 117.595888 200.119145 
L 118.935087 200.905094 
L 124.291888 203.884404 
L 124.738287 203.990813 
L 125.184687 204.277188 
L 125.631087 204.389276 
L 126.077487 204.701462 
L 127.416687 205.167463 
L 128.755888 205.822437 
L 130.095087 206.431667 
L 132.773487 207.568747 
L 133.219887 207.590256 
L 133.666288 207.917542 
L 135.451887 208.480753 
L 135.898287 208.649159 
L 136.344687 208.692176 
L 136.791088 208.952749 
L 137.237487 208.973496 
L 137.683887 209.22066 
L 138.130288 209.252732 
L 138.576687 209.521712 
L 139.469488 209.58869 
L 140.362287 210.081221 
L 141.255088 210.10918 
L 141.701487 210.331104 
L 144.379887 210.965278 
L 147.058288 211.558404 
L 147.504687 211.562422 
L 147.951087 211.79657 
L 148.397488 211.758819 
L 148.843887 211.943659 
L 149.290287 211.956739 
L 149.736687 212.182152 
L 150.183087 211.988462 
L 151.075887 212.281794 
L 151.968687 212.354345 
L 155.093487 212.892939 
L 155.539887 213.021597 
L 156.432687 212.940935 
L 156.879087 213.180349 
L 157.771887 213.021649 
L 158.218287 213.224222 
L 159.111087 213.257108 
L 162.682287 213.668788 
L 163.128688 213.639709 
L 164.467887 213.824009 
L 165.360687 213.962861 
L 165.807087 213.916091 
L 167.592688 214.102442 
L 168.039087 214.0711 
L 168.485487 214.309731 
L 168.931887 214.105139 
L 169.378287 214.134493 
L 169.824687 214.276105 
L 170.271087 214.216243 
L 170.717488 214.460933 
L 171.163887 214.152839 
L 171.610287 214.375429 
L 172.056688 214.461853 
L 173.395887 214.411287 
L 173.842287 214.412894 
L 174.288687 214.666837 
L 174.735087 214.367816 
L 176.074287 214.58773 
L 178.752687 214.657532 
L 179.199087 214.949235 
L 179.645488 214.633147 
L 180.091887 214.635251 
L 180.538287 214.791392 
L 181.431087 214.680679 
L 182.323888 214.822238 
L 183.216687 214.857207 
L 185.448688 214.876833 
L 186.341487 214.888824 
L 186.787888 214.983031 
L 188.127088 214.879371 
L 188.573487 215.119239 
L 189.019887 214.949637 
L 189.466287 215.121079 
L 189.912688 215.050527 
L 190.359087 215.197701 
L 190.805487 214.980609 
L 192.591088 215.040735 
L 193.483887 215.097488 
L 193.930287 215.162076 
L 194.376688 215.056301 
L 195.269487 215.161896 
L 195.715888 215.02738 
L 196.608687 215.241986 
L 197.055088 215.108527 
L 200.179888 215.152939 
L 201.072687 215.170334 
L 201.519088 215.248606 
L 202.411887 215.170345 
L 202.858288 215.292457 
L 203.304688 215.163958 
L 204.197487 215.362465 
L 205.090287 215.183838 
L 205.983088 215.267259 
L 223.392687 215.398359 
L 223.839088 215.259011 
L 224.285487 215.363639 
L 225.178288 215.281058 
L 225.624687 215.506683 
L 226.071087 215.360297 
L 226.517488 215.444405 
L 226.963887 215.318925 
L 227.856687 215.409092 
L 229.642288 215.364886 
L 230.088687 215.461002 
L 230.535087 215.321368 
L 231.427887 215.503363 
L 231.874287 215.249779 
L 232.767088 215.419698 
L 234.552687 215.400448 
L 238.123887 215.487401 
L 238.570288 215.390677 
L 239.016687 215.507873 
L 239.463087 215.377898 
L 245.266287 215.614716 
L 245.712687 215.413005 
L 247.498288 215.437802 
L 248.391087 215.424446 
L 254.640688 215.414469 
L 255.087087 215.537835 
L 255.533487 215.325275 
L 256.426288 215.48169 
L 257.319087 215.421448 
L 257.765488 215.574644 
L 258.658287 215.386696 
L 259.104688 215.508798 
L 260.890287 215.412 
L 261.336687 215.519325 
L 262.229488 215.437003 
L 263.568688 215.424029 
L 276.067887 215.514106 
L 276.514287 215.423553 
L 276.960688 215.510342 
L 277.407087 215.433604 
L 277.853487 215.556573 
L 278.746287 215.413576 
L 279.192687 215.538644 
L 280.085487 215.403557 
L 280.531887 215.517987 
L 280.978287 215.386669 
L 281.424688 215.465559 
L 282.317487 215.448053 
L 283.210287 215.552332 
L 284.103087 215.449211 
L 285.888688 215.47974 
L 286.781487 215.443036 
L 287.227888 215.474801 
L 287.674287 215.376735 
L 288.567087 215.532759 
L 289.013487 215.439012 
L 289.459887 215.576897 
L 289.906287 215.426826 
L 291.245487 215.547891 
L 292.138287 215.417547 
L 293.477487 215.568749 
L 293.923887 215.423061 
L 295.263087 215.522973 
L 295.709487 215.429638 
L 296.602287 215.49963 
L 297.941487 215.41218 
L 298.834287 215.591685 
L 299.280687 215.41016 
L 301.066287 215.488469 
L 301.512687 215.421507 
L 301.959088 215.516924 
L 302.851887 215.432869 
L 303.298287 215.543238 
L 304.637487 215.445822 
L 305.083888 215.531522 
L 306.869487 215.485333 
L 310.440687 215.546189 
L 310.887088 215.448307 
L 312.672687 215.48582 
L 316.690288 215.542318 
L 318.029488 215.463212 
L 318.475887 215.467278 
L 318.922287 215.728157 
L 319.368688 215.710667 
L 319.815088 215.457481 
L 320.707887 215.608059 
L 321.600687 215.474236 
L 324.279088 215.455593 
L 325.171887 215.485317 
L 326.511087 215.523364 
L 326.957488 215.425149 
L 327.403887 215.511193 
L 327.850287 215.413317 
L 328.743088 215.542657 
L 329.189487 215.46446 
L 329.635887 215.631317 
L 330.082288 215.488141 
L 330.975087 215.53406 
L 331.421488 215.370951 
L 331.867887 215.499196 
L 333.653487 215.474193 
L 334.099887 215.591362 
L 334.992687 215.515185 
L 337.224688 215.438579 
L 338.117487 215.496891 
L 338.563888 215.557857 
L 339.456687 215.404524 
L 339.903087 215.516628 
L 340.349488 215.442867 
L 341.242287 215.615556 
L 342.135087 215.462107 
L 342.581487 215.583754 
L 343.027888 215.49577 
L 344.367087 215.579165 
L 344.813488 215.506434 
L 345.259887 215.571493 
L 345.706287 215.451406 
L 346.152688 215.623318 
L 347.045487 215.477863 
L 351.955888 215.525891 
L 352.848687 215.471 
L 353.295087 215.514059 
L 353.741488 215.411879 
L 354.187887 215.576373 
L 354.634287 215.461298 
L 358.651887 215.492984 
L 359.098287 215.655802 
L 359.544688 215.493751 
L 359.991087 215.450708 
L 360.437487 215.546252 
L 361.330287 215.506889 
L 364.008688 215.477752 
L 365.347888 215.509062 
L 365.794287 215.728046 
L 366.240687 215.422527 
L 366.687088 215.5383 
L 368.472688 215.461864 
L 369.365487 215.537317 
L 369.811888 215.450877 
L 370.704687 215.520223 
L 371.151088 215.44781 
L 371.597487 215.53397 
L 372.043887 215.367154 
L 372.490287 215.587651 
L 377.847087 215.450115 
L 378.293487 215.595587 
L 378.739888 215.478597 
L 379.186287 215.515528 
L 380.079088 215.390672 
L 380.525487 215.537634 
L 381.418287 215.491255 
L 381.864688 215.455286 
L 382.311087 215.615874 
L 382.757487 215.384195 
L 383.203888 215.594846 
L 385.435887 215.518738 
L 386.775087 215.561696 
L 387.221487 215.459918 
L 389.899887 215.535535 
L 391.685487 215.505615 
L 392.131888 215.598965 
L 392.578287 215.437167 
L 393.024687 215.536963 
L 393.471088 215.508449 
L 393.917487 215.59509 
L 395.703087 215.464148 
L 396.595888 215.494322 
L 397.042287 215.397931 
L 397.935088 215.559031 
L 399.720687 215.523771 
L 400.167087 215.534472 
L 400.613487 215.719407 
L 401.506287 215.56325 
L 401.952687 215.548626 
L 402.399088 215.420978 
L 402.845487 215.565392 
L 404.184687 215.453647 
L 404.631087 215.532817 
L 405.077487 215.47072 
L 405.523888 215.674868 
L 405.970287 215.443247 
L 406.863088 215.56647 
L 407.755887 215.512684 
L 408.202288 215.58571 
L 408.648687 215.478957 
L 409.095087 215.644953 
L 410.434287 215.445072 
L 410.880687 215.559882 
L 411.327088 215.498514 
L 411.773487 215.564144 
L 412.219887 215.374784 
L 412.666288 215.556684 
L 413.112687 215.484017 
L 414.005488 215.555827 
L 414.898287 215.532484 
L 416.683887 215.52642 
L 417.130288 215.603375 
L 418.469488 215.509527 
L 427.843887 215.570991 
L 428.290287 215.450771 
L 429.629487 215.50553 
L 430.968687 215.6403 
L 431.415087 215.446732 
L 432.754287 215.602767 
L 433.200687 215.425128 
L 433.647087 215.637086 
L 434.539887 215.485878 
L 435.432687 215.537375 
L 435.879087 215.410805 
L 436.325488 215.577711 
L 437.664687 215.531168 
L 438.111087 215.409246 
L 438.557487 215.606267 
L 439.003887 215.481913 
L 443.021487 215.555737 
L 444.807087 215.511018 
L 451.056688 215.478566 
L 451.503087 215.426677 
L 452.395887 215.677358 
L 453.288687 215.505578 
L 453.735087 215.636985 
L 454.627887 215.379664 
L 455.074287 215.654792 
L 455.520688 215.513133 
L 457.306287 215.572112 
L 457.752687 215.644361 
L 458.199087 215.515835 
L 458.645488 215.611126 
L 459.091887 215.474251 
L 459.538287 215.574311 
L 460.877487 215.507217 
L 462.663087 215.580333 
L 463.109488 215.472665 
L 465.341487 215.531194 
L 465.787888 215.416034 
L 466.234287 215.515819 
L 466.680687 215.443575 
L 467.127087 215.545713 
L 468.019887 215.576479 
L 468.466287 215.361312 
L 468.912688 215.575252 
L 469.359087 215.610962 
L 469.805487 215.491995 
L 470.251888 215.661042 
L 471.144687 215.45526 
L 473.376688 215.552068 
L 473.823087 215.426085 
L 474.269487 215.570964 
L 476.501487 215.571107 
L 476.947887 215.701082 
L 477.394287 215.540056 
L 478.733487 215.539908 
L 480.072687 215.451035 
L 480.519087 215.543587 
L 481.411887 215.521016 
L 481.858287 215.585007 
L 483.197487 215.489949 
L 484.536687 215.509765 
L 484.983087 215.457618 
L 486.322287 215.67077 
L 487.215087 215.508856 
L 488.107888 215.542636 
L 488.554287 215.464349 
L 489.447087 215.528017 
L 490.339887 215.483292 
L 490.786287 215.642828 
L 491.232687 215.438912 
L 492.125487 215.730959 
L 492.571888 215.467278 
L 493.018287 215.58257 
L 494.357487 215.561818 
L 495.250287 215.605172 
L 495.696687 215.453742 
L 496.143087 215.586324 
L 496.589487 215.500693 
L 497.928687 215.538972 
L 498.375088 215.507027 
L 498.821487 215.587349 
L 499.267887 215.421787 
L 500.160687 215.561728 
L 504.178287 215.522312 
L 504.178287 215.522312 
" clip-path="url(#p1d6acc2261)" style="fill: none; stroke: #0000ff; stroke-width: 2; stroke-linecap: square"/>
   </g>
   <g id="patch_3">
    <path d="M 58.224688 304.026563 
L 58.224688 26.826562 
" style="fill: none; stroke: #000000; stroke-width: 0.8; stroke-linejoin: miter; stroke-linecap: square"/>
   </g>
   <g id="patch_4">
    <path d="M 504.624687 304.026563 
L 504.624687 26.826562 
" style="fill: none; stroke: #000000; stroke-width: 0.8; stroke-linejoin: miter; stroke-linecap: square"/>
   </g>
   <g id="patch_5">
    <path d="M 58.224688 304.026563 
L 504.624687 304.026563 
" style="fill: none; stroke: #000000; stroke-width: 0.8; stroke-linejoin: miter; stroke-linecap: square"/>
   </g>
   <g id="patch_6">
    <path d="M 58.224688 26.826562 
L 504.624687 26.826562 
" style="fill: none; stroke: #000000; stroke-width: 0.8; stroke-linejoin: miter; stroke-linecap: square"/>
   </g>
   <g id="text_15">
    <!-- Linear Regression with Single Neuron -->
    <g transform="translate(108.980469 20.826562)scale(0.18 -0.18)">
     <defs>
      <path id="Montserrat-Medium-4c" d="M 672 4480 
L 1312 4480 
L 1312 557 
L 3738 557 
L 3738 0 
L 672 0 
L 672 4480 
z
" transform="scale(0.015625)"/>
      <path id="Montserrat-Medium-52" d="M 3667 0 
L 2701 1376 
Q 2522 1363 2419 1363 
L 1312 1363 
L 1312 0 
L 672 0 
L 672 4480 
L 2419 4480 
Q 3290 4480 3789 4064 
Q 4288 3648 4288 2918 
Q 4288 2400 4032 2035 
Q 3776 1670 3302 1504 
L 4365 0 
L 3667 0 
z
M 2400 1907 
Q 3008 1907 3328 2169 
Q 3648 2432 3648 2918 
Q 3648 3405 3328 3664 
Q 3008 3923 2400 3923 
L 1312 3923 
L 1312 1907 
L 2400 1907 
z
" transform="scale(0.015625)"/>
      <path id="Montserrat-Medium-67" d="M 3827 3392 
L 3827 461 
Q 3827 -429 3385 -854 
Q 2944 -1280 2067 -1280 
Q 1587 -1280 1152 -1149 
Q 717 -1018 448 -774 
L 742 -301 
Q 979 -506 1328 -624 
Q 1677 -742 2048 -742 
Q 2643 -742 2928 -460 
Q 3213 -179 3213 397 
L 3213 666 
Q 2995 403 2678 272 
Q 2362 141 1990 141 
Q 1504 141 1110 349 
Q 717 557 493 931 
Q 269 1306 269 1786 
Q 269 2266 493 2640 
Q 717 3014 1110 3219 
Q 1504 3424 1990 3424 
Q 2374 3424 2704 3283 
Q 3034 3142 3245 2867 
L 3245 3392 
L 3827 3392 
z
M 2061 678 
Q 2394 678 2659 819 
Q 2925 960 3075 1213 
Q 3226 1466 3226 1786 
Q 3226 2278 2899 2582 
Q 2573 2886 2061 2886 
Q 1542 2886 1216 2582 
Q 890 2278 890 1786 
Q 890 1466 1040 1213 
Q 1190 960 1456 819 
Q 1722 678 2061 678 
z
" transform="scale(0.015625)"/>
      <path id="Montserrat-Medium-77" d="M 5715 3392 
L 4448 0 
L 3859 0 
L 2880 2573 
L 1888 0 
L 1299 0 
L 38 3392 
L 621 3392 
L 1606 691 
L 2630 3392 
L 3149 3392 
L 4154 678 
L 5165 3392 
L 5715 3392 
z
" transform="scale(0.015625)"/>
      <path id="Montserrat-Medium-68" d="M 2394 3424 
Q 3040 3424 3421 3049 
Q 3802 2675 3802 1952 
L 3802 0 
L 3187 0 
L 3187 1882 
Q 3187 2374 2950 2624 
Q 2714 2874 2272 2874 
Q 1773 2874 1485 2582 
Q 1197 2291 1197 1747 
L 1197 0 
L 582 0 
L 582 4749 
L 1197 4749 
L 1197 2912 
Q 1389 3155 1699 3289 
Q 2010 3424 2394 3424 
z
" transform="scale(0.015625)"/>
      <path id="Montserrat-Medium-6c" d="M 582 4749 
L 1197 4749 
L 1197 0 
L 582 0 
L 582 4749 
z
" transform="scale(0.015625)"/>
     </defs>
     <use xlink:href="#Montserrat-Medium-4c"/>
     <use xlink:href="#Montserrat-Medium-69" x="59.399994"/>
     <use xlink:href="#Montserrat-Medium-6e" x="87.299988"/>
     <use xlink:href="#Montserrat-Medium-65" x="155.399979"/>
     <use xlink:href="#Montserrat-Medium-61" x="216.599976"/>
     <use xlink:href="#Montserrat-Medium-72" x="276.399963"/>
     <use xlink:href="#Montserrat-Medium-20" x="317.399948"/>
     <use xlink:href="#Montserrat-Medium-52" x="344.299942"/>
     <use xlink:href="#Montserrat-Medium-65" x="416.999924"/>
     <use xlink:href="#Montserrat-Medium-67" x="478.199921"/>
     <use xlink:href="#Montserrat-Medium-72" x="547.199905"/>
     <use xlink:href="#Montserrat-Medium-65" x="588.19989"/>
     <use xlink:href="#Montserrat-Medium-73" x="649.399887"/>
     <use xlink:href="#Montserrat-Medium-73" x="699.499878"/>
     <use xlink:href="#Montserrat-Medium-69" x="749.599869"/>
     <use xlink:href="#Montserrat-Medium-6f" x="777.499863"/>
     <use xlink:href="#Montserrat-Medium-6e" x="840.999847"/>
     <use xlink:href="#Montserrat-Medium-20" x="909.099838"/>
     <use xlink:href="#Montserrat-Medium-77" x="935.999832"/>
     <use xlink:href="#Montserrat-Medium-69" x="1025.899826"/>
     <use xlink:href="#Montserrat-Medium-74" x="1053.79982"/>
     <use xlink:href="#Montserrat-Medium-68" x="1095.199814"/>
     <use xlink:href="#Montserrat-Medium-20" x="1163.299805"/>
     <use xlink:href="#Montserrat-Medium-53" x="1190.199799"/>
     <use xlink:href="#Montserrat-Medium-69" x="1252.299789"/>
     <use xlink:href="#Montserrat-Medium-6e" x="1280.199783"/>
     <use xlink:href="#Montserrat-Medium-67" x="1348.299774"/>
     <use xlink:href="#Montserrat-Medium-6c" x="1417.299759"/>
     <use xlink:href="#Montserrat-Medium-65" x="1445.199753"/>
     <use xlink:href="#Montserrat-Medium-20" x="1506.39975"/>
     <use xlink:href="#Montserrat-Medium-4e" x="1533.299744"/>
     <use xlink:href="#Montserrat-Medium-65" x="1614.499725"/>
     <use xlink:href="#Montserrat-Medium-75" x="1675.699722"/>
     <use xlink:href="#Montserrat-Medium-72" x="1743.399704"/>
     <use xlink:href="#Montserrat-Medium-6f" x="1784.399689"/>
     <use xlink:href="#Montserrat-Medium-6e" x="1847.899673"/>
    </g>
   </g>
  </g>
 </g>
 <defs>
  <clipPath id="p1d6acc2261">
   <rect x="58.224688" y="26.826562" width="446.4" height="277.2"/>
  </clipPath>
 </defs>
</svg>
