<?xml version="1.0" encoding="utf-8" standalone="no"?>
<!DOCTYPE svg PUBLIC "-//W3C//DTD SVG 1.1//EN"
  "http://www.w3.org/Graphics/SVG/1.1/DTD/svg11.dtd">
<svg xmlns:xlink="http://www.w3.org/1999/xlink" width="534.729687pt" height="343.708906pt" viewBox="0 0 534.729687 343.708906" xmlns="http://www.w3.org/2000/svg" version="1.1">
 <metadata>
  <rdf:RDF xmlns:dc="http://purl.org/dc/elements/1.1/" xmlns:cc="http://creativecommons.org/ns#" xmlns:rdf="http://www.w3.org/1999/02/22-rdf-syntax-ns#">
   <cc:Work>
    <dc:type rdf:resource="http://purl.org/dc/dcmitype/StillImage"/>
    <dc:date>2022-11-05T23:23:48.739858</dc:date>
    <dc:format>image/svg+xml</dc:format>
    <dc:creator>
     <cc:Agent>
      <dc:title>Matplotlib v3.5.2, https://matplotlib.org/</dc:title>
     </cc:Agent>
    </dc:creator>
   </cc:Work>
  </rdf:RDF>
 </metadata>
 <defs>
  <style type="text/css">*{stroke-linejoin: round; stroke-linecap: butt}</style>
 </defs>
 <g id="figure_1">
  <g id="patch_1">
   <path d="M 0 343.708906 
L 534.729687 343.708906 
L 534.729687 0 
L 0 0 
z
" style="fill: #ffffff"/>
  </g>
  <g id="axes_1">
   <g id="patch_2">
    <path d="M 58.224688 291.238594 
L 504.624687 291.238594 
L 504.624687 14.038594 
L 58.224688 14.038594 
z
" style="fill: #f1f7f0"/>
   </g>
   <g id="matplotlib.axis_1">
    <g id="xtick_1">
     <g id="line2d_1">
      <defs>
       <path id="m8c52269a1c" d="M 0 0 
L 0 3.5 
" style="stroke: #000000; stroke-width: 0.8"/>
      </defs>
      <g>
       <use xlink:href="#m8c52269a1c" x="58.224688" y="291.238594" style="stroke: #000000; stroke-width: 0.8"/>
      </g>
     </g>
     <g id="text_1">
      <!-- 0 -->
      <g transform="translate(52.498438 311.915781)scale(0.18 -0.18)">
       <defs>
        <path id="DejaVuSans-30" d="M 2034 4250 
Q 1547 4250 1301 3770 
Q 1056 3291 1056 2328 
Q 1056 1369 1301 889 
Q 1547 409 2034 409 
Q 2525 409 2770 889 
Q 3016 1369 3016 2328 
Q 3016 3291 2770 3770 
Q 2525 4250 2034 4250 
z
M 2034 4750 
Q 2819 4750 3233 4129 
Q 3647 3509 3647 2328 
Q 3647 1150 3233 529 
Q 2819 -91 2034 -91 
Q 1250 -91 836 529 
Q 422 1150 422 2328 
Q 422 3509 836 4129 
Q 1250 4750 2034 4750 
z
" transform="scale(0.015625)"/>
       </defs>
       <use xlink:href="#DejaVuSans-30"/>
      </g>
     </g>
    </g>
    <g id="xtick_2">
     <g id="line2d_2">
      <g>
       <use xlink:href="#m8c52269a1c" x="147.504687" y="291.238594" style="stroke: #000000; stroke-width: 0.8"/>
      </g>
     </g>
     <g id="text_2">
      <!-- 200 -->
      <g transform="translate(130.325937 311.915781)scale(0.18 -0.18)">
       <defs>
        <path id="DejaVuSans-32" d="M 1228 531 
L 3431 531 
L 3431 0 
L 469 0 
L 469 531 
Q 828 903 1448 1529 
Q 2069 2156 2228 2338 
Q 2531 2678 2651 2914 
Q 2772 3150 2772 3378 
Q 2772 3750 2511 3984 
Q 2250 4219 1831 4219 
Q 1534 4219 1204 4116 
Q 875 4013 500 3803 
L 500 4441 
Q 881 4594 1212 4672 
Q 1544 4750 1819 4750 
Q 2544 4750 2975 4387 
Q 3406 4025 3406 3419 
Q 3406 3131 3298 2873 
Q 3191 2616 2906 2266 
Q 2828 2175 2409 1742 
Q 1991 1309 1228 531 
z
" transform="scale(0.015625)"/>
       </defs>
       <use xlink:href="#DejaVuSans-32"/>
       <use xlink:href="#DejaVuSans-30" x="63.623047"/>
       <use xlink:href="#DejaVuSans-30" x="127.246094"/>
      </g>
     </g>
    </g>
    <g id="xtick_3">
     <g id="line2d_3">
      <g>
       <use xlink:href="#m8c52269a1c" x="236.784687" y="291.238594" style="stroke: #000000; stroke-width: 0.8"/>
      </g>
     </g>
     <g id="text_3">
      <!-- 400 -->
      <g transform="translate(219.605937 311.915781)scale(0.18 -0.18)">
       <defs>
        <path id="DejaVuSans-34" d="M 2419 4116 
L 825 1625 
L 2419 1625 
L 2419 4116 
z
M 2253 4666 
L 3047 4666 
L 3047 1625 
L 3713 1625 
L 3713 1100 
L 3047 1100 
L 3047 0 
L 2419 0 
L 2419 1100 
L 313 1100 
L 313 1709 
L 2253 4666 
z
" transform="scale(0.015625)"/>
       </defs>
       <use xlink:href="#DejaVuSans-34"/>
       <use xlink:href="#DejaVuSans-30" x="63.623047"/>
       <use xlink:href="#DejaVuSans-30" x="127.246094"/>
      </g>
     </g>
    </g>
    <g id="xtick_4">
     <g id="line2d_4">
      <g>
       <use xlink:href="#m8c52269a1c" x="326.064687" y="291.238594" style="stroke: #000000; stroke-width: 0.8"/>
      </g>
     </g>
     <g id="text_4">
      <!-- 600 -->
      <g transform="translate(308.885938 311.915781)scale(0.18 -0.18)">
       <defs>
        <path id="DejaVuSans-36" d="M 2113 2584 
Q 1688 2584 1439 2293 
Q 1191 2003 1191 1497 
Q 1191 994 1439 701 
Q 1688 409 2113 409 
Q 2538 409 2786 701 
Q 3034 994 3034 1497 
Q 3034 2003 2786 2293 
Q 2538 2584 2113 2584 
z
M 3366 4563 
L 3366 3988 
Q 3128 4100 2886 4159 
Q 2644 4219 2406 4219 
Q 1781 4219 1451 3797 
Q 1122 3375 1075 2522 
Q 1259 2794 1537 2939 
Q 1816 3084 2150 3084 
Q 2853 3084 3261 2657 
Q 3669 2231 3669 1497 
Q 3669 778 3244 343 
Q 2819 -91 2113 -91 
Q 1303 -91 875 529 
Q 447 1150 447 2328 
Q 447 3434 972 4092 
Q 1497 4750 2381 4750 
Q 2619 4750 2861 4703 
Q 3103 4656 3366 4563 
z
" transform="scale(0.015625)"/>
       </defs>
       <use xlink:href="#DejaVuSans-36"/>
       <use xlink:href="#DejaVuSans-30" x="63.623047"/>
       <use xlink:href="#DejaVuSans-30" x="127.246094"/>
      </g>
     </g>
    </g>
    <g id="xtick_5">
     <g id="line2d_5">
      <g>
       <use xlink:href="#m8c52269a1c" x="415.344687" y="291.238594" style="stroke: #000000; stroke-width: 0.8"/>
      </g>
     </g>
     <g id="text_5">
      <!-- 800 -->
      <g transform="translate(398.165937 311.915781)scale(0.18 -0.18)">
       <defs>
        <path id="DejaVuSans-38" d="M 2034 2216 
Q 1584 2216 1326 1975 
Q 1069 1734 1069 1313 
Q 1069 891 1326 650 
Q 1584 409 2034 409 
Q 2484 409 2743 651 
Q 3003 894 3003 1313 
Q 3003 1734 2745 1975 
Q 2488 2216 2034 2216 
z
M 1403 2484 
Q 997 2584 770 2862 
Q 544 3141 544 3541 
Q 544 4100 942 4425 
Q 1341 4750 2034 4750 
Q 2731 4750 3128 4425 
Q 3525 4100 3525 3541 
Q 3525 3141 3298 2862 
Q 3072 2584 2669 2484 
Q 3125 2378 3379 2068 
Q 3634 1759 3634 1313 
Q 3634 634 3220 271 
Q 2806 -91 2034 -91 
Q 1263 -91 848 271 
Q 434 634 434 1313 
Q 434 1759 690 2068 
Q 947 2378 1403 2484 
z
M 1172 3481 
Q 1172 3119 1398 2916 
Q 1625 2713 2034 2713 
Q 2441 2713 2670 2916 
Q 2900 3119 2900 3481 
Q 2900 3844 2670 4047 
Q 2441 4250 2034 4250 
Q 1625 4250 1398 4047 
Q 1172 3844 1172 3481 
z
" transform="scale(0.015625)"/>
       </defs>
       <use xlink:href="#DejaVuSans-38"/>
       <use xlink:href="#DejaVuSans-30" x="63.623047"/>
       <use xlink:href="#DejaVuSans-30" x="127.246094"/>
      </g>
     </g>
    </g>
    <g id="xtick_6">
     <g id="line2d_6">
      <g>
       <use xlink:href="#m8c52269a1c" x="504.624687" y="291.238594" style="stroke: #000000; stroke-width: 0.8"/>
      </g>
     </g>
     <g id="text_6">
      <!-- 1000 -->
      <g transform="translate(481.719688 311.915781)scale(0.18 -0.18)">
       <defs>
        <path id="DejaVuSans-31" d="M 794 531 
L 1825 531 
L 1825 4091 
L 703 3866 
L 703 4441 
L 1819 4666 
L 2450 4666 
L 2450 531 
L 3481 531 
L 3481 0 
L 794 0 
L 794 531 
z
" transform="scale(0.015625)"/>
       </defs>
       <use xlink:href="#DejaVuSans-31"/>
       <use xlink:href="#DejaVuSans-30" x="63.623047"/>
       <use xlink:href="#DejaVuSans-30" x="127.246094"/>
       <use xlink:href="#DejaVuSans-30" x="190.869141"/>
      </g>
     </g>
    </g>
    <g id="text_7">
     <!-- Number of Iterations -->
     <g transform="translate(185.751875 333.015781)scale(0.18 -0.18)">
      <defs>
       <path id="Montserrat-Medium-4e" d="M 4525 4480 
L 4525 0 
L 4000 0 
L 1312 3341 
L 1312 0 
L 672 0 
L 672 4480 
L 1197 4480 
L 3885 1139 
L 3885 4480 
L 4525 4480 
z
" transform="scale(0.015625)"/>
       <path id="Montserrat-Medium-75" d="M 3744 3392 
L 3744 0 
L 3162 0 
L 3162 512 
Q 2976 250 2672 106 
Q 2368 -38 2010 -38 
Q 1331 -38 940 336 
Q 550 710 550 1440 
L 550 3392 
L 1165 3392 
L 1165 1510 
Q 1165 1018 1401 765 
Q 1638 512 2080 512 
Q 2566 512 2848 806 
Q 3130 1101 3130 1638 
L 3130 3392 
L 3744 3392 
z
" transform="scale(0.015625)"/>
       <path id="Montserrat-Medium-6d" d="M 4826 3424 
Q 5466 3424 5840 3053 
Q 6214 2682 6214 1952 
L 6214 0 
L 5600 0 
L 5600 1882 
Q 5600 2374 5373 2624 
Q 5146 2874 4723 2874 
Q 4256 2874 3981 2582 
Q 3706 2291 3706 1747 
L 3706 0 
L 3091 0 
L 3091 1882 
Q 3091 2374 2864 2624 
Q 2637 2874 2214 2874 
Q 1747 2874 1472 2582 
Q 1197 2291 1197 1747 
L 1197 0 
L 582 0 
L 582 3392 
L 1171 3392 
L 1171 2886 
Q 1357 3149 1657 3286 
Q 1958 3424 2342 3424 
Q 2739 3424 3046 3264 
Q 3354 3104 3520 2797 
Q 3712 3091 4054 3257 
Q 4397 3424 4826 3424 
z
" transform="scale(0.015625)"/>
       <path id="Montserrat-Medium-62" d="M 2381 3424 
Q 2874 3424 3264 3206 
Q 3654 2989 3875 2598 
Q 4096 2208 4096 1696 
Q 4096 1184 3875 790 
Q 3654 397 3264 179 
Q 2874 -38 2381 -38 
Q 2003 -38 1689 109 
Q 1376 256 1171 538 
L 1171 0 
L 582 0 
L 582 4749 
L 1197 4749 
L 1197 2880 
Q 1402 3149 1709 3286 
Q 2016 3424 2381 3424 
z
M 2330 499 
Q 2656 499 2915 649 
Q 3174 800 3324 1072 
Q 3475 1344 3475 1696 
Q 3475 2048 3324 2320 
Q 3174 2592 2915 2739 
Q 2656 2886 2330 2886 
Q 2010 2886 1747 2739 
Q 1485 2592 1337 2320 
Q 1190 2048 1190 1696 
Q 1190 1344 1337 1072 
Q 1485 800 1747 649 
Q 2010 499 2330 499 
z
" transform="scale(0.015625)"/>
       <path id="Montserrat-Medium-65" d="M 3648 1677 
Q 3648 1606 3635 1491 
L 883 1491 
Q 941 1043 1277 771 
Q 1613 499 2112 499 
Q 2720 499 3091 909 
L 3430 512 
Q 3200 243 2857 102 
Q 2515 -38 2093 -38 
Q 1555 -38 1139 182 
Q 723 403 496 800 
Q 269 1197 269 1696 
Q 269 2189 489 2585 
Q 710 2982 1097 3203 
Q 1485 3424 1971 3424 
Q 2458 3424 2838 3203 
Q 3219 2982 3433 2585 
Q 3648 2189 3648 1677 
z
M 1971 2906 
Q 1530 2906 1232 2637 
Q 934 2368 883 1933 
L 3059 1933 
Q 3008 2362 2710 2634 
Q 2413 2906 1971 2906 
z
" transform="scale(0.015625)"/>
       <path id="Montserrat-Medium-72" d="M 1171 2822 
Q 1331 3117 1644 3270 
Q 1958 3424 2406 3424 
L 2406 2829 
Q 2355 2835 2266 2835 
Q 1766 2835 1481 2537 
Q 1197 2240 1197 1690 
L 1197 0 
L 582 0 
L 582 3392 
L 1171 3392 
L 1171 2822 
z
" transform="scale(0.015625)"/>
       <path id="Montserrat-Medium-20" transform="scale(0.015625)"/>
       <path id="Montserrat-Medium-6f" d="M 2035 -38 
Q 1530 -38 1126 186 
Q 723 410 496 803 
Q 269 1197 269 1696 
Q 269 2195 496 2588 
Q 723 2982 1126 3203 
Q 1530 3424 2035 3424 
Q 2541 3424 2941 3203 
Q 3341 2982 3568 2588 
Q 3795 2195 3795 1696 
Q 3795 1197 3568 803 
Q 3341 410 2941 186 
Q 2541 -38 2035 -38 
z
M 2035 499 
Q 2362 499 2621 649 
Q 2880 800 3027 1072 
Q 3174 1344 3174 1696 
Q 3174 2048 3027 2320 
Q 2880 2592 2621 2739 
Q 2362 2886 2035 2886 
Q 1709 2886 1449 2739 
Q 1190 2592 1040 2320 
Q 890 2048 890 1696 
Q 890 1344 1040 1072 
Q 1190 800 1449 649 
Q 1709 499 2035 499 
z
" transform="scale(0.015625)"/>
       <path id="Montserrat-Medium-66" d="M 1824 4282 
Q 1274 4282 1274 3686 
L 1274 3392 
L 2259 3392 
L 2259 2886 
L 1286 2886 
L 1286 0 
L 672 0 
L 672 2886 
L 96 2886 
L 96 3392 
L 672 3392 
L 672 3693 
Q 672 4198 966 4492 
Q 1261 4787 1792 4787 
Q 1997 4787 2176 4736 
Q 2355 4685 2483 4589 
L 2298 4122 
Q 2086 4282 1824 4282 
z
" transform="scale(0.015625)"/>
       <path id="Montserrat-Medium-49" d="M 672 4480 
L 1312 4480 
L 1312 0 
L 672 0 
L 672 4480 
z
" transform="scale(0.015625)"/>
       <path id="Montserrat-Medium-74" d="M 2490 198 
Q 2355 83 2156 22 
Q 1958 -38 1747 -38 
Q 1235 -38 953 237 
Q 672 512 672 1024 
L 672 2886 
L 96 2886 
L 96 3392 
L 672 3392 
L 672 4134 
L 1286 4134 
L 1286 3392 
L 2259 3392 
L 2259 2886 
L 1286 2886 
L 1286 1050 
Q 1286 774 1424 627 
Q 1562 480 1818 480 
Q 2099 480 2298 640 
L 2490 198 
z
" transform="scale(0.015625)"/>
       <path id="Montserrat-Medium-61" d="M 1818 3424 
Q 2522 3424 2896 3078 
Q 3270 2733 3270 2048 
L 3270 0 
L 2688 0 
L 2688 448 
Q 2534 211 2249 86 
Q 1965 -38 1574 -38 
Q 1005 -38 662 237 
Q 320 512 320 960 
Q 320 1408 646 1680 
Q 973 1952 1683 1952 
L 2656 1952 
L 2656 2074 
Q 2656 2470 2425 2681 
Q 2195 2893 1747 2893 
Q 1446 2893 1158 2793 
Q 870 2694 672 2528 
L 416 2989 
Q 678 3200 1043 3312 
Q 1408 3424 1818 3424 
z
M 1677 435 
Q 2029 435 2285 592 
Q 2541 749 2656 1037 
L 2656 1510 
L 1709 1510 
Q 928 1510 928 986 
Q 928 730 1126 582 
Q 1325 435 1677 435 
z
" transform="scale(0.015625)"/>
       <path id="Montserrat-Medium-69" d="M 582 3392 
L 1197 3392 
L 1197 0 
L 582 0 
L 582 3392 
z
M 890 4045 
Q 710 4045 592 4160 
Q 474 4275 474 4442 
Q 474 4608 592 4726 
Q 710 4845 890 4845 
Q 1069 4845 1187 4733 
Q 1306 4621 1306 4454 
Q 1306 4282 1187 4163 
Q 1069 4045 890 4045 
z
" transform="scale(0.015625)"/>
       <path id="Montserrat-Medium-6e" d="M 2394 3424 
Q 3040 3424 3421 3049 
Q 3802 2675 3802 1952 
L 3802 0 
L 3187 0 
L 3187 1882 
Q 3187 2374 2950 2624 
Q 2714 2874 2272 2874 
Q 1773 2874 1485 2582 
Q 1197 2291 1197 1747 
L 1197 0 
L 582 0 
L 582 3392 
L 1171 3392 
L 1171 2880 
Q 1357 3142 1673 3283 
Q 1990 3424 2394 3424 
z
" transform="scale(0.015625)"/>
       <path id="Montserrat-Medium-73" d="M 1555 -38 
Q 1139 -38 755 74 
Q 371 186 154 358 
L 410 845 
Q 634 685 954 589 
Q 1274 493 1600 493 
Q 2406 493 2406 954 
Q 2406 1107 2297 1196 
Q 2189 1286 2025 1328 
Q 1862 1370 1562 1421 
Q 1152 1485 893 1568 
Q 634 1651 448 1849 
Q 262 2048 262 2406 
Q 262 2867 646 3145 
Q 1030 3424 1677 3424 
Q 2016 3424 2355 3341 
Q 2694 3258 2912 3117 
L 2650 2630 
Q 2234 2899 1670 2899 
Q 1280 2899 1075 2771 
Q 870 2643 870 2432 
Q 870 2266 985 2170 
Q 1101 2074 1270 2029 
Q 1440 1984 1747 1926 
Q 2157 1856 2409 1776 
Q 2662 1696 2841 1504 
Q 3021 1312 3021 966 
Q 3021 506 2627 234 
Q 2234 -38 1555 -38 
z
" transform="scale(0.015625)"/>
      </defs>
      <use xlink:href="#Montserrat-Medium-4e"/>
      <use xlink:href="#Montserrat-Medium-75" x="81.199982"/>
      <use xlink:href="#Montserrat-Medium-6d" x="148.899963"/>
      <use xlink:href="#Montserrat-Medium-62" x="254.599945"/>
      <use xlink:href="#Montserrat-Medium-65" x="322.799927"/>
      <use xlink:href="#Montserrat-Medium-72" x="383.999924"/>
      <use xlink:href="#Montserrat-Medium-20" x="424.999908"/>
      <use xlink:href="#Montserrat-Medium-6f" x="451.899902"/>
      <use xlink:href="#Montserrat-Medium-66" x="515.399887"/>
      <use xlink:href="#Montserrat-Medium-20" x="550.699875"/>
      <use xlink:href="#Montserrat-Medium-49" x="577.599869"/>
      <use xlink:href="#Montserrat-Medium-74" x="608.599854"/>
      <use xlink:href="#Montserrat-Medium-65" x="649.999847"/>
      <use xlink:href="#Montserrat-Medium-72" x="711.199844"/>
      <use xlink:href="#Montserrat-Medium-61" x="752.199829"/>
      <use xlink:href="#Montserrat-Medium-74" x="811.999817"/>
      <use xlink:href="#Montserrat-Medium-69" x="853.399811"/>
      <use xlink:href="#Montserrat-Medium-6f" x="881.299805"/>
      <use xlink:href="#Montserrat-Medium-6e" x="944.799789"/>
      <use xlink:href="#Montserrat-Medium-73" x="1012.89978"/>
     </g>
    </g>
   </g>
   <g id="matplotlib.axis_2">
    <g id="ytick_1">
     <g id="line2d_7">
      <defs>
       <path id="m1e80fb5614" d="M 0 0 
L -3.5 0 
" style="stroke: #000000; stroke-width: 0.8"/>
      </defs>
      <g>
       <use xlink:href="#m1e80fb5614" x="58.224688" y="291.238594" style="stroke: #000000; stroke-width: 0.8"/>
      </g>
     </g>
     <g id="text_8">
      <!-- 0 -->
      <g transform="translate(39.772188 298.077188)scale(0.18 -0.18)">
       <use xlink:href="#DejaVuSans-30"/>
      </g>
     </g>
    </g>
    <g id="ytick_2">
     <g id="line2d_8">
      <g>
       <use xlink:href="#m1e80fb5614" x="58.224688" y="235.798594" style="stroke: #000000; stroke-width: 0.8"/>
      </g>
     </g>
     <g id="text_9">
      <!-- 10 -->
      <g transform="translate(28.319688 242.637188)scale(0.18 -0.18)">
       <use xlink:href="#DejaVuSans-31"/>
       <use xlink:href="#DejaVuSans-30" x="63.623047"/>
      </g>
     </g>
    </g>
    <g id="ytick_3">
     <g id="line2d_9">
      <g>
       <use xlink:href="#m1e80fb5614" x="58.224688" y="180.358594" style="stroke: #000000; stroke-width: 0.8"/>
      </g>
     </g>
     <g id="text_10">
      <!-- 20 -->
      <g transform="translate(28.319688 187.197188)scale(0.18 -0.18)">
       <use xlink:href="#DejaVuSans-32"/>
       <use xlink:href="#DejaVuSans-30" x="63.623047"/>
      </g>
     </g>
    </g>
    <g id="ytick_4">
     <g id="line2d_10">
      <g>
       <use xlink:href="#m1e80fb5614" x="58.224688" y="124.918594" style="stroke: #000000; stroke-width: 0.8"/>
      </g>
     </g>
     <g id="text_11">
      <!-- 30 -->
      <g transform="translate(28.319688 131.757187)scale(0.18 -0.18)">
       <defs>
        <path id="DejaVuSans-33" d="M 2597 2516 
Q 3050 2419 3304 2112 
Q 3559 1806 3559 1356 
Q 3559 666 3084 287 
Q 2609 -91 1734 -91 
Q 1441 -91 1130 -33 
Q 819 25 488 141 
L 488 750 
Q 750 597 1062 519 
Q 1375 441 1716 441 
Q 2309 441 2620 675 
Q 2931 909 2931 1356 
Q 2931 1769 2642 2001 
Q 2353 2234 1838 2234 
L 1294 2234 
L 1294 2753 
L 1863 2753 
Q 2328 2753 2575 2939 
Q 2822 3125 2822 3475 
Q 2822 3834 2567 4026 
Q 2313 4219 1838 4219 
Q 1578 4219 1281 4162 
Q 984 4106 628 3988 
L 628 4550 
Q 988 4650 1302 4700 
Q 1616 4750 1894 4750 
Q 2613 4750 3031 4423 
Q 3450 4097 3450 3541 
Q 3450 3153 3228 2886 
Q 3006 2619 2597 2516 
z
" transform="scale(0.015625)"/>
       </defs>
       <use xlink:href="#DejaVuSans-33"/>
       <use xlink:href="#DejaVuSans-30" x="63.623047"/>
      </g>
     </g>
    </g>
    <g id="ytick_5">
     <g id="line2d_11">
      <g>
       <use xlink:href="#m1e80fb5614" x="58.224688" y="69.478594" style="stroke: #000000; stroke-width: 0.8"/>
      </g>
     </g>
     <g id="text_12">
      <!-- 40 -->
      <g transform="translate(28.319688 76.317187)scale(0.18 -0.18)">
       <use xlink:href="#DejaVuSans-34"/>
       <use xlink:href="#DejaVuSans-30" x="63.623047"/>
      </g>
     </g>
    </g>
    <g id="ytick_6">
     <g id="line2d_12">
      <g>
       <use xlink:href="#m1e80fb5614" x="58.224688" y="14.038594" style="stroke: #000000; stroke-width: 0.8"/>
      </g>
     </g>
     <g id="text_13">
      <!-- 50 -->
      <g transform="translate(28.319688 20.877187)scale(0.18 -0.18)">
       <defs>
        <path id="DejaVuSans-35" d="M 691 4666 
L 3169 4666 
L 3169 4134 
L 1269 4134 
L 1269 2991 
Q 1406 3038 1543 3061 
Q 1681 3084 1819 3084 
Q 2600 3084 3056 2656 
Q 3513 2228 3513 1497 
Q 3513 744 3044 326 
Q 2575 -91 1722 -91 
Q 1428 -91 1123 -41 
Q 819 9 494 109 
L 494 744 
Q 775 591 1075 516 
Q 1375 441 1709 441 
Q 2250 441 2565 725 
Q 2881 1009 2881 1497 
Q 2881 1984 2565 2268 
Q 2250 2553 1709 2553 
Q 1456 2553 1204 2497 
Q 953 2441 691 2322 
L 691 4666 
z
" transform="scale(0.015625)"/>
       </defs>
       <use xlink:href="#DejaVuSans-35"/>
       <use xlink:href="#DejaVuSans-30" x="63.623047"/>
      </g>
     </g>
    </g>
    <g id="text_14">
     <!-- Cost Function (MSE) -->
     <g transform="translate(20.826562 245.383594)rotate(-90)scale(0.18 -0.18)">
      <defs>
       <path id="Montserrat-Medium-43" d="M 2675 -51 
Q 2003 -51 1462 246 
Q 922 544 614 1065 
Q 307 1587 307 2240 
Q 307 2893 614 3414 
Q 922 3936 1466 4233 
Q 2010 4531 2682 4531 
Q 3206 4531 3641 4355 
Q 4077 4179 4384 3834 
L 3968 3430 
Q 3462 3962 2707 3962 
Q 2208 3962 1805 3738 
Q 1402 3514 1174 3120 
Q 947 2726 947 2240 
Q 947 1754 1174 1360 
Q 1402 966 1805 742 
Q 2208 518 2707 518 
Q 3456 518 3968 1056 
L 4384 653 
Q 4077 307 3638 128 
Q 3200 -51 2675 -51 
z
" transform="scale(0.015625)"/>
       <path id="Montserrat-Medium-46" d="M 1312 3923 
L 1312 2362 
L 3558 2362 
L 3558 1811 
L 1312 1811 
L 1312 0 
L 672 0 
L 672 4480 
L 3834 4480 
L 3834 3923 
L 1312 3923 
z
" transform="scale(0.015625)"/>
       <path id="Montserrat-Medium-63" d="M 2061 -38 
Q 1542 -38 1136 186 
Q 730 410 499 803 
Q 269 1197 269 1696 
Q 269 2195 499 2588 
Q 730 2982 1136 3203 
Q 1542 3424 2061 3424 
Q 2522 3424 2883 3238 
Q 3245 3053 3443 2701 
L 2976 2400 
Q 2816 2643 2579 2764 
Q 2342 2886 2054 2886 
Q 1722 2886 1456 2739 
Q 1190 2592 1040 2320 
Q 890 2048 890 1696 
Q 890 1338 1040 1066 
Q 1190 794 1456 646 
Q 1722 499 2054 499 
Q 2342 499 2579 620 
Q 2816 742 2976 986 
L 3443 691 
Q 3245 339 2883 150 
Q 2522 -38 2061 -38 
z
" transform="scale(0.015625)"/>
       <path id="Montserrat-Medium-28" d="M 1370 -1242 
Q 1005 -653 806 112 
Q 608 877 608 1754 
Q 608 2630 806 3401 
Q 1005 4173 1370 4749 
L 1952 4749 
Q 1568 4077 1389 3341 
Q 1210 2605 1210 1754 
Q 1210 902 1389 166 
Q 1568 -570 1952 -1242 
L 1370 -1242 
z
" transform="scale(0.015625)"/>
       <path id="Montserrat-Medium-4d" d="M 4826 0 
L 4819 3264 
L 3200 544 
L 2906 544 
L 1286 3245 
L 1286 0 
L 672 0 
L 672 4480 
L 1197 4480 
L 3066 1331 
L 4909 4480 
L 5434 4480 
L 5440 0 
L 4826 0 
z
" transform="scale(0.015625)"/>
       <path id="Montserrat-Medium-53" d="M 1978 -51 
Q 1472 -51 1001 105 
Q 531 262 262 512 
L 499 1011 
Q 755 781 1155 637 
Q 1555 493 1978 493 
Q 2534 493 2809 681 
Q 3085 870 3085 1184 
Q 3085 1414 2934 1558 
Q 2784 1702 2563 1779 
Q 2342 1856 1939 1952 
Q 1434 2074 1123 2195 
Q 813 2317 592 2569 
Q 371 2822 371 3251 
Q 371 3610 560 3898 
Q 749 4186 1133 4358 
Q 1517 4531 2086 4531 
Q 2483 4531 2867 4428 
Q 3251 4326 3526 4134 
L 3315 3622 
Q 3034 3802 2714 3894 
Q 2394 3987 2086 3987 
Q 1542 3987 1270 3788 
Q 998 3590 998 3277 
Q 998 3046 1152 2902 
Q 1306 2758 1533 2678 
Q 1760 2598 2150 2509 
Q 2656 2387 2963 2265 
Q 3270 2144 3491 1894 
Q 3712 1645 3712 1222 
Q 3712 870 3520 579 
Q 3328 288 2937 118 
Q 2547 -51 1978 -51 
z
" transform="scale(0.015625)"/>
       <path id="Montserrat-Medium-45" d="M 3923 557 
L 3923 0 
L 672 0 
L 672 4480 
L 3834 4480 
L 3834 3923 
L 1312 3923 
L 1312 2547 
L 3558 2547 
L 3558 2003 
L 1312 2003 
L 1312 557 
L 3923 557 
z
" transform="scale(0.015625)"/>
       <path id="Montserrat-Medium-29" d="M 205 -1242 
Q 589 -570 771 166 
Q 954 902 954 1754 
Q 954 2605 771 3341 
Q 589 4077 205 4749 
L 787 4749 
Q 1158 4173 1356 3405 
Q 1555 2637 1555 1754 
Q 1555 877 1356 109 
Q 1158 -659 787 -1242 
L 205 -1242 
z
" transform="scale(0.015625)"/>
      </defs>
      <use xlink:href="#Montserrat-Medium-43"/>
      <use xlink:href="#Montserrat-Medium-6f" x="72.299988"/>
      <use xlink:href="#Montserrat-Medium-73" x="135.799973"/>
      <use xlink:href="#Montserrat-Medium-74" x="185.899963"/>
      <use xlink:href="#Montserrat-Medium-20" x="227.299957"/>
      <use xlink:href="#Montserrat-Medium-46" x="254.199951"/>
      <use xlink:href="#Montserrat-Medium-75" x="317.699936"/>
      <use xlink:href="#Montserrat-Medium-6e" x="385.399918"/>
      <use xlink:href="#Montserrat-Medium-63" x="453.499908"/>
      <use xlink:href="#Montserrat-Medium-74" x="510.599899"/>
      <use xlink:href="#Montserrat-Medium-69" x="551.999893"/>
      <use xlink:href="#Montserrat-Medium-6f" x="579.899887"/>
      <use xlink:href="#Montserrat-Medium-6e" x="643.399872"/>
      <use xlink:href="#Montserrat-Medium-20" x="711.499863"/>
      <use xlink:href="#Montserrat-Medium-28" x="738.399857"/>
      <use xlink:href="#Montserrat-Medium-4d" x="772.099854"/>
      <use xlink:href="#Montserrat-Medium-53" x="867.599838"/>
      <use xlink:href="#Montserrat-Medium-45" x="929.699829"/>
      <use xlink:href="#Montserrat-Medium-29" x="996.699814"/>
     </g>
    </g>
   </g>
   <g id="line2d_13">
    <path d="M 74.905449 -1 
L 75.187888 48.40057 
L 75.634287 106.832897 
L 76.080687 146.492766 
L 76.527087 169.475546 
L 76.973488 178.680033 
L 77.419888 180.663124 
L 78.312687 181.560695 
L 78.759087 181.763924 
L 79.205488 182.146313 
L 79.651888 182.371536 
L 80.991087 183.39325 
L 83.669488 185.069262 
L 84.115887 185.468792 
L 84.562287 185.595504 
L 85.455088 186.173604 
L 87.687088 187.525099 
L 90.811887 189.075266 
L 91.258287 189.388267 
L 91.704688 189.548669 
L 92.151087 189.864905 
L 95.275887 191.074705 
L 95.722287 191.505228 
L 97.954287 192.422383 
L 98.400688 192.49394 
L 99.293487 192.950688 
L 100.186287 193.214475 
L 100.632688 193.508379 
L 101.079087 193.574352 
L 101.525487 193.814897 
L 102.418287 194.075724 
L 107.775087 195.897947 
L 108.221487 195.814167 
L 110.007087 196.363504 
L 110.453487 196.397162 
L 110.899888 196.644295 
L 113.131888 197.079281 
L 114.024687 197.288938 
L 115.363888 197.522187 
L 116.256687 197.739236 
L 118.488687 198.176369 
L 121.167087 198.635655 
L 121.613487 198.597259 
L 122.952687 198.893446 
L 124.738287 199.251652 
L 125.184687 199.128355 
L 125.631087 199.247782 
L 126.077487 199.244631 
L 126.523888 199.384381 
L 127.416687 199.463255 
L 127.863087 199.567508 
L 128.755888 199.562305 
L 129.202288 199.778011 
L 129.648687 199.707427 
L 130.987887 199.937028 
L 133.666288 200.140415 
L 134.112687 200.253053 
L 134.559087 200.151053 
L 135.005488 200.310852 
L 136.344687 200.372321 
L 137.237487 200.504902 
L 137.683887 200.567988 
L 138.576687 200.457984 
L 139.023087 200.818082 
L 139.469488 200.580276 
L 139.915887 200.679431 
L 140.808687 200.671892 
L 142.147887 200.916244 
L 142.594288 200.810574 
L 145.272687 200.962982 
L 145.719088 201.036696 
L 146.165487 200.99037 
L 147.058288 201.063259 
L 148.397488 201.116183 
L 148.843887 201.228916 
L 149.736687 201.185752 
L 150.629487 201.185667 
L 151.075887 201.152665 
L 151.522288 201.31055 
L 154.647087 201.372759 
L 155.539887 201.415522 
L 155.986288 201.524723 
L 156.432687 201.336627 
L 158.218287 201.468309 
L 159.557487 201.537761 
L 160.003887 201.447678 
L 161.789488 201.692316 
L 162.235887 201.505256 
L 162.682287 201.751902 
L 163.128688 201.572519 
L 163.575087 201.687314 
L 164.467887 201.570436 
L 164.914288 201.741286 
L 165.360687 201.634379 
L 166.253488 201.689746 
L 166.699887 201.607922 
L 167.146287 201.778465 
L 167.592688 201.628108 
L 168.039087 201.781024 
L 169.378287 201.737045 
L 169.824687 201.900324 
L 170.271087 201.742565 
L 171.163887 201.813582 
L 171.610287 201.744765 
L 172.503087 201.854145 
L 173.395887 201.836085 
L 173.842287 201.727031 
L 174.735087 201.825563 
L 176.074287 201.925723 
L 176.520688 201.835239 
L 177.859887 201.925512 
L 178.306287 201.828016 
L 180.538287 201.956727 
L 180.984688 201.882442 
L 181.431087 201.982444 
L 181.877487 201.874649 
L 182.323888 202.021981 
L 182.770287 201.819747 
L 183.663087 201.970294 
L 185.002287 201.865672 
L 185.895087 202.012887 
L 186.341487 202.110838 
L 187.234287 201.977358 
L 187.680687 202.075096 
L 188.573487 202.029479 
L 189.019887 202.125525 
L 190.359087 202.002038 
L 190.805487 202.078163 
L 191.698287 201.997269 
L 192.144687 202.137961 
L 192.591088 201.98477 
L 194.376688 202.083418 
L 194.823087 201.983385 
L 195.269487 202.107327 
L 197.501487 202.09633 
L 197.947887 201.96064 
L 198.394288 202.144242 
L 198.840688 202.109759 
L 199.287087 202.334823 
L 199.733487 201.951673 
L 200.179888 202.169176 
L 200.626287 202.054963 
L 204.197487 202.105043 
L 204.643888 202.012401 
L 205.536687 202.194396 
L 208.661487 202.199419 
L 210.447088 202.219637 
L 210.893487 202.046154 
L 211.339887 202.206007 
L 211.786288 202.142307 
L 212.232687 202.214868 
L 213.125487 202.16519 
L 215.803887 202.187406 
L 216.696687 202.235499 
L 217.143087 202.124658 
L 217.589487 202.267433 
L 218.035888 202.161817 
L 220.267887 202.208322 
L 221.607087 202.028929 
L 222.053487 202.269368 
L 222.499887 202.176938 
L 223.392687 202.218717 
L 224.285487 202.237783 
L 225.178288 202.167728 
L 226.071087 202.225432 
L 226.517488 202.289724 
L 226.963887 202.192842 
L 227.856687 202.240701 
L 228.303088 202.137199 
L 229.195887 202.272837 
L 229.642288 202.281878 
L 230.088687 202.137474 
L 230.535087 202.172084 
L 230.981488 202.327929 
L 231.874287 202.179433 
L 232.767088 202.241431 
L 234.552687 202.244941 
L 234.999087 202.306135 
L 235.445488 202.158073 
L 235.891887 202.161298 
L 236.338287 202.370512 
L 239.016687 202.261998 
L 239.909488 202.323731 
L 240.355887 202.267496 
L 240.802287 202.390307 
L 241.248687 202.230211 
L 242.141487 202.344647 
L 242.587887 202.211294 
L 245.266287 202.279223 
L 245.712687 202.456322 
L 246.159087 202.197198 
L 246.605487 202.315102 
L 259.551087 202.370036 
L 260.443887 202.388319 
L 263.122287 202.350494 
L 263.568688 202.386733 
L 264.015087 202.219732 
L 264.461487 202.411477 
L 265.354287 202.244423 
L 265.800687 202.383952 
L 268.032688 202.473601 
L 268.479087 202.278229 
L 270.264687 202.443781 
L 270.711087 202.335627 
L 271.603887 202.495839 
L 272.943087 202.359313 
L 273.389487 202.437257 
L 274.282287 202.318306 
L 275.175087 202.44928 
L 276.514287 202.33587 
L 276.960688 202.439382 
L 277.407087 202.363057 
L 278.299888 202.515412 
L 278.746287 202.326766 
L 279.192687 202.444278 
L 280.085487 202.330393 
L 280.531887 202.429559 
L 281.424688 202.400141 
L 281.871087 202.503325 
L 282.317487 202.259534 
L 282.763888 202.441021 
L 284.103087 202.307489 
L 285.442287 202.45535 
L 286.335087 202.385284 
L 286.781487 202.360054 
L 287.227888 202.459675 
L 289.459887 202.4386 
L 289.906287 202.464602 
L 290.352688 202.366261 
L 290.799087 202.476572 
L 291.691888 202.378115 
L 294.816688 202.507312 
L 295.709487 202.28671 
L 296.155888 202.408801 
L 300.173487 202.252111 
L 300.619888 202.47598 
L 302.405487 202.4445 
L 303.298287 202.439456 
L 304.191087 202.4362 
L 307.315887 202.400797 
L 308.208687 202.523237 
L 308.655087 202.414015 
L 309.101487 202.526885 
L 309.547888 202.371844 
L 309.994287 202.476826 
L 311.333487 202.395361 
L 311.779887 202.499572 
L 314.011888 202.448794 
L 315.351088 202.482473 
L 316.690288 202.384925 
L 318.029488 202.50857 
L 318.475887 202.443887 
L 319.368688 202.496917 
L 319.815088 202.458839 
L 320.261487 202.626427 
L 320.707887 202.401886 
L 322.047087 202.447419 
L 326.064687 202.516385 
L 326.511087 202.407776 
L 326.957488 202.515243 
L 330.082288 202.498662 
L 330.528687 202.539971 
L 330.975087 202.38613 
L 331.421488 202.54622 
L 331.867887 202.460372 
L 333.653487 202.589887 
L 334.099887 202.381361 
L 334.546288 202.57871 
L 334.992687 202.58194 
L 335.439087 202.429168 
L 336.778287 202.536524 
L 337.224688 202.431134 
L 338.117487 202.528027 
L 342.135087 202.467849 
L 342.581487 202.527636 
L 343.027888 202.376032 
L 343.474288 202.545639 
L 343.920687 202.440387 
L 345.259887 202.524019 
L 345.706287 202.481447 
L 346.152688 202.612897 
L 346.599087 202.519346 
L 347.938288 202.514048 
L 357.759087 202.551587 
L 358.205488 202.436834 
L 358.651887 202.539035 
L 359.991087 202.497129 
L 360.883888 202.653724 
L 361.330287 202.398216 
L 361.776687 202.590395 
L 367.133488 202.478328 
L 367.579887 202.620843 
L 368.026287 202.477958 
L 368.919087 202.591008 
L 369.365487 202.61249 
L 369.811888 202.482769 
L 370.258287 202.640231 
L 370.704687 202.5418 
L 371.597487 202.731065 
L 372.043887 202.508221 
L 374.275888 202.567913 
L 374.722287 202.466527 
L 375.168687 202.547875 
L 375.615088 202.784883 
L 376.061487 202.51464 
L 376.507887 202.520985 
L 376.954287 202.715024 
L 377.400688 202.495141 
L 377.847087 202.606795 
L 378.293487 202.467584 
L 378.739888 202.637836 
L 380.079088 202.498979 
L 381.418287 202.556958 
L 382.311087 202.47598 
L 382.757487 202.585911 
L 383.650287 202.553744 
L 384.096687 202.624264 
L 385.435887 202.401928 
L 385.882287 202.592848 
L 387.667888 202.628198 
L 388.114287 202.549498 
L 389.007088 202.540235 
L 389.899887 202.467605 
L 390.346288 202.672256 
L 391.239087 202.504615 
L 391.685487 202.698359 
L 392.131888 202.596369 
L 393.471088 202.674968 
L 394.363887 202.552311 
L 395.256687 202.509152 
L 395.703087 202.608144 
L 397.488687 202.530745 
L 397.935088 202.673868 
L 398.827887 202.535931 
L 400.167087 202.604104 
L 401.952687 202.529381 
L 402.399088 202.662184 
L 402.845487 202.572619 
L 403.291887 202.726153 
L 404.184687 202.471275 
L 404.631087 202.644868 
L 405.077487 202.562314 
L 406.863088 202.66635 
L 407.755887 202.585578 
L 408.648687 202.628119 
L 410.880687 202.496346 
L 411.327088 202.647343 
L 412.219887 202.537787 
L 413.112687 202.670268 
L 413.559087 202.493343 
L 414.005488 202.663416 
L 415.344687 202.565777 
L 418.915887 202.665419 
L 419.808687 202.586725 
L 420.255088 202.66396 
L 420.701487 202.574068 
L 423.379887 202.640602 
L 424.719088 202.584219 
L 425.165487 202.667148 
L 425.611887 202.503315 
L 426.058288 202.661459 
L 426.504687 202.487305 
L 427.843887 202.595222 
L 429.183087 202.598706 
L 429.629487 202.680419 
L 430.968687 202.562092 
L 432.754287 202.648971 
L 434.093487 202.520667 
L 434.986288 202.622038 
L 439.450288 202.672266 
L 439.896687 202.563493 
L 440.789488 202.63257 
L 442.575087 202.601053 
L 443.021487 202.698522 
L 443.467887 202.582781 
L 444.360687 202.611866 
L 448.378287 202.567295 
L 448.824687 202.72278 
L 449.271087 202.571847 
L 449.717488 202.66939 
L 451.056688 202.69138 
L 452.842287 202.57134 
L 453.288687 202.793718 
L 453.735087 202.512673 
L 455.074287 202.697328 
L 457.306287 202.627696 
L 457.752687 202.631857 
L 458.199087 202.803182 
L 458.645488 202.521334 
L 459.538287 202.604009 
L 459.984688 202.654766 
L 460.877487 202.542673 
L 461.323887 202.66764 
L 462.216687 202.625401 
L 464.895087 202.642722 
L 467.573487 202.651689 
L 468.019887 202.730113 
L 468.466287 202.60706 
L 472.930287 202.720871 
L 473.376688 202.579133 
L 474.269487 202.636715 
L 474.715888 202.548562 
L 475.162287 202.726899 
L 475.608687 202.572989 
L 476.501487 202.629065 
L 479.179888 202.685241 
L 479.626287 202.599594 
L 480.965487 202.632956 
L 482.751087 202.664917 
L 483.197487 202.678944 
L 483.643888 202.845167 
L 484.090287 202.603686 
L 486.768687 202.674397 
L 487.661487 202.578594 
L 488.554287 202.687694 
L 489.000687 202.641421 
L 489.447087 202.740973 
L 489.893487 202.555399 
L 490.339887 202.676977 
L 490.786287 202.568654 
L 491.232687 202.71891 
L 493.464687 202.635431 
L 493.911088 202.612178 
L 494.803887 202.755888 
L 495.250287 202.63634 
L 496.589487 202.698956 
L 498.821487 202.673927 
L 499.267887 202.66101 
L 499.714287 202.76227 
L 500.160687 202.592599 
L 504.178287 202.653587 
L 504.178287 202.653587 
" clip-path="url(#p027714f9ec)" style="fill: none; stroke: #0000ff; stroke-width: 2; stroke-linecap: square"/>
   </g>
   <g id="patch_3">
    <path d="M 58.224688 291.238594 
L 58.224688 14.038594 
" style="fill: none; stroke: #000000; stroke-width: 0.8; stroke-linejoin: miter; stroke-linecap: square"/>
   </g>
   <g id="patch_4">
    <path d="M 504.624687 291.238594 
L 504.624687 14.038594 
" style="fill: none; stroke: #000000; stroke-width: 0.8; stroke-linejoin: miter; stroke-linecap: square"/>
   </g>
   <g id="patch_5">
    <path d="M 58.224688 291.238594 
L 504.624687 291.238594 
" style="fill: none; stroke: #000000; stroke-width: 0.8; stroke-linejoin: miter; stroke-linecap: square"/>
   </g>
   <g id="patch_6">
    <path d="M 58.224688 14.038594 
L 504.624687 14.038594 
" style="fill: none; stroke: #000000; stroke-width: 0.8; stroke-linejoin: miter; stroke-linecap: square"/>
   </g>
  </g>
 </g>
 <defs>
  <clipPath id="p027714f9ec">
   <rect x="58.224688" y="14.038594" width="446.4" height="277.2"/>
  </clipPath>
 </defs>
</svg>
